G04*
G04 #@! TF.GenerationSoftware,Altium Limited,Altium Designer,18.1.9 (240)*
G04*
G04 Layer_Color=32768*
%FSLAX25Y25*%
%MOIN*%
G70*
G01*
G75*
%ADD45C,0.00197*%
%ADD46C,0.00100*%
%ADD47C,0.00158*%
%ADD48C,0.00200*%
D45*
X300878Y196000D02*
G03*
X300878Y196000I-1378J0D01*
G01*
Y182500D02*
G03*
X300878Y182500I-1378J0D01*
G01*
X429878Y172545D02*
G03*
X429878Y172545I-1378J0D01*
G01*
X299500Y194032D02*
Y197968D01*
X297532Y196000D02*
X301468D01*
X299500Y180532D02*
Y184468D01*
X297532Y182500D02*
X301468D01*
X428500Y170576D02*
Y174513D01*
X426532Y172545D02*
X430469D01*
D46*
X351000Y200000D02*
G03*
X351000Y200000I-500J0D01*
G01*
X347000D02*
G03*
X347000Y200000I-500J0D01*
G01*
X371271Y175118D02*
G03*
X371271Y175118I-500J0D01*
G01*
X357500Y146771D02*
G03*
X357500Y146771I-500J0D01*
G01*
X371228Y163366D02*
G03*
X371228Y163366I-500J0D01*
G01*
X380804Y156750D02*
G03*
X380804Y156750I-500J0D01*
G01*
Y151500D02*
G03*
X380804Y151500I-500J0D01*
G01*
X353500Y146771D02*
G03*
X353500Y146771I-500J0D01*
G01*
X349500D02*
G03*
X349500Y146771I-500J0D01*
G01*
X371228Y155366D02*
G03*
X371228Y155366I-500J0D01*
G01*
X345500Y146771D02*
G03*
X345500Y146771I-500J0D01*
G01*
X371228Y159366D02*
G03*
X371228Y159366I-500J0D01*
G01*
X341500Y146771D02*
G03*
X341500Y146771I-500J0D01*
G01*
X371228Y151366D02*
G03*
X371228Y151366I-500J0D01*
G01*
X325500Y146771D02*
G03*
X325500Y146771I-500J0D01*
G01*
X318753Y153252D02*
G03*
X318753Y153252I-500J0D01*
G01*
X315569Y163546D02*
G03*
X315569Y163546I-500J0D01*
G01*
X337500Y146771D02*
G03*
X337500Y146771I-500J0D01*
G01*
X333500D02*
G03*
X333500Y146771I-500J0D01*
G01*
X371271Y183000D02*
G03*
X371271Y183000I-500J0D01*
G01*
X381000Y174000D02*
G03*
X381000Y174000I-500J0D01*
G01*
Y178000D02*
G03*
X381000Y178000I-500J0D01*
G01*
X329485Y146771D02*
G03*
X329485Y146771I-500J0D01*
G01*
X381000Y170000D02*
G03*
X381000Y170000I-500J0D01*
G01*
Y166000D02*
G03*
X381000Y166000I-500J0D01*
G01*
X371271Y191000D02*
G03*
X371271Y191000I-500J0D01*
G01*
X315373Y167545D02*
G03*
X315373Y167545I-500J0D01*
G01*
X371271Y195000D02*
G03*
X371271Y195000I-500J0D01*
G01*
X380804Y162000D02*
G03*
X380804Y162000I-500J0D01*
G01*
X381000Y182000D02*
G03*
X381000Y182000I-500J0D01*
G01*
X343000Y200000D02*
G03*
X343000Y200000I-500J0D01*
G01*
X315331Y173545D02*
G03*
X315331Y173545I-500J0D01*
G01*
X383000Y202000D02*
G03*
X383000Y202000I-500J0D01*
G01*
Y143000D02*
G03*
X383000Y143000I-500J0D01*
G01*
X315331Y179545D02*
G03*
X315331Y179545I-500J0D01*
G01*
Y193045D02*
G03*
X315331Y193045I-500J0D01*
G01*
Y189187D02*
G03*
X315331Y189187I-500J0D01*
G01*
X371271Y179000D02*
G03*
X371271Y179000I-500J0D01*
G01*
Y187000D02*
G03*
X371271Y187000I-500J0D01*
G01*
X371228Y167366D02*
G03*
X371228Y167366I-500J0D01*
G01*
X339000Y200000D02*
G03*
X339000Y200000I-500J0D01*
G01*
X315331Y183545D02*
G03*
X315331Y183545I-500J0D01*
G01*
X350500Y199213D02*
Y200787D01*
X349713Y200000D02*
X351287D01*
X346500Y199213D02*
Y200787D01*
X345713Y200000D02*
X347287D01*
X369984Y175118D02*
X371559D01*
X370771Y174330D02*
Y175905D01*
X357000Y145984D02*
Y147559D01*
X356213Y146771D02*
X357788D01*
X369941Y163366D02*
X371516D01*
X370728Y162579D02*
Y164154D01*
X379516Y156750D02*
X381091D01*
X380304Y155963D02*
Y157537D01*
X379516Y151500D02*
X381091D01*
X380304Y150713D02*
Y152287D01*
X353000Y145984D02*
Y147559D01*
X352213Y146771D02*
X353788D01*
X349000Y145984D02*
Y147559D01*
X348213Y146771D02*
X349788D01*
X369941Y155366D02*
X371516D01*
X370728Y154578D02*
Y156153D01*
X345000Y145984D02*
Y147559D01*
X344213Y146771D02*
X345788D01*
X369941Y159366D02*
X371516D01*
X370728Y158579D02*
Y160153D01*
X341000Y145984D02*
Y147559D01*
X340213Y146771D02*
X341788D01*
X369941Y151366D02*
X371516D01*
X370728Y150578D02*
Y152153D01*
X325000Y145984D02*
Y147559D01*
X324213Y146771D02*
X325788D01*
X317696Y152696D02*
X318810Y153809D01*
X317696D02*
X318810Y152696D01*
X314282Y163546D02*
X315857D01*
X315069Y162758D02*
Y164333D01*
X337000Y145984D02*
Y147559D01*
X336213Y146771D02*
X337788D01*
X333000Y145984D02*
Y147559D01*
X332213Y146771D02*
X333788D01*
X369984Y183000D02*
X371559D01*
X370771Y182212D02*
Y183787D01*
X379713Y174000D02*
X381287D01*
X380500Y173213D02*
Y174787D01*
X379713Y178000D02*
X381287D01*
X380500Y177213D02*
Y178787D01*
X328985Y145984D02*
Y147559D01*
X328197Y146771D02*
X329772D01*
X379713Y170000D02*
X381287D01*
X380500Y169213D02*
Y170787D01*
X379713Y166000D02*
X381287D01*
X380500Y165213D02*
Y166787D01*
X369984Y191000D02*
X371559D01*
X370771Y190212D02*
Y191787D01*
X314086Y167545D02*
X315660D01*
X314873Y166758D02*
Y168333D01*
X369984Y195000D02*
X371559D01*
X370771Y194212D02*
Y195787D01*
X379516Y162000D02*
X381091D01*
X380304Y161213D02*
Y162787D01*
X379713Y182000D02*
X381287D01*
X380500Y181213D02*
Y182788D01*
X342500Y199213D02*
Y200787D01*
X341713Y200000D02*
X343287D01*
X314831Y172758D02*
Y174333D01*
X314043Y173545D02*
X315618D01*
X381713Y202000D02*
X383287D01*
X382500Y201213D02*
Y202787D01*
X381713Y143000D02*
X383287D01*
X382500Y142213D02*
Y143787D01*
X314043Y179545D02*
X315618D01*
X314831Y178758D02*
Y180333D01*
X314043Y193045D02*
X315618D01*
X314831Y192258D02*
Y193833D01*
X314043Y189187D02*
X315618D01*
X314831Y188400D02*
Y189975D01*
X369984Y179000D02*
X371559D01*
X370771Y178212D02*
Y179787D01*
X369984Y187000D02*
X371559D01*
X370771Y186213D02*
Y187787D01*
X369941Y167366D02*
X371516D01*
X370728Y166579D02*
Y168154D01*
X338500Y199213D02*
Y200787D01*
X337713Y200000D02*
X339287D01*
X314043Y183545D02*
X315618D01*
X314831Y182758D02*
Y184333D01*
D47*
X303207Y170045D02*
G03*
X303207Y170045I-707J0D01*
G01*
X302500Y169045D02*
Y171045D01*
X301500Y170045D02*
X303500D01*
D48*
X299500Y189000D02*
X300500D01*
X300000Y188500D02*
Y189500D01*
M02*
