G04*
G04 #@! TF.GenerationSoftware,Altium Limited,Altium Designer,18.1.9 (240)*
G04*
G04 Layer_Color=65535*
%FSLAX25Y25*%
%MOIN*%
G70*
G01*
G75*
%ADD10C,0.02000*%
%ADD11C,0.01000*%
%ADD12C,0.00787*%
%ADD13C,0.00600*%
%ADD14C,0.00591*%
%ADD15C,0.00800*%
D10*
X362484Y159000D02*
G03*
X362484Y159000I-984J0D01*
G01*
D11*
X417000Y178045D02*
G03*
X417000Y174045I0J-2000D01*
G01*
Y182045D02*
G03*
X417000Y178045I0J-2000D01*
G01*
Y190045D02*
G03*
X417000Y186045I0J-2000D01*
G01*
D02*
G03*
X417000Y182045I0J-2000D01*
G01*
X411000Y186045D02*
G03*
X411000Y190045I0J2000D01*
G01*
Y182045D02*
G03*
X411000Y186045I0J2000D01*
G01*
Y178045D02*
G03*
X411000Y182045I0J2000D01*
G01*
Y174045D02*
G03*
X411000Y178045I0J2000D01*
G01*
X417000Y159045D02*
G03*
X417000Y155045I0J-2000D01*
G01*
Y163045D02*
G03*
X417000Y159045I0J-2000D01*
G01*
Y171045D02*
G03*
X417000Y167045I0J-2000D01*
G01*
D02*
G03*
X417000Y163045I0J-2000D01*
G01*
X411000Y167045D02*
G03*
X411000Y171045I0J2000D01*
G01*
Y163045D02*
G03*
X411000Y167045I0J2000D01*
G01*
Y155045D02*
G03*
X411000Y159045I0J2000D01*
G01*
D02*
G03*
X411000Y163045I0J2000D01*
G01*
X333000Y184500D02*
X355000D01*
X333000Y162500D02*
Y184500D01*
Y162500D02*
X355000D01*
Y184500D01*
X417000Y174045D02*
X419000D01*
X417000Y182045D02*
X419000D01*
X417000Y190045D02*
X419000D01*
X409000D02*
X411000D01*
X409000Y174045D02*
X411000D01*
X409000Y182045D02*
X411000D01*
X417000Y155045D02*
X419000D01*
X417000Y163045D02*
X419000D01*
X417000Y171045D02*
X419000D01*
X409000D02*
X411000D01*
X409000Y163045D02*
X411000D01*
X409000Y155045D02*
X411000D01*
X421000Y199045D02*
X423000D01*
X421000Y147045D02*
Y199045D01*
Y147045D02*
X423000D01*
X387000Y204045D02*
X472201D01*
Y141045D02*
Y204045D01*
X387000Y141045D02*
X472201D01*
X387000D02*
Y204045D01*
D12*
X309000Y192000D02*
X310300Y193300D01*
Y198700D01*
X302500Y192000D02*
X309000D01*
Y200000D02*
X310300Y198700D01*
X302500Y200000D02*
X309000D01*
X289000Y192000D02*
X296000D01*
X289000D02*
Y200000D01*
X296000D01*
X309000Y178500D02*
X310300Y179800D01*
Y185200D01*
X302500Y178500D02*
X309000D01*
Y186500D02*
X310300Y185200D01*
X302500Y186500D02*
X309000D01*
X289000Y178500D02*
X296000D01*
X289000D02*
Y186500D01*
X296000D01*
X288000Y147000D02*
Y197000D01*
X268000Y147000D02*
Y197000D01*
Y147000D02*
X288000D01*
X268000Y197000D02*
X288000D01*
X309400Y162045D02*
Y166545D01*
X304900Y162045D02*
X309300D01*
D13*
X349900Y200000D02*
X351100D01*
X348729Y203346D02*
X352272D01*
X352271Y196654D02*
X352272Y196654D01*
X348729Y196654D02*
X352271D01*
X348729D02*
Y199000D01*
Y201000D02*
Y203346D01*
X352271Y196654D02*
Y199000D01*
Y201000D02*
Y203346D01*
X345900Y200000D02*
X347100D01*
X344729Y203346D02*
X348272D01*
X348271Y196654D02*
X348272Y196654D01*
X344729Y196654D02*
X348271D01*
X344729D02*
Y199000D01*
Y201000D02*
Y203346D01*
X348271Y196654D02*
Y199000D01*
Y201000D02*
Y203346D01*
X370771Y174518D02*
Y175718D01*
X374117Y173346D02*
Y176889D01*
X367425Y173346D02*
X367426Y173346D01*
X367425Y173346D02*
Y176889D01*
X369771D01*
X371771D02*
X374117D01*
X367425Y173346D02*
X369771D01*
X371771D02*
X374117D01*
X355228Y143425D02*
X358772D01*
X355228Y149921D02*
X358772D01*
X355228Y143425D02*
Y149921D01*
X358772Y143425D02*
Y149921D01*
X367382Y161595D02*
Y165138D01*
X373878Y161595D02*
Y165138D01*
X367382D02*
X373878D01*
X367382Y161595D02*
X373878D01*
X383650Y154978D02*
Y158521D01*
X377154Y154978D02*
Y158521D01*
Y154978D02*
X383650D01*
X377154Y158521D02*
X383650D01*
Y149728D02*
Y153271D01*
X377154Y149728D02*
Y153271D01*
Y149728D02*
X383650D01*
X377154Y153271D02*
X383650D01*
X351228Y143425D02*
X354772D01*
X351228Y149921D02*
X354772D01*
X351228Y143425D02*
Y149921D01*
X354772Y143425D02*
Y149921D01*
X347228Y143425D02*
X350772D01*
X347228Y149921D02*
X350772D01*
X347228Y143425D02*
Y149921D01*
X350772Y143425D02*
Y149921D01*
X367382Y153595D02*
Y157138D01*
X373878Y153595D02*
Y157138D01*
X367382D02*
X373878D01*
X367382Y153595D02*
X373878D01*
X343228Y143425D02*
X346772D01*
X343228Y149921D02*
X346772D01*
X343228Y143425D02*
Y149921D01*
X346772Y143425D02*
Y149921D01*
X370728Y158766D02*
Y159966D01*
X367382Y157595D02*
Y161138D01*
X374074D02*
X374075Y161137D01*
Y157595D02*
Y161137D01*
X371728Y157595D02*
X374075D01*
X367382D02*
X369728D01*
X371728Y161137D02*
X374075D01*
X367382D02*
X369728D01*
X339228Y143425D02*
X342772D01*
X339228Y149921D02*
X342772D01*
X339228Y143425D02*
Y149921D01*
X342772Y143425D02*
Y149921D01*
X367382Y149594D02*
Y153138D01*
X373878Y149594D02*
Y153138D01*
X367382D02*
X373878D01*
X367382Y149594D02*
X373878D01*
X323228Y143425D02*
X326772D01*
X323228Y149921D02*
X326772D01*
X323228Y143425D02*
Y149921D01*
X326772Y143425D02*
Y149921D01*
X314634Y152139D02*
X317139Y149634D01*
X319227Y156733D02*
X321733Y154227D01*
X314634Y152139D02*
X319227Y156733D01*
X317139Y149634D02*
X321733Y154227D01*
X311723Y161774D02*
Y165317D01*
X318219Y161774D02*
Y165317D01*
X311723D02*
X318219D01*
X311723Y161774D02*
X318219D01*
X335228Y143425D02*
X338772D01*
X335228Y149921D02*
X338772D01*
X335228Y143425D02*
Y149921D01*
X338772Y143425D02*
Y149921D01*
X331228Y143425D02*
X334772D01*
X331228Y149921D02*
X334772D01*
X331228Y143425D02*
Y149921D01*
X334772Y143425D02*
Y149921D01*
X367425Y181228D02*
Y184772D01*
X373921Y181228D02*
Y184772D01*
X367425D02*
X373921D01*
X367425Y181228D02*
X373921D01*
X377154Y172229D02*
Y175772D01*
X383650Y172229D02*
Y175772D01*
X377154D02*
X383650D01*
X377154Y172229D02*
X383650D01*
X380500Y177400D02*
Y178600D01*
X377154Y176229D02*
Y179772D01*
X383845D02*
X383846Y179771D01*
Y176229D02*
Y179771D01*
X381500Y176229D02*
X383846D01*
X377154D02*
X379500D01*
X381500Y179771D02*
X383846D01*
X377154D02*
X379500D01*
X327213Y143425D02*
X330756D01*
X327213Y149921D02*
X330756D01*
X327213Y143425D02*
Y149921D01*
X330756Y143425D02*
Y149921D01*
X377154Y168229D02*
Y171772D01*
X383650Y168229D02*
Y171772D01*
X377154D02*
X383650D01*
X377154Y168229D02*
X383650D01*
X380500Y165400D02*
Y166600D01*
X377154Y164229D02*
Y167772D01*
X383845D02*
X383846Y167771D01*
Y164229D02*
Y167771D01*
X381500Y164229D02*
X383846D01*
X377154D02*
X379500D01*
X381500Y167771D02*
X383846D01*
X377154D02*
X379500D01*
X367425Y189228D02*
Y192772D01*
X373921Y189228D02*
Y192772D01*
X367425D02*
X373921D01*
X367425Y189228D02*
X373921D01*
X314873Y166946D02*
Y168146D01*
X318219Y165774D02*
Y169317D01*
X311527Y165774D02*
X311527Y165774D01*
X311527Y165774D02*
Y169317D01*
X313873D01*
X315873D02*
X318219D01*
X311527Y165774D02*
X313873D01*
X315873D02*
X318219D01*
X367425Y193228D02*
Y196772D01*
X373921Y193228D02*
Y196772D01*
X367425D02*
X373921D01*
X367425Y193228D02*
X373921D01*
X383650Y160228D02*
Y163771D01*
X377154Y160228D02*
Y163771D01*
Y160228D02*
X383650D01*
X377154Y163771D02*
X383650D01*
X377154Y180229D02*
Y183772D01*
X383650Y180229D02*
Y183772D01*
X377154D02*
X383650D01*
X377154Y180229D02*
X383650D01*
X341900Y200000D02*
X343100D01*
X340729Y203346D02*
X344272D01*
X344271Y196654D02*
X344272Y196654D01*
X340729Y196654D02*
X344271D01*
X340729D02*
Y199000D01*
Y201000D02*
Y203346D01*
X344271Y196654D02*
Y199000D01*
Y201000D02*
Y203346D01*
X313059Y170199D02*
X316602D01*
X313059Y176695D02*
X316602D01*
X313059Y170199D02*
Y176695D01*
X316602Y170199D02*
Y176695D01*
X382500Y201400D02*
Y202600D01*
X385846Y200228D02*
Y203771D01*
X379154Y200229D02*
X379154Y200228D01*
X379154Y200229D02*
Y203771D01*
X381500D01*
X383500D02*
X385846D01*
X379154Y200229D02*
X381500D01*
X383500D02*
X385846D01*
X382500Y142400D02*
Y143600D01*
X385846Y141228D02*
Y144771D01*
X379154Y141229D02*
X379154Y141228D01*
X379154Y141229D02*
Y144771D01*
X381500D01*
X383500D02*
X385846D01*
X379154Y141229D02*
X381500D01*
X383500D02*
X385846D01*
X314831Y178946D02*
Y180146D01*
X318177Y177774D02*
Y181317D01*
X311485Y177774D02*
X311485Y177774D01*
X311485Y177774D02*
Y181317D01*
X313831D01*
X315831D02*
X318177D01*
X311485Y177774D02*
X313831D01*
X315831D02*
X318177D01*
X314831Y192446D02*
Y193646D01*
X311485Y191274D02*
Y194817D01*
X318176D02*
X318177Y194817D01*
Y191274D02*
Y194817D01*
X315831Y191274D02*
X318177D01*
X311485D02*
X313831D01*
X315831Y194817D02*
X318177D01*
X311485D02*
X313831D01*
X318177Y187415D02*
Y190959D01*
X311681Y187415D02*
Y190959D01*
Y187415D02*
X318177D01*
X311681Y190959D02*
X318177D01*
X370771Y178400D02*
Y179600D01*
X367425Y177228D02*
Y180772D01*
X374117D02*
X374117Y180771D01*
Y177228D02*
Y180771D01*
X371771Y177228D02*
X374117D01*
X367425D02*
X369771D01*
X371771Y180771D02*
X374117D01*
X367425D02*
X369771D01*
X370771Y186400D02*
Y187600D01*
X374117Y185228D02*
Y188771D01*
X367425Y185229D02*
X367426Y185228D01*
X367425Y185229D02*
Y188771D01*
X369771D01*
X371771D02*
X374117D01*
X367425Y185229D02*
X369771D01*
X371771D02*
X374117D01*
X370728Y166766D02*
Y167966D01*
X374075Y165594D02*
Y169138D01*
X367382Y165595D02*
X367383Y165594D01*
X367382Y165595D02*
Y169138D01*
X369728D01*
X371728D02*
X374075D01*
X367382Y165595D02*
X369728D01*
X371728D02*
X374075D01*
X337900Y200000D02*
X339100D01*
X336729Y203346D02*
X340272D01*
X340271Y196654D02*
X340272Y196654D01*
X336729Y196654D02*
X340271D01*
X336729D02*
Y199000D01*
Y201000D02*
Y203346D01*
X340271Y196654D02*
Y199000D01*
Y201000D02*
Y203346D01*
X314831Y182945D02*
Y184145D01*
X318177Y181773D02*
Y185317D01*
X311485Y181774D02*
X311485Y181773D01*
X311485Y181774D02*
Y185317D01*
X313831D01*
X315831D02*
X318177D01*
X311485Y181774D02*
X313831D01*
X315831D02*
X318177D01*
D14*
X296000Y162545D02*
X309000D01*
Y177545D01*
X296000D02*
X309000D01*
X296000Y162545D02*
Y177545D01*
D15*
Y191000D02*
X297500D01*
X295000D02*
X296000D01*
X295000Y187000D02*
Y191000D01*
Y187000D02*
X297500D01*
X302500Y191000D02*
X305000D01*
Y187000D02*
Y191000D01*
X302500Y187000D02*
X305000D01*
X275000Y198000D02*
Y199333D01*
Y198667D01*
X271001D01*
X271668Y198000D01*
Y201332D02*
X271001Y201999D01*
Y203332D01*
X271668Y203998D01*
X274334D01*
X275000Y203332D01*
Y201999D01*
X274334Y201332D01*
X271668D01*
X284334Y198000D02*
X285000Y198667D01*
Y199999D01*
X284334Y200666D01*
X281668D01*
X281001Y199999D01*
Y198667D01*
X281668Y198000D01*
X282334D01*
X283001Y198667D01*
Y200666D01*
X285000Y144000D02*
Y145333D01*
Y144667D01*
X281001D01*
X281668Y144000D01*
X275000Y145666D02*
Y143000D01*
X272334Y145666D01*
X271668D01*
X271001Y144999D01*
Y143667D01*
X271668Y143000D01*
M02*
