M48
;Layer_Color=9474304
;FILE_FORMAT=2:5
INCH,TZ
;TYPE=PLATED
T1F00S00C0.01200
T2F00S00C0.03543
T3F00S00C0.05906
T4F00S00C0.13780
%
T01
X320132Y143000
X312500Y151366
X337000Y142000
X387000Y149000
X385500Y151500
Y156750
X375500Y167366
X375500Y175118
X376000Y190457
Y202000
X365085Y201771
X353728
X355000Y198228
X365000Y188500
X385000Y184925
X354000Y171000
X344500Y171718
X335370Y201771
X327500
X314500Y196000
X310752Y161000
T02
X273000Y152000
X283000
X403500Y155045
X447791Y146462
Y156462
Y188627
Y198627
X403500Y185045
Y175045
Y165045
X393500Y160045
Y170045
Y180045
Y190045
X283000Y192000
X273000
Y182000
X283000
Y172000
X273000
Y162000
X283000
T03
X416492Y142249
Y203194
T04
X428500Y150045
Y195045
M30
