G04*
G04 #@! TF.GenerationSoftware,Altium Limited,Altium Designer,18.1.9 (240)*
G04*
G04 Layer_Physical_Order=1*
G04 Layer_Color=255*
%FSLAX25Y25*%
%MOIN*%
G70*
G01*
G75*
%ADD10C,0.01000*%
%ADD13R,0.03500X0.05000*%
G04:AMPARAMS|DCode=14|XSize=60mil|YSize=50mil|CornerRadius=0mil|HoleSize=0mil|Usage=FLASHONLY|Rotation=180.000|XOffset=0mil|YOffset=0mil|HoleType=Round|Shape=Octagon|*
%AMOCTAGOND14*
4,1,8,-0.03000,0.01250,-0.03000,-0.01250,-0.01750,-0.02500,0.01750,-0.02500,0.03000,-0.01250,0.03000,0.01250,0.01750,0.02500,-0.01750,0.02500,-0.03000,0.01250,0.0*
%
%ADD14OCTAGOND14*%

%ADD15R,0.06000X0.05000*%
%ADD24C,0.07000*%
%ADD25R,0.09449X0.09449*%
%ADD26C,0.09449*%
%ADD27R,0.09449X0.09449*%
%ADD28R,0.07874X0.15748*%
%ADD29R,0.15748X0.07874*%
G36*
X462207Y330207D02*
X462207Y330207D01*
X462571Y329964D01*
X463000Y329878D01*
X463000Y329878D01*
X508378D01*
Y190122D01*
X463500D01*
X463071Y190036D01*
X462707Y189793D01*
X462707Y189793D01*
X459035Y186122D01*
X392122D01*
Y333379D01*
X459035D01*
X462207Y330207D01*
D02*
G37*
%LPC*%
G36*
X472000Y328587D02*
X470610Y328404D01*
X469315Y327868D01*
X468643Y327352D01*
X462500D01*
X462500Y327352D01*
X461430Y327211D01*
X460432Y326798D01*
X459576Y326141D01*
X459576Y326141D01*
X436283Y302848D01*
X429207Y309924D01*
X428351Y310581D01*
X427353Y310995D01*
X426283Y311135D01*
X426283Y311135D01*
X408910D01*
X408910Y311135D01*
X407839Y310995D01*
X406842Y310581D01*
X405985Y309924D01*
X405985Y309924D01*
X398359Y302298D01*
X397519Y302187D01*
X396224Y301651D01*
X395112Y300797D01*
X394259Y299685D01*
X393722Y298390D01*
X393539Y297000D01*
X393722Y295610D01*
X394259Y294315D01*
X395112Y293203D01*
X396224Y292349D01*
X397519Y291813D01*
X398909Y291630D01*
X400299Y291813D01*
X401595Y292349D01*
X402707Y293203D01*
X403560Y294315D01*
X404097Y295610D01*
X404207Y296450D01*
X408314Y300556D01*
X408776Y300364D01*
Y297500D01*
X414500D01*
X420224D01*
Y302724D01*
X420666Y302865D01*
X424570D01*
X430985Y296450D01*
X431096Y295610D01*
X431632Y294315D01*
X432486Y293203D01*
X433598Y292349D01*
X434893Y291813D01*
X436283Y291630D01*
X437673Y291813D01*
X438968Y292349D01*
X440081Y293203D01*
X440934Y294315D01*
X441471Y295610D01*
X441581Y296450D01*
X445687Y300556D01*
X446149Y300364D01*
Y297500D01*
X451374D01*
Y302724D01*
X448509D01*
X448318Y303186D01*
X464213Y319081D01*
X468643D01*
X469315Y318566D01*
X470610Y318029D01*
X471450Y317919D01*
X475556Y313813D01*
X475364Y313351D01*
X472500D01*
Y307626D01*
Y301902D01*
X477724D01*
X477865Y301460D01*
Y297930D01*
X471450Y291515D01*
X470610Y291404D01*
X469315Y290868D01*
X468203Y290014D01*
X467349Y288902D01*
X466813Y287607D01*
X466630Y286217D01*
X466813Y284827D01*
X467349Y283532D01*
X468203Y282419D01*
X469315Y281566D01*
X470610Y281029D01*
X471450Y280919D01*
X475556Y276813D01*
X475364Y276351D01*
X472500D01*
Y270626D01*
Y264902D01*
X477724D01*
X477865Y264460D01*
Y260930D01*
X471450Y254515D01*
X470610Y254404D01*
X469315Y253868D01*
X468203Y253014D01*
X467349Y251902D01*
X466813Y250607D01*
X466630Y249217D01*
X466813Y247827D01*
X467349Y246532D01*
X468203Y245419D01*
X469315Y244566D01*
X470610Y244029D01*
X471450Y243919D01*
X475556Y239813D01*
X475364Y239351D01*
X472500D01*
Y233626D01*
Y227902D01*
X477724D01*
X477865Y227460D01*
Y223930D01*
X471450Y217515D01*
X470610Y217404D01*
X469315Y216868D01*
X468643Y216352D01*
X463713D01*
X457015Y223050D01*
X456904Y223890D01*
X456368Y225185D01*
X455852Y225857D01*
Y245193D01*
X455711Y246263D01*
X455298Y247260D01*
X454641Y248117D01*
X454641Y248117D01*
X448798Y253960D01*
X448793Y253979D01*
X448764Y253995D01*
X448752Y254025D01*
X447553Y255274D01*
X446523Y256449D01*
X445654Y257557D01*
X444948Y258596D01*
X444402Y259563D01*
X444016Y260453D01*
X443947Y260695D01*
Y265974D01*
X440643D01*
X440578Y266832D01*
X440559Y267975D01*
X440531Y268039D01*
Y274831D01*
X440446Y275261D01*
X440203Y275624D01*
X440203Y275624D01*
X436681Y279146D01*
X436656Y279210D01*
X436532Y279340D01*
X436435Y279455D01*
X436351Y279564D01*
X436283Y279669D01*
X436228Y279767D01*
X436185Y279860D01*
X436154Y279947D01*
X436133Y280029D01*
X436121Y280106D01*
X436115Y280213D01*
X436091Y280264D01*
Y283600D01*
X431390D01*
Y277400D01*
X435181D01*
X435741Y276875D01*
X435804Y276851D01*
X438288Y274367D01*
Y268039D01*
X438260Y267975D01*
X438241Y266832D01*
X438175Y265974D01*
X434872D01*
Y249026D01*
X437453D01*
X437511Y249016D01*
X437526Y249026D01*
X441208D01*
X441297Y248974D01*
X442446Y248157D01*
X445220Y245773D01*
X446819Y244222D01*
X446852Y244209D01*
X447581Y243480D01*
Y225857D01*
X447066Y225185D01*
X446529Y223890D01*
X446419Y223050D01*
X442313Y218944D01*
X441851Y219135D01*
Y222000D01*
X436126D01*
Y222500D01*
D01*
Y222000D01*
X430402D01*
Y216776D01*
X429960Y216635D01*
X426213D01*
X419798Y223050D01*
X419687Y223890D01*
X419151Y225185D01*
X418297Y226297D01*
X417185Y227151D01*
X415890Y227687D01*
X414500Y227870D01*
X413110Y227687D01*
X411815Y227151D01*
X410703Y226297D01*
X409849Y225185D01*
X409313Y223890D01*
X409130Y222500D01*
X409313Y221110D01*
X409849Y219815D01*
X410703Y218703D01*
X411815Y217849D01*
X413110Y217313D01*
X413950Y217202D01*
X421576Y209576D01*
X421576Y209576D01*
X422432Y208919D01*
X423430Y208506D01*
X424500Y208365D01*
X424500Y208365D01*
X441717D01*
X441717Y208365D01*
X442787Y208506D01*
X443785Y208919D01*
X444641Y209576D01*
X451717Y216652D01*
X459076Y209293D01*
X459076Y209293D01*
X459932Y208635D01*
X460930Y208222D01*
X462000Y208081D01*
X462000Y208081D01*
X468643D01*
X469315Y207566D01*
X470610Y207029D01*
X472000Y206846D01*
X473390Y207029D01*
X474685Y207566D01*
X475797Y208419D01*
X476651Y209532D01*
X477187Y210827D01*
X477298Y211666D01*
X484924Y219293D01*
X484924Y219293D01*
X485581Y220149D01*
X485994Y221146D01*
X486135Y222217D01*
X486135Y222217D01*
Y239217D01*
X486135Y239217D01*
X485994Y240287D01*
X485581Y241284D01*
X484924Y242141D01*
X484924Y242141D01*
X477848Y249217D01*
X484924Y256293D01*
X484924Y256293D01*
X485581Y257149D01*
X485994Y258147D01*
X486135Y259217D01*
X486135Y259217D01*
Y276217D01*
X486135Y276217D01*
X485994Y277287D01*
X485581Y278285D01*
X484924Y279141D01*
X484924Y279141D01*
X477848Y286217D01*
X484924Y293293D01*
X484924Y293293D01*
X485581Y294149D01*
X485994Y295146D01*
X486135Y296217D01*
X486135Y296217D01*
Y313217D01*
X486135Y313217D01*
X485994Y314287D01*
X485581Y315284D01*
X484924Y316141D01*
X484924Y316141D01*
X477298Y323767D01*
X477187Y324607D01*
X476651Y325902D01*
X475797Y327014D01*
X474685Y327868D01*
X473390Y328404D01*
X472000Y328587D01*
D02*
G37*
G36*
X471500Y313351D02*
X466276D01*
Y308126D01*
X471500D01*
Y313351D01*
D02*
G37*
G36*
Y307126D02*
X466276D01*
Y301902D01*
X471500D01*
Y307126D01*
D02*
G37*
G36*
X457598Y302724D02*
X452374D01*
Y297500D01*
X457598D01*
Y302724D01*
D02*
G37*
G36*
Y296500D02*
X452374D01*
Y291276D01*
X457598D01*
Y296500D01*
D02*
G37*
G36*
X451374D02*
X446149D01*
Y291276D01*
X451374D01*
Y296500D01*
D02*
G37*
G36*
X420224Y296500D02*
X415000D01*
Y291276D01*
X420224D01*
Y296500D01*
D02*
G37*
G36*
X414000D02*
X408776D01*
Y291276D01*
X414000D01*
Y296500D01*
D02*
G37*
G36*
X428610Y283600D02*
X423910D01*
Y281685D01*
X423894Y281681D01*
X423800Y281665D01*
X423675Y281654D01*
X423505Y281649D01*
X423443Y281622D01*
X420567D01*
X420505Y281649D01*
X420332Y281654D01*
X420205Y281665D01*
X420108Y281681D01*
X420100Y281683D01*
Y283600D01*
X412900D01*
Y277400D01*
X420100D01*
Y279317D01*
X420108Y279320D01*
X420205Y279335D01*
X420332Y279347D01*
X420505Y279351D01*
X420567Y279379D01*
X423443D01*
X423505Y279351D01*
X423675Y279347D01*
X423800Y279336D01*
X423894Y279320D01*
X423910Y279316D01*
Y277400D01*
X428610D01*
Y283600D01*
D02*
G37*
G36*
X408750Y284000D02*
X407000D01*
Y281000D01*
X410500D01*
Y282250D01*
X408750Y284000D01*
D02*
G37*
G36*
X406000D02*
X404250D01*
X402500Y282250D01*
Y281000D01*
X406000D01*
Y284000D01*
D02*
G37*
G36*
X471500Y276351D02*
X466276D01*
Y271126D01*
X471500D01*
Y276351D01*
D02*
G37*
G36*
Y270126D02*
X466276D01*
Y264902D01*
X471500D01*
Y270126D01*
D02*
G37*
G36*
X419937Y266374D02*
X415500D01*
Y258000D01*
X419937D01*
Y266374D01*
D02*
G37*
G36*
X410500Y280000D02*
X406500D01*
X402500D01*
Y278750D01*
X404250Y277000D01*
X405351D01*
X405351Y276995D01*
X405378Y276933D01*
Y266000D01*
X405378Y266000D01*
X405464Y265571D01*
X405707Y265207D01*
X409873Y261041D01*
X409897Y260977D01*
X410022Y260846D01*
X410063Y260798D01*
Y258000D01*
X414500D01*
Y266374D01*
X410063D01*
Y264676D01*
X409601Y264485D01*
X407621Y266465D01*
Y276933D01*
X407649Y276995D01*
X407649Y277000D01*
X408750D01*
X410500Y278750D01*
Y280000D01*
D02*
G37*
G36*
X419937Y257000D02*
X415500D01*
Y248626D01*
X419937D01*
Y257000D01*
D02*
G37*
G36*
X414500D02*
X410063D01*
Y248626D01*
X414500D01*
Y257000D01*
D02*
G37*
G36*
X437653Y243933D02*
X429280D01*
Y239496D01*
X437653D01*
Y243933D01*
D02*
G37*
G36*
X428279D02*
X419906D01*
Y239496D01*
X428279D01*
Y243933D01*
D02*
G37*
G36*
X471500Y239351D02*
X466276D01*
Y234126D01*
X471500D01*
Y239351D01*
D02*
G37*
G36*
X437653Y238496D02*
X429280D01*
Y234059D01*
X437653D01*
Y238496D01*
D02*
G37*
G36*
X428279D02*
X419906D01*
Y234059D01*
X428279D01*
Y238496D01*
D02*
G37*
G36*
X471500Y233126D02*
X466276D01*
Y227902D01*
X471500D01*
Y233126D01*
D02*
G37*
G36*
X441851Y228224D02*
X436626D01*
Y223000D01*
X441851D01*
Y228224D01*
D02*
G37*
G36*
X435626D02*
X430402D01*
Y223000D01*
X435626D01*
Y228224D01*
D02*
G37*
G36*
X404634D02*
X399409D01*
Y223000D01*
X404634D01*
Y228224D01*
D02*
G37*
G36*
X398409D02*
X393185D01*
Y223000D01*
X398409D01*
Y228224D01*
D02*
G37*
G36*
X404634Y222000D02*
X399409D01*
Y216776D01*
X404634D01*
Y222000D01*
D02*
G37*
G36*
X398409D02*
X393185D01*
Y216776D01*
X398409D01*
Y222000D01*
D02*
G37*
G36*
X477724Y202351D02*
X472500D01*
Y197126D01*
X477724D01*
Y202351D01*
D02*
G37*
G36*
X471500D02*
X466276D01*
Y197126D01*
X471500D01*
Y202351D01*
D02*
G37*
G36*
X477724Y196126D02*
X472500D01*
Y190902D01*
X477724D01*
Y196126D01*
D02*
G37*
G36*
X471500D02*
X466276D01*
Y190902D01*
X471500D01*
Y196126D01*
D02*
G37*
%LPD*%
G36*
X435474Y280037D02*
X435497Y279896D01*
X435533Y279756D01*
X435583Y279615D01*
X435648Y279473D01*
X435727Y279332D01*
X435820Y279190D01*
X435928Y279048D01*
X436050Y278905D01*
X436186Y278762D01*
Y277348D01*
X435478Y278012D01*
X435466Y280176D01*
X435474Y280037D01*
D02*
G37*
G36*
X439929Y266802D02*
X440017Y265646D01*
X440034Y265603D01*
X440090Y265512D01*
X440154Y265441D01*
X440229Y265390D01*
X440314Y265360D01*
X440410Y265350D01*
X440039D01*
X440087Y264720D01*
X440226Y263800D01*
X440404Y262961D01*
X440621Y262202D01*
X440878Y261524D01*
X441174Y260926D01*
X441510Y260409D01*
X441839Y260028D01*
X443323Y263474D01*
X443105Y262754D01*
X443046Y261974D01*
X443145Y261134D01*
X443403Y260234D01*
X443820Y259274D01*
X444395Y258254D01*
X445130Y257174D01*
X446023Y256034D01*
X447074Y254835D01*
X448284Y253575D01*
X447271Y244688D01*
X445658Y246252D01*
X442847Y248669D01*
X441649Y249521D01*
X440590Y250135D01*
X439669Y250513D01*
X438887Y250653D01*
X438243Y250556D01*
X437738Y250222D01*
X437372Y249650D01*
X441815Y259973D01*
X436933D01*
X437309Y260409D01*
X437644Y260926D01*
X437941Y261524D01*
X438198Y262202D01*
X438415Y262961D01*
X438593Y263800D01*
X438732Y264720D01*
X438779Y265350D01*
X438410D01*
X438504Y265360D01*
X438589Y265390D01*
X438664Y265441D01*
X438729Y265512D01*
X438785Y265603D01*
X438802Y265646D01*
X438890Y266802D01*
X438909Y267964D01*
X439910D01*
X439929Y266802D01*
D02*
G37*
G36*
X424522Y279500D02*
X424512Y279595D01*
X424482Y279680D01*
X424432Y279755D01*
X424362Y279820D01*
X424272Y279875D01*
X424162Y279920D01*
X424032Y279955D01*
X423882Y279980D01*
X423712Y279995D01*
X423522Y280000D01*
Y281000D01*
X423712Y281005D01*
X423882Y281020D01*
X424032Y281045D01*
X424162Y281080D01*
X424272Y281125D01*
X424362Y281180D01*
X424432Y281245D01*
X424482Y281320D01*
X424512Y281405D01*
X424522Y281500D01*
Y279500D01*
D02*
G37*
G36*
X419486Y281405D02*
X419517Y281320D01*
X419567Y281245D01*
X419638Y281180D01*
X419729Y281125D01*
X419840Y281080D01*
X419972Y281045D01*
X420124Y281020D01*
X420296Y281005D01*
X420488Y281000D01*
Y280000D01*
X420296Y279995D01*
X420124Y279980D01*
X419972Y279955D01*
X419840Y279920D01*
X419729Y279875D01*
X419638Y279820D01*
X419567Y279755D01*
X419517Y279680D01*
X419486Y279595D01*
X419476Y279500D01*
Y281500D01*
X419486Y281405D01*
D02*
G37*
G36*
X407405Y278014D02*
X407320Y277983D01*
X407245Y277933D01*
X407180Y277862D01*
X407125Y277771D01*
X407080Y277660D01*
X407045Y277528D01*
X407020Y277376D01*
X407005Y277204D01*
X407000Y277012D01*
X406000D01*
X405995Y277204D01*
X405980Y277376D01*
X405955Y277528D01*
X405920Y277660D01*
X405875Y277771D01*
X405820Y277862D01*
X405755Y277933D01*
X405680Y277983D01*
X405595Y278014D01*
X405500Y278024D01*
X407500D01*
X407405Y278014D01*
D02*
G37*
G36*
X411087Y260011D02*
X411080Y260150D01*
X411058Y260290D01*
X411022Y260430D01*
X410972Y260571D01*
X410907Y260712D01*
X410828Y260854D01*
X410735Y260996D01*
X410627Y261138D01*
X410504Y261281D01*
X410368Y261425D01*
Y262839D01*
X410504Y262710D01*
X410627Y262609D01*
X410735Y262537D01*
X410828Y262494D01*
X410907Y262480D01*
X410972Y262494D01*
X411022Y262537D01*
X411058Y262609D01*
X411080Y262710D01*
X411087Y262839D01*
Y260011D01*
D02*
G37*
D10*
X406500Y266000D02*
X415000Y257500D01*
X406500Y266000D02*
Y280500D01*
X416500D02*
X416500Y280500D01*
X426260D01*
X433741D02*
X439409Y274831D01*
Y257500D02*
Y274831D01*
D13*
X426260Y280500D02*
D03*
X433741D02*
D03*
D14*
X406500Y280500D02*
D03*
D15*
X416500D02*
D03*
D24*
X451717Y222500D02*
Y245193D01*
X439409Y257500D02*
X451717Y245193D01*
X472000Y286217D02*
X482000Y276217D01*
Y259217D02*
Y276217D01*
X472000Y249217D02*
X482000Y259217D01*
X426283Y307000D02*
X436283Y297000D01*
X408910Y307000D02*
X426283D01*
X398909Y297000D02*
X408910Y307000D01*
X472000Y323217D02*
X482000Y313217D01*
Y296217D02*
Y313217D01*
X472000Y286217D02*
X482000Y296217D01*
X472000Y249217D02*
X482000Y239217D01*
Y222217D02*
Y239217D01*
X472000Y212217D02*
X482000Y222217D01*
X436283Y297000D02*
X462500Y323217D01*
X472000D01*
X462000Y212217D02*
X472000D01*
X451717Y222500D02*
X462000Y212217D01*
X441717Y212500D02*
X451717Y222500D01*
X424500Y212500D02*
X441717D01*
X414500Y222500D02*
X424500Y212500D01*
D25*
X414500Y297000D02*
D03*
X451874D02*
D03*
X436126Y222500D02*
D03*
X398909D02*
D03*
D26*
Y297000D02*
D03*
X436283D02*
D03*
X472000Y323217D02*
D03*
Y286217D02*
D03*
Y249217D02*
D03*
Y212217D02*
D03*
X451717Y222500D02*
D03*
X414500D02*
D03*
D27*
X472000Y307626D02*
D03*
Y270626D02*
D03*
Y233626D02*
D03*
Y196626D02*
D03*
D28*
X439409Y257500D02*
D03*
X415000D02*
D03*
D29*
X428780Y238996D02*
D03*
M02*
