G04*
G04 #@! TF.GenerationSoftware,Altium Limited,Altium Designer,18.1.9 (240)*
G04*
G04 Layer_Color=2752767*
%FSLAX25Y25*%
%MOIN*%
G70*
G01*
G75*
%ADD10C,0.00200*%
%ADD11C,0.00267*%
D10*
X413700Y296200D02*
Y297800D01*
X415300D01*
Y296200D01*
X413700D01*
X398110D02*
Y297800D01*
X399710D01*
Y296200D01*
X398110D01*
X451074D02*
Y297800D01*
X452674D01*
Y296200D01*
X451074D01*
X435483D02*
Y297800D01*
X437083D01*
Y296200D01*
X435483D01*
X471200Y306826D02*
Y308426D01*
X472800D01*
Y306826D01*
X471200D01*
Y322417D02*
Y324017D01*
X472800D01*
Y322417D01*
X471200D01*
Y269826D02*
Y271426D01*
X472800D01*
Y269826D01*
X471200D01*
Y285417D02*
Y287017D01*
X472800D01*
Y285417D01*
X471200D01*
Y232826D02*
Y234426D01*
X472800D01*
Y232826D01*
X471200D01*
Y248417D02*
Y250017D01*
X472800D01*
Y248417D01*
X471200D01*
Y195826D02*
Y197426D01*
X472800D01*
Y195826D01*
X471200D01*
Y211417D02*
Y213017D01*
X472800D01*
Y211417D01*
X471200D01*
X435326Y221700D02*
Y223300D01*
X436926D01*
Y221700D01*
X435326D01*
X450917D02*
Y223300D01*
X452517D01*
Y221700D01*
X450917D01*
X398110D02*
Y223300D01*
X399710D01*
Y221700D01*
X398110D01*
X413700D02*
Y223300D01*
X415300D01*
Y221700D01*
X413700D01*
X428780Y238196D02*
X427980Y239796D01*
X429579D01*
X428780Y238196D01*
D11*
X440209Y257500D02*
G03*
X440209Y257500I-800J0D01*
G01*
X415800D02*
G03*
X415800Y257500I-800J0D01*
G01*
M02*
