G04*
G04 #@! TF.GenerationSoftware,Altium Limited,Altium Designer,18.1.9 (240)*
G04*
G04 Layer_Color=65535*
%FSLAX25Y25*%
%MOIN*%
G70*
G01*
G75*
%ADD10C,0.01000*%
%ADD11C,0.00800*%
%ADD12C,0.00787*%
D10*
X422217Y230295D02*
Y289205D01*
X459591Y230295D02*
Y289205D01*
X385472Y275217D02*
X436590D01*
X385472Y239784D02*
Y275217D01*
Y239784D02*
X436590D01*
Y275217D01*
D11*
X436693Y276900D02*
Y284100D01*
X423307Y276900D02*
X436693D01*
X423307D02*
Y284100D01*
X436693D01*
X413500Y277000D02*
X420500D01*
Y284000D01*
X413500D02*
X420500D01*
X401000Y277000D02*
X409500D01*
X401000D02*
Y284000D01*
X409500D01*
X402500Y277000D02*
Y284000D01*
X391036Y289205D02*
Y334401D01*
Y289205D02*
X406626D01*
X391036Y334401D02*
X406626D01*
X398831Y307000D02*
Y329500D01*
X399331Y307000D02*
Y329500D01*
X398331Y307000D02*
X399331D01*
X398331D02*
Y329500D01*
X399331D01*
X413921D02*
X414922D01*
X413921Y307000D02*
Y329500D01*
Y307000D02*
X414922D01*
Y329500D01*
X414422Y307000D02*
Y329500D01*
X406626Y334401D02*
X422217D01*
Y289205D02*
Y334401D01*
X406626Y289205D02*
X422217D01*
X428409D02*
Y334401D01*
Y289205D02*
X444000D01*
X428409Y334401D02*
X444000D01*
X436205Y307000D02*
Y329500D01*
X436705Y307000D02*
Y329500D01*
X435705Y307000D02*
X436705D01*
X435705D02*
Y329500D01*
X436705D01*
X451295D02*
X452295D01*
X451295Y307000D02*
Y329500D01*
Y307000D02*
X452295D01*
Y329500D01*
X451795Y307000D02*
Y329500D01*
X444000Y334401D02*
X459591D01*
Y289205D02*
Y334401D01*
X444000Y289205D02*
X459591D01*
X464205Y331090D02*
X509402D01*
X464205Y315500D02*
Y331090D01*
X509402Y315500D02*
Y331090D01*
X482000Y323295D02*
X504500D01*
X482000Y322795D02*
X504500D01*
X482000D02*
Y323795D01*
X504500D01*
Y322795D02*
Y323795D01*
Y307205D02*
Y308205D01*
X482000D02*
X504500D01*
X482000Y307205D02*
Y308205D01*
Y307205D02*
X504500D01*
X482000Y307705D02*
X504500D01*
X509402Y299909D02*
Y315500D01*
X464205Y299909D02*
X509402D01*
X464205D02*
Y315500D01*
Y294091D02*
X509402D01*
X464205Y278500D02*
Y294091D01*
X509402Y278500D02*
Y294091D01*
X482000Y286295D02*
X504500D01*
X482000Y285795D02*
X504500D01*
X482000D02*
Y286795D01*
X504500D01*
Y285795D02*
Y286795D01*
Y270205D02*
Y271205D01*
X482000D02*
X504500D01*
X482000Y270205D02*
Y271205D01*
Y270205D02*
X504500D01*
X482000Y270705D02*
X504500D01*
X509402Y262909D02*
Y278500D01*
X464205Y262909D02*
X509402D01*
X464205D02*
Y278500D01*
Y257090D02*
X509402D01*
X464205Y241500D02*
Y257090D01*
X509402Y241500D02*
Y257090D01*
X482000Y249295D02*
X504500D01*
X482000Y248795D02*
X504500D01*
X482000D02*
Y249795D01*
X504500D01*
Y248795D02*
Y249795D01*
Y233205D02*
Y234205D01*
X482000D02*
X504500D01*
X482000Y233205D02*
Y234205D01*
Y233205D02*
X504500D01*
X482000Y233705D02*
X504500D01*
X509402Y225909D02*
Y241500D01*
X464205Y225909D02*
X509402D01*
X464205D02*
Y241500D01*
Y220091D02*
X509402D01*
X464205Y204500D02*
Y220091D01*
X509402Y204500D02*
Y220091D01*
X482000Y212295D02*
X504500D01*
X482000Y211795D02*
X504500D01*
X482000D02*
Y212795D01*
X504500D01*
Y211795D02*
Y212795D01*
Y196205D02*
Y197205D01*
X482000D02*
X504500D01*
X482000Y196205D02*
Y197205D01*
Y196205D02*
X504500D01*
X482000Y196705D02*
X504500D01*
X509402Y188909D02*
Y204500D01*
X464205Y188909D02*
X509402D01*
X464205D02*
Y204500D01*
X459590Y185099D02*
Y230295D01*
X444000D02*
X459590D01*
X444000Y185099D02*
X459590D01*
X451795Y190000D02*
Y212500D01*
X451295Y190000D02*
Y212500D01*
X452295D01*
Y190000D02*
Y212500D01*
X451295Y190000D02*
X452295D01*
X435705D02*
X436705D01*
Y212500D01*
X435705D02*
X436705D01*
X435705Y190000D02*
Y212500D01*
X436205Y190000D02*
Y212500D01*
X428409Y185099D02*
X444000D01*
X428409D02*
Y230295D01*
X444000D01*
X422374Y185099D02*
Y230295D01*
X406783D02*
X422374D01*
X406783Y185099D02*
X422374D01*
X414578Y190000D02*
Y212500D01*
X414079Y190000D02*
Y212500D01*
X415078D01*
Y190000D02*
Y212500D01*
X414079Y190000D02*
X415078D01*
X398488D02*
X399488D01*
Y212500D01*
X398488D02*
X399488D01*
X398488Y190000D02*
Y212500D01*
X398988Y190000D02*
Y212500D01*
X391193Y185099D02*
X406783D01*
X391193D02*
Y230295D01*
X406783D01*
D12*
X395315Y271500D02*
X436590D01*
X395315Y239784D02*
Y275217D01*
Y243500D02*
X436590D01*
M02*
