G04*
G04 #@! TF.GenerationSoftware,Altium Limited,Altium Designer,18.1.9 (240)*
G04*
G04 Layer_Physical_Order=2*
G04 Layer_Color=16711680*
%FSLAX25Y25*%
%MOIN*%
G70*
G01*
G75*
%ADD24C,0.07000*%
%ADD25R,0.09449X0.09449*%
%ADD26C,0.09449*%
%ADD27R,0.09449X0.09449*%
%ADD28R,0.07874X0.15748*%
%ADD29R,0.15748X0.07874*%
%ADD30R,0.06890X0.08661*%
G36*
X462207Y330207D02*
X462207Y330207D01*
X462571Y329964D01*
X463000Y329878D01*
X463000Y329878D01*
X508378D01*
Y190122D01*
X463500D01*
X463071Y190036D01*
X462707Y189793D01*
X462707Y189793D01*
X459035Y186122D01*
X392122D01*
Y333379D01*
X459035D01*
X462207Y330207D01*
D02*
G37*
%LPC*%
G36*
X472000Y328587D02*
X470610Y328404D01*
X469315Y327868D01*
X468203Y327014D01*
X467349Y325902D01*
X466813Y324607D01*
X466630Y323217D01*
X466813Y321827D01*
X467349Y320532D01*
X468203Y319419D01*
X469315Y318566D01*
X470610Y318029D01*
X472000Y317846D01*
X473390Y318029D01*
X474685Y318566D01*
X475797Y319419D01*
X476651Y320532D01*
X477187Y321827D01*
X477370Y323217D01*
X477187Y324607D01*
X476651Y325902D01*
X475797Y327014D01*
X474685Y327868D01*
X473390Y328404D01*
X472000Y328587D01*
D02*
G37*
G36*
X477724Y313351D02*
X472500D01*
Y308126D01*
X476712Y312339D01*
X476762Y311439D01*
X476910Y310530D01*
X477158Y309611D01*
X477504Y308683D01*
X477950Y307745D01*
X478494Y306798D01*
X479138Y305841D01*
X479880Y304875D01*
X480722Y303899D01*
X481662Y302914D01*
X476712Y297964D01*
X475727Y298904D01*
X473785Y300488D01*
X472829Y301132D01*
X471881Y301676D01*
X470944Y302122D01*
X470015Y302468D01*
X469097Y302716D01*
X468187Y302864D01*
X467288Y302914D01*
X472000Y307626D01*
X471500D01*
Y313351D01*
X466276D01*
Y312166D01*
X465928Y312059D01*
X465471Y311964D01*
X463378Y311787D01*
X462491Y311776D01*
X462441Y311754D01*
X461430Y311621D01*
X460432Y311208D01*
X459576Y310550D01*
X459576Y310550D01*
X456170Y307144D01*
X456138Y307132D01*
X455164Y306203D01*
X454215Y305384D01*
X453280Y304665D01*
X452359Y304046D01*
X451874Y303767D01*
X451389Y304046D01*
X450476Y304660D01*
X448577Y306209D01*
X447610Y307132D01*
X447578Y307144D01*
X444798Y309924D01*
X443941Y310581D01*
X442944Y310995D01*
X441874Y311135D01*
X441874Y311135D01*
X424500D01*
X424500Y311135D01*
X423430Y310995D01*
X422432Y310581D01*
X421576Y309924D01*
X421576Y309924D01*
X418796Y307144D01*
X418764Y307132D01*
X417791Y306203D01*
X416841Y305384D01*
X415906Y304665D01*
X414985Y304046D01*
X414080Y303526D01*
X413190Y303103D01*
X412317Y302777D01*
X412122Y302724D01*
X408776D01*
Y297500D01*
X414000D01*
X409788Y301712D01*
X410687Y301762D01*
X411597Y301910D01*
X412515Y302158D01*
X413444Y302504D01*
X414381Y302950D01*
X415329Y303494D01*
X416285Y304138D01*
X417251Y304880D01*
X418227Y305722D01*
X419212Y306662D01*
X424162Y301712D01*
X423222Y300727D01*
X421638Y298785D01*
X420994Y297829D01*
X420450Y296881D01*
X420004Y295944D01*
X419658Y295015D01*
X419410Y294097D01*
X419262Y293187D01*
X419212Y292288D01*
X415000Y296500D01*
Y291276D01*
X420224D01*
Y294622D01*
X420277Y294817D01*
X420603Y295690D01*
X421026Y296580D01*
X421546Y297485D01*
X422160Y298398D01*
X423709Y300297D01*
X424632Y301264D01*
X424644Y301296D01*
X426213Y302865D01*
X436207D01*
X436240Y302365D01*
X435856Y302314D01*
X434893Y302187D01*
X433598Y301651D01*
X432486Y300797D01*
X431632Y299685D01*
X431096Y298390D01*
X430913Y297000D01*
X431096Y295610D01*
X431632Y294315D01*
X432486Y293203D01*
X433598Y292349D01*
X434893Y291813D01*
X436283Y291630D01*
X437673Y291813D01*
X438968Y292349D01*
X440081Y293203D01*
X440934Y294315D01*
X441471Y295610D01*
X441654Y297000D01*
X441471Y298390D01*
X440934Y299685D01*
X440081Y300797D01*
X438968Y301651D01*
X437673Y302187D01*
X436710Y302314D01*
X436327Y302365D01*
X436360Y302865D01*
X440161D01*
X441729Y301296D01*
X441742Y301264D01*
X442671Y300291D01*
X443490Y299341D01*
X444208Y298406D01*
X444828Y297485D01*
X445348Y296580D01*
X445771Y295690D01*
X446097Y294817D01*
X446149Y294622D01*
Y291276D01*
X451374D01*
Y296500D01*
X447161Y292288D01*
X447112Y293187D01*
X446963Y294097D01*
X446716Y295015D01*
X446369Y295944D01*
X445924Y296881D01*
X445379Y297829D01*
X444736Y298785D01*
X443994Y299751D01*
X443152Y300727D01*
X442212Y301712D01*
X447161Y306662D01*
X448147Y305722D01*
X450089Y304138D01*
X451045Y303494D01*
X451874Y303018D01*
X452702Y303494D01*
X453659Y304138D01*
X454625Y304880D01*
X455601Y305722D01*
X456586Y306662D01*
X461536Y301712D01*
X460596Y300727D01*
X459012Y298785D01*
X458368Y297829D01*
X457824Y296881D01*
X457378Y295944D01*
X457032Y295015D01*
X456784Y294097D01*
X456636Y293187D01*
X456586Y292288D01*
X452374Y296500D01*
Y291276D01*
X457598D01*
Y294622D01*
X457651Y294817D01*
X457977Y295690D01*
X458399Y296580D01*
X458920Y297485D01*
X459534Y298398D01*
X461083Y300297D01*
X462006Y301264D01*
X462018Y301296D01*
X464139Y303417D01*
X464877Y303370D01*
X465454Y303292D01*
X465928Y303193D01*
X466276Y303086D01*
Y301902D01*
X469622D01*
X469817Y301849D01*
X470690Y301523D01*
X471580Y301101D01*
X472485Y300580D01*
X473398Y299966D01*
X475297Y298417D01*
X476264Y297494D01*
X476296Y297482D01*
X477865Y295913D01*
Y286293D01*
X477365Y286260D01*
X477314Y286644D01*
X477187Y287607D01*
X476651Y288902D01*
X475797Y290014D01*
X474685Y290868D01*
X473390Y291404D01*
X472000Y291587D01*
X470610Y291404D01*
X469315Y290868D01*
X468203Y290014D01*
X467349Y288902D01*
X466813Y287607D01*
X466630Y286217D01*
X466813Y284827D01*
X467349Y283532D01*
X468203Y282419D01*
X469315Y281566D01*
X470610Y281029D01*
X472000Y280846D01*
X473390Y281029D01*
X474685Y281566D01*
X475797Y282419D01*
X476651Y283532D01*
X477187Y284827D01*
X477314Y285790D01*
X477365Y286173D01*
X477865Y286140D01*
Y282339D01*
X476296Y280771D01*
X476264Y280758D01*
X475291Y279829D01*
X474341Y279010D01*
X473406Y278292D01*
X472485Y277672D01*
X471580Y277152D01*
X470690Y276729D01*
X469817Y276403D01*
X469622Y276351D01*
X466276D01*
Y271126D01*
X471500D01*
X467288Y275339D01*
X468187Y275388D01*
X469097Y275537D01*
X470015Y275784D01*
X470944Y276131D01*
X471881Y276576D01*
X472829Y277121D01*
X473785Y277764D01*
X474752Y278506D01*
X475727Y279348D01*
X476712Y280288D01*
X481662Y275339D01*
X480722Y274353D01*
X479138Y272411D01*
X478494Y271455D01*
X478018Y270626D01*
X478494Y269798D01*
X479138Y268841D01*
X479880Y267875D01*
X480722Y266899D01*
X481662Y265914D01*
X476712Y260964D01*
X475727Y261905D01*
X473785Y263488D01*
X472829Y264132D01*
X471881Y264676D01*
X470944Y265122D01*
X470015Y265468D01*
X469097Y265716D01*
X468187Y265864D01*
X467288Y265914D01*
X471500Y270126D01*
X466276D01*
Y264902D01*
X469622D01*
X469817Y264849D01*
X470690Y264523D01*
X471580Y264101D01*
X472485Y263580D01*
X473398Y262966D01*
X475297Y261417D01*
X476264Y260494D01*
X476296Y260482D01*
X477865Y258913D01*
Y249293D01*
X477365Y249260D01*
X477314Y249644D01*
X477187Y250607D01*
X476651Y251902D01*
X475797Y253014D01*
X474685Y253868D01*
X473390Y254404D01*
X472000Y254587D01*
X470610Y254404D01*
X469315Y253868D01*
X468203Y253014D01*
X467349Y251902D01*
X466813Y250607D01*
X466630Y249217D01*
X466813Y247827D01*
X467349Y246532D01*
X468203Y245419D01*
X469315Y244566D01*
X470610Y244029D01*
X472000Y243846D01*
X473390Y244029D01*
X474685Y244566D01*
X475797Y245419D01*
X476651Y246532D01*
X477187Y247827D01*
X477314Y248790D01*
X477365Y249173D01*
X477865Y249141D01*
Y245339D01*
X476296Y243771D01*
X476264Y243758D01*
X475291Y242829D01*
X474341Y242010D01*
X473406Y241291D01*
X472485Y240672D01*
X471580Y240152D01*
X470690Y239729D01*
X469817Y239403D01*
X469622Y239351D01*
X466276D01*
Y234126D01*
X471500D01*
X467288Y238339D01*
X468187Y238388D01*
X469097Y238537D01*
X470015Y238784D01*
X470944Y239131D01*
X471881Y239576D01*
X472829Y240121D01*
X473785Y240764D01*
X474752Y241507D01*
X475727Y242348D01*
X476712Y243288D01*
X481662Y238339D01*
X480722Y237353D01*
X479138Y235412D01*
X478494Y234455D01*
X478018Y233626D01*
X478494Y232798D01*
X479138Y231841D01*
X479880Y230875D01*
X480722Y229899D01*
X481662Y228914D01*
X476712Y223964D01*
X475727Y224904D01*
X473785Y226488D01*
X472829Y227132D01*
X471881Y227676D01*
X470944Y228122D01*
X470015Y228468D01*
X469097Y228716D01*
X468187Y228864D01*
X467288Y228914D01*
X471500Y233126D01*
X466276D01*
Y227902D01*
X469622D01*
X469817Y227849D01*
X470690Y227523D01*
X471580Y227101D01*
X472485Y226580D01*
X473398Y225966D01*
X475297Y224417D01*
X476264Y223494D01*
X476296Y223482D01*
X477865Y221913D01*
Y212293D01*
X477365Y212260D01*
X477314Y212644D01*
X477187Y213607D01*
X476651Y214902D01*
X475797Y216014D01*
X474685Y216868D01*
X473390Y217404D01*
X472000Y217587D01*
X470610Y217404D01*
X469315Y216868D01*
X468203Y216014D01*
X467349Y214902D01*
X466813Y213607D01*
X466630Y212217D01*
X466813Y210827D01*
X467349Y209532D01*
X468203Y208419D01*
X469315Y207566D01*
X470610Y207029D01*
X472000Y206846D01*
X473390Y207029D01*
X474685Y207566D01*
X475797Y208419D01*
X476651Y209532D01*
X477187Y210827D01*
X477314Y211790D01*
X477365Y212173D01*
X477865Y212140D01*
Y208339D01*
X476296Y206771D01*
X476264Y206758D01*
X475291Y205829D01*
X474341Y205010D01*
X473406Y204292D01*
X472485Y203672D01*
X471580Y203152D01*
X470690Y202729D01*
X469817Y202403D01*
X469622Y202351D01*
X466276D01*
Y201198D01*
X466226Y201177D01*
X465818Y201062D01*
X465299Y200965D01*
X463637Y200838D01*
X446271Y218204D01*
X446258Y218236D01*
X445329Y219209D01*
X444510Y220159D01*
X443791Y221094D01*
X443172Y222015D01*
X442652Y222920D01*
X442229Y223810D01*
X441903Y224683D01*
X441851Y224878D01*
Y228224D01*
X436626D01*
Y223000D01*
X440839Y227212D01*
X440888Y226313D01*
X441037Y225403D01*
X441284Y224485D01*
X441631Y223556D01*
X442076Y222619D01*
X442621Y221671D01*
X443264Y220715D01*
X444006Y219748D01*
X444848Y218773D01*
X445788Y217788D01*
X440839Y212838D01*
X439853Y213778D01*
X437912Y215362D01*
X436955Y216006D01*
X436126Y216482D01*
X435298Y216006D01*
X434341Y215362D01*
X433375Y214620D01*
X432399Y213778D01*
X431414Y212838D01*
X426464Y217788D01*
X427404Y218773D01*
X428988Y220715D01*
X429632Y221671D01*
X430176Y222619D01*
X430622Y223556D01*
X430968Y224485D01*
X431216Y225403D01*
X431364Y226313D01*
X431414Y227212D01*
X435626Y223000D01*
Y228224D01*
X430402D01*
Y224878D01*
X430349Y224683D01*
X430023Y223810D01*
X429601Y222920D01*
X429080Y222015D01*
X428466Y221102D01*
X426917Y219203D01*
X425994Y218236D01*
X425982Y218204D01*
X424413Y216635D01*
X414576D01*
X414543Y217135D01*
X414927Y217186D01*
X415890Y217313D01*
X417185Y217849D01*
X418297Y218703D01*
X419151Y219815D01*
X419687Y221110D01*
X419870Y222500D01*
X419687Y223890D01*
X419151Y225185D01*
X418297Y226297D01*
X417185Y227151D01*
X415890Y227687D01*
X414500Y227870D01*
X413110Y227687D01*
X411815Y227151D01*
X410703Y226297D01*
X409849Y225185D01*
X409313Y223890D01*
X409130Y222500D01*
X409313Y221110D01*
X409849Y219815D01*
X410703Y218703D01*
X411815Y217849D01*
X413110Y217313D01*
X414073Y217186D01*
X414457Y217135D01*
X414424Y216635D01*
X410622D01*
X409054Y218204D01*
X409041Y218236D01*
X408112Y219209D01*
X407294Y220159D01*
X406575Y221094D01*
X405955Y222015D01*
X405435Y222920D01*
X405013Y223810D01*
X404686Y224683D01*
X404634Y224878D01*
Y228224D01*
X403563D01*
X403474Y228500D01*
X403357Y229054D01*
X403071Y232909D01*
X403059Y234218D01*
X403045Y234251D01*
Y239697D01*
X407551Y244202D01*
X407582Y244214D01*
X410654Y247090D01*
X411957Y248152D01*
X412623Y248626D01*
X414500D01*
Y250414D01*
X413820Y250135D01*
X412760Y249521D01*
X411563Y248669D01*
X410226Y247579D01*
X407138Y244688D01*
X406125Y253575D01*
X407335Y254835D01*
X409280Y257174D01*
X410014Y258254D01*
X410590Y259274D01*
X411006Y260234D01*
X411265Y261134D01*
X411364Y261974D01*
X411305Y262754D01*
X411087Y263474D01*
X414500Y255545D01*
Y257500D01*
Y266374D01*
X410063D01*
Y259692D01*
X410007Y259563D01*
X409462Y258596D01*
X408760Y257565D01*
X406851Y255268D01*
X405657Y254025D01*
X405645Y253995D01*
X405617Y253979D01*
X405611Y253960D01*
X395985Y244334D01*
X395328Y243477D01*
X394915Y242480D01*
X394774Y241409D01*
X394774Y241409D01*
Y234257D01*
X394760Y234225D01*
X394712Y231723D01*
X394569Y229802D01*
X394466Y229075D01*
X394344Y228500D01*
X394256Y228224D01*
X393185D01*
Y223000D01*
X398909D01*
Y222500D01*
X403622Y227212D01*
X403671Y226313D01*
X403820Y225403D01*
X404067Y224485D01*
X404414Y223556D01*
X404859Y222619D01*
X405404Y221671D01*
X406047Y220715D01*
X406790Y219748D01*
X407631Y218773D01*
X408572Y217788D01*
X403622Y212838D01*
X402637Y213778D01*
X400695Y215362D01*
X399738Y216006D01*
X398791Y216550D01*
X397853Y216996D01*
X396925Y217342D01*
X396006Y217590D01*
X395097Y217738D01*
X394197Y217788D01*
X398409Y222000D01*
X393185D01*
Y216776D01*
X396531D01*
X396726Y216723D01*
X397600Y216397D01*
X398489Y215974D01*
X399394Y215454D01*
X400307Y214840D01*
X402207Y213291D01*
X403173Y212368D01*
X403205Y212356D01*
X405985Y209576D01*
X405985Y209576D01*
X406842Y208919D01*
X407839Y208506D01*
X408910Y208365D01*
X408910Y208365D01*
X426126D01*
X426126Y208365D01*
X427197Y208506D01*
X428194Y208919D01*
X429050Y209576D01*
X431830Y212356D01*
X431862Y212368D01*
X432836Y213297D01*
X433785Y214116D01*
X434720Y214835D01*
X435641Y215454D01*
X436126Y215733D01*
X436611Y215454D01*
X437524Y214840D01*
X439423Y213291D01*
X440390Y212368D01*
X440422Y212356D01*
X459076Y193702D01*
X459076Y193702D01*
X459932Y193045D01*
X460930Y192632D01*
X461941Y192499D01*
X461992Y192477D01*
X462982Y192465D01*
X464638Y192370D01*
X465284Y192290D01*
X465818Y192190D01*
X466226Y192076D01*
X466276Y192055D01*
Y190902D01*
X471500D01*
Y196626D01*
X472000D01*
X467288Y201339D01*
X468187Y201388D01*
X469097Y201537D01*
X470015Y201784D01*
X470944Y202131D01*
X471881Y202576D01*
X472829Y203121D01*
X473785Y203764D01*
X474752Y204506D01*
X475727Y205348D01*
X476712Y206288D01*
X481662Y201339D01*
X480722Y200353D01*
X479138Y198412D01*
X478494Y197455D01*
X477950Y196508D01*
X477504Y195570D01*
X477158Y194642D01*
X476910Y193723D01*
X476762Y192814D01*
X476712Y191914D01*
X472500Y196126D01*
Y190902D01*
X477724D01*
Y194248D01*
X477777Y194443D01*
X478103Y195317D01*
X478526Y196206D01*
X479046Y197111D01*
X479660Y198024D01*
X481209Y199923D01*
X482132Y200890D01*
X482144Y200922D01*
X484924Y203702D01*
X484924Y203702D01*
X485581Y204558D01*
X485994Y205556D01*
X486135Y206626D01*
X486135Y206626D01*
Y223626D01*
X486135Y223626D01*
X485994Y224696D01*
X485581Y225694D01*
X484924Y226550D01*
X484924Y226550D01*
X482144Y229330D01*
X482132Y229362D01*
X481203Y230336D01*
X480384Y231285D01*
X479665Y232220D01*
X479046Y233141D01*
X478767Y233626D01*
X479046Y234111D01*
X479660Y235024D01*
X481209Y236923D01*
X482132Y237890D01*
X482144Y237922D01*
X484924Y240702D01*
X484924Y240702D01*
X485581Y241559D01*
X485994Y242556D01*
X486135Y243626D01*
X486135Y243626D01*
Y260626D01*
X486135Y260626D01*
X485994Y261697D01*
X485581Y262694D01*
X484924Y263550D01*
X484924Y263550D01*
X482144Y266330D01*
X482132Y266362D01*
X481203Y267336D01*
X480384Y268285D01*
X479665Y269220D01*
X479046Y270141D01*
X478767Y270626D01*
X479046Y271111D01*
X479660Y272024D01*
X481209Y273923D01*
X482132Y274890D01*
X482144Y274922D01*
X484924Y277702D01*
X484924Y277702D01*
X485581Y278559D01*
X485994Y279556D01*
X486135Y280626D01*
X486135Y280626D01*
Y297626D01*
X486135Y297626D01*
X485994Y298696D01*
X485581Y299694D01*
X484924Y300550D01*
X484924Y300550D01*
X482144Y303330D01*
X482132Y303362D01*
X481203Y304336D01*
X480384Y305285D01*
X479665Y306220D01*
X479046Y307141D01*
X478526Y308047D01*
X478103Y308936D01*
X477777Y309809D01*
X477724Y310005D01*
Y313351D01*
D02*
G37*
G36*
X398909Y302370D02*
X397519Y302187D01*
X396224Y301651D01*
X395112Y300797D01*
X394259Y299685D01*
X393722Y298390D01*
X393539Y297000D01*
X393722Y295610D01*
X394259Y294315D01*
X395112Y293203D01*
X396224Y292349D01*
X397519Y291813D01*
X398909Y291630D01*
X400299Y291813D01*
X401595Y292349D01*
X402707Y293203D01*
X403560Y294315D01*
X404097Y295610D01*
X404280Y297000D01*
X404097Y298390D01*
X403560Y299685D01*
X402707Y300797D01*
X401595Y301651D01*
X400299Y302187D01*
X398909Y302370D01*
D02*
G37*
G36*
X414000Y296500D02*
X408776D01*
Y291276D01*
X414000D01*
Y296500D01*
D02*
G37*
G36*
X430878Y274021D02*
X430869Y274016D01*
X430859Y274019D01*
X430799Y273986D01*
X423455D01*
Y269743D01*
X423365Y269055D01*
X423455Y268368D01*
Y264859D01*
X423420Y264791D01*
X423440Y264727D01*
X423422Y264663D01*
X423455Y264603D01*
Y264124D01*
X423944D01*
X424012Y264089D01*
X424546Y264044D01*
X425085Y263916D01*
X425686Y263693D01*
X426344Y263372D01*
X427057Y262951D01*
X427809Y262437D01*
X430414Y260245D01*
X430603Y260062D01*
X431250Y259388D01*
X432268Y258225D01*
X433127Y257126D01*
X433828Y256092D01*
X434373Y255127D01*
X434761Y254233D01*
X434872Y253851D01*
Y251351D01*
X434870Y251343D01*
X434872Y251325D01*
Y249026D01*
X443947D01*
Y265974D01*
X440972D01*
X440934Y265980D01*
X440926Y265974D01*
X437226D01*
X437210Y265983D01*
X436056Y266806D01*
X434272Y268341D01*
X433861Y268811D01*
X433241Y269619D01*
X432719Y270384D01*
X432297Y271097D01*
X431976Y271755D01*
X431754Y272356D01*
X431625Y272895D01*
X431580Y273429D01*
X431575Y273438D01*
X431578Y273448D01*
X431545Y273507D01*
Y273986D01*
X430988D01*
X430878Y274021D01*
D02*
G37*
G36*
X419937Y266374D02*
X415500D01*
Y257500D01*
Y253222D01*
X417037Y249650D01*
X416671Y250222D01*
X416166Y250556D01*
X415522Y250653D01*
X415500Y250649D01*
Y248626D01*
X419937D01*
Y251916D01*
X420401Y252103D01*
X421398Y251064D01*
X422608Y249653D01*
X423018Y249110D01*
X423055Y249053D01*
Y246351D01*
X422883Y245627D01*
X422635Y244936D01*
X422348Y244404D01*
X422036Y244022D01*
X421918Y243933D01*
X419906D01*
Y239496D01*
X428780D01*
X437653D01*
Y243933D01*
X433298D01*
X433139Y244039D01*
X432781Y244426D01*
X432456Y244957D01*
X432177Y245643D01*
X431950Y246484D01*
X431945Y246517D01*
Y250445D01*
X427500D01*
Y251445D01*
X431945D01*
Y256276D01*
X428479D01*
X424905Y259421D01*
X423876Y260437D01*
X423837Y260453D01*
X423815Y260490D01*
X423766Y260503D01*
X423013Y261081D01*
X422015Y261494D01*
X420945Y261635D01*
X420945Y261635D01*
X419937D01*
Y266374D01*
D02*
G37*
G36*
X437653Y238496D02*
X429280D01*
Y234059D01*
X437653D01*
Y238496D01*
D02*
G37*
G36*
X428279D02*
X419906D01*
Y234059D01*
X428279D01*
Y238496D01*
D02*
G37*
G36*
X436126Y222500D02*
X436126D01*
X436126Y222500D01*
X436126Y222500D01*
D02*
G37*
G36*
X451717Y227870D02*
X450327Y227687D01*
X449032Y227151D01*
X447919Y226297D01*
X447066Y225185D01*
X446529Y223890D01*
X446346Y222500D01*
X446529Y221110D01*
X447066Y219815D01*
X447919Y218703D01*
X449032Y217849D01*
X450327Y217313D01*
X451717Y217130D01*
X453107Y217313D01*
X454402Y217849D01*
X455514Y218703D01*
X456368Y219815D01*
X456904Y221110D01*
X457087Y222500D01*
X456904Y223890D01*
X456368Y225185D01*
X455514Y226297D01*
X454402Y227151D01*
X453107Y227687D01*
X451717Y227870D01*
D02*
G37*
%LPD*%
G36*
X467288Y302914D02*
X467240Y303144D01*
X467096Y303350D01*
X466857Y303532D01*
X466522Y303690D01*
X466091Y303823D01*
X465564Y303932D01*
X464942Y304017D01*
X463410Y304114D01*
X462500Y304126D01*
Y311126D01*
X463410Y311138D01*
X465564Y311320D01*
X466091Y311429D01*
X466522Y311563D01*
X466857Y311720D01*
X467096Y311902D01*
X467240Y312108D01*
X467288Y312339D01*
Y302914D01*
D02*
G37*
G36*
X402422Y232882D02*
X402713Y228962D01*
X402846Y228332D01*
X403004Y227842D01*
X403185Y227492D01*
X403392Y227282D01*
X403622Y227212D01*
X394197D01*
X394427Y227282D01*
X394634Y227492D01*
X394815Y227842D01*
X394973Y228332D01*
X395106Y228962D01*
X395216Y229732D01*
X395361Y231692D01*
X395409Y234212D01*
X402410D01*
X402422Y232882D01*
D02*
G37*
G36*
X467288Y191914D02*
X467235Y192144D01*
X467076Y192350D01*
X466812Y192532D01*
X466442Y192690D01*
X465966Y192823D01*
X465384Y192932D01*
X464697Y193017D01*
X463005Y193114D01*
X462000Y193126D01*
Y200126D01*
X463005Y200138D01*
X465384Y200320D01*
X465966Y200429D01*
X466442Y200563D01*
X466812Y200720D01*
X467076Y200902D01*
X467235Y201108D01*
X467288Y201339D01*
Y191914D01*
D02*
G37*
G36*
X430982Y272792D02*
X431131Y272167D01*
X431378Y271499D01*
X431725Y270789D01*
X432170Y270035D01*
X432715Y269238D01*
X433358Y268399D01*
X433814Y267878D01*
X435655Y266294D01*
X436858Y265437D01*
X437919Y264820D01*
X438838Y264444D01*
X439615Y264310D01*
X440249Y264416D01*
X440742Y264762D01*
X441093Y265350D01*
X435496Y251171D01*
X435698Y251907D01*
X435745Y252700D01*
X435637Y253549D01*
X435373Y254454D01*
X434955Y255416D01*
X434381Y256434D01*
X433652Y257509D01*
X432768Y258640D01*
X431729Y259827D01*
X431063Y260520D01*
X430850Y260727D01*
X428203Y262954D01*
X427406Y263499D01*
X426652Y263945D01*
X425942Y264291D01*
X425274Y264538D01*
X424649Y264687D01*
X424067Y264736D01*
X430933Y273374D01*
X430982Y272792D01*
D02*
G37*
G36*
X424462Y258946D02*
X428201Y255656D01*
X428654Y255369D01*
X429009Y255206D01*
X429267Y255167D01*
X429426Y255252D01*
X425422Y249921D01*
X431000D01*
X431035Y248589D01*
X431140Y247398D01*
X431315Y246346D01*
X431560Y245435D01*
X431875Y244664D01*
X432260Y244033D01*
X432715Y243541D01*
X433240Y243191D01*
X433835Y242980D01*
X434500Y242909D01*
X420918Y242921D01*
X421503Y242991D01*
X422027Y243201D01*
X422490Y243551D01*
X422890Y244041D01*
X423229Y244671D01*
X423507Y245441D01*
X423723Y246351D01*
X423877Y247401D01*
X423969Y248591D01*
X423974Y248783D01*
X423864Y249003D01*
X423549Y249484D01*
X423114Y250061D01*
X421879Y251501D01*
X419117Y254378D01*
X423420Y259975D01*
X424462Y258946D01*
D02*
G37*
D24*
X398909Y222500D02*
Y241409D01*
X415000Y257500D01*
X439055D02*
X439409D01*
X427500Y269055D02*
X439055Y257500D01*
X415000D02*
X420945D01*
X427500Y250945D01*
Y240276D02*
X428780Y238996D01*
X427500Y240276D02*
Y250945D01*
X414500Y297000D02*
X424500Y307000D01*
X441874D01*
X451874Y297000D01*
X462500Y307626D01*
X472000D01*
X482000Y297626D01*
Y280626D02*
Y297626D01*
X472000Y270626D02*
X482000Y280626D01*
X472000Y270626D02*
X482000Y260626D01*
Y243626D02*
Y260626D01*
X472000Y233626D02*
X482000Y243626D01*
X472000Y233626D02*
X482000Y223626D01*
Y206626D02*
Y223626D01*
X472000Y196626D02*
X482000Y206626D01*
X426126Y212500D02*
X436126Y222500D01*
X408910Y212500D02*
X426126D01*
X398909Y222500D02*
X408910Y212500D01*
X462000Y196626D02*
X472000D01*
X436126Y222500D02*
X462000Y196626D01*
D25*
X414500Y297000D02*
D03*
X451874D02*
D03*
X436126Y222500D02*
D03*
X398909D02*
D03*
D26*
Y297000D02*
D03*
X436283D02*
D03*
X472000Y323217D02*
D03*
Y286217D02*
D03*
Y249217D02*
D03*
Y212217D02*
D03*
X451717Y222500D02*
D03*
X414500D02*
D03*
D27*
X472000Y307626D02*
D03*
Y270626D02*
D03*
Y233626D02*
D03*
Y196626D02*
D03*
D28*
X439409Y257500D02*
D03*
X415000D02*
D03*
D29*
X428780Y238996D02*
D03*
D30*
X427500Y269055D02*
D03*
Y250945D02*
D03*
M02*
