G04*
G04 #@! TF.GenerationSoftware,Altium Limited,Altium Designer,18.1.9 (240)*
G04*
G04 Layer_Color=32768*
%FSLAX25Y25*%
%MOIN*%
G70*
G01*
G75*
%ADD32C,0.00197*%
D32*
X431378Y280500D02*
G03*
X431378Y280500I-1378J0D01*
G01*
X412878D02*
G03*
X412878Y280500I-1378J0D01*
G01*
X428878Y260000D02*
G03*
X428878Y260000I-1378J0D01*
G01*
X408004Y297000D02*
G03*
X408004Y297000I-1378J0D01*
G01*
X445378D02*
G03*
X445378Y297000I-1378J0D01*
G01*
X473378Y315500D02*
G03*
X473378Y315500I-1378J0D01*
G01*
Y278500D02*
G03*
X473378Y278500I-1378J0D01*
G01*
Y241500D02*
G03*
X473378Y241500I-1378J0D01*
G01*
Y204500D02*
G03*
X473378Y204500I-1378J0D01*
G01*
X445378Y222500D02*
G03*
X445378Y222500I-1378J0D01*
G01*
X408161D02*
G03*
X408161Y222500I-1378J0D01*
G01*
X430000Y278532D02*
Y282469D01*
X428031Y280500D02*
X431968D01*
X411500Y278532D02*
Y282469D01*
X409531Y280500D02*
X413469D01*
X427500Y258032D02*
Y261968D01*
X425531Y260000D02*
X429468D01*
X406626Y295031D02*
Y298969D01*
X404658Y297000D02*
X408595D01*
X444000Y295031D02*
Y298969D01*
X442031Y297000D02*
X445968D01*
X470031Y315500D02*
X473969D01*
X472000Y313531D02*
Y317469D01*
X470031Y278500D02*
X473969D01*
X472000Y276532D02*
Y280469D01*
X470031Y241500D02*
X473969D01*
X472000Y239531D02*
Y243468D01*
X470031Y204500D02*
X473969D01*
X472000Y202532D02*
Y206469D01*
X444000Y220532D02*
Y224468D01*
X442031Y222500D02*
X445968D01*
X406783Y220532D02*
Y224468D01*
X404815Y222500D02*
X408752D01*
M02*
