G04*
G04 #@! TF.GenerationSoftware,Altium Limited,Altium Designer,18.1.9 (240)*
G04*
G04 Layer_Color=128*
%FSLAX25Y25*%
%MOIN*%
G70*
G01*
G75*
%ADD10C,0.00200*%
D10*
X411941Y297000D02*
X417059D01*
X414500Y294441D02*
Y299559D01*
X396350Y297000D02*
X401469D01*
X398909Y294441D02*
Y299559D01*
X449315Y297000D02*
X454433D01*
X451874Y294441D02*
Y299559D01*
X433724Y297000D02*
X438842D01*
X436283Y294441D02*
Y299559D01*
X469441Y307626D02*
X474559D01*
X472000Y305067D02*
Y310185D01*
X469441Y323217D02*
X474559D01*
X472000Y320658D02*
Y325776D01*
X469441Y270626D02*
X474559D01*
X472000Y268067D02*
Y273185D01*
X469441Y286217D02*
X474559D01*
X472000Y283658D02*
Y288776D01*
X469441Y233626D02*
X474559D01*
X472000Y231067D02*
Y236185D01*
X469441Y249217D02*
X474559D01*
X472000Y246658D02*
Y251776D01*
X469441Y196626D02*
X474559D01*
X472000Y194067D02*
Y199185D01*
X469441Y212217D02*
X474559D01*
X472000Y209658D02*
Y214776D01*
X433567Y222500D02*
X438685D01*
X436126Y219941D02*
Y225059D01*
X449158Y222500D02*
X454276D01*
X451717Y219941D02*
Y225059D01*
X396350Y222500D02*
X401469D01*
X398909Y219941D02*
Y225059D01*
X411941Y222500D02*
X417059D01*
X414500Y219941D02*
Y225059D01*
X437835Y257500D02*
X440984D01*
X439409Y255925D02*
Y259075D01*
X413425Y257500D02*
X416575D01*
X415000Y255925D02*
Y259075D01*
X427205Y238996D02*
X430354D01*
X428780Y237421D02*
Y240571D01*
M02*
