G04*
G04 #@! TF.GenerationSoftware,Altium Limited,Altium Designer,18.1.9 (240)*
G04*
G04 Layer_Color=8388736*
%FSLAX25Y25*%
%MOIN*%
G70*
G01*
G75*
%ADD16R,0.04300X0.05800*%
G04:AMPARAMS|DCode=17|XSize=68mil|YSize=58mil|CornerRadius=0mil|HoleSize=0mil|Usage=FLASHONLY|Rotation=180.000|XOffset=0mil|YOffset=0mil|HoleType=Round|Shape=Octagon|*
%AMOCTAGOND17*
4,1,8,-0.03400,0.01450,-0.03400,-0.01450,-0.01950,-0.02900,0.01950,-0.02900,0.03400,-0.01450,0.03400,0.01450,0.01950,0.02900,-0.01950,0.02900,-0.03400,0.01450,0.0*
%
%ADD17OCTAGOND17*%

%ADD18R,0.06800X0.05800*%
%ADD19R,0.10249X0.10249*%
%ADD20C,0.10249*%
%ADD21R,0.10249X0.10249*%
%ADD22R,0.08674X0.16548*%
%ADD23R,0.16548X0.08674*%
D16*
X426260Y280500D02*
D03*
X433741D02*
D03*
D17*
X406500Y280500D02*
D03*
D18*
X416500D02*
D03*
D19*
X414500Y297000D02*
D03*
X451874D02*
D03*
X436126Y222500D02*
D03*
X398909D02*
D03*
D20*
Y297000D02*
D03*
X436283D02*
D03*
X472000Y323217D02*
D03*
Y286217D02*
D03*
Y249217D02*
D03*
Y212217D02*
D03*
X451717Y222500D02*
D03*
X414500D02*
D03*
D21*
X472000Y307626D02*
D03*
Y270626D02*
D03*
Y233626D02*
D03*
Y196626D02*
D03*
D22*
X439409Y257500D02*
D03*
X415000D02*
D03*
D23*
X428780Y238996D02*
D03*
M02*
