G04*
G04 #@! TF.GenerationSoftware,Altium Limited,Altium Designer,18.1.9 (240)*
G04*
G04 Layer_Color=65535*
%FSLAX25Y25*%
%MOIN*%
G70*
G01*
G75*
%ADD10C,0.00800*%
%ADD11C,0.01968*%
%ADD12C,0.01000*%
%ADD13C,0.00984*%
%ADD14C,0.00787*%
%ADD15C,0.02000*%
%ADD16C,0.00600*%
%ADD17C,0.00500*%
D10*
X171500Y112418D02*
G03*
X173500Y114418I0J2000D01*
G01*
X169500Y114418D02*
G03*
X171500Y112418I2000J0D01*
G01*
X140396Y31699D02*
Y36999D01*
Y37099D01*
X134996D02*
X140396D01*
X134796D02*
X134996D01*
X134796Y31699D02*
Y37099D01*
X140396Y22899D02*
Y28299D01*
X134796Y22899D02*
X140196D01*
X134796Y22999D02*
Y28299D01*
X140396Y21899D02*
Y22899D01*
X134796Y21899D02*
X140396D01*
X134796D02*
Y22899D01*
X173500Y114418D02*
X177500D01*
X165500D02*
X169500D01*
X136399Y93274D02*
X137399D01*
X136399Y87674D02*
Y93274D01*
Y87674D02*
X137399D01*
X137499Y93274D02*
X142799D01*
X137399Y87874D02*
Y93274D01*
Y87674D02*
X142799D01*
X146200Y93274D02*
X151600D01*
Y93074D02*
Y93274D01*
Y87674D02*
Y93074D01*
X151499Y87674D02*
X151600D01*
X146200D02*
X151499D01*
X153400Y121956D02*
X154400D01*
X153400Y116356D02*
Y121956D01*
Y116356D02*
X154400D01*
X154499Y121956D02*
X159800D01*
X154400Y116556D02*
Y121956D01*
Y116356D02*
X159800D01*
X163199Y121956D02*
X168599D01*
Y121756D02*
Y121956D01*
Y116356D02*
Y121756D01*
X168500Y116356D02*
X168599D01*
X163199D02*
X168500D01*
X153400Y93157D02*
X154400D01*
X153400Y87557D02*
Y93157D01*
Y87557D02*
X154400D01*
X154499Y93157D02*
X159800D01*
X154400Y87757D02*
Y93157D01*
Y87557D02*
X159800D01*
X163199Y93157D02*
X168599D01*
Y92957D02*
Y93157D01*
Y87557D02*
Y92957D01*
X168500Y87557D02*
X168599D01*
X163199D02*
X168500D01*
X103037Y127230D02*
X116956Y141149D01*
X102582Y127685D02*
X103037Y127230D01*
X116503Y141603D02*
X116956Y141149D01*
X108048Y150058D02*
X108502Y149604D01*
X94129Y136138D02*
X94583Y135684D01*
X94129Y136138D02*
X108048Y150058D01*
D11*
X162108Y116575D02*
G03*
X162108Y116575I-608J0D01*
G01*
X83990Y80122D02*
G03*
X83990Y80122I-608J0D01*
G01*
X122548Y126018D02*
G03*
X122548Y126018I-984J0D01*
G01*
D12*
X20800Y53800D02*
G03*
X20707Y59399I0J2800D01*
G01*
X20843Y14600D02*
G03*
X20749Y20198I0J2800D01*
G01*
X41552Y128354D02*
G03*
X41552Y128354I-510J0D01*
G01*
X100382Y76122D02*
G03*
X106382Y76122I3000J0D01*
G01*
X41552Y89239D02*
G03*
X41552Y89239I-510J0D01*
G01*
X57052Y107633D02*
G03*
X57052Y107633I-510J0D01*
G01*
X148409Y10189D02*
Y45623D01*
X199528D01*
Y10189D02*
Y45623D01*
X148409Y10189D02*
X199528D01*
X195700Y127110D02*
X200700D01*
X195700Y123110D02*
Y127110D01*
Y123110D02*
X200700D01*
X177800Y115910D02*
Y146510D01*
X200700Y115910D02*
Y146510D01*
X169800D02*
X200700D01*
X169800Y115910D02*
Y146510D01*
Y115910D02*
X200700D01*
X195700Y136890D02*
X200700D01*
X195700D02*
Y140890D01*
X200700D01*
X20477Y59400D02*
Y62704D01*
Y50696D02*
Y53698D01*
X55123Y50696D02*
Y62704D01*
X20477D02*
X55123D01*
X20477Y50696D02*
X55123D01*
X20520Y20200D02*
Y23504D01*
Y11496D02*
Y14498D01*
X55165Y11496D02*
Y23504D01*
X20520D02*
X55165D01*
X20520Y11496D02*
X55165D01*
X106382Y76122D02*
X116382D01*
X90382D02*
X100382D01*
X116382Y16122D02*
Y76122D01*
X90382Y16122D02*
Y76122D01*
Y16122D02*
X116382D01*
X106007Y116119D02*
X121564Y131675D01*
X137120Y116119D01*
X121564Y100562D02*
X137120Y116119D01*
X106007D02*
X121564Y100562D01*
X77742Y91293D02*
Y94893D01*
X76042Y96593D02*
X77742Y94893D01*
X70793Y96593D02*
X76042D01*
X70793Y89593D02*
X76042D01*
X77742Y91293D01*
X68103Y89783D02*
Y96263D01*
X55792Y89593D02*
Y96593D01*
Y89593D02*
X62292D01*
X55792Y96593D02*
X62292D01*
X64903Y96143D02*
X68103Y92943D01*
X64903Y89973D02*
Y96143D01*
Y89973D02*
X67943Y93013D01*
X77742Y145691D02*
Y149291D01*
X76042Y150991D02*
X77742Y149291D01*
X70793Y150991D02*
X76042D01*
X70793Y143991D02*
X76042D01*
X77742Y145691D01*
X68103Y144181D02*
Y150661D01*
X55792Y143991D02*
Y150991D01*
Y143991D02*
X62292D01*
X55792Y150991D02*
X62292D01*
X64903Y150541D02*
X68103Y147341D01*
X64903Y144371D02*
Y150541D01*
Y144371D02*
X67943Y147411D01*
X55093Y98833D02*
Y102433D01*
Y98833D02*
X56792Y97133D01*
X62042D01*
X56792Y104133D02*
X62042D01*
X55093Y102433D02*
X56792Y104133D01*
X64732Y97463D02*
Y103943D01*
X77043Y97133D02*
Y104133D01*
X70543D02*
X77043D01*
X70543Y97133D02*
X77043D01*
X64732Y100783D02*
X67932Y97583D01*
Y103753D01*
X64893Y100713D02*
X67932Y103753D01*
X55093Y137833D02*
Y141433D01*
Y137833D02*
X56792Y136133D01*
X62042D01*
X56792Y143133D02*
X62042D01*
X55093Y141433D02*
X56792Y143133D01*
X64732Y136463D02*
Y142943D01*
X77043Y136133D02*
Y143133D01*
X70543D02*
X77043D01*
X70543Y136133D02*
X77043D01*
X64732Y139783D02*
X67932Y136583D01*
Y142753D01*
X64893Y139713D02*
X67932Y142753D01*
D13*
X20092Y45508D02*
G03*
X20092Y45508I-492J0D01*
G01*
X20135Y6308D02*
G03*
X20135Y6308I-492J0D01*
G01*
X147000Y58319D02*
G03*
X147000Y58319I-492J0D01*
G01*
D14*
X30542Y129854D02*
G03*
X26542Y129854I-2000J0D01*
G01*
X30542Y90739D02*
G03*
X26542Y90739I-2000J0D01*
G01*
X57200Y118139D02*
G03*
X57200Y122127I-157J1994D01*
G01*
X148409Y41906D02*
X189685D01*
Y10189D02*
Y45623D01*
X148409Y13906D02*
X189685D01*
X165500Y94733D02*
X177500D01*
Y114418D01*
X165500Y94733D02*
Y114418D01*
X21542Y149854D02*
X35543D01*
X21542Y129854D02*
Y149854D01*
Y129854D02*
X26542D01*
X30542D02*
X35543D01*
Y149854D01*
X21542Y110739D02*
X35543D01*
X21542Y90739D02*
Y110739D01*
Y90739D02*
X26542D01*
X30542D02*
X35543D01*
Y110739D01*
X143700Y75032D02*
X145000Y73732D01*
X138300Y75032D02*
X143700D01*
X145000Y67232D02*
Y73732D01*
X137000D02*
X138300Y75032D01*
X137000Y67232D02*
Y73732D01*
X145000Y53732D02*
Y60732D01*
X137000Y53732D02*
X145000D01*
X137000D02*
Y60732D01*
X172689Y63634D02*
Y75445D01*
X146311Y63634D02*
Y75445D01*
X172689D01*
X146311Y63634D02*
X172689D01*
X174000Y55232D02*
X175300Y53932D01*
X180700D01*
X174000Y55232D02*
Y61732D01*
X180700Y53932D02*
X182000Y55232D01*
Y61732D01*
X174000Y68232D02*
Y75232D01*
X182000D01*
Y68232D02*
Y75232D01*
X78043Y109882D02*
X79343Y108582D01*
X84742D01*
X78043Y109882D02*
Y116382D01*
X84742Y108582D02*
X86042Y109882D01*
Y116382D01*
X78043Y122882D02*
Y129882D01*
X86042D01*
Y122882D02*
Y129882D01*
X57042Y114133D02*
X76042D01*
X57042D02*
Y118133D01*
Y122133D02*
Y126133D01*
X76042D01*
Y114133D02*
Y126133D01*
D15*
X120780Y138392D02*
G03*
X120780Y138392I-984J0D01*
G01*
D16*
X133154Y76229D02*
X139650D01*
X133154Y79772D02*
X139650D01*
Y76229D02*
Y79772D01*
X133154Y76229D02*
Y79772D01*
X134654Y38729D02*
X141150D01*
X134654Y42272D02*
X141150D01*
Y38729D02*
Y42272D01*
X134654Y38729D02*
Y42272D01*
X189771Y101036D02*
Y107532D01*
X186228Y101036D02*
Y107532D01*
X189771D01*
X186228Y101036D02*
X189771D01*
X19643Y5308D02*
Y44465D01*
X99423Y147532D02*
X101929Y145026D01*
X104017Y152125D02*
X106522Y149620D01*
X99423Y147532D02*
X104017Y152125D01*
X101929Y145026D02*
X106522Y149620D01*
X115618Y147221D02*
X116467Y148069D01*
X112424Y148758D02*
X114929Y151264D01*
X119661Y146532D02*
X119661Y146531D01*
X117156Y144026D02*
X119661Y146531D01*
X115497Y145685D02*
X117156Y144026D01*
X112424Y148758D02*
X114083Y147099D01*
X118002Y148190D02*
X119661Y146531D01*
X114929Y151263D02*
X116588Y149604D01*
X94618Y141069D02*
X95467Y140221D01*
X96156Y144264D02*
X98662Y141758D01*
X93929Y137026D02*
X93930D01*
X91424Y139531D02*
X93929Y137026D01*
X91424Y139531D02*
X93083Y141190D01*
X94497Y142604D02*
X96156Y144264D01*
X93929Y137026D02*
X95588Y138685D01*
X97002Y140100D02*
X98661Y141758D01*
X130871Y141321D02*
X131720Y140473D01*
X127676Y139784D02*
X130182Y137278D01*
X132408Y144516D02*
X132409D01*
X134914Y142011D01*
X133255Y140352D02*
X134914Y142011D01*
X130182Y137278D02*
X131841Y138937D01*
X130750Y142857D02*
X132409Y144516D01*
X127677Y139784D02*
X129336Y141443D01*
X146118Y106256D02*
X146967Y107105D01*
X142924Y107794D02*
X145429Y110299D01*
X150161Y105567D02*
Y105568D01*
X147656Y103062D02*
X150161Y105567D01*
X145997Y104721D02*
X147656Y103062D01*
X142924Y107794D02*
X144583Y106135D01*
X148502Y107226D02*
X150161Y105567D01*
X145429Y110299D02*
X147088Y108640D01*
X153229Y115286D02*
X156772D01*
X153229Y108789D02*
X156772D01*
Y115286D01*
X153229Y108789D02*
Y115286D01*
X154400Y104654D02*
X155600D01*
X153228Y101308D02*
X156772D01*
X153228Y107999D02*
X153229Y108000D01*
X156772D01*
Y105654D02*
Y108000D01*
Y101308D02*
Y103654D01*
X153229Y105654D02*
Y108000D01*
Y101308D02*
Y103654D01*
X153228Y94036D02*
X156771D01*
X153228Y100532D02*
X156771D01*
X153228Y94036D02*
Y100532D01*
X156771Y94036D02*
Y100532D01*
X183900Y58413D02*
X185100D01*
X182728Y55067D02*
X186271D01*
X182728Y61759D02*
X182729Y61759D01*
X186271D01*
Y59413D02*
Y61759D01*
Y55067D02*
Y57413D01*
X182729Y59413D02*
Y61759D01*
Y55067D02*
Y57413D01*
X133900Y64500D02*
X135100D01*
X132729Y67846D02*
X136272D01*
X136271Y61154D02*
X136272Y61155D01*
X132729Y61154D02*
X136271D01*
X132729D02*
Y63500D01*
Y65500D02*
Y67846D01*
X136271Y61154D02*
Y63500D01*
Y65500D02*
Y67846D01*
X106250Y135816D02*
X108371Y137938D01*
X102714Y139352D02*
X104835Y141473D01*
X102714D02*
X103775Y140413D01*
X101653D02*
X102714Y141473D01*
X107310Y136877D02*
X108371Y135816D01*
X109785Y137231D01*
X101300Y140059D02*
X101653Y140413D01*
X105189Y136877D02*
X107310Y138998D01*
X103775Y138291D02*
X105189Y136877D01*
X103775Y138291D02*
X105896Y140413D01*
X107310Y138998D01*
X111618Y91293D02*
X112467Y90445D01*
X113156Y94488D02*
X115662Y91982D01*
X110929Y87251D02*
X110930D01*
X108424Y89756D02*
X110929Y87251D01*
X108424Y89756D02*
X110083Y91415D01*
X111497Y92829D02*
X113156Y94488D01*
X110929Y87251D02*
X112588Y88910D01*
X114002Y90324D02*
X115661Y91983D01*
X93366Y130169D02*
X94214Y131018D01*
X94903Y126974D02*
X97409Y129480D01*
X90172Y131706D02*
Y131707D01*
X92677Y134212D01*
X94336Y132553D01*
X95750Y131139D02*
X97409Y129480D01*
X90172Y131707D02*
X91831Y130048D01*
X93245Y128634D02*
X94904Y126975D01*
X46621Y102949D02*
Y106492D01*
X53117Y102949D02*
Y106492D01*
X46621D02*
X53117D01*
X46621Y102949D02*
X53117D01*
Y98909D02*
Y102453D01*
X46621Y98909D02*
Y102453D01*
Y98909D02*
X53117D01*
X46621Y102453D02*
X53117D01*
Y116541D02*
Y120084D01*
X46621Y116541D02*
Y120084D01*
Y116541D02*
X53117D01*
X46621Y120084D02*
X53117D01*
Y112497D02*
Y116041D01*
X46621Y112497D02*
Y116041D01*
Y112497D02*
X53117D01*
X46621Y116041D02*
X53117D01*
X46621Y124541D02*
Y128085D01*
X53117Y124541D02*
Y128085D01*
X46621D02*
X53117D01*
X46621Y124541D02*
X53117D01*
X46621Y120541D02*
Y124085D01*
X53117Y120541D02*
Y124085D01*
X46621D02*
X53117D01*
X46621Y120541D02*
X53117D01*
X46621Y137513D02*
Y141056D01*
X53117Y137513D02*
Y141056D01*
X46621D02*
X53117D01*
X46621Y137513D02*
X53117D01*
Y133438D02*
Y136981D01*
X46621Y133438D02*
Y136981D01*
Y133438D02*
X53117D01*
X46621Y136981D02*
X53117D01*
X83442Y96610D02*
X84642D01*
X82270Y93264D02*
X85814D01*
X82270Y99956D02*
X82271Y99957D01*
X85814D01*
Y97610D02*
Y99957D01*
Y93264D02*
Y95610D01*
X82271Y97610D02*
Y99957D01*
Y93264D02*
Y95610D01*
X83443Y143653D02*
X84643D01*
X82271Y140307D02*
X85814D01*
X82271Y146999D02*
X82272Y146999D01*
X85814D01*
Y144653D02*
Y146999D01*
Y140307D02*
Y142653D01*
X82272Y144653D02*
Y146999D01*
Y140307D02*
Y142653D01*
X79443Y143653D02*
X80643D01*
X78272Y147000D02*
X81815D01*
X81814Y140307D02*
X81815Y140308D01*
X78272Y140307D02*
X81814D01*
X78272D02*
Y142653D01*
Y144653D02*
Y147000D01*
X81814Y140307D02*
Y142653D01*
Y144653D02*
Y147000D01*
X79443Y96610D02*
X80642D01*
X78271Y93264D02*
X81814D01*
X78271Y99956D02*
X78271Y99957D01*
X81814D01*
Y97610D02*
Y99957D01*
Y93264D02*
Y95610D01*
X78271Y97610D02*
Y99957D01*
Y93264D02*
Y95610D01*
D17*
X133394Y80147D02*
Y83146D01*
X134894D01*
X135394Y82646D01*
Y81646D01*
X134894Y81146D01*
X133394D01*
X134394D02*
X135394Y80147D01*
X136393D02*
X137393D01*
X136893D01*
Y83146D01*
X136393Y82646D01*
X138892Y80147D02*
X139892D01*
X139392D01*
Y83146D01*
X138892Y82646D01*
X145001Y42499D02*
X144501Y42000D01*
Y41000D01*
X145001Y40500D01*
X147000D01*
X147500Y41000D01*
Y42000D01*
X147000Y42499D01*
X144501Y44999D02*
Y43999D01*
X145001Y43499D01*
X147000D01*
X147500Y43999D01*
Y44999D01*
X147000Y45498D01*
X145001D01*
X144501Y44999D01*
X147500Y46498D02*
X144501D01*
X147500Y48497D01*
X144501D01*
X147500Y49497D02*
Y50497D01*
Y49997D01*
X144501D01*
X145001Y49497D01*
X134500Y43000D02*
Y45999D01*
X136000D01*
X136499Y45499D01*
Y44499D01*
X136000Y44000D01*
X134500D01*
X135500D02*
X136499Y43000D01*
X137499D02*
X138499D01*
X137999D01*
Y45999D01*
X137499Y45499D01*
X141498Y43000D02*
Y45999D01*
X139998Y44499D01*
X141998D01*
X131001Y25000D02*
X134000D01*
Y26999D01*
X131001Y29998D02*
Y27999D01*
X134000D01*
Y29998D01*
X132501Y27999D02*
Y28999D01*
X131001Y30998D02*
X134000D01*
Y32498D01*
X133500Y32997D01*
X131501D01*
X131001Y32498D01*
Y30998D01*
Y35996D02*
Y33997D01*
X132501D01*
X132001Y34997D01*
Y35497D01*
X132501Y35996D01*
X133500D01*
X134000Y35497D01*
Y34497D01*
X133500Y33997D01*
X182999Y150341D02*
X182000D01*
X182500D01*
Y147842D01*
X182000Y147342D01*
X181500D01*
X181000Y147842D01*
X183999Y147342D02*
Y150341D01*
X185499D01*
X185998Y149841D01*
Y148842D01*
X185499Y148342D01*
X183999D01*
X188997Y147342D02*
X186998D01*
X188997Y149342D01*
Y149841D01*
X188498Y150341D01*
X187498D01*
X186998Y149841D01*
X189500Y108000D02*
X186501D01*
Y109500D01*
X187001Y109999D01*
X188001D01*
X188500Y109500D01*
Y108000D01*
Y109000D02*
X189500Y109999D01*
Y110999D02*
Y111999D01*
Y111499D01*
X186501D01*
X187001Y110999D01*
Y113498D02*
X186501Y113998D01*
Y114998D01*
X187001Y115498D01*
X189000D01*
X189500Y114998D01*
Y113998D01*
X189000Y113498D01*
X187001D01*
X179500Y93999D02*
X180500D01*
X180000D01*
Y91000D01*
X179500D01*
X180500D01*
X183999Y93499D02*
X183499Y93999D01*
X182499D01*
X181999Y93499D01*
Y91500D01*
X182499Y91000D01*
X183499D01*
X183999Y91500D01*
X186498Y91000D02*
Y93999D01*
X184998Y92500D01*
X186998D01*
X136809Y96708D02*
Y93709D01*
X138808D01*
X141807Y96708D02*
X139808D01*
Y93709D01*
X141807D01*
X139808Y95209D02*
X140808D01*
X142807Y96708D02*
Y93709D01*
X144307D01*
X144807Y94209D01*
Y96209D01*
X144307Y96708D01*
X142807D01*
X147806Y93709D02*
X145806D01*
X147806Y95709D01*
Y96209D01*
X147306Y96708D01*
X146306D01*
X145806Y96209D01*
X16958Y64200D02*
X19458D01*
X19958Y64700D01*
Y65699D01*
X19458Y66199D01*
X16958D01*
X19458Y67199D02*
X19958Y67699D01*
Y68699D01*
X19458Y69198D01*
X17458D01*
X16958Y68699D01*
Y67699D01*
X17458Y67199D01*
X17958D01*
X18458Y67699D01*
Y69198D01*
X17001Y25000D02*
X19500D01*
X20000Y25500D01*
Y26500D01*
X19500Y26999D01*
X17001D01*
Y27999D02*
Y29998D01*
X17501D01*
X19500Y27999D01*
X20000D01*
X-2001Y182999D02*
X-3000D01*
X-2500D01*
Y180500D01*
X-3000Y180000D01*
X-3500D01*
X-4000Y180500D01*
X-1001Y180000D02*
Y182999D01*
X499D01*
X998Y182499D01*
Y181500D01*
X499Y181000D01*
X-1001D01*
X1998Y182499D02*
X2498Y182999D01*
X3498D01*
X3997Y182499D01*
Y181999D01*
X3498Y181500D01*
X2998D01*
X3498D01*
X3997Y181000D01*
Y180500D01*
X3498Y180000D01*
X2498D01*
X1998Y180500D01*
X13543Y154353D02*
Y151854D01*
X14042Y151354D01*
X15042D01*
X15542Y151854D01*
Y154353D01*
X18541D02*
X16542D01*
Y152853D01*
X17541Y153353D01*
X18041D01*
X18541Y152853D01*
Y151854D01*
X18041Y151354D01*
X17041D01*
X16542Y151854D01*
X97422Y143765D02*
X100956Y143059D01*
X98836Y145179D02*
X99542Y141645D01*
X101663Y143765D02*
X102370Y144472D01*
X102017Y144119D01*
X99896Y146240D01*
Y145533D01*
X147500Y83538D02*
Y81539D01*
X148500Y80539D01*
X149499Y81539D01*
Y83538D01*
X150499Y80539D02*
X151499D01*
X150999D01*
Y83538D01*
X150499Y83039D01*
X52043Y129633D02*
X54543D01*
X55042Y130133D01*
Y131132D01*
X54543Y131632D01*
X52043D01*
X55042Y134131D02*
X52043D01*
X53543Y132632D01*
Y134631D01*
X13543Y115238D02*
Y112739D01*
X14042Y112239D01*
X15042D01*
X15542Y112739D01*
Y115238D01*
X18541Y112239D02*
X16542D01*
X18541Y114239D01*
Y114738D01*
X18041Y115238D01*
X17041D01*
X16542Y114738D01*
X121922Y138529D02*
X123689Y136762D01*
X124396D01*
X125103Y137469D01*
X125103Y138176D01*
X123336Y139943D01*
X126163Y138529D02*
X126870Y139236D01*
X126517Y138883D01*
X124396Y141003D01*
Y140296D01*
X38271Y116813D02*
Y119812D01*
X39771D01*
X40271Y119312D01*
Y118312D01*
X39771Y117812D01*
X38271D01*
X39271D02*
X40271Y116813D01*
X43270D02*
X41270D01*
X43270Y118812D01*
Y119312D01*
X42770Y119812D01*
X41770D01*
X41270Y119312D01*
X45769Y116813D02*
Y119812D01*
X44269Y118312D01*
X46269D01*
X37967Y120813D02*
Y123812D01*
X39467D01*
X39967Y123312D01*
Y122312D01*
X39467Y121812D01*
X37967D01*
X38967D02*
X39967Y120813D01*
X42966D02*
X40966D01*
X42966Y122812D01*
Y123312D01*
X42466Y123812D01*
X41466D01*
X40966Y123312D01*
X43965D02*
X44465Y123812D01*
X45465D01*
X45965Y123312D01*
Y122812D01*
X45465Y122312D01*
X44965D01*
X45465D01*
X45965Y121812D01*
Y121313D01*
X45465Y120813D01*
X44465D01*
X43965Y121313D01*
X38043Y124813D02*
Y127812D01*
X39542D01*
X40042Y127312D01*
Y126313D01*
X39542Y125813D01*
X38043D01*
X39042D02*
X40042Y124813D01*
X43041D02*
X41041D01*
X43041Y126812D01*
Y127312D01*
X42541Y127812D01*
X41541D01*
X41041Y127312D01*
X46040Y124813D02*
X44041D01*
X46040Y126812D01*
Y127312D01*
X45540Y127812D01*
X44540D01*
X44041Y127312D01*
X38271Y112769D02*
Y115769D01*
X39771D01*
X40271Y115269D01*
Y114269D01*
X39771Y113769D01*
X38271D01*
X39271D02*
X40271Y112769D01*
X43270D02*
X41270D01*
X43270Y114769D01*
Y115269D01*
X42770Y115769D01*
X41770D01*
X41270Y115269D01*
X44269Y112769D02*
X45269D01*
X44769D01*
Y115769D01*
X44269Y115269D01*
X43623Y141500D02*
Y144499D01*
X45122D01*
X45622Y143999D01*
Y142999D01*
X45122Y142500D01*
X43623D01*
X44622D02*
X45622Y141500D01*
X46622D02*
X47622D01*
X47122D01*
Y144499D01*
X46622Y143999D01*
X49121D02*
X49621Y144499D01*
X50621D01*
X51120Y143999D01*
Y143499D01*
X50621Y142999D01*
X51120Y142500D01*
Y142000D01*
X50621Y141500D01*
X49621D01*
X49121Y142000D01*
Y142500D01*
X49621Y142999D01*
X49121Y143499D01*
Y143999D01*
X49621Y142999D02*
X50621D01*
X44000Y95000D02*
Y97999D01*
X45500D01*
X45999Y97499D01*
Y96500D01*
X45500Y96000D01*
X44000D01*
X45000D02*
X45999Y95000D01*
X46999D02*
X47999D01*
X47499D01*
Y97999D01*
X46999Y97499D01*
X49498Y97999D02*
X51498D01*
Y97499D01*
X49498Y95500D01*
Y95000D01*
X43623Y145000D02*
Y147999D01*
X45122D01*
X45622Y147499D01*
Y146500D01*
X45122Y146000D01*
X43623D01*
X44622D02*
X45622Y145000D01*
X46622D02*
X47622D01*
X47122D01*
Y147999D01*
X46622Y147499D01*
X51120Y147999D02*
X50121Y147499D01*
X49121Y146500D01*
Y145500D01*
X49621Y145000D01*
X50621D01*
X51120Y145500D01*
Y146000D01*
X50621Y146500D01*
X49121D01*
X43828Y91282D02*
Y94281D01*
X45327D01*
X45827Y93782D01*
Y92782D01*
X45327Y92282D01*
X43828D01*
X44827D02*
X45827Y91282D01*
X46827D02*
X47826D01*
X47327D01*
Y94281D01*
X46827Y93782D01*
X51325Y94281D02*
X49326D01*
Y92782D01*
X50326Y93282D01*
X50826D01*
X51325Y92782D01*
Y91782D01*
X50826Y91282D01*
X49826D01*
X49326Y91782D01*
X152500Y94044D02*
X149501D01*
Y95543D01*
X150001Y96043D01*
X151000D01*
X151500Y95543D01*
Y94044D01*
Y95043D02*
X152500Y96043D01*
Y97043D02*
Y98043D01*
Y97543D01*
X149501D01*
X150001Y97043D01*
Y99542D02*
X149501Y100042D01*
Y101042D01*
X150001Y101541D01*
X150501D01*
X151000Y101042D01*
Y100542D01*
Y101042D01*
X151500Y101541D01*
X152000D01*
X152500Y101042D01*
Y100042D01*
X152000Y99542D01*
X152500Y109939D02*
X149501D01*
Y111439D01*
X150001Y111939D01*
X151001D01*
X151501Y111439D01*
Y109939D01*
Y110939D02*
X152500Y111939D01*
X152000Y112938D02*
X152500Y113438D01*
Y114438D01*
X152000Y114938D01*
X150001D01*
X149501Y114438D01*
Y113438D01*
X150001Y112938D01*
X150501D01*
X151001Y113438D01*
Y114938D01*
X106656Y150259D02*
X104535Y152380D01*
X105596Y153440D01*
X106303Y153440D01*
X107009Y152733D01*
X107009Y152026D01*
X105949Y150966D01*
X106656Y151673D02*
X108070Y151673D01*
X108777Y152380D02*
X109484Y153086D01*
X109130Y152733D01*
X107009Y154854D01*
Y154147D01*
X169500Y91499D02*
Y88500D01*
X171499D01*
X174498Y91499D02*
X172499D01*
Y88500D01*
X174498D01*
X172499Y90000D02*
X173499D01*
X175498Y91499D02*
Y88500D01*
X176998D01*
X177497Y89000D01*
Y90999D01*
X176998Y91499D01*
X175498D01*
X179997Y88500D02*
Y91499D01*
X178497Y90000D01*
X180496D01*
X156500Y125499D02*
Y122500D01*
X158499D01*
X161498Y125499D02*
X159499D01*
Y122500D01*
X161498D01*
X159499Y124000D02*
X160499D01*
X162498Y125499D02*
Y122500D01*
X163998D01*
X164497Y123000D01*
Y124999D01*
X163998Y125499D01*
X162498D01*
X165497Y122500D02*
X166497D01*
X165997D01*
Y125499D01*
X165497Y124999D01*
X120882Y79121D02*
X121882D01*
X121382D01*
Y76122D01*
X120882D01*
X121882D01*
X125380Y78621D02*
X124881Y79121D01*
X123881D01*
X123381Y78621D01*
Y76622D01*
X123881Y76122D01*
X124881D01*
X125380Y76622D01*
X128379Y76122D02*
X126380D01*
X128379Y78121D01*
Y78621D01*
X127880Y79121D01*
X126880D01*
X126380Y78621D01*
X86501Y119424D02*
Y117425D01*
X89500D01*
Y119424D01*
X88001Y117425D02*
Y118425D01*
X87001Y120424D02*
X86501Y120924D01*
Y121924D01*
X87001Y122424D01*
X87501D01*
X88001Y121924D01*
Y121424D01*
Y121924D01*
X88500Y122424D01*
X89000D01*
X89500Y121924D01*
Y120924D01*
X89000Y120424D01*
X142499Y78999D02*
X140500D01*
Y76000D01*
X142499D01*
X140500Y77500D02*
X141500D01*
X145498Y76000D02*
X143499D01*
X145498Y77999D01*
Y78499D01*
X144999Y78999D01*
X143999D01*
X143499Y78499D01*
X176499Y79038D02*
X174500D01*
Y76039D01*
X176499D01*
X174500Y77539D02*
X175500D01*
X177499Y76039D02*
X178499D01*
X177999D01*
Y79038D01*
X177499Y78539D01*
X52001Y148031D02*
X55000D01*
Y149531D01*
X54500Y150031D01*
X52501D01*
X52001Y149531D01*
Y148031D01*
Y153030D02*
Y151030D01*
X53500D01*
X53001Y152030D01*
Y152530D01*
X53500Y153030D01*
X54500D01*
X55000Y152530D01*
Y151530D01*
X54500Y151030D01*
X52501Y89000D02*
X55500D01*
Y90500D01*
X55000Y90999D01*
X53001D01*
X52501Y90500D01*
Y89000D01*
X55500Y93499D02*
X52501D01*
X54001Y91999D01*
Y93998D01*
X51501Y141721D02*
X54500D01*
Y143220D01*
X54000Y143720D01*
X52001D01*
X51501Y143220D01*
Y141721D01*
X52001Y144720D02*
X51501Y145220D01*
Y146219D01*
X52001Y146719D01*
X52501D01*
X53000Y146219D01*
Y145720D01*
Y146219D01*
X53500Y146719D01*
X54000D01*
X54500Y146219D01*
Y145220D01*
X54000Y144720D01*
X52001Y95500D02*
X55000D01*
Y97000D01*
X54500Y97499D01*
X52501D01*
X52001Y97000D01*
Y95500D01*
X55000Y100498D02*
Y98499D01*
X53001Y100498D01*
X52501D01*
X52001Y99999D01*
Y98999D01*
X52501Y98499D01*
X79044Y134153D02*
X78544Y133653D01*
Y132653D01*
X79044Y132153D01*
X81043D01*
X81543Y132653D01*
Y133653D01*
X81043Y134153D01*
X81543Y135152D02*
Y136152D01*
Y135652D01*
X78544D01*
X79044Y135152D01*
X78544Y137652D02*
Y139651D01*
X79044D01*
X81043Y137652D01*
X81543D01*
X79043Y102610D02*
X78544Y102110D01*
Y101110D01*
X79043Y100610D01*
X81043D01*
X81542Y101110D01*
Y102110D01*
X81043Y102610D01*
X81542Y103610D02*
Y104609D01*
Y104109D01*
X78544D01*
X79043Y103610D01*
X78544Y108108D02*
X79043Y107108D01*
X80043Y106109D01*
X81043D01*
X81542Y106608D01*
Y107608D01*
X81043Y108108D01*
X80543D01*
X80043Y107608D01*
Y106109D01*
X83044Y134152D02*
X82544Y133653D01*
Y132653D01*
X83044Y132153D01*
X85043D01*
X85543Y132653D01*
Y133653D01*
X85043Y134152D01*
X85543Y135152D02*
Y136152D01*
Y135652D01*
X82544D01*
X83044Y135152D01*
X82544Y139651D02*
Y137651D01*
X84044D01*
X83544Y138651D01*
Y139151D01*
X84044Y139651D01*
X85043D01*
X85543Y139151D01*
Y138151D01*
X85043Y137651D01*
X83043Y102610D02*
X82543Y102110D01*
Y101110D01*
X83043Y100610D01*
X85043D01*
X85543Y101110D01*
Y102110D01*
X85043Y102610D01*
X85543Y103610D02*
Y104609D01*
Y104109D01*
X82543D01*
X83043Y103610D01*
X85543Y107608D02*
X82543D01*
X84043Y106109D01*
Y108108D01*
X133501Y70499D02*
X133001Y69999D01*
Y69000D01*
X133501Y68500D01*
X135500D01*
X136000Y69000D01*
Y69999D01*
X135500Y70499D01*
X136000Y71499D02*
Y72499D01*
Y71999D01*
X133001D01*
X133501Y71499D01*
Y73998D02*
X133001Y74498D01*
Y75498D01*
X133501Y75998D01*
X134001D01*
X134501Y75498D01*
Y74998D01*
Y75498D01*
X135000Y75998D01*
X135500D01*
X136000Y75498D01*
Y74498D01*
X135500Y73998D01*
X183501Y64539D02*
X183001Y64039D01*
Y63039D01*
X183501Y62539D01*
X185500D01*
X186000Y63039D01*
Y64039D01*
X185500Y64539D01*
X186000Y65538D02*
Y66538D01*
Y66038D01*
X183001D01*
X183501Y65538D01*
X186000Y70037D02*
Y68037D01*
X184001Y70037D01*
X183501D01*
X183001Y69537D01*
Y68537D01*
X183501Y68037D01*
X150501Y103153D02*
X150001Y102653D01*
Y101654D01*
X150501Y101154D01*
X152500D01*
X153000Y101654D01*
Y102653D01*
X152500Y103153D01*
X153000Y104153D02*
Y105152D01*
Y104653D01*
X150001D01*
X150501Y104153D01*
Y106652D02*
X150001Y107152D01*
Y108151D01*
X150501Y108651D01*
X152500D01*
X153000Y108151D01*
Y107152D01*
X152500Y106652D01*
X150501D01*
X98471Y126947D02*
X98471Y127654D01*
X97764Y128361D01*
X97057D01*
X95644Y126947D01*
Y126240D01*
X96351Y125533D01*
X97057Y125533D01*
X97764Y124826D02*
Y124119D01*
X98471Y123413D01*
X99178Y123413D01*
X100592Y124826D01*
X100592Y125533D01*
X99885Y126240D01*
X99178D01*
X98825Y125887D01*
X98825Y125180D01*
X99885Y124119D01*
X134685Y145578D02*
X133978Y145578D01*
X133272Y144871D01*
Y144164D01*
X134685Y142751D01*
X135392D01*
X136099Y143457D01*
X136099Y144164D01*
X135392Y146285D02*
Y146992D01*
X136099Y147699D01*
X136806Y147699D01*
X137160Y147345D01*
Y146638D01*
X137866Y146638D01*
X138220Y146285D01*
X138220Y145578D01*
X137513Y144871D01*
X136806D01*
X136453Y145225D01*
Y145931D01*
X135746Y145931D01*
X135392Y146285D01*
X136453Y145931D02*
X137160Y146638D01*
X143785Y104995D02*
X143786Y105702D01*
X143079Y106409D01*
X142372D01*
X140958Y104995D01*
Y104288D01*
X141665Y103582D01*
X142372Y103582D01*
X144846Y104642D02*
X146259Y103228D01*
X145906Y102875D01*
X143079D01*
X142725Y102521D01*
X106436Y86797D02*
X105729Y86797D01*
X105023Y86090D01*
Y85384D01*
X106436Y83970D01*
X107143D01*
X107850Y84677D01*
X107850Y85384D01*
X108203Y89271D02*
X107850Y88211D01*
X107850Y86797D01*
X108557Y86090D01*
X109264D01*
X109971Y86797D01*
X109971Y87504D01*
X109617Y87858D01*
X108910Y87858D01*
X107850Y86797D01*
X89189Y136562D02*
X88482Y136562D01*
X87775Y135855D01*
Y135148D01*
X89189Y133735D01*
X89896D01*
X90603Y134441D01*
X90603Y135148D01*
X93077Y136916D02*
X91663Y135502D01*
Y138329D01*
X91310Y138683D01*
X90603Y138683D01*
X89896Y137976D01*
Y137269D01*
X112476Y152246D02*
X112476Y152952D01*
X111769Y153659D01*
X111062D01*
X109649Y152246D01*
Y151539D01*
X110356Y150832D01*
X111062Y150832D01*
X111416Y149771D02*
X112123Y149065D01*
X111769Y149418D01*
X113890Y151539D01*
X113183D01*
M02*
