G04*
G04 #@! TF.GenerationSoftware,Altium Limited,Altium Designer,18.1.9 (240)*
G04*
G04 Layer_Color=128*
%FSLAX25Y25*%
%MOIN*%
G70*
G01*
G75*
%ADD10C,0.00200*%
D10*
X154646Y46410D02*
X157795D01*
X156220Y44835D02*
Y47985D01*
X168425Y27906D02*
X171575D01*
X170000Y26331D02*
Y29481D01*
X144016Y27906D02*
X147165D01*
X145591Y26331D02*
Y29481D01*
X184047Y138890D02*
X189953D01*
X187000Y135937D02*
Y141842D01*
X184047Y125110D02*
X189953D01*
X187000Y122158D02*
Y128063D01*
X88400Y168224D02*
X89600D01*
X89000Y167624D02*
Y168824D01*
X85900Y163224D02*
X87100D01*
X86500Y162624D02*
Y163824D01*
X83400Y168224D02*
X84600D01*
X84000Y167624D02*
Y168824D01*
X80900Y163224D02*
X82100D01*
X81500Y162624D02*
Y163824D01*
X78400Y168224D02*
X79600D01*
X79000Y167624D02*
Y168824D01*
X75900Y163224D02*
X77100D01*
X76500Y162624D02*
Y163824D01*
X73400Y168224D02*
X74600D01*
X74000Y167624D02*
Y168824D01*
X70900Y163224D02*
X72100D01*
X71500Y162624D02*
Y163824D01*
X68400Y168224D02*
X69600D01*
X69000Y167624D02*
Y168824D01*
X65900Y163224D02*
X67100D01*
X66500Y162624D02*
Y163824D01*
X63400Y168224D02*
X64600D01*
X64000Y167624D02*
Y168824D01*
X60900Y163224D02*
X62100D01*
X61500Y162624D02*
Y163824D01*
X58400Y168224D02*
X59600D01*
X59000Y167624D02*
Y168824D01*
X55900Y163224D02*
X57100D01*
X56500Y162624D02*
Y163824D01*
X53400Y168224D02*
X54600D01*
X54000Y167624D02*
Y168824D01*
X50900Y163224D02*
X52100D01*
X51500Y162624D02*
Y163824D01*
X48400Y168224D02*
X49600D01*
X49000Y167624D02*
Y168824D01*
X45900Y163224D02*
X47100D01*
X46500Y162624D02*
Y163824D01*
X43400Y168224D02*
X44600D01*
X44000Y167624D02*
Y168824D01*
X40900Y163224D02*
X42100D01*
X41500Y162624D02*
Y163824D01*
X38400Y168224D02*
X39600D01*
X39000Y167624D02*
Y168824D01*
X35900Y163224D02*
X37100D01*
X36500Y162624D02*
Y163824D01*
X33400Y168224D02*
X34600D01*
X34000Y167624D02*
Y168824D01*
X30900Y163224D02*
X32100D01*
X31500Y162624D02*
Y163824D01*
X28400Y168224D02*
X29600D01*
X29000Y167624D02*
Y168824D01*
X25900Y163224D02*
X27100D01*
X26500Y162624D02*
Y163824D01*
X100900Y63224D02*
X102100D01*
X101500Y62624D02*
Y63824D01*
X103400Y58224D02*
X104600D01*
X104000Y57624D02*
Y58824D01*
X100900Y53224D02*
X102100D01*
X101500Y52624D02*
Y53824D01*
X103400Y48224D02*
X104600D01*
X104000Y47624D02*
Y48824D01*
X100900Y43224D02*
X102100D01*
X101500Y42624D02*
Y43824D01*
X95900Y63224D02*
X97100D01*
X96500Y62624D02*
Y63824D01*
X98400Y58224D02*
X99600D01*
X99000Y57624D02*
Y58824D01*
X95900Y53224D02*
X97100D01*
X96500Y52624D02*
Y53824D01*
X98400Y48224D02*
X99600D01*
X99000Y47624D02*
Y48824D01*
X95900Y43224D02*
X97100D01*
X96500Y42624D02*
Y43824D01*
X102900Y153500D02*
X104100D01*
X103500Y152900D02*
Y154100D01*
X103900Y35000D02*
X105100D01*
X104500Y34400D02*
Y35600D01*
X95900Y27000D02*
X97100D01*
X96500Y26400D02*
Y27600D01*
X58900Y48500D02*
X60100D01*
X59500Y47900D02*
Y49100D01*
X58400Y6300D02*
X59600D01*
X59000Y5700D02*
Y6900D01*
X82900Y12032D02*
X84100D01*
X83500Y11432D02*
Y12632D01*
X14400Y31496D02*
X15600D01*
X15000Y30896D02*
Y32096D01*
X14400Y64989D02*
X15600D01*
X15000Y64389D02*
Y65589D01*
X76400Y33622D02*
X77600D01*
X77000Y33022D02*
Y34222D01*
X76400Y38622D02*
X77600D01*
X77000Y38022D02*
Y39222D01*
X76400Y43622D02*
X77600D01*
X77000Y43022D02*
Y44222D01*
X106400Y90133D02*
X107600D01*
X107000Y89533D02*
Y90733D01*
X139828Y136852D02*
X141028D01*
X140428Y136252D02*
Y137452D01*
X117400Y125110D02*
X118600D01*
X118000Y124510D02*
Y125710D01*
X-13750Y82500D02*
X-12550D01*
X-13150Y81900D02*
Y83100D01*
X112509Y123181D02*
X113709D01*
X113109Y122581D02*
Y123781D01*
X120089Y105500D02*
X121289D01*
X120689Y104900D02*
Y106100D01*
X117400Y105500D02*
X118600D01*
X118000Y104900D02*
Y106100D01*
X117400Y108379D02*
X118600D01*
X118000Y107779D02*
Y108979D01*
X114400Y108163D02*
X115600D01*
X115000Y107563D02*
Y108763D01*
X147400Y111500D02*
X148600D01*
X148000Y110900D02*
Y112100D01*
X173860Y147342D02*
X175060D01*
X174460Y146742D02*
Y147942D01*
X140400Y90474D02*
X141600D01*
X140999Y89874D02*
Y91074D01*
X133400Y99506D02*
X134600D01*
X134000Y98906D02*
Y100106D01*
X150400Y110364D02*
X151600D01*
X151000Y109764D02*
Y110964D01*
X150900Y98958D02*
X152100D01*
X151500Y98358D02*
Y99558D01*
X135900Y102500D02*
X137100D01*
X136500Y101900D02*
Y103100D01*
X138900Y105142D02*
X140100D01*
X139500Y104542D02*
Y105742D01*
X126670Y126000D02*
X127869D01*
X127269Y125400D02*
Y126600D01*
X142400Y118312D02*
X143600D01*
X143000Y117712D02*
Y118912D01*
X133826Y113000D02*
X135026D01*
X134426Y112400D02*
Y113600D01*
X-9100Y76500D02*
X-7900D01*
X-8500Y75900D02*
Y77100D01*
X29400Y78000D02*
X30600D01*
X30000Y77400D02*
Y78600D01*
X106900Y87500D02*
X108100D01*
X107500Y86900D02*
Y88100D01*
X115900Y53622D02*
X117100D01*
X116500Y53022D02*
Y54222D01*
X115900Y58622D02*
X117100D01*
X116500Y58022D02*
Y59222D01*
X115900Y63622D02*
X117100D01*
X116500Y63022D02*
Y64222D01*
X115900Y68622D02*
X117100D01*
X116500Y68022D02*
Y69222D01*
X103400Y84982D02*
X104600D01*
X104000Y84382D02*
Y85582D01*
X79900Y131687D02*
X81099D01*
X80500Y131087D02*
Y132287D01*
X81400Y107000D02*
X82600D01*
X82000Y106400D02*
Y107600D01*
X25943Y109696D02*
X27143D01*
X26542Y109096D02*
Y110296D01*
X17443Y115382D02*
X18643D01*
X18043Y114782D02*
Y115982D01*
X23147Y146251D02*
X24347D01*
X23747Y145651D02*
Y146851D01*
X24942Y148810D02*
X26142D01*
X25543Y148210D02*
Y149410D01*
X20943Y143692D02*
X22142D01*
X21542Y143092D02*
Y144292D01*
X11443Y116382D02*
X12642D01*
X12043Y115782D02*
Y116982D01*
X44943Y91782D02*
X46143D01*
X45542Y91182D02*
Y92382D01*
X39769Y127882D02*
X40969D01*
X40369Y127282D02*
Y128482D01*
X44943Y148810D02*
X46143D01*
X45542Y148210D02*
Y149410D01*
X29443Y122882D02*
X30643D01*
X30042Y122282D02*
Y123482D01*
X26443Y91782D02*
X27643D01*
X27042Y91182D02*
Y92382D01*
X23442Y107137D02*
X24643D01*
X24043Y106537D02*
Y107737D01*
X24942Y130985D02*
X26142D01*
X25543Y130385D02*
Y131585D01*
X14443Y83082D02*
X15642D01*
X15043Y82482D02*
Y83682D01*
X16443Y84982D02*
X17642D01*
X17042Y84382D02*
Y85582D01*
X18442Y86882D02*
X19643D01*
X19042Y86282D02*
Y87482D01*
X65943Y136382D02*
X67142D01*
X66543Y135782D02*
Y136982D01*
X65943Y103882D02*
X67142D01*
X66543Y103282D02*
Y104482D01*
X72443Y139633D02*
X73642D01*
X73043Y139033D02*
Y140233D01*
X72443Y100633D02*
X73642D01*
X73043Y100033D02*
Y101233D01*
X83442Y101504D02*
X84642D01*
X84043Y100903D02*
Y102103D01*
X83443Y137382D02*
X84643D01*
X84043Y136782D02*
Y137982D01*
X149396Y103227D02*
X150596D01*
X149996Y102627D02*
Y103827D01*
X134149Y144351D02*
X135349D01*
X134749Y143751D02*
Y144950D01*
X90943Y135382D02*
X92142D01*
X91543Y134782D02*
Y135982D01*
X119395Y143692D02*
X120595D01*
X119995Y143092D02*
Y144292D01*
X106442Y97328D02*
X107642D01*
X107043Y96728D02*
Y97928D01*
X48443Y108382D02*
X49643D01*
X49042Y107782D02*
Y108982D01*
X47442Y129882D02*
X48643D01*
X48043Y129282D02*
Y130482D01*
X38470Y112855D02*
X39670D01*
X39070Y112255D02*
Y113454D01*
X20943Y104578D02*
X22142D01*
X21542Y103978D02*
Y105178D01*
X-600Y120472D02*
X600D01*
X0Y119872D02*
Y121072D01*
X-600Y0D02*
X600D01*
X0Y-600D02*
Y600D01*
X-600Y3937D02*
X600D01*
X0Y3337D02*
Y4537D01*
X-600Y7874D02*
X600D01*
X0Y7274D02*
Y8474D01*
X-600Y11811D02*
X600D01*
X0Y11211D02*
Y12411D01*
X-600Y15748D02*
X600D01*
X0Y15148D02*
Y16348D01*
X-600Y19685D02*
X600D01*
X0Y19085D02*
Y20285D01*
X-600Y23622D02*
X600D01*
X0Y23022D02*
Y24222D01*
X-600Y27559D02*
X600D01*
X0Y26959D02*
Y28159D01*
X-600Y31496D02*
X600D01*
X0Y30896D02*
Y32096D01*
X-600Y35433D02*
X600D01*
X0Y34833D02*
Y36033D01*
X-600Y39370D02*
X600D01*
X0Y38770D02*
Y39970D01*
X-600Y43307D02*
X600D01*
X0Y42707D02*
Y43907D01*
X-600Y47244D02*
X600D01*
X0Y46644D02*
Y47844D01*
X-600Y51181D02*
X600D01*
X0Y50581D02*
Y51781D01*
X-600Y55118D02*
X600D01*
X0Y54518D02*
Y55718D01*
X-600Y96850D02*
X600D01*
X0Y96250D02*
Y97450D01*
X-600Y100787D02*
X600D01*
X0Y100187D02*
Y101387D01*
X-600Y104724D02*
X600D01*
X0Y104124D02*
Y105324D01*
X-600Y108661D02*
X600D01*
X0Y108061D02*
Y109261D01*
X-600Y112598D02*
X600D01*
X0Y111998D02*
Y113198D01*
X-600Y116535D02*
X600D01*
X0Y115935D02*
Y117135D01*
X-600Y124409D02*
X600D01*
X0Y123809D02*
Y125009D01*
X-600Y128346D02*
X600D01*
X0Y127746D02*
Y128946D01*
X-600Y132283D02*
X600D01*
X0Y131683D02*
Y132883D01*
X-600Y136220D02*
X600D01*
X0Y135620D02*
Y136820D01*
X-600Y140157D02*
X600D01*
X0Y139557D02*
Y140757D01*
X-600Y144094D02*
X600D01*
X0Y143494D02*
Y144694D01*
X-600Y148031D02*
X600D01*
X0Y147431D02*
Y148631D01*
X-600Y151968D02*
X600D01*
X0Y151368D02*
Y152568D01*
X-600Y155905D02*
X600D01*
X0Y155305D02*
Y156505D01*
X-600Y159842D02*
X600D01*
X0Y159242D02*
Y160442D01*
X-600Y163779D02*
X600D01*
X0Y163179D02*
Y164379D01*
X-600Y167716D02*
X600D01*
X0Y167116D02*
Y168316D01*
X-600Y171653D02*
X600D01*
X0Y171053D02*
Y172253D01*
M02*
