G04*
G04 #@! TF.GenerationSoftware,Altium Limited,Altium Designer,18.1.9 (240)*
G04*
G04 Layer_Color=32896*
%FSLAX25Y25*%
%MOIN*%
G70*
G01*
G75*
%ADD10C,0.00800*%
%ADD12C,0.01000*%
%ADD13C,0.00984*%
%ADD14C,0.00787*%
%ADD16C,0.00600*%
%ADD17C,0.00500*%
D10*
X156000Y29177D02*
X158000Y25677D01*
X156000Y29177D02*
X160000D01*
X158000Y25677D02*
X160000Y29177D01*
X156000Y25677D02*
X160000D01*
X129571Y136852D02*
X136809Y144090D01*
X140428Y140471D01*
X133190Y133233D02*
X140428Y140471D01*
X129571Y136852D02*
X133190Y133233D01*
X103424Y90090D02*
X110662Y97328D01*
X99804Y93709D02*
X103424Y90090D01*
X99804Y93709D02*
X107043Y100947D01*
X110662Y97328D01*
D12*
X20707Y34102D02*
G03*
X20800Y39700I93J2798D01*
G01*
X153000Y14122D02*
G03*
X153000Y14122I-500J0D01*
G01*
X41552Y151441D02*
G03*
X41552Y151441I-510J0D01*
G01*
Y112239D02*
G03*
X41552Y112239I-510J0D01*
G01*
X20477Y30796D02*
Y34100D01*
Y39802D02*
Y42804D01*
X55123Y30796D02*
Y42804D01*
X20477Y30796D02*
X55123D01*
X20477Y42804D02*
X55123D01*
X165197Y134685D02*
X167035Y132847D01*
X162086Y137796D02*
X163924Y135958D01*
X158550Y137089D02*
X162722Y141261D01*
X160035Y129947D02*
X162086Y127897D01*
X171985Y137796D01*
X169935Y139847D02*
X171985Y137796D01*
X159849Y122152D02*
X177387Y139690D01*
X149270Y132731D02*
X166808Y150269D01*
X157529Y124471D02*
X159849Y122152D01*
X175068Y142010D02*
X177387Y139690D01*
X149270Y132731D02*
X151307Y130694D01*
X166808Y150269D02*
X168845Y148233D01*
X152000Y17622D02*
Y38252D01*
X162350D02*
X164000D01*
Y17622D02*
Y38252D01*
X152000D02*
X153748D01*
X162000Y17622D02*
X164000D01*
X162000Y21122D02*
X163315D01*
X152000Y17622D02*
X154000D01*
X152685Y21122D02*
X154000D01*
X156800Y28922D02*
X158000Y26422D01*
X159200Y28622D01*
X157800D02*
X159200D01*
X157800D02*
X158000Y27532D01*
X0Y0D02*
Y85750D01*
D13*
X20092Y47992D02*
G03*
X20092Y47992I-492J0D01*
G01*
D14*
X26542Y149941D02*
G03*
X30542Y149941I2000J0D01*
G01*
X26542Y110739D02*
G03*
X30542Y110739I2000J0D01*
G01*
X21542Y129941D02*
X35543D01*
X21542D02*
Y149941D01*
X26542D01*
X30542D02*
X35543D01*
Y129941D02*
Y149941D01*
X21542Y90739D02*
X35543D01*
X21542D02*
Y110739D01*
X26542D01*
X30542D02*
X35543D01*
Y90739D02*
Y110739D01*
D16*
X148381Y115886D02*
X150887Y113381D01*
X152975Y120480D02*
X155480Y117974D01*
X150887Y113381D02*
X155480Y117974D01*
X148381Y115886D02*
X152975Y120480D01*
X155576Y143924D02*
X156424Y143076D01*
X152381Y142386D02*
X154887Y139881D01*
X159619Y144613D02*
Y144614D01*
X157114Y147119D02*
X159619Y144614D01*
X155455Y145460D02*
X157114Y147119D01*
X152381Y142386D02*
X154040Y144045D01*
X157960Y142955D02*
X159619Y144614D01*
X154886Y139881D02*
X156545Y141540D01*
X-15500Y158425D02*
Y172425D01*
X-4500D01*
Y158425D02*
Y172425D01*
X-15500Y158425D02*
X-4500D01*
X-15500Y143000D02*
Y157000D01*
X-4500D01*
Y143000D02*
Y157000D01*
X-15500Y143000D02*
X-4500D01*
X-15650Y127425D02*
Y141425D01*
X-4650D01*
Y127425D02*
Y141425D01*
X-15650Y127425D02*
X-4650D01*
X-15500Y112000D02*
Y126000D01*
X-4500D01*
Y112000D02*
Y126000D01*
X-15500Y112000D02*
X-4500D01*
X-15500Y96500D02*
Y110500D01*
X-4500D01*
Y96500D02*
Y110500D01*
X-15500Y96500D02*
X-4500D01*
X-13600Y75500D02*
X-12400D01*
X-14772Y78846D02*
X-11229D01*
X-14772Y72154D02*
X-14771Y72154D01*
X-11229D01*
Y74500D01*
Y76500D02*
Y78846D01*
X-14771Y72154D02*
Y74500D01*
Y76500D02*
Y78846D01*
X-15500Y45500D02*
Y59500D01*
X-4500D01*
Y45500D02*
Y59500D01*
X-15500Y45500D02*
X-4500D01*
X-15500Y30000D02*
Y44000D01*
X-4500D01*
Y30000D02*
Y44000D01*
X-15500Y30000D02*
X-4500D01*
X-15500Y14500D02*
Y28500D01*
X-4500D01*
Y14500D02*
Y28500D01*
X-15500Y14500D02*
X-4500D01*
X-15500Y-1000D02*
Y13000D01*
X-4500D01*
Y-1000D02*
Y13000D01*
X-15500Y-1000D02*
X-4500D01*
D17*
X138182Y169999D02*
X139182D01*
X138682D01*
Y167500D01*
X139182Y167000D01*
X139682D01*
X140182Y167500D01*
X137183Y167000D02*
Y169999D01*
X135683D01*
X135183Y169499D01*
Y168500D01*
X135683Y168000D01*
X137183D01*
X134184Y167000D02*
X133184D01*
X133684D01*
Y169999D01*
X134184Y169499D01*
X15501Y30500D02*
X18000D01*
X18500Y30000D01*
Y29000D01*
X18000Y28501D01*
X15501D01*
X16001Y27501D02*
X15501Y27001D01*
Y26001D01*
X16001Y25502D01*
X16501D01*
X17000Y26001D01*
X17500Y25502D01*
X18000D01*
X18500Y26001D01*
Y27001D01*
X18000Y27501D01*
X17500D01*
X17000Y27001D01*
X16501Y27501D01*
X16001D01*
X17000Y27001D02*
Y26001D01*
X13543Y125442D02*
Y127942D01*
X14042Y128441D01*
X15042D01*
X15542Y127942D01*
Y125442D01*
X18541D02*
X17541Y125942D01*
X16542Y126942D01*
Y127942D01*
X17041Y128441D01*
X18041D01*
X18541Y127942D01*
Y127442D01*
X18041Y126942D01*
X16542D01*
X13543Y86165D02*
Y88665D01*
X14042Y89164D01*
X15042D01*
X15542Y88665D01*
Y86165D01*
X16542Y86665D02*
X17041Y86165D01*
X18041D01*
X18541Y86665D01*
Y87165D01*
X18041Y87665D01*
X17541D01*
X18041D01*
X18541Y88165D01*
Y88665D01*
X18041Y89164D01*
X17041D01*
X16542Y88665D01*
X177401Y157824D02*
X177901Y158323D01*
X178900D01*
X179400Y157824D01*
Y157324D01*
X178900Y156824D01*
X177901D01*
X177401Y156324D01*
Y155824D01*
X177901Y155324D01*
X178900D01*
X179400Y155824D01*
X176401Y158323D02*
Y155324D01*
X175401Y156324D01*
X174402Y155324D01*
Y158323D01*
X173402Y155324D02*
X172402D01*
X172902D01*
Y158323D01*
X173402Y157824D01*
X-15350Y96280D02*
Y93281D01*
X-13851D01*
X-13351Y93780D01*
Y94780D01*
X-13851Y95280D01*
X-15350D01*
X-14351D02*
X-13351Y96280D01*
X-10352D02*
X-12351D01*
X-10352Y94280D01*
Y93780D01*
X-10852Y93281D01*
X-11851D01*
X-12351Y93780D01*
X-9352Y93281D02*
X-7353D01*
Y93780D01*
X-9352Y95780D01*
Y96280D01*
X-15350Y111807D02*
Y108808D01*
X-13851D01*
X-13351Y109308D01*
Y110308D01*
X-13851Y110807D01*
X-15350D01*
X-14351D02*
X-13351Y111807D01*
X-10352D02*
X-12351D01*
X-10352Y109808D01*
Y109308D01*
X-10852Y108808D01*
X-11851D01*
X-12351Y109308D01*
X-7353Y108808D02*
X-8353Y109308D01*
X-9352Y110308D01*
Y111307D01*
X-8852Y111807D01*
X-7853D01*
X-7353Y111307D01*
Y110807D01*
X-7853Y110308D01*
X-9352D01*
X-15500Y127205D02*
Y124206D01*
X-14001D01*
X-13501Y124706D01*
Y125705D01*
X-14001Y126205D01*
X-15500D01*
X-14500D02*
X-13501Y127205D01*
X-10502D02*
X-12501D01*
X-10502Y125205D01*
Y124706D01*
X-11001Y124206D01*
X-12001D01*
X-12501Y124706D01*
X-7503Y124206D02*
X-9502D01*
Y125705D01*
X-8502Y125205D01*
X-8002D01*
X-7503Y125705D01*
Y126705D01*
X-8002Y127205D01*
X-9002D01*
X-9502Y126705D01*
X-15350Y142705D02*
Y139706D01*
X-13851D01*
X-13351Y140206D01*
Y141205D01*
X-13851Y141705D01*
X-15350D01*
X-14351D02*
X-13351Y142705D01*
X-10352D02*
X-12351D01*
X-10352Y140706D01*
Y140206D01*
X-10852Y139706D01*
X-11851D01*
X-12351Y140206D01*
X-9352D02*
X-8852Y139706D01*
X-7853D01*
X-7353Y140206D01*
Y142205D01*
X-7853Y142705D01*
X-8852D01*
X-9352Y142205D01*
Y140206D01*
X-15350Y158214D02*
Y155215D01*
X-13851D01*
X-13351Y155715D01*
Y156714D01*
X-13851Y157214D01*
X-15350D01*
X-14351D02*
X-13351Y158214D01*
X-12351D02*
X-11352D01*
X-11851D01*
Y155215D01*
X-12351Y155715D01*
X-9852Y157714D02*
X-9352Y158214D01*
X-8353D01*
X-7853Y157714D01*
Y155715D01*
X-8353Y155215D01*
X-9352D01*
X-9852Y155715D01*
Y156214D01*
X-9352Y156714D01*
X-7853D01*
X140500Y141162D02*
X142621Y143282D01*
X141560Y144343D01*
X140853Y144343D01*
X140147Y143636D01*
X140147Y142929D01*
X141207Y141869D01*
X140500Y142576D02*
X139086Y142576D01*
X140147Y145050D02*
Y145756D01*
X139440Y146463D01*
X138733Y146463D01*
X138379Y146110D01*
Y145403D01*
X137672Y145403D01*
X137319Y145050D01*
X137319Y144343D01*
X138026Y143636D01*
X138733D01*
X139086Y143989D01*
Y144696D01*
X139793Y144696D01*
X140147Y145050D01*
X139086Y144696D02*
X138379Y145403D01*
X-4650Y60004D02*
Y63003D01*
X-6149D01*
X-6649Y62503D01*
Y61503D01*
X-6149Y61003D01*
X-4650D01*
X-5649D02*
X-6649Y60004D01*
X-7649Y63003D02*
X-9648D01*
Y62503D01*
X-7649Y60503D01*
Y60004D01*
X100636Y87828D02*
X102756Y89949D01*
X101696Y91009D01*
X100989Y91009D01*
X100282Y90302D01*
X100282Y89596D01*
X101342Y88535D01*
X100636Y89242D02*
X99222Y89242D01*
Y93483D02*
X99575Y92423D01*
X99575Y91009D01*
X98868Y90302D01*
X98162D01*
X97455Y91009D01*
X97455Y91716D01*
X97808Y92070D01*
X98515Y92070D01*
X99575Y91009D01*
X-4500Y44500D02*
Y47499D01*
X-5999D01*
X-6499Y46999D01*
Y46000D01*
X-5999Y45500D01*
X-4500D01*
X-5500D02*
X-6499Y44500D01*
X-9498Y47499D02*
X-7499D01*
Y46000D01*
X-8499Y46499D01*
X-8999D01*
X-9498Y46000D01*
Y45000D01*
X-8999Y44500D01*
X-7999D01*
X-7499Y45000D01*
X-4650Y28961D02*
Y31960D01*
X-6149D01*
X-6649Y31460D01*
Y30460D01*
X-6149Y29960D01*
X-4650D01*
X-5649D02*
X-6649Y28961D01*
X-9148D02*
Y31960D01*
X-7649Y30460D01*
X-9648D01*
X155300Y123324D02*
Y126323D01*
X153800D01*
X153301Y125823D01*
Y124824D01*
X153800Y124324D01*
X155300D01*
X154300D02*
X153301Y123324D01*
X152301Y125823D02*
X151801Y126323D01*
X150801D01*
X150302Y125823D01*
Y125324D01*
X150801Y124824D01*
X151301D01*
X150801D01*
X150302Y124324D01*
Y123824D01*
X150801Y123324D01*
X151801D01*
X152301Y123824D01*
X-4650Y13425D02*
Y16424D01*
X-6149D01*
X-6649Y15924D01*
Y14925D01*
X-6149Y14425D01*
X-4650D01*
X-5649D02*
X-6649Y13425D01*
X-9648D02*
X-7649D01*
X-9648Y15425D01*
Y15924D01*
X-9148Y16424D01*
X-8149D01*
X-7649Y15924D01*
X164000Y46923D02*
Y43924D01*
X162501D01*
X162001Y44424D01*
Y46424D01*
X162501Y46923D01*
X164000D01*
X161001Y43924D02*
X160001D01*
X160501D01*
Y46923D01*
X161001Y46424D01*
X157401Y152424D02*
X157901Y152923D01*
X158900D01*
X159400Y152424D01*
Y150424D01*
X158900Y149924D01*
X157901D01*
X157401Y150424D01*
X154901Y149924D02*
Y152923D01*
X156401Y151424D01*
X154402D01*
X-13999Y82501D02*
X-14499Y83000D01*
Y84000D01*
X-13999Y84500D01*
X-12000D01*
X-11500Y84000D01*
Y83000D01*
X-12000Y82501D01*
X-13999Y81501D02*
X-14499Y81001D01*
Y80001D01*
X-13999Y79502D01*
X-13499D01*
X-13000Y80001D01*
Y80501D01*
Y80001D01*
X-12500Y79502D01*
X-12000D01*
X-11500Y80001D01*
Y81001D01*
X-12000Y81501D01*
M02*
