G04*
G04 #@! TF.GenerationSoftware,Altium Limited,Altium Designer,18.1.9 (240)*
G04*
G04 Layer_Color=2752767*
%FSLAX25Y25*%
%MOIN*%
G70*
G01*
G75*
%ADD10C,0.00200*%
%ADD11C,0.00267*%
D10*
X155420Y45610D02*
Y47210D01*
X157020D01*
Y45610D01*
X155420D01*
X187000Y138090D02*
X186200Y139690D01*
X187800D01*
X187000Y138090D01*
Y124310D02*
X186200Y125910D01*
X187800D01*
X187000Y124310D01*
X89000Y167424D02*
X89400Y167824D01*
X89800D01*
X89400Y168224D01*
X89800Y168624D01*
X89400D01*
X89000Y169024D01*
X88600Y168624D01*
X88200D01*
X88600Y168224D01*
X88200Y167824D01*
X88600D01*
X89000Y167424D01*
X86500Y162424D02*
X86900Y162824D01*
X87300D01*
X86900Y163224D01*
X87300Y163624D01*
X86900D01*
X86500Y164024D01*
X86100Y163624D01*
X85700D01*
X86100Y163224D01*
X85700Y162824D01*
X86100D01*
X86500Y162424D01*
X84000Y167424D02*
X84400Y167824D01*
X84800D01*
X84400Y168224D01*
X84800Y168624D01*
X84400D01*
X84000Y169024D01*
X83600Y168624D01*
X83200D01*
X83600Y168224D01*
X83200Y167824D01*
X83600D01*
X84000Y167424D01*
X81500Y162424D02*
X81900Y162824D01*
X82300D01*
X81900Y163224D01*
X82300Y163624D01*
X81900D01*
X81500Y164024D01*
X81100Y163624D01*
X80700D01*
X81100Y163224D01*
X80700Y162824D01*
X81100D01*
X81500Y162424D01*
X79000Y167424D02*
X79400Y167824D01*
X79800D01*
X79400Y168224D01*
X79800Y168624D01*
X79400D01*
X79000Y169024D01*
X78600Y168624D01*
X78200D01*
X78600Y168224D01*
X78200Y167824D01*
X78600D01*
X79000Y167424D01*
X76500Y162424D02*
X76900Y162824D01*
X77300D01*
X76900Y163224D01*
X77300Y163624D01*
X76900D01*
X76500Y164024D01*
X76100Y163624D01*
X75700D01*
X76100Y163224D01*
X75700Y162824D01*
X76100D01*
X76500Y162424D01*
X74000Y167424D02*
X74400Y167824D01*
X74800D01*
X74400Y168224D01*
X74800Y168624D01*
X74400D01*
X74000Y169024D01*
X73600Y168624D01*
X73200D01*
X73600Y168224D01*
X73200Y167824D01*
X73600D01*
X74000Y167424D01*
X71500Y162424D02*
X71900Y162824D01*
X72300D01*
X71900Y163224D01*
X72300Y163624D01*
X71900D01*
X71500Y164024D01*
X71100Y163624D01*
X70700D01*
X71100Y163224D01*
X70700Y162824D01*
X71100D01*
X71500Y162424D01*
X69000Y167424D02*
X69400Y167824D01*
X69800D01*
X69400Y168224D01*
X69800Y168624D01*
X69400D01*
X69000Y169024D01*
X68600Y168624D01*
X68200D01*
X68600Y168224D01*
X68200Y167824D01*
X68600D01*
X69000Y167424D01*
X66500Y162424D02*
X66900Y162824D01*
X67300D01*
X66900Y163224D01*
X67300Y163624D01*
X66900D01*
X66500Y164024D01*
X66100Y163624D01*
X65700D01*
X66100Y163224D01*
X65700Y162824D01*
X66100D01*
X66500Y162424D01*
X64000Y167424D02*
X64400Y167824D01*
X64800D01*
X64400Y168224D01*
X64800Y168624D01*
X64400D01*
X64000Y169024D01*
X63600Y168624D01*
X63200D01*
X63600Y168224D01*
X63200Y167824D01*
X63600D01*
X64000Y167424D01*
X61500Y162424D02*
X61900Y162824D01*
X62300D01*
X61900Y163224D01*
X62300Y163624D01*
X61900D01*
X61500Y164024D01*
X61100Y163624D01*
X60700D01*
X61100Y163224D01*
X60700Y162824D01*
X61100D01*
X61500Y162424D01*
X59000Y167424D02*
X59400Y167824D01*
X59800D01*
X59400Y168224D01*
X59800Y168624D01*
X59400D01*
X59000Y169024D01*
X58600Y168624D01*
X58200D01*
X58600Y168224D01*
X58200Y167824D01*
X58600D01*
X59000Y167424D01*
X56500Y162424D02*
X56900Y162824D01*
X57300D01*
X56900Y163224D01*
X57300Y163624D01*
X56900D01*
X56500Y164024D01*
X56100Y163624D01*
X55700D01*
X56100Y163224D01*
X55700Y162824D01*
X56100D01*
X56500Y162424D01*
X54000Y167424D02*
X54400Y167824D01*
X54800D01*
X54400Y168224D01*
X54800Y168624D01*
X54400D01*
X54000Y169024D01*
X53600Y168624D01*
X53200D01*
X53600Y168224D01*
X53200Y167824D01*
X53600D01*
X54000Y167424D01*
X51500Y162424D02*
X51900Y162824D01*
X52300D01*
X51900Y163224D01*
X52300Y163624D01*
X51900D01*
X51500Y164024D01*
X51100Y163624D01*
X50700D01*
X51100Y163224D01*
X50700Y162824D01*
X51100D01*
X51500Y162424D01*
X49000Y167424D02*
X49400Y167824D01*
X49800D01*
X49400Y168224D01*
X49800Y168624D01*
X49400D01*
X49000Y169024D01*
X48600Y168624D01*
X48200D01*
X48600Y168224D01*
X48200Y167824D01*
X48600D01*
X49000Y167424D01*
X46500Y162424D02*
X46900Y162824D01*
X47300D01*
X46900Y163224D01*
X47300Y163624D01*
X46900D01*
X46500Y164024D01*
X46100Y163624D01*
X45700D01*
X46100Y163224D01*
X45700Y162824D01*
X46100D01*
X46500Y162424D01*
X44000Y167424D02*
X44400Y167824D01*
X44800D01*
X44400Y168224D01*
X44800Y168624D01*
X44400D01*
X44000Y169024D01*
X43600Y168624D01*
X43200D01*
X43600Y168224D01*
X43200Y167824D01*
X43600D01*
X44000Y167424D01*
X41500Y162424D02*
X41900Y162824D01*
X42300D01*
X41900Y163224D01*
X42300Y163624D01*
X41900D01*
X41500Y164024D01*
X41100Y163624D01*
X40700D01*
X41100Y163224D01*
X40700Y162824D01*
X41100D01*
X41500Y162424D01*
X39000Y167424D02*
X39400Y167824D01*
X39800D01*
X39400Y168224D01*
X39800Y168624D01*
X39400D01*
X39000Y169024D01*
X38600Y168624D01*
X38200D01*
X38600Y168224D01*
X38200Y167824D01*
X38600D01*
X39000Y167424D01*
X36500Y162424D02*
X36900Y162824D01*
X37300D01*
X36900Y163224D01*
X37300Y163624D01*
X36900D01*
X36500Y164024D01*
X36100Y163624D01*
X35700D01*
X36100Y163224D01*
X35700Y162824D01*
X36100D01*
X36500Y162424D01*
X34000Y167424D02*
X34400Y167824D01*
X34800D01*
X34400Y168224D01*
X34800Y168624D01*
X34400D01*
X34000Y169024D01*
X33600Y168624D01*
X33200D01*
X33600Y168224D01*
X33200Y167824D01*
X33600D01*
X34000Y167424D01*
X31500Y162424D02*
X31900Y162824D01*
X32300D01*
X31900Y163224D01*
X32300Y163624D01*
X31900D01*
X31500Y164024D01*
X31100Y163624D01*
X30700D01*
X31100Y163224D01*
X30700Y162824D01*
X31100D01*
X31500Y162424D01*
X29000Y167424D02*
X29400Y167824D01*
X29800D01*
X29400Y168224D01*
X29800Y168624D01*
X29400D01*
X29000Y169024D01*
X28600Y168624D01*
X28200D01*
X28600Y168224D01*
X28200Y167824D01*
X28600D01*
X29000Y167424D01*
X26500Y162424D02*
X26900Y162824D01*
X27300D01*
X26900Y163224D01*
X27300Y163624D01*
X26900D01*
X26500Y164024D01*
X26100Y163624D01*
X25700D01*
X26100Y163224D01*
X25700Y162824D01*
X26100D01*
X26500Y162424D01*
X101500Y62424D02*
X101900Y62824D01*
X102300D01*
X101900Y63224D01*
X102300Y63624D01*
X101900D01*
X101500Y64024D01*
X101100Y63624D01*
X100700D01*
X101100Y63224D01*
X100700Y62824D01*
X101100D01*
X101500Y62424D01*
X104000Y57424D02*
X104400Y57824D01*
X104800D01*
X104400Y58224D01*
X104800Y58624D01*
X104400D01*
X104000Y59024D01*
X103600Y58624D01*
X103200D01*
X103600Y58224D01*
X103200Y57824D01*
X103600D01*
X104000Y57424D01*
X101500Y52424D02*
X101900Y52824D01*
X102300D01*
X101900Y53224D01*
X102300Y53624D01*
X101900D01*
X101500Y54024D01*
X101100Y53624D01*
X100700D01*
X101100Y53224D01*
X100700Y52824D01*
X101100D01*
X101500Y52424D01*
X104000Y47424D02*
X104400Y47824D01*
X104800D01*
X104400Y48224D01*
X104800Y48624D01*
X104400D01*
X104000Y49024D01*
X103600Y48624D01*
X103200D01*
X103600Y48224D01*
X103200Y47824D01*
X103600D01*
X104000Y47424D01*
X101500Y42424D02*
X101900Y42824D01*
X102300D01*
X101900Y43224D01*
X102300Y43624D01*
X101900D01*
X101500Y44024D01*
X101100Y43624D01*
X100700D01*
X101100Y43224D01*
X100700Y42824D01*
X101100D01*
X101500Y42424D01*
X96500Y62424D02*
X96900Y62824D01*
X97300D01*
X96900Y63224D01*
X97300Y63624D01*
X96900D01*
X96500Y64024D01*
X96100Y63624D01*
X95700D01*
X96100Y63224D01*
X95700Y62824D01*
X96100D01*
X96500Y62424D01*
X99000Y57424D02*
X99400Y57824D01*
X99800D01*
X99400Y58224D01*
X99800Y58624D01*
X99400D01*
X99000Y59024D01*
X98600Y58624D01*
X98200D01*
X98600Y58224D01*
X98200Y57824D01*
X98600D01*
X99000Y57424D01*
X96500Y52424D02*
X96900Y52824D01*
X97300D01*
X96900Y53224D01*
X97300Y53624D01*
X96900D01*
X96500Y54024D01*
X96100Y53624D01*
X95700D01*
X96100Y53224D01*
X95700Y52824D01*
X96100D01*
X96500Y52424D01*
X99000Y47424D02*
X99400Y47824D01*
X99800D01*
X99400Y48224D01*
X99800Y48624D01*
X99400D01*
X99000Y49024D01*
X98600Y48624D01*
X98200D01*
X98600Y48224D01*
X98200Y47824D01*
X98600D01*
X99000Y47424D01*
X96500Y42424D02*
X96900Y42824D01*
X97300D01*
X96900Y43224D01*
X97300Y43624D01*
X96900D01*
X96500Y44024D01*
X96100Y43624D01*
X95700D01*
X96100Y43224D01*
X95700Y42824D01*
X96100D01*
X96500Y42424D01*
X103500Y152700D02*
X103900Y153100D01*
X104300D01*
X103900Y153500D01*
X104300Y153900D01*
X103900D01*
X103500Y154300D01*
X103100Y153900D01*
X102700D01*
X103100Y153500D01*
X102700Y153100D01*
X103100D01*
X103500Y152700D01*
X104500Y34200D02*
X104900Y34600D01*
X105300D01*
X104900Y35000D01*
X105300Y35400D01*
X104900D01*
X104500Y35800D01*
X104100Y35400D01*
X103700D01*
X104100Y35000D01*
X103700Y34600D01*
X104100D01*
X104500Y34200D01*
X96500Y26200D02*
X96900Y26600D01*
X97300D01*
X96900Y27000D01*
X97300Y27400D01*
X96900D01*
X96500Y27800D01*
X96100Y27400D01*
X95700D01*
X96100Y27000D01*
X95700Y26600D01*
X96100D01*
X96500Y26200D01*
X59500Y47700D02*
X59900Y48100D01*
X60300D01*
X59900Y48500D01*
X60300Y48900D01*
X59900D01*
X59500Y49300D01*
X59100Y48900D01*
X58700D01*
X59100Y48500D01*
X58700Y48100D01*
X59100D01*
X59500Y47700D01*
X59000Y5500D02*
X59400Y5900D01*
X59800D01*
X59400Y6300D01*
X59800Y6700D01*
X59400D01*
X59000Y7100D01*
X58600Y6700D01*
X58200D01*
X58600Y6300D01*
X58200Y5900D01*
X58600D01*
X59000Y5500D01*
X83500Y11232D02*
X83900Y11632D01*
X84300D01*
X83900Y12032D01*
X84300Y12432D01*
X83900D01*
X83500Y12832D01*
X83100Y12432D01*
X82700D01*
X83100Y12032D01*
X82700Y11632D01*
X83100D01*
X83500Y11232D01*
X15000Y30696D02*
X15400Y31096D01*
X15800D01*
X15400Y31496D01*
X15800Y31896D01*
X15400D01*
X15000Y32296D01*
X14600Y31896D01*
X14200D01*
X14600Y31496D01*
X14200Y31096D01*
X14600D01*
X15000Y30696D01*
Y64189D02*
X15400Y64589D01*
X15800D01*
X15400Y64989D01*
X15800Y65389D01*
X15400D01*
X15000Y65789D01*
X14600Y65389D01*
X14200D01*
X14600Y64989D01*
X14200Y64589D01*
X14600D01*
X15000Y64189D01*
X77000Y32822D02*
X77400Y33222D01*
X77800D01*
X77400Y33622D01*
X77800Y34022D01*
X77400D01*
X77000Y34422D01*
X76600Y34022D01*
X76200D01*
X76600Y33622D01*
X76200Y33222D01*
X76600D01*
X77000Y32822D01*
Y37822D02*
X77400Y38222D01*
X77800D01*
X77400Y38622D01*
X77800Y39022D01*
X77400D01*
X77000Y39422D01*
X76600Y39022D01*
X76200D01*
X76600Y38622D01*
X76200Y38222D01*
X76600D01*
X77000Y37822D01*
Y42822D02*
X77400Y43222D01*
X77800D01*
X77400Y43622D01*
X77800Y44022D01*
X77400D01*
X77000Y44422D01*
X76600Y44022D01*
X76200D01*
X76600Y43622D01*
X76200Y43222D01*
X76600D01*
X77000Y42822D01*
X107000Y89333D02*
X107400Y89733D01*
X107800D01*
X107400Y90133D01*
X107800Y90533D01*
X107400D01*
X107000Y90933D01*
X106600Y90533D01*
X106200D01*
X106600Y90133D01*
X106200Y89733D01*
X106600D01*
X107000Y89333D01*
X140428Y136052D02*
X140828Y136452D01*
X141228D01*
X140828Y136852D01*
X141228Y137252D01*
X140828D01*
X140428Y137652D01*
X140028Y137252D01*
X139628D01*
X140028Y136852D01*
X139628Y136452D01*
X140028D01*
X140428Y136052D01*
X118000Y124310D02*
X118400Y124710D01*
X118800D01*
X118400Y125110D01*
X118800Y125510D01*
X118400D01*
X118000Y125910D01*
X117600Y125510D01*
X117200D01*
X117600Y125110D01*
X117200Y124710D01*
X117600D01*
X118000Y124310D01*
X-13150Y81700D02*
X-12750Y82100D01*
X-12350D01*
X-12750Y82500D01*
X-12350Y82900D01*
X-12750D01*
X-13150Y83300D01*
X-13550Y82900D01*
X-13950D01*
X-13550Y82500D01*
X-13950Y82100D01*
X-13550D01*
X-13150Y81700D01*
X113109Y122381D02*
X113509Y122781D01*
X113909D01*
X113509Y123181D01*
X113909Y123581D01*
X113509D01*
X113109Y123981D01*
X112709Y123581D01*
X112309D01*
X112709Y123181D01*
X112309Y122781D01*
X112709D01*
X113109Y122381D01*
X120689Y104700D02*
X121089Y105100D01*
X121489D01*
X121089Y105500D01*
X121489Y105900D01*
X121089D01*
X120689Y106300D01*
X120289Y105900D01*
X119889D01*
X120289Y105500D01*
X119889Y105100D01*
X120289D01*
X120689Y104700D01*
X118000D02*
X118400Y105100D01*
X118800D01*
X118400Y105500D01*
X118800Y105900D01*
X118400D01*
X118000Y106300D01*
X117600Y105900D01*
X117200D01*
X117600Y105500D01*
X117200Y105100D01*
X117600D01*
X118000Y104700D01*
Y107579D02*
X118400Y107979D01*
X118800D01*
X118400Y108379D01*
X118800Y108779D01*
X118400D01*
X118000Y109179D01*
X117600Y108779D01*
X117200D01*
X117600Y108379D01*
X117200Y107979D01*
X117600D01*
X118000Y107579D01*
X115000Y107363D02*
X115400Y107763D01*
X115800D01*
X115400Y108163D01*
X115800Y108563D01*
X115400D01*
X115000Y108963D01*
X114600Y108563D01*
X114200D01*
X114600Y108163D01*
X114200Y107763D01*
X114600D01*
X115000Y107363D01*
X148000Y110700D02*
X148400Y111100D01*
X148800D01*
X148400Y111500D01*
X148800Y111900D01*
X148400D01*
X148000Y112300D01*
X147600Y111900D01*
X147200D01*
X147600Y111500D01*
X147200Y111100D01*
X147600D01*
X148000Y110700D01*
X174460Y146542D02*
X174860Y146942D01*
X175260D01*
X174860Y147342D01*
X175260Y147742D01*
X174860D01*
X174460Y148142D01*
X174060Y147742D01*
X173660D01*
X174060Y147342D01*
X173660Y146942D01*
X174060D01*
X174460Y146542D01*
X140999Y89674D02*
X141400Y90074D01*
X141799D01*
X141400Y90474D01*
X141799Y90874D01*
X141400D01*
X140999Y91274D01*
X140600Y90874D01*
X140199D01*
X140600Y90474D01*
X140199Y90074D01*
X140600D01*
X140999Y89674D01*
X134000Y98706D02*
X134400Y99106D01*
X134800D01*
X134400Y99506D01*
X134800Y99906D01*
X134400D01*
X134000Y100306D01*
X133600Y99906D01*
X133200D01*
X133600Y99506D01*
X133200Y99106D01*
X133600D01*
X134000Y98706D01*
X151000Y109564D02*
X151400Y109964D01*
X151800D01*
X151400Y110364D01*
X151800Y110764D01*
X151400D01*
X151000Y111164D01*
X150600Y110764D01*
X150200D01*
X150600Y110364D01*
X150200Y109964D01*
X150600D01*
X151000Y109564D01*
X151500Y98158D02*
X151900Y98558D01*
X152300D01*
X151900Y98958D01*
X152300Y99358D01*
X151900D01*
X151500Y99758D01*
X151100Y99358D01*
X150700D01*
X151100Y98958D01*
X150700Y98558D01*
X151100D01*
X151500Y98158D01*
X136500Y101700D02*
X136900Y102100D01*
X137300D01*
X136900Y102500D01*
X137300Y102900D01*
X136900D01*
X136500Y103300D01*
X136100Y102900D01*
X135700D01*
X136100Y102500D01*
X135700Y102100D01*
X136100D01*
X136500Y101700D01*
X139500Y104342D02*
X139900Y104742D01*
X140300D01*
X139900Y105142D01*
X140300Y105542D01*
X139900D01*
X139500Y105942D01*
X139100Y105542D01*
X138700D01*
X139100Y105142D01*
X138700Y104742D01*
X139100D01*
X139500Y104342D01*
X127269Y125200D02*
X127670Y125600D01*
X128069D01*
X127670Y126000D01*
X128069Y126400D01*
X127670D01*
X127269Y126800D01*
X126869Y126400D01*
X126470D01*
X126869Y126000D01*
X126470Y125600D01*
X126869D01*
X127269Y125200D01*
X143000Y117512D02*
X143400Y117912D01*
X143800D01*
X143400Y118312D01*
X143800Y118712D01*
X143400D01*
X143000Y119112D01*
X142600Y118712D01*
X142200D01*
X142600Y118312D01*
X142200Y117912D01*
X142600D01*
X143000Y117512D01*
X134426Y112200D02*
X134826Y112600D01*
X135226D01*
X134826Y113000D01*
X135226Y113400D01*
X134826D01*
X134426Y113800D01*
X134026Y113400D01*
X133626D01*
X134026Y113000D01*
X133626Y112600D01*
X134026D01*
X134426Y112200D01*
X-8500Y75700D02*
X-8100Y76100D01*
X-7700D01*
X-8100Y76500D01*
X-7700Y76900D01*
X-8100D01*
X-8500Y77300D01*
X-8900Y76900D01*
X-9300D01*
X-8900Y76500D01*
X-9300Y76100D01*
X-8900D01*
X-8500Y75700D01*
X30000Y77200D02*
X30400Y77600D01*
X30800D01*
X30400Y78000D01*
X30800Y78400D01*
X30400D01*
X30000Y78800D01*
X29600Y78400D01*
X29200D01*
X29600Y78000D01*
X29200Y77600D01*
X29600D01*
X30000Y77200D01*
X107500Y86700D02*
X107900Y87100D01*
X108300D01*
X107900Y87500D01*
X108300Y87900D01*
X107900D01*
X107500Y88300D01*
X107100Y87900D01*
X106700D01*
X107100Y87500D01*
X106700Y87100D01*
X107100D01*
X107500Y86700D01*
X116500Y52822D02*
X116900Y53222D01*
X117300D01*
X116900Y53622D01*
X117300Y54022D01*
X116900D01*
X116500Y54422D01*
X116100Y54022D01*
X115700D01*
X116100Y53622D01*
X115700Y53222D01*
X116100D01*
X116500Y52822D01*
Y57822D02*
X116900Y58222D01*
X117300D01*
X116900Y58622D01*
X117300Y59022D01*
X116900D01*
X116500Y59422D01*
X116100Y59022D01*
X115700D01*
X116100Y58622D01*
X115700Y58222D01*
X116100D01*
X116500Y57822D01*
Y62822D02*
X116900Y63222D01*
X117300D01*
X116900Y63622D01*
X117300Y64022D01*
X116900D01*
X116500Y64422D01*
X116100Y64022D01*
X115700D01*
X116100Y63622D01*
X115700Y63222D01*
X116100D01*
X116500Y62822D01*
Y67822D02*
X116900Y68222D01*
X117300D01*
X116900Y68622D01*
X117300Y69022D01*
X116900D01*
X116500Y69422D01*
X116100Y69022D01*
X115700D01*
X116100Y68622D01*
X115700Y68222D01*
X116100D01*
X116500Y67822D01*
X104000Y84182D02*
X104400Y84582D01*
X104800D01*
X104400Y84982D01*
X104800Y85382D01*
X104400D01*
X104000Y85782D01*
X103600Y85382D01*
X103200D01*
X103600Y84982D01*
X103200Y84582D01*
X103600D01*
X104000Y84182D01*
X80500Y130887D02*
X80900Y131287D01*
X81300D01*
X80900Y131687D01*
X81300Y132087D01*
X80900D01*
X80500Y132487D01*
X80099Y132087D01*
X79699D01*
X80099Y131687D01*
X79699Y131287D01*
X80099D01*
X80500Y130887D01*
X82000Y106200D02*
X82400Y106600D01*
X82800D01*
X82400Y107000D01*
X82800Y107400D01*
X82400D01*
X82000Y107800D01*
X81600Y107400D01*
X81200D01*
X81600Y107000D01*
X81200Y106600D01*
X81600D01*
X82000Y106200D01*
X26542Y108896D02*
X26943Y109296D01*
X27343D01*
X26943Y109696D01*
X27343Y110096D01*
X26943D01*
X26542Y110496D01*
X26142Y110096D01*
X25743D01*
X26142Y109696D01*
X25743Y109296D01*
X26142D01*
X26542Y108896D01*
X18043Y114582D02*
X18442Y114982D01*
X18843D01*
X18442Y115382D01*
X18843Y115782D01*
X18442D01*
X18043Y116182D01*
X17642Y115782D01*
X17243D01*
X17642Y115382D01*
X17243Y114982D01*
X17642D01*
X18043Y114582D01*
X23747Y145451D02*
X24147Y145851D01*
X24547D01*
X24147Y146251D01*
X24547Y146651D01*
X24147D01*
X23747Y147051D01*
X23347Y146651D01*
X22947D01*
X23347Y146251D01*
X22947Y145851D01*
X23347D01*
X23747Y145451D01*
X25543Y148010D02*
X25943Y148410D01*
X26342D01*
X25943Y148810D01*
X26342Y149210D01*
X25943D01*
X25543Y149610D01*
X25142Y149210D01*
X24743D01*
X25142Y148810D01*
X24743Y148410D01*
X25142D01*
X25543Y148010D01*
X21542Y142892D02*
X21942Y143292D01*
X22343D01*
X21942Y143692D01*
X22343Y144092D01*
X21942D01*
X21542Y144492D01*
X21143Y144092D01*
X20742D01*
X21143Y143692D01*
X20742Y143292D01*
X21143D01*
X21542Y142892D01*
X12043Y115582D02*
X12443Y115982D01*
X12843D01*
X12443Y116382D01*
X12843Y116782D01*
X12443D01*
X12043Y117182D01*
X11643Y116782D01*
X11242D01*
X11643Y116382D01*
X11242Y115982D01*
X11643D01*
X12043Y115582D01*
X45542Y90982D02*
X45943Y91382D01*
X46343D01*
X45943Y91782D01*
X46343Y92182D01*
X45943D01*
X45542Y92582D01*
X45142Y92182D01*
X44743D01*
X45142Y91782D01*
X44743Y91382D01*
X45142D01*
X45542Y90982D01*
X40369Y127082D02*
X40769Y127482D01*
X41169D01*
X40769Y127882D01*
X41169Y128282D01*
X40769D01*
X40369Y128682D01*
X39969Y128282D01*
X39569D01*
X39969Y127882D01*
X39569Y127482D01*
X39969D01*
X40369Y127082D01*
X45542Y148010D02*
X45943Y148410D01*
X46343D01*
X45943Y148810D01*
X46343Y149210D01*
X45943D01*
X45542Y149610D01*
X45142Y149210D01*
X44743D01*
X45142Y148810D01*
X44743Y148410D01*
X45142D01*
X45542Y148010D01*
X30042Y122082D02*
X30443Y122482D01*
X30843D01*
X30443Y122882D01*
X30843Y123282D01*
X30443D01*
X30042Y123682D01*
X29643Y123282D01*
X29243D01*
X29643Y122882D01*
X29243Y122482D01*
X29643D01*
X30042Y122082D01*
X27042Y90982D02*
X27442Y91382D01*
X27843D01*
X27442Y91782D01*
X27843Y92182D01*
X27442D01*
X27042Y92582D01*
X26643Y92182D01*
X26243D01*
X26643Y91782D01*
X26243Y91382D01*
X26643D01*
X27042Y90982D01*
X24043Y106337D02*
X24442Y106737D01*
X24843D01*
X24442Y107137D01*
X24843Y107537D01*
X24442D01*
X24043Y107937D01*
X23642Y107537D01*
X23243D01*
X23642Y107137D01*
X23243Y106737D01*
X23642D01*
X24043Y106337D01*
X25543Y130185D02*
X25943Y130585D01*
X26342D01*
X25943Y130985D01*
X26342Y131385D01*
X25943D01*
X25543Y131785D01*
X25142Y131385D01*
X24743D01*
X25142Y130985D01*
X24743Y130585D01*
X25142D01*
X25543Y130185D01*
X15043Y82282D02*
X15442Y82682D01*
X15843D01*
X15442Y83082D01*
X15843Y83482D01*
X15442D01*
X15043Y83882D01*
X14642Y83482D01*
X14243D01*
X14642Y83082D01*
X14243Y82682D01*
X14642D01*
X15043Y82282D01*
X17042Y84182D02*
X17443Y84582D01*
X17842D01*
X17443Y84982D01*
X17842Y85382D01*
X17443D01*
X17042Y85782D01*
X16643Y85382D01*
X16242D01*
X16643Y84982D01*
X16242Y84582D01*
X16643D01*
X17042Y84182D01*
X19042Y86082D02*
X19443Y86482D01*
X19842D01*
X19443Y86882D01*
X19842Y87282D01*
X19443D01*
X19042Y87682D01*
X18643Y87282D01*
X18243D01*
X18643Y86882D01*
X18243Y86482D01*
X18643D01*
X19042Y86082D01*
X66543Y135582D02*
X66943Y135982D01*
X67343D01*
X66943Y136382D01*
X67343Y136782D01*
X66943D01*
X66543Y137182D01*
X66142Y136782D01*
X65742D01*
X66142Y136382D01*
X65742Y135982D01*
X66142D01*
X66543Y135582D01*
Y103082D02*
X66943Y103482D01*
X67343D01*
X66943Y103882D01*
X67343Y104282D01*
X66943D01*
X66543Y104682D01*
X66142Y104282D01*
X65742D01*
X66142Y103882D01*
X65742Y103482D01*
X66142D01*
X66543Y103082D01*
X73043Y138833D02*
X73443Y139233D01*
X73843D01*
X73443Y139633D01*
X73843Y140033D01*
X73443D01*
X73043Y140433D01*
X72642Y140033D01*
X72242D01*
X72642Y139633D01*
X72242Y139233D01*
X72642D01*
X73043Y138833D01*
Y99833D02*
X73443Y100233D01*
X73843D01*
X73443Y100633D01*
X73843Y101033D01*
X73443D01*
X73043Y101433D01*
X72642Y101033D01*
X72242D01*
X72642Y100633D01*
X72242Y100233D01*
X72642D01*
X73043Y99833D01*
X84043Y100704D02*
X84443Y101103D01*
X84842D01*
X84443Y101504D01*
X84842Y101903D01*
X84443D01*
X84043Y102304D01*
X83643Y101903D01*
X83242D01*
X83643Y101504D01*
X83242Y101103D01*
X83643D01*
X84043Y100704D01*
X84043Y136582D02*
X84443Y136982D01*
X84843D01*
X84443Y137382D01*
X84843Y137782D01*
X84443D01*
X84043Y138182D01*
X83643Y137782D01*
X83243D01*
X83643Y137382D01*
X83243Y136982D01*
X83643D01*
X84043Y136582D01*
X149996Y102427D02*
X150396Y102827D01*
X150796D01*
X150396Y103227D01*
X150796Y103627D01*
X150396D01*
X149996Y104027D01*
X149596Y103627D01*
X149196D01*
X149596Y103227D01*
X149196Y102827D01*
X149596D01*
X149996Y102427D01*
X134749Y143551D02*
X135149Y143950D01*
X135549D01*
X135149Y144351D01*
X135549Y144750D01*
X135149D01*
X134749Y145150D01*
X134349Y144750D01*
X133949D01*
X134349Y144351D01*
X133949Y143950D01*
X134349D01*
X134749Y143551D01*
X91543Y134582D02*
X91943Y134982D01*
X92343D01*
X91943Y135382D01*
X92343Y135782D01*
X91943D01*
X91543Y136182D01*
X91142Y135782D01*
X90742D01*
X91142Y135382D01*
X90742Y134982D01*
X91142D01*
X91543Y134582D01*
X119995Y142892D02*
X120395Y143292D01*
X120795D01*
X120395Y143692D01*
X120795Y144092D01*
X120395D01*
X119995Y144492D01*
X119595Y144092D01*
X119195D01*
X119595Y143692D01*
X119195Y143292D01*
X119595D01*
X119995Y142892D01*
X107043Y96528D02*
X107442Y96928D01*
X107843D01*
X107442Y97328D01*
X107843Y97728D01*
X107442D01*
X107043Y98128D01*
X106642Y97728D01*
X106243D01*
X106642Y97328D01*
X106243Y96928D01*
X106642D01*
X107043Y96528D01*
X49042Y107582D02*
X49442Y107982D01*
X49843D01*
X49442Y108382D01*
X49843Y108782D01*
X49442D01*
X49042Y109182D01*
X48643Y108782D01*
X48243D01*
X48643Y108382D01*
X48243Y107982D01*
X48643D01*
X49042Y107582D01*
X48043Y129082D02*
X48443Y129482D01*
X48842D01*
X48443Y129882D01*
X48842Y130282D01*
X48443D01*
X48043Y130682D01*
X47642Y130282D01*
X47243D01*
X47642Y129882D01*
X47243Y129482D01*
X47642D01*
X48043Y129082D01*
X39070Y112055D02*
X39470Y112454D01*
X39870D01*
X39470Y112855D01*
X39870Y113254D01*
X39470D01*
X39070Y113654D01*
X38670Y113254D01*
X38270D01*
X38670Y112855D01*
X38270Y112454D01*
X38670D01*
X39070Y112055D01*
X21542Y103778D02*
X21942Y104178D01*
X22343D01*
X21942Y104578D01*
X22343Y104978D01*
X21942D01*
X21542Y105378D01*
X21143Y104978D01*
X20742D01*
X21143Y104578D01*
X20742Y104178D01*
X21143D01*
X21542Y103778D01*
X0Y119672D02*
X400Y120072D01*
X800D01*
X400Y120472D01*
X800Y120872D01*
X400D01*
X0Y121272D01*
X-400Y120872D01*
X-800D01*
X-400Y120472D01*
X-800Y120072D01*
X-400D01*
X0Y119672D01*
Y-800D02*
X400Y-400D01*
X800D01*
X400Y0D01*
X800Y400D01*
X400D01*
X0Y800D01*
X-400Y400D01*
X-800D01*
X-400Y0D01*
X-800Y-400D01*
X-400D01*
X0Y-800D01*
Y3137D02*
X400Y3537D01*
X800D01*
X400Y3937D01*
X800Y4337D01*
X400D01*
X0Y4737D01*
X-400Y4337D01*
X-800D01*
X-400Y3937D01*
X-800Y3537D01*
X-400D01*
X0Y3137D01*
Y7074D02*
X400Y7474D01*
X800D01*
X400Y7874D01*
X800Y8274D01*
X400D01*
X0Y8674D01*
X-400Y8274D01*
X-800D01*
X-400Y7874D01*
X-800Y7474D01*
X-400D01*
X0Y7074D01*
Y11011D02*
X400Y11411D01*
X800D01*
X400Y11811D01*
X800Y12211D01*
X400D01*
X0Y12611D01*
X-400Y12211D01*
X-800D01*
X-400Y11811D01*
X-800Y11411D01*
X-400D01*
X0Y11011D01*
Y14948D02*
X400Y15348D01*
X800D01*
X400Y15748D01*
X800Y16148D01*
X400D01*
X0Y16548D01*
X-400Y16148D01*
X-800D01*
X-400Y15748D01*
X-800Y15348D01*
X-400D01*
X0Y14948D01*
Y18885D02*
X400Y19285D01*
X800D01*
X400Y19685D01*
X800Y20085D01*
X400D01*
X0Y20485D01*
X-400Y20085D01*
X-800D01*
X-400Y19685D01*
X-800Y19285D01*
X-400D01*
X0Y18885D01*
Y22822D02*
X400Y23222D01*
X800D01*
X400Y23622D01*
X800Y24022D01*
X400D01*
X0Y24422D01*
X-400Y24022D01*
X-800D01*
X-400Y23622D01*
X-800Y23222D01*
X-400D01*
X0Y22822D01*
Y26759D02*
X400Y27159D01*
X800D01*
X400Y27559D01*
X800Y27959D01*
X400D01*
X0Y28359D01*
X-400Y27959D01*
X-800D01*
X-400Y27559D01*
X-800Y27159D01*
X-400D01*
X0Y26759D01*
Y30696D02*
X400Y31096D01*
X800D01*
X400Y31496D01*
X800Y31896D01*
X400D01*
X0Y32296D01*
X-400Y31896D01*
X-800D01*
X-400Y31496D01*
X-800Y31096D01*
X-400D01*
X0Y30696D01*
Y34633D02*
X400Y35033D01*
X800D01*
X400Y35433D01*
X800Y35833D01*
X400D01*
X0Y36233D01*
X-400Y35833D01*
X-800D01*
X-400Y35433D01*
X-800Y35033D01*
X-400D01*
X0Y34633D01*
Y38570D02*
X400Y38970D01*
X800D01*
X400Y39370D01*
X800Y39770D01*
X400D01*
X0Y40170D01*
X-400Y39770D01*
X-800D01*
X-400Y39370D01*
X-800Y38970D01*
X-400D01*
X0Y38570D01*
Y42507D02*
X400Y42907D01*
X800D01*
X400Y43307D01*
X800Y43707D01*
X400D01*
X0Y44107D01*
X-400Y43707D01*
X-800D01*
X-400Y43307D01*
X-800Y42907D01*
X-400D01*
X0Y42507D01*
Y46444D02*
X400Y46844D01*
X800D01*
X400Y47244D01*
X800Y47644D01*
X400D01*
X0Y48044D01*
X-400Y47644D01*
X-800D01*
X-400Y47244D01*
X-800Y46844D01*
X-400D01*
X0Y46444D01*
Y50381D02*
X400Y50781D01*
X800D01*
X400Y51181D01*
X800Y51581D01*
X400D01*
X0Y51981D01*
X-400Y51581D01*
X-800D01*
X-400Y51181D01*
X-800Y50781D01*
X-400D01*
X0Y50381D01*
Y54318D02*
X400Y54718D01*
X800D01*
X400Y55118D01*
X800Y55518D01*
X400D01*
X0Y55918D01*
X-400Y55518D01*
X-800D01*
X-400Y55118D01*
X-800Y54718D01*
X-400D01*
X0Y54318D01*
Y96050D02*
X400Y96450D01*
X800D01*
X400Y96850D01*
X800Y97250D01*
X400D01*
X0Y97650D01*
X-400Y97250D01*
X-800D01*
X-400Y96850D01*
X-800Y96450D01*
X-400D01*
X0Y96050D01*
Y99987D02*
X400Y100387D01*
X800D01*
X400Y100787D01*
X800Y101187D01*
X400D01*
X0Y101587D01*
X-400Y101187D01*
X-800D01*
X-400Y100787D01*
X-800Y100387D01*
X-400D01*
X0Y99987D01*
Y103924D02*
X400Y104324D01*
X800D01*
X400Y104724D01*
X800Y105124D01*
X400D01*
X0Y105524D01*
X-400Y105124D01*
X-800D01*
X-400Y104724D01*
X-800Y104324D01*
X-400D01*
X0Y103924D01*
Y107861D02*
X400Y108261D01*
X800D01*
X400Y108661D01*
X800Y109061D01*
X400D01*
X0Y109461D01*
X-400Y109061D01*
X-800D01*
X-400Y108661D01*
X-800Y108261D01*
X-400D01*
X0Y107861D01*
Y111798D02*
X400Y112198D01*
X800D01*
X400Y112598D01*
X800Y112998D01*
X400D01*
X0Y113398D01*
X-400Y112998D01*
X-800D01*
X-400Y112598D01*
X-800Y112198D01*
X-400D01*
X0Y111798D01*
Y115735D02*
X400Y116135D01*
X800D01*
X400Y116535D01*
X800Y116935D01*
X400D01*
X0Y117335D01*
X-400Y116935D01*
X-800D01*
X-400Y116535D01*
X-800Y116135D01*
X-400D01*
X0Y115735D01*
Y123609D02*
X400Y124009D01*
X800D01*
X400Y124409D01*
X800Y124809D01*
X400D01*
X0Y125209D01*
X-400Y124809D01*
X-800D01*
X-400Y124409D01*
X-800Y124009D01*
X-400D01*
X0Y123609D01*
Y127546D02*
X400Y127946D01*
X800D01*
X400Y128346D01*
X800Y128746D01*
X400D01*
X0Y129146D01*
X-400Y128746D01*
X-800D01*
X-400Y128346D01*
X-800Y127946D01*
X-400D01*
X0Y127546D01*
Y131483D02*
X400Y131883D01*
X800D01*
X400Y132283D01*
X800Y132683D01*
X400D01*
X0Y133083D01*
X-400Y132683D01*
X-800D01*
X-400Y132283D01*
X-800Y131883D01*
X-400D01*
X0Y131483D01*
Y135420D02*
X400Y135820D01*
X800D01*
X400Y136220D01*
X800Y136620D01*
X400D01*
X0Y137020D01*
X-400Y136620D01*
X-800D01*
X-400Y136220D01*
X-800Y135820D01*
X-400D01*
X0Y135420D01*
Y139357D02*
X400Y139757D01*
X800D01*
X400Y140157D01*
X800Y140557D01*
X400D01*
X0Y140957D01*
X-400Y140557D01*
X-800D01*
X-400Y140157D01*
X-800Y139757D01*
X-400D01*
X0Y139357D01*
Y143294D02*
X400Y143694D01*
X800D01*
X400Y144094D01*
X800Y144494D01*
X400D01*
X0Y144894D01*
X-400Y144494D01*
X-800D01*
X-400Y144094D01*
X-800Y143694D01*
X-400D01*
X0Y143294D01*
Y147231D02*
X400Y147631D01*
X800D01*
X400Y148031D01*
X800Y148431D01*
X400D01*
X0Y148831D01*
X-400Y148431D01*
X-800D01*
X-400Y148031D01*
X-800Y147631D01*
X-400D01*
X0Y147231D01*
Y151168D02*
X400Y151568D01*
X800D01*
X400Y151968D01*
X800Y152368D01*
X400D01*
X0Y152768D01*
X-400Y152368D01*
X-800D01*
X-400Y151968D01*
X-800Y151568D01*
X-400D01*
X0Y151168D01*
Y155105D02*
X400Y155505D01*
X800D01*
X400Y155905D01*
X800Y156305D01*
X400D01*
X0Y156705D01*
X-400Y156305D01*
X-800D01*
X-400Y155905D01*
X-800Y155505D01*
X-400D01*
X0Y155105D01*
Y159042D02*
X400Y159442D01*
X800D01*
X400Y159842D01*
X800Y160242D01*
X400D01*
X0Y160642D01*
X-400Y160242D01*
X-800D01*
X-400Y159842D01*
X-800Y159442D01*
X-400D01*
X0Y159042D01*
Y162979D02*
X400Y163379D01*
X800D01*
X400Y163779D01*
X800Y164179D01*
X400D01*
X0Y164579D01*
X-400Y164179D01*
X-800D01*
X-400Y163779D01*
X-800Y163379D01*
X-400D01*
X0Y162979D01*
Y166916D02*
X400Y167316D01*
X800D01*
X400Y167716D01*
X800Y168116D01*
X400D01*
X0Y168516D01*
X-400Y168116D01*
X-800D01*
X-400Y167716D01*
X-800Y167316D01*
X-400D01*
X0Y166916D01*
Y170853D02*
X400Y171253D01*
X800D01*
X400Y171653D01*
X800Y172053D01*
X400D01*
X0Y172453D01*
X-400Y172053D01*
X-800D01*
X-400Y171653D01*
X-800Y171253D01*
X-400D01*
X0Y170853D01*
D11*
X170800Y27906D02*
G03*
X170800Y27906I-800J0D01*
G01*
X146391D02*
G03*
X146391Y27906I-800J0D01*
G01*
M02*
