G04*
G04 #@! TF.GenerationSoftware,Altium Limited,Altium Designer,18.1.9 (240)*
G04*
G04 Layer_Physical_Order=2*
G04 Layer_Color=16711680*
%FSLAX25Y25*%
%MOIN*%
G70*
G01*
G75*
%ADD12C,0.01000*%
%ADD15C,0.02000*%
%ADD21R,0.01968X0.01575*%
%ADD26O,0.01772X0.06299*%
%ADD28O,0.05512X0.01181*%
%ADD29R,0.05512X0.01181*%
G04:AMPARAMS|DCode=32|XSize=15.75mil|YSize=19.68mil|CornerRadius=0mil|HoleSize=0mil|Usage=FLASHONLY|Rotation=225.000|XOffset=0mil|YOffset=0mil|HoleType=Round|Shape=Rectangle|*
%AMROTATEDRECTD32*
4,1,4,-0.00139,0.01253,0.01253,-0.00139,0.00139,-0.01253,-0.01253,0.00139,-0.00139,0.01253,0.0*
%
%ADD32ROTATEDRECTD32*%

%ADD75R,0.15748X0.07874*%
%ADD76R,0.07874X0.15748*%
%ADD77C,0.09843*%
%ADD78R,0.09843X0.09843*%
%ADD79C,0.01600*%
%ADD80C,0.03937*%
G04:AMPARAMS|DCode=81|XSize=78.74mil|YSize=59.06mil|CornerRadius=0mil|HoleSize=0mil|Usage=FLASHONLY|Rotation=45.000|XOffset=0mil|YOffset=0mil|HoleType=Round|Shape=Rectangle|*
%AMROTATEDRECTD81*
4,1,4,-0.00696,-0.04872,-0.04872,-0.00696,0.00696,0.04872,0.04872,0.00696,-0.00696,-0.04872,0.0*
%
%ADD81ROTATEDRECTD81*%

%ADD82R,0.06890X0.08661*%
%ADD83P,0.04243X4X90.0*%
%ADD84R,0.03543X0.02559*%
%ADD85R,0.03543X0.01968*%
%ADD86C,0.05000*%
G36*
X-571Y171093D02*
X-587Y171105D01*
X-612Y171115D01*
X-644Y171124D01*
X-685Y171132D01*
X-734Y171138D01*
X-857Y171148D01*
X-1104Y171153D01*
Y172153D01*
X-1014Y172154D01*
X-685Y172175D01*
X-644Y172183D01*
X-612Y172192D01*
X-587Y172202D01*
X-571Y172213D01*
Y171093D01*
D02*
G37*
G36*
X-4091Y171153D02*
X-4282Y171149D01*
X-4453Y171133D01*
X-4605Y171108D01*
X-4736Y171073D01*
X-4847Y171028D01*
X-4938Y170974D01*
X-5009Y170908D01*
X-5060Y170833D01*
X-5092Y170748D01*
X-5103Y170653D01*
X-5091Y171732D01*
X-5081Y171812D01*
X-5051Y171884D01*
X-5001Y171947D01*
X-4931Y172002D01*
X-4841Y172048D01*
X-4731Y172086D01*
X-4601Y172116D01*
X-4451Y172137D01*
X-4281Y172149D01*
X-4091Y172153D01*
Y171153D01*
D02*
G37*
G36*
X803Y171626D02*
X813Y171602D01*
X830Y171572D01*
X853Y171538D01*
X883Y171499D01*
X964Y171405D01*
X1135Y171226D01*
X427Y170519D01*
X363Y170583D01*
X115Y170800D01*
X81Y170824D01*
X52Y170840D01*
X27Y170850D01*
X8Y170853D01*
X800Y171645D01*
X803Y171626D01*
D02*
G37*
G36*
X-571Y167156D02*
X-587Y167168D01*
X-612Y167178D01*
X-644Y167187D01*
X-685Y167195D01*
X-734Y167201D01*
X-857Y167211D01*
X-1104Y167216D01*
Y168216D01*
X-1014Y168217D01*
X-685Y168238D01*
X-644Y168246D01*
X-612Y168255D01*
X-587Y168265D01*
X-571Y168276D01*
Y167156D01*
D02*
G37*
G36*
X-4091Y167216D02*
X-4282Y167211D01*
X-4453Y167196D01*
X-4605Y167171D01*
X-4736Y167136D01*
X-4847Y167091D01*
X-4939Y167036D01*
X-5010Y166971D01*
X-5061Y166896D01*
X-5092Y166811D01*
X-5103Y166716D01*
X-5091Y167972D01*
X-5081Y168019D01*
X-5051Y168060D01*
X-5001Y168097D01*
X-4931Y168129D01*
X-4841Y168155D01*
X-4731Y168177D01*
X-4601Y168194D01*
X-4281Y168214D01*
X-4091Y168216D01*
Y167216D01*
D02*
G37*
G36*
X803Y167689D02*
X813Y167665D01*
X830Y167635D01*
X853Y167601D01*
X883Y167562D01*
X964Y167468D01*
X1135Y167289D01*
X427Y166582D01*
X363Y166646D01*
X115Y166863D01*
X81Y166887D01*
X52Y166903D01*
X27Y166913D01*
X8Y166917D01*
X800Y167708D01*
X803Y167689D01*
D02*
G37*
G36*
X-571Y163219D02*
X-587Y163231D01*
X-612Y163241D01*
X-644Y163250D01*
X-685Y163258D01*
X-734Y163264D01*
X-857Y163274D01*
X-1104Y163279D01*
Y164279D01*
X-1014Y164280D01*
X-685Y164301D01*
X-644Y164309D01*
X-612Y164318D01*
X-587Y164328D01*
X-571Y164339D01*
Y163219D01*
D02*
G37*
G36*
X-5092Y164684D02*
X-5061Y164599D01*
X-5010Y164524D01*
X-4939Y164459D01*
X-4848Y164404D01*
X-4737Y164359D01*
X-4606Y164324D01*
X-4454Y164299D01*
X-4282Y164284D01*
X-4091Y164279D01*
Y163279D01*
X-4281Y163275D01*
X-4601Y163243D01*
X-4731Y163215D01*
X-4841Y163179D01*
X-4931Y163135D01*
X-5001Y163083D01*
X-5051Y163023D01*
X-5081Y162954D01*
X-5091Y162878D01*
X-5103Y164779D01*
X-5092Y164684D01*
D02*
G37*
G36*
X803Y163752D02*
X813Y163728D01*
X830Y163698D01*
X853Y163664D01*
X883Y163625D01*
X964Y163531D01*
X1135Y163352D01*
X427Y162645D01*
X363Y162709D01*
X115Y162926D01*
X81Y162950D01*
X52Y162966D01*
X27Y162976D01*
X8Y162979D01*
X800Y163771D01*
X803Y163752D01*
D02*
G37*
G36*
X-571Y159282D02*
X-587Y159294D01*
X-612Y159304D01*
X-644Y159313D01*
X-685Y159321D01*
X-734Y159327D01*
X-857Y159337D01*
X-1104Y159342D01*
Y160342D01*
X-1014Y160343D01*
X-685Y160364D01*
X-644Y160372D01*
X-612Y160381D01*
X-587Y160391D01*
X-571Y160402D01*
Y159282D01*
D02*
G37*
G36*
X-5092Y160747D02*
X-5061Y160662D01*
X-5010Y160587D01*
X-4939Y160522D01*
X-4848Y160467D01*
X-4737Y160422D01*
X-4605Y160387D01*
X-4454Y160362D01*
X-4282Y160347D01*
X-4091Y160342D01*
Y159342D01*
X-4281Y159340D01*
X-4731Y159307D01*
X-4841Y159286D01*
X-4931Y159262D01*
X-5001Y159233D01*
X-5051Y159199D01*
X-5081Y159161D01*
X-5091Y159118D01*
X-5103Y160842D01*
X-5092Y160747D01*
D02*
G37*
G36*
X803Y159815D02*
X813Y159791D01*
X830Y159761D01*
X853Y159727D01*
X883Y159688D01*
X964Y159594D01*
X1135Y159415D01*
X427Y158708D01*
X363Y158772D01*
X115Y158989D01*
X81Y159013D01*
X52Y159029D01*
X27Y159039D01*
X8Y159043D01*
X800Y159834D01*
X803Y159815D01*
D02*
G37*
G36*
X194378Y146535D02*
Y28902D01*
X163098Y-2379D01*
X-14535D01*
X-15495Y-1419D01*
X-15288Y-919D01*
X-10778D01*
Y2086D01*
X-10747Y2139D01*
X-10759Y2185D01*
X-10740Y2228D01*
X-10778Y2318D01*
X-10778Y2840D01*
X-10778D01*
Y2841D01*
X-10778D01*
Y3363D01*
X-10740Y3453D01*
X-10759Y3497D01*
X-10747Y3542D01*
X-10778Y3595D01*
Y5255D01*
X-10747Y5308D01*
X-10759Y5354D01*
X-10740Y5397D01*
X-10778Y5488D01*
Y6512D01*
X-10740Y6602D01*
X-10759Y6646D01*
X-10747Y6692D01*
X-10778Y6745D01*
Y8405D01*
X-10747Y8458D01*
X-10759Y8504D01*
X-10740Y8547D01*
X-10778Y8637D01*
X-10778Y9159D01*
X-10778D01*
Y9160D01*
X-10778D01*
Y9681D01*
X-10740Y9772D01*
X-10759Y9815D01*
X-10747Y9861D01*
X-10778Y9914D01*
Y12164D01*
X-10747Y12218D01*
X-10759Y12263D01*
X-10740Y12307D01*
X-10778Y12397D01*
Y12919D01*
X-11248D01*
X-11301Y12950D01*
X-11310Y12952D01*
X-11312Y12954D01*
X-11352Y13041D01*
X-11398Y13189D01*
X-11438Y13383D01*
X-11477Y13790D01*
X-11473Y13851D01*
X-11440Y14107D01*
X-11398Y14311D01*
X-11352Y14459D01*
X-11312Y14547D01*
X-11310Y14548D01*
X-11301Y14550D01*
X-11248Y14581D01*
X-10778D01*
Y15103D01*
X-10740Y15193D01*
X-10759Y15237D01*
X-10747Y15282D01*
X-10778Y15336D01*
Y17586D01*
X-10747Y17639D01*
X-10759Y17685D01*
X-10740Y17728D01*
X-10778Y17819D01*
X-10778Y18340D01*
X-10778D01*
Y18341D01*
X-10778D01*
Y18862D01*
X-10740Y18953D01*
X-10759Y18996D01*
X-10747Y19042D01*
X-10778Y19095D01*
Y20755D01*
X-10747Y20808D01*
X-10759Y20854D01*
X-10740Y20897D01*
X-10778Y20988D01*
Y22012D01*
X-10740Y22103D01*
X-10759Y22146D01*
X-10747Y22192D01*
X-10778Y22245D01*
Y23905D01*
X-10747Y23958D01*
X-10759Y24003D01*
X-10740Y24047D01*
X-10778Y24137D01*
X-10778Y24659D01*
X-10778D01*
Y24660D01*
X-10778D01*
Y25181D01*
X-10740Y25272D01*
X-10759Y25315D01*
X-10747Y25361D01*
X-10778Y25414D01*
Y27664D01*
X-10747Y27718D01*
X-10759Y27763D01*
X-10740Y27807D01*
X-10778Y27897D01*
Y28419D01*
X-11248D01*
X-11301Y28450D01*
X-11310Y28451D01*
X-11312Y28453D01*
X-11352Y28541D01*
X-11398Y28689D01*
X-11438Y28883D01*
X-11477Y29289D01*
X-11473Y29351D01*
X-11440Y29607D01*
X-11398Y29811D01*
X-11352Y29959D01*
X-11312Y30047D01*
X-11310Y30048D01*
X-11301Y30050D01*
X-11248Y30081D01*
X-10778D01*
Y30603D01*
X-10740Y30693D01*
X-10759Y30737D01*
X-10747Y30782D01*
X-10778Y30836D01*
Y33086D01*
X-10747Y33139D01*
X-10759Y33185D01*
X-10740Y33228D01*
X-10778Y33318D01*
X-10778Y33840D01*
X-10778D01*
Y33841D01*
X-10778D01*
Y34363D01*
X-10740Y34453D01*
X-10759Y34497D01*
X-10747Y34542D01*
X-10778Y34595D01*
Y36255D01*
X-10747Y36308D01*
X-10759Y36354D01*
X-10740Y36397D01*
X-10778Y36488D01*
Y37512D01*
X-10740Y37603D01*
X-10759Y37646D01*
X-10747Y37692D01*
X-10778Y37745D01*
Y39405D01*
X-10747Y39458D01*
X-10759Y39503D01*
X-10740Y39547D01*
X-10778Y39637D01*
X-10778Y40159D01*
X-10778D01*
Y40160D01*
X-10778D01*
Y40681D01*
X-10740Y40772D01*
X-10759Y40815D01*
X-10747Y40861D01*
X-10778Y40914D01*
Y43164D01*
X-10747Y43218D01*
X-10759Y43263D01*
X-10740Y43307D01*
X-10778Y43397D01*
Y43919D01*
X-11248D01*
X-11301Y43950D01*
X-11310Y43951D01*
X-11312Y43953D01*
X-11352Y44041D01*
X-11398Y44189D01*
X-11438Y44383D01*
X-11477Y44789D01*
X-11473Y44851D01*
X-11440Y45107D01*
X-11398Y45311D01*
X-11352Y45459D01*
X-11312Y45547D01*
X-11310Y45548D01*
X-11301Y45550D01*
X-11248Y45581D01*
X-10778D01*
Y46103D01*
X-10740Y46193D01*
X-10759Y46237D01*
X-10747Y46282D01*
X-10778Y46336D01*
Y48586D01*
X-10747Y48639D01*
X-10759Y48685D01*
X-10740Y48728D01*
X-10778Y48818D01*
X-10778Y49340D01*
X-10778D01*
Y49341D01*
X-10778D01*
Y49863D01*
X-10740Y49953D01*
X-10759Y49997D01*
X-10747Y50042D01*
X-10778Y50095D01*
Y51755D01*
X-10747Y51808D01*
X-10759Y51854D01*
X-10740Y51897D01*
X-10778Y51988D01*
Y53012D01*
X-10740Y53102D01*
X-10759Y53146D01*
X-10747Y53192D01*
X-10778Y53245D01*
Y54905D01*
X-10747Y54958D01*
X-10759Y55003D01*
X-10740Y55047D01*
X-10778Y55137D01*
X-10778Y55659D01*
X-10778D01*
Y55660D01*
X-10778D01*
Y56181D01*
X-10740Y56272D01*
X-10759Y56315D01*
X-10747Y56361D01*
X-10778Y56414D01*
Y58652D01*
X-10750Y58697D01*
X-10763Y58753D01*
X-10740Y58807D01*
X-10778Y58897D01*
Y59419D01*
X-11196D01*
X-11226Y59500D01*
X-11266Y59658D01*
X-11300Y59864D01*
X-11345Y60457D01*
X-11351Y60817D01*
X-11369Y60859D01*
Y71324D01*
X-7346Y75346D01*
X-6993Y75876D01*
X-6869Y76500D01*
X-6993Y77124D01*
X-7346Y77653D01*
X-7876Y78007D01*
X-8500Y78131D01*
X-9124Y78007D01*
X-9653Y77653D01*
X-10554Y76753D01*
X-10599Y76771D01*
X-13000D01*
X-14985D01*
Y75484D01*
X-14902D01*
X-14584Y75116D01*
Y72341D01*
X-14584D01*
X-14568Y72321D01*
X-14631Y72000D01*
Y60863D01*
X-14649Y60822D01*
X-14658Y60461D01*
X-14682Y60162D01*
X-14720Y59913D01*
X-14767Y59718D01*
X-14819Y59579D01*
X-14864Y59498D01*
X-14892Y59465D01*
X-14896Y59462D01*
X-14984Y59452D01*
X-15044Y59419D01*
X-15521D01*
X-15879Y59764D01*
Y96181D01*
X-14874D01*
X-14861Y96117D01*
X-14806Y95536D01*
X-14799Y95180D01*
X-14781Y95139D01*
Y83298D01*
X-14845Y83202D01*
X-14885Y83000D01*
X-11414D01*
X-11454Y83202D01*
X-11518Y83298D01*
Y95139D01*
X-11500Y95180D01*
X-11493Y95545D01*
X-11473Y95851D01*
X-11440Y96107D01*
X-11425Y96181D01*
X-10378D01*
Y97961D01*
X-13150D01*
Y98953D01*
X-14150D01*
X-14157Y99333D01*
X-14195Y99728D01*
X-14909D01*
X-14765Y99748D01*
X-14636Y99808D01*
X-14522Y99908D01*
X-14423Y100048D01*
X-14340Y100228D01*
X-14305Y100340D01*
X-14340Y100453D01*
X-14423Y100633D01*
X-14522Y100773D01*
X-14636Y100873D01*
X-14765Y100933D01*
X-14909Y100953D01*
X-14187D01*
X-14180Y101008D01*
X-14157Y101348D01*
X-14150Y101728D01*
X-13150D01*
Y102102D01*
X-14150D01*
X-14157Y102482D01*
X-14197Y102897D01*
X-14909D01*
X-14765Y102917D01*
X-14636Y102977D01*
X-14522Y103077D01*
X-14423Y103217D01*
X-14340Y103397D01*
X-14308Y103500D01*
X-14340Y103603D01*
X-14423Y103782D01*
X-14522Y103923D01*
X-14636Y104023D01*
X-14765Y104083D01*
X-14909Y104103D01*
X-14189D01*
X-14180Y104177D01*
X-14157Y104517D01*
X-14150Y104897D01*
X-13150D01*
Y105272D01*
X-14150D01*
X-14157Y105652D01*
X-14195Y106047D01*
X-14909D01*
X-14765Y106067D01*
X-14636Y106127D01*
X-14522Y106227D01*
X-14423Y106367D01*
X-14340Y106547D01*
X-14305Y106659D01*
X-14340Y106772D01*
X-14423Y106952D01*
X-14522Y107092D01*
X-14636Y107192D01*
X-14765Y107252D01*
X-14909Y107272D01*
X-14187D01*
X-14180Y107327D01*
X-14157Y107667D01*
X-14150Y108047D01*
X-13150D01*
Y109039D01*
X-10378D01*
Y110819D01*
X-11205D01*
X-11374Y111262D01*
X-11103Y111681D01*
X-10378D01*
Y113461D01*
X-13150D01*
Y114453D01*
X-14150D01*
X-14157Y114833D01*
X-14195Y115228D01*
X-14909D01*
X-14765Y115248D01*
X-14636Y115308D01*
X-14522Y115408D01*
X-14423Y115548D01*
X-14340Y115728D01*
X-14305Y115840D01*
X-14340Y115953D01*
X-14423Y116133D01*
X-14522Y116273D01*
X-14636Y116373D01*
X-14765Y116433D01*
X-14909Y116453D01*
X-14187D01*
X-14180Y116508D01*
X-14157Y116848D01*
X-14150Y117228D01*
X-13150D01*
Y117603D01*
X-14150D01*
X-14157Y117982D01*
X-14197Y118397D01*
X-14909D01*
X-14765Y118417D01*
X-14636Y118477D01*
X-14522Y118577D01*
X-14423Y118717D01*
X-14340Y118897D01*
X-14308Y119000D01*
X-14340Y119103D01*
X-14423Y119282D01*
X-14522Y119423D01*
X-14636Y119523D01*
X-14765Y119582D01*
X-14909Y119603D01*
X-14189D01*
X-14180Y119677D01*
X-14157Y120017D01*
X-14150Y120397D01*
X-13150D01*
Y120772D01*
X-14150D01*
X-14157Y121152D01*
X-14195Y121547D01*
X-14909D01*
X-14765Y121567D01*
X-14636Y121627D01*
X-14522Y121727D01*
X-14423Y121867D01*
X-14340Y122047D01*
X-14305Y122159D01*
X-14340Y122272D01*
X-14423Y122452D01*
X-14522Y122592D01*
X-14636Y122692D01*
X-14765Y122752D01*
X-14909Y122772D01*
X-14187D01*
X-14180Y122827D01*
X-14157Y123167D01*
X-14150Y123547D01*
X-13150D01*
Y124539D01*
X-10378D01*
Y126319D01*
X-11065D01*
X-11235Y126654D01*
X-10944Y127106D01*
X-10528D01*
Y128886D01*
X-13299D01*
Y129878D01*
X-14150D01*
X-14159Y130258D01*
X-14186Y130598D01*
X-14194Y130653D01*
X-15059D01*
X-14886Y130673D01*
X-14731Y130733D01*
X-14595Y130833D01*
X-14477Y130973D01*
X-14377Y131153D01*
X-14335Y131266D01*
X-14377Y131378D01*
X-14477Y131558D01*
X-14595Y131698D01*
X-14731Y131798D01*
X-14886Y131858D01*
X-15059Y131878D01*
X-14194D01*
X-14186Y131933D01*
X-14159Y132273D01*
X-14150Y132653D01*
X-13299D01*
Y133028D01*
X-14150D01*
X-14159Y133408D01*
X-14186Y133748D01*
X-14197Y133823D01*
X-15059D01*
X-14886Y133843D01*
X-14731Y133903D01*
X-14595Y134003D01*
X-14477Y134143D01*
X-14377Y134323D01*
X-14339Y134425D01*
X-14377Y134528D01*
X-14477Y134708D01*
X-14595Y134848D01*
X-14731Y134948D01*
X-14886Y135008D01*
X-15059Y135028D01*
X-14197D01*
X-14186Y135103D01*
X-14159Y135443D01*
X-14150Y135823D01*
X-13299D01*
Y136197D01*
X-14150D01*
X-14159Y136577D01*
X-14186Y136917D01*
X-14194Y136972D01*
X-15059D01*
X-14886Y136992D01*
X-14731Y137052D01*
X-14595Y137152D01*
X-14477Y137292D01*
X-14377Y137472D01*
X-14335Y137585D01*
X-14377Y137697D01*
X-14477Y137877D01*
X-14595Y138017D01*
X-14731Y138117D01*
X-14886Y138177D01*
X-15059Y138197D01*
X-14194D01*
X-14186Y138252D01*
X-14159Y138592D01*
X-14150Y138972D01*
X-13299D01*
Y139965D01*
X-10528D01*
Y141744D01*
X-11406D01*
X-11476Y142225D01*
X-11423Y142681D01*
X-10378D01*
Y144461D01*
X-13150D01*
Y145453D01*
X-14150D01*
X-14157Y145833D01*
X-14195Y146228D01*
X-14909D01*
X-14765Y146248D01*
X-14636Y146308D01*
X-14522Y146408D01*
X-14423Y146548D01*
X-14340Y146728D01*
X-14305Y146841D01*
X-14340Y146953D01*
X-14423Y147133D01*
X-14522Y147273D01*
X-14636Y147373D01*
X-14765Y147433D01*
X-14909Y147453D01*
X-14187D01*
X-14180Y147508D01*
X-14157Y147848D01*
X-14150Y148228D01*
X-13150D01*
Y148602D01*
X-14150D01*
X-14157Y148983D01*
X-14197Y149397D01*
X-14909D01*
X-14765Y149417D01*
X-14636Y149477D01*
X-14522Y149577D01*
X-14423Y149717D01*
X-14340Y149897D01*
X-14308Y150000D01*
X-14340Y150102D01*
X-14423Y150283D01*
X-14522Y150423D01*
X-14636Y150523D01*
X-14765Y150583D01*
X-14909Y150602D01*
X-14189D01*
X-14180Y150677D01*
X-14157Y151017D01*
X-14150Y151397D01*
X-13150D01*
Y151772D01*
X-14150D01*
X-14157Y152152D01*
X-14195Y152547D01*
X-14909D01*
X-14765Y152567D01*
X-14636Y152627D01*
X-14522Y152727D01*
X-14423Y152867D01*
X-14340Y153047D01*
X-14305Y153159D01*
X-14340Y153272D01*
X-14423Y153452D01*
X-14522Y153592D01*
X-14636Y153692D01*
X-14765Y153752D01*
X-14909Y153772D01*
X-14187D01*
X-14180Y153827D01*
X-14157Y154167D01*
X-14150Y154547D01*
X-13150D01*
Y155539D01*
X-10378D01*
Y157319D01*
X-11111D01*
X-11258Y157657D01*
X-10961Y158106D01*
X-10378D01*
Y159886D01*
X-13150D01*
Y160878D01*
X-14150D01*
X-14157Y161258D01*
X-14195Y161653D01*
X-14909D01*
X-14765Y161673D01*
X-14636Y161733D01*
X-14522Y161833D01*
X-14423Y161973D01*
X-14340Y162153D01*
X-14305Y162266D01*
X-14340Y162378D01*
X-14423Y162558D01*
X-14522Y162698D01*
X-14636Y162798D01*
X-14765Y162858D01*
X-14909Y162878D01*
X-14187D01*
X-14180Y162933D01*
X-14157Y163273D01*
X-14150Y163653D01*
X-13150D01*
Y164028D01*
X-14150D01*
X-14157Y164408D01*
X-14197Y164823D01*
X-14909D01*
X-14765Y164843D01*
X-14636Y164903D01*
X-14522Y165003D01*
X-14423Y165143D01*
X-14340Y165323D01*
X-14308Y165425D01*
X-14340Y165528D01*
X-14423Y165708D01*
X-14522Y165848D01*
X-14636Y165948D01*
X-14765Y166008D01*
X-14909Y166028D01*
X-14189D01*
X-14180Y166103D01*
X-14157Y166443D01*
X-14150Y166823D01*
X-13150D01*
Y167197D01*
X-14150D01*
X-14157Y167577D01*
X-14195Y167972D01*
X-14909D01*
X-14765Y167992D01*
X-14636Y168052D01*
X-14522Y168152D01*
X-14423Y168292D01*
X-14340Y168472D01*
X-14305Y168585D01*
X-14340Y168697D01*
X-14423Y168877D01*
X-14522Y169017D01*
X-14636Y169117D01*
X-14765Y169177D01*
X-14909Y169197D01*
X-14187D01*
X-14180Y169252D01*
X-14157Y169592D01*
X-14150Y169972D01*
X-13150D01*
Y170624D01*
X-14710Y171720D01*
X-14534Y171630D01*
X-14334Y171592D01*
X-14110Y171605D01*
X-13863Y171671D01*
X-13592Y171787D01*
X-13297Y171956D01*
X-12979Y172176D01*
X-12637Y172448D01*
X-12271Y172771D01*
X-11882Y173146D01*
X-9976Y172224D01*
X-10395Y171791D01*
X-11049Y171025D01*
X-11091Y170965D01*
X-10246D01*
X-9914Y171354D01*
X-9722Y171553D01*
X-9222Y171350D01*
Y168585D01*
X-9222Y168585D01*
Y168584D01*
X-9222D01*
X-9222Y168085D01*
Y165416D01*
Y162765D01*
X-9222Y162266D01*
X-9222D01*
Y162265D01*
X-9222D01*
Y158506D01*
X-5267D01*
X-5239Y158486D01*
X-5160Y158499D01*
X-5086Y158469D01*
X-4998Y158506D01*
X-4479D01*
Y158674D01*
X-4253Y158691D01*
X-4083Y158693D01*
X-4018Y158721D01*
X-1182D01*
X-1119Y158693D01*
X-890Y158688D01*
X-802Y158681D01*
X-791Y158680D01*
X-785Y158678D01*
X-783Y158678D01*
X-776Y158677D01*
X-546Y158524D01*
X-278Y158470D01*
X-80Y158296D01*
X-29Y158246D01*
X38Y158219D01*
X516Y157740D01*
X270Y157279D01*
X0Y157333D01*
X-546Y157224D01*
X-774Y157072D01*
X-1037Y157055D01*
X-1109Y157055D01*
X-1175Y157027D01*
X-4023D01*
X-4091Y157055D01*
X-4096Y157053D01*
X-4102Y157055D01*
X-4612Y157046D01*
X-4627Y157039D01*
X-4643Y157045D01*
X-4883Y157029D01*
X-4887Y157027D01*
X-5984D01*
X-5984Y157027D01*
X-6414Y156942D01*
X-6447Y156919D01*
X-9222D01*
Y153160D01*
X-9222Y153160D01*
Y153159D01*
X-9222D01*
X-9222Y152660D01*
Y149991D01*
Y147340D01*
X-9222Y146841D01*
X-9222D01*
Y146840D01*
X-9222D01*
Y143081D01*
X-6448D01*
X-6413Y143058D01*
X-5984Y142973D01*
X-5984Y142973D01*
X-4405D01*
X-4154Y142948D01*
X-4122Y142958D01*
X-4091Y142945D01*
X-4023Y142973D01*
X-1182D01*
X-1119Y142945D01*
X-890Y142940D01*
X-802Y142933D01*
X-791Y142932D01*
X-785Y142930D01*
X-783Y142930D01*
X-776Y142929D01*
X-546Y142776D01*
X0Y142667D01*
X546Y142776D01*
X1009Y143085D01*
X1319Y143548D01*
X1427Y144094D01*
X1319Y144641D01*
X1009Y145104D01*
X546Y145413D01*
X0Y145522D01*
X-546Y145413D01*
X-774Y145261D01*
X-1037Y145244D01*
X-1109Y145244D01*
X-1175Y145216D01*
X-4004D01*
X-4016Y145218D01*
X-4074Y145244D01*
X-4187Y145247D01*
X-4479Y145295D01*
Y146840D01*
X-4089Y146882D01*
X-4088Y146882D01*
X-4029Y146907D01*
X-4008Y146910D01*
X-1182D01*
X-1119Y146882D01*
X-890Y146877D01*
X-802Y146870D01*
X-791Y146869D01*
X-785Y146867D01*
X-783Y146867D01*
X-776Y146866D01*
X-546Y146713D01*
X0Y146604D01*
X546Y146713D01*
X1009Y147022D01*
X1319Y147485D01*
X1427Y148031D01*
X1319Y148578D01*
X1009Y149041D01*
X546Y149350D01*
X0Y149459D01*
X-546Y149350D01*
X-774Y149198D01*
X-1037Y149181D01*
X-1109Y149181D01*
X-1175Y149153D01*
X-4012D01*
X-4074Y149181D01*
X-4246Y149185D01*
X-4372Y149196D01*
X-4468Y149212D01*
X-4479Y149215D01*
Y150785D01*
X-4468Y150788D01*
X-4372Y150804D01*
X-4246Y150815D01*
X-4074Y150819D01*
X-4012Y150847D01*
X-1182D01*
X-1119Y150819D01*
X-890Y150814D01*
X-802Y150807D01*
X-791Y150806D01*
X-785Y150804D01*
X-783Y150804D01*
X-776Y150803D01*
X-546Y150650D01*
X0Y150541D01*
X546Y150650D01*
X1009Y150959D01*
X1319Y151422D01*
X1427Y151968D01*
X1374Y152239D01*
X1835Y152485D01*
X2878Y151441D01*
Y148500D01*
X2878Y148500D01*
X2964Y148071D01*
X3207Y147707D01*
X13045Y137869D01*
X13409Y137626D01*
X13624Y137583D01*
X13643Y137533D01*
X13677Y137062D01*
X13428Y136896D01*
X13428Y136896D01*
X13058Y136526D01*
X12755Y136258D01*
X12747Y136241D01*
X12730Y136234D01*
X12513Y136021D01*
X12513Y136021D01*
X12513Y136021D01*
X12485Y135952D01*
X10149Y133617D01*
X9906Y133253D01*
X9821Y132824D01*
X9821Y132824D01*
Y126982D01*
X9821Y126982D01*
X9906Y126553D01*
X10149Y126189D01*
X19212Y117126D01*
X18894Y116738D01*
X18667Y116889D01*
X18043Y117014D01*
X17418Y116889D01*
X16889Y116536D01*
X15594Y115241D01*
X15240Y114711D01*
X15116Y114087D01*
Y112343D01*
X15098Y112303D01*
X15089Y111940D01*
X15063Y111643D01*
X15022Y111397D01*
X14970Y111205D01*
X14915Y111069D01*
X14866Y110988D01*
X14832Y110951D01*
X14813Y110939D01*
X14792Y110932D01*
X14679Y110919D01*
X14661Y110910D01*
X14582D01*
X14117Y110817D01*
X13724Y110554D01*
X13499Y110219D01*
X13326Y110139D01*
X12934Y110077D01*
X9922Y113089D01*
Y119546D01*
X9922Y119546D01*
X9836Y119976D01*
X9593Y120339D01*
X1702Y128230D01*
X1700Y128290D01*
X2167Y128495D01*
X2208Y128489D01*
X10921Y119776D01*
Y117564D01*
X10893Y117501D01*
X10888Y117272D01*
X10881Y117185D01*
X10880Y117173D01*
X10878Y117167D01*
X10878Y117165D01*
X10877Y117158D01*
X10724Y116928D01*
X10701Y116814D01*
X10699Y116811D01*
X10614Y116382D01*
X10699Y115953D01*
X10701Y115950D01*
X10724Y115836D01*
X11033Y115373D01*
X11496Y115063D01*
X12043Y114955D01*
X12589Y115063D01*
X13052Y115373D01*
X13361Y115836D01*
X13470Y116382D01*
X13361Y116928D01*
X13209Y117156D01*
X13192Y117419D01*
X13192Y117491D01*
X13164Y117557D01*
Y120241D01*
X13164Y120241D01*
X13079Y120670D01*
X12836Y121034D01*
X12835Y121034D01*
X1629Y132241D01*
X1604Y132305D01*
X1445Y132471D01*
X1388Y132537D01*
X1381Y132546D01*
X1378Y132552D01*
X1376Y132553D01*
X1373Y132559D01*
X1319Y132830D01*
X1009Y133293D01*
X546Y133602D01*
X0Y133711D01*
X-546Y133602D01*
X-774Y133450D01*
X-1037Y133433D01*
X-1109Y133433D01*
X-1175Y133405D01*
X-4161D01*
X-4223Y133433D01*
X-4395Y133437D01*
X-4522Y133448D01*
X-4618Y133464D01*
X-4628Y133467D01*
Y135037D01*
X-4618Y135040D01*
X-4522Y135056D01*
X-4395Y135067D01*
X-4223Y135071D01*
X-4161Y135099D01*
X-1182D01*
X-1119Y135071D01*
X-890Y135066D01*
X-802Y135059D01*
X-791Y135058D01*
X-785Y135056D01*
X-783Y135056D01*
X-776Y135055D01*
X-546Y134902D01*
X0Y134793D01*
X546Y134902D01*
X1009Y135211D01*
X1319Y135674D01*
X1427Y136220D01*
X1319Y136767D01*
X1009Y137230D01*
X546Y137539D01*
X0Y137648D01*
X-546Y137539D01*
X-774Y137387D01*
X-1037Y137370D01*
X-1109Y137370D01*
X-1175Y137342D01*
X-4167D01*
X-4220Y137365D01*
X-4628Y137585D01*
Y138974D01*
X-4618Y138977D01*
X-4522Y138993D01*
X-4395Y139004D01*
X-4223Y139008D01*
X-4161Y139036D01*
X-1182D01*
X-1119Y139008D01*
X-890Y139003D01*
X-802Y138996D01*
X-791Y138995D01*
X-785Y138993D01*
X-783Y138993D01*
X-776Y138992D01*
X-546Y138839D01*
X0Y138730D01*
X546Y138839D01*
X1009Y139148D01*
X1319Y139611D01*
X1427Y140157D01*
X1319Y140704D01*
X1009Y141167D01*
X546Y141476D01*
X0Y141585D01*
X-546Y141476D01*
X-774Y141324D01*
X-1037Y141307D01*
X-1109Y141307D01*
X-1175Y141279D01*
X-4165D01*
X-4228Y141307D01*
X-4628Y141314D01*
Y141344D01*
X-5085D01*
X-5129Y141372D01*
X-5184Y141360D01*
X-5235Y141382D01*
X-5328Y141344D01*
X-9372D01*
Y137585D01*
X-9372Y137585D01*
Y137584D01*
X-9372D01*
X-9372Y137085D01*
Y134416D01*
Y131765D01*
X-9372Y131266D01*
X-9372D01*
Y131265D01*
X-9372D01*
Y127506D01*
X-6683D01*
X-6390Y127310D01*
X-5960Y127225D01*
X-5960Y127225D01*
X-4430D01*
X-4411Y127220D01*
X-4371Y127225D01*
X-4308D01*
X-4240Y127197D01*
X-4173Y127225D01*
X-1182D01*
X-1119Y127197D01*
X-890Y127192D01*
X-802Y127185D01*
X-791Y127184D01*
X-785Y127182D01*
X-783Y127182D01*
X-776Y127181D01*
X-546Y127028D01*
X-278Y126974D01*
X-80Y126800D01*
X-29Y126750D01*
X38Y126723D01*
X516Y126244D01*
X270Y125783D01*
X0Y125837D01*
X-546Y125728D01*
X-774Y125576D01*
X-1037Y125559D01*
X-1109Y125559D01*
X-1175Y125531D01*
X-4014D01*
X-4077Y125559D01*
X-4251Y125562D01*
X-4385Y125572D01*
X-4479Y125584D01*
Y125919D01*
X-4998D01*
X-5087Y125956D01*
X-5130Y125938D01*
X-5176Y125951D01*
X-5231Y125919D01*
X-9222D01*
Y122659D01*
X-9222Y122160D01*
X-9222D01*
Y122159D01*
X-9222D01*
Y118991D01*
Y116340D01*
X-9222Y115841D01*
X-9222D01*
Y115840D01*
X-9222D01*
Y112081D01*
X-6557D01*
X-6281Y111805D01*
X-6281Y111805D01*
X-5917Y111562D01*
X-5488Y111477D01*
X-5488Y111477D01*
X-1182D01*
X-1119Y111449D01*
X-890Y111444D01*
X-802Y111437D01*
X-791Y111436D01*
X-785Y111434D01*
X-783Y111434D01*
X-776Y111433D01*
X-546Y111280D01*
X0Y111171D01*
X546Y111280D01*
X1009Y111589D01*
X1319Y112052D01*
X1427Y112598D01*
X1374Y112868D01*
X1835Y113115D01*
X2878Y112071D01*
Y109500D01*
X2878Y109500D01*
X2964Y109071D01*
X3207Y108707D01*
X12459Y99455D01*
X12489Y99385D01*
X13465Y98447D01*
X13483Y98440D01*
X13491Y98418D01*
X13489Y98353D01*
X13373Y97865D01*
X13117Y97694D01*
X13117Y97694D01*
X10498Y95075D01*
X10255Y94711D01*
X10170Y94282D01*
X10170Y94282D01*
Y86833D01*
X10170Y86833D01*
X10255Y86404D01*
X10498Y86040D01*
X13414Y83125D01*
X13439Y83060D01*
X13597Y82895D01*
X13654Y82828D01*
X13661Y82819D01*
X13664Y82814D01*
X13666Y82812D01*
X13670Y82807D01*
X13724Y82536D01*
X14033Y82073D01*
X14496Y81763D01*
X15043Y81655D01*
X15589Y81763D01*
X16052Y82073D01*
X16361Y82536D01*
X16470Y83082D01*
X16454Y83162D01*
X16879Y83587D01*
X17042Y83555D01*
X17589Y83663D01*
X18052Y83973D01*
X18361Y84436D01*
X18470Y84982D01*
X18454Y85062D01*
X18879Y85487D01*
X19042Y85455D01*
X19589Y85563D01*
X20052Y85873D01*
X20361Y86336D01*
X20470Y86882D01*
X20361Y87428D01*
X20052Y87892D01*
X19589Y88201D01*
X19320Y88254D01*
X19123Y88428D01*
X19071Y88479D01*
X19005Y88506D01*
X17869Y89642D01*
Y90114D01*
X17897Y90176D01*
X17901Y90348D01*
X17912Y90476D01*
X17927Y90569D01*
X18913D01*
X19097Y90605D01*
X19138Y90588D01*
X19152Y90594D01*
X19166Y90589D01*
X20233Y90634D01*
X20292Y90661D01*
X23943D01*
X23943Y90661D01*
X24372Y90746D01*
X24736Y90989D01*
X25056Y91309D01*
X25436Y91194D01*
X25566Y91112D01*
X25889Y90629D01*
X28411Y88107D01*
Y78000D01*
X28535Y77376D01*
X28889Y76846D01*
X29418Y76493D01*
X30042Y76369D01*
X30667Y76493D01*
X31196Y76846D01*
X31550Y77376D01*
X31674Y78000D01*
Y88782D01*
X31550Y89407D01*
X31196Y89936D01*
X29350Y91782D01*
X31296Y93729D01*
X31650Y94258D01*
X31774Y94882D01*
Y122782D01*
X31674Y123285D01*
Y126485D01*
X31550Y127109D01*
X31196Y127638D01*
X27850Y130985D01*
X31296Y134431D01*
X31650Y134960D01*
X31774Y135585D01*
Y147821D01*
X31650Y148446D01*
X31296Y148975D01*
X28393Y151878D01*
X28600Y152378D01*
X35303D01*
X37183Y150498D01*
X37013Y150089D01*
X37013D01*
Y147707D01*
X37209D01*
X37361Y147207D01*
X37346Y147197D01*
X37082Y146803D01*
X36990Y146339D01*
X37082Y145874D01*
X37346Y145481D01*
X37560Y145337D01*
X37561Y145336D01*
Y144783D01*
X37560Y144782D01*
X37346Y144638D01*
X37082Y144244D01*
X36990Y143780D01*
X37082Y143315D01*
X37346Y142922D01*
X37560Y142778D01*
X37561Y142777D01*
Y142224D01*
X37560Y142223D01*
X37346Y142079D01*
X37082Y141685D01*
X36990Y141221D01*
X37082Y140756D01*
X37346Y140363D01*
X37560Y140219D01*
X37561Y140218D01*
Y139665D01*
X37560Y139664D01*
X37346Y139520D01*
X37082Y139126D01*
X36990Y138662D01*
X37082Y138197D01*
X37256Y137938D01*
X37346Y137803D01*
X37166Y137322D01*
X37057Y137250D01*
X36706Y136723D01*
X36682Y136603D01*
X40369D01*
Y135603D01*
X36682D01*
X36706Y135482D01*
X36902Y135188D01*
X37016Y134823D01*
X36902Y134458D01*
X36706Y134164D01*
X36682Y134044D01*
X40369D01*
Y133044D01*
X36682D01*
X36706Y132923D01*
X37057Y132397D01*
Y132131D01*
X36706Y131605D01*
X36682Y131485D01*
X40369D01*
Y130485D01*
X36682D01*
X36706Y130364D01*
X37057Y129838D01*
X37583Y129486D01*
X38204Y129363D01*
X38593D01*
X38860Y128863D01*
X38674Y128584D01*
X38633Y128382D01*
X42105D01*
X42065Y128584D01*
X41879Y128863D01*
X42146Y129363D01*
X42535D01*
X43155Y129486D01*
X43681Y129838D01*
X43927Y130205D01*
X44417Y130320D01*
X44531Y130307D01*
X45750Y129089D01*
X46113Y128846D01*
X46543Y128761D01*
X46543Y128761D01*
X46861D01*
X46924Y128733D01*
X47153Y128728D01*
X47240Y128721D01*
X47252Y128719D01*
X47258Y128718D01*
X47260Y128718D01*
X47267Y128717D01*
X47496Y128563D01*
X48043Y128455D01*
X48589Y128563D01*
X49052Y128873D01*
X49361Y129336D01*
X49470Y129882D01*
X49361Y130428D01*
X49052Y130892D01*
X48589Y131201D01*
X48043Y131309D01*
X47496Y131201D01*
X47269Y131049D01*
X47006Y131032D01*
X46979Y131032D01*
X46164Y131847D01*
Y141721D01*
X46164Y141721D01*
X46079Y142150D01*
X45836Y142514D01*
X44646Y143704D01*
X44616Y143772D01*
X43973Y144403D01*
X43962Y144407D01*
X43957Y144418D01*
X43514Y144822D01*
X43494Y144830D01*
X43483Y144849D01*
X43422Y144898D01*
X43361Y145310D01*
X43389Y145458D01*
X43406Y145499D01*
X43656Y145874D01*
X43749Y146339D01*
X43656Y146803D01*
X43393Y147197D01*
X43655Y147623D01*
X43725Y147707D01*
X44183Y147605D01*
X44245Y147513D01*
X44840Y147115D01*
X45042Y147075D01*
Y148810D01*
X45542D01*
Y149310D01*
X47278D01*
X47238Y149513D01*
X47096Y149725D01*
X47050Y149958D01*
X46696Y150488D01*
X40430Y156754D01*
X39901Y157107D01*
X39276Y157231D01*
X21811D01*
X4164Y174878D01*
X4371Y175378D01*
X165535D01*
X194378Y146535D01*
D02*
G37*
G36*
X-11534Y159098D02*
X-11663Y159038D01*
X-11777Y158938D01*
X-11876Y158798D01*
X-11960Y158618D01*
X-12028Y158398D01*
X-12081Y158138D01*
X-12119Y157838D01*
X-12125Y157749D01*
X-12081Y157287D01*
X-12028Y157027D01*
X-11960Y156807D01*
X-11876Y156627D01*
X-11777Y156487D01*
X-11663Y156387D01*
X-11534Y156327D01*
X-11390Y156307D01*
X-14909D01*
X-14765Y156327D01*
X-14636Y156387D01*
X-14522Y156487D01*
X-14423Y156627D01*
X-14340Y156807D01*
X-14271Y157027D01*
X-14218Y157287D01*
X-14180Y157587D01*
X-14174Y157676D01*
X-14218Y158138D01*
X-14271Y158398D01*
X-14340Y158618D01*
X-14423Y158798D01*
X-14522Y158938D01*
X-14636Y159038D01*
X-14765Y159098D01*
X-14909Y159118D01*
X-11390D01*
X-11534Y159098D01*
D02*
G37*
G36*
X-571Y155345D02*
X-587Y155357D01*
X-612Y155367D01*
X-644Y155376D01*
X-685Y155384D01*
X-734Y155390D01*
X-857Y155400D01*
X-1104Y155405D01*
Y156405D01*
X-1014Y156406D01*
X-685Y156427D01*
X-644Y156435D01*
X-612Y156444D01*
X-587Y156454D01*
X-571Y156465D01*
Y155345D01*
D02*
G37*
G36*
X-4091Y155405D02*
X-4282Y155400D01*
X-4454Y155385D01*
X-4605Y155360D01*
X-4736Y155325D01*
X-4848Y155280D01*
X-4939Y155225D01*
X-5010Y155160D01*
X-5061Y155085D01*
X-5092Y155000D01*
X-5103Y154905D01*
X-5091Y156307D01*
X-5081Y156326D01*
X-5051Y156342D01*
X-5001Y156357D01*
X-4931Y156370D01*
X-4841Y156381D01*
X-4601Y156397D01*
X-4091Y156405D01*
Y155405D01*
D02*
G37*
G36*
X803Y155878D02*
X813Y155854D01*
X830Y155824D01*
X853Y155790D01*
X883Y155751D01*
X964Y155657D01*
X1135Y155478D01*
X427Y154771D01*
X363Y154835D01*
X115Y155052D01*
X81Y155076D01*
X52Y155092D01*
X27Y155102D01*
X8Y155105D01*
X800Y155897D01*
X803Y155878D01*
D02*
G37*
G36*
X-571Y151408D02*
X-587Y151420D01*
X-612Y151430D01*
X-644Y151439D01*
X-685Y151447D01*
X-734Y151453D01*
X-857Y151463D01*
X-1104Y151468D01*
Y152468D01*
X-1014Y152469D01*
X-685Y152490D01*
X-644Y152498D01*
X-612Y152507D01*
X-587Y152517D01*
X-571Y152528D01*
Y151408D01*
D02*
G37*
G36*
X-5081Y152532D02*
X-5051Y152519D01*
X-5001Y152507D01*
X-4931Y152497D01*
X-4731Y152481D01*
X-4091Y152468D01*
Y151468D01*
X-4282Y151463D01*
X-4454Y151448D01*
X-4605Y151423D01*
X-4737Y151388D01*
X-4848Y151343D01*
X-4939Y151288D01*
X-5010Y151223D01*
X-5061Y151148D01*
X-5092Y151063D01*
X-5103Y150968D01*
X-5091Y152547D01*
X-5081Y152532D01*
D02*
G37*
G36*
X39934Y150047D02*
X40077Y149925D01*
X40220Y149817D01*
X40362Y149723D01*
X40504Y149644D01*
X40645Y149580D01*
X40786Y149529D01*
X40926Y149493D01*
X41066Y149472D01*
X41205Y149465D01*
X38377D01*
X38506Y149472D01*
X38607Y149493D01*
X38679Y149529D01*
X38722Y149580D01*
X38736Y149644D01*
X38722Y149723D01*
X38679Y149817D01*
X38607Y149925D01*
X38506Y150047D01*
X38377Y150184D01*
X39791D01*
X39934Y150047D01*
D02*
G37*
G36*
X19767Y150503D02*
X19631Y150357D01*
X19518Y150212D01*
X19429Y150069D01*
X19363Y149928D01*
X19321Y149790D01*
X19301Y149653D01*
X19305Y149517D01*
X19333Y149384D01*
X19384Y149253D01*
X19458Y149124D01*
X14493Y149458D01*
X14765Y149464D01*
X15055Y149516D01*
X15363Y149615D01*
X15691Y149760D01*
X16037Y149952D01*
X16401Y150190D01*
X16784Y150475D01*
X17606Y151185D01*
X18044Y151609D01*
X19767Y150503D01*
D02*
G37*
G36*
X26346Y148783D02*
X26356Y148759D01*
X26372Y148729D01*
X26396Y148695D01*
X26426Y148655D01*
X26506Y148562D01*
X26677Y148383D01*
X25970Y147676D01*
X25905Y147740D01*
X25658Y147957D01*
X25624Y147981D01*
X25594Y147997D01*
X25570Y148007D01*
X25550Y148010D01*
X26342Y148802D01*
X26346Y148783D01*
D02*
G37*
G36*
X-571Y147471D02*
X-587Y147483D01*
X-612Y147493D01*
X-644Y147502D01*
X-685Y147510D01*
X-734Y147516D01*
X-857Y147526D01*
X-1104Y147531D01*
Y148531D01*
X-1014Y148532D01*
X-685Y148553D01*
X-644Y148561D01*
X-612Y148570D01*
X-587Y148580D01*
X-571Y148591D01*
Y147471D01*
D02*
G37*
G36*
X-5092Y148936D02*
X-5061Y148851D01*
X-5010Y148776D01*
X-4939Y148711D01*
X-4848Y148656D01*
X-4737Y148611D01*
X-4605Y148576D01*
X-4454Y148551D01*
X-4282Y148536D01*
X-4091Y148531D01*
Y147531D01*
X-4281Y147531D01*
X-5051Y147481D01*
X-5081Y147468D01*
X-5091Y147453D01*
X-5103Y149031D01*
X-5092Y148936D01*
D02*
G37*
G36*
X13761Y147344D02*
X14112Y147049D01*
X14265Y146945D01*
X14404Y146869D01*
X14528Y146821D01*
X14637Y146802D01*
X14731Y146812D01*
X14811Y146850D01*
X14877Y146917D01*
X14165Y145922D01*
X14299Y145712D01*
X14375Y145567D01*
X14395Y145486D01*
X14358Y145471D01*
X14264Y145521D01*
X14113Y145635D01*
X13906Y145815D01*
X12941Y146743D01*
X13564Y147534D01*
X13761Y147344D01*
D02*
G37*
G36*
X24551Y146224D02*
X24560Y146200D01*
X24577Y146170D01*
X24600Y146136D01*
X24631Y146097D01*
X24711Y146002D01*
X24882Y145824D01*
X24175Y145117D01*
X24110Y145180D01*
X23863Y145398D01*
X23828Y145422D01*
X23799Y145438D01*
X23775Y145448D01*
X23755Y145451D01*
X24547Y146243D01*
X24551Y146224D01*
D02*
G37*
G36*
X-5092Y144999D02*
X-5061Y144914D01*
X-5010Y144839D01*
X-4939Y144774D01*
X-4848Y144719D01*
X-4736Y144674D01*
X-4605Y144639D01*
X-4454Y144614D01*
X-4282Y144599D01*
X-4091Y144594D01*
Y143594D01*
X-5091Y143693D01*
X-5103Y145094D01*
X-5092Y144999D01*
D02*
G37*
G36*
X-571Y143534D02*
X-587Y143546D01*
X-612Y143556D01*
X-644Y143565D01*
X-685Y143573D01*
X-734Y143579D01*
X-857Y143589D01*
X-1104Y143594D01*
Y144594D01*
X-1014Y144595D01*
X-685Y144616D01*
X-644Y144624D01*
X-612Y144633D01*
X-587Y144643D01*
X-571Y144654D01*
Y143534D01*
D02*
G37*
G36*
X13766Y144787D02*
X14117Y144492D01*
X14270Y144387D01*
X14409Y144311D01*
X14533Y144263D01*
X14643Y144244D01*
X14738Y144253D01*
X14818Y144291D01*
X14883Y144358D01*
X14165Y143363D01*
X14296Y143156D01*
X14371Y143014D01*
X14390Y142936D01*
X14352Y142922D01*
X14258Y142973D01*
X14107Y143088D01*
X13901Y143267D01*
X12943Y144189D01*
X13568Y144978D01*
X13766Y144787D01*
D02*
G37*
G36*
X22346Y143665D02*
X22356Y143641D01*
X22372Y143611D01*
X22396Y143577D01*
X22426Y143537D01*
X22506Y143444D01*
X22677Y143265D01*
X21970Y142558D01*
X21905Y142622D01*
X21658Y142839D01*
X21624Y142863D01*
X21594Y142879D01*
X21570Y142889D01*
X21551Y142892D01*
X22343Y143684D01*
X22346Y143665D01*
D02*
G37*
G36*
X42834Y144520D02*
X42930Y144460D01*
X43077Y144343D01*
X43519Y143939D01*
X44162Y143309D01*
X43504Y142552D01*
X43304Y142745D01*
X42948Y143046D01*
X42791Y143154D01*
X42649Y143233D01*
X42522Y143284D01*
X42410Y143306D01*
X42311Y143300D01*
X42228Y143265D01*
X42159Y143202D01*
X42952Y144197D01*
X42847Y144363D01*
X42793Y144472D01*
X42789Y144524D01*
X42834Y144520D01*
D02*
G37*
G36*
X-11534Y143673D02*
X-11663Y143613D01*
X-11777Y143513D01*
X-11876Y143373D01*
X-11960Y143193D01*
X-12028Y142973D01*
X-12081Y142713D01*
X-12119Y142413D01*
X-12133Y142211D01*
X-12095Y141712D01*
X-12052Y141452D01*
X-11997Y141232D01*
X-11930Y141052D01*
X-11851Y140912D01*
X-11759Y140812D01*
X-11655Y140752D01*
X-11540Y140732D01*
X-15059D01*
X-14886Y140752D01*
X-14731Y140812D01*
X-14595Y140912D01*
X-14477Y141052D01*
X-14377Y141232D01*
X-14295Y141452D01*
X-14231Y141712D01*
X-14186Y142012D01*
X-14170Y142209D01*
X-14218Y142713D01*
X-14271Y142973D01*
X-14340Y143193D01*
X-14423Y143373D01*
X-14522Y143513D01*
X-14636Y143613D01*
X-14765Y143673D01*
X-14909Y143693D01*
X-11390D01*
X-11534Y143673D01*
D02*
G37*
G36*
X-571Y139597D02*
X-587Y139609D01*
X-612Y139619D01*
X-644Y139628D01*
X-685Y139636D01*
X-734Y139642D01*
X-857Y139652D01*
X-1104Y139657D01*
Y140657D01*
X-1014Y140658D01*
X-685Y140679D01*
X-644Y140687D01*
X-612Y140696D01*
X-587Y140706D01*
X-571Y140717D01*
Y139597D01*
D02*
G37*
G36*
X-5230Y140718D02*
X-5200Y140705D01*
X-5150Y140694D01*
X-5080Y140684D01*
X-4880Y140669D01*
X-4240Y140657D01*
Y139657D01*
X-4432Y139652D01*
X-4603Y139637D01*
X-4755Y139612D01*
X-4886Y139577D01*
X-4997Y139532D01*
X-5089Y139477D01*
X-5160Y139412D01*
X-5211Y139337D01*
X-5241Y139252D01*
X-5252Y139157D01*
X-5240Y140732D01*
X-5230Y140718D01*
D02*
G37*
G36*
X-571Y135660D02*
X-587Y135672D01*
X-612Y135682D01*
X-644Y135691D01*
X-685Y135699D01*
X-734Y135705D01*
X-857Y135715D01*
X-1104Y135720D01*
Y136720D01*
X-1014Y136721D01*
X-685Y136742D01*
X-644Y136750D01*
X-612Y136759D01*
X-587Y136769D01*
X-571Y136780D01*
Y135660D01*
D02*
G37*
G36*
X19161Y136639D02*
X19203Y136632D01*
X19263Y136625D01*
X19555Y136610D01*
X20206Y136603D01*
Y135603D01*
X19138Y135558D01*
Y136648D01*
X19161Y136639D01*
D02*
G37*
G36*
X14040Y136388D02*
X14037Y136328D01*
X15045Y135525D01*
X14962Y135574D01*
X14867Y135596D01*
X14759Y135593D01*
X14640Y135564D01*
X14509Y135509D01*
X14365Y135429D01*
X14210Y135322D01*
X14042Y135189D01*
X13863Y135031D01*
X13671Y134846D01*
X12969Y135558D01*
X13185Y135771D01*
X13807Y136321D01*
X13902Y136383D01*
X13972Y136415D01*
X14018Y136416D01*
X14040Y136388D01*
D02*
G37*
G36*
X-5230Y136924D02*
X-5200Y136882D01*
X-5150Y136844D01*
X-5080Y136811D01*
X-4990Y136783D01*
X-4880Y136761D01*
X-4750Y136743D01*
X-4430Y136723D01*
X-4240Y136720D01*
Y135720D01*
X-4432Y135715D01*
X-4604Y135700D01*
X-4755Y135675D01*
X-4886Y135640D01*
X-4998Y135595D01*
X-5089Y135540D01*
X-5160Y135475D01*
X-5211Y135400D01*
X-5242Y135315D01*
X-5252Y135220D01*
X-5240Y136972D01*
X-5230Y136924D01*
D02*
G37*
G36*
X41274Y135515D02*
X41189Y135484D01*
X41114Y135434D01*
X41049Y135363D01*
X40994Y135272D01*
X40949Y135161D01*
X40914Y135029D01*
X40889Y134877D01*
X40885Y134823D01*
X40889Y134769D01*
X40914Y134617D01*
X40949Y134486D01*
X40994Y134375D01*
X41049Y134283D01*
X41114Y134213D01*
X41189Y134162D01*
X41274Y134132D01*
X41369Y134122D01*
X39369D01*
X39464Y134132D01*
X39549Y134162D01*
X39624Y134213D01*
X39689Y134283D01*
X39744Y134375D01*
X39789Y134486D01*
X39824Y134617D01*
X39849Y134769D01*
X39854Y134823D01*
X39849Y134877D01*
X39824Y135029D01*
X39789Y135161D01*
X39744Y135272D01*
X39689Y135363D01*
X39624Y135434D01*
X39549Y135484D01*
X39464Y135515D01*
X39369Y135525D01*
X41369D01*
X41274Y135515D01*
D02*
G37*
G36*
X19161Y134080D02*
X19203Y134072D01*
X19263Y134066D01*
X19555Y134051D01*
X20206Y134044D01*
Y133044D01*
X19138Y132999D01*
Y134089D01*
X19161Y134080D01*
D02*
G37*
G36*
X14019Y133865D02*
X14040Y133833D01*
X14037Y133769D01*
X15028Y132966D01*
X14946Y133015D01*
X14851Y133038D01*
X14744Y133036D01*
X14625Y133007D01*
X14494Y132952D01*
X14351Y132872D01*
X14195Y132765D01*
X14028Y132633D01*
X13849Y132474D01*
X13657Y132290D01*
X12967Y133013D01*
X13184Y133228D01*
X13808Y133776D01*
X13903Y133837D01*
X13973Y133866D01*
X14019Y133865D01*
D02*
G37*
G36*
X-5241Y133188D02*
X-5210Y133103D01*
X-5159Y133028D01*
X-5088Y132963D01*
X-4997Y132908D01*
X-4886Y132863D01*
X-4755Y132828D01*
X-4603Y132803D01*
X-4432Y132788D01*
X-4240Y132783D01*
Y131783D01*
X-5240Y131878D01*
X-5252Y133283D01*
X-5241Y133188D01*
D02*
G37*
G36*
X-571Y131723D02*
X-587Y131735D01*
X-612Y131745D01*
X-644Y131754D01*
X-685Y131762D01*
X-734Y131768D01*
X-857Y131778D01*
X-1104Y131783D01*
Y132783D01*
X-1014Y132784D01*
X-685Y132805D01*
X-644Y132813D01*
X-612Y132822D01*
X-587Y132832D01*
X-571Y132843D01*
Y131723D01*
D02*
G37*
G36*
X41274Y132956D02*
X41189Y132925D01*
X41114Y132875D01*
X41049Y132804D01*
X40994Y132713D01*
X40949Y132601D01*
X40914Y132470D01*
X40889Y132318D01*
X40885Y132264D01*
X40889Y132210D01*
X40914Y132058D01*
X40949Y131927D01*
X40994Y131816D01*
X41049Y131724D01*
X41114Y131654D01*
X41189Y131603D01*
X41274Y131573D01*
X41369Y131562D01*
X39369D01*
X39464Y131573D01*
X39549Y131603D01*
X39624Y131654D01*
X39689Y131724D01*
X39744Y131816D01*
X39789Y131927D01*
X39824Y132058D01*
X39849Y132210D01*
X39854Y132264D01*
X39849Y132318D01*
X39824Y132470D01*
X39789Y132601D01*
X39744Y132713D01*
X39689Y132804D01*
X39624Y132875D01*
X39549Y132925D01*
X39464Y132956D01*
X39369Y132966D01*
X41369D01*
X41274Y132956D01*
D02*
G37*
G36*
X803Y132256D02*
X813Y132232D01*
X830Y132202D01*
X853Y132168D01*
X883Y132129D01*
X964Y132035D01*
X1135Y131856D01*
X427Y131149D01*
X363Y131212D01*
X115Y131430D01*
X81Y131454D01*
X52Y131470D01*
X27Y131480D01*
X8Y131483D01*
X800Y132275D01*
X803Y132256D01*
D02*
G37*
G36*
X19161Y131521D02*
X19203Y131513D01*
X19263Y131507D01*
X19555Y131492D01*
X20206Y131485D01*
Y130485D01*
X19138Y130440D01*
Y131530D01*
X19161Y131521D01*
D02*
G37*
G36*
X41274Y130397D02*
X41189Y130366D01*
X41114Y130316D01*
X41049Y130245D01*
X40994Y130154D01*
X40949Y130042D01*
X40914Y129911D01*
X40889Y129759D01*
X40874Y129587D01*
X40869Y129395D01*
X39869D01*
X39864Y129587D01*
X39849Y129759D01*
X39824Y129911D01*
X39789Y130042D01*
X39744Y130154D01*
X39689Y130245D01*
X39624Y130316D01*
X39549Y130366D01*
X39464Y130397D01*
X39369Y130407D01*
X41369D01*
X41274Y130397D01*
D02*
G37*
G36*
X17652D02*
X17567Y130366D01*
X17492Y130316D01*
X17427Y130245D01*
X17372Y130154D01*
X17327Y130042D01*
X17292Y129911D01*
X17267Y129759D01*
X17252Y129587D01*
X17247Y129395D01*
X16247D01*
X16242Y129587D01*
X16227Y129759D01*
X16202Y129911D01*
X16167Y130042D01*
X16122Y130154D01*
X16067Y130245D01*
X16002Y130316D01*
X15927Y130366D01*
X15842Y130397D01*
X15747Y130407D01*
X17747D01*
X17652Y130397D01*
D02*
G37*
G36*
X47471Y129322D02*
X47455Y129333D01*
X47431Y129344D01*
X47398Y129353D01*
X47358Y129360D01*
X47308Y129367D01*
X47185Y129377D01*
X46938Y129382D01*
Y130382D01*
X47029Y130383D01*
X47358Y130404D01*
X47398Y130412D01*
X47431Y130420D01*
X47455Y130431D01*
X47471Y130442D01*
Y129322D01*
D02*
G37*
G36*
X40870Y128896D02*
X40891Y128567D01*
X40899Y128526D01*
X40908Y128494D01*
X40918Y128469D01*
X40929Y128453D01*
X39809D01*
X39821Y128469D01*
X39831Y128494D01*
X39840Y128526D01*
X39848Y128567D01*
X39854Y128616D01*
X39864Y128739D01*
X39869Y128987D01*
X40869D01*
X40870Y128896D01*
D02*
G37*
G36*
X-5241Y129251D02*
X-5210Y129166D01*
X-5159Y129091D01*
X-5088Y129026D01*
X-4997Y128971D01*
X-4886Y128926D01*
X-4754Y128891D01*
X-4603Y128866D01*
X-4432Y128851D01*
X-4240Y128846D01*
Y127846D01*
X-5240Y128118D01*
X-5252Y129346D01*
X-5241Y129251D01*
D02*
G37*
G36*
X-571Y127786D02*
X-587Y127798D01*
X-612Y127808D01*
X-644Y127817D01*
X-685Y127825D01*
X-734Y127831D01*
X-857Y127841D01*
X-1104Y127846D01*
Y128846D01*
X-1014Y128847D01*
X-685Y128868D01*
X-644Y128876D01*
X-612Y128885D01*
X-587Y128895D01*
X-571Y128906D01*
Y127786D01*
D02*
G37*
G36*
X803Y128319D02*
X813Y128295D01*
X830Y128265D01*
X853Y128231D01*
X883Y128191D01*
X964Y128098D01*
X1135Y127919D01*
X427Y127212D01*
X363Y127276D01*
X115Y127493D01*
X81Y127517D01*
X52Y127533D01*
X27Y127543D01*
X8Y127546D01*
X800Y128338D01*
X803Y128319D01*
D02*
G37*
G36*
X-11655Y128098D02*
X-11759Y128038D01*
X-11851Y127938D01*
X-11930Y127798D01*
X-11997Y127618D01*
X-12052Y127398D01*
X-12095Y127138D01*
X-12125Y126838D01*
X-12127Y126773D01*
X-12081Y126287D01*
X-12028Y126027D01*
X-11960Y125807D01*
X-11876Y125627D01*
X-11777Y125487D01*
X-11663Y125387D01*
X-11534Y125327D01*
X-11390Y125307D01*
X-14909D01*
X-14765Y125327D01*
X-14636Y125387D01*
X-14522Y125487D01*
X-14423Y125627D01*
X-14340Y125807D01*
X-14271Y126027D01*
X-14218Y126287D01*
X-14180Y126587D01*
X-14174Y126683D01*
X-14186Y126838D01*
X-14231Y127138D01*
X-14295Y127398D01*
X-14377Y127618D01*
X-14477Y127798D01*
X-14595Y127938D01*
X-14731Y128038D01*
X-14886Y128098D01*
X-15059Y128118D01*
X-11540D01*
X-11655Y128098D01*
D02*
G37*
G36*
X-571Y123849D02*
X-587Y123861D01*
X-612Y123871D01*
X-644Y123880D01*
X-685Y123888D01*
X-734Y123894D01*
X-857Y123904D01*
X-1104Y123909D01*
Y124909D01*
X-1014Y124910D01*
X-685Y124931D01*
X-644Y124939D01*
X-612Y124948D01*
X-587Y124958D01*
X-571Y124969D01*
Y123849D01*
D02*
G37*
G36*
X-5081Y125231D02*
X-5051Y125164D01*
X-5001Y125104D01*
X-4931Y125052D01*
X-4841Y125009D01*
X-4731Y124973D01*
X-4601Y124945D01*
X-4451Y124925D01*
X-4281Y124913D01*
X-4091Y124909D01*
Y123909D01*
X-4282Y123904D01*
X-4454Y123889D01*
X-4606Y123864D01*
X-4737Y123829D01*
X-4848Y123784D01*
X-4939Y123729D01*
X-5010Y123664D01*
X-5061Y123589D01*
X-5092Y123504D01*
X-5103Y123409D01*
X-5091Y125307D01*
X-5081Y125231D01*
D02*
G37*
G36*
X803Y124382D02*
X813Y124358D01*
X830Y124328D01*
X853Y124294D01*
X883Y124255D01*
X964Y124161D01*
X1135Y123982D01*
X427Y123275D01*
X363Y123338D01*
X115Y123556D01*
X81Y123580D01*
X52Y123596D01*
X27Y123606D01*
X8Y123609D01*
X800Y124401D01*
X803Y124382D01*
D02*
G37*
G36*
X-571Y119912D02*
X-587Y119924D01*
X-612Y119934D01*
X-644Y119943D01*
X-685Y119951D01*
X-734Y119957D01*
X-857Y119967D01*
X-1104Y119972D01*
Y120972D01*
X-1014Y120973D01*
X-685Y120994D01*
X-644Y121002D01*
X-612Y121011D01*
X-587Y121021D01*
X-571Y121032D01*
Y119912D01*
D02*
G37*
G36*
X-5092Y121377D02*
X-5061Y121292D01*
X-5010Y121217D01*
X-4939Y121152D01*
X-4848Y121097D01*
X-4737Y121052D01*
X-4606Y121017D01*
X-4454Y120992D01*
X-4282Y120977D01*
X-4091Y120972D01*
Y119972D01*
X-4281Y119969D01*
X-4601Y119939D01*
X-4731Y119913D01*
X-4841Y119880D01*
X-4931Y119839D01*
X-5001Y119791D01*
X-5051Y119736D01*
X-5081Y119673D01*
X-5091Y119603D01*
X-5103Y121472D01*
X-5092Y121377D01*
D02*
G37*
G36*
X803Y120445D02*
X813Y120421D01*
X830Y120391D01*
X853Y120357D01*
X883Y120317D01*
X964Y120223D01*
X1135Y120045D01*
X427Y119338D01*
X363Y119402D01*
X115Y119619D01*
X81Y119643D01*
X52Y119659D01*
X27Y119669D01*
X8Y119672D01*
X800Y120464D01*
X803Y120445D01*
D02*
G37*
G36*
X12543Y117396D02*
X12564Y117067D01*
X12572Y117026D01*
X12581Y116994D01*
X12591Y116969D01*
X12603Y116953D01*
X11483D01*
X11494Y116969D01*
X11504Y116994D01*
X11513Y117026D01*
X11521Y117067D01*
X11528Y117116D01*
X11537Y117239D01*
X11542Y117487D01*
X12542D01*
X12543Y117396D01*
D02*
G37*
G36*
X-5092Y117440D02*
X-5060Y117355D01*
X-5009Y117280D01*
X-4938Y117215D01*
X-4847Y117160D01*
X-4736Y117115D01*
X-4605Y117080D01*
X-4453Y117055D01*
X-4282Y117040D01*
X-4091Y117035D01*
Y116035D01*
X-5091Y116453D01*
X-5103Y117535D01*
X-5092Y117440D01*
D02*
G37*
G36*
X-571Y115975D02*
X-587Y115987D01*
X-612Y115997D01*
X-644Y116006D01*
X-685Y116014D01*
X-734Y116020D01*
X-857Y116030D01*
X-1104Y116035D01*
Y117035D01*
X-1014Y117036D01*
X-685Y117057D01*
X-644Y117065D01*
X-612Y117074D01*
X-587Y117084D01*
X-571Y117095D01*
Y115975D01*
D02*
G37*
G36*
X803Y116508D02*
X813Y116484D01*
X830Y116454D01*
X853Y116420D01*
X883Y116381D01*
X964Y116287D01*
X1135Y116108D01*
X427Y115401D01*
X363Y115464D01*
X115Y115682D01*
X81Y115706D01*
X52Y115722D01*
X27Y115732D01*
X8Y115735D01*
X800Y116527D01*
X803Y116508D01*
D02*
G37*
G36*
X-571Y112038D02*
X-587Y112050D01*
X-612Y112060D01*
X-644Y112069D01*
X-685Y112077D01*
X-734Y112083D01*
X-857Y112093D01*
X-1104Y112098D01*
Y113098D01*
X-1014Y113099D01*
X-685Y113120D01*
X-644Y113128D01*
X-612Y113137D01*
X-587Y113147D01*
X-571Y113158D01*
Y112038D01*
D02*
G37*
G36*
X17757Y111903D02*
X17787Y111561D01*
X17837Y111260D01*
X17907Y110998D01*
X17997Y110777D01*
X18107Y110596D01*
X18237Y110455D01*
X18387Y110354D01*
X18557Y110294D01*
X18747Y110274D01*
X14747D01*
X14937Y110294D01*
X15107Y110354D01*
X15257Y110455D01*
X15387Y110596D01*
X15497Y110777D01*
X15587Y110998D01*
X15657Y111260D01*
X15707Y111561D01*
X15737Y111903D01*
X15747Y112286D01*
X17747D01*
X17757Y111903D01*
D02*
G37*
G36*
X27043Y110710D02*
X27064Y110381D01*
X27072Y110340D01*
X27081Y110307D01*
X27091Y110283D01*
X27103Y110267D01*
X25982D01*
X25994Y110283D01*
X26004Y110307D01*
X26013Y110340D01*
X26021Y110381D01*
X26028Y110430D01*
X26037Y110553D01*
X26043Y110800D01*
X27042D01*
X27043Y110710D01*
D02*
G37*
G36*
X-11534Y112673D02*
X-11663Y112613D01*
X-11777Y112513D01*
X-11876Y112373D01*
X-11960Y112193D01*
X-12028Y111973D01*
X-12081Y111713D01*
X-12119Y111413D01*
X-12128Y111281D01*
X-12081Y110787D01*
X-12028Y110527D01*
X-11960Y110307D01*
X-11876Y110127D01*
X-11777Y109987D01*
X-11663Y109887D01*
X-11534Y109827D01*
X-11390Y109807D01*
X-14909D01*
X-14765Y109827D01*
X-14636Y109887D01*
X-14522Y109987D01*
X-14423Y110127D01*
X-14340Y110307D01*
X-14271Y110527D01*
X-14218Y110787D01*
X-14180Y111087D01*
X-14171Y111220D01*
X-14218Y111713D01*
X-14271Y111973D01*
X-14340Y112193D01*
X-14423Y112373D01*
X-14522Y112513D01*
X-14636Y112613D01*
X-14765Y112673D01*
X-14909Y112693D01*
X-11390D01*
X-11534Y112673D01*
D02*
G37*
G36*
X27346Y109669D02*
X27356Y109644D01*
X27372Y109615D01*
X27396Y109580D01*
X27426Y109541D01*
X27506Y109447D01*
X27677Y109268D01*
X26970Y108561D01*
X26905Y108625D01*
X26658Y108843D01*
X26624Y108866D01*
X26594Y108883D01*
X26570Y108893D01*
X26550Y108896D01*
X27343Y109688D01*
X27346Y109669D01*
D02*
G37*
G36*
X24543Y108150D02*
X24564Y107822D01*
X24572Y107781D01*
X24581Y107748D01*
X24591Y107724D01*
X24602Y107708D01*
X23483D01*
X23494Y107724D01*
X23504Y107748D01*
X23513Y107781D01*
X23521Y107822D01*
X23528Y107871D01*
X23537Y107994D01*
X23542Y108241D01*
X24543D01*
X24543Y108150D01*
D02*
G37*
G36*
X13919Y108220D02*
X14267Y107928D01*
X14423Y107820D01*
X14567Y107738D01*
X14700Y107682D01*
X14820Y107652D01*
X14930Y107647D01*
X15027Y107668D01*
X15112Y107715D01*
X14037Y106911D01*
X14037Y106867D01*
X14013Y106852D01*
X13966Y106864D01*
X13896Y106904D01*
X13803Y106972D01*
X13686Y107068D01*
X13196Y107524D01*
X12986Y107731D01*
X13727Y108404D01*
X13919Y108220D01*
D02*
G37*
G36*
X24846Y107109D02*
X24856Y107085D01*
X24872Y107056D01*
X24896Y107021D01*
X24926Y106982D01*
X25006Y106888D01*
X25177Y106709D01*
X24470Y106002D01*
X24405Y106066D01*
X24158Y106284D01*
X24124Y106307D01*
X24094Y106324D01*
X24070Y106334D01*
X24050Y106337D01*
X24843Y107129D01*
X24846Y107109D01*
D02*
G37*
G36*
X22043Y105591D02*
X22064Y105263D01*
X22072Y105222D01*
X22081Y105189D01*
X22091Y105165D01*
X22103Y105149D01*
X20982D01*
X20994Y105165D01*
X21004Y105189D01*
X21013Y105222D01*
X21021Y105263D01*
X21027Y105312D01*
X21037Y105435D01*
X21043Y105682D01*
X22042D01*
X22043Y105591D01*
D02*
G37*
G36*
X22346Y104550D02*
X22356Y104526D01*
X22372Y104497D01*
X22396Y104462D01*
X22426Y104423D01*
X22506Y104329D01*
X22677Y104150D01*
X21970Y103443D01*
X21905Y103507D01*
X21658Y103725D01*
X21624Y103748D01*
X21594Y103765D01*
X21570Y103775D01*
X21551Y103778D01*
X22343Y104570D01*
X22346Y104550D01*
D02*
G37*
G36*
X13743Y103013D02*
X14092Y102720D01*
X14244Y102617D01*
X14381Y102542D01*
X14504Y102496D01*
X14612Y102478D01*
X14706Y102489D01*
X14784Y102528D01*
X14848Y102596D01*
X14165Y101602D01*
X14309Y101376D01*
X14393Y101218D01*
X14419Y101128D01*
X14385Y101106D01*
X14292Y101151D01*
X14139Y101265D01*
X13927Y101447D01*
X12937Y102399D01*
X13547Y103202D01*
X13743Y103013D01*
D02*
G37*
G36*
X13754Y100460D02*
X14103Y100166D01*
X14256Y100062D01*
X14394Y99987D01*
X14518Y99940D01*
X14627Y99921D01*
X14721Y99931D01*
X14800Y99970D01*
X14865Y100038D01*
X14165Y99042D01*
X14303Y98826D01*
X14383Y98675D01*
X14405Y98591D01*
X14369Y98573D01*
X14276Y98621D01*
X14124Y98735D01*
X13915Y98915D01*
X12939Y99853D01*
X13557Y100650D01*
X13754Y100460D01*
D02*
G37*
G36*
X19161Y97437D02*
X19203Y97429D01*
X19263Y97423D01*
X19555Y97408D01*
X20206Y97400D01*
Y96400D01*
X19138Y96356D01*
Y97445D01*
X19161Y97437D01*
D02*
G37*
G36*
X-11534Y97173D02*
X-11663Y97113D01*
X-11777Y97013D01*
X-11876Y96873D01*
X-11960Y96693D01*
X-12028Y96473D01*
X-12081Y96213D01*
X-12119Y95913D01*
X-12142Y95573D01*
X-12150Y95193D01*
X-14150D01*
X-14157Y95573D01*
X-14218Y96213D01*
X-14271Y96473D01*
X-14340Y96693D01*
X-14423Y96873D01*
X-14522Y97013D01*
X-14636Y97113D01*
X-14765Y97173D01*
X-14909Y97193D01*
X-11390D01*
X-11534Y97173D01*
D02*
G37*
G36*
X19161Y94878D02*
X19203Y94870D01*
X19263Y94863D01*
X19555Y94849D01*
X20206Y94841D01*
Y93841D01*
X19138Y93796D01*
Y94886D01*
X19161Y94878D01*
D02*
G37*
G36*
X14430Y95250D02*
X14402Y95156D01*
X14314Y94992D01*
X14165Y94759D01*
X14835Y93764D01*
X14772Y93832D01*
X14694Y93872D01*
X14601Y93884D01*
X14493Y93867D01*
X14371Y93821D01*
X14234Y93747D01*
X14083Y93644D01*
X13916Y93512D01*
X13735Y93352D01*
X13539Y93163D01*
X12934Y93972D01*
X13329Y94363D01*
X14397Y95275D01*
X14430Y95250D01*
D02*
G37*
G36*
X19161Y92319D02*
X19203Y92311D01*
X19263Y92304D01*
X19555Y92290D01*
X20206Y92282D01*
Y91282D01*
X19138Y91237D01*
Y92327D01*
X19161Y92319D01*
D02*
G37*
G36*
X17652Y91194D02*
X17567Y91164D01*
X17492Y91114D01*
X17427Y91043D01*
X17372Y90952D01*
X17327Y90840D01*
X17292Y90709D01*
X17267Y90557D01*
X17252Y90385D01*
X17247Y90193D01*
X16247D01*
X16242Y90385D01*
X16227Y90557D01*
X16202Y90709D01*
X16167Y90840D01*
X16122Y90952D01*
X16067Y91043D01*
X16002Y91114D01*
X15927Y91164D01*
X15842Y91194D01*
X15747Y91205D01*
X17747D01*
X17652Y91194D01*
D02*
G37*
G36*
X18680Y87953D02*
X18927Y87735D01*
X18961Y87712D01*
X18991Y87695D01*
X19015Y87685D01*
X19035Y87682D01*
X18243Y86890D01*
X18239Y86909D01*
X18229Y86934D01*
X18213Y86963D01*
X18189Y86998D01*
X18159Y87037D01*
X18079Y87131D01*
X17908Y87310D01*
X18615Y88017D01*
X18680Y87953D01*
D02*
G37*
G36*
X16680Y86053D02*
X16927Y85835D01*
X16962Y85812D01*
X16991Y85795D01*
X17015Y85785D01*
X17034Y85782D01*
X16242Y84990D01*
X16239Y85009D01*
X16229Y85034D01*
X16213Y85063D01*
X16189Y85098D01*
X16159Y85137D01*
X16079Y85231D01*
X15908Y85410D01*
X16615Y86117D01*
X16680Y86053D01*
D02*
G37*
G36*
X14680Y84153D02*
X14927Y83935D01*
X14962Y83912D01*
X14991Y83895D01*
X15015Y83885D01*
X15034Y83882D01*
X14243Y83090D01*
X14239Y83109D01*
X14229Y83134D01*
X14213Y83163D01*
X14189Y83197D01*
X14159Y83237D01*
X14079Y83331D01*
X13908Y83510D01*
X14615Y84217D01*
X14680Y84153D01*
D02*
G37*
G36*
X-11994Y60427D02*
X-11945Y59787D01*
X-11902Y59527D01*
X-11847Y59307D01*
X-11780Y59127D01*
X-11701Y58987D01*
X-11610Y58887D01*
X-11506Y58827D01*
X-11390Y58807D01*
X-14909D01*
X-14737Y58827D01*
X-14582Y58887D01*
X-14446Y58987D01*
X-14327Y59127D01*
X-14227Y59307D01*
X-14145Y59527D01*
X-14082Y59787D01*
X-14036Y60087D01*
X-14009Y60427D01*
X-14000Y60807D01*
X-12000D01*
X-11994Y60427D01*
D02*
G37*
G36*
X-12142Y56667D02*
X-12105Y56272D01*
X-11390D01*
X-11534Y56252D01*
X-11663Y56192D01*
X-11777Y56092D01*
X-11876Y55952D01*
X-11960Y55772D01*
X-11995Y55660D01*
X-11960Y55547D01*
X-11876Y55367D01*
X-11777Y55227D01*
X-11663Y55127D01*
X-11534Y55067D01*
X-11390Y55047D01*
X-12112D01*
X-12119Y54992D01*
X-12142Y54652D01*
X-12150Y54272D01*
X-14150D01*
X-14157Y54652D01*
X-14195Y55047D01*
X-14909D01*
X-14765Y55067D01*
X-14636Y55127D01*
X-14522Y55227D01*
X-14423Y55367D01*
X-14340Y55547D01*
X-14305Y55660D01*
X-14340Y55772D01*
X-14423Y55952D01*
X-14522Y56092D01*
X-14636Y56192D01*
X-14765Y56252D01*
X-14909Y56272D01*
X-14187D01*
X-14180Y56327D01*
X-14157Y56667D01*
X-14150Y57047D01*
X-12150D01*
X-12142Y56667D01*
D02*
G37*
G36*
Y53517D02*
X-12103Y53102D01*
X-11390D01*
X-11534Y53083D01*
X-11663Y53023D01*
X-11777Y52923D01*
X-11876Y52783D01*
X-11960Y52602D01*
X-11992Y52500D01*
X-11960Y52397D01*
X-11876Y52217D01*
X-11777Y52077D01*
X-11663Y51977D01*
X-11534Y51917D01*
X-11390Y51897D01*
X-12110D01*
X-12119Y51823D01*
X-12142Y51483D01*
X-12150Y51103D01*
X-14150D01*
X-14157Y51483D01*
X-14197Y51897D01*
X-14909D01*
X-14765Y51917D01*
X-14636Y51977D01*
X-14522Y52077D01*
X-14423Y52217D01*
X-14340Y52397D01*
X-14308Y52500D01*
X-14340Y52602D01*
X-14423Y52783D01*
X-14522Y52923D01*
X-14636Y53023D01*
X-14765Y53083D01*
X-14909Y53102D01*
X-14189D01*
X-14180Y53177D01*
X-14157Y53517D01*
X-14150Y53897D01*
X-12150D01*
X-12142Y53517D01*
D02*
G37*
G36*
Y50348D02*
X-12105Y49953D01*
X-11390D01*
X-11534Y49933D01*
X-11663Y49873D01*
X-11777Y49773D01*
X-11876Y49633D01*
X-11960Y49453D01*
X-11995Y49341D01*
X-11960Y49228D01*
X-11876Y49048D01*
X-11777Y48908D01*
X-11663Y48808D01*
X-11534Y48748D01*
X-11390Y48728D01*
X-12112D01*
X-12119Y48673D01*
X-12142Y48333D01*
X-12150Y47953D01*
X-14150D01*
X-14157Y48333D01*
X-14195Y48728D01*
X-14909D01*
X-14765Y48748D01*
X-14636Y48808D01*
X-14522Y48908D01*
X-14423Y49048D01*
X-14340Y49228D01*
X-14305Y49341D01*
X-14340Y49453D01*
X-14423Y49633D01*
X-14522Y49773D01*
X-14636Y49873D01*
X-14765Y49933D01*
X-14909Y49953D01*
X-14187D01*
X-14180Y50008D01*
X-14157Y50348D01*
X-14150Y50728D01*
X-12150D01*
X-12142Y50348D01*
D02*
G37*
G36*
X-11534Y46173D02*
X-11663Y46113D01*
X-11777Y46013D01*
X-11876Y45873D01*
X-11960Y45693D01*
X-12028Y45473D01*
X-12081Y45213D01*
X-12119Y44913D01*
X-12128Y44780D01*
X-12081Y44287D01*
X-12028Y44027D01*
X-11960Y43807D01*
X-11876Y43627D01*
X-11777Y43487D01*
X-11663Y43387D01*
X-11534Y43327D01*
X-11390Y43307D01*
X-14909D01*
X-14765Y43327D01*
X-14636Y43387D01*
X-14522Y43487D01*
X-14423Y43627D01*
X-14340Y43807D01*
X-14271Y44027D01*
X-14218Y44287D01*
X-14180Y44587D01*
X-14171Y44719D01*
X-14218Y45213D01*
X-14271Y45473D01*
X-14340Y45693D01*
X-14423Y45873D01*
X-14522Y46013D01*
X-14636Y46113D01*
X-14765Y46173D01*
X-14909Y46193D01*
X-11390D01*
X-11534Y46173D01*
D02*
G37*
G36*
X-12142Y41167D02*
X-12105Y40772D01*
X-11390D01*
X-11534Y40752D01*
X-11663Y40692D01*
X-11777Y40592D01*
X-11876Y40452D01*
X-11960Y40272D01*
X-11995Y40159D01*
X-11960Y40047D01*
X-11876Y39867D01*
X-11777Y39727D01*
X-11663Y39627D01*
X-11534Y39567D01*
X-11390Y39547D01*
X-12112D01*
X-12119Y39492D01*
X-12142Y39152D01*
X-12150Y38772D01*
X-14150D01*
X-14157Y39152D01*
X-14195Y39547D01*
X-14909D01*
X-14765Y39567D01*
X-14636Y39627D01*
X-14522Y39727D01*
X-14423Y39867D01*
X-14340Y40047D01*
X-14305Y40159D01*
X-14340Y40272D01*
X-14423Y40452D01*
X-14522Y40592D01*
X-14636Y40692D01*
X-14765Y40752D01*
X-14909Y40772D01*
X-14187D01*
X-14180Y40827D01*
X-14157Y41167D01*
X-14150Y41547D01*
X-12150D01*
X-12142Y41167D01*
D02*
G37*
G36*
Y38017D02*
X-12103Y37603D01*
X-11390D01*
X-11534Y37582D01*
X-11663Y37523D01*
X-11777Y37423D01*
X-11876Y37282D01*
X-11960Y37103D01*
X-11992Y37000D01*
X-11960Y36897D01*
X-11876Y36717D01*
X-11777Y36577D01*
X-11663Y36477D01*
X-11534Y36417D01*
X-11390Y36397D01*
X-12110D01*
X-12119Y36323D01*
X-12142Y35982D01*
X-12150Y35603D01*
X-14150D01*
X-14157Y35982D01*
X-14197Y36397D01*
X-14909D01*
X-14765Y36417D01*
X-14636Y36477D01*
X-14522Y36577D01*
X-14423Y36717D01*
X-14340Y36897D01*
X-14308Y37000D01*
X-14340Y37103D01*
X-14423Y37282D01*
X-14522Y37423D01*
X-14636Y37523D01*
X-14765Y37582D01*
X-14909Y37603D01*
X-14189D01*
X-14180Y37677D01*
X-14157Y38017D01*
X-14150Y38397D01*
X-12150D01*
X-12142Y38017D01*
D02*
G37*
G36*
Y34848D02*
X-12105Y34453D01*
X-11390D01*
X-11534Y34433D01*
X-11663Y34373D01*
X-11777Y34273D01*
X-11876Y34133D01*
X-11960Y33953D01*
X-11995Y33841D01*
X-11960Y33728D01*
X-11876Y33548D01*
X-11777Y33408D01*
X-11663Y33308D01*
X-11534Y33248D01*
X-11390Y33228D01*
X-12112D01*
X-12119Y33173D01*
X-12142Y32833D01*
X-12150Y32453D01*
X-14150D01*
X-14157Y32833D01*
X-14195Y33228D01*
X-14909D01*
X-14765Y33248D01*
X-14636Y33308D01*
X-14522Y33408D01*
X-14423Y33548D01*
X-14340Y33728D01*
X-14305Y33841D01*
X-14340Y33953D01*
X-14423Y34133D01*
X-14522Y34273D01*
X-14636Y34373D01*
X-14765Y34433D01*
X-14909Y34453D01*
X-14187D01*
X-14180Y34508D01*
X-14157Y34848D01*
X-14150Y35228D01*
X-12150D01*
X-12142Y34848D01*
D02*
G37*
G36*
X-11534Y30673D02*
X-11663Y30613D01*
X-11777Y30513D01*
X-11876Y30373D01*
X-11960Y30193D01*
X-12028Y29973D01*
X-12081Y29713D01*
X-12119Y29413D01*
X-12128Y29280D01*
X-12081Y28787D01*
X-12028Y28527D01*
X-11960Y28307D01*
X-11876Y28127D01*
X-11777Y27987D01*
X-11663Y27887D01*
X-11534Y27827D01*
X-11390Y27807D01*
X-14909D01*
X-14765Y27827D01*
X-14636Y27887D01*
X-14522Y27987D01*
X-14423Y28127D01*
X-14340Y28307D01*
X-14271Y28527D01*
X-14218Y28787D01*
X-14180Y29087D01*
X-14171Y29219D01*
X-14218Y29713D01*
X-14271Y29973D01*
X-14340Y30193D01*
X-14423Y30373D01*
X-14522Y30513D01*
X-14636Y30613D01*
X-14765Y30673D01*
X-14909Y30693D01*
X-11390D01*
X-11534Y30673D01*
D02*
G37*
G36*
X-12142Y25667D02*
X-12105Y25272D01*
X-11390D01*
X-11534Y25252D01*
X-11663Y25192D01*
X-11777Y25092D01*
X-11876Y24952D01*
X-11960Y24772D01*
X-11995Y24659D01*
X-11960Y24547D01*
X-11876Y24367D01*
X-11777Y24227D01*
X-11663Y24127D01*
X-11534Y24067D01*
X-11390Y24047D01*
X-12112D01*
X-12119Y23992D01*
X-12142Y23652D01*
X-12150Y23272D01*
X-14150D01*
X-14157Y23652D01*
X-14195Y24047D01*
X-14909D01*
X-14765Y24067D01*
X-14636Y24127D01*
X-14522Y24227D01*
X-14423Y24367D01*
X-14340Y24547D01*
X-14305Y24659D01*
X-14340Y24772D01*
X-14423Y24952D01*
X-14522Y25092D01*
X-14636Y25192D01*
X-14765Y25252D01*
X-14909Y25272D01*
X-14187D01*
X-14180Y25327D01*
X-14157Y25667D01*
X-14150Y26047D01*
X-12150D01*
X-12142Y25667D01*
D02*
G37*
G36*
Y22517D02*
X-12103Y22103D01*
X-11390D01*
X-11534Y22083D01*
X-11663Y22023D01*
X-11777Y21923D01*
X-11876Y21783D01*
X-11960Y21602D01*
X-11992Y21500D01*
X-11960Y21397D01*
X-11876Y21217D01*
X-11777Y21077D01*
X-11663Y20977D01*
X-11534Y20917D01*
X-11390Y20897D01*
X-12110D01*
X-12119Y20823D01*
X-12142Y20483D01*
X-12150Y20102D01*
X-14150D01*
X-14157Y20483D01*
X-14197Y20897D01*
X-14909D01*
X-14765Y20917D01*
X-14636Y20977D01*
X-14522Y21077D01*
X-14423Y21217D01*
X-14340Y21397D01*
X-14308Y21500D01*
X-14340Y21602D01*
X-14423Y21783D01*
X-14522Y21923D01*
X-14636Y22023D01*
X-14765Y22083D01*
X-14909Y22103D01*
X-14189D01*
X-14180Y22177D01*
X-14157Y22517D01*
X-14150Y22897D01*
X-12150D01*
X-12142Y22517D01*
D02*
G37*
G36*
Y19348D02*
X-12105Y18953D01*
X-11390D01*
X-11534Y18933D01*
X-11663Y18873D01*
X-11777Y18773D01*
X-11876Y18633D01*
X-11960Y18453D01*
X-11995Y18340D01*
X-11960Y18228D01*
X-11876Y18048D01*
X-11777Y17908D01*
X-11663Y17808D01*
X-11534Y17748D01*
X-11390Y17728D01*
X-12112D01*
X-12119Y17673D01*
X-12142Y17333D01*
X-12150Y16953D01*
X-14150D01*
X-14157Y17333D01*
X-14195Y17728D01*
X-14909D01*
X-14765Y17748D01*
X-14636Y17808D01*
X-14522Y17908D01*
X-14423Y18048D01*
X-14340Y18228D01*
X-14305Y18340D01*
X-14340Y18453D01*
X-14423Y18633D01*
X-14522Y18773D01*
X-14636Y18873D01*
X-14765Y18933D01*
X-14909Y18953D01*
X-14187D01*
X-14180Y19008D01*
X-14157Y19348D01*
X-14150Y19728D01*
X-12150D01*
X-12142Y19348D01*
D02*
G37*
G36*
X-11534Y15173D02*
X-11663Y15113D01*
X-11777Y15013D01*
X-11876Y14873D01*
X-11960Y14693D01*
X-12028Y14473D01*
X-12081Y14213D01*
X-12119Y13913D01*
X-12128Y13780D01*
X-12081Y13287D01*
X-12028Y13027D01*
X-11960Y12807D01*
X-11876Y12627D01*
X-11777Y12487D01*
X-11663Y12387D01*
X-11534Y12327D01*
X-11390Y12307D01*
X-14909D01*
X-14765Y12327D01*
X-14636Y12387D01*
X-14522Y12487D01*
X-14423Y12627D01*
X-14340Y12807D01*
X-14271Y13027D01*
X-14218Y13287D01*
X-14180Y13587D01*
X-14171Y13720D01*
X-14218Y14213D01*
X-14271Y14473D01*
X-14340Y14693D01*
X-14423Y14873D01*
X-14522Y15013D01*
X-14636Y15113D01*
X-14765Y15173D01*
X-14909Y15193D01*
X-11390D01*
X-11534Y15173D01*
D02*
G37*
G36*
X-12142Y10167D02*
X-12105Y9772D01*
X-11390D01*
X-11534Y9752D01*
X-11663Y9692D01*
X-11777Y9592D01*
X-11876Y9452D01*
X-11960Y9272D01*
X-11995Y9159D01*
X-11960Y9047D01*
X-11876Y8867D01*
X-11777Y8727D01*
X-11663Y8627D01*
X-11534Y8567D01*
X-11390Y8547D01*
X-12112D01*
X-12119Y8492D01*
X-12142Y8152D01*
X-12150Y7772D01*
X-14150D01*
X-14157Y8152D01*
X-14195Y8547D01*
X-14909D01*
X-14765Y8567D01*
X-14636Y8627D01*
X-14522Y8727D01*
X-14423Y8867D01*
X-14340Y9047D01*
X-14305Y9159D01*
X-14340Y9272D01*
X-14423Y9452D01*
X-14522Y9592D01*
X-14636Y9692D01*
X-14765Y9752D01*
X-14909Y9772D01*
X-14187D01*
X-14180Y9827D01*
X-14157Y10167D01*
X-14150Y10547D01*
X-12150D01*
X-12142Y10167D01*
D02*
G37*
G36*
Y7017D02*
X-12103Y6602D01*
X-11390D01*
X-11534Y6583D01*
X-11663Y6522D01*
X-11777Y6423D01*
X-11876Y6283D01*
X-11960Y6103D01*
X-11992Y6000D01*
X-11960Y5897D01*
X-11876Y5717D01*
X-11777Y5577D01*
X-11663Y5477D01*
X-11534Y5417D01*
X-11390Y5397D01*
X-12110D01*
X-12119Y5322D01*
X-12142Y4983D01*
X-12150Y4603D01*
X-14150D01*
X-14157Y4983D01*
X-14197Y5397D01*
X-14909D01*
X-14765Y5417D01*
X-14636Y5477D01*
X-14522Y5577D01*
X-14423Y5717D01*
X-14340Y5897D01*
X-14308Y6000D01*
X-14340Y6103D01*
X-14423Y6283D01*
X-14522Y6423D01*
X-14636Y6522D01*
X-14765Y6583D01*
X-14909Y6602D01*
X-14189D01*
X-14180Y6677D01*
X-14157Y7017D01*
X-14150Y7397D01*
X-12150D01*
X-12142Y7017D01*
D02*
G37*
G36*
Y3848D02*
X-12105Y3453D01*
X-11390D01*
X-11534Y3433D01*
X-11663Y3373D01*
X-11777Y3273D01*
X-11876Y3133D01*
X-11960Y2953D01*
X-11995Y2840D01*
X-11960Y2728D01*
X-11876Y2548D01*
X-11777Y2408D01*
X-11663Y2308D01*
X-11534Y2248D01*
X-11390Y2228D01*
X-12112D01*
X-12119Y2173D01*
X-12142Y1833D01*
X-12150Y1453D01*
X-14150D01*
X-14157Y1833D01*
X-14195Y2228D01*
X-14909D01*
X-14765Y2248D01*
X-14636Y2308D01*
X-14522Y2408D01*
X-14423Y2548D01*
X-14340Y2728D01*
X-14305Y2840D01*
X-14340Y2953D01*
X-14423Y3133D01*
X-14522Y3273D01*
X-14636Y3373D01*
X-14765Y3433D01*
X-14909Y3453D01*
X-14187D01*
X-14180Y3508D01*
X-14157Y3848D01*
X-14150Y4228D01*
X-12150D01*
X-12142Y3848D01*
D02*
G37*
%LPC*%
G36*
X-10378Y169965D02*
X-11604D01*
X-11620Y169893D01*
X-11609Y169694D01*
X-11536Y169528D01*
X-11402Y169396D01*
X-12149Y169920D01*
X-12142Y169592D01*
X-12105Y169197D01*
X-11390D01*
X-11534Y169177D01*
X-11663Y169117D01*
X-11777Y169017D01*
X-11876Y168877D01*
X-11960Y168697D01*
X-11995Y168585D01*
X-11960Y168472D01*
X-11876Y168292D01*
X-11777Y168152D01*
X-11663Y168052D01*
X-11534Y167992D01*
X-11390Y167972D01*
X-12112D01*
X-12119Y167917D01*
X-12142Y167577D01*
X-12144Y167500D01*
X-10378D01*
Y168185D01*
Y169965D01*
D02*
G37*
G36*
X129682Y171428D02*
X129407Y171392D01*
X128685Y171093D01*
X128065Y170617D01*
X127589Y169997D01*
X127290Y169275D01*
X127253Y169000D01*
X129682D01*
Y171428D01*
D02*
G37*
G36*
Y168000D02*
X127253D01*
X127290Y167725D01*
X127589Y167003D01*
X128065Y166383D01*
X128685Y165907D01*
X129407Y165608D01*
X129682Y165572D01*
Y168000D01*
D02*
G37*
G36*
X-10378Y166500D02*
X-12143D01*
X-12142Y166443D01*
X-12103Y166028D01*
X-11390D01*
X-11534Y166008D01*
X-11663Y165948D01*
X-11777Y165848D01*
X-11876Y165708D01*
X-11960Y165528D01*
X-11992Y165425D01*
X-11960Y165323D01*
X-11876Y165143D01*
X-11777Y165003D01*
X-11663Y164903D01*
X-11534Y164843D01*
X-11390Y164823D01*
X-12110D01*
X-12119Y164748D01*
X-12142Y164408D01*
X-12143Y164350D01*
X-10378D01*
Y165016D01*
Y166500D01*
D02*
G37*
G36*
Y163350D02*
X-12144D01*
X-12142Y163273D01*
X-12105Y162878D01*
X-11390D01*
X-11534Y162858D01*
X-11663Y162798D01*
X-11777Y162698D01*
X-11876Y162558D01*
X-11960Y162378D01*
X-11995Y162266D01*
X-11960Y162153D01*
X-11876Y161973D01*
X-11777Y161833D01*
X-11663Y161733D01*
X-11534Y161673D01*
X-11390Y161653D01*
X-12112D01*
X-12119Y161598D01*
X-12142Y161258D01*
X-12150Y160886D01*
X-10378D01*
Y161866D01*
Y163350D01*
D02*
G37*
G36*
Y154539D02*
X-12150D01*
X-12142Y154167D01*
X-12105Y153772D01*
X-11390D01*
X-11534Y153752D01*
X-11663Y153692D01*
X-11777Y153592D01*
X-11876Y153452D01*
X-11960Y153272D01*
X-11995Y153159D01*
X-11960Y153047D01*
X-11876Y152867D01*
X-11777Y152727D01*
X-11663Y152627D01*
X-11534Y152567D01*
X-11390Y152547D01*
X-12112D01*
X-12119Y152492D01*
X-12142Y152152D01*
X-12144Y152075D01*
X-10378D01*
Y152760D01*
Y154539D01*
D02*
G37*
G36*
X100182Y171091D02*
X99511Y171002D01*
X98886Y170744D01*
X98350Y170332D01*
X97938Y169795D01*
X97679Y169170D01*
X97591Y168500D01*
X97679Y167830D01*
X97938Y167205D01*
X98064Y167041D01*
X98087Y166931D01*
X98174Y166804D01*
X98238Y166684D01*
X98300Y166539D01*
X98357Y166367D01*
X98408Y166170D01*
X98452Y165946D01*
X98485Y165704D01*
X98527Y165119D01*
X98532Y164794D01*
X98550Y164752D01*
Y156818D01*
X98674Y156194D01*
X99028Y155665D01*
X102347Y152347D01*
X102876Y151993D01*
X103500Y151869D01*
X104124Y151993D01*
X104654Y152347D01*
X105007Y152876D01*
X105131Y153500D01*
X105007Y154124D01*
X104654Y154654D01*
X101813Y157494D01*
Y164752D01*
X101831Y164794D01*
X101836Y165119D01*
X101878Y165704D01*
X101912Y165946D01*
X101955Y166170D01*
X102006Y166367D01*
X102063Y166539D01*
X102125Y166684D01*
X102190Y166804D01*
X102276Y166931D01*
X102299Y167041D01*
X102425Y167205D01*
X102684Y167830D01*
X102772Y168500D01*
X102684Y169170D01*
X102425Y169795D01*
X102014Y170332D01*
X101477Y170744D01*
X100852Y171002D01*
X100182Y171091D01*
D02*
G37*
G36*
X-10378Y151075D02*
X-12143D01*
X-12142Y151017D01*
X-12103Y150602D01*
X-11390D01*
X-11534Y150583D01*
X-11663Y150523D01*
X-11777Y150423D01*
X-11876Y150283D01*
X-11960Y150102D01*
X-11992Y150000D01*
X-11960Y149897D01*
X-11876Y149717D01*
X-11777Y149577D01*
X-11663Y149477D01*
X-11534Y149417D01*
X-11390Y149397D01*
X-12110D01*
X-12119Y149323D01*
X-12142Y148983D01*
X-12143Y148925D01*
X-10378D01*
Y149591D01*
Y151075D01*
D02*
G37*
G36*
X175156Y153628D02*
X172019Y150491D01*
X174460Y148049D01*
X177598Y151187D01*
X175156Y153628D01*
D02*
G37*
G36*
X47278Y148310D02*
X46042D01*
Y147075D01*
X46245Y147115D01*
X46840Y147513D01*
X47238Y148108D01*
X47278Y148310D01*
D02*
G37*
G36*
X-10378Y147925D02*
X-12144D01*
X-12142Y147848D01*
X-12105Y147453D01*
X-11390D01*
X-11534Y147433D01*
X-11663Y147373D01*
X-11777Y147273D01*
X-11876Y147133D01*
X-11960Y146953D01*
X-11995Y146841D01*
X-11960Y146728D01*
X-11876Y146548D01*
X-11777Y146408D01*
X-11663Y146308D01*
X-11534Y146248D01*
X-11390Y146228D01*
X-12112D01*
X-12119Y146173D01*
X-12142Y145833D01*
X-12150Y145461D01*
X-10378D01*
Y146441D01*
Y147925D01*
D02*
G37*
G36*
X178305Y150480D02*
X175167Y147342D01*
X177609Y144901D01*
X180746Y148038D01*
X178305Y150480D01*
D02*
G37*
G36*
X134249Y146086D02*
X134046Y146046D01*
X133451Y145648D01*
X133053Y145053D01*
X133013Y144851D01*
X134249D01*
Y146086D01*
D02*
G37*
G36*
X120495Y145428D02*
Y144192D01*
X121731D01*
X121691Y144395D01*
X121293Y144990D01*
X120697Y145388D01*
X120495Y145428D01*
D02*
G37*
G36*
X119495D02*
X119293Y145388D01*
X118697Y144990D01*
X118299Y144395D01*
X118259Y144192D01*
X119495D01*
Y145428D01*
D02*
G37*
G36*
X121731Y143192D02*
X120495D01*
Y141956D01*
X120697Y141997D01*
X121293Y142395D01*
X121691Y142990D01*
X121731Y143192D01*
D02*
G37*
G36*
X119495D02*
X118259D01*
X118299Y142990D01*
X118697Y142395D01*
X119293Y141997D01*
X119495Y141956D01*
Y143192D01*
D02*
G37*
G36*
X171312Y149784D02*
X168174Y146646D01*
X168484Y146336D01*
X168293Y145874D01*
X159081D01*
X158474Y145267D01*
X158849Y145253D01*
X159128Y144253D01*
X158829Y144248D01*
X158491Y144221D01*
X159110Y143603D01*
X159138Y143603D01*
X159203Y143631D01*
X159268D01*
X159302Y143627D01*
X159307Y143631D01*
X170424D01*
X170488Y143603D01*
X170762Y143599D01*
X171245Y143563D01*
X171260Y143560D01*
X173764Y141056D01*
X176902Y144194D01*
X174107Y146989D01*
X171312Y149784D01*
D02*
G37*
G36*
X73542Y141369D02*
Y140133D01*
X74778D01*
X74738Y140335D01*
X74340Y140930D01*
X73745Y141328D01*
X73542Y141369D01*
D02*
G37*
G36*
X72543D02*
X72340Y141328D01*
X71745Y140930D01*
X71347Y140335D01*
X71307Y140133D01*
X72543D01*
Y141369D01*
D02*
G37*
G36*
X135249Y146086D02*
Y144351D01*
X134749D01*
Y143851D01*
X133013D01*
X133053Y143648D01*
X133451Y143053D01*
X134046Y142655D01*
X134633Y142538D01*
X134800Y142209D01*
X134830Y142028D01*
X133274Y140471D01*
X134688Y139057D01*
X136456Y140825D01*
X138223Y142593D01*
X136809Y144007D01*
Y144007D01*
X136572Y144409D01*
X136444Y145053D01*
X136046Y145648D01*
X135451Y146046D01*
X135249Y146086D01*
D02*
G37*
G36*
X74778Y139133D02*
X73542D01*
Y137897D01*
X73745Y137937D01*
X74340Y138335D01*
X74738Y138930D01*
X74778Y139133D01*
D02*
G37*
G36*
X72543D02*
X71307D01*
X71347Y138930D01*
X71745Y138335D01*
X72340Y137937D01*
X72543Y137897D01*
Y139133D01*
D02*
G37*
G36*
X84543Y139118D02*
Y137882D01*
X85779D01*
X85738Y138085D01*
X85340Y138680D01*
X84745Y139078D01*
X84543Y139118D01*
D02*
G37*
G36*
X83543D02*
X83341Y139078D01*
X82745Y138680D01*
X82347Y138085D01*
X82307Y137882D01*
X83543D01*
Y139118D01*
D02*
G37*
G36*
X138930Y141885D02*
X137163Y140118D01*
X135395Y138350D01*
X136809Y136936D01*
X137764Y137891D01*
X137768Y137887D01*
X137831Y137863D01*
X138342Y137352D01*
X139366D01*
X139928Y137914D01*
Y138938D01*
X139417Y139449D01*
X139393Y139513D01*
X139390Y139516D01*
X140345Y140471D01*
X138930Y141885D01*
D02*
G37*
G36*
X67042Y138118D02*
Y136882D01*
X68278D01*
X68238Y137084D01*
X67840Y137680D01*
X67245Y138078D01*
X67042Y138118D01*
D02*
G37*
G36*
X66043D02*
X65840Y138078D01*
X65245Y137680D01*
X64847Y137084D01*
X64807Y136882D01*
X66043D01*
Y138118D01*
D02*
G37*
G36*
X-10528Y138965D02*
X-12150D01*
X-12144Y138592D01*
X-12113Y138197D01*
X-11540D01*
X-11655Y138177D01*
X-11759Y138117D01*
X-11851Y138017D01*
X-11930Y137877D01*
X-11997Y137697D01*
X-12025Y137585D01*
X-11997Y137472D01*
X-11930Y137292D01*
X-11851Y137152D01*
X-11759Y137052D01*
X-11655Y136992D01*
X-11540Y136972D01*
X-12120D01*
X-12125Y136917D01*
X-12139Y136500D01*
X-10528D01*
Y137185D01*
Y138965D01*
D02*
G37*
G36*
X92042Y137118D02*
Y135882D01*
X93278D01*
X93238Y136084D01*
X92840Y136680D01*
X92245Y137078D01*
X92042Y137118D01*
D02*
G37*
G36*
X91043D02*
X90840Y137078D01*
X90245Y136680D01*
X89847Y136084D01*
X89807Y135882D01*
X91043D01*
Y137118D01*
D02*
G37*
G36*
X85779Y136882D02*
X84543D01*
Y135647D01*
X84745Y135687D01*
X85340Y136085D01*
X85738Y136680D01*
X85779Y136882D01*
D02*
G37*
G36*
X83543D02*
X82307D01*
X82347Y136680D01*
X82745Y136085D01*
X83341Y135687D01*
X83543Y135647D01*
Y136882D01*
D02*
G37*
G36*
X139928Y136352D02*
X138692D01*
X138733Y136150D01*
X139130Y135555D01*
X139726Y135157D01*
X139928Y135117D01*
Y136352D01*
D02*
G37*
G36*
X68278Y135882D02*
X67042D01*
Y134646D01*
X67245Y134687D01*
X67840Y135084D01*
X68238Y135680D01*
X68278Y135882D01*
D02*
G37*
G36*
X66043D02*
X64807D01*
X64847Y135680D01*
X65245Y135084D01*
X65840Y134687D01*
X66043Y134646D01*
Y135882D01*
D02*
G37*
G36*
X133190Y139822D02*
X130220Y136852D01*
X130937Y136135D01*
X130765Y135895D01*
X130687Y135812D01*
X130665Y135754D01*
X130658Y135744D01*
X123707Y128793D01*
X123464Y128429D01*
X123378Y128000D01*
X123378Y128000D01*
Y127000D01*
X123378Y127000D01*
X123464Y126571D01*
X123707Y126207D01*
X124707Y125207D01*
X124707Y125207D01*
X125071Y124964D01*
X125500Y124878D01*
X126088D01*
X126151Y124851D01*
X126380Y124846D01*
X126467Y124839D01*
X126479Y124837D01*
X126485Y124836D01*
X126487Y124836D01*
X126494Y124835D01*
X126723Y124681D01*
X127269Y124573D01*
X127816Y124681D01*
X128279Y124991D01*
X128588Y125454D01*
X128697Y126000D01*
X128588Y126546D01*
X128279Y127009D01*
X127816Y127319D01*
X127269Y127427D01*
X126723Y127319D01*
X126496Y127167D01*
X126233Y127150D01*
X126161Y127149D01*
X126095Y127122D01*
X125965D01*
X125622Y127465D01*
Y127535D01*
X132244Y134158D01*
X132254Y134165D01*
X132313Y134187D01*
X132395Y134265D01*
X132635Y134437D01*
X133190Y133882D01*
X136160Y136852D01*
X133190Y139822D01*
D02*
G37*
G36*
X93278Y134882D02*
X92042D01*
Y133646D01*
X92245Y133687D01*
X92840Y134084D01*
X93238Y134680D01*
X93278Y134882D01*
D02*
G37*
G36*
X91043D02*
X89807D01*
X89847Y134680D01*
X90245Y134084D01*
X90840Y133687D01*
X91043Y133646D01*
Y134882D01*
D02*
G37*
G36*
X-10528Y135500D02*
X-12144D01*
X-12144Y135443D01*
X-12112Y135028D01*
X-11540D01*
X-11655Y135008D01*
X-11759Y134948D01*
X-11851Y134848D01*
X-11930Y134708D01*
X-11997Y134528D01*
X-12023Y134425D01*
X-11997Y134323D01*
X-11930Y134143D01*
X-11851Y134003D01*
X-11759Y133903D01*
X-11655Y133843D01*
X-11540Y133823D01*
X-12118D01*
X-12125Y133748D01*
X-12139Y133350D01*
X-10528D01*
Y134016D01*
Y135500D01*
D02*
G37*
G36*
X187000Y144459D02*
X185559Y144269D01*
X184216Y143713D01*
X183062Y142828D01*
X182177Y141674D01*
X181621Y140331D01*
X181431Y138890D01*
X181621Y137448D01*
X182177Y136105D01*
X183062Y134952D01*
X184216Y134067D01*
X185559Y133511D01*
X187000Y133321D01*
X188441Y133511D01*
X189784Y134067D01*
X190938Y134952D01*
X191823Y136105D01*
X192379Y137448D01*
X192569Y138890D01*
X192379Y140331D01*
X191823Y141674D01*
X190938Y142828D01*
X189784Y143713D01*
X188441Y144269D01*
X187000Y144459D01*
D02*
G37*
G36*
X80999Y133422D02*
Y132187D01*
X82235D01*
X82195Y132389D01*
X81797Y132984D01*
X81202Y133382D01*
X80999Y133422D01*
D02*
G37*
G36*
X80000D02*
X79797Y133382D01*
X79202Y132984D01*
X78804Y132389D01*
X78764Y132187D01*
X80000D01*
Y133422D01*
D02*
G37*
G36*
X82235Y131187D02*
X80999D01*
Y129951D01*
X81202Y129991D01*
X81797Y130389D01*
X82195Y130984D01*
X82235Y131187D01*
D02*
G37*
G36*
X80000D02*
X78764D01*
X78804Y130984D01*
X79202Y130389D01*
X79797Y129991D01*
X80000Y129951D01*
Y131187D01*
D02*
G37*
G36*
X-10528Y132350D02*
X-12145D01*
X-12144Y132273D01*
X-12113Y131878D01*
X-11540D01*
X-11655Y131858D01*
X-11759Y131798D01*
X-11851Y131698D01*
X-11930Y131558D01*
X-11997Y131378D01*
X-12025Y131266D01*
X-11997Y131153D01*
X-11930Y130973D01*
X-11851Y130833D01*
X-11759Y130733D01*
X-11655Y130673D01*
X-11540Y130653D01*
X-12120D01*
X-12125Y130598D01*
X-12149Y129886D01*
X-10528D01*
Y130866D01*
Y132350D01*
D02*
G37*
G36*
X42105Y127382D02*
X40869D01*
Y126146D01*
X41072Y126187D01*
X41667Y126584D01*
X42065Y127180D01*
X42105Y127382D01*
D02*
G37*
G36*
X39869D02*
X38633D01*
X38674Y127180D01*
X39072Y126584D01*
X39667Y126187D01*
X39869Y126146D01*
Y127382D01*
D02*
G37*
G36*
X118500Y126846D02*
Y125610D01*
X119736D01*
X119696Y125813D01*
X119298Y126408D01*
X118702Y126806D01*
X118500Y126846D01*
D02*
G37*
G36*
X117500D02*
X117298Y126806D01*
X116702Y126408D01*
X116304Y125813D01*
X116264Y125610D01*
X117500D01*
Y126846D01*
D02*
G37*
G36*
X130682Y171428D02*
Y168500D01*
Y165572D01*
X130957Y165608D01*
X131679Y165907D01*
X132299Y166383D01*
X132746Y166966D01*
X132803Y167007D01*
X133345Y167074D01*
X154711Y145708D01*
X154723Y145029D01*
X154586Y144892D01*
X154644Y144834D01*
X154609Y144349D01*
X154515Y144255D01*
X153173Y142913D01*
X153106Y142894D01*
X153088Y142860D01*
X153053Y142846D01*
X153015Y142755D01*
X152646Y142386D01*
X152931Y142102D01*
X152927Y142094D01*
X152869Y142015D01*
X152786Y141917D01*
X152668Y141793D01*
X152644Y141729D01*
X151528Y140613D01*
X151285Y140250D01*
X151199Y139820D01*
X151199Y139820D01*
Y130051D01*
X151172Y129989D01*
X151167Y129809D01*
X151155Y129659D01*
X151136Y129523D01*
X151111Y129400D01*
X151080Y129292D01*
X151045Y129196D01*
X151005Y129113D01*
X150963Y129040D01*
X150917Y128977D01*
X150845Y128897D01*
X150826Y128844D01*
X147583Y125601D01*
X147122Y125792D01*
Y144500D01*
X147122Y144500D01*
X147036Y144929D01*
X146793Y145293D01*
X146793Y145293D01*
X123694Y168392D01*
X123667Y168458D01*
X123254Y168876D01*
X122685Y169480D01*
X122542Y169649D01*
X122519Y169680D01*
X122502Y169708D01*
X122456Y169742D01*
X122438Y169797D01*
X122415Y169808D01*
X122014Y170332D01*
X121477Y170744D01*
X120852Y171002D01*
X120182Y171091D01*
X119511Y171002D01*
X118886Y170744D01*
X118350Y170332D01*
X117938Y169795D01*
X117679Y169170D01*
X117591Y168500D01*
X117679Y167830D01*
X117938Y167205D01*
X118350Y166668D01*
X118886Y166256D01*
X119511Y165998D01*
X120182Y165909D01*
X120852Y165998D01*
X121477Y166256D01*
X122014Y166668D01*
X122471Y166443D01*
X144878Y144035D01*
Y142817D01*
X144378Y142665D01*
X144293Y142793D01*
X144293Y142793D01*
X133793Y153293D01*
X133429Y153536D01*
X133000Y153622D01*
X133000Y153622D01*
X126646D01*
X113085Y167183D01*
X113061Y167246D01*
X112953Y167360D01*
X112876Y167453D01*
X112816Y167537D01*
X112771Y167611D01*
X112742Y167673D01*
X112724Y167724D01*
X112715Y167764D01*
X112712Y167794D01*
X112713Y167820D01*
X112726Y167889D01*
X112713Y167950D01*
X112737Y168008D01*
X112715Y168062D01*
X112772Y168500D01*
X112684Y169170D01*
X112425Y169795D01*
X112014Y170332D01*
X111477Y170744D01*
X110852Y171002D01*
X110182Y171091D01*
X109511Y171002D01*
X108886Y170744D01*
X108350Y170332D01*
X107938Y169795D01*
X107679Y169170D01*
X107591Y168500D01*
X107679Y167830D01*
X107938Y167205D01*
X108350Y166668D01*
X108886Y166256D01*
X109511Y165998D01*
X110182Y165909D01*
X110619Y165967D01*
X110674Y165945D01*
X110731Y165968D01*
X110793Y165955D01*
X110862Y165968D01*
X110887Y165970D01*
X110918Y165967D01*
X110958Y165958D01*
X111009Y165940D01*
X111071Y165910D01*
X111145Y165866D01*
X111229Y165806D01*
X111322Y165728D01*
X111435Y165621D01*
X111499Y165597D01*
X125389Y151707D01*
X125389Y151707D01*
X125752Y151464D01*
X126182Y151378D01*
X126182Y151378D01*
X132535D01*
X142378Y141535D01*
Y138073D01*
X141878Y137922D01*
X141726Y138150D01*
X141130Y138548D01*
X140928Y138588D01*
Y136852D01*
Y135117D01*
X141130Y135157D01*
X141726Y135555D01*
X141878Y135783D01*
X142378Y135631D01*
Y125965D01*
X133633Y117219D01*
X133390Y116855D01*
X133304Y116426D01*
X133304Y116426D01*
Y114182D01*
X133276Y114119D01*
X133272Y113890D01*
X133265Y113803D01*
X133263Y113791D01*
X133262Y113785D01*
X133262Y113783D01*
X133260Y113776D01*
X133107Y113546D01*
X132998Y113000D01*
X133107Y112454D01*
X133416Y111991D01*
X133880Y111681D01*
X134426Y111573D01*
X134972Y111681D01*
X135435Y111991D01*
X135745Y112454D01*
X135853Y113000D01*
X135745Y113546D01*
X135592Y113774D01*
X135576Y114037D01*
X135575Y114109D01*
X135547Y114175D01*
Y115961D01*
X144293Y124707D01*
X144293Y124707D01*
X144378Y124835D01*
X144878Y124683D01*
Y121777D01*
X143043Y119941D01*
X142978Y119916D01*
X142813Y119758D01*
X142746Y119701D01*
X142737Y119694D01*
X142731Y119691D01*
X142730Y119689D01*
X142725Y119685D01*
X142454Y119631D01*
X141991Y119322D01*
X141681Y118859D01*
X141573Y118312D01*
X141681Y117766D01*
X141991Y117303D01*
X142227Y117145D01*
X142335Y116546D01*
X133410Y107622D01*
X130255D01*
X114738Y123139D01*
X114713Y123203D01*
X114554Y123368D01*
X114497Y123435D01*
X114490Y123444D01*
X114487Y123450D01*
X114486Y123451D01*
X114482Y123457D01*
X114428Y123727D01*
X114119Y124190D01*
X113655Y124500D01*
X113109Y124609D01*
X112563Y124500D01*
X112100Y124190D01*
X111790Y123727D01*
X111682Y123181D01*
X111790Y122635D01*
X112100Y122172D01*
X112563Y121862D01*
X112831Y121809D01*
X113029Y121635D01*
X113080Y121584D01*
X113147Y121557D01*
X128997Y105707D01*
X128997Y105707D01*
X129361Y105464D01*
X129790Y105378D01*
X129790Y105378D01*
X133874D01*
X133875Y105378D01*
X134304Y105464D01*
X134668Y105707D01*
X149754Y120793D01*
X149764Y120800D01*
X149823Y120823D01*
X149905Y120901D01*
X150146Y121073D01*
X151625Y119594D01*
Y119594D01*
X151709Y119483D01*
X151721Y119232D01*
X151650Y118926D01*
X151628Y118868D01*
X151013Y118253D01*
X153253Y116012D01*
X155215Y117974D01*
X154633Y118556D01*
X154624Y118593D01*
X154558Y118631D01*
X154348Y118842D01*
X154327Y118920D01*
X154303Y119055D01*
X154268Y119469D01*
X154263Y119722D01*
X154235Y119786D01*
Y121370D01*
X154263Y121432D01*
X154268Y121609D01*
X154280Y121756D01*
X154299Y121890D01*
X154324Y122010D01*
X154355Y122117D01*
X154391Y122212D01*
X154431Y122295D01*
X154475Y122367D01*
X154522Y122432D01*
X154596Y122513D01*
X154624Y122593D01*
X158041Y126010D01*
X153534Y130517D01*
X153533Y130518D01*
X153530Y130538D01*
X153529Y130550D01*
X153527Y130555D01*
X153525Y130564D01*
X153513Y130583D01*
X153509Y130594D01*
X153501Y130623D01*
X153492Y130666D01*
X153484Y130717D01*
X153472Y130885D01*
X153470Y130984D01*
X153442Y131048D01*
Y139356D01*
X154230Y140143D01*
X154294Y140168D01*
X154418Y140286D01*
X154515Y140368D01*
X154594Y140426D01*
X154602Y140431D01*
X154887Y140146D01*
X155256Y140515D01*
X155346Y140552D01*
X155361Y140587D01*
X155394Y140606D01*
X155413Y140673D01*
X156756Y142015D01*
X156849Y142108D01*
X157334Y142143D01*
X157392Y142086D01*
X158302Y142996D01*
X156899Y144399D01*
X157253Y144753D01*
X156899Y145106D01*
X157365Y145572D01*
X157341Y145744D01*
X157368Y145651D01*
X157398Y145605D01*
X158163Y146370D01*
X157114Y147420D01*
X156978Y147284D01*
X156297Y147295D01*
X134299Y169293D01*
X133935Y169536D01*
X133505Y169622D01*
X133505Y169622D01*
X133166D01*
X133104Y169649D01*
X132948Y169654D01*
X132916Y169657D01*
X132775Y169997D01*
X132299Y170617D01*
X131679Y171093D01*
X130957Y171392D01*
X130682Y171428D01*
D02*
G37*
G36*
X119736Y124610D02*
X118500D01*
Y123374D01*
X118702Y123415D01*
X119298Y123812D01*
X119696Y124408D01*
X119736Y124610D01*
D02*
G37*
G36*
X117500D02*
X116264D01*
X116304Y124408D01*
X116702Y123812D01*
X117298Y123415D01*
X117500Y123374D01*
Y124610D01*
D02*
G37*
G36*
X-10378Y123539D02*
X-12150D01*
X-12142Y123167D01*
X-12105Y122772D01*
X-11390D01*
X-11534Y122752D01*
X-11663Y122692D01*
X-11777Y122592D01*
X-11876Y122452D01*
X-11960Y122272D01*
X-11995Y122159D01*
X-11960Y122047D01*
X-11876Y121867D01*
X-11777Y121727D01*
X-11663Y121627D01*
X-11534Y121567D01*
X-11390Y121547D01*
X-12112D01*
X-12119Y121492D01*
X-12142Y121152D01*
X-12144Y121075D01*
X-10378D01*
Y121760D01*
Y123539D01*
D02*
G37*
G36*
X192521Y130631D02*
X181479D01*
Y119589D01*
X192521D01*
Y130631D01*
D02*
G37*
G36*
X-10378Y120075D02*
X-12143D01*
X-12142Y120017D01*
X-12103Y119603D01*
X-11390D01*
X-11534Y119582D01*
X-11663Y119523D01*
X-11777Y119423D01*
X-11876Y119282D01*
X-11960Y119103D01*
X-11992Y119000D01*
X-11960Y118897D01*
X-11876Y118717D01*
X-11777Y118577D01*
X-11663Y118477D01*
X-11534Y118417D01*
X-11390Y118397D01*
X-12110D01*
X-12119Y118323D01*
X-12142Y117982D01*
X-12143Y117925D01*
X-10378D01*
Y118591D01*
Y120075D01*
D02*
G37*
G36*
Y116925D02*
X-12144D01*
X-12142Y116848D01*
X-12105Y116453D01*
X-11390D01*
X-11534Y116433D01*
X-11663Y116373D01*
X-11777Y116273D01*
X-11876Y116133D01*
X-11960Y115953D01*
X-11995Y115840D01*
X-11960Y115728D01*
X-11876Y115548D01*
X-11777Y115408D01*
X-11663Y115308D01*
X-11534Y115248D01*
X-11390Y115228D01*
X-12112D01*
X-12119Y115173D01*
X-12142Y114833D01*
X-12150Y114461D01*
X-10378D01*
Y115441D01*
Y116925D01*
D02*
G37*
G36*
X118000Y109806D02*
X117454Y109698D01*
X116991Y109388D01*
X116728Y108996D01*
X116405Y108927D01*
X116172Y108929D01*
X116009Y109172D01*
X115546Y109482D01*
X115000Y109590D01*
X114454Y109482D01*
X113991Y109172D01*
X113681Y108709D01*
X113628Y108440D01*
X113454Y108243D01*
X113403Y108191D01*
X113376Y108125D01*
X109471Y104220D01*
X109228Y103856D01*
X109142Y103427D01*
X109142Y103427D01*
Y98852D01*
X108680Y98660D01*
X107043Y100298D01*
X104073Y97328D01*
X107043Y94358D01*
X108680Y95996D01*
X109142Y95805D01*
Y90998D01*
X108996Y90945D01*
X108642Y90915D01*
X108298Y91430D01*
X107702Y91828D01*
X107500Y91869D01*
Y90133D01*
X107000D01*
Y89633D01*
X105264D01*
X105304Y89430D01*
X105702Y88835D01*
X106065Y88592D01*
X105804Y88202D01*
X105764Y88000D01*
X107500D01*
Y87500D01*
X108000D01*
Y85764D01*
X108202Y85804D01*
X108642Y86098D01*
X109142Y85887D01*
Y59858D01*
X109142Y59858D01*
X109228Y59429D01*
X109471Y59065D01*
X114871Y53664D01*
X114896Y53600D01*
X115055Y53435D01*
X115112Y53368D01*
X115119Y53359D01*
X115122Y53354D01*
X115123Y53352D01*
X115127Y53347D01*
X115181Y53076D01*
X115491Y52613D01*
X115954Y52303D01*
X116500Y52195D01*
X117046Y52303D01*
X117509Y52613D01*
X117819Y53076D01*
X117927Y53622D01*
X117819Y54168D01*
X117509Y54631D01*
X117046Y54941D01*
X116778Y54994D01*
X116580Y55168D01*
X116529Y55219D01*
X116462Y55246D01*
X111385Y60323D01*
Y61497D01*
X111847Y61689D01*
X114871Y58665D01*
X114896Y58600D01*
X115055Y58435D01*
X115112Y58368D01*
X115119Y58359D01*
X115122Y58354D01*
X115123Y58352D01*
X115127Y58346D01*
X115181Y58076D01*
X115491Y57613D01*
X115954Y57303D01*
X116500Y57195D01*
X117046Y57303D01*
X117509Y57613D01*
X117819Y58076D01*
X117927Y58622D01*
X117819Y59168D01*
X117509Y59631D01*
X117046Y59941D01*
X116778Y59994D01*
X116580Y60168D01*
X116529Y60219D01*
X116462Y60246D01*
X112985Y63723D01*
Y64897D01*
X113447Y65088D01*
X114871Y63665D01*
X114896Y63600D01*
X115055Y63435D01*
X115112Y63368D01*
X115119Y63359D01*
X115122Y63354D01*
X115123Y63352D01*
X115127Y63346D01*
X115181Y63076D01*
X115491Y62613D01*
X115954Y62303D01*
X116500Y62195D01*
X117046Y62303D01*
X117509Y62613D01*
X117819Y63076D01*
X117927Y63622D01*
X117819Y64168D01*
X117509Y64631D01*
X117046Y64941D01*
X116778Y64994D01*
X116580Y65168D01*
X116529Y65219D01*
X116462Y65246D01*
X114585Y67123D01*
Y67725D01*
X115085Y68103D01*
X115181Y68076D01*
X115491Y67613D01*
X115954Y67303D01*
X116500Y67195D01*
X117046Y67303D01*
X117509Y67613D01*
X117819Y68076D01*
X117927Y68622D01*
X117819Y69168D01*
X117509Y69631D01*
X117046Y69941D01*
X116778Y69994D01*
X116580Y70168D01*
X116529Y70219D01*
X116462Y70246D01*
X116185Y70523D01*
Y99410D01*
X120646Y103871D01*
X120711Y103896D01*
X120876Y104055D01*
X120942Y104112D01*
X120952Y104119D01*
X120957Y104122D01*
X120959Y104123D01*
X120964Y104127D01*
X121235Y104181D01*
X121698Y104491D01*
X122008Y104954D01*
X122116Y105500D01*
X122008Y106046D01*
X121698Y106509D01*
X121235Y106819D01*
X120689Y106927D01*
X120143Y106819D01*
X119680Y106509D01*
X119645Y106458D01*
X119044D01*
X119009Y106509D01*
X118811Y106642D01*
Y107237D01*
X119009Y107369D01*
X119319Y107833D01*
X119427Y108379D01*
X119319Y108925D01*
X119009Y109388D01*
X118546Y109698D01*
X118000Y109806D01*
D02*
G37*
G36*
X-4479Y110419D02*
X-9222D01*
Y107159D01*
X-9222Y106660D01*
X-9222Y106160D01*
Y103491D01*
Y100840D01*
X-9222Y100341D01*
X-9222D01*
Y100340D01*
X-9222D01*
Y96581D01*
X-6571D01*
X-6064Y96049D01*
X-6056Y96045D01*
X-6053Y96038D01*
X-5923Y95984D01*
X-5669Y95814D01*
X-5240Y95729D01*
X-5240Y95729D01*
X-1182D01*
X-1119Y95701D01*
X-890Y95696D01*
X-802Y95689D01*
X-791Y95688D01*
X-785Y95686D01*
X-783Y95686D01*
X-776Y95685D01*
X-546Y95531D01*
X0Y95423D01*
X546Y95531D01*
X1009Y95841D01*
X1319Y96304D01*
X1427Y96850D01*
X1319Y97397D01*
X1009Y97860D01*
X546Y98169D01*
X0Y98278D01*
X-546Y98169D01*
X-774Y98017D01*
X-1037Y98000D01*
X-1109Y98000D01*
X-1175Y97972D01*
X-4479D01*
Y99719D01*
X-1248D01*
X-1198Y99693D01*
X-1173Y99701D01*
X-1149Y99691D01*
X-1068Y99690D01*
X-940Y99685D01*
X-859Y99677D01*
X-546Y99468D01*
X0Y99360D01*
X546Y99468D01*
X1009Y99778D01*
X1319Y100241D01*
X1427Y100787D01*
X1319Y101334D01*
X1009Y101797D01*
X546Y102106D01*
X0Y102215D01*
X-546Y102106D01*
X-689Y102011D01*
X-991Y101990D01*
X-1061Y101990D01*
X-1128Y101962D01*
X-4479D01*
Y103559D01*
X-4257Y103574D01*
X-4087Y103575D01*
X-4021Y103603D01*
X-1182D01*
X-1119Y103575D01*
X-890Y103570D01*
X-802Y103563D01*
X-791Y103562D01*
X-785Y103560D01*
X-783Y103560D01*
X-776Y103559D01*
X-546Y103405D01*
X0Y103297D01*
X546Y103405D01*
X1009Y103715D01*
X1319Y104178D01*
X1427Y104724D01*
X1319Y105271D01*
X1009Y105734D01*
X546Y106043D01*
X0Y106152D01*
X-546Y106043D01*
X-774Y105891D01*
X-1037Y105874D01*
X-1109Y105874D01*
X-1175Y105846D01*
X-4004D01*
X-4016Y105848D01*
X-4074Y105874D01*
X-4187Y105877D01*
X-4479Y105925D01*
X-4479Y106659D01*
X-4479Y107460D01*
X-4187Y107509D01*
X-4074Y107512D01*
X-4016Y107538D01*
X-4004Y107540D01*
X-1182D01*
X-1119Y107512D01*
X-890Y107507D01*
X-802Y107500D01*
X-791Y107499D01*
X-785Y107497D01*
X-783Y107497D01*
X-776Y107496D01*
X-546Y107343D01*
X0Y107234D01*
X546Y107343D01*
X1009Y107652D01*
X1319Y108115D01*
X1427Y108661D01*
X1319Y109208D01*
X1009Y109671D01*
X546Y109980D01*
X0Y110089D01*
X-546Y109980D01*
X-774Y109828D01*
X-1037Y109811D01*
X-1109Y109811D01*
X-1175Y109783D01*
X-4012D01*
X-4074Y109810D01*
X-4246Y109815D01*
X-4374Y109826D01*
X-4470Y109842D01*
X-4479Y109844D01*
Y110419D01*
D02*
G37*
G36*
X39070Y114282D02*
X38524Y114173D01*
X38061Y113864D01*
X37751Y113401D01*
X37643Y112855D01*
X37751Y112308D01*
X38061Y111845D01*
X38524Y111536D01*
X38619Y111386D01*
X38354Y110904D01*
X38324Y110886D01*
X37013D01*
Y108505D01*
X37209D01*
X37361Y108005D01*
X37346Y107995D01*
X37082Y107601D01*
X36990Y107137D01*
X37082Y106672D01*
X37346Y106278D01*
X37560Y106135D01*
X37561Y106134D01*
Y105581D01*
X37560Y105579D01*
X37346Y105436D01*
X37082Y105042D01*
X36990Y104578D01*
X37082Y104113D01*
X37346Y103719D01*
X37560Y103576D01*
X37561Y103575D01*
Y103022D01*
X37560Y103020D01*
X37346Y102877D01*
X37082Y102483D01*
X36990Y102019D01*
X37082Y101554D01*
X37346Y101160D01*
X37560Y101017D01*
X37561Y101015D01*
Y100463D01*
X37560Y100461D01*
X37346Y100318D01*
X37082Y99924D01*
X36990Y99460D01*
X37082Y98995D01*
X37256Y98736D01*
X37346Y98601D01*
X37166Y98120D01*
X37057Y98047D01*
X36706Y97521D01*
X36682Y97400D01*
X40369D01*
X44057D01*
X44033Y97521D01*
X43681Y98047D01*
X43573Y98120D01*
X43393Y98601D01*
X43483Y98736D01*
X43656Y98995D01*
X43749Y99460D01*
X43656Y99924D01*
X43393Y100318D01*
X43178Y100461D01*
X43178Y100463D01*
Y101015D01*
X43178Y101017D01*
X43393Y101160D01*
X43656Y101554D01*
X43749Y102019D01*
X43656Y102483D01*
X43393Y102877D01*
X43178Y103020D01*
X43178Y103022D01*
X43149Y103235D01*
X43209Y103569D01*
X43531Y103785D01*
X44001Y104255D01*
X44326Y104543D01*
X44335Y104561D01*
X44353Y104568D01*
X44552Y104766D01*
X44566Y104799D01*
X44598Y104817D01*
X44613Y104866D01*
X47007Y107261D01*
X47861D01*
X47924Y107233D01*
X48153Y107228D01*
X48240Y107221D01*
X48252Y107220D01*
X48258Y107218D01*
X48260Y107218D01*
X48267Y107217D01*
X48496Y107063D01*
X49042Y106955D01*
X49589Y107063D01*
X50052Y107373D01*
X50361Y107836D01*
X50470Y108382D01*
X50361Y108928D01*
X50052Y109391D01*
X49589Y109701D01*
X49042Y109810D01*
X48496Y109701D01*
X48269Y109549D01*
X48006Y109532D01*
X47934Y109531D01*
X47868Y109504D01*
X46543D01*
X46113Y109418D01*
X45750Y109175D01*
X45749Y109175D01*
X44184Y107609D01*
X43694Y107702D01*
X43511Y108013D01*
X43725Y108505D01*
X43725D01*
Y110886D01*
X41552D01*
X41550Y110895D01*
X41534Y110991D01*
X41523Y111119D01*
X41519Y111291D01*
X41491Y111353D01*
Y111555D01*
X41491Y111555D01*
X41405Y111985D01*
X41162Y112348D01*
X41162Y112348D01*
X40699Y112812D01*
X40674Y112876D01*
X40515Y113042D01*
X40459Y113108D01*
X40451Y113118D01*
X40448Y113123D01*
X40447Y113124D01*
X40443Y113130D01*
X40389Y113401D01*
X40080Y113864D01*
X39616Y114173D01*
X39070Y114282D01*
D02*
G37*
G36*
X150609Y117849D02*
X148646Y115886D01*
X149410Y115123D01*
Y114496D01*
X148043Y113129D01*
X147978Y113104D01*
X147813Y112945D01*
X147746Y112888D01*
X147737Y112881D01*
X147731Y112878D01*
X147730Y112876D01*
X147724Y112873D01*
X147454Y112819D01*
X146991Y112509D01*
X146681Y112046D01*
X146573Y111500D01*
X146681Y110954D01*
X146991Y110491D01*
X147454Y110181D01*
X148000Y110073D01*
X148518Y110176D01*
X148549Y110154D01*
X148748Y109698D01*
X145313Y106263D01*
X140682D01*
X140619Y106291D01*
X140390Y106296D01*
X140303Y106303D01*
X140291Y106305D01*
X140285Y106306D01*
X140283Y106306D01*
X140276Y106307D01*
X140046Y106461D01*
X139500Y106569D01*
X138954Y106461D01*
X138491Y106151D01*
X138181Y105688D01*
X138073Y105142D01*
X138181Y104596D01*
X138491Y104133D01*
X138954Y103823D01*
X139500Y103715D01*
X140046Y103823D01*
X140274Y103975D01*
X140537Y103992D01*
X140609Y103992D01*
X140675Y104020D01*
X145778D01*
X145778Y104020D01*
X146207Y104106D01*
X146571Y104349D01*
X150957Y108736D01*
X151022Y108760D01*
X151187Y108919D01*
X151254Y108976D01*
X151263Y108983D01*
X151268Y108986D01*
X151270Y108988D01*
X151276Y108992D01*
X151546Y109046D01*
X152009Y109355D01*
X152319Y109818D01*
X152427Y110364D01*
X152319Y110910D01*
X152009Y111374D01*
X151546Y111683D01*
X151000Y111792D01*
X150482Y111689D01*
X150451Y111710D01*
X150252Y112166D01*
X151541Y113455D01*
X151541Y113455D01*
X151784Y113819D01*
X151869Y114248D01*
X151869Y114248D01*
Y114628D01*
X152849Y115608D01*
X150609Y117849D01*
D02*
G37*
G36*
X-10378Y108039D02*
X-12150D01*
X-12142Y107667D01*
X-12105Y107272D01*
X-11390D01*
X-11534Y107252D01*
X-11663Y107192D01*
X-11777Y107092D01*
X-11876Y106952D01*
X-11960Y106772D01*
X-11995Y106659D01*
X-11960Y106547D01*
X-11876Y106367D01*
X-11777Y106227D01*
X-11663Y106127D01*
X-11534Y106067D01*
X-11390Y106047D01*
X-12112D01*
X-12119Y105992D01*
X-12142Y105652D01*
X-12144Y105575D01*
X-10378D01*
Y106260D01*
Y108039D01*
D02*
G37*
G36*
X150496Y104963D02*
Y103727D01*
X151732D01*
X151691Y103929D01*
X151294Y104525D01*
X150698Y104922D01*
X150496Y104963D01*
D02*
G37*
G36*
X149496D02*
X149294Y104922D01*
X148698Y104525D01*
X148300Y103929D01*
X148260Y103727D01*
X149496D01*
Y104963D01*
D02*
G37*
G36*
X-10378Y104575D02*
X-12143D01*
X-12142Y104517D01*
X-12103Y104103D01*
X-11390D01*
X-11534Y104083D01*
X-11663Y104023D01*
X-11777Y103923D01*
X-11876Y103782D01*
X-11960Y103603D01*
X-11992Y103500D01*
X-11960Y103397D01*
X-11876Y103217D01*
X-11777Y103077D01*
X-11663Y102977D01*
X-11534Y102917D01*
X-11390Y102897D01*
X-12110D01*
X-12119Y102823D01*
X-12142Y102482D01*
X-12143Y102425D01*
X-10378D01*
Y103091D01*
Y104575D01*
D02*
G37*
G36*
X151732Y102727D02*
X150496D01*
Y101491D01*
X150698Y101531D01*
X151294Y101929D01*
X151691Y102524D01*
X151732Y102727D01*
D02*
G37*
G36*
X149496D02*
X148260D01*
X148300Y102524D01*
X148698Y101929D01*
X149294Y101531D01*
X149496Y101491D01*
Y102727D01*
D02*
G37*
G36*
X83543Y101004D02*
X82307D01*
X82347Y100801D01*
X82745Y100206D01*
X83340Y99808D01*
X83543Y99768D01*
Y101004D01*
D02*
G37*
G36*
X-10378Y101425D02*
X-12144D01*
X-12142Y101348D01*
X-12105Y100953D01*
X-11390D01*
X-11534Y100933D01*
X-11663Y100873D01*
X-11777Y100773D01*
X-11876Y100633D01*
X-11960Y100453D01*
X-11995Y100340D01*
X-11960Y100228D01*
X-11876Y100048D01*
X-11777Y99908D01*
X-11663Y99808D01*
X-11534Y99748D01*
X-11390Y99728D01*
X-12112D01*
X-12119Y99673D01*
X-12142Y99333D01*
X-12150Y98961D01*
X-10378D01*
Y99941D01*
Y101425D01*
D02*
G37*
G36*
X74778Y100133D02*
X73542D01*
Y98897D01*
X73745Y98937D01*
X74340Y99335D01*
X74738Y99930D01*
X74778Y100133D01*
D02*
G37*
G36*
X72543D02*
X71307D01*
X71347Y99930D01*
X71745Y99335D01*
X72340Y98937D01*
X72543Y98897D01*
Y100133D01*
D02*
G37*
G36*
X136500Y103927D02*
X135954Y103819D01*
X135491Y103509D01*
X135181Y103046D01*
X135073Y102500D01*
X135181Y101954D01*
X135491Y101491D01*
X135954Y101181D01*
X136222Y101128D01*
X136420Y100954D01*
X136471Y100903D01*
X136538Y100876D01*
X139249Y98164D01*
X139249Y98164D01*
X139613Y97921D01*
X140042Y97836D01*
X140042Y97836D01*
X150318D01*
X150381Y97808D01*
X150610Y97803D01*
X150698Y97796D01*
X150709Y97795D01*
X150715Y97793D01*
X150717Y97794D01*
X150724Y97792D01*
X150954Y97639D01*
X151500Y97530D01*
X152046Y97639D01*
X152509Y97948D01*
X152819Y98411D01*
X152927Y98958D01*
X152819Y99504D01*
X152509Y99967D01*
X152046Y100276D01*
X151500Y100385D01*
X150954Y100276D01*
X150726Y100124D01*
X150463Y100108D01*
X150391Y100107D01*
X150325Y100079D01*
X140507D01*
X138129Y102457D01*
X138104Y102522D01*
X137945Y102687D01*
X137888Y102754D01*
X137881Y102763D01*
X137878Y102769D01*
X137876Y102770D01*
X137873Y102776D01*
X137819Y103046D01*
X137509Y103509D01*
X137046Y103819D01*
X136500Y103927D01*
D02*
G37*
G36*
X44057Y96400D02*
X40369D01*
X36682D01*
X36706Y96280D01*
X36902Y95986D01*
X37016Y95621D01*
X36902Y95256D01*
X36706Y94962D01*
X36682Y94841D01*
X40369D01*
X44057D01*
X44033Y94962D01*
X43837Y95256D01*
X43723Y95621D01*
X43837Y95986D01*
X44033Y96280D01*
X44057Y96400D01*
D02*
G37*
G36*
X103424Y97245D02*
X102009Y95831D01*
X103423Y94416D01*
X104838Y95831D01*
X103424Y97245D01*
D02*
G37*
G36*
X101302Y95123D02*
X99888Y93709D01*
X101302Y92295D01*
X102716Y93709D01*
X101302Y95123D01*
D02*
G37*
G36*
X46042Y93518D02*
Y92282D01*
X47278D01*
X47238Y92485D01*
X46840Y93080D01*
X46245Y93478D01*
X46042Y93518D01*
D02*
G37*
G36*
X105545Y95123D02*
X103777Y93356D01*
X102009Y91588D01*
X103424Y90174D01*
X104378Y91129D01*
X104382Y91125D01*
X104446Y91101D01*
X104914Y90633D01*
X105938D01*
X106500Y91195D01*
Y92219D01*
X106032Y92687D01*
X106007Y92751D01*
X106004Y92754D01*
X106959Y93709D01*
X105545Y95123D01*
D02*
G37*
G36*
X39869Y91282D02*
X36682D01*
X36706Y91162D01*
X37057Y90636D01*
X37583Y90284D01*
X38204Y90161D01*
X39869D01*
Y91282D01*
D02*
G37*
G36*
X47278D02*
X46042D01*
Y90047D01*
X46245Y90087D01*
X46840Y90485D01*
X47238Y91080D01*
X47278Y91282D01*
D02*
G37*
G36*
X44057Y93841D02*
X40369D01*
X36682D01*
X36706Y93721D01*
X36902Y93427D01*
X37016Y93062D01*
X36902Y92697D01*
X36706Y92403D01*
X36682Y92282D01*
X40369D01*
Y91782D01*
X40869D01*
Y90161D01*
X42535D01*
X43155Y90284D01*
X43666Y90626D01*
X43855Y90634D01*
X43914Y90661D01*
X44127D01*
X44245Y90485D01*
X44840Y90087D01*
X45042Y90047D01*
Y91782D01*
Y93518D01*
X44840Y93478D01*
X44465Y93227D01*
X44314Y93241D01*
X44049Y93693D01*
X44042Y93767D01*
X44057Y93841D01*
D02*
G37*
G36*
X134000Y100934D02*
X133454Y100825D01*
X132991Y100516D01*
X132681Y100053D01*
X132573Y99506D01*
X132681Y98960D01*
X132991Y98497D01*
X133454Y98188D01*
X133722Y98134D01*
X133920Y97960D01*
X133971Y97909D01*
X134038Y97883D01*
X139878Y92042D01*
Y91656D01*
X139850Y91593D01*
X139845Y91364D01*
X139838Y91277D01*
X139837Y91265D01*
X139835Y91259D01*
X139835Y91257D01*
X139834Y91250D01*
X139681Y91021D01*
X139572Y90474D01*
X139681Y89928D01*
X139990Y89465D01*
X140453Y89156D01*
X140999Y89047D01*
X141546Y89156D01*
X142009Y89465D01*
X142318Y89928D01*
X142427Y90474D01*
X142318Y91021D01*
X142166Y91248D01*
X142149Y91511D01*
X142149Y91583D01*
X142121Y91649D01*
Y92507D01*
X142121Y92507D01*
X142036Y92936D01*
X141793Y93300D01*
X141793Y93300D01*
X135629Y99464D01*
X135604Y99528D01*
X135445Y99694D01*
X135388Y99760D01*
X135381Y99769D01*
X135378Y99775D01*
X135377Y99776D01*
X135373Y99782D01*
X135319Y100053D01*
X135009Y100516D01*
X134546Y100825D01*
X134000Y100934D01*
D02*
G37*
G36*
X107000Y87000D02*
X105764D01*
X105804Y86798D01*
X106202Y86202D01*
X106798Y85804D01*
X107000Y85764D01*
Y87000D01*
D02*
G37*
G36*
X82000Y108631D02*
X81376Y108507D01*
X80847Y108153D01*
X78206Y105514D01*
X66543D01*
X65918Y105389D01*
X65389Y105036D01*
X65035Y104506D01*
X64911Y103882D01*
X65035Y103258D01*
X65389Y102729D01*
X65918Y102375D01*
X66543Y102251D01*
X71393D01*
X71625Y101751D01*
X71347Y101335D01*
X71307Y101133D01*
X74778D01*
X74738Y101335D01*
X74460Y101751D01*
X74692Y102251D01*
X78882D01*
X79506Y102375D01*
X80036Y102729D01*
X82000Y104693D01*
X83075Y103617D01*
X83008Y102977D01*
X82745Y102801D01*
X82347Y102206D01*
X82307Y102004D01*
X84043D01*
Y101504D01*
X84543D01*
Y99768D01*
X84745Y99808D01*
X85340Y100206D01*
X85516Y100469D01*
X86156Y100537D01*
X102847Y83846D01*
X103376Y83493D01*
X104000Y83369D01*
X104624Y83493D01*
X105154Y83846D01*
X105507Y84376D01*
X105631Y85000D01*
X105507Y85624D01*
X105154Y86154D01*
X83153Y108153D01*
X82624Y108507D01*
X82000Y108631D01*
D02*
G37*
G36*
X-11414Y82000D02*
X-14885D01*
X-14845Y81798D01*
X-14781Y81702D01*
Y79059D01*
X-14985D01*
Y77771D01*
X-13000D01*
X-11016D01*
Y79059D01*
X-11518D01*
Y81702D01*
X-11454Y81798D01*
X-11414Y82000D01*
D02*
G37*
G36*
X-4479Y59419D02*
X-9222D01*
Y55660D01*
X-9222Y55660D01*
Y55659D01*
X-9222D01*
X-9222Y55160D01*
Y52491D01*
Y49840D01*
X-9222Y49341D01*
X-9222Y48841D01*
Y45581D01*
X-4479D01*
Y46061D01*
X-4470Y46063D01*
X-4374Y46079D01*
X-4246Y46090D01*
X-4074Y46095D01*
X-4012Y46122D01*
X-1182D01*
X-1119Y46095D01*
X-890Y46090D01*
X-802Y46083D01*
X-791Y46081D01*
X-785Y46080D01*
X-783Y46080D01*
X-776Y46079D01*
X-546Y45925D01*
X0Y45817D01*
X546Y45925D01*
X1009Y46235D01*
X1319Y46698D01*
X1427Y47244D01*
X1319Y47790D01*
X1009Y48253D01*
X546Y48563D01*
X0Y48671D01*
X-546Y48563D01*
X-774Y48411D01*
X-1037Y48394D01*
X-1109Y48393D01*
X-1175Y48366D01*
X-4004D01*
X-4016Y48368D01*
X-4074Y48393D01*
X-4187Y48396D01*
X-4479Y48445D01*
X-4479Y49340D01*
X-4479Y49980D01*
X-4187Y50029D01*
X-4074Y50032D01*
X-4016Y50058D01*
X-4004Y50059D01*
X-1182D01*
X-1119Y50032D01*
X-890Y50027D01*
X-802Y50020D01*
X-791Y50018D01*
X-785Y50017D01*
X-783Y50017D01*
X-776Y50016D01*
X-546Y49862D01*
X0Y49754D01*
X546Y49862D01*
X1009Y50172D01*
X1319Y50635D01*
X1427Y51181D01*
X1319Y51727D01*
X1009Y52190D01*
X546Y52500D01*
X0Y52608D01*
X-546Y52500D01*
X-774Y52348D01*
X-1037Y52331D01*
X-1109Y52330D01*
X-1175Y52302D01*
X-4018D01*
X-4083Y52330D01*
X-4260Y52332D01*
X-4479Y52344D01*
Y53996D01*
X-1182D01*
X-1119Y53969D01*
X-890Y53964D01*
X-802Y53957D01*
X-791Y53955D01*
X-785Y53954D01*
X-783Y53954D01*
X-776Y53953D01*
X-546Y53799D01*
X0Y53691D01*
X546Y53799D01*
X1009Y54109D01*
X1319Y54572D01*
X1427Y55118D01*
X1319Y55664D01*
X1009Y56127D01*
X546Y56437D01*
X0Y56545D01*
X-546Y56437D01*
X-774Y56285D01*
X-1037Y56268D01*
X-1109Y56267D01*
X-1175Y56239D01*
X-4479D01*
Y59419D01*
D02*
G37*
G36*
X60000Y50236D02*
Y49000D01*
X61236D01*
X61196Y49202D01*
X60798Y49798D01*
X60202Y50196D01*
X60000Y50236D01*
D02*
G37*
G36*
X52500Y52087D02*
X52264Y52040D01*
X51640Y51623D01*
X51224Y51000D01*
X51077Y50264D01*
Y48500D01*
X52500D01*
Y52087D01*
D02*
G37*
G36*
X165094Y51347D02*
X156720D01*
Y46910D01*
X165094D01*
Y51347D01*
D02*
G37*
G36*
X155720D02*
X147346D01*
Y46910D01*
X155720D01*
Y51347D01*
D02*
G37*
G36*
X61236Y48000D02*
X60000D01*
Y46764D01*
X60202Y46804D01*
X60798Y47202D01*
X61196Y47798D01*
X61236Y48000D01*
D02*
G37*
G36*
X15000Y66620D02*
X14376Y66496D01*
X13847Y66142D01*
X13493Y65613D01*
X13369Y64989D01*
Y31496D01*
Y27602D01*
X13493Y26977D01*
X13847Y26448D01*
X15648Y24646D01*
X16177Y24293D01*
X16802Y24169D01*
X20052D01*
X20092Y24151D01*
X20454Y24141D01*
X20752Y24115D01*
X20998Y24074D01*
X21190Y24023D01*
X21325Y23968D01*
X21406Y23919D01*
X21443Y23885D01*
X21456Y23866D01*
X21463Y23845D01*
X21475Y23732D01*
X21485Y23713D01*
Y23536D01*
X21557Y23172D01*
X21235Y22672D01*
X10410D01*
X1629Y31453D01*
X1604Y31518D01*
X1445Y31683D01*
X1388Y31750D01*
X1381Y31759D01*
X1378Y31765D01*
X1376Y31766D01*
X1373Y31771D01*
X1319Y32042D01*
X1009Y32505D01*
X546Y32815D01*
X0Y32923D01*
X-546Y32815D01*
X-774Y32663D01*
X-1037Y32646D01*
X-1109Y32645D01*
X-1175Y32618D01*
X-4012D01*
X-4074Y32645D01*
X-4246Y32650D01*
X-4373Y32661D01*
X-4469Y32677D01*
X-4479Y32679D01*
Y33840D01*
X-4479Y33840D01*
X-4317Y34273D01*
X-4245Y34280D01*
X-4074Y34284D01*
X-4012Y34312D01*
X-1182D01*
X-1119Y34284D01*
X-890Y34279D01*
X-802Y34272D01*
X-791Y34270D01*
X-785Y34269D01*
X-783Y34269D01*
X-776Y34268D01*
X-546Y34114D01*
X0Y34006D01*
X546Y34114D01*
X1009Y34424D01*
X1319Y34887D01*
X1427Y35433D01*
X1319Y35979D01*
X1009Y36442D01*
X546Y36752D01*
X0Y36860D01*
X-546Y36752D01*
X-774Y36600D01*
X-1037Y36583D01*
X-1109Y36582D01*
X-1175Y36555D01*
X-4012D01*
X-4075Y36582D01*
X-4246Y36586D01*
X-4374Y36597D01*
X-4472Y36612D01*
X-4479Y36614D01*
Y38186D01*
X-4468Y38189D01*
X-4372Y38205D01*
X-4245Y38216D01*
X-4074Y38221D01*
X-4012Y38249D01*
X-1182D01*
X-1119Y38221D01*
X-890Y38216D01*
X-802Y38209D01*
X-791Y38207D01*
X-785Y38206D01*
X-783Y38206D01*
X-776Y38205D01*
X-546Y38051D01*
X0Y37943D01*
X546Y38051D01*
X1009Y38361D01*
X1319Y38824D01*
X1427Y39370D01*
X1319Y39916D01*
X1009Y40379D01*
X546Y40689D01*
X0Y40797D01*
X-546Y40689D01*
X-774Y40537D01*
X-1037Y40520D01*
X-1109Y40519D01*
X-1175Y40492D01*
X-4023D01*
X-4091Y40519D01*
X-4140Y40554D01*
X-4479Y41006D01*
Y42128D01*
X-4478Y42129D01*
X-4084Y42158D01*
X-4032Y42180D01*
X-3982Y42185D01*
X-1182D01*
X-1119Y42158D01*
X-890Y42153D01*
X-802Y42146D01*
X-791Y42144D01*
X-785Y42143D01*
X-783Y42143D01*
X-776Y42142D01*
X-546Y41988D01*
X0Y41880D01*
X546Y41988D01*
X1009Y42298D01*
X1319Y42761D01*
X1427Y43307D01*
X1319Y43853D01*
X1009Y44316D01*
X546Y44626D01*
X0Y44734D01*
X-546Y44626D01*
X-774Y44474D01*
X-1037Y44457D01*
X-1109Y44456D01*
X-1175Y44429D01*
X-4024D01*
X-4091Y44456D01*
X-4126Y44442D01*
X-4162Y44452D01*
X-4378Y44429D01*
X-5583D01*
X-5583Y44429D01*
X-6012Y44343D01*
X-6183Y44229D01*
X-8612Y43960D01*
X-9072Y43919D01*
X-9072D01*
X-9072Y43919D01*
X-9222D01*
X-9235Y43485D01*
X-9222Y43376D01*
Y43351D01*
X-9256Y43235D01*
X-9222Y43175D01*
Y40160D01*
X-9222Y40160D01*
Y40159D01*
X-9222D01*
X-9222Y39660D01*
Y36991D01*
Y34340D01*
X-9222Y33841D01*
X-9222D01*
Y33840D01*
X-9222D01*
Y30081D01*
X-5246D01*
X-5202Y30053D01*
X-5143Y30066D01*
X-5086Y30044D01*
X-4998Y30081D01*
X-4479D01*
Y30327D01*
X-4251Y30344D01*
X-4080Y30347D01*
X-4016Y30375D01*
X-1182D01*
X-1119Y30347D01*
X-890Y30342D01*
X-802Y30335D01*
X-791Y30333D01*
X-785Y30332D01*
X-783Y30332D01*
X-776Y30331D01*
X-546Y30177D01*
X-278Y30124D01*
X-80Y29950D01*
X-29Y29899D01*
X38Y29872D01*
X516Y29394D01*
X270Y28933D01*
X0Y28986D01*
X-546Y28878D01*
X-774Y28726D01*
X-1037Y28709D01*
X-1109Y28708D01*
X-1175Y28681D01*
X-4023D01*
X-4091Y28708D01*
X-4095Y28707D01*
X-4099Y28708D01*
X-4289Y28706D01*
X-4305Y28699D01*
X-4322Y28705D01*
X-4642Y28684D01*
X-4650Y28681D01*
X-5831D01*
X-6260Y28595D01*
X-6524Y28419D01*
X-9222D01*
Y24660D01*
X-9222Y24660D01*
Y24659D01*
X-9222D01*
X-9222Y24160D01*
Y21490D01*
Y18840D01*
X-9222Y18341D01*
X-9222D01*
Y18340D01*
X-9222D01*
Y14581D01*
X-5178D01*
X-5086Y14544D01*
X-5071Y14550D01*
X-5055Y14545D01*
X-4055Y14600D01*
X-3999Y14626D01*
X-1182D01*
X-1119Y14599D01*
X-890Y14594D01*
X-802Y14587D01*
X-791Y14585D01*
X-785Y14584D01*
X-783Y14584D01*
X-776Y14583D01*
X-546Y14429D01*
X0Y14321D01*
X546Y14429D01*
X1009Y14739D01*
X1319Y15202D01*
X1427Y15748D01*
X1319Y16294D01*
X1009Y16757D01*
X546Y17067D01*
X0Y17175D01*
X-546Y17067D01*
X-774Y16915D01*
X-1037Y16898D01*
X-1109Y16897D01*
X-1175Y16870D01*
X-4004D01*
X-4016Y16872D01*
X-4074Y16897D01*
X-4187Y16900D01*
X-4479Y16949D01*
Y18340D01*
X-4063Y18544D01*
X-4018Y18564D01*
X-1182D01*
X-1119Y18536D01*
X-890Y18531D01*
X-802Y18524D01*
X-791Y18522D01*
X-785Y18521D01*
X-783Y18521D01*
X-776Y18520D01*
X-546Y18366D01*
X0Y18258D01*
X546Y18366D01*
X1009Y18676D01*
X1319Y19139D01*
X1427Y19685D01*
X1374Y19955D01*
X1835Y20201D01*
X4479Y17557D01*
X4479Y17557D01*
X4842Y17314D01*
X5272Y17229D01*
X5272Y17229D01*
X48350D01*
X48350Y17229D01*
X48780Y17314D01*
X49143Y17557D01*
X52743Y21157D01*
X52811Y21185D01*
X53017Y21392D01*
X53019Y21398D01*
X53025Y21400D01*
X53698Y22102D01*
X53705Y22119D01*
X53706Y22119D01*
X53722Y22128D01*
X53773Y22187D01*
X53793Y22207D01*
X53793Y22207D01*
X53808Y22229D01*
X53808Y22229D01*
X53848Y22281D01*
X53851Y22294D01*
X53880Y22337D01*
X54071Y22465D01*
X54400Y22956D01*
X54515Y23536D01*
Y28064D01*
X54400Y28644D01*
X54071Y29135D01*
X53580Y29463D01*
X53000Y29579D01*
X52420Y29463D01*
X51929Y29135D01*
X51600Y28644D01*
X51485Y28064D01*
Y23536D01*
X51487Y23527D01*
X51475Y23492D01*
X51495Y23449D01*
X51486Y23401D01*
X51523Y23346D01*
X51544Y23238D01*
X51517Y23196D01*
X51285Y22917D01*
X51126Y22752D01*
X51120Y22736D01*
X51105Y22728D01*
X51086Y22672D01*
X47886Y19472D01*
X41711D01*
X41520Y19934D01*
X42743Y21157D01*
X42811Y21185D01*
X43017Y21392D01*
X43019Y21398D01*
X43025Y21400D01*
X43698Y22102D01*
X43705Y22119D01*
X43705Y22119D01*
X43722Y22128D01*
X43773Y22187D01*
X43793Y22207D01*
X43808Y22229D01*
X43808Y22229D01*
X43848Y22281D01*
X43851Y22294D01*
X43880Y22337D01*
X44071Y22465D01*
X44400Y22956D01*
X44515Y23536D01*
Y28064D01*
X44400Y28644D01*
X44071Y29135D01*
X43580Y29463D01*
X43000Y29579D01*
X42420Y29463D01*
X41929Y29135D01*
X41600Y28644D01*
X41485Y28064D01*
Y23536D01*
X41487Y23527D01*
X41475Y23492D01*
X41495Y23449D01*
X41486Y23401D01*
X41523Y23346D01*
X41544Y23238D01*
X41517Y23196D01*
X41285Y22917D01*
X41126Y22752D01*
X41120Y22736D01*
X41105Y22728D01*
X41086Y22672D01*
X39486Y21072D01*
X33403D01*
X33190Y21572D01*
X33698Y22102D01*
X33705Y22119D01*
X33705Y22119D01*
X33722Y22128D01*
X33773Y22187D01*
X33793Y22207D01*
X33793Y22207D01*
X33808Y22229D01*
X33808Y22229D01*
X33848Y22281D01*
X33851Y22294D01*
X33880Y22337D01*
X34071Y22465D01*
X34400Y22956D01*
X34515Y23536D01*
Y28064D01*
X34400Y28644D01*
X34071Y29135D01*
X33580Y29463D01*
X33000Y29579D01*
X32420Y29463D01*
X31929Y29135D01*
X31600Y28644D01*
X31485Y28064D01*
Y23536D01*
X31487Y23527D01*
X31475Y23492D01*
X31495Y23449D01*
X31486Y23401D01*
X31523Y23346D01*
X31544Y23238D01*
X31517Y23196D01*
X31285Y22917D01*
X31126Y22752D01*
X31120Y22736D01*
X31105Y22728D01*
X31086Y22672D01*
X29765D01*
X29443Y23172D01*
X29515Y23536D01*
Y27944D01*
X29528Y27976D01*
X29515Y28009D01*
Y28044D01*
X29522Y28070D01*
X29510Y28090D01*
X29473Y28275D01*
X29511Y28331D01*
X29750Y28619D01*
X29913Y28788D01*
X29939Y28853D01*
X43587Y42500D01*
X75818D01*
X75881Y42473D01*
X76111Y42468D01*
X76197Y42461D01*
X76209Y42459D01*
X76215Y42458D01*
X76217Y42458D01*
X76224Y42457D01*
X76454Y42303D01*
X77000Y42195D01*
X77546Y42303D01*
X78009Y42613D01*
X78319Y43076D01*
X78427Y43622D01*
X78319Y44168D01*
X78009Y44631D01*
X77546Y44941D01*
X77000Y45049D01*
X76454Y44941D01*
X76226Y44789D01*
X75963Y44772D01*
X75891Y44771D01*
X75825Y44743D01*
X55160D01*
X54825Y45244D01*
X54923Y45736D01*
Y47357D01*
X54970Y47378D01*
X58085D01*
X58202Y47202D01*
X58798Y46804D01*
X59000Y46764D01*
Y48500D01*
Y50236D01*
X58798Y50196D01*
X58202Y49798D01*
X58085Y49622D01*
X54970D01*
X54923Y49643D01*
Y50264D01*
X54776Y51000D01*
X54360Y51623D01*
X53736Y52040D01*
X53500Y52087D01*
Y48000D01*
X53000D01*
Y47500D01*
X51077D01*
Y45736D01*
X51175Y45244D01*
X50840Y44743D01*
X49679D01*
X49417Y45244D01*
X49515Y45736D01*
Y50264D01*
X49400Y50844D01*
X49071Y51335D01*
X48580Y51663D01*
X48000Y51779D01*
X47420Y51663D01*
X46929Y51335D01*
X46600Y50844D01*
X46485Y50264D01*
Y45736D01*
X46583Y45244D01*
X46321Y44743D01*
X44679D01*
X44417Y45244D01*
X44515Y45736D01*
Y50264D01*
X44400Y50844D01*
X44071Y51335D01*
X43580Y51663D01*
X43000Y51779D01*
X42420Y51663D01*
X41929Y51335D01*
X41600Y50844D01*
X41485Y50264D01*
Y45736D01*
X41600Y45156D01*
X41929Y44665D01*
X41991Y44624D01*
X42040Y44126D01*
X28001Y30087D01*
X27935Y30060D01*
X27482Y29610D01*
X27259Y29398D01*
X27247Y29387D01*
X27217Y29328D01*
X27140Y29276D01*
X27139Y29275D01*
X27139Y29275D01*
X26929Y29135D01*
X26600Y28644D01*
X26485Y28064D01*
Y23536D01*
X26557Y23172D01*
X26235Y22672D01*
X24765D01*
X24442Y23172D01*
X24515Y23536D01*
Y25215D01*
X24631Y25800D01*
X24515Y26385D01*
Y28064D01*
X24400Y28644D01*
X24071Y29135D01*
X23580Y29463D01*
X23000Y29579D01*
X22420Y29463D01*
X21929Y29135D01*
X21600Y28644D01*
X21485Y28064D01*
Y27887D01*
X21475Y27868D01*
X21463Y27755D01*
X21456Y27734D01*
X21443Y27715D01*
X21406Y27681D01*
X21325Y27632D01*
X21190Y27577D01*
X20998Y27525D01*
X20752Y27485D01*
X20454Y27459D01*
X20092Y27449D01*
X20052Y27431D01*
X17477D01*
X16631Y28277D01*
Y31496D01*
Y64989D01*
X16507Y65613D01*
X16153Y66142D01*
X15624Y66496D01*
X15000Y66620D01*
D02*
G37*
G36*
X38000Y51779D02*
X37420Y51663D01*
X36929Y51335D01*
X36600Y50844D01*
X36485Y50264D01*
Y45736D01*
X36600Y45156D01*
X36929Y44665D01*
X37420Y44337D01*
X38000Y44221D01*
X38580Y44337D01*
X39071Y44665D01*
X39400Y45156D01*
X39515Y45736D01*
Y50264D01*
X39400Y50844D01*
X39071Y51335D01*
X38580Y51663D01*
X38000Y51779D01*
D02*
G37*
G36*
X33000D02*
X32420Y51663D01*
X31929Y51335D01*
X31600Y50844D01*
X31485Y50264D01*
Y45736D01*
X31600Y45156D01*
X31929Y44665D01*
X32420Y44337D01*
X33000Y44221D01*
X33580Y44337D01*
X34071Y44665D01*
X34400Y45156D01*
X34515Y45736D01*
Y50264D01*
X34400Y50844D01*
X34071Y51335D01*
X33580Y51663D01*
X33000Y51779D01*
D02*
G37*
G36*
X28000D02*
X27420Y51663D01*
X26929Y51335D01*
X26600Y50844D01*
X26485Y50264D01*
Y45736D01*
X26600Y45156D01*
X26929Y44665D01*
X27420Y44337D01*
X28000Y44221D01*
X28580Y44337D01*
X29071Y44665D01*
X29400Y45156D01*
X29515Y45736D01*
Y50264D01*
X29400Y50844D01*
X29071Y51335D01*
X28580Y51663D01*
X28000Y51779D01*
D02*
G37*
G36*
X23000D02*
X22420Y51663D01*
X21929Y51335D01*
X21600Y50844D01*
X21485Y50264D01*
Y45736D01*
X21600Y45156D01*
X21929Y44665D01*
X22420Y44337D01*
X23000Y44221D01*
X23580Y44337D01*
X24071Y44665D01*
X24400Y45156D01*
X24515Y45736D01*
Y50264D01*
X24400Y50844D01*
X24071Y51335D01*
X23580Y51663D01*
X23000Y51779D01*
D02*
G37*
G36*
X165094Y45910D02*
X158723D01*
X158746Y45044D01*
X158820Y44193D01*
X158946Y43442D01*
X159121Y42790D01*
X159245Y42485D01*
X160249D01*
X159958Y42445D01*
X159699Y42324D01*
X159469Y42122D01*
X159441Y42082D01*
X159620Y41788D01*
X159945Y41437D01*
X160320Y41186D01*
X160746Y41035D01*
X161221Y40984D01*
X158955Y40988D01*
X158858Y40511D01*
X158782Y39907D01*
X158736Y39222D01*
X158721Y38457D01*
X153720D01*
X153705Y39222D01*
X153583Y40511D01*
X153476Y41035D01*
X153338Y41478D01*
X153170Y41840D01*
X152972Y42122D01*
X152742Y42324D01*
X152483Y42445D01*
X152192Y42485D01*
X154315D01*
X153735Y45910D01*
X147346D01*
Y41473D01*
X152625D01*
X152731Y41244D01*
X152846Y40873D01*
X152940Y40415D01*
X153056Y39185D01*
X153071Y38444D01*
X153106Y38364D01*
X153200Y37647D01*
X153395Y37177D01*
X158000D01*
Y36677D01*
X158500D01*
Y36556D01*
X161421Y40315D01*
X161179Y39888D01*
X161070Y39398D01*
X161093Y38846D01*
X161249Y38232D01*
X161537Y37556D01*
X161959Y36818D01*
X162512Y36018D01*
X163198Y35155D01*
X163552Y34756D01*
X163817Y34538D01*
X164349Y34183D01*
X164810Y33970D01*
X165200Y33899D01*
X165519Y33970D01*
X165768Y34183D01*
X165945Y34538D01*
X166051Y35035D01*
X166087Y35673D01*
Y21531D01*
X166034Y22254D01*
X165874Y23012D01*
X165609Y23806D01*
X165236Y24637D01*
X164758Y25502D01*
X164173Y26404D01*
X163482Y27342D01*
X161782Y29325D01*
X161524Y29591D01*
X161252Y29854D01*
X159360Y31465D01*
X158533Y32045D01*
X158500Y32064D01*
Y31275D01*
X158962Y30951D01*
X160816Y29373D01*
X161065Y29132D01*
X161301Y28887D01*
X162974Y26937D01*
X163639Y26035D01*
X164201Y25168D01*
X164655Y24346D01*
X165003Y23570D01*
X165063Y23390D01*
Y19032D01*
X169500D01*
Y27906D01*
Y36780D01*
X165063D01*
Y35120D01*
X164844Y34916D01*
X164563Y34821D01*
X164204Y35060D01*
X164005Y35225D01*
X163696Y35573D01*
X163034Y36405D01*
X162509Y37164D01*
X162445Y37276D01*
Y41473D01*
X165094D01*
Y45910D01*
D02*
G37*
G36*
X77000Y40049D02*
X76454Y39941D01*
X76226Y39789D01*
X75963Y39772D01*
X75891Y39771D01*
X75825Y39744D01*
X47972D01*
X47972Y39744D01*
X47543Y39658D01*
X47179Y39415D01*
X38211Y30447D01*
X38142Y30417D01*
X37457Y29712D01*
X37451Y29696D01*
X37436Y29689D01*
X37311Y29547D01*
X37207Y29443D01*
X37060Y29223D01*
X36929Y29135D01*
X36600Y28644D01*
X36485Y28064D01*
Y23536D01*
X36600Y22956D01*
X36929Y22465D01*
X37420Y22137D01*
X38000Y22021D01*
X38580Y22137D01*
X39071Y22465D01*
X39400Y22956D01*
X39515Y23536D01*
Y28064D01*
X39503Y28124D01*
X39516Y28164D01*
X39495Y28206D01*
X39503Y28253D01*
X39467Y28305D01*
X39447Y28406D01*
X39467Y28437D01*
X39696Y28714D01*
X39854Y28878D01*
X39864Y28904D01*
X39888Y28917D01*
X39903Y28967D01*
X48437Y37501D01*
X75818D01*
X75881Y37473D01*
X76111Y37468D01*
X76197Y37461D01*
X76209Y37459D01*
X76215Y37458D01*
X76217Y37458D01*
X76224Y37457D01*
X76454Y37303D01*
X77000Y37195D01*
X77546Y37303D01*
X78009Y37613D01*
X78319Y38076D01*
X78427Y38622D01*
X78319Y39168D01*
X78009Y39631D01*
X77546Y39941D01*
X77000Y40049D01*
D02*
G37*
G36*
X105000Y36736D02*
Y35500D01*
X106236D01*
X106196Y35702D01*
X105798Y36298D01*
X105202Y36696D01*
X105000Y36736D01*
D02*
G37*
G36*
X104000D02*
X103798Y36696D01*
X103202Y36298D01*
X102804Y35702D01*
X102764Y35500D01*
X104000D01*
Y36736D01*
D02*
G37*
G36*
X77000Y35049D02*
X76454Y34941D01*
X76226Y34789D01*
X75963Y34772D01*
X75891Y34771D01*
X75825Y34743D01*
X53122D01*
X53122Y34744D01*
X52693Y34658D01*
X52329Y34415D01*
X52329Y34415D01*
X48001Y30087D01*
X47934Y30060D01*
X47482Y29610D01*
X47260Y29398D01*
X47247Y29387D01*
X47217Y29328D01*
X47140Y29276D01*
X47139Y29275D01*
X47139Y29275D01*
X46929Y29135D01*
X46600Y28644D01*
X46485Y28064D01*
Y23536D01*
X46600Y22956D01*
X46929Y22465D01*
X47420Y22137D01*
X48000Y22021D01*
X48580Y22137D01*
X49071Y22465D01*
X49400Y22956D01*
X49515Y23536D01*
Y27944D01*
X49528Y27976D01*
X49515Y28009D01*
Y28044D01*
X49522Y28070D01*
X49510Y28090D01*
X49473Y28275D01*
X49510Y28331D01*
X49750Y28619D01*
X49913Y28788D01*
X49939Y28853D01*
X53587Y32500D01*
X75818D01*
X75881Y32473D01*
X76111Y32468D01*
X76197Y32461D01*
X76209Y32459D01*
X76215Y32458D01*
X76217Y32458D01*
X76224Y32457D01*
X76454Y32303D01*
X77000Y32195D01*
X77546Y32303D01*
X78009Y32613D01*
X78319Y33076D01*
X78427Y33622D01*
X78319Y34168D01*
X78009Y34631D01*
X77546Y34941D01*
X77000Y35049D01*
D02*
G37*
G36*
X106236Y34500D02*
X105000D01*
Y33264D01*
X105202Y33304D01*
X105798Y33702D01*
X106196Y34298D01*
X106236Y34500D01*
D02*
G37*
G36*
X104000D02*
X102764D01*
X102804Y34298D01*
X103202Y33702D01*
X103798Y33304D01*
X104000Y33264D01*
Y34500D01*
D02*
G37*
G36*
X157500Y36177D02*
X153555D01*
Y31346D01*
X157500D01*
Y32595D01*
X157118Y32755D01*
X156531Y32884D01*
X156024Y32863D01*
X155596Y32692D01*
X155248Y32370D01*
X157500Y35269D01*
Y36177D01*
D02*
G37*
G36*
X174937Y36780D02*
X170500D01*
Y28406D01*
X174937D01*
Y36780D01*
D02*
G37*
G36*
X97000Y28736D02*
Y27500D01*
X98236D01*
X98196Y27702D01*
X97798Y28298D01*
X97202Y28696D01*
X97000Y28736D01*
D02*
G37*
G36*
X96000D02*
X95798Y28696D01*
X95202Y28298D01*
X94804Y27702D01*
X94764Y27500D01*
X96000D01*
Y28736D01*
D02*
G37*
G36*
X98236Y26500D02*
X97000D01*
Y25264D01*
X97202Y25304D01*
X97798Y25702D01*
X98196Y26298D01*
X98236Y26500D01*
D02*
G37*
G36*
X96000D02*
X94764D01*
X94804Y26298D01*
X95202Y25702D01*
X95798Y25304D01*
X96000Y25264D01*
Y26500D01*
D02*
G37*
G36*
X174937Y27406D02*
X170500D01*
Y19032D01*
X174937D01*
Y27406D01*
D02*
G37*
G36*
X150128Y36380D02*
X141053D01*
Y19432D01*
X149299D01*
X151218Y17731D01*
X152167Y16694D01*
X153203Y15435D01*
X153547Y14952D01*
X153779Y14570D01*
X153891Y14321D01*
X153930Y14123D01*
X153955Y14085D01*
Y13636D01*
X154477D01*
X154567Y13599D01*
X154628Y13624D01*
X154692Y13611D01*
X154730Y13636D01*
X162045D01*
Y23498D01*
X154769D01*
X152675Y25343D01*
X152283Y25804D01*
X151776Y26478D01*
X151340Y27148D01*
X150973Y27812D01*
X150676Y28469D01*
X150447Y29122D01*
X150284Y29769D01*
X150187Y30412D01*
X150152Y31085D01*
X150128Y31137D01*
Y36380D01*
D02*
G37*
G36*
X0Y13238D02*
X-546Y13130D01*
X-774Y12978D01*
X-1037Y12961D01*
X-1109Y12960D01*
X-1175Y12933D01*
X-4023D01*
X-4091Y12960D01*
X-4092Y12960D01*
X-4092Y12960D01*
X-5052Y12958D01*
X-5059Y12955D01*
X-5066Y12958D01*
X-5096Y12957D01*
X-5113Y12949D01*
X-5131Y12955D01*
X-5141Y12954D01*
X-5184Y12933D01*
X-6079D01*
X-6079Y12933D01*
X-6147Y12919D01*
X-9222D01*
Y9160D01*
X-9222Y9160D01*
Y9159D01*
X-9222D01*
X-9222Y8660D01*
Y5991D01*
Y3340D01*
X-9222Y2841D01*
X-9222D01*
Y2840D01*
X-9222D01*
Y-919D01*
X-6494D01*
X-6319Y-1036D01*
X-5890Y-1122D01*
X-4297D01*
X-4214Y-1138D01*
X-4151Y-1125D01*
X-4091Y-1149D01*
X-4023Y-1122D01*
X-1182D01*
X-1119Y-1149D01*
X-890Y-1154D01*
X-802Y-1161D01*
X-791Y-1163D01*
X-785Y-1164D01*
X-783Y-1164D01*
X-776Y-1165D01*
X-546Y-1319D01*
X0Y-1427D01*
X546Y-1319D01*
X1009Y-1009D01*
X1319Y-546D01*
X1427Y0D01*
X1319Y546D01*
X1009Y1009D01*
X546Y1319D01*
X0Y1427D01*
X-546Y1319D01*
X-774Y1167D01*
X-1037Y1150D01*
X-1109Y1149D01*
X-1175Y1122D01*
X-4012D01*
X-4074Y1149D01*
X-4245Y1154D01*
X-4372Y1165D01*
X-4468Y1181D01*
X-4479Y1183D01*
Y2437D01*
X-4199Y2713D01*
X-4091Y2788D01*
X-4023Y2815D01*
X-1182D01*
X-1119Y2788D01*
X-890Y2783D01*
X-802Y2776D01*
X-791Y2774D01*
X-785Y2773D01*
X-783Y2773D01*
X-776Y2772D01*
X-546Y2618D01*
X0Y2510D01*
X546Y2618D01*
X1009Y2928D01*
X1319Y3391D01*
X1427Y3937D01*
X1319Y4483D01*
X1009Y4946D01*
X546Y5256D01*
X0Y5364D01*
X-546Y5256D01*
X-774Y5104D01*
X-1037Y5087D01*
X-1109Y5086D01*
X-1175Y5059D01*
X-4012D01*
X-4074Y5086D01*
X-4245Y5091D01*
X-4372Y5102D01*
X-4468Y5118D01*
X-4479Y5120D01*
Y6691D01*
X-4469Y6693D01*
X-4373Y6709D01*
X-4246Y6720D01*
X-4074Y6725D01*
X-4012Y6752D01*
X-1182D01*
X-1119Y6725D01*
X-890Y6720D01*
X-802Y6713D01*
X-791Y6711D01*
X-785Y6710D01*
X-783Y6710D01*
X-776Y6709D01*
X-546Y6555D01*
X0Y6447D01*
X546Y6555D01*
X1009Y6865D01*
X1319Y7328D01*
X1427Y7874D01*
X1319Y8420D01*
X1009Y8883D01*
X546Y9193D01*
X0Y9301D01*
X-546Y9193D01*
X-774Y9041D01*
X-1037Y9024D01*
X-1109Y9023D01*
X-1175Y8996D01*
X-4015D01*
X-4078Y9023D01*
X-4479Y9160D01*
Y10628D01*
X-4468Y10630D01*
X-4372Y10646D01*
X-4245Y10657D01*
X-4074Y10662D01*
X-4012Y10689D01*
X-1182D01*
X-1119Y10662D01*
X-890Y10657D01*
X-802Y10650D01*
X-791Y10648D01*
X-785Y10647D01*
X-783Y10647D01*
X-776Y10646D01*
X-546Y10492D01*
X0Y10384D01*
X546Y10492D01*
X1009Y10802D01*
X1319Y11265D01*
X1427Y11811D01*
X1319Y12357D01*
X1009Y12820D01*
X546Y13130D01*
X0Y13238D01*
D02*
G37*
G36*
X84000Y13768D02*
Y12532D01*
X85236D01*
X85196Y12735D01*
X84798Y13330D01*
X84202Y13728D01*
X84000Y13768D01*
D02*
G37*
G36*
X83000D02*
X82798Y13728D01*
X82202Y13330D01*
X81804Y12735D01*
X81764Y12532D01*
X83000D01*
Y13768D01*
D02*
G37*
G36*
X85236Y11532D02*
X84000D01*
Y10296D01*
X84202Y10337D01*
X84798Y10735D01*
X85196Y11330D01*
X85236Y11532D01*
D02*
G37*
G36*
X83000D02*
X81764D01*
X81804Y11330D01*
X82202Y10735D01*
X82798Y10337D01*
X83000Y10296D01*
Y11532D01*
D02*
G37*
G36*
X59500Y8036D02*
Y6800D01*
X60736D01*
X60696Y7002D01*
X60298Y7598D01*
X59702Y7996D01*
X59500Y8036D01*
D02*
G37*
G36*
X58500D02*
X58298Y7996D01*
X57702Y7598D01*
X57304Y7002D01*
X57264Y6800D01*
X58500D01*
Y8036D01*
D02*
G37*
G36*
X60736Y5800D02*
X59500D01*
Y4564D01*
X59702Y4604D01*
X60298Y5002D01*
X60696Y5598D01*
X60736Y5800D01*
D02*
G37*
G36*
X58500D02*
X57264D01*
X57304Y5598D01*
X57702Y5002D01*
X58298Y4604D01*
X58500Y4564D01*
Y5800D01*
D02*
G37*
%LPD*%
G36*
X101634Y167142D02*
X101539Y166966D01*
X101455Y166769D01*
X101383Y166551D01*
X101321Y166312D01*
X101271Y166052D01*
X101232Y165772D01*
X101187Y165148D01*
X101182Y164804D01*
X99182D01*
X99176Y165148D01*
X99131Y165772D01*
X99092Y166052D01*
X99042Y166312D01*
X98981Y166551D01*
X98908Y166769D01*
X98824Y166966D01*
X98729Y167142D01*
X98623Y167297D01*
X101740D01*
X101634Y167142D01*
D02*
G37*
G36*
X174452Y146542D02*
X174433Y146539D01*
X174408Y146529D01*
X174379Y146513D01*
X174345Y146489D01*
X174305Y146459D01*
X174211Y146379D01*
X174033Y146208D01*
X173326Y146915D01*
X173389Y146979D01*
X173607Y147227D01*
X173630Y147261D01*
X173647Y147291D01*
X173657Y147315D01*
X173660Y147334D01*
X174452Y146542D01*
D02*
G37*
G36*
X172507Y143761D02*
X172399Y143855D01*
X172270Y143938D01*
X172120Y144012D01*
X171950Y144076D01*
X171759Y144130D01*
X171548Y144174D01*
X171317Y144209D01*
X170792Y144248D01*
X170499Y144253D01*
X169999Y145253D01*
X170187Y145258D01*
X170345Y145273D01*
X170472Y145299D01*
X170568Y145334D01*
X170634Y145380D01*
X170670Y145436D01*
X170675Y145502D01*
X170650Y145578D01*
X170594Y145665D01*
X170507Y145761D01*
X172507Y143761D01*
D02*
G37*
G36*
X138508Y140052D02*
X138469Y139971D01*
X138452Y139882D01*
X138455Y139787D01*
X138480Y139684D01*
X138526Y139575D01*
X138593Y139458D01*
X138681Y139334D01*
X138791Y139204D01*
X138922Y139066D01*
X138215Y138358D01*
X138077Y138489D01*
X137946Y138599D01*
X137822Y138687D01*
X137706Y138754D01*
X137596Y138800D01*
X137494Y138825D01*
X137398Y138829D01*
X137310Y138811D01*
X137228Y138772D01*
X137154Y138712D01*
X138568Y140126D01*
X138508Y140052D01*
D02*
G37*
G36*
X132935Y135020D02*
X132860Y135080D01*
X132779Y135119D01*
X132690Y135136D01*
X132594Y135132D01*
X132491Y135107D01*
X132380Y135060D01*
X132262Y134991D01*
X132137Y134902D01*
X132005Y134791D01*
X131865Y134658D01*
X131158Y135365D01*
X131291Y135505D01*
X131402Y135637D01*
X131491Y135762D01*
X131560Y135880D01*
X131607Y135991D01*
X131632Y136094D01*
X131636Y136190D01*
X131619Y136279D01*
X131580Y136360D01*
X131520Y136435D01*
X132935Y135020D01*
D02*
G37*
G36*
X126698Y125440D02*
X126682Y125451D01*
X126658Y125462D01*
X126626Y125471D01*
X126585Y125478D01*
X126535Y125485D01*
X126412Y125495D01*
X126165Y125500D01*
Y126500D01*
X126256Y126501D01*
X126585Y126522D01*
X126626Y126529D01*
X126658Y126538D01*
X126682Y126549D01*
X126698Y126560D01*
Y125440D01*
D02*
G37*
G36*
X131942Y169405D02*
X132020Y169320D01*
X132110Y169245D01*
X132212Y169180D01*
X132327Y169125D01*
X132454Y169080D01*
X132593Y169045D01*
X132745Y169020D01*
X132909Y169005D01*
X133086Y169000D01*
Y168000D01*
X132909Y167995D01*
X132745Y167980D01*
X132593Y167955D01*
X132454Y167920D01*
X132327Y167875D01*
X132212Y167820D01*
X132110Y167755D01*
X132020Y167680D01*
X131942Y167595D01*
X131877Y167500D01*
Y169500D01*
X131942Y169405D01*
D02*
G37*
G36*
X121978Y169319D02*
X122032Y169247D01*
X122200Y169047D01*
X122787Y168424D01*
X123205Y168002D01*
X122721Y167072D01*
X122591Y167196D01*
X122470Y167299D01*
X122357Y167381D01*
X122252Y167442D01*
X122156Y167483D01*
X122068Y167503D01*
X121988Y167503D01*
X121917Y167482D01*
X121854Y167440D01*
X121799Y167378D01*
X121946Y169372D01*
X121978Y169319D01*
D02*
G37*
G36*
X112067Y167895D02*
X112061Y167780D01*
X112072Y167663D01*
X112098Y167545D01*
X112141Y167425D01*
X112198Y167304D01*
X112272Y167180D01*
X112362Y167055D01*
X112467Y166929D01*
X112589Y166800D01*
X111881Y166093D01*
X111753Y166214D01*
X111627Y166320D01*
X111502Y166409D01*
X111378Y166483D01*
X111257Y166541D01*
X111137Y166583D01*
X111018Y166610D01*
X110902Y166620D01*
X110787Y166615D01*
X110674Y166594D01*
X112088Y168008D01*
X112067Y167895D01*
D02*
G37*
G36*
X156348Y146369D02*
X156590Y146158D01*
X156695Y146080D01*
X156791Y146019D01*
X156876Y145977D01*
X156951Y145953D01*
X157015Y145947D01*
X157070Y145959D01*
X157114Y145989D01*
X156017Y144892D01*
X156047Y144936D01*
X156059Y144990D01*
X156053Y145055D01*
X156028Y145130D01*
X155986Y145215D01*
X155926Y145310D01*
X155848Y145416D01*
X155751Y145531D01*
X155505Y145794D01*
X156212Y146501D01*
X156348Y146369D01*
D02*
G37*
G36*
X154887Y141012D02*
X154816Y141068D01*
X154738Y141103D01*
X154653Y141118D01*
X154560Y141112D01*
X154460Y141085D01*
X154352Y141037D01*
X154236Y140969D01*
X154114Y140879D01*
X153983Y140769D01*
X153846Y140638D01*
X153139Y141345D01*
X153270Y141483D01*
X153380Y141613D01*
X153469Y141736D01*
X153538Y141851D01*
X153586Y141959D01*
X153612Y142060D01*
X153619Y142153D01*
X153604Y142238D01*
X153568Y142316D01*
X153512Y142386D01*
X154887Y141012D01*
D02*
G37*
G36*
X152823Y130855D02*
X152838Y130645D01*
X152852Y130552D01*
X152870Y130468D01*
X152891Y130392D01*
X152917Y130323D01*
X152946Y130264D01*
X152979Y130212D01*
X153017Y130169D01*
X151329Y128464D01*
X151423Y128569D01*
X151506Y128683D01*
X151580Y128809D01*
X151644Y128944D01*
X151698Y129090D01*
X151742Y129246D01*
X151777Y129412D01*
X151801Y129589D01*
X151816Y129776D01*
X151821Y129973D01*
X152821Y130973D01*
X152823Y130855D01*
D02*
G37*
G36*
X113912Y123154D02*
X113922Y123129D01*
X113939Y123100D01*
X113962Y123066D01*
X113992Y123026D01*
X114073Y122932D01*
X114244Y122754D01*
X113537Y122047D01*
X113472Y122110D01*
X113224Y122328D01*
X113190Y122351D01*
X113161Y122368D01*
X113136Y122378D01*
X113117Y122381D01*
X113909Y123173D01*
X113912Y123154D01*
D02*
G37*
G36*
X150445Y121656D02*
X150371Y121716D01*
X150289Y121755D01*
X150200Y121772D01*
X150104Y121768D01*
X150001Y121742D01*
X149890Y121695D01*
X149772Y121627D01*
X149647Y121537D01*
X149515Y121426D01*
X149376Y121294D01*
X148669Y122001D01*
X148801Y122141D01*
X148912Y122273D01*
X149002Y122398D01*
X149070Y122516D01*
X149117Y122626D01*
X149142Y122729D01*
X149146Y122826D01*
X149129Y122914D01*
X149091Y122996D01*
X149031Y123070D01*
X150445Y121656D01*
D02*
G37*
G36*
X154019Y122843D02*
X153934Y122728D01*
X153859Y122603D01*
X153794Y122468D01*
X153739Y122323D01*
X153694Y122168D01*
X153659Y122003D01*
X153634Y121828D01*
X153619Y121643D01*
X153614Y121448D01*
X152614Y120448D01*
X152609Y120633D01*
X152594Y120788D01*
X152569Y120913D01*
X152534Y121008D01*
X152489Y121073D01*
X152434Y121108D01*
X152369Y121113D01*
X152294Y121088D01*
X152209Y121033D01*
X152114Y120948D01*
X154114Y122948D01*
X154019Y122843D01*
D02*
G37*
G36*
X144134Y118740D02*
X144071Y118675D01*
X143853Y118428D01*
X143830Y118394D01*
X143813Y118364D01*
X143803Y118340D01*
X143800Y118320D01*
X143008Y119112D01*
X143027Y119116D01*
X143052Y119125D01*
X143081Y119142D01*
X143115Y119166D01*
X143155Y119196D01*
X143249Y119276D01*
X143427Y119447D01*
X144134Y118740D01*
D02*
G37*
G36*
X153614Y119710D02*
X153619Y119436D01*
X153658Y118970D01*
X153693Y118778D01*
X153737Y118613D01*
X153791Y118476D01*
X153855Y118366D01*
X153929Y118284D01*
X154012Y118229D01*
X154105Y118202D01*
X152122Y118480D01*
X152216Y118483D01*
X152299Y118518D01*
X152373Y118587D01*
X152437Y118688D01*
X152491Y118823D01*
X152535Y118990D01*
X152570Y119190D01*
X152594Y119423D01*
X152614Y119989D01*
X153614Y119710D01*
D02*
G37*
G36*
X134926Y114014D02*
X134947Y113685D01*
X134955Y113644D01*
X134964Y113611D01*
X134974Y113587D01*
X134986Y113571D01*
X133866D01*
X133877Y113587D01*
X133887Y113611D01*
X133896Y113644D01*
X133904Y113685D01*
X133911Y113734D01*
X133920Y113857D01*
X133926Y114104D01*
X134926D01*
X134926Y114014D01*
D02*
G37*
G36*
X117992Y107579D02*
X117973Y107576D01*
X117948Y107566D01*
X117919Y107549D01*
X117885Y107526D01*
X117845Y107496D01*
X117751Y107415D01*
X117573Y107244D01*
X116866Y107951D01*
X116929Y108016D01*
X117147Y108263D01*
X117170Y108298D01*
X117187Y108327D01*
X117197Y108352D01*
X117200Y108371D01*
X117992Y107579D01*
D02*
G37*
G36*
X114992Y107363D02*
X114973Y107360D01*
X114948Y107350D01*
X114919Y107333D01*
X114885Y107310D01*
X114845Y107280D01*
X114751Y107199D01*
X114573Y107028D01*
X113865Y107735D01*
X113929Y107800D01*
X114147Y108047D01*
X114170Y108082D01*
X114187Y108111D01*
X114197Y108135D01*
X114200Y108155D01*
X114992Y107363D01*
D02*
G37*
G36*
X117925Y104703D02*
X117903Y104702D01*
X117876Y104694D01*
X117844Y104678D01*
X117807Y104656D01*
X117766Y104627D01*
X117670Y104548D01*
X117555Y104442D01*
X117491Y104379D01*
X116861Y105163D01*
X116925Y105227D01*
X117187Y105524D01*
X117198Y105544D01*
X117202Y105559D01*
X117925Y104703D01*
D02*
G37*
G36*
X120681Y104700D02*
X120662Y104697D01*
X120637Y104687D01*
X120608Y104670D01*
X120573Y104647D01*
X120534Y104617D01*
X120440Y104536D01*
X120262Y104366D01*
X119554Y105073D01*
X119618Y105137D01*
X119836Y105385D01*
X119859Y105419D01*
X119876Y105448D01*
X119886Y105473D01*
X119889Y105492D01*
X120681Y104700D01*
D02*
G37*
G36*
X116137Y69693D02*
X116385Y69475D01*
X116419Y69452D01*
X116448Y69435D01*
X116473Y69425D01*
X116492Y69422D01*
X115700Y68630D01*
X115697Y68649D01*
X115687Y68674D01*
X115670Y68703D01*
X115647Y68737D01*
X115617Y68777D01*
X115536Y68871D01*
X115366Y69050D01*
X116073Y69757D01*
X116137Y69693D01*
D02*
G37*
G36*
Y64693D02*
X116385Y64475D01*
X116419Y64452D01*
X116448Y64435D01*
X116473Y64425D01*
X116492Y64422D01*
X115700Y63630D01*
X115697Y63649D01*
X115687Y63674D01*
X115670Y63703D01*
X115647Y63737D01*
X115617Y63777D01*
X115536Y63871D01*
X115366Y64050D01*
X116073Y64757D01*
X116137Y64693D01*
D02*
G37*
G36*
Y59693D02*
X116385Y59475D01*
X116419Y59452D01*
X116448Y59435D01*
X116473Y59425D01*
X116492Y59422D01*
X115700Y58630D01*
X115697Y58649D01*
X115687Y58674D01*
X115670Y58703D01*
X115647Y58737D01*
X115617Y58777D01*
X115536Y58871D01*
X115366Y59049D01*
X116073Y59757D01*
X116137Y59693D01*
D02*
G37*
G36*
Y54693D02*
X116385Y54475D01*
X116419Y54452D01*
X116448Y54435D01*
X116473Y54425D01*
X116492Y54422D01*
X115700Y53630D01*
X115697Y53649D01*
X115687Y53674D01*
X115670Y53703D01*
X115647Y53737D01*
X115617Y53777D01*
X115536Y53871D01*
X115366Y54049D01*
X116073Y54757D01*
X116137Y54693D01*
D02*
G37*
G36*
X-571Y108101D02*
X-587Y108113D01*
X-612Y108123D01*
X-644Y108132D01*
X-685Y108140D01*
X-734Y108146D01*
X-857Y108156D01*
X-1104Y108161D01*
Y109161D01*
X-1014Y109162D01*
X-685Y109183D01*
X-644Y109191D01*
X-612Y109200D01*
X-587Y109210D01*
X-571Y109221D01*
Y108101D01*
D02*
G37*
G36*
X-5093Y109566D02*
X-5062Y109481D01*
X-5012Y109406D01*
X-4941Y109341D01*
X-4850Y109286D01*
X-4738Y109241D01*
X-4607Y109206D01*
X-4455Y109181D01*
X-4283Y109166D01*
X-4091Y109161D01*
Y108161D01*
X-4283Y108156D01*
X-4455Y108141D01*
X-4607Y108116D01*
X-4738Y108081D01*
X-4850Y108036D01*
X-4941Y107981D01*
X-5012Y107916D01*
X-5062Y107841D01*
X-5093Y107756D01*
X-5103Y107661D01*
Y109661D01*
X-5093Y109566D01*
D02*
G37*
G36*
X-571Y104164D02*
X-587Y104176D01*
X-612Y104186D01*
X-644Y104195D01*
X-685Y104203D01*
X-734Y104209D01*
X-857Y104219D01*
X-1104Y104224D01*
Y105224D01*
X-1014Y105225D01*
X-685Y105246D01*
X-644Y105254D01*
X-612Y105263D01*
X-587Y105273D01*
X-571Y105284D01*
Y104164D01*
D02*
G37*
G36*
X-5092Y105629D02*
X-5061Y105544D01*
X-5010Y105469D01*
X-4939Y105404D01*
X-4848Y105349D01*
X-4737Y105304D01*
X-4605Y105269D01*
X-4454Y105244D01*
X-4282Y105229D01*
X-4091Y105224D01*
Y104224D01*
X-4281Y104223D01*
X-4931Y104181D01*
X-5001Y104165D01*
X-5051Y104146D01*
X-5081Y104126D01*
X-5091Y104103D01*
X-5103Y105724D01*
X-5092Y105629D01*
D02*
G37*
G36*
X-607Y100266D02*
X-624Y100280D01*
X-649Y100293D01*
X-682Y100304D01*
X-723Y100313D01*
X-773Y100322D01*
X-896Y100333D01*
X-1053Y100339D01*
X-1143Y100340D01*
X-1058Y101340D01*
X-967Y101341D01*
X-570Y101368D01*
X-547Y101375D01*
X-533Y101384D01*
X-607Y100266D01*
D02*
G37*
G36*
X-5017Y97300D02*
X-4991Y97289D01*
X-4960Y97269D01*
X-4925Y97241D01*
X-4887Y97204D01*
X-5594Y96497D01*
X-6268Y97205D01*
X-5091Y97193D01*
X-5089Y97232D01*
X-5083Y97262D01*
X-5072Y97284D01*
X-5058Y97298D01*
X-5040Y97303D01*
X-5017Y97300D01*
D02*
G37*
G36*
X-571Y96290D02*
X-587Y96302D01*
X-612Y96312D01*
X-644Y96321D01*
X-685Y96329D01*
X-734Y96335D01*
X-857Y96345D01*
X-1104Y96350D01*
Y97350D01*
X-1014Y97351D01*
X-685Y97372D01*
X-644Y97380D01*
X-612Y97389D01*
X-587Y97399D01*
X-571Y97410D01*
Y96290D01*
D02*
G37*
G36*
X39873Y112827D02*
X39883Y112803D01*
X39900Y112773D01*
X39923Y112739D01*
X39953Y112700D01*
X40034Y112606D01*
X40205Y112427D01*
X39498Y111720D01*
X39433Y111784D01*
X39186Y112001D01*
X39151Y112025D01*
X39122Y112041D01*
X39097Y112051D01*
X39078Y112055D01*
X39870Y112847D01*
X39873Y112827D01*
D02*
G37*
G36*
X40874Y111082D02*
X40889Y110910D01*
X40914Y110758D01*
X40949Y110627D01*
X40994Y110515D01*
X41049Y110424D01*
X41114Y110353D01*
X41189Y110303D01*
X41274Y110273D01*
X41369Y110262D01*
X39369D01*
X39464Y110273D01*
X39549Y110303D01*
X39624Y110353D01*
X39689Y110424D01*
X39744Y110515D01*
X39789Y110627D01*
X39824Y110758D01*
X39849Y110910D01*
X39864Y111082D01*
X39869Y111274D01*
X40869D01*
X40874Y111082D01*
D02*
G37*
G36*
X48471Y107822D02*
X48455Y107834D01*
X48431Y107844D01*
X48399Y107853D01*
X48358Y107861D01*
X48309Y107867D01*
X48185Y107877D01*
X47938Y107882D01*
Y108882D01*
X48029Y108883D01*
X48358Y108904D01*
X48399Y108912D01*
X48431Y108921D01*
X48455Y108931D01*
X48471Y108942D01*
Y107822D01*
D02*
G37*
G36*
X44094Y105226D02*
X43895Y105029D01*
X43109Y104331D01*
X43084Y104329D01*
X43080Y104352D01*
X41914Y105156D01*
X42002Y105112D01*
X42101Y105093D01*
X42213Y105100D01*
X42335Y105132D01*
X42469Y105190D01*
X42615Y105273D01*
X42772Y105382D01*
X42941Y105516D01*
X43122Y105675D01*
X43314Y105860D01*
X44094Y105226D01*
D02*
G37*
G36*
X149135Y111927D02*
X149071Y111863D01*
X148853Y111615D01*
X148830Y111581D01*
X148813Y111552D01*
X148803Y111527D01*
X148800Y111508D01*
X148008Y112300D01*
X148027Y112303D01*
X148052Y112313D01*
X148081Y112330D01*
X148115Y112353D01*
X148155Y112383D01*
X148249Y112464D01*
X148427Y112635D01*
X149135Y111927D01*
D02*
G37*
G36*
X150992Y109564D02*
X150973Y109561D01*
X150948Y109551D01*
X150919Y109535D01*
X150885Y109511D01*
X150845Y109481D01*
X150751Y109401D01*
X150573Y109230D01*
X149865Y109937D01*
X149929Y110001D01*
X150147Y110249D01*
X150170Y110283D01*
X150187Y110313D01*
X150197Y110337D01*
X150200Y110356D01*
X150992Y109564D01*
D02*
G37*
G36*
X140087Y105691D02*
X140111Y105680D01*
X140144Y105671D01*
X140185Y105664D01*
X140234Y105657D01*
X140357Y105647D01*
X140604Y105642D01*
Y104642D01*
X140514Y104641D01*
X140185Y104620D01*
X140144Y104613D01*
X140111Y104604D01*
X140087Y104593D01*
X140071Y104582D01*
Y105702D01*
X140087Y105691D01*
D02*
G37*
G36*
X137303Y102473D02*
X137313Y102448D01*
X137330Y102419D01*
X137353Y102385D01*
X137383Y102345D01*
X137464Y102251D01*
X137635Y102073D01*
X136927Y101365D01*
X136863Y101429D01*
X136615Y101647D01*
X136581Y101670D01*
X136552Y101687D01*
X136527Y101697D01*
X136508Y101700D01*
X137300Y102492D01*
X137303Y102473D01*
D02*
G37*
G36*
X150929Y98398D02*
X150913Y98409D01*
X150889Y98419D01*
X150856Y98428D01*
X150815Y98436D01*
X150766Y98443D01*
X150643Y98452D01*
X150396Y98458D01*
Y99458D01*
X150486Y99458D01*
X150815Y99479D01*
X150856Y99487D01*
X150889Y99496D01*
X150913Y99506D01*
X150929Y99518D01*
Y98398D01*
D02*
G37*
G36*
X41274Y96312D02*
X41189Y96282D01*
X41114Y96232D01*
X41049Y96161D01*
X40994Y96070D01*
X40949Y95958D01*
X40914Y95827D01*
X40889Y95675D01*
X40885Y95621D01*
X40889Y95567D01*
X40914Y95415D01*
X40949Y95284D01*
X40994Y95172D01*
X41049Y95081D01*
X41114Y95010D01*
X41189Y94960D01*
X41274Y94929D01*
X41369Y94919D01*
X39369D01*
X39464Y94929D01*
X39549Y94960D01*
X39624Y95010D01*
X39689Y95081D01*
X39744Y95172D01*
X39789Y95284D01*
X39824Y95415D01*
X39849Y95567D01*
X39854Y95621D01*
X39849Y95675D01*
X39824Y95827D01*
X39789Y95958D01*
X39744Y96070D01*
X39689Y96161D01*
X39624Y96232D01*
X39549Y96282D01*
X39464Y96312D01*
X39369Y96323D01*
X41369D01*
X41274Y96312D01*
D02*
G37*
G36*
X105114Y93298D02*
X105076Y93217D01*
X105058Y93128D01*
X105062Y93032D01*
X105088Y92929D01*
X105135Y92818D01*
X105203Y92700D01*
X105293Y92575D01*
X105404Y92443D01*
X105536Y92304D01*
X104829Y91596D01*
X104690Y91729D01*
X104557Y91840D01*
X104432Y91930D01*
X104315Y91998D01*
X104204Y92045D01*
X104101Y92070D01*
X104005Y92074D01*
X103916Y92057D01*
X103834Y92019D01*
X103760Y91958D01*
X105174Y93373D01*
X105114Y93298D01*
D02*
G37*
G36*
X41274Y93753D02*
X41189Y93723D01*
X41114Y93673D01*
X41049Y93602D01*
X40994Y93511D01*
X40949Y93399D01*
X40914Y93268D01*
X40889Y93116D01*
X40885Y93062D01*
X40889Y93008D01*
X40914Y92856D01*
X40949Y92725D01*
X40994Y92613D01*
X41049Y92522D01*
X41114Y92451D01*
X41189Y92401D01*
X41274Y92370D01*
X41369Y92360D01*
X39369D01*
X39464Y92370D01*
X39549Y92401D01*
X39624Y92451D01*
X39689Y92522D01*
X39744Y92613D01*
X39789Y92725D01*
X39824Y92856D01*
X39849Y93008D01*
X39854Y93062D01*
X39849Y93116D01*
X39824Y93268D01*
X39789Y93399D01*
X39744Y93511D01*
X39689Y93602D01*
X39624Y93673D01*
X39549Y93723D01*
X39464Y93753D01*
X39369Y93764D01*
X41369D01*
X41274Y93753D01*
D02*
G37*
G36*
X42783Y92319D02*
X42825Y92311D01*
X42885Y92304D01*
X43177Y92290D01*
X43828Y92282D01*
Y91282D01*
X42760Y91237D01*
Y92327D01*
X42783Y92319D01*
D02*
G37*
G36*
X44971Y91222D02*
X44955Y91234D01*
X44931Y91244D01*
X44899Y91253D01*
X44858Y91261D01*
X44809Y91267D01*
X44685Y91277D01*
X44438Y91282D01*
Y92282D01*
X44529Y92283D01*
X44858Y92304D01*
X44899Y92312D01*
X44931Y92321D01*
X44955Y92331D01*
X44971Y92342D01*
Y91222D01*
D02*
G37*
G36*
X134803Y99479D02*
X134813Y99455D01*
X134830Y99425D01*
X134853Y99391D01*
X134883Y99352D01*
X134964Y99258D01*
X135134Y99079D01*
X134427Y98372D01*
X134363Y98436D01*
X134115Y98653D01*
X134081Y98677D01*
X134052Y98693D01*
X134027Y98703D01*
X134008Y98706D01*
X134800Y99498D01*
X134803Y99479D01*
D02*
G37*
G36*
X141500Y91488D02*
X141521Y91159D01*
X141529Y91118D01*
X141538Y91086D01*
X141548Y91062D01*
X141560Y91046D01*
X140439D01*
X140451Y91062D01*
X140461Y91086D01*
X140470Y91118D01*
X140478Y91159D01*
X140484Y91208D01*
X140494Y91332D01*
X140499Y91579D01*
X141499D01*
X141500Y91488D01*
D02*
G37*
G36*
X-571Y54558D02*
X-587Y54569D01*
X-612Y54580D01*
X-644Y54589D01*
X-685Y54596D01*
X-734Y54603D01*
X-857Y54613D01*
X-1104Y54618D01*
Y55618D01*
X-1014Y55619D01*
X-685Y55640D01*
X-644Y55647D01*
X-612Y55656D01*
X-587Y55667D01*
X-571Y55678D01*
Y54558D01*
D02*
G37*
G36*
Y50621D02*
X-587Y50632D01*
X-612Y50643D01*
X-644Y50652D01*
X-685Y50659D01*
X-734Y50666D01*
X-857Y50676D01*
X-1104Y50681D01*
Y51681D01*
X-1014Y51682D01*
X-685Y51703D01*
X-644Y51710D01*
X-612Y51719D01*
X-587Y51730D01*
X-571Y51741D01*
Y50621D01*
D02*
G37*
G36*
X-5081Y51856D02*
X-5051Y51819D01*
X-5001Y51787D01*
X-4931Y51759D01*
X-4841Y51735D01*
X-4731Y51716D01*
X-4601Y51701D01*
X-4281Y51683D01*
X-4091Y51681D01*
Y50681D01*
X-4282Y50676D01*
X-4454Y50661D01*
X-4605Y50636D01*
X-4737Y50601D01*
X-4848Y50556D01*
X-4939Y50501D01*
X-5010Y50436D01*
X-5061Y50361D01*
X-5092Y50276D01*
X-5103Y50181D01*
X-5091Y51897D01*
X-5081Y51856D01*
D02*
G37*
G36*
X-571Y46684D02*
X-587Y46695D01*
X-612Y46706D01*
X-644Y46715D01*
X-685Y46722D01*
X-734Y46729D01*
X-857Y46739D01*
X-1104Y46744D01*
Y47744D01*
X-1014Y47745D01*
X-685Y47766D01*
X-644Y47773D01*
X-612Y47782D01*
X-587Y47793D01*
X-571Y47804D01*
Y46684D01*
D02*
G37*
G36*
X-5093Y48149D02*
X-5062Y48064D01*
X-5012Y47989D01*
X-4941Y47924D01*
X-4850Y47869D01*
X-4738Y47824D01*
X-4607Y47789D01*
X-4455Y47764D01*
X-4283Y47749D01*
X-4091Y47744D01*
Y46744D01*
X-4283Y46739D01*
X-4455Y46724D01*
X-4607Y46699D01*
X-4738Y46664D01*
X-4850Y46619D01*
X-4941Y46564D01*
X-5012Y46499D01*
X-5062Y46424D01*
X-5093Y46339D01*
X-5103Y46244D01*
Y48244D01*
X-5093Y48149D01*
D02*
G37*
G36*
X58929Y47940D02*
X58913Y47951D01*
X58889Y47962D01*
X58856Y47971D01*
X58815Y47978D01*
X58766Y47985D01*
X58643Y47995D01*
X58395Y48000D01*
Y49000D01*
X58486Y49001D01*
X58815Y49022D01*
X58856Y49029D01*
X58889Y49038D01*
X58913Y49049D01*
X58929Y49060D01*
Y47940D01*
D02*
G37*
G36*
X53889Y49405D02*
X53919Y49320D01*
X53970Y49245D01*
X54041Y49180D01*
X54132Y49125D01*
X54243Y49080D01*
X54375Y49045D01*
X54527Y49020D01*
X54699Y49005D01*
X54891Y49000D01*
Y48000D01*
X54699Y47995D01*
X54527Y47980D01*
X54375Y47955D01*
X54243Y47920D01*
X54132Y47875D01*
X54041Y47820D01*
X53970Y47755D01*
X53919Y47680D01*
X53889Y47595D01*
X53879Y47500D01*
Y49500D01*
X53889Y49405D01*
D02*
G37*
G36*
X76429Y43062D02*
X76413Y43073D01*
X76389Y43084D01*
X76356Y43093D01*
X76315Y43100D01*
X76266Y43107D01*
X76143Y43117D01*
X75896Y43122D01*
Y44122D01*
X75986Y44123D01*
X76315Y44144D01*
X76356Y44151D01*
X76389Y44160D01*
X76413Y44171D01*
X76429Y44182D01*
Y43062D01*
D02*
G37*
G36*
X-571Y42747D02*
X-587Y42758D01*
X-612Y42769D01*
X-644Y42778D01*
X-685Y42785D01*
X-734Y42792D01*
X-857Y42802D01*
X-1104Y42807D01*
Y43807D01*
X-1014Y43808D01*
X-685Y43829D01*
X-644Y43836D01*
X-612Y43845D01*
X-587Y43856D01*
X-571Y43867D01*
Y42747D01*
D02*
G37*
G36*
X-4091Y42807D02*
X-4599Y42802D01*
X-5580Y42727D01*
X-5727Y42682D01*
X-5783Y42627D01*
X-5748Y42562D01*
X-5623Y42487D01*
X-5408Y42402D01*
X-5103Y42307D01*
X-8610Y43307D01*
X-4091Y43807D01*
Y42807D01*
D02*
G37*
G36*
X-571Y38810D02*
X-587Y38821D01*
X-612Y38832D01*
X-644Y38841D01*
X-685Y38848D01*
X-734Y38855D01*
X-857Y38865D01*
X-1104Y38870D01*
Y39870D01*
X-1014Y39871D01*
X-685Y39892D01*
X-644Y39899D01*
X-612Y39908D01*
X-587Y39919D01*
X-571Y39930D01*
Y38810D01*
D02*
G37*
G36*
X-4091Y38870D02*
X-4282Y38865D01*
X-4453Y38850D01*
X-4605Y38825D01*
X-4736Y38790D01*
X-4847Y38745D01*
X-4938Y38690D01*
X-5009Y38625D01*
X-5061Y38550D01*
X-5092Y38465D01*
X-5103Y38370D01*
X-5091Y39547D01*
X-5081Y39608D01*
X-5051Y39663D01*
X-5001Y39712D01*
X-4931Y39754D01*
X-4841Y39789D01*
X-4731Y39818D01*
X-4601Y39841D01*
X-4451Y39857D01*
X-4091Y39870D01*
Y38870D01*
D02*
G37*
G36*
X-571Y34873D02*
X-587Y34884D01*
X-612Y34895D01*
X-644Y34904D01*
X-685Y34911D01*
X-734Y34918D01*
X-857Y34928D01*
X-1104Y34933D01*
Y35933D01*
X-1014Y35934D01*
X-685Y35955D01*
X-644Y35962D01*
X-612Y35971D01*
X-587Y35982D01*
X-571Y35993D01*
Y34873D01*
D02*
G37*
G36*
X-5081Y36309D02*
X-5051Y36230D01*
X-5001Y36161D01*
X-4931Y36100D01*
X-4841Y36049D01*
X-4731Y36007D01*
X-4601Y35975D01*
X-4451Y35952D01*
X-4281Y35938D01*
X-4091Y35933D01*
Y34933D01*
X-4281Y34928D01*
X-4451Y34914D01*
X-4601Y34890D01*
X-4731Y34856D01*
X-4841Y34813D01*
X-4931Y34760D01*
X-5001Y34698D01*
X-5051Y34626D01*
X-5081Y34544D01*
X-5091Y34453D01*
Y36397D01*
X-5081Y36309D01*
D02*
G37*
G36*
X-571Y30936D02*
X-587Y30947D01*
X-612Y30958D01*
X-644Y30967D01*
X-685Y30974D01*
X-734Y30981D01*
X-857Y30991D01*
X-1104Y30996D01*
Y31996D01*
X-1014Y31997D01*
X-685Y32018D01*
X-644Y32025D01*
X-612Y32034D01*
X-587Y32045D01*
X-571Y32056D01*
Y30936D01*
D02*
G37*
G36*
X-5092Y32401D02*
X-5061Y32316D01*
X-5010Y32241D01*
X-4939Y32176D01*
X-4848Y32121D01*
X-4737Y32076D01*
X-4606Y32041D01*
X-4454Y32016D01*
X-4282Y32001D01*
X-4091Y31996D01*
Y30996D01*
X-4281Y30993D01*
X-4601Y30969D01*
X-4731Y30948D01*
X-4841Y30920D01*
X-4931Y30887D01*
X-5001Y30848D01*
X-5051Y30802D01*
X-5081Y30751D01*
X-5091Y30693D01*
X-5103Y32496D01*
X-5092Y32401D01*
D02*
G37*
G36*
X803Y31469D02*
X813Y31444D01*
X830Y31415D01*
X853Y31381D01*
X883Y31341D01*
X964Y31247D01*
X1135Y31069D01*
X427Y30362D01*
X363Y30425D01*
X115Y30643D01*
X81Y30666D01*
X52Y30683D01*
X27Y30693D01*
X8Y30696D01*
X800Y31488D01*
X803Y31469D01*
D02*
G37*
G36*
X29446Y29239D02*
X29266Y29052D01*
X28989Y28720D01*
X28892Y28574D01*
X28822Y28441D01*
X28778Y28321D01*
X28763Y28215D01*
X28774Y28122D01*
X28813Y28043D01*
X28879Y27977D01*
X27659Y28887D01*
X27671Y28895D01*
X27697Y28917D01*
X27935Y29146D01*
X28392Y29599D01*
X29446Y29239D01*
D02*
G37*
G36*
X-571Y26999D02*
X-587Y27010D01*
X-612Y27021D01*
X-644Y27030D01*
X-685Y27037D01*
X-734Y27044D01*
X-857Y27054D01*
X-1104Y27059D01*
Y28059D01*
X-1014Y28060D01*
X-685Y28081D01*
X-644Y28088D01*
X-612Y28097D01*
X-587Y28108D01*
X-571Y28119D01*
Y26999D01*
D02*
G37*
G36*
X-4091Y27059D02*
X-4282Y27054D01*
X-4453Y27039D01*
X-4605Y27014D01*
X-4736Y26979D01*
X-4847Y26934D01*
X-4939Y26879D01*
X-5010Y26814D01*
X-5061Y26739D01*
X-5092Y26654D01*
X-5103Y26559D01*
X-5091Y27807D01*
X-5081Y27855D01*
X-5051Y27898D01*
X-5001Y27935D01*
X-4931Y27968D01*
X-4841Y27996D01*
X-4731Y28019D01*
X-4601Y28036D01*
X-4281Y28056D01*
X-4091Y28059D01*
Y27059D01*
D02*
G37*
G36*
X803Y27532D02*
X813Y27507D01*
X830Y27478D01*
X853Y27444D01*
X883Y27404D01*
X964Y27310D01*
X1135Y27132D01*
X427Y26425D01*
X363Y26488D01*
X115Y26706D01*
X81Y26729D01*
X52Y26746D01*
X27Y26756D01*
X8Y26759D01*
X800Y27551D01*
X803Y27532D01*
D02*
G37*
G36*
X22121Y23800D02*
X22101Y23990D01*
X22041Y24160D01*
X21940Y24310D01*
X21799Y24440D01*
X21618Y24550D01*
X21397Y24640D01*
X21135Y24710D01*
X20833Y24760D01*
X20491Y24790D01*
X20109Y24800D01*
Y26800D01*
X20491Y26810D01*
X20833Y26840D01*
X21135Y26890D01*
X21397Y26960D01*
X21618Y27050D01*
X21799Y27160D01*
X21940Y27290D01*
X22041Y27440D01*
X22101Y27610D01*
X22121Y27800D01*
Y23800D01*
D02*
G37*
G36*
X-571Y23062D02*
X-587Y23073D01*
X-612Y23084D01*
X-644Y23093D01*
X-685Y23100D01*
X-734Y23107D01*
X-857Y23117D01*
X-1104Y23122D01*
Y24122D01*
X-1014Y24123D01*
X-685Y24144D01*
X-644Y24151D01*
X-612Y24160D01*
X-587Y24171D01*
X-571Y24182D01*
Y23062D01*
D02*
G37*
G36*
X-4091Y23122D02*
X-4282Y23117D01*
X-4454Y23102D01*
X-4605Y23077D01*
X-4736Y23042D01*
X-4848Y22997D01*
X-4939Y22942D01*
X-5010Y22877D01*
X-5061Y22802D01*
X-5092Y22717D01*
X-5103Y22622D01*
X-5091Y24047D01*
X-5081Y24061D01*
X-5051Y24074D01*
X-5001Y24085D01*
X-4931Y24095D01*
X-4731Y24110D01*
X-4091Y24122D01*
Y23122D01*
D02*
G37*
G36*
X803Y23595D02*
X813Y23570D01*
X830Y23541D01*
X853Y23507D01*
X883Y23467D01*
X964Y23373D01*
X1135Y23195D01*
X427Y22488D01*
X363Y22551D01*
X115Y22769D01*
X81Y22792D01*
X52Y22809D01*
X27Y22819D01*
X8Y22822D01*
X800Y23614D01*
X803Y23595D01*
D02*
G37*
G36*
X53341Y22713D02*
X53349Y22706D01*
X53333Y22677D01*
X53293Y22625D01*
X53230Y22551D01*
X52557Y21850D01*
X52351Y21644D01*
X51595Y22302D01*
X51770Y22484D01*
X52040Y22809D01*
X52133Y22952D01*
X52200Y23081D01*
X52239Y23197D01*
X52251Y23300D01*
X52236Y23389D01*
X52193Y23465D01*
X52123Y23528D01*
X53341Y22713D01*
D02*
G37*
G36*
X43341D02*
X43349Y22706D01*
X43333Y22677D01*
X43293Y22625D01*
X43230Y22551D01*
X42557Y21850D01*
X42351Y21644D01*
X41594Y22302D01*
X41770Y22484D01*
X42040Y22809D01*
X42133Y22952D01*
X42200Y23081D01*
X42239Y23197D01*
X42251Y23300D01*
X42236Y23389D01*
X42193Y23465D01*
X42123Y23528D01*
X43341Y22713D01*
D02*
G37*
G36*
X33341D02*
X33349Y22706D01*
X33333Y22677D01*
X33293Y22625D01*
X33230Y22551D01*
X32557Y21850D01*
X32351Y21644D01*
X31594Y22302D01*
X31770Y22484D01*
X32040Y22809D01*
X32133Y22952D01*
X32200Y23081D01*
X32239Y23197D01*
X32251Y23300D01*
X32236Y23389D01*
X32193Y23465D01*
X32123Y23528D01*
X33341Y22713D01*
D02*
G37*
G36*
X-571Y19125D02*
X-587Y19136D01*
X-612Y19147D01*
X-644Y19156D01*
X-685Y19163D01*
X-734Y19170D01*
X-857Y19180D01*
X-1104Y19185D01*
Y20185D01*
X-1014Y20186D01*
X-685Y20207D01*
X-644Y20214D01*
X-612Y20223D01*
X-587Y20234D01*
X-571Y20245D01*
Y19125D01*
D02*
G37*
G36*
X-5092Y20590D02*
X-5061Y20505D01*
X-5010Y20430D01*
X-4939Y20365D01*
X-4848Y20310D01*
X-4737Y20265D01*
X-4605Y20230D01*
X-4454Y20205D01*
X-4282Y20190D01*
X-4091Y20185D01*
Y19185D01*
X-4281Y19183D01*
X-4731Y19148D01*
X-4841Y19127D01*
X-4931Y19102D01*
X-5001Y19071D01*
X-5051Y19037D01*
X-5081Y18997D01*
X-5091Y18953D01*
X-5103Y20685D01*
X-5092Y20590D01*
D02*
G37*
G36*
X-5092Y16653D02*
X-5061Y16568D01*
X-5010Y16493D01*
X-4939Y16428D01*
X-4848Y16373D01*
X-4737Y16328D01*
X-4605Y16293D01*
X-4454Y16268D01*
X-4282Y16253D01*
X-4091Y16248D01*
Y15248D01*
X-5091Y15193D01*
X-5103Y16748D01*
X-5092Y16653D01*
D02*
G37*
G36*
X-571Y15188D02*
X-587Y15199D01*
X-612Y15210D01*
X-644Y15219D01*
X-685Y15226D01*
X-734Y15233D01*
X-857Y15243D01*
X-1104Y15248D01*
Y16248D01*
X-1014Y16249D01*
X-685Y16270D01*
X-644Y16277D01*
X-612Y16286D01*
X-587Y16297D01*
X-571Y16308D01*
Y15188D01*
D02*
G37*
G36*
X76429Y38062D02*
X76413Y38073D01*
X76389Y38084D01*
X76356Y38093D01*
X76315Y38100D01*
X76266Y38107D01*
X76143Y38117D01*
X75896Y38122D01*
Y39122D01*
X75986Y39123D01*
X76315Y39144D01*
X76356Y39151D01*
X76389Y39160D01*
X76413Y39171D01*
X76429Y39182D01*
Y38062D01*
D02*
G37*
G36*
X39386Y29328D02*
X39211Y29146D01*
X38943Y28823D01*
X38851Y28681D01*
X38785Y28553D01*
X38747Y28438D01*
X38737Y28337D01*
X38753Y28249D01*
X38797Y28175D01*
X38869Y28114D01*
X37659Y28887D01*
X37640Y28892D01*
X37646Y28920D01*
X37677Y28971D01*
X37734Y29044D01*
X37923Y29260D01*
X38608Y29965D01*
X39386Y29328D01*
D02*
G37*
G36*
X76429Y33062D02*
X76413Y33073D01*
X76389Y33084D01*
X76356Y33093D01*
X76315Y33100D01*
X76266Y33107D01*
X76143Y33117D01*
X75896Y33122D01*
Y34122D01*
X75986Y34123D01*
X76315Y34144D01*
X76356Y34151D01*
X76389Y34160D01*
X76413Y34171D01*
X76429Y34182D01*
Y33062D01*
D02*
G37*
G36*
X49446Y29239D02*
X49266Y29052D01*
X48989Y28720D01*
X48892Y28574D01*
X48822Y28441D01*
X48779Y28321D01*
X48763Y28215D01*
X48774Y28122D01*
X48813Y28043D01*
X48879Y27977D01*
X47659Y28887D01*
X47671Y28895D01*
X47697Y28917D01*
X47935Y29146D01*
X48392Y29599D01*
X49446Y29239D01*
D02*
G37*
G36*
X149540Y30346D02*
X149647Y29640D01*
X149825Y28934D01*
X150073Y28227D01*
X150392Y27521D01*
X150783Y26813D01*
X151243Y26106D01*
X151775Y25398D01*
X152211Y24886D01*
X154532Y22841D01*
X154567Y22886D01*
Y14248D01*
X154514Y14519D01*
X154355Y14873D01*
X154090Y15310D01*
X153719Y15830D01*
X152658Y17120D01*
X151674Y18194D01*
X149623Y20013D01*
X149516Y20044D01*
X149515Y20440D01*
X149264Y20697D01*
X149514Y21448D01*
X149504Y31052D01*
X149540Y30346D01*
D02*
G37*
G36*
X-571Y11251D02*
X-587Y11262D01*
X-612Y11273D01*
X-644Y11282D01*
X-685Y11289D01*
X-734Y11296D01*
X-857Y11306D01*
X-1104Y11311D01*
Y12311D01*
X-1014Y12312D01*
X-685Y12333D01*
X-644Y12340D01*
X-612Y12349D01*
X-587Y12360D01*
X-571Y12371D01*
Y11251D01*
D02*
G37*
G36*
X-4091Y11311D02*
X-4282Y11306D01*
X-4454Y11291D01*
X-4605Y11266D01*
X-4736Y11231D01*
X-4848Y11186D01*
X-4939Y11131D01*
X-5010Y11066D01*
X-5061Y10991D01*
X-5092Y10906D01*
X-5103Y10811D01*
X-5091Y12307D01*
X-5081Y12308D01*
X-5051Y12308D01*
X-4091Y12311D01*
Y11311D01*
D02*
G37*
G36*
X-571Y7314D02*
X-587Y7325D01*
X-612Y7336D01*
X-644Y7345D01*
X-685Y7352D01*
X-734Y7359D01*
X-857Y7369D01*
X-1104Y7374D01*
Y8374D01*
X-1014Y8375D01*
X-685Y8396D01*
X-644Y8403D01*
X-612Y8412D01*
X-587Y8423D01*
X-571Y8434D01*
Y7314D01*
D02*
G37*
G36*
X-5081Y8514D02*
X-5051Y8485D01*
X-5001Y8459D01*
X-4931Y8436D01*
X-4841Y8417D01*
X-4731Y8402D01*
X-4451Y8381D01*
X-4091Y8374D01*
Y7374D01*
X-4282Y7369D01*
X-4454Y7354D01*
X-4605Y7329D01*
X-4737Y7294D01*
X-4848Y7249D01*
X-4939Y7194D01*
X-5010Y7129D01*
X-5061Y7054D01*
X-5092Y6969D01*
X-5103Y6874D01*
X-5091Y8547D01*
X-5081Y8514D01*
D02*
G37*
G36*
X-5092Y4842D02*
X-5061Y4757D01*
X-5010Y4682D01*
X-4939Y4617D01*
X-4848Y4562D01*
X-4736Y4517D01*
X-4605Y4482D01*
X-4454Y4457D01*
X-4282Y4442D01*
X-4091Y4437D01*
Y3437D01*
X-5091Y3453D01*
X-5103Y4937D01*
X-5092Y4842D01*
D02*
G37*
G36*
X-571Y3377D02*
X-587Y3388D01*
X-612Y3399D01*
X-644Y3408D01*
X-685Y3415D01*
X-734Y3422D01*
X-857Y3432D01*
X-1104Y3437D01*
Y4437D01*
X-1014Y4438D01*
X-685Y4459D01*
X-644Y4466D01*
X-612Y4475D01*
X-587Y4486D01*
X-571Y4497D01*
Y3377D01*
D02*
G37*
G36*
X-5092Y905D02*
X-5061Y820D01*
X-5010Y745D01*
X-4939Y680D01*
X-4847Y625D01*
X-4736Y580D01*
X-4605Y545D01*
X-4454Y520D01*
X-4282Y505D01*
X-4091Y500D01*
Y-500D01*
X-5091Y-307D01*
X-5103Y1000D01*
X-5092Y905D01*
D02*
G37*
G36*
X-571Y-560D02*
X-587Y-549D01*
X-612Y-538D01*
X-644Y-529D01*
X-685Y-522D01*
X-734Y-515D01*
X-857Y-505D01*
X-1104Y-500D01*
Y500D01*
X-1014Y501D01*
X-685Y522D01*
X-644Y529D01*
X-612Y538D01*
X-587Y549D01*
X-571Y560D01*
Y-560D01*
D02*
G37*
D12*
X133000Y152500D02*
X143500Y142000D01*
Y125500D02*
Y142000D01*
X134426Y116426D02*
X143500Y125500D01*
X110182Y168500D02*
X126182Y152500D01*
X133000D01*
X120182Y168500D02*
X122000D01*
X130182D02*
X133505D01*
X53500Y48500D02*
X59500D01*
X53000Y48000D02*
X53500Y48500D01*
X43122Y43622D02*
X77000D01*
X28000Y28500D02*
X43122Y43622D01*
X28000Y25800D02*
Y28500D01*
X47972Y38622D02*
X77000D01*
X38000Y28650D02*
X47972Y38622D01*
X38000Y25800D02*
Y28650D01*
X53122Y33622D02*
X77000D01*
X48000Y28500D02*
X53122Y33622D01*
X48000Y25800D02*
Y28500D01*
X33000Y23000D02*
Y25800D01*
X31550Y21550D02*
X33000Y23000D01*
X9946Y21550D02*
X31550D01*
X43000Y23000D02*
Y25800D01*
X39950Y19950D02*
X43000Y23000D01*
X7609Y19950D02*
X39950D01*
X53000Y23000D02*
Y25800D01*
X48350Y18350D02*
X53000Y23000D01*
X5272Y18350D02*
X48350D01*
X0Y31496D02*
X9946Y21550D01*
X0Y23622D02*
X5272Y18350D01*
X0Y27559D02*
X7609Y19950D01*
X103424Y93709D02*
X107000Y90133D01*
X103424Y93551D02*
Y93709D01*
X136809Y140471D02*
X140428Y136852D01*
X152321Y125314D02*
X153114Y124521D01*
Y118114D02*
Y124521D01*
X150748Y114248D02*
Y115747D01*
X148000Y111500D02*
X150748Y114248D01*
X152321Y124946D02*
Y125314D01*
X133875Y106500D02*
X152321Y124946D01*
X129790Y106500D02*
X133875D01*
X113109Y123181D02*
X129790Y106500D01*
X115064Y99875D02*
X120689Y105500D01*
X113464Y101059D02*
X117905Y105500D01*
X118000D01*
X111864Y102243D02*
X118000Y108379D01*
X110264Y103427D02*
X115000Y108163D01*
X152321Y125314D02*
Y139820D01*
X154748Y142247D01*
X171871Y144753D02*
X174460Y147342D01*
X157253Y144753D02*
X171871D01*
X133505Y168500D02*
X157253Y144753D01*
X140999Y90474D02*
Y92507D01*
X134000Y99506D02*
X140999Y92507D01*
X140042Y98958D02*
X151500D01*
X136500Y102500D02*
X140042Y98958D01*
X145778Y105142D02*
X151000Y110364D01*
X139500Y105142D02*
X145778D01*
X134426Y113000D02*
Y116426D01*
X125500Y126000D02*
X127269D01*
X124500Y127000D02*
X125500Y126000D01*
X124500Y127000D02*
Y128000D01*
X132691Y136190D01*
X122000Y168500D02*
X146000Y144500D01*
Y121312D02*
Y144500D01*
X143000Y118312D02*
X146000Y121312D01*
X110264Y59858D02*
Y103427D01*
X111864Y63258D02*
Y102243D01*
X113464Y66658D02*
Y101059D01*
Y66658D02*
X116500Y63622D01*
X111864Y63258D02*
X116500Y58622D01*
X110264Y59858D02*
X116500Y53622D01*
X115064Y70058D02*
Y99875D01*
Y70058D02*
X116500Y68622D01*
X26542Y109696D02*
X28043Y108196D01*
Y95882D02*
Y108196D01*
X26542Y109696D02*
Y116145D01*
X23747Y146251D02*
X25543Y144456D01*
Y148810D02*
X28043Y146310D01*
X21542Y143692D02*
X22705Y142529D01*
Y138344D02*
Y142529D01*
X21233Y133544D02*
X25543Y137854D01*
X18154Y153500D02*
X35767D01*
X0Y171653D02*
X18154Y153500D01*
X35767D02*
X40369Y148898D01*
X0Y167716D02*
X10943Y156774D01*
Y149449D02*
Y156774D01*
Y149449D02*
X14052Y146339D01*
X0Y163779D02*
X8500Y155279D01*
Y149339D02*
Y155279D01*
Y149339D02*
X14059Y143780D01*
X13838Y138662D02*
X16747D01*
X4000Y148500D02*
X13838Y138662D01*
X4000Y148500D02*
Y151905D01*
X13816Y141221D02*
X16747D01*
X6000Y149037D02*
X13816Y141221D01*
X6000Y149037D02*
Y153842D01*
X14059Y143780D02*
X16747D01*
X14052Y146339D02*
X16747D01*
X0Y159842D02*
X6000Y153842D01*
X0Y155905D02*
X4000Y151905D01*
X11735Y116382D02*
X12043D01*
Y120241D01*
X0Y132283D02*
X12043Y120241D01*
X14040Y99460D02*
X16747D01*
X4000Y109500D02*
X14040Y99460D01*
X4000Y109500D02*
Y112535D01*
X14024Y102019D02*
X16747D01*
X5600Y110442D02*
X14024Y102019D01*
X5600Y110442D02*
Y114872D01*
X0Y128346D02*
X8800Y119546D01*
Y112625D02*
Y119546D01*
Y112625D02*
X14288Y107137D01*
X0Y124409D02*
X7200Y117209D01*
Y111225D02*
Y117209D01*
Y111225D02*
X13847Y104578D01*
X0Y120472D02*
X5600Y114872D01*
X0Y116535D02*
X4000Y112535D01*
X13847Y104578D02*
X16747D01*
X40369Y91782D02*
X45542D01*
X40369Y127882D02*
Y130985D01*
X24043Y107137D02*
Y116382D01*
Y107137D02*
X25543Y105637D01*
Y97382D02*
Y105637D01*
X21542Y104578D02*
Y116382D01*
X20464Y136103D02*
X22705Y138344D01*
X16747Y136103D02*
X20464D01*
X25543Y137854D02*
Y144456D01*
X13910Y96900D02*
X16747D01*
X11291Y94282D02*
X13910Y96900D01*
X11291Y86833D02*
Y94282D01*
Y86833D02*
X15043Y83082D01*
X12891Y93222D02*
X14010Y94341D01*
X12891Y89133D02*
X17042Y84982D01*
X12891Y89133D02*
Y93222D01*
X14010Y94341D02*
X16747D01*
Y89177D02*
Y91782D01*
Y89177D02*
X19042Y86882D01*
X42983Y143780D02*
X45042Y141721D01*
Y131382D02*
Y141721D01*
Y131382D02*
X46543Y129882D01*
Y108382D02*
X49042D01*
X42738Y104578D02*
X46543Y108382D01*
X40369Y104578D02*
X42738D01*
X46543Y129882D02*
X48043D01*
X40369Y143780D02*
X42983D01*
X23943Y91782D02*
X28043Y95882D01*
X16747Y91782D02*
X23943D01*
X16747Y94341D02*
X22502D01*
X25543Y97382D01*
X16747Y96900D02*
X21561D01*
X23043Y98382D01*
Y103078D01*
X21542Y104578D02*
X23043Y103078D01*
X16747Y125940D02*
X26542Y116145D01*
X16747Y125940D02*
Y130985D01*
X10943Y126982D02*
X21542Y116382D01*
X10943Y126982D02*
Y132824D01*
X12542Y127882D02*
X24043Y116382D01*
X12542Y127882D02*
Y131882D01*
X10943Y132824D02*
X14221Y136103D01*
X16747D01*
X12542Y131882D02*
X14204Y133544D01*
X16747D01*
X28043Y136882D02*
Y146310D01*
X22145Y130985D02*
X28043Y136882D01*
X16747Y130985D02*
X22145D01*
X16747Y133544D02*
X21233D01*
X40369Y109696D02*
Y111555D01*
X39070Y112855D02*
X40369Y111555D01*
Y133544D02*
Y136103D01*
Y130985D02*
Y133544D01*
Y94341D02*
Y96900D01*
Y91782D02*
Y94341D01*
X14288Y107137D02*
X16747D01*
X-6748Y120472D02*
X0D01*
X-6850Y170465D02*
X-5661Y171653D01*
X0D01*
X-6850Y167000D02*
X-6134Y167716D01*
X0D01*
X-6850Y163850D02*
X-6779Y163779D01*
X0D01*
X-6850Y160386D02*
X-6307Y159842D01*
X0D01*
X-6850Y155039D02*
X-5984Y155905D01*
X0D01*
X-6850Y151575D02*
X-6457Y151968D01*
X0D01*
X-6850Y148425D02*
X-6457Y148031D01*
X0D01*
X-6850Y144961D02*
X-5984Y144094D01*
X0D01*
X-7000Y139465D02*
X-6307Y140157D01*
X0D01*
X-7000Y136000D02*
X-6780Y136220D01*
X0D01*
X-7000Y132850D02*
X-6433Y132283D01*
X0D01*
X-7000Y129386D02*
X-5960Y128346D01*
X0D01*
X-6850Y124039D02*
X-6480Y124409D01*
X0D01*
X-6850Y120575D02*
X-6748Y120472D01*
X-6850Y117425D02*
X-5960Y116535D01*
X0D01*
X-6850Y113961D02*
X-5488Y112598D01*
X0D01*
X-6850Y108539D02*
X-6728Y108661D01*
X0D01*
X-6850Y105075D02*
X-6500Y104724D01*
X0D01*
X-6850Y101925D02*
X-5765Y100840D01*
X-53D01*
X0Y100787D01*
X-6850Y98461D02*
X-5240Y96850D01*
X0D01*
X-6850Y54075D02*
X-5807Y55118D01*
X0D01*
X-6850Y50925D02*
X-6595Y51181D01*
X0D01*
X-6850Y47461D02*
X-6634Y47244D01*
X0D01*
X-6850Y42039D02*
X-5583Y43307D01*
X0D01*
X-6850Y38575D02*
X-6055Y39370D01*
X0D01*
X-6850Y35425D02*
X-6843Y35433D01*
X0D01*
X-6850Y31961D02*
X-6386Y31496D01*
X0D01*
X-6850Y26539D02*
X-5831Y27559D01*
X0D01*
X-6850Y23075D02*
X-6303Y23622D01*
X0D01*
X-6850Y19925D02*
X-6610Y19685D01*
X0D01*
X-6850Y16461D02*
X-6138Y15748D01*
X0D01*
X-6850Y11039D02*
X-6079Y11811D01*
X0D01*
X-6850Y7575D02*
X-6551Y7874D01*
X0D01*
X-6850Y4425D02*
X-6362Y3937D01*
X0D01*
X-6850Y961D02*
X-5890Y0D01*
X0D01*
D15*
X100182Y156818D02*
Y168500D01*
Y156818D02*
X103500Y153500D01*
X15000Y27602D02*
Y31496D01*
Y27602D02*
X16802Y25800D01*
X23000D01*
X15000Y31496D02*
Y64989D01*
X30042Y78000D02*
Y88782D01*
X-13150Y124039D02*
Y144961D01*
Y82500D02*
Y98461D01*
Y77271D02*
Y82500D01*
X-13000Y72000D02*
X-8500Y76500D01*
X21135Y155600D02*
X39276D01*
X2682Y174053D02*
X21135Y155600D01*
X-9561Y174053D02*
X2682D01*
X-13150Y170465D02*
X-9561Y174053D01*
X39276Y155600D02*
X45542Y149334D01*
Y148810D02*
Y149334D01*
X-13000Y57689D02*
Y72000D01*
X-13150Y57539D02*
X-13000Y57689D01*
X66543Y103882D02*
X78882D01*
X82000Y107000D01*
X104000Y85000D01*
X27042Y91782D02*
X30143Y94882D01*
Y122782D01*
X30042Y122882D02*
X30143Y122782D01*
X16747Y114087D02*
X18043Y115382D01*
X30042Y122882D02*
Y126485D01*
X25543Y130985D02*
X30042Y126485D01*
X25543Y130985D02*
X30143Y135585D01*
Y147821D01*
X26754Y151210D02*
X30143Y147821D01*
X19060Y151210D02*
X26754D01*
X16747Y148898D02*
X19060Y151210D01*
X27042Y91782D02*
X30042Y88782D01*
X16747Y109696D02*
Y114087D01*
X-13150Y54075D02*
Y57539D01*
Y50925D02*
Y54075D01*
Y47461D02*
Y50925D01*
Y42039D02*
Y47461D01*
Y38575D02*
Y42039D01*
Y35425D02*
Y38575D01*
Y31961D02*
Y35425D01*
Y26539D02*
Y31961D01*
Y23075D02*
Y26539D01*
Y19925D02*
Y23075D01*
Y16461D02*
Y19925D01*
Y11039D02*
Y16461D01*
Y7575D02*
Y11039D01*
Y4425D02*
Y7575D01*
Y961D02*
Y4425D01*
Y167000D02*
Y170465D01*
Y163850D02*
Y167000D01*
Y160386D02*
Y163850D01*
Y155039D02*
Y160386D01*
Y151575D02*
Y155039D01*
Y148425D02*
Y151575D01*
Y144961D02*
Y148425D01*
Y120575D02*
Y124039D01*
Y117425D02*
Y120575D01*
Y113961D02*
Y117425D01*
Y108539D02*
Y113961D01*
Y105075D02*
Y108539D01*
Y101925D02*
Y105075D01*
Y98461D02*
Y101925D01*
D21*
X-13000Y77271D02*
D03*
X-13000Y73728D02*
D03*
D26*
X48000Y25800D02*
D03*
X43000D02*
D03*
X38000D02*
D03*
X33000D02*
D03*
X28000D02*
D03*
X23000D02*
D03*
X53000D02*
D03*
X53000Y48000D02*
D03*
X48000D02*
D03*
X43000D02*
D03*
X38000D02*
D03*
X33000D02*
D03*
X28000D02*
D03*
X23000D02*
D03*
D28*
X16747Y148898D02*
D03*
Y146339D02*
D03*
Y143780D02*
D03*
Y141221D02*
D03*
Y138662D02*
D03*
Y136103D02*
D03*
Y133544D02*
D03*
Y130985D02*
D03*
X40369D02*
D03*
Y133544D02*
D03*
Y136103D02*
D03*
Y138662D02*
D03*
Y141221D02*
D03*
Y143780D02*
D03*
Y146339D02*
D03*
X16747Y109696D02*
D03*
Y107137D02*
D03*
Y104578D02*
D03*
Y102019D02*
D03*
Y99460D02*
D03*
Y96900D02*
D03*
Y94341D02*
D03*
Y91782D02*
D03*
X40369D02*
D03*
Y94341D02*
D03*
Y96900D02*
D03*
Y99460D02*
D03*
Y102019D02*
D03*
Y104578D02*
D03*
Y107137D02*
D03*
D29*
Y148898D02*
D03*
Y109696D02*
D03*
D32*
X150748Y115747D02*
D03*
X153114Y118114D02*
D03*
X154748Y142247D02*
D03*
X157253Y144753D02*
D03*
D75*
X156220Y46410D02*
D03*
D76*
X170000Y27906D02*
D03*
X145591D02*
D03*
D77*
X187000Y138890D02*
D03*
D78*
Y125110D02*
D03*
D79*
X89000Y168224D02*
D03*
X86500Y163224D02*
D03*
X84000Y168224D02*
D03*
X81500Y163224D02*
D03*
X79000Y168224D02*
D03*
X76500Y163224D02*
D03*
X74000Y168224D02*
D03*
X71500Y163224D02*
D03*
X69000Y168224D02*
D03*
X66500Y163224D02*
D03*
X64000Y168224D02*
D03*
X61500Y163224D02*
D03*
X59000Y168224D02*
D03*
X56500Y163224D02*
D03*
X54000Y168224D02*
D03*
X51500Y163224D02*
D03*
X49000Y168224D02*
D03*
X46500Y163224D02*
D03*
X44000Y168224D02*
D03*
X41500Y163224D02*
D03*
X39000Y168224D02*
D03*
X36500Y163224D02*
D03*
X34000Y168224D02*
D03*
X31500Y163224D02*
D03*
X29000Y168224D02*
D03*
X26500Y163224D02*
D03*
X101500Y63224D02*
D03*
X104000Y58224D02*
D03*
X101500Y53224D02*
D03*
X104000Y48224D02*
D03*
X101500Y43224D02*
D03*
X96500Y63224D02*
D03*
X99000Y58224D02*
D03*
X96500Y53224D02*
D03*
X99000Y48224D02*
D03*
X96500Y43224D02*
D03*
X103500Y153500D02*
D03*
X104500Y35000D02*
D03*
X96500Y27000D02*
D03*
X59500Y48500D02*
D03*
X59000Y6300D02*
D03*
X83500Y12032D02*
D03*
X15000Y31496D02*
D03*
Y64989D02*
D03*
X77000Y33622D02*
D03*
Y38622D02*
D03*
Y43622D02*
D03*
X107000Y90133D02*
D03*
X140428Y136852D02*
D03*
X118000Y125110D02*
D03*
X-13150Y82500D02*
D03*
X113109Y123181D02*
D03*
X120689Y105500D02*
D03*
X118000D02*
D03*
Y108379D02*
D03*
X115000Y108163D02*
D03*
X148000Y111500D02*
D03*
X174460Y147342D02*
D03*
X140999Y90474D02*
D03*
X134000Y99506D02*
D03*
X151000Y110364D02*
D03*
X151500Y98958D02*
D03*
X136500Y102500D02*
D03*
X139500Y105142D02*
D03*
X127269Y126000D02*
D03*
X143000Y118312D02*
D03*
X134426Y113000D02*
D03*
X-8500Y76500D02*
D03*
X30000Y78000D02*
D03*
X107500Y87500D02*
D03*
X116500Y53622D02*
D03*
Y58622D02*
D03*
Y63622D02*
D03*
Y68622D02*
D03*
X104000Y84982D02*
D03*
X80500Y131687D02*
D03*
X82000Y107000D02*
D03*
X26542Y109696D02*
D03*
X18043Y115382D02*
D03*
X23747Y146251D02*
D03*
X25543Y148810D02*
D03*
X21542Y143692D02*
D03*
X12043Y116382D02*
D03*
X45542Y91782D02*
D03*
X40369Y127882D02*
D03*
X45542Y148810D02*
D03*
X30042Y122882D02*
D03*
X27042Y91782D02*
D03*
X24043Y107137D02*
D03*
X25543Y130985D02*
D03*
X15043Y83082D02*
D03*
X17042Y84982D02*
D03*
X19042Y86882D02*
D03*
X66543Y136382D02*
D03*
Y103882D02*
D03*
X73043Y139633D02*
D03*
Y100633D02*
D03*
X84043Y101504D02*
D03*
X84043Y137382D02*
D03*
X149996Y103227D02*
D03*
X134749Y144351D02*
D03*
X91543Y135382D02*
D03*
X119995Y143692D02*
D03*
X107043Y97328D02*
D03*
X49042Y108382D02*
D03*
X48043Y129882D02*
D03*
X39070Y112855D02*
D03*
X21542Y104578D02*
D03*
X0Y120472D02*
D03*
Y0D02*
D03*
Y3937D02*
D03*
Y7874D02*
D03*
Y11811D02*
D03*
Y15748D02*
D03*
Y19685D02*
D03*
Y23622D02*
D03*
Y27559D02*
D03*
Y31496D02*
D03*
Y35433D02*
D03*
Y39370D02*
D03*
Y43307D02*
D03*
Y47244D02*
D03*
Y51181D02*
D03*
Y55118D02*
D03*
Y96850D02*
D03*
Y100787D02*
D03*
Y104724D02*
D03*
Y108661D02*
D03*
Y112598D02*
D03*
Y116535D02*
D03*
Y124409D02*
D03*
Y128346D02*
D03*
Y132283D02*
D03*
Y136220D02*
D03*
Y140157D02*
D03*
Y144094D02*
D03*
Y148031D02*
D03*
Y151968D02*
D03*
Y155905D02*
D03*
Y159842D02*
D03*
Y163779D02*
D03*
Y167716D02*
D03*
Y171653D02*
D03*
D80*
X130182Y168500D02*
D03*
D03*
X120182D02*
D03*
X110182D02*
D03*
X100182D02*
D03*
D81*
X152321Y125314D02*
D03*
X174460Y147342D02*
D03*
D82*
X158000Y18567D02*
D03*
Y36677D02*
D03*
D83*
X136809Y140471D02*
D03*
X133190Y136852D02*
D03*
X103424Y93709D02*
D03*
X107043Y97328D02*
D03*
D84*
X-6850Y160386D02*
D03*
Y170465D02*
D03*
X-13150D02*
D03*
Y160386D02*
D03*
X-6850Y144961D02*
D03*
Y155039D02*
D03*
X-13150D02*
D03*
Y144961D02*
D03*
X-7000Y129386D02*
D03*
Y139465D02*
D03*
X-13299D02*
D03*
Y129386D02*
D03*
X-6850Y113961D02*
D03*
Y124039D02*
D03*
X-13150D02*
D03*
Y113961D02*
D03*
X-6850Y98461D02*
D03*
Y108539D02*
D03*
X-13150D02*
D03*
Y98461D02*
D03*
X-6850Y47461D02*
D03*
Y57539D02*
D03*
X-13150D02*
D03*
Y47461D02*
D03*
X-6850Y31961D02*
D03*
Y42039D02*
D03*
X-13150D02*
D03*
Y31961D02*
D03*
X-6850Y16461D02*
D03*
Y26539D02*
D03*
X-13150D02*
D03*
Y16461D02*
D03*
X-6850Y961D02*
D03*
Y11039D02*
D03*
X-13150D02*
D03*
Y961D02*
D03*
D85*
X-6850Y163850D02*
D03*
Y167000D02*
D03*
X-13150D02*
D03*
Y163850D02*
D03*
X-6850Y148425D02*
D03*
Y151575D02*
D03*
X-13150D02*
D03*
Y148425D02*
D03*
X-7000Y132850D02*
D03*
Y136000D02*
D03*
X-13299D02*
D03*
Y132850D02*
D03*
X-6850Y117425D02*
D03*
Y120575D02*
D03*
X-13150D02*
D03*
Y117425D02*
D03*
X-6850Y101925D02*
D03*
Y105075D02*
D03*
X-13150D02*
D03*
Y101925D02*
D03*
X-6850Y50925D02*
D03*
Y54075D02*
D03*
X-13150D02*
D03*
Y50925D02*
D03*
X-6850Y35425D02*
D03*
Y38575D02*
D03*
X-13150D02*
D03*
Y35425D02*
D03*
X-6850Y19925D02*
D03*
Y23075D02*
D03*
X-13150D02*
D03*
Y19925D02*
D03*
X-6850Y4425D02*
D03*
Y7575D02*
D03*
X-13150D02*
D03*
Y4425D02*
D03*
D86*
X154930Y18567D02*
X158000D01*
X145591Y27906D02*
X154930Y18567D01*
X166771Y27906D02*
X170000D01*
X158000Y36677D02*
X166771Y27906D01*
X156220Y38457D02*
X158000Y36677D01*
X156220Y38457D02*
Y46410D01*
M02*
