M48
;Layer_Color=9474304
;FILE_FORMAT=2:5
INCH,TZ
;TYPE=PLATED
T1F00S00C0.01200
T3F00S00C0.05906
%
T01
X59000Y6300
X83500Y12032
X96500Y27000
X104500Y35000
X101500Y43224
X96500
X99000Y48224
X104000
X101500Y53224
X96500
X99000Y58224
X104000
X101500Y63224
X96500
X116500Y63622
Y58622
Y53622
Y68622
X107500Y87500
X107000Y90133
X104000Y84982
X140999Y90474
X77000Y43622
Y38622
Y33622
X59500Y48500
X30000Y78000
X19042Y86882
X17042Y84982
X15043Y83082
X15000Y64989
X0Y55118
Y51181
Y47244
Y43307
Y39370
Y35433
Y31496
Y27559
Y23622
Y19685
Y15748
Y11811
Y7874
Y3937
Y0
X15000Y31496
X-8500Y76500
X-13150Y82500
X0Y96850
Y100787
Y104724
Y108661
Y112598
Y116535
Y120472
Y124409
Y128346
Y132283
Y136220
Y140157
Y144094
Y148031
Y151968
Y155905
Y159842
Y163779
Y167716
Y171653
X29000Y168224
X31500Y163224
X26500
X25543Y148810
X23747Y146251
X21542Y143692
X25543Y130985
X30042Y122882
X26542Y109696
X24043Y107137
X21542Y104578
X18043Y115382
X12043Y116382
X27042Y91782
X45542
X49042Y108382
X39070Y112855
X40369Y127882
X48043Y129882
X45542Y148810
X46500Y163224
X51500
X56500
X61500
X66500
X71500
X76500
X81500
X86500
X89000Y168224
X84000
X79000
X74000
X69000
X64000
X59000
X54000
X49000
X44000
X39000
X34000
X36500Y163224
X41500
X66543Y136382
X73043Y139633
X84043Y137382
X80500Y131687
X91543Y135382
X103500Y153500
X119995Y143692
X134749Y144351
X140428Y136852
X143000Y118312
X148000Y111500
X151000Y110364
X149996Y103227
X151500Y98958
X134000Y99506
X136500Y102500
X139500Y105142
X134426Y113000
X127269Y126000
X118000Y125110
X113109Y123181
X115000Y108163
X118000Y108379
Y105500
X120689
X107043Y97328
X84043Y101504
X82000Y107000
X73043Y100633
X66543Y103882
X174460Y147342
T03
X187000Y125110
Y138890
M30
