G04*
G04 #@! TF.GenerationSoftware,Altium Limited,Altium Designer,18.1.9 (240)*
G04*
G04 Layer_Color=255*
%FSLAX25Y25*%
%MOIN*%
G70*
G01*
G75*
%ADD21R,0.01968X0.01575*%
%ADD26O,0.01772X0.06299*%
%ADD28O,0.05512X0.01181*%
%ADD29R,0.05512X0.01181*%
G04:AMPARAMS|DCode=32|XSize=15.75mil|YSize=19.68mil|CornerRadius=0mil|HoleSize=0mil|Usage=FLASHONLY|Rotation=225.000|XOffset=0mil|YOffset=0mil|HoleType=Round|Shape=Rectangle|*
%AMROTATEDRECTD32*
4,1,4,-0.00139,0.01253,0.01253,-0.00139,0.00139,-0.01253,-0.01253,0.00139,-0.00139,0.01253,0.0*
%
%ADD32ROTATEDRECTD32*%

%ADD75R,0.15748X0.07874*%
%ADD76R,0.07874X0.15748*%
%ADD77C,0.09843*%
%ADD78R,0.09843X0.09843*%
%ADD80C,0.03937*%
G04:AMPARAMS|DCode=81|XSize=78.74mil|YSize=59.06mil|CornerRadius=0mil|HoleSize=0mil|Usage=FLASHONLY|Rotation=45.000|XOffset=0mil|YOffset=0mil|HoleType=Round|Shape=Rectangle|*
%AMROTATEDRECTD81*
4,1,4,-0.00696,-0.04872,-0.04872,-0.00696,0.00696,0.04872,0.04872,0.00696,-0.00696,-0.04872,0.0*
%
%ADD81ROTATEDRECTD81*%

%ADD82R,0.06890X0.08661*%
%ADD83P,0.04243X4X90.0*%
%ADD84R,0.03543X0.02559*%
%ADD85R,0.03543X0.01968*%
D21*
X-13000Y77271D02*
D03*
X-13000Y73728D02*
D03*
D26*
X48000Y25800D02*
D03*
X43000D02*
D03*
X38000D02*
D03*
X33000D02*
D03*
X28000D02*
D03*
X23000D02*
D03*
X53000D02*
D03*
X53000Y48000D02*
D03*
X48000D02*
D03*
X43000D02*
D03*
X38000D02*
D03*
X33000D02*
D03*
X28000D02*
D03*
X23000D02*
D03*
D28*
X16747Y148898D02*
D03*
Y146339D02*
D03*
Y143780D02*
D03*
Y141221D02*
D03*
Y138662D02*
D03*
Y136103D02*
D03*
Y133544D02*
D03*
Y130985D02*
D03*
X40369D02*
D03*
Y133544D02*
D03*
Y136103D02*
D03*
Y138662D02*
D03*
Y141221D02*
D03*
Y143780D02*
D03*
Y146339D02*
D03*
X16747Y109696D02*
D03*
Y107137D02*
D03*
Y104578D02*
D03*
Y102019D02*
D03*
Y99460D02*
D03*
Y96900D02*
D03*
Y94341D02*
D03*
Y91782D02*
D03*
X40369D02*
D03*
Y94341D02*
D03*
Y96900D02*
D03*
Y99460D02*
D03*
Y102019D02*
D03*
Y104578D02*
D03*
Y107137D02*
D03*
D29*
Y148898D02*
D03*
Y109696D02*
D03*
D32*
X150748Y115747D02*
D03*
X153114Y118114D02*
D03*
X154748Y142247D02*
D03*
X157253Y144753D02*
D03*
D75*
X156220Y46410D02*
D03*
D76*
X170000Y27906D02*
D03*
X145591D02*
D03*
D77*
X187000Y138890D02*
D03*
D78*
Y125110D02*
D03*
D80*
X130182Y168500D02*
D03*
D03*
X120182D02*
D03*
X110182D02*
D03*
X100182D02*
D03*
D81*
X152321Y125314D02*
D03*
X174460Y147342D02*
D03*
D82*
X158000Y18567D02*
D03*
Y36677D02*
D03*
D83*
X136809Y140471D02*
D03*
X133190Y136852D02*
D03*
X103424Y93709D02*
D03*
X107043Y97328D02*
D03*
D84*
X-6850Y160386D02*
D03*
Y170465D02*
D03*
X-13150D02*
D03*
Y160386D02*
D03*
X-6850Y144961D02*
D03*
Y155039D02*
D03*
X-13150D02*
D03*
Y144961D02*
D03*
X-7000Y129386D02*
D03*
Y139465D02*
D03*
X-13299D02*
D03*
Y129386D02*
D03*
X-6850Y113961D02*
D03*
Y124039D02*
D03*
X-13150D02*
D03*
Y113961D02*
D03*
X-6850Y98461D02*
D03*
Y108539D02*
D03*
X-13150D02*
D03*
Y98461D02*
D03*
X-6850Y47461D02*
D03*
Y57539D02*
D03*
X-13150D02*
D03*
Y47461D02*
D03*
X-6850Y31961D02*
D03*
Y42039D02*
D03*
X-13150D02*
D03*
Y31961D02*
D03*
X-6850Y16461D02*
D03*
Y26539D02*
D03*
X-13150D02*
D03*
Y16461D02*
D03*
X-6850Y961D02*
D03*
Y11039D02*
D03*
X-13150D02*
D03*
Y961D02*
D03*
D85*
X-6850Y163850D02*
D03*
Y167000D02*
D03*
X-13150D02*
D03*
Y163850D02*
D03*
X-6850Y148425D02*
D03*
Y151575D02*
D03*
X-13150D02*
D03*
Y148425D02*
D03*
X-7000Y132850D02*
D03*
Y136000D02*
D03*
X-13299D02*
D03*
Y132850D02*
D03*
X-6850Y117425D02*
D03*
Y120575D02*
D03*
X-13150D02*
D03*
Y117425D02*
D03*
X-6850Y101925D02*
D03*
Y105075D02*
D03*
X-13150D02*
D03*
Y101925D02*
D03*
X-6850Y50925D02*
D03*
Y54075D02*
D03*
X-13150D02*
D03*
Y50925D02*
D03*
X-6850Y35425D02*
D03*
Y38575D02*
D03*
X-13150D02*
D03*
Y35425D02*
D03*
X-6850Y19925D02*
D03*
Y23075D02*
D03*
X-13150D02*
D03*
Y19925D02*
D03*
X-6850Y4425D02*
D03*
Y7575D02*
D03*
X-13150D02*
D03*
Y4425D02*
D03*
M02*
