G04*
G04 #@! TF.GenerationSoftware,Altium Limited,Altium Designer,18.1.9 (240)*
G04*
G04 Layer_Physical_Order=2*
G04 Layer_Color=16711680*
%FSLAX25Y25*%
%MOIN*%
G70*
G01*
G75*
%ADD10C,0.01000*%
%ADD12C,0.02000*%
%ADD24R,0.01968X0.01575*%
%ADD71R,0.07500X0.07500*%
%ADD72C,0.07500*%
%ADD73O,0.09843X0.07874*%
%ADD74C,0.13000*%
%ADD75R,0.09843X0.09843*%
%ADD76C,0.09843*%
%ADD77R,0.15748X0.07874*%
%ADD78R,0.07874X0.15748*%
%ADD79C,0.01600*%
%ADD80R,0.03000X0.03000*%
%ADD81R,0.08661X0.06890*%
%ADD82P,0.04243X4X270.0*%
%ADD83P,0.04243X4X360.0*%
G36*
X580878Y247235D02*
Y184065D01*
X575935Y179122D01*
X445400D01*
X444971Y179036D01*
X444607Y178793D01*
X444607Y178793D01*
X439207Y173393D01*
X438964Y173029D01*
X438878Y172600D01*
X438878Y172600D01*
Y139665D01*
X433035Y133822D01*
X344865D01*
X338422Y140265D01*
Y181900D01*
X338422Y181900D01*
X338336Y182329D01*
X338093Y182693D01*
X335093Y185693D01*
X334729Y185936D01*
X334300Y186022D01*
X334300Y186022D01*
X291265D01*
X283622Y193665D01*
Y246135D01*
X290865Y253378D01*
X559100Y253379D01*
X574735D01*
X580878Y247235D01*
D02*
G37*
%LPC*%
G36*
X390200Y250136D02*
Y248900D01*
X391436D01*
X391396Y249102D01*
X390998Y249698D01*
X390402Y250096D01*
X390200Y250136D01*
D02*
G37*
G36*
X389200D02*
X388998Y250096D01*
X388402Y249698D01*
X388004Y249102D01*
X387964Y248900D01*
X389200D01*
Y250136D01*
D02*
G37*
G36*
X485613Y247436D02*
X485411Y247396D01*
X484816Y246998D01*
X484698Y246821D01*
X476015D01*
X475897Y246998D01*
X475302Y247396D01*
X475100Y247436D01*
Y245700D01*
X474600D01*
Y245200D01*
X472864D01*
X472904Y244998D01*
X473302Y244402D01*
X473897Y244004D01*
X474317Y243921D01*
X474338Y243863D01*
X474369Y243401D01*
X474019Y243166D01*
X473709Y242703D01*
X473601Y242157D01*
X473709Y241611D01*
X474019Y241148D01*
X474482Y240838D01*
X475028Y240730D01*
X475574Y240838D01*
X475755Y240959D01*
X484171Y232542D01*
X484196Y232478D01*
X484355Y232313D01*
X484412Y232246D01*
X484419Y232237D01*
X484422Y232231D01*
X484423Y232230D01*
X484427Y232224D01*
X484481Y231954D01*
X484791Y231491D01*
X485254Y231181D01*
X485800Y231073D01*
X486346Y231181D01*
X486809Y231491D01*
X487119Y231954D01*
X487227Y232500D01*
X487119Y233046D01*
X486809Y233509D01*
X486346Y233819D01*
X486078Y233872D01*
X485880Y234046D01*
X485829Y234097D01*
X485762Y234124D01*
X476936Y242950D01*
X476572Y243193D01*
X476143Y243279D01*
X476143Y243279D01*
X475869D01*
X475574Y243476D01*
X475391Y243512D01*
X475327Y243868D01*
X475343Y244032D01*
X475897Y244402D01*
X476015Y244579D01*
X484698D01*
X484816Y244402D01*
X485411Y244004D01*
X485613Y243964D01*
Y245700D01*
Y247436D01*
D02*
G37*
G36*
X455500D02*
X455297Y247396D01*
X454702Y246998D01*
X454584Y246821D01*
X449415D01*
X449298Y246998D01*
X448702Y247396D01*
X448500Y247436D01*
Y245700D01*
Y243964D01*
X448702Y244004D01*
X449298Y244402D01*
X449415Y244579D01*
X454584D01*
X454702Y244402D01*
X455297Y244004D01*
X455500Y243964D01*
Y245700D01*
Y247436D01*
D02*
G37*
G36*
X391436Y247900D02*
X390200D01*
Y246664D01*
X390402Y246704D01*
X390998Y247102D01*
X391396Y247698D01*
X391436Y247900D01*
D02*
G37*
G36*
X389200D02*
X387964D01*
X388004Y247698D01*
X388402Y247102D01*
X388998Y246704D01*
X389200Y246664D01*
Y247900D01*
D02*
G37*
G36*
X486613Y247436D02*
Y246200D01*
X487849D01*
X487809Y246402D01*
X487411Y246998D01*
X486816Y247396D01*
X486613Y247436D01*
D02*
G37*
G36*
X474100D02*
X473897Y247396D01*
X473302Y246998D01*
X472904Y246402D01*
X472864Y246200D01*
X474100D01*
Y247436D01*
D02*
G37*
G36*
X456500D02*
Y246200D01*
X457735D01*
X457695Y246402D01*
X457297Y246998D01*
X456702Y247396D01*
X456500Y247436D01*
D02*
G37*
G36*
X447500D02*
X447298Y247396D01*
X446702Y246998D01*
X446304Y246402D01*
X446264Y246200D01*
X447500D01*
Y247436D01*
D02*
G37*
G36*
X487849Y245200D02*
X486613D01*
Y243964D01*
X486816Y244004D01*
X487411Y244402D01*
X487809Y244998D01*
X487849Y245200D01*
D02*
G37*
G36*
X457735D02*
X456500D01*
Y243964D01*
X456702Y244004D01*
X457297Y244402D01*
X457695Y244998D01*
X457735Y245200D01*
D02*
G37*
G36*
X447500D02*
X446264D01*
X446304Y244998D01*
X446702Y244402D01*
X447298Y244004D01*
X447500Y243964D01*
Y245200D01*
D02*
G37*
G36*
X300841Y240462D02*
X298841D01*
Y238932D01*
X298836Y238932D01*
X298774Y238905D01*
X289884D01*
X289766Y239081D01*
X289171Y239478D01*
X288969Y239519D01*
Y237783D01*
Y236047D01*
X289171Y236087D01*
X289766Y236485D01*
X289884Y236661D01*
X298774D01*
X298836Y236634D01*
X298841Y236634D01*
Y235462D01*
X300841D01*
Y237962D01*
Y240462D01*
D02*
G37*
G36*
X303841D02*
X301841D01*
Y238462D01*
X303841D01*
Y240462D01*
D02*
G37*
G36*
X287969Y239519D02*
X287766Y239478D01*
X287171Y239081D01*
X286773Y238485D01*
X286733Y238283D01*
X287969D01*
Y239519D01*
D02*
G37*
G36*
X342101Y244053D02*
X341554Y243944D01*
X341091Y243635D01*
X340782Y243172D01*
X340673Y242626D01*
X340782Y242079D01*
X341091Y241616D01*
X341554Y241307D01*
X342101Y241198D01*
X342647Y241307D01*
X342874Y241459D01*
X343137Y241476D01*
X343209Y241476D01*
X343275Y241504D01*
X345586D01*
X345793Y241004D01*
X342143Y237354D01*
X342079Y237329D01*
X341913Y237171D01*
X341847Y237114D01*
X341837Y237107D01*
X341832Y237104D01*
X341831Y237102D01*
X341825Y237098D01*
X341554Y237044D01*
X341091Y236735D01*
X340782Y236272D01*
X340673Y235726D01*
X340782Y235179D01*
X341091Y234716D01*
X341554Y234407D01*
X342101Y234298D01*
X342647Y234407D01*
X343110Y234716D01*
X343419Y235179D01*
X343473Y235448D01*
X343647Y235646D01*
X343697Y235697D01*
X343724Y235763D01*
X347339Y239378D01*
X357755D01*
X357947Y238916D01*
X355630Y236600D01*
X358600Y233630D01*
X359349Y234379D01*
X359356Y234374D01*
X359435Y234317D01*
X359534Y234235D01*
X359659Y234116D01*
X359722Y234092D01*
X366579Y227235D01*
Y226482D01*
X366551Y226419D01*
X366546Y226189D01*
X366539Y226102D01*
X366537Y226091D01*
X366536Y226085D01*
X366536Y226083D01*
X366535Y226076D01*
X366381Y225846D01*
X366273Y225300D01*
X366381Y224754D01*
X366691Y224291D01*
X367154Y223981D01*
X367700Y223873D01*
X368246Y223981D01*
X368709Y224291D01*
X369019Y224754D01*
X369127Y225300D01*
X369019Y225846D01*
X368867Y226074D01*
X368850Y226337D01*
X368849Y226409D01*
X368822Y226475D01*
Y227700D01*
X368822Y227700D01*
X368736Y228129D01*
X368493Y228493D01*
X368493Y228493D01*
X361308Y235678D01*
X361284Y235741D01*
X361165Y235866D01*
X361083Y235965D01*
X361026Y236044D01*
X361021Y236052D01*
X361570Y236600D01*
X359253Y238916D01*
X359445Y239378D01*
X368535D01*
X368771Y239142D01*
X368796Y239078D01*
X368955Y238913D01*
X369012Y238846D01*
X369019Y238837D01*
X369022Y238831D01*
X369023Y238830D01*
X369027Y238825D01*
X369081Y238554D01*
X369391Y238091D01*
X369854Y237781D01*
X370400Y237673D01*
X370946Y237781D01*
X371409Y238091D01*
X371674Y238487D01*
X372000Y238499D01*
X372210Y238459D01*
X372491Y238038D01*
X372954Y237729D01*
X373500Y237620D01*
X374046Y237729D01*
X374509Y238038D01*
X374819Y238501D01*
X374927Y239048D01*
X374819Y239594D01*
X374509Y240057D01*
X374046Y240366D01*
X373778Y240420D01*
X373580Y240594D01*
X373529Y240644D01*
X373462Y240671D01*
X370715Y243419D01*
X370351Y243662D01*
X369922Y243747D01*
X369922Y243747D01*
X343282D01*
X343219Y243775D01*
X342990Y243780D01*
X342903Y243787D01*
X342891Y243788D01*
X342885Y243790D01*
X342883Y243790D01*
X342876Y243791D01*
X342647Y243944D01*
X342101Y244053D01*
D02*
G37*
G36*
X568491Y246070D02*
X567355Y245920D01*
X566297Y245482D01*
X565388Y244784D01*
X564691Y243876D01*
X564253Y242818D01*
X564104Y241682D01*
X564253Y240546D01*
X564691Y239488D01*
X565388Y238580D01*
X566297Y237882D01*
X567355Y237444D01*
X568491Y237295D01*
X569627Y237444D01*
X570685Y237882D01*
X571594Y238580D01*
X572291Y239488D01*
X572729Y240546D01*
X572879Y241682D01*
X572729Y242818D01*
X572291Y243876D01*
X571594Y244784D01*
X570685Y245482D01*
X569627Y245920D01*
X568491Y246070D01*
D02*
G37*
G36*
X351900Y238298D02*
Y237062D01*
X353136D01*
X353096Y237264D01*
X352698Y237860D01*
X352102Y238257D01*
X351900Y238298D01*
D02*
G37*
G36*
X350900D02*
X350698Y238257D01*
X350102Y237860D01*
X349704Y237264D01*
X349664Y237062D01*
X350900D01*
Y238298D01*
D02*
G37*
G36*
X287969Y237283D02*
X286733D01*
X286773Y237081D01*
X287171Y236485D01*
X287766Y236087D01*
X287969Y236047D01*
Y237283D01*
D02*
G37*
G36*
X354981Y236516D02*
X354340Y235876D01*
X353661Y235887D01*
X353486Y236062D01*
X352462D01*
X351900Y235500D01*
Y234476D01*
X352075Y234301D01*
X352086Y233622D01*
X351445Y232981D01*
X352860Y231567D01*
X354627Y233334D01*
X356395Y235102D01*
X354981Y236516D01*
D02*
G37*
G36*
X303841Y237462D02*
X301841D01*
Y235462D01*
X303841D01*
Y237462D01*
D02*
G37*
G36*
X497024Y236236D02*
Y235000D01*
X498260D01*
X498220Y235202D01*
X497822Y235798D01*
X497227Y236196D01*
X497024Y236236D01*
D02*
G37*
G36*
X496024D02*
X495822Y236196D01*
X495227Y235798D01*
X494829Y235202D01*
X494789Y235000D01*
X496024D01*
Y236236D01*
D02*
G37*
G36*
X350900Y236062D02*
X349664D01*
X349704Y235860D01*
X350102Y235264D01*
X350698Y234866D01*
X350900Y234826D01*
Y236062D01*
D02*
G37*
G36*
X538176Y250825D02*
X536207D01*
X535023Y250669D01*
X533919Y250212D01*
X532972Y249485D01*
X532244Y248537D01*
X531787Y247433D01*
X531631Y246249D01*
X531787Y245065D01*
X532244Y243961D01*
X532972Y243013D01*
X533919Y242286D01*
X534537Y242030D01*
X534654Y241440D01*
X528020Y234806D01*
X527957Y234783D01*
X527831Y234665D01*
X527719Y234575D01*
X527606Y234498D01*
X527490Y234433D01*
X527371Y234377D01*
X527248Y234332D01*
X527119Y234297D01*
X526984Y234271D01*
X526842Y234255D01*
X526670Y234249D01*
X526610Y234222D01*
X520271D01*
X520222Y234247D01*
X520020Y234264D01*
X519839Y234308D01*
X519622Y234388D01*
X519372Y234511D01*
X519094Y234678D01*
X518789Y234889D01*
X518465Y235140D01*
X517731Y235795D01*
X517335Y236187D01*
X517305Y236199D01*
X517303Y236203D01*
X516394Y236900D01*
X515336Y237338D01*
X514200Y237488D01*
X513064Y237338D01*
X512006Y236900D01*
X511097Y236203D01*
X510400Y235294D01*
X509962Y234236D01*
X509812Y233100D01*
X509962Y231964D01*
X510400Y230906D01*
X511097Y229997D01*
X511550Y229650D01*
X511380Y229151D01*
X507282D01*
X507219Y229178D01*
X506989Y229183D01*
X506903Y229190D01*
X506891Y229192D01*
X506885Y229193D01*
X506883Y229193D01*
X506876Y229194D01*
X506646Y229348D01*
X506100Y229456D01*
X505554Y229348D01*
X505091Y229038D01*
X504781Y228575D01*
X504673Y228029D01*
X504781Y227483D01*
X505091Y227020D01*
X505554Y226710D01*
X506100Y226602D01*
X506646Y226710D01*
X506874Y226862D01*
X507136Y226879D01*
X507209Y226880D01*
X507275Y226907D01*
X511195D01*
X511365Y226407D01*
X511097Y226203D01*
X510400Y225294D01*
X509962Y224236D01*
X509812Y223100D01*
X509962Y221964D01*
X510400Y220906D01*
X511097Y219998D01*
X512006Y219300D01*
X513064Y218862D01*
X514200Y218712D01*
X515336Y218862D01*
X516394Y219300D01*
X517303Y219998D01*
X518000Y220906D01*
X518438Y221964D01*
X518587Y223100D01*
X518524Y223583D01*
X518997Y223816D01*
X520235Y222579D01*
X520252Y222525D01*
X520404Y222347D01*
X520495Y222195D01*
X520562Y222023D01*
X520605Y221823D01*
X520622Y221589D01*
X520608Y221318D01*
X520559Y221011D01*
X520472Y220668D01*
X520345Y220291D01*
X520171Y219865D01*
X520171Y219740D01*
X519962Y219236D01*
X519812Y218100D01*
X519962Y216964D01*
X520400Y215906D01*
X521098Y214998D01*
X522006Y214300D01*
X523064Y213862D01*
X524200Y213713D01*
X525336Y213862D01*
X526394Y214300D01*
X527303Y214998D01*
X528000Y215906D01*
X528438Y216964D01*
X528587Y218100D01*
X528438Y219236D01*
X528000Y220294D01*
X527303Y221202D01*
X526394Y221900D01*
X525989Y222067D01*
X525902Y222157D01*
X525899Y222157D01*
X525897Y222159D01*
X525215Y222446D01*
X523181Y223342D01*
X523317Y223829D01*
X524200Y223712D01*
X525336Y223862D01*
X526394Y224300D01*
X527303Y224997D01*
X528000Y225906D01*
X528438Y226964D01*
X528587Y228100D01*
X528438Y229236D01*
X528000Y230294D01*
X527389Y231089D01*
X527381Y231109D01*
X527377Y231176D01*
X527443Y231432D01*
X527564Y231632D01*
X527694Y231642D01*
X527719Y231625D01*
X527831Y231535D01*
X527957Y231417D01*
X528020Y231394D01*
X536070Y223343D01*
Y190327D01*
X536043Y190265D01*
X536038Y190092D01*
X536027Y189964D01*
X536011Y189867D01*
X536008Y189854D01*
X535023Y189724D01*
X533919Y189267D01*
X532972Y188540D01*
X532244Y187592D01*
X531787Y186488D01*
X531631Y185304D01*
X531787Y184120D01*
X532244Y183016D01*
X532972Y182068D01*
X533919Y181341D01*
X535023Y180884D01*
X536207Y180728D01*
X538176D01*
X539361Y180884D01*
X540465Y181341D01*
X541412Y182068D01*
X542140Y183016D01*
X542597Y184120D01*
X542753Y185304D01*
X542597Y186488D01*
X542140Y187592D01*
X541412Y188540D01*
X540465Y189267D01*
X539361Y189724D01*
X538376Y189854D01*
X538373Y189867D01*
X538357Y189964D01*
X538346Y190092D01*
X538341Y190265D01*
X538314Y190327D01*
Y223808D01*
X538228Y224237D01*
X537985Y224601D01*
X537985Y224601D01*
X529884Y232702D01*
X529884Y232704D01*
X529872Y232714D01*
X529818Y232768D01*
X529797Y232827D01*
X529696Y232939D01*
X529647Y233009D01*
X529623Y233057D01*
X529615Y233085D01*
X529613Y233100D01*
X529615Y233115D01*
X529623Y233142D01*
X529647Y233191D01*
X529696Y233261D01*
X529797Y233373D01*
X529818Y233432D01*
X529872Y233486D01*
X529884Y233495D01*
X529884Y233498D01*
X537138Y240752D01*
X537203Y240778D01*
X537408Y240976D01*
X537788Y241305D01*
X537948Y241425D01*
X538098Y241524D01*
X538232Y241600D01*
X538346Y241652D01*
X538438Y241685D01*
X538507Y241700D01*
X538604Y241707D01*
X538664Y241737D01*
X539361Y241829D01*
X540465Y242286D01*
X541412Y243013D01*
X542140Y243961D01*
X542597Y245065D01*
X542753Y246249D01*
X542597Y247433D01*
X542140Y248537D01*
X541412Y249485D01*
X540465Y250212D01*
X539361Y250669D01*
X538176Y250825D01*
D02*
G37*
G36*
X429518Y235307D02*
Y234071D01*
X430754D01*
X430713Y234274D01*
X430315Y234869D01*
X429720Y235267D01*
X429518Y235307D01*
D02*
G37*
G36*
X428518D02*
X428315Y235267D01*
X427720Y234869D01*
X427322Y234274D01*
X427282Y234071D01*
X428518D01*
Y235307D01*
D02*
G37*
G36*
X498260Y234000D02*
X497024D01*
Y232764D01*
X497227Y232804D01*
X497822Y233202D01*
X498220Y233798D01*
X498260Y234000D01*
D02*
G37*
G36*
X496024D02*
X494789D01*
X494829Y233798D01*
X495227Y233202D01*
X495822Y232804D01*
X496024Y232764D01*
Y234000D01*
D02*
G37*
G36*
X430754Y233071D02*
X429518D01*
Y231836D01*
X429720Y231876D01*
X430315Y232274D01*
X430713Y232869D01*
X430754Y233071D01*
D02*
G37*
G36*
X428518D02*
X427282D01*
X427322Y232869D01*
X427720Y232274D01*
X428315Y231876D01*
X428518Y231836D01*
Y233071D01*
D02*
G37*
G36*
X357102Y234395D02*
X355688Y232981D01*
X357102Y231567D01*
X358517Y232981D01*
X357102Y234395D01*
D02*
G37*
G36*
X549200Y245626D02*
X547732Y245482D01*
X546320Y245053D01*
X545019Y244358D01*
X543878Y243422D01*
X542942Y242281D01*
X542247Y240980D01*
X541818Y239568D01*
X541674Y238100D01*
X541818Y236632D01*
X542247Y235220D01*
X542942Y233919D01*
X543878Y232778D01*
X545019Y231842D01*
X546320Y231147D01*
X547732Y230718D01*
X549200Y230574D01*
X550668Y230718D01*
X552080Y231147D01*
X553381Y231842D01*
X554522Y232778D01*
X555458Y233919D01*
X556153Y235220D01*
X556582Y236632D01*
X556726Y238100D01*
X556582Y239568D01*
X556153Y240980D01*
X555458Y242281D01*
X554522Y243422D01*
X553381Y244358D01*
X552080Y245053D01*
X550668Y245482D01*
X549200Y245626D01*
D02*
G37*
G36*
X354981Y232274D02*
X353567Y230860D01*
X354981Y229445D01*
X356395Y230860D01*
X354981Y232274D01*
D02*
G37*
G36*
X568491Y236069D02*
X567355Y235920D01*
X566297Y235482D01*
X565388Y234785D01*
X564691Y233876D01*
X564253Y232818D01*
X564104Y231682D01*
X564253Y230546D01*
X564691Y229488D01*
X565388Y228579D01*
X566297Y227882D01*
X567355Y227444D01*
X568491Y227294D01*
X569627Y227444D01*
X570685Y227882D01*
X571594Y228579D01*
X572291Y229488D01*
X572729Y230546D01*
X572879Y231682D01*
X572729Y232818D01*
X572291Y233876D01*
X571594Y234785D01*
X570685Y235482D01*
X569627Y235920D01*
X568491Y236069D01*
D02*
G37*
G36*
X346200Y226041D02*
Y224805D01*
X347436D01*
X347396Y225008D01*
X346998Y225603D01*
X346402Y226001D01*
X346200Y226041D01*
D02*
G37*
G36*
X377800Y225236D02*
Y224000D01*
X379036D01*
X378996Y224202D01*
X378598Y224798D01*
X378002Y225196D01*
X377800Y225236D01*
D02*
G37*
G36*
X376800D02*
X376598Y225196D01*
X376002Y224798D01*
X375604Y224202D01*
X375564Y224000D01*
X376800D01*
Y225236D01*
D02*
G37*
G36*
X379036Y223000D02*
X377800D01*
Y221764D01*
X378002Y221804D01*
X378598Y222202D01*
X378996Y222798D01*
X379036Y223000D01*
D02*
G37*
G36*
X376800D02*
X375564D01*
X375604Y222798D01*
X376002Y222202D01*
X376598Y221804D01*
X376800Y221764D01*
Y223000D01*
D02*
G37*
G36*
X461847Y221789D02*
Y220553D01*
X463083D01*
X463043Y220755D01*
X462645Y221351D01*
X462050Y221748D01*
X461847Y221789D01*
D02*
G37*
G36*
X460847D02*
X460645Y221748D01*
X460049Y221351D01*
X459652Y220755D01*
X459611Y220553D01*
X460847D01*
Y221789D01*
D02*
G37*
G36*
X404700Y220730D02*
Y219495D01*
X405936D01*
X405896Y219697D01*
X405498Y220292D01*
X404902Y220690D01*
X404700Y220730D01*
D02*
G37*
G36*
X403700D02*
X403498Y220690D01*
X402902Y220292D01*
X402504Y219697D01*
X402464Y219495D01*
X403700D01*
Y220730D01*
D02*
G37*
G36*
X496900Y220683D02*
Y219447D01*
X498136D01*
X498095Y219649D01*
X497697Y220245D01*
X497102Y220642D01*
X496900Y220683D01*
D02*
G37*
G36*
X495900D02*
X495697Y220642D01*
X495102Y220245D01*
X494704Y219649D01*
X494664Y219447D01*
X495900D01*
Y220683D01*
D02*
G37*
G36*
X372800Y220036D02*
Y218800D01*
X374036D01*
X373996Y219002D01*
X373598Y219598D01*
X373002Y219996D01*
X372800Y220036D01*
D02*
G37*
G36*
X371800D02*
X371598Y219996D01*
X371002Y219598D01*
X370604Y219002D01*
X370564Y218800D01*
X371800D01*
Y220036D01*
D02*
G37*
G36*
X365700D02*
Y218800D01*
X366936D01*
X366896Y219002D01*
X366498Y219598D01*
X365902Y219996D01*
X365700Y220036D01*
D02*
G37*
G36*
X364700D02*
X364498Y219996D01*
X363902Y219598D01*
X363504Y219002D01*
X363464Y218800D01*
X364700D01*
Y220036D01*
D02*
G37*
G36*
X463083Y219553D02*
X461847D01*
Y218317D01*
X462050Y218357D01*
X462645Y218755D01*
X463043Y219350D01*
X463083Y219553D01*
D02*
G37*
G36*
X460847D02*
X459611D01*
X459652Y219350D01*
X460049Y218755D01*
X460645Y218357D01*
X460847Y218317D01*
Y219553D01*
D02*
G37*
G36*
X413700Y218536D02*
Y217300D01*
X414936D01*
X414896Y217502D01*
X414498Y218098D01*
X413902Y218496D01*
X413700Y218536D01*
D02*
G37*
G36*
X412700D02*
X412498Y218496D01*
X411902Y218098D01*
X411504Y217502D01*
X411464Y217300D01*
X412700D01*
Y218536D01*
D02*
G37*
G36*
X405936Y218495D02*
X404700D01*
Y217259D01*
X404902Y217299D01*
X405498Y217697D01*
X405896Y218292D01*
X405936Y218495D01*
D02*
G37*
G36*
X403700D02*
X402464D01*
X402504Y218292D01*
X402902Y217697D01*
X403498Y217299D01*
X403700Y217259D01*
Y218495D01*
D02*
G37*
G36*
X498136Y218447D02*
X496900D01*
Y217211D01*
X497102Y217251D01*
X497697Y217649D01*
X498095Y218245D01*
X498136Y218447D01*
D02*
G37*
G36*
X495900D02*
X494664D01*
X494704Y218245D01*
X495102Y217649D01*
X495697Y217251D01*
X495900Y217211D01*
Y218447D01*
D02*
G37*
G36*
X374036Y217800D02*
X372800D01*
Y216564D01*
X373002Y216604D01*
X373598Y217002D01*
X373996Y217598D01*
X374036Y217800D01*
D02*
G37*
G36*
X371800D02*
X370564D01*
X370604Y217598D01*
X371002Y217002D01*
X371598Y216604D01*
X371800Y216564D01*
Y217800D01*
D02*
G37*
G36*
X366936D02*
X365700D01*
Y216564D01*
X365902Y216604D01*
X366498Y217002D01*
X366896Y217598D01*
X366936Y217800D01*
D02*
G37*
G36*
X364700D02*
X363464D01*
X363504Y217598D01*
X363902Y217002D01*
X364498Y216604D01*
X364700Y216564D01*
Y217800D01*
D02*
G37*
G36*
X466100Y217636D02*
Y216400D01*
X467336D01*
X467296Y216602D01*
X466898Y217198D01*
X466302Y217596D01*
X466100Y217636D01*
D02*
G37*
G36*
X465100D02*
X464898Y217596D01*
X464302Y217198D01*
X463904Y216602D01*
X463864Y216400D01*
X465100D01*
Y217636D01*
D02*
G37*
G36*
X414936Y216300D02*
X413700D01*
Y215064D01*
X413902Y215104D01*
X414498Y215502D01*
X414896Y216098D01*
X414936Y216300D01*
D02*
G37*
G36*
X412700D02*
X411464D01*
X411504Y216098D01*
X411902Y215502D01*
X412498Y215104D01*
X412700Y215064D01*
Y216300D01*
D02*
G37*
G36*
X308559Y240062D02*
X304359D01*
Y235862D01*
X308559D01*
Y236679D01*
X308567Y236681D01*
X308664Y236697D01*
X308791Y236708D01*
X308964Y236712D01*
X309026Y236740D01*
X318522D01*
X318589Y236712D01*
X318674Y236712D01*
X318926Y236706D01*
X318964Y236703D01*
X319053Y236643D01*
X319322Y236590D01*
X319520Y236416D01*
X319571Y236365D01*
X319637Y236338D01*
X329768Y226207D01*
X330132Y225964D01*
X330561Y225878D01*
X330562Y225879D01*
X339035D01*
X349507Y215407D01*
X349507Y215407D01*
X349871Y215164D01*
X350300Y215078D01*
X350300Y215078D01*
X352718D01*
X352781Y215051D01*
X353011Y215046D01*
X353098Y215039D01*
X353109Y215037D01*
X353115Y215036D01*
X353117Y215036D01*
X353124Y215035D01*
X353354Y214881D01*
X353900Y214773D01*
X354446Y214881D01*
X354909Y215191D01*
X355219Y215654D01*
X355327Y216200D01*
X355219Y216746D01*
X354909Y217209D01*
X354446Y217519D01*
X353900Y217627D01*
X353354Y217519D01*
X353126Y217367D01*
X352864Y217350D01*
X352791Y217349D01*
X352725Y217321D01*
X350765D01*
X346055Y222031D01*
X346220Y222574D01*
X346402Y222610D01*
X346998Y223008D01*
X347396Y223603D01*
X347436Y223805D01*
X345700D01*
Y224306D01*
X345200D01*
Y226041D01*
X344998Y226001D01*
X344402Y225603D01*
X344004Y225008D01*
X343968Y224825D01*
X343426Y224661D01*
X340293Y227793D01*
X339929Y228036D01*
X339500Y228122D01*
X339500Y228121D01*
X331026D01*
X321228Y237919D01*
X321203Y237983D01*
X321045Y238149D01*
X320988Y238215D01*
X320981Y238225D01*
X320978Y238230D01*
X320976Y238232D01*
X320972Y238237D01*
X320918Y238508D01*
X320609Y238971D01*
X320146Y239281D01*
X319600Y239389D01*
X319053Y239281D01*
X318670Y239025D01*
X318491Y239012D01*
X318421Y239011D01*
X318372Y238990D01*
X318321Y239002D01*
X318290Y238983D01*
X309026D01*
X308964Y239011D01*
X308791Y239015D01*
X308664Y239026D01*
X308567Y239042D01*
X308559Y239044D01*
Y240062D01*
D02*
G37*
G36*
X467336Y215400D02*
X466100D01*
Y214164D01*
X466302Y214204D01*
X466898Y214602D01*
X467296Y215198D01*
X467336Y215400D01*
D02*
G37*
G36*
X465100D02*
X463864D01*
X463904Y215198D01*
X464302Y214602D01*
X464898Y214204D01*
X465100Y214164D01*
Y215400D01*
D02*
G37*
G36*
X469900Y213836D02*
Y212600D01*
X471136D01*
X471096Y212802D01*
X470698Y213398D01*
X470102Y213796D01*
X469900Y213836D01*
D02*
G37*
G36*
X468900D02*
X468698Y213796D01*
X468102Y213398D01*
X467704Y212802D01*
X467664Y212600D01*
X468900D01*
Y213836D01*
D02*
G37*
G36*
X496811Y213146D02*
Y211911D01*
X498046D01*
X498006Y212113D01*
X497608Y212708D01*
X497013Y213106D01*
X496811Y213146D01*
D02*
G37*
G36*
X495811D02*
X495608Y213106D01*
X495013Y212708D01*
X494615Y212113D01*
X494575Y211911D01*
X495811D01*
Y213146D01*
D02*
G37*
G36*
X301621Y219932D02*
X290579D01*
Y213862D01*
X290554Y213810D01*
X290549Y213704D01*
X290537Y213628D01*
X290516Y213548D01*
X290486Y213462D01*
X290443Y213370D01*
X290388Y213271D01*
X290319Y213166D01*
X290236Y213056D01*
X290138Y212941D01*
X290013Y212810D01*
X289989Y212746D01*
X288495Y211253D01*
X288434Y211230D01*
X288069Y210892D01*
X287932Y210782D01*
X287812Y210699D01*
X287742Y210659D01*
X287444D01*
X287371Y210678D01*
X287338Y210659D01*
X286515D01*
Y207884D01*
X289684D01*
Y208755D01*
X289709Y208811D01*
X289689Y208864D01*
X289703Y208920D01*
X289684Y208952D01*
Y209142D01*
X289759Y209249D01*
X290052Y209592D01*
X290079Y209619D01*
X290579Y209417D01*
Y208890D01*
X301621D01*
Y219932D01*
D02*
G37*
G36*
X471136Y211600D02*
X469900D01*
Y210364D01*
X470102Y210404D01*
X470698Y210802D01*
X471096Y211398D01*
X471136Y211600D01*
D02*
G37*
G36*
X468900D02*
X467664D01*
X467704Y211398D01*
X468102Y210802D01*
X468698Y210404D01*
X468900Y210364D01*
Y211600D01*
D02*
G37*
G36*
X498046Y210911D02*
X496811D01*
Y209675D01*
X497013Y209715D01*
X497608Y210113D01*
X498006Y210708D01*
X498046Y210911D01*
D02*
G37*
G36*
X495811D02*
X494575D01*
X494615Y210708D01*
X495013Y210113D01*
X495608Y209715D01*
X495811Y209675D01*
Y210911D01*
D02*
G37*
G36*
X514200Y217488D02*
X513064Y217338D01*
X512006Y216900D01*
X511097Y216202D01*
X510400Y215294D01*
X509962Y214236D01*
X509812Y213100D01*
X509962Y211964D01*
X510400Y210906D01*
X511097Y209998D01*
X512006Y209300D01*
X513064Y208862D01*
X514200Y208713D01*
X515336Y208862D01*
X516394Y209300D01*
X517303Y209998D01*
X518000Y210906D01*
X518438Y211964D01*
X518587Y213100D01*
X518438Y214236D01*
X518000Y215294D01*
X517303Y216202D01*
X516394Y216900D01*
X515336Y217338D01*
X514200Y217488D01*
D02*
G37*
G36*
X348322Y208414D02*
Y207178D01*
X349557D01*
X349517Y207381D01*
X349119Y207976D01*
X348524Y208374D01*
X348322Y208414D01*
D02*
G37*
G36*
X347322D02*
X347119Y208374D01*
X346524Y207976D01*
X346126Y207381D01*
X346086Y207178D01*
X347322D01*
Y208414D01*
D02*
G37*
G36*
X405400Y207483D02*
Y206247D01*
X406636D01*
X406596Y206450D01*
X406198Y207045D01*
X405602Y207443D01*
X405400Y207483D01*
D02*
G37*
G36*
X404400D02*
X404198Y207443D01*
X403602Y207045D01*
X403204Y206450D01*
X403164Y206247D01*
X404400D01*
Y207483D01*
D02*
G37*
G36*
X349557Y206178D02*
X348322D01*
Y204942D01*
X348524Y204983D01*
X349119Y205381D01*
X349517Y205976D01*
X349557Y206178D01*
D02*
G37*
G36*
X347322D02*
X346086D01*
X346126Y205976D01*
X346524Y205381D01*
X347119Y204983D01*
X347322Y204942D01*
Y206178D01*
D02*
G37*
G36*
X406636Y205247D02*
X405400D01*
Y204012D01*
X405602Y204052D01*
X406198Y204450D01*
X406596Y205045D01*
X406636Y205247D01*
D02*
G37*
G36*
X404400D02*
X403164D01*
X403204Y205045D01*
X403602Y204450D01*
X404198Y204052D01*
X404400Y204012D01*
Y205247D01*
D02*
G37*
G36*
X524200Y212488D02*
X523064Y212338D01*
X522006Y211900D01*
X521098Y211203D01*
X520400Y210294D01*
X519962Y209236D01*
X519812Y208100D01*
X519962Y206964D01*
X520400Y205906D01*
X521098Y204997D01*
X522006Y204300D01*
X523064Y203862D01*
X524200Y203713D01*
X525336Y203862D01*
X526394Y204300D01*
X527303Y204997D01*
X528000Y205906D01*
X528438Y206964D01*
X528587Y208100D01*
X528438Y209236D01*
X528000Y210294D01*
X527303Y211203D01*
X526394Y211900D01*
X525336Y212338D01*
X524200Y212488D01*
D02*
G37*
G36*
X395395Y202917D02*
X393981Y201502D01*
X395395Y200088D01*
X396809Y201502D01*
X395395Y202917D01*
D02*
G37*
G36*
X391776Y205970D02*
X388806Y203000D01*
X391776Y200030D01*
X394746Y203000D01*
X391776Y205970D01*
D02*
G37*
G36*
X347800Y213527D02*
X347254Y213419D01*
X346791Y213109D01*
X346481Y212646D01*
X346373Y212100D01*
X346481Y211554D01*
X346791Y211091D01*
X347254Y210781D01*
X347522Y210728D01*
X347720Y210554D01*
X347771Y210503D01*
X347838Y210476D01*
X359092Y199222D01*
X358885Y198722D01*
X352065D01*
X349429Y201358D01*
X349404Y201422D01*
X349245Y201587D01*
X349188Y201654D01*
X349181Y201663D01*
X349178Y201669D01*
X349177Y201670D01*
X349173Y201676D01*
X349119Y201946D01*
X348809Y202409D01*
X348346Y202719D01*
X347800Y202827D01*
X347254Y202719D01*
X346791Y202409D01*
X346481Y201946D01*
X346373Y201400D01*
X346481Y200854D01*
X346791Y200391D01*
X347254Y200081D01*
X347522Y200028D01*
X347720Y199854D01*
X347771Y199803D01*
X347838Y199776D01*
X350807Y196807D01*
X350807Y196807D01*
X351171Y196564D01*
X351600Y196478D01*
X351600Y196478D01*
X361218D01*
X361281Y196451D01*
X361510Y196446D01*
X361597Y196439D01*
X361609Y196437D01*
X361615Y196436D01*
X361617Y196436D01*
X361624Y196435D01*
X361854Y196281D01*
X362400Y196173D01*
X362946Y196281D01*
X363409Y196591D01*
X363719Y197054D01*
X363827Y197600D01*
X363719Y198146D01*
X363409Y198609D01*
X363327Y198665D01*
X363119Y199254D01*
X363227Y199800D01*
X363119Y200346D01*
X362809Y200809D01*
X362346Y201119D01*
X361800Y201227D01*
X361254Y201119D01*
X361026Y200967D01*
X360764Y200950D01*
X360691Y200949D01*
X360625Y200922D01*
X360565D01*
X349429Y212057D01*
X349404Y212122D01*
X349245Y212287D01*
X349188Y212354D01*
X349181Y212363D01*
X349178Y212368D01*
X349177Y212370D01*
X349173Y212375D01*
X349119Y212646D01*
X348809Y213109D01*
X348346Y213419D01*
X347800Y213527D01*
D02*
G37*
G36*
X393274Y200795D02*
X391859Y199381D01*
X393274Y197967D01*
X394688Y199381D01*
X393274Y200795D01*
D02*
G37*
G36*
X400000Y198236D02*
Y197000D01*
X401236D01*
X401196Y197202D01*
X400798Y197798D01*
X400202Y198196D01*
X400000Y198236D01*
D02*
G37*
G36*
X318858Y197793D02*
Y196557D01*
X320093D01*
X320053Y196760D01*
X319655Y197355D01*
X319060Y197753D01*
X318858Y197793D01*
D02*
G37*
G36*
X317858D02*
X317655Y197753D01*
X317060Y197355D01*
X316662Y196760D01*
X316622Y196557D01*
X317858D01*
Y197793D01*
D02*
G37*
G36*
X366027Y196736D02*
Y195500D01*
X367263D01*
X367223Y195702D01*
X366825Y196298D01*
X366230Y196696D01*
X366027Y196736D01*
D02*
G37*
G36*
X365027D02*
X364825Y196696D01*
X364230Y196298D01*
X363832Y195702D01*
X363792Y195500D01*
X365027D01*
Y196736D01*
D02*
G37*
G36*
X568491Y203905D02*
X567355Y203755D01*
X566297Y203317D01*
X565388Y202620D01*
X564691Y201711D01*
X564253Y200653D01*
X564104Y199517D01*
X564253Y198381D01*
X564691Y197323D01*
X565388Y196414D01*
X566297Y195717D01*
X567355Y195279D01*
X568491Y195130D01*
X569627Y195279D01*
X570685Y195717D01*
X571594Y196414D01*
X572291Y197323D01*
X572729Y198381D01*
X572879Y199517D01*
X572729Y200653D01*
X572291Y201711D01*
X571594Y202620D01*
X570685Y203317D01*
X569627Y203755D01*
X568491Y203905D01*
D02*
G37*
G36*
X289684Y207312D02*
X286515D01*
Y204538D01*
X287338D01*
X287371Y204518D01*
X287444Y204538D01*
X287742D01*
X287812Y204497D01*
X287924Y204419D01*
X288242Y204151D01*
X288424Y203975D01*
X288489Y203949D01*
X288696Y203743D01*
X290951Y198506D01*
X291040Y198419D01*
X291277Y197847D01*
X292162Y196694D01*
X293316Y195809D01*
X294659Y195252D01*
X296100Y195063D01*
X297541Y195252D01*
X298885Y195809D01*
X300038Y196694D01*
X300923Y197847D01*
X301479Y199190D01*
X301669Y200631D01*
X301479Y202073D01*
X300923Y203416D01*
X300038Y204569D01*
X298885Y205454D01*
X297541Y206011D01*
X296100Y206200D01*
X294659Y206011D01*
X294022Y205747D01*
X293897Y205748D01*
X293298Y205506D01*
X292759Y205323D01*
X292265Y205193D01*
X291820Y205114D01*
X291425Y205084D01*
X291081Y205098D01*
X290787Y205151D01*
X290538Y205239D01*
X290326Y205359D01*
X290157Y205500D01*
X289884Y205792D01*
X289764Y205940D01*
X289684Y206054D01*
Y206244D01*
X289703Y206276D01*
X289689Y206332D01*
X289709Y206385D01*
X289684Y206442D01*
Y207312D01*
D02*
G37*
G36*
X401236Y196000D02*
X400000D01*
Y194764D01*
X400202Y194804D01*
X400798Y195202D01*
X401196Y195798D01*
X401236Y196000D01*
D02*
G37*
G36*
X397516Y200795D02*
X395748Y199027D01*
X393981Y197260D01*
X395395Y195845D01*
X396350Y196800D01*
X396354Y196797D01*
X396417Y196773D01*
X397483Y195707D01*
X397483Y195707D01*
X397847Y195464D01*
X398055Y195422D01*
X398202Y195202D01*
X398798Y194804D01*
X399000Y194764D01*
Y196500D01*
Y198236D01*
X398798Y198196D01*
X398419Y197943D01*
X398003Y198359D01*
X397979Y198422D01*
X397975Y198426D01*
X398930Y199381D01*
X397516Y200795D01*
D02*
G37*
G36*
X320093Y195557D02*
X318858D01*
Y194322D01*
X319060Y194362D01*
X319655Y194760D01*
X320053Y195355D01*
X320093Y195557D01*
D02*
G37*
G36*
X317858D02*
X316622D01*
X316662Y195355D01*
X317060Y194760D01*
X317655Y194362D01*
X317858Y194322D01*
Y195557D01*
D02*
G37*
G36*
X528550Y202450D02*
X519850D01*
Y193750D01*
X528550D01*
Y202450D01*
D02*
G37*
G36*
X382700Y194836D02*
Y193600D01*
X383936D01*
X383896Y193802D01*
X383498Y194398D01*
X382902Y194796D01*
X382700Y194836D01*
D02*
G37*
G36*
X381700D02*
X381498Y194796D01*
X380902Y194398D01*
X380504Y193802D01*
X380464Y193600D01*
X381700D01*
Y194836D01*
D02*
G37*
G36*
X367263Y194500D02*
X366027D01*
Y193264D01*
X366230Y193304D01*
X366825Y193702D01*
X367223Y194298D01*
X367263Y194500D01*
D02*
G37*
G36*
X365027D02*
X363792D01*
X363832Y194298D01*
X364230Y193702D01*
X364825Y193304D01*
X365027Y193264D01*
Y194500D01*
D02*
G37*
G36*
X475700Y214427D02*
X475154Y214319D01*
X474691Y214009D01*
X474381Y213546D01*
X474273Y213000D01*
X474381Y212454D01*
X474533Y212226D01*
X474550Y211964D01*
X474551Y211891D01*
X474578Y211825D01*
Y206500D01*
X474578Y206500D01*
X474664Y206071D01*
X474907Y205707D01*
X489807Y190807D01*
X489807Y190807D01*
X490171Y190564D01*
X490600Y190478D01*
X502800D01*
X502800Y190478D01*
X503229Y190564D01*
X503593Y190807D01*
X505799Y193013D01*
X505823Y193012D01*
X506309Y192816D01*
X506381Y192454D01*
X506691Y191991D01*
X507154Y191681D01*
X507700Y191573D01*
X508246Y191681D01*
X508709Y191991D01*
X509019Y192454D01*
X509072Y192722D01*
X509246Y192920D01*
X509297Y192971D01*
X509324Y193038D01*
X513163Y196877D01*
X513202Y196887D01*
X516729Y199501D01*
X516737Y199514D01*
X516752Y199518D01*
X516805Y199616D01*
X517303Y199997D01*
X518000Y200906D01*
X518438Y201964D01*
X518587Y203100D01*
X518438Y204236D01*
X518000Y205294D01*
X517303Y206203D01*
X516394Y206900D01*
X515336Y207338D01*
X514200Y207488D01*
X513064Y207338D01*
X512006Y206900D01*
X511097Y206203D01*
X510400Y205294D01*
X509962Y204236D01*
X509812Y203100D01*
X509962Y201964D01*
X510400Y200906D01*
X510944Y200198D01*
X510968Y200118D01*
X510979Y200112D01*
X510983Y200100D01*
X511233Y199813D01*
X511413Y199565D01*
X511540Y199343D01*
X511618Y199149D01*
X511655Y198986D01*
X511661Y198847D01*
X511640Y198722D01*
X511591Y198594D01*
X511505Y198453D01*
X511342Y198265D01*
X511324Y198210D01*
X508301Y195187D01*
X508277Y195187D01*
X507791Y195384D01*
X507719Y195746D01*
X507566Y195974D01*
X507550Y196236D01*
X507549Y196309D01*
X507521Y196374D01*
Y199221D01*
X507549Y199288D01*
X507549Y199372D01*
X507555Y199624D01*
X507558Y199662D01*
X507619Y199753D01*
X507728Y200300D01*
X507619Y200846D01*
X507310Y201309D01*
X506847Y201619D01*
X506300Y201727D01*
X505754Y201619D01*
X505291Y201309D01*
X504982Y200846D01*
X504873Y200300D01*
X504982Y199753D01*
X505237Y199372D01*
X505250Y199191D01*
X505250Y199121D01*
X505271Y199074D01*
X505259Y199023D01*
X505278Y198992D01*
Y196381D01*
X505250Y196318D01*
X505245Y196089D01*
X505239Y196002D01*
X505237Y195990D01*
X505235Y195984D01*
X505236Y195982D01*
X505234Y195975D01*
X505081Y195746D01*
X505027Y195477D01*
X504853Y195280D01*
X504803Y195228D01*
X504776Y195162D01*
X502335Y192722D01*
X491065D01*
X476822Y206965D01*
Y211818D01*
X476849Y211881D01*
X476854Y212110D01*
X476861Y212197D01*
X476863Y212209D01*
X476864Y212215D01*
X476864Y212217D01*
X476865Y212224D01*
X477019Y212454D01*
X477127Y213000D01*
X477019Y213546D01*
X476709Y214009D01*
X476246Y214319D01*
X475700Y214427D01*
D02*
G37*
G36*
X356995Y191231D02*
Y189995D01*
X358231D01*
X358190Y190197D01*
X357793Y190793D01*
X357197Y191191D01*
X356995Y191231D01*
D02*
G37*
G36*
X355995D02*
X355793Y191191D01*
X355197Y190793D01*
X354799Y190197D01*
X354759Y189995D01*
X355995D01*
Y191231D01*
D02*
G37*
G36*
X431000Y207374D02*
X424898D01*
X424273Y207250D01*
X423744Y206896D01*
X408726Y191878D01*
X387668D01*
X387401Y192378D01*
X387519Y192554D01*
X387627Y193100D01*
X387519Y193646D01*
X387209Y194109D01*
X386746Y194419D01*
X386200Y194527D01*
X385654Y194419D01*
X385191Y194109D01*
X384881Y193646D01*
X384773Y193100D01*
X384881Y192554D01*
X384999Y192378D01*
X384732Y191878D01*
X384079D01*
X383843Y192319D01*
X383896Y192398D01*
X383936Y192600D01*
X380464D01*
X380504Y192398D01*
X380557Y192319D01*
X380322Y191878D01*
X364099D01*
X363474Y191754D01*
X362945Y191400D01*
X349599Y178053D01*
X349245Y177524D01*
X349121Y176900D01*
X349245Y176276D01*
X349599Y175747D01*
X350128Y175393D01*
X350752Y175269D01*
X351377Y175393D01*
X351906Y175747D01*
X364774Y188615D01*
X406126D01*
Y180172D01*
X407824D01*
X408015Y179710D01*
X405140Y176835D01*
X405076Y176811D01*
X404948Y176689D01*
X404835Y176593D01*
X404727Y176512D01*
X404624Y176445D01*
X404526Y176391D01*
X404434Y176350D01*
X404347Y176319D01*
X404265Y176299D01*
X404186Y176287D01*
X404077Y176281D01*
X404000Y176245D01*
X399814D01*
Y168155D01*
X409676D01*
Y176245D01*
X408375D01*
X408183Y176707D01*
X411059Y179582D01*
X411122Y179606D01*
X411251Y179728D01*
X411363Y179824D01*
X411471Y179905D01*
X411575Y179972D01*
X411672Y180026D01*
X411764Y180068D01*
X411851Y180098D01*
X411934Y180119D01*
X412012Y180130D01*
X412122Y180136D01*
X412199Y180172D01*
X423074D01*
Y189246D01*
X411362D01*
X411171Y189708D01*
X425573Y204111D01*
X430324D01*
X433669Y200767D01*
Y196100D01*
X433793Y195476D01*
X434146Y194947D01*
X440746Y188347D01*
X441276Y187993D01*
X441900Y187869D01*
X442524Y187993D01*
X443053Y188347D01*
X443407Y188876D01*
X443531Y189500D01*
X443407Y190124D01*
X443053Y190654D01*
X436931Y196776D01*
Y201443D01*
X436807Y202067D01*
X436453Y202596D01*
X432154Y206896D01*
X431624Y207250D01*
X431000Y207374D01*
D02*
G37*
G36*
X358231Y188995D02*
X356995D01*
Y187759D01*
X357197Y187799D01*
X357793Y188197D01*
X358190Y188793D01*
X358231Y188995D01*
D02*
G37*
G36*
X355995D02*
X354759D01*
X354799Y188793D01*
X355197Y188197D01*
X355793Y187799D01*
X355995Y187759D01*
Y188995D01*
D02*
G37*
G36*
X458200Y188536D02*
Y187300D01*
X459436D01*
X459396Y187502D01*
X458998Y188098D01*
X458402Y188496D01*
X458200Y188536D01*
D02*
G37*
G36*
X457200D02*
X456998Y188496D01*
X456402Y188098D01*
X456004Y187502D01*
X455964Y187300D01*
X457200D01*
Y188536D01*
D02*
G37*
G36*
X549200Y200626D02*
X547732Y200482D01*
X546320Y200053D01*
X545019Y199358D01*
X543878Y198422D01*
X542942Y197281D01*
X542247Y195980D01*
X541818Y194568D01*
X541674Y193100D01*
X541818Y191632D01*
X542247Y190220D01*
X542942Y188919D01*
X543878Y187778D01*
X545019Y186842D01*
X546320Y186147D01*
X547732Y185718D01*
X549200Y185574D01*
X550668Y185718D01*
X552080Y186147D01*
X553381Y186842D01*
X554522Y187778D01*
X555458Y188919D01*
X556153Y190220D01*
X556582Y191632D01*
X556726Y193100D01*
X556582Y194568D01*
X556153Y195980D01*
X555458Y197281D01*
X554522Y198422D01*
X553381Y199358D01*
X552080Y200053D01*
X550668Y200482D01*
X549200Y200626D01*
D02*
G37*
G36*
X568491Y193904D02*
X567355Y193755D01*
X566297Y193317D01*
X565388Y192620D01*
X564691Y191711D01*
X564253Y190653D01*
X564104Y189517D01*
X564253Y188381D01*
X564691Y187323D01*
X565388Y186415D01*
X566297Y185717D01*
X567355Y185279D01*
X568491Y185129D01*
X569627Y185279D01*
X570685Y185717D01*
X571594Y186415D01*
X572291Y187323D01*
X572729Y188381D01*
X572879Y189517D01*
X572729Y190653D01*
X572291Y191711D01*
X571594Y192620D01*
X570685Y193317D01*
X569627Y193755D01*
X568491Y193904D01*
D02*
G37*
G36*
X459436Y186300D02*
X458200D01*
Y185064D01*
X458402Y185104D01*
X458998Y185502D01*
X459396Y186098D01*
X459436Y186300D01*
D02*
G37*
G36*
X457200D02*
X455964D01*
X456004Y186098D01*
X456402Y185502D01*
X456998Y185104D01*
X457200Y185064D01*
Y186300D01*
D02*
G37*
G36*
X438041Y182954D02*
X433604D01*
Y174580D01*
X438041D01*
Y182954D01*
D02*
G37*
G36*
X422355Y176645D02*
X417524D01*
Y172700D01*
X422355D01*
Y176645D01*
D02*
G37*
G36*
X370200Y170536D02*
Y169300D01*
X371436D01*
X371396Y169502D01*
X370998Y170098D01*
X370402Y170496D01*
X370200Y170536D01*
D02*
G37*
G36*
X369200D02*
X368998Y170496D01*
X368402Y170098D01*
X368004Y169502D01*
X367964Y169300D01*
X369200D01*
Y170536D01*
D02*
G37*
G36*
X371436Y168300D02*
X370200D01*
Y167064D01*
X370402Y167104D01*
X370998Y167502D01*
X371396Y168098D01*
X371436Y168300D01*
D02*
G37*
G36*
X369200D02*
X367964D01*
X368004Y168098D01*
X368402Y167502D01*
X368998Y167104D01*
X369200Y167064D01*
Y168300D01*
D02*
G37*
G36*
X438041Y173580D02*
X433604D01*
Y165206D01*
X438041D01*
Y173580D01*
D02*
G37*
G36*
X432604Y182954D02*
X428167D01*
Y176645D01*
X423355D01*
Y172200D01*
X422855D01*
Y171700D01*
X417524D01*
Y167755D01*
X419816D01*
X420007Y167293D01*
X418141Y165427D01*
X418077Y165403D01*
X417946Y165278D01*
X417898Y165237D01*
X415100D01*
Y160800D01*
X423474D01*
Y165237D01*
X421776D01*
X421585Y165699D01*
X423641Y167755D01*
X428167D01*
Y165206D01*
X432604D01*
Y174080D01*
Y182954D01*
D02*
G37*
G36*
X414100Y165237D02*
X405726D01*
Y161149D01*
X405721Y161149D01*
X405659Y161121D01*
X394141D01*
X394024Y161297D01*
X393428Y161695D01*
X393226Y161735D01*
Y160000D01*
Y158264D01*
X393428Y158304D01*
X394024Y158702D01*
X394141Y158878D01*
X405659D01*
X405721Y158850D01*
X405726Y158850D01*
Y155363D01*
X414100D01*
Y160300D01*
Y165237D01*
D02*
G37*
G36*
X370200Y162136D02*
Y160900D01*
X371436D01*
X371396Y161102D01*
X370998Y161698D01*
X370402Y162096D01*
X370200Y162136D01*
D02*
G37*
G36*
X369200D02*
X368998Y162096D01*
X368402Y161698D01*
X368004Y161102D01*
X367964Y160900D01*
X369200D01*
Y162136D01*
D02*
G37*
G36*
X392226Y161735D02*
X392024Y161695D01*
X391428Y161297D01*
X391030Y160702D01*
X390990Y160500D01*
X392226D01*
Y161735D01*
D02*
G37*
G36*
X371436Y159900D02*
X370200D01*
Y158664D01*
X370402Y158704D01*
X370998Y159102D01*
X371396Y159698D01*
X371436Y159900D01*
D02*
G37*
G36*
X369200D02*
X367964D01*
X368004Y159698D01*
X368402Y159102D01*
X368998Y158704D01*
X369200Y158664D01*
Y159900D01*
D02*
G37*
G36*
X392226Y159500D02*
X390990D01*
X391030Y159297D01*
X391428Y158702D01*
X392024Y158304D01*
X392226Y158264D01*
Y159500D01*
D02*
G37*
G36*
X423474Y159800D02*
X415100D01*
Y155363D01*
X423474D01*
Y159800D01*
D02*
G37*
%LPD*%
G36*
X485542Y245140D02*
X485526Y245151D01*
X485502Y245162D01*
X485469Y245171D01*
X485428Y245178D01*
X485379Y245185D01*
X485256Y245195D01*
X485009Y245200D01*
Y246200D01*
X485100Y246201D01*
X485428Y246222D01*
X485469Y246229D01*
X485502Y246238D01*
X485526Y246249D01*
X485542Y246260D01*
Y245140D01*
D02*
G37*
G36*
X475187Y246249D02*
X475211Y246238D01*
X475244Y246229D01*
X475284Y246222D01*
X475334Y246215D01*
X475457Y246205D01*
X475704Y246200D01*
Y245200D01*
X475613Y245199D01*
X475284Y245178D01*
X475244Y245171D01*
X475211Y245162D01*
X475187Y245151D01*
X475171Y245140D01*
Y246260D01*
X475187Y246249D01*
D02*
G37*
G36*
X485437Y233571D02*
X485685Y233353D01*
X485719Y233330D01*
X485748Y233313D01*
X485773Y233303D01*
X485792Y233300D01*
X485000Y232508D01*
X484997Y232527D01*
X484987Y232552D01*
X484970Y232581D01*
X484947Y232615D01*
X484917Y232655D01*
X484836Y232749D01*
X484665Y232927D01*
X485372Y233634D01*
X485437Y233571D01*
D02*
G37*
G36*
X455428Y245140D02*
X455412Y245151D01*
X455388Y245162D01*
X455356Y245171D01*
X455315Y245178D01*
X455266Y245185D01*
X455142Y245195D01*
X454895Y245200D01*
Y246200D01*
X454986Y246201D01*
X455315Y246222D01*
X455356Y246229D01*
X455388Y246238D01*
X455412Y246249D01*
X455428Y246260D01*
Y245140D01*
D02*
G37*
G36*
X448587Y246249D02*
X448611Y246238D01*
X448644Y246229D01*
X448685Y246222D01*
X448734Y246215D01*
X448857Y246205D01*
X449104Y246200D01*
Y245200D01*
X449014Y245199D01*
X448685Y245178D01*
X448644Y245171D01*
X448611Y245162D01*
X448587Y245151D01*
X448571Y245140D01*
Y246260D01*
X448587Y246249D01*
D02*
G37*
G36*
X289056Y238332D02*
X289080Y238321D01*
X289113Y238312D01*
X289154Y238305D01*
X289203Y238298D01*
X289326Y238288D01*
X289573Y238283D01*
Y237283D01*
X289482Y237282D01*
X289154Y237261D01*
X289113Y237254D01*
X289080Y237245D01*
X289056Y237234D01*
X289040Y237223D01*
Y238343D01*
X289056Y238332D01*
D02*
G37*
G36*
X299865Y236783D02*
X299854Y236878D01*
X299824Y236963D01*
X299774Y237038D01*
X299703Y237103D01*
X299612Y237158D01*
X299500Y237203D01*
X299369Y237238D01*
X299217Y237263D01*
X299045Y237278D01*
X298853Y237283D01*
Y238283D01*
X299045Y238288D01*
X299217Y238303D01*
X299369Y238328D01*
X299500Y238363D01*
X299612Y238408D01*
X299703Y238463D01*
X299774Y238528D01*
X299824Y238603D01*
X299854Y238688D01*
X299865Y238783D01*
Y236783D01*
D02*
G37*
G36*
X342688Y243174D02*
X342712Y243164D01*
X342744Y243155D01*
X342785Y243147D01*
X342834Y243141D01*
X342958Y243131D01*
X343205Y243126D01*
Y242126D01*
X343114Y242125D01*
X342785Y242104D01*
X342744Y242096D01*
X342712Y242087D01*
X342688Y242077D01*
X342672Y242066D01*
Y243186D01*
X342688Y243174D01*
D02*
G37*
G36*
X370037Y240171D02*
X370285Y239953D01*
X370319Y239930D01*
X370348Y239913D01*
X370373Y239903D01*
X370392Y239900D01*
X369600Y239108D01*
X369597Y239127D01*
X369587Y239152D01*
X369570Y239181D01*
X369547Y239215D01*
X369517Y239255D01*
X369436Y239349D01*
X369266Y239527D01*
X369973Y240234D01*
X370037Y240171D01*
D02*
G37*
G36*
X373137Y240118D02*
X373385Y239901D01*
X373419Y239877D01*
X373448Y239861D01*
X373473Y239851D01*
X373492Y239847D01*
X372700Y239056D01*
X372697Y239075D01*
X372687Y239099D01*
X372670Y239129D01*
X372647Y239163D01*
X372617Y239202D01*
X372536Y239296D01*
X372365Y239475D01*
X373073Y240182D01*
X373137Y240118D01*
D02*
G37*
G36*
X343235Y236153D02*
X343171Y236088D01*
X342954Y235841D01*
X342930Y235807D01*
X342914Y235777D01*
X342904Y235753D01*
X342900Y235734D01*
X342108Y236526D01*
X342128Y236529D01*
X342152Y236539D01*
X342181Y236555D01*
X342216Y236579D01*
X342255Y236609D01*
X342349Y236689D01*
X342528Y236860D01*
X343235Y236153D01*
D02*
G37*
G36*
X360391Y236289D02*
X360352Y236208D01*
X360335Y236119D01*
X360339Y236023D01*
X360365Y235919D01*
X360411Y235809D01*
X360480Y235691D01*
X360569Y235566D01*
X360680Y235434D01*
X360813Y235294D01*
X360106Y234587D01*
X359966Y234720D01*
X359834Y234831D01*
X359709Y234920D01*
X359591Y234989D01*
X359481Y235035D01*
X359377Y235061D01*
X359281Y235065D01*
X359192Y235048D01*
X359111Y235009D01*
X359037Y234949D01*
X360451Y236363D01*
X360391Y236289D01*
D02*
G37*
G36*
X368201Y226314D02*
X368222Y225985D01*
X368229Y225944D01*
X368238Y225911D01*
X368249Y225887D01*
X368260Y225871D01*
X367140D01*
X367151Y225887D01*
X367162Y225911D01*
X367171Y225944D01*
X367178Y225985D01*
X367185Y226034D01*
X367195Y226157D01*
X367200Y226405D01*
X368200D01*
X368201Y226314D01*
D02*
G37*
G36*
X353713Y234963D02*
X353844Y234853D01*
X353968Y234765D01*
X354084Y234698D01*
X354194Y234652D01*
X354296Y234627D01*
X354392Y234624D01*
X354480Y234641D01*
X354562Y234680D01*
X354636Y234740D01*
X353222Y233326D01*
X353282Y233400D01*
X353321Y233482D01*
X353338Y233570D01*
X353335Y233665D01*
X353310Y233768D01*
X353264Y233878D01*
X353197Y233994D01*
X353109Y234118D01*
X352999Y234249D01*
X352868Y234387D01*
X353575Y235094D01*
X353713Y234963D01*
D02*
G37*
G36*
X538555Y242354D02*
X538413Y242344D01*
X538262Y242311D01*
X538103Y242255D01*
X537935Y242178D01*
X537759Y242078D01*
X537574Y241956D01*
X537381Y241811D01*
X536970Y241456D01*
X536752Y241244D01*
X535691Y241598D01*
X535829Y241743D01*
X535937Y241873D01*
X536016Y241987D01*
X536065Y242087D01*
X536084Y242171D01*
X536074Y242240D01*
X536035Y242293D01*
X535965Y242332D01*
X535867Y242355D01*
X535738Y242363D01*
X538555Y242354D01*
D02*
G37*
G36*
X529314Y233807D02*
X529187Y233666D01*
X529088Y233524D01*
X529017Y233383D01*
X528975Y233241D01*
X528961Y233100D01*
X528975Y232959D01*
X529017Y232817D01*
X529088Y232676D01*
X529187Y232534D01*
X529314Y232393D01*
X528400Y231893D01*
X528256Y232027D01*
X528105Y232147D01*
X527949Y232254D01*
X527787Y232345D01*
X527620Y232423D01*
X527446Y232487D01*
X527267Y232536D01*
X527081Y232572D01*
X526890Y232593D01*
X526693Y232600D01*
Y233600D01*
X526890Y233607D01*
X527081Y233628D01*
X527267Y233664D01*
X527446Y233713D01*
X527620Y233777D01*
X527787Y233855D01*
X527949Y233946D01*
X528105Y234053D01*
X528256Y234173D01*
X528400Y234307D01*
X529314Y233807D01*
D02*
G37*
G36*
X517286Y235321D02*
X518049Y234641D01*
X518404Y234365D01*
X518742Y234131D01*
X519062Y233940D01*
X519364Y233791D01*
X519649Y233685D01*
X519917Y233621D01*
X520166Y233600D01*
Y232600D01*
X519917Y232579D01*
X519649Y232515D01*
X519364Y232409D01*
X519062Y232260D01*
X518742Y232069D01*
X518404Y231835D01*
X518049Y231559D01*
X517286Y230879D01*
X516878Y230475D01*
Y235725D01*
X517286Y235321D01*
D02*
G37*
G36*
X506687Y228578D02*
X506711Y228567D01*
X506744Y228558D01*
X506785Y228551D01*
X506834Y228544D01*
X506957Y228534D01*
X507204Y228529D01*
Y227529D01*
X507114Y227528D01*
X506785Y227507D01*
X506744Y227500D01*
X506711Y227491D01*
X506687Y227480D01*
X506671Y227469D01*
Y228589D01*
X506687Y228578D01*
D02*
G37*
G36*
X521852Y223276D02*
X522007Y223184D01*
X522518Y222925D01*
X524958Y221849D01*
X525645Y221560D01*
X520772Y219619D01*
X520954Y220064D01*
X521095Y220484D01*
X521195Y220880D01*
X521254Y221250D01*
X521272Y221595D01*
X521249Y221915D01*
X521185Y222210D01*
X521080Y222481D01*
X520934Y222726D01*
X520747Y222946D01*
X521763Y223344D01*
X521852Y223276D01*
D02*
G37*
G36*
X537697Y190055D02*
X537712Y189883D01*
X537737Y189731D01*
X537772Y189599D01*
X537817Y189488D01*
X537872Y189397D01*
X537936Y189326D01*
X538011Y189275D01*
X538096Y189245D01*
X538191Y189234D01*
X536193D01*
X536288Y189245D01*
X536373Y189275D01*
X536448Y189326D01*
X536512Y189397D01*
X536567Y189488D01*
X536612Y189599D01*
X536647Y189731D01*
X536672Y189883D01*
X536687Y190055D01*
X536692Y190248D01*
X537692D01*
X537697Y190055D01*
D02*
G37*
G36*
X319103Y237335D02*
X319092Y237340D01*
X319072Y237344D01*
X319043Y237348D01*
X318958Y237355D01*
X318682Y237361D01*
X318591Y237362D01*
X318427Y238362D01*
X318517Y238362D01*
X318797Y238383D01*
X318846Y238392D01*
X318887Y238403D01*
X318921Y238416D01*
X318946Y238430D01*
X318963Y238446D01*
X319103Y237335D01*
D02*
G37*
G36*
X307945Y238767D02*
X307975Y238682D01*
X308026Y238607D01*
X308097Y238542D01*
X308188Y238487D01*
X308299Y238442D01*
X308431Y238407D01*
X308582Y238382D01*
X308754Y238367D01*
X308947Y238362D01*
Y237362D01*
X308754Y237357D01*
X308582Y237342D01*
X308431Y237317D01*
X308299Y237282D01*
X308188Y237236D01*
X308097Y237182D01*
X308026Y237117D01*
X307975Y237042D01*
X307945Y236957D01*
X307935Y236861D01*
Y238861D01*
X307945Y238767D01*
D02*
G37*
G36*
X320403Y237935D02*
X320413Y237910D01*
X320429Y237881D01*
X320453Y237846D01*
X320483Y237807D01*
X320563Y237713D01*
X320734Y237534D01*
X320027Y236827D01*
X319963Y236891D01*
X319715Y237109D01*
X319681Y237132D01*
X319651Y237149D01*
X319627Y237159D01*
X319608Y237162D01*
X320400Y237954D01*
X320403Y237935D01*
D02*
G37*
G36*
X353329Y215640D02*
X353313Y215651D01*
X353289Y215662D01*
X353256Y215671D01*
X353215Y215678D01*
X353166Y215685D01*
X353043Y215695D01*
X352796Y215700D01*
Y216700D01*
X352886Y216701D01*
X353215Y216722D01*
X353256Y216729D01*
X353289Y216738D01*
X353313Y216749D01*
X353329Y216760D01*
Y215640D01*
D02*
G37*
G36*
X291203Y210948D02*
X291196Y211078D01*
X291174Y211178D01*
X291138Y211250D01*
X291088Y211293D01*
X291023Y211308D01*
X290944Y211293D01*
X290850Y211250D01*
X290742Y211178D01*
X290620Y211078D01*
X290484Y210948D01*
Y212362D01*
X290620Y212506D01*
X290742Y212649D01*
X290850Y212792D01*
X290944Y212934D01*
X291023Y213075D01*
X291088Y213217D01*
X291138Y213357D01*
X291174Y213498D01*
X291196Y213637D01*
X291203Y213777D01*
Y210948D01*
D02*
G37*
G36*
X289779Y210244D02*
X289571Y210029D01*
X289246Y209648D01*
X289129Y209482D01*
X289041Y209332D01*
X288985Y209199D01*
X288958Y209082D01*
X288962Y208981D01*
X288996Y208897D01*
X289060Y208829D01*
X287461Y210035D01*
X287546Y209988D01*
X287644Y209968D01*
X287755Y209974D01*
X287877Y210006D01*
X288013Y210065D01*
X288160Y210150D01*
X288320Y210262D01*
X288493Y210399D01*
X288875Y210754D01*
X289779Y210244D01*
D02*
G37*
G36*
X348603Y212073D02*
X348613Y212048D01*
X348630Y212019D01*
X348653Y211985D01*
X348683Y211945D01*
X348764Y211851D01*
X348935Y211673D01*
X348227Y210965D01*
X348163Y211029D01*
X347915Y211247D01*
X347881Y211270D01*
X347852Y211287D01*
X347827Y211297D01*
X347808Y211300D01*
X348600Y212092D01*
X348603Y212073D01*
D02*
G37*
G36*
Y201373D02*
X348613Y201348D01*
X348630Y201319D01*
X348653Y201285D01*
X348683Y201245D01*
X348764Y201151D01*
X348935Y200973D01*
X348227Y200266D01*
X348163Y200329D01*
X347915Y200547D01*
X347881Y200570D01*
X347852Y200587D01*
X347827Y200597D01*
X347808Y200600D01*
X348600Y201392D01*
X348603Y201373D01*
D02*
G37*
G36*
X361229Y199240D02*
X361213Y199251D01*
X361189Y199262D01*
X361156Y199271D01*
X361115Y199278D01*
X361066Y199285D01*
X360943Y199295D01*
X360696Y199300D01*
Y200300D01*
X360786Y200301D01*
X361115Y200322D01*
X361156Y200329D01*
X361189Y200338D01*
X361213Y200349D01*
X361229Y200360D01*
Y199240D01*
D02*
G37*
G36*
X361829Y197040D02*
X361813Y197051D01*
X361789Y197062D01*
X361756Y197071D01*
X361715Y197078D01*
X361666Y197085D01*
X361543Y197095D01*
X361296Y197100D01*
Y198100D01*
X361386Y198101D01*
X361715Y198122D01*
X361756Y198129D01*
X361789Y198138D01*
X361813Y198149D01*
X361829Y198160D01*
Y197040D01*
D02*
G37*
G36*
X288996Y206299D02*
X288962Y206215D01*
X288958Y206114D01*
X288985Y205997D01*
X289041Y205864D01*
X289129Y205714D01*
X289246Y205548D01*
X289393Y205366D01*
X289709Y205027D01*
X289955Y204822D01*
X290269Y204645D01*
X290620Y204521D01*
X291010Y204451D01*
X291437Y204433D01*
X291902Y204469D01*
X292405Y204558D01*
X292946Y204701D01*
X293524Y204897D01*
X294141Y205146D01*
X291547Y198763D01*
X289273Y204045D01*
X289597Y204850D01*
X288875Y204442D01*
X288678Y204633D01*
X288320Y204935D01*
X288160Y205046D01*
X288013Y205131D01*
X287877Y205190D01*
X287755Y205222D01*
X287644Y205228D01*
X287546Y205208D01*
X287461Y205161D01*
X289060Y206367D01*
X288996Y206299D01*
D02*
G37*
G36*
X397086Y198970D02*
X397047Y198888D01*
X397030Y198800D01*
X397034Y198704D01*
X397059Y198600D01*
X397106Y198490D01*
X397175Y198372D01*
X397264Y198247D01*
X397375Y198115D01*
X397508Y197975D01*
X396801Y197268D01*
X396661Y197400D01*
X396529Y197512D01*
X396404Y197601D01*
X396286Y197669D01*
X396176Y197716D01*
X396072Y197742D01*
X395976Y197746D01*
X395887Y197729D01*
X395806Y197690D01*
X395731Y197630D01*
X397146Y199044D01*
X397086Y198970D01*
D02*
G37*
G36*
X476249Y212413D02*
X476238Y212388D01*
X476229Y212356D01*
X476222Y212315D01*
X476215Y212266D01*
X476205Y212143D01*
X476200Y211895D01*
X475200D01*
X475199Y211986D01*
X475178Y212315D01*
X475171Y212356D01*
X475162Y212388D01*
X475151Y212413D01*
X475140Y212429D01*
X476260D01*
X476249Y212413D01*
D02*
G37*
G36*
X506922Y199791D02*
X506917Y199771D01*
X506913Y199742D01*
X506907Y199657D01*
X506900Y199381D01*
X506900Y199290D01*
X505900Y199127D01*
X505899Y199218D01*
X505879Y199497D01*
X505869Y199547D01*
X505859Y199588D01*
X505846Y199621D01*
X505832Y199646D01*
X505816Y199663D01*
X506927Y199802D01*
X506922Y199791D01*
D02*
G37*
G36*
X516343Y200022D02*
X512815Y197408D01*
X511833Y197840D01*
X512031Y198068D01*
X512177Y198305D01*
X512270Y198552D01*
X512312Y198807D01*
X512302Y199071D01*
X512240Y199344D01*
X512126Y199626D01*
X511960Y199918D01*
X511742Y200218D01*
X511472Y200527D01*
X516343Y200022D01*
D02*
G37*
G36*
X506900Y196213D02*
X506921Y195885D01*
X506929Y195844D01*
X506938Y195811D01*
X506948Y195787D01*
X506960Y195771D01*
X505840D01*
X505851Y195787D01*
X505861Y195811D01*
X505870Y195844D01*
X505878Y195885D01*
X505885Y195934D01*
X505894Y196057D01*
X505900Y196304D01*
X506900D01*
X506900Y196213D01*
D02*
G37*
G36*
X506392Y194400D02*
X506372Y194396D01*
X506348Y194387D01*
X506319Y194370D01*
X506284Y194347D01*
X506245Y194316D01*
X506151Y194236D01*
X505972Y194065D01*
X505265Y194772D01*
X505329Y194837D01*
X505547Y195084D01*
X505570Y195119D01*
X505587Y195148D01*
X505596Y195172D01*
X505600Y195192D01*
X506392Y194400D01*
D02*
G37*
G36*
X508835Y193427D02*
X508771Y193363D01*
X508553Y193115D01*
X508530Y193081D01*
X508513Y193052D01*
X508503Y193027D01*
X508500Y193008D01*
X507708Y193800D01*
X507727Y193803D01*
X507752Y193813D01*
X507781Y193830D01*
X507815Y193853D01*
X507855Y193883D01*
X507949Y193964D01*
X508127Y194134D01*
X508835Y193427D01*
D02*
G37*
G36*
X411948Y180777D02*
X411806Y180756D01*
X411665Y180721D01*
X411523Y180671D01*
X411382Y180608D01*
X411241Y180530D01*
X411099Y180438D01*
X410958Y180332D01*
X410816Y180212D01*
X410675Y180077D01*
X409261D01*
X409388Y180212D01*
X409487Y180332D01*
X409558Y180438D01*
X409600Y180530D01*
X409614Y180608D01*
X409600Y180671D01*
X409558Y180721D01*
X409487Y180756D01*
X409388Y180777D01*
X409261Y180784D01*
X412089D01*
X411948Y180777D01*
D02*
G37*
G36*
X406810Y176206D02*
X406711Y176085D01*
X406641Y175979D01*
X406598Y175887D01*
X406584Y175810D01*
X406598Y175746D01*
X406641Y175697D01*
X406711Y175661D01*
X406810Y175640D01*
X406938Y175633D01*
X404109D01*
X404251Y175640D01*
X404392Y175661D01*
X404533Y175697D01*
X404675Y175746D01*
X404816Y175810D01*
X404958Y175887D01*
X405099Y175979D01*
X405241Y176085D01*
X405382Y176206D01*
X405523Y176340D01*
X406938D01*
X406810Y176206D01*
D02*
G37*
G36*
X429191Y171200D02*
X429181Y171295D01*
X429150Y171380D01*
X429100Y171455D01*
X429029Y171520D01*
X428938Y171575D01*
X428827Y171620D01*
X428695Y171655D01*
X428543Y171680D01*
X428371Y171695D01*
X428179Y171700D01*
Y172700D01*
X428371Y172705D01*
X428543Y172720D01*
X428695Y172745D01*
X428827Y172780D01*
X428938Y172825D01*
X429029Y172880D01*
X429100Y172945D01*
X429150Y173020D01*
X429181Y173105D01*
X429191Y173200D01*
Y171200D01*
D02*
G37*
G36*
X427172Y173105D02*
X427202Y173020D01*
X427253Y172945D01*
X427324Y172880D01*
X427415Y172825D01*
X427526Y172780D01*
X427658Y172745D01*
X427809Y172720D01*
X427982Y172705D01*
X428174Y172700D01*
Y171700D01*
X427982Y171695D01*
X427809Y171680D01*
X427658Y171655D01*
X427526Y171620D01*
X427415Y171575D01*
X427324Y171520D01*
X427253Y171455D01*
X427202Y171380D01*
X427172Y171295D01*
X427162Y171200D01*
Y173200D01*
X427172Y173105D01*
D02*
G37*
G36*
X419810Y164795D02*
X419709Y164673D01*
X419637Y164565D01*
X419594Y164472D01*
X419580Y164393D01*
X419594Y164328D01*
X419637Y164278D01*
X419709Y164242D01*
X419810Y164220D01*
X419939Y164213D01*
X417111D01*
X417250Y164220D01*
X417390Y164242D01*
X417530Y164278D01*
X417671Y164328D01*
X417812Y164393D01*
X417954Y164472D01*
X418096Y164565D01*
X418238Y164673D01*
X418381Y164795D01*
X418525Y164932D01*
X419939D01*
X419810Y164795D01*
D02*
G37*
G36*
X393313Y160548D02*
X393337Y160538D01*
X393370Y160529D01*
X393411Y160521D01*
X393460Y160514D01*
X393583Y160505D01*
X393830Y160500D01*
Y159500D01*
X393740Y159499D01*
X393411Y159478D01*
X393370Y159470D01*
X393337Y159461D01*
X393313Y159451D01*
X393297Y159440D01*
Y160559D01*
X393313Y160548D01*
D02*
G37*
G36*
X406750Y159000D02*
X406740Y159095D01*
X406709Y159179D01*
X406659Y159255D01*
X406588Y159319D01*
X406497Y159374D01*
X406386Y159420D01*
X406254Y159455D01*
X406102Y159479D01*
X405930Y159494D01*
X405738Y159500D01*
Y160500D01*
X405930Y160504D01*
X406102Y160520D01*
X406254Y160545D01*
X406386Y160580D01*
X406497Y160625D01*
X406588Y160679D01*
X406659Y160745D01*
X406709Y160819D01*
X406740Y160905D01*
X406750Y161000D01*
Y159000D01*
D02*
G37*
D10*
X369000Y240500D02*
X370400Y239100D01*
X346875Y240500D02*
X369000D01*
X342101Y235726D02*
X346875Y240500D01*
X342101Y242626D02*
X369922D01*
X373500Y239048D01*
X367700Y225300D02*
Y227700D01*
X288469Y237783D02*
X301950D01*
X506300Y200300D02*
X506400Y200200D01*
Y195200D02*
Y200200D01*
X502800Y191600D02*
X506400Y195200D01*
X490600Y191600D02*
X502800D01*
X475700Y206500D02*
X490600Y191600D01*
X475700Y206500D02*
Y213000D01*
X474600Y245700D02*
X486113D01*
X537192Y242392D02*
Y246249D01*
X527900Y233100D02*
X537192Y242392D01*
X514200Y233100D02*
X527900D01*
X537192Y185304D02*
Y223808D01*
X527900Y233100D02*
X537192Y223808D01*
X516371Y228029D02*
X524200Y220200D01*
X476143Y242157D02*
X485800Y232500D01*
X475028Y242157D02*
X476143D01*
X448000Y245700D02*
X456000D01*
X524200Y218100D02*
Y220200D01*
X506100Y228029D02*
X516371D01*
X514200Y199500D02*
Y203100D01*
X507700Y193000D02*
X514200Y199500D01*
X305600Y237861D02*
X319528D01*
X350300Y216200D02*
X353900D01*
X339500Y227000D02*
X350300Y216200D01*
X398276Y196500D02*
X399500D01*
X395395Y199381D02*
X398276Y196500D01*
X319600Y237962D02*
X330561Y227000D01*
X339500D01*
X351400Y236562D02*
X354981Y232981D01*
X359000Y236400D02*
X367700Y227700D01*
X301950Y237783D02*
X302128Y237962D01*
X414299Y160000D02*
X414600Y160300D01*
X392726Y160000D02*
X414299D01*
X433104Y174080D02*
Y181204D01*
X351600Y197600D02*
X362400D01*
X347800Y201400D02*
X351600Y197600D01*
X347800Y212100D02*
X360100Y199800D01*
X361800D01*
X404745Y172200D02*
Y174854D01*
X414600Y184709D01*
X422855Y168555D02*
Y172200D01*
X414600Y160300D02*
X422855Y168555D01*
X431224Y172200D02*
X433104Y174080D01*
X422855Y172200D02*
X431224D01*
X288100Y205925D02*
X293393Y200631D01*
X296100D01*
X288100Y209271D02*
X293239Y214411D01*
X296100D01*
D12*
X435300Y196100D02*
X441900Y189500D01*
X435300Y196100D02*
Y196500D01*
Y201443D01*
X431000Y205743D02*
X435300Y201443D01*
X424898Y205743D02*
X431000D01*
X409402Y190246D02*
X424898Y205743D01*
X364099Y190246D02*
X409402D01*
X350752Y176900D02*
X364099Y190246D01*
D24*
X288100Y209271D02*
D03*
Y205925D02*
D03*
D71*
X524200Y198100D02*
D03*
D72*
X514200Y203100D02*
D03*
X524200Y208100D02*
D03*
X514200Y213100D02*
D03*
X524200Y218100D02*
D03*
X514200Y223100D02*
D03*
X524200Y228100D02*
D03*
X514200Y233100D02*
D03*
X568491Y189517D02*
D03*
Y199517D02*
D03*
Y231682D02*
D03*
Y241682D02*
D03*
D73*
X537192Y185304D02*
D03*
Y246249D02*
D03*
D74*
X549200Y193100D02*
D03*
Y238100D02*
D03*
D75*
X296100Y214411D02*
D03*
D76*
Y200631D02*
D03*
D77*
X414600Y184709D02*
D03*
Y160300D02*
D03*
D78*
X433104Y174080D02*
D03*
D79*
X410074Y210037D02*
D03*
X305300Y193100D02*
D03*
X288600Y193044D02*
D03*
X305100Y223500D02*
D03*
X289400D02*
D03*
X424018Y140836D02*
D03*
X414500Y140800D02*
D03*
X405000Y140700D02*
D03*
X379500Y217800D02*
D03*
X420500Y241578D02*
D03*
X328600Y211500D02*
D03*
X541700Y204977D02*
D03*
Y215400D02*
D03*
X386200Y193100D02*
D03*
X382200D02*
D03*
X370400Y239100D02*
D03*
X373500Y239048D02*
D03*
X377300Y223500D02*
D03*
X365200Y218300D02*
D03*
X372300D02*
D03*
X367700Y225300D02*
D03*
X369700Y160400D02*
D03*
Y168800D02*
D03*
X404200Y218994D02*
D03*
X413200Y216800D02*
D03*
X429018Y233571D02*
D03*
X469400Y212100D02*
D03*
X465600Y215900D02*
D03*
X461347Y220053D02*
D03*
X475700Y213000D02*
D03*
X496311Y211411D02*
D03*
X496400Y218947D02*
D03*
X496524Y234500D02*
D03*
X486113Y245700D02*
D03*
X448000D02*
D03*
X456000D02*
D03*
X506100Y228029D02*
D03*
X507700Y193000D02*
D03*
X506400Y195200D02*
D03*
X506300Y200300D02*
D03*
X353900Y216200D02*
D03*
X391776Y203000D02*
D03*
X399500Y196500D02*
D03*
X431000Y205743D02*
D03*
X485800Y232500D02*
D03*
X475028Y242157D02*
D03*
X474600Y245700D02*
D03*
X457700Y186800D02*
D03*
X319600Y237962D02*
D03*
X356495Y189495D02*
D03*
X365528Y195000D02*
D03*
X351400Y236562D02*
D03*
X345700Y224306D02*
D03*
X318357Y196057D02*
D03*
X342101Y235726D02*
D03*
X342101Y242626D02*
D03*
X288469Y237783D02*
D03*
X347822Y206678D02*
D03*
X392726Y160000D02*
D03*
X350752Y176900D02*
D03*
X441900Y189500D02*
D03*
X435300Y196500D02*
D03*
X347800Y201400D02*
D03*
Y212100D02*
D03*
X362400Y197600D02*
D03*
X361800Y199800D02*
D03*
X389700Y248400D02*
D03*
X404900Y205747D02*
D03*
D80*
X301341Y237962D02*
D03*
X306459D02*
D03*
D81*
X404745Y172200D02*
D03*
X422855D02*
D03*
D82*
X354981Y232981D02*
D03*
X358600Y236600D02*
D03*
D83*
X395395Y199381D02*
D03*
X391776Y203000D02*
D03*
M02*
