G04*
G04 #@! TF.GenerationSoftware,Altium Limited,Altium Designer,18.1.9 (240)*
G04*
G04 Layer_Color=128*
%FSLAX25Y25*%
%MOIN*%
G70*
G01*
G75*
%ADD10C,0.00200*%
D10*
X522429Y198100D02*
X525972D01*
X524200Y196328D02*
Y199872D01*
X512429Y203100D02*
X515972D01*
X514200Y201328D02*
Y204872D01*
X522429Y208100D02*
X525972D01*
X524200Y206329D02*
Y209872D01*
X512429Y213100D02*
X515972D01*
X514200Y211329D02*
Y214872D01*
X522429Y218100D02*
X525972D01*
X524200Y216329D02*
Y219871D01*
X512429Y223100D02*
X515972D01*
X514200Y221328D02*
Y224871D01*
X522429Y228100D02*
X525972D01*
X524200Y226328D02*
Y229872D01*
X512429Y233100D02*
X515972D01*
X514200Y231329D02*
Y234872D01*
X566719Y189517D02*
X570262D01*
X568491Y187745D02*
Y191288D01*
X566719Y199517D02*
X570262D01*
X568491Y197746D02*
Y201289D01*
X566719Y231682D02*
X570262D01*
X568491Y229910D02*
Y233453D01*
X566719Y241682D02*
X570262D01*
X568491Y239911D02*
Y243454D01*
X534239Y185304D02*
X540145D01*
X537192Y182351D02*
Y188257D01*
X534239Y246249D02*
X540145D01*
X537192Y243296D02*
Y249202D01*
X542310Y193100D02*
X556090D01*
X549200Y186210D02*
Y199990D01*
X542310Y238100D02*
X556090D01*
X549200Y231210D02*
Y244990D01*
X293147Y214411D02*
X299053D01*
X296100Y211458D02*
Y217364D01*
X293147Y200631D02*
X299053D01*
X296100Y197679D02*
Y203584D01*
X413025Y184709D02*
X416175D01*
X414600Y183135D02*
Y186284D01*
X413025Y160300D02*
X416175D01*
X414600Y158725D02*
Y161875D01*
X431529Y174080D02*
X434679D01*
X433104Y172505D02*
Y175654D01*
X409474Y210037D02*
X410674D01*
X410074Y209437D02*
Y210637D01*
X304700Y193100D02*
X305900D01*
X305300Y192500D02*
Y193700D01*
X288000Y193044D02*
X289200D01*
X288600Y192444D02*
Y193644D01*
X304500Y223500D02*
X305700D01*
X305100Y222900D02*
Y224100D01*
X288800Y223500D02*
X290000D01*
X289400Y222900D02*
Y224100D01*
X423418Y140836D02*
X424618D01*
X424018Y140236D02*
Y141436D01*
X413900Y140800D02*
X415100D01*
X414500Y140200D02*
Y141400D01*
X404400Y140700D02*
X405600D01*
X405000Y140100D02*
Y141300D01*
X378900Y217800D02*
X380100D01*
X379500Y217200D02*
Y218400D01*
X419900Y241578D02*
X421100D01*
X420500Y240978D02*
Y242178D01*
X328000Y211500D02*
X329200D01*
X328600Y210900D02*
Y212100D01*
X541100Y204977D02*
X542300D01*
X541700Y204377D02*
Y205577D01*
X541100Y215400D02*
X542300D01*
X541700Y214800D02*
Y216000D01*
X385600Y193100D02*
X386800D01*
X386200Y192500D02*
Y193700D01*
X381600Y193100D02*
X382800D01*
X382200Y192500D02*
Y193700D01*
X369800Y239100D02*
X371000D01*
X370400Y238500D02*
Y239700D01*
X372900Y239048D02*
X374100D01*
X373500Y238448D02*
Y239648D01*
X376700Y223500D02*
X377900D01*
X377300Y222900D02*
Y224100D01*
X364600Y218300D02*
X365800D01*
X365200Y217700D02*
Y218900D01*
X371700Y218300D02*
X372900D01*
X372300Y217700D02*
Y218900D01*
X367100Y225300D02*
X368300D01*
X367700Y224700D02*
Y225900D01*
X369100Y160400D02*
X370300D01*
X369700Y159800D02*
Y161000D01*
X369100Y168800D02*
X370300D01*
X369700Y168200D02*
Y169400D01*
X403600Y218994D02*
X404800D01*
X404200Y218394D02*
Y219595D01*
X412600Y216800D02*
X413800D01*
X413200Y216200D02*
Y217400D01*
X428418Y233571D02*
X429618D01*
X429018Y232971D02*
Y234171D01*
X468800Y212100D02*
X470000D01*
X469400Y211500D02*
Y212700D01*
X465000Y215900D02*
X466200D01*
X465600Y215300D02*
Y216500D01*
X460747Y220053D02*
X461947D01*
X461347Y219453D02*
Y220653D01*
X475100Y213000D02*
X476300D01*
X475700Y212400D02*
Y213600D01*
X495711Y211411D02*
X496911D01*
X496311Y210811D02*
Y212011D01*
X495800Y218947D02*
X497000D01*
X496400Y218347D02*
Y219547D01*
X495924Y234500D02*
X497124D01*
X496524Y233900D02*
Y235100D01*
X485513Y245700D02*
X486713D01*
X486113Y245100D02*
Y246300D01*
X447400Y245700D02*
X448600D01*
X448000Y245100D02*
Y246300D01*
X455400Y245700D02*
X456600D01*
X456000Y245100D02*
Y246300D01*
X505500Y228029D02*
X506700D01*
X506100Y227429D02*
Y228629D01*
X507100Y193000D02*
X508300D01*
X507700Y192400D02*
Y193600D01*
X505800Y195200D02*
X507000D01*
X506400Y194600D02*
Y195800D01*
X505700Y200300D02*
X506900D01*
X506300Y199700D02*
Y200900D01*
X353300Y216200D02*
X354500D01*
X353900Y215600D02*
Y216800D01*
X391176Y203000D02*
X392376D01*
X391776Y202400D02*
Y203600D01*
X398900Y196500D02*
X400100D01*
X399500Y195900D02*
Y197100D01*
X430400Y205743D02*
X431600D01*
X431000Y205143D02*
Y206343D01*
X485200Y232500D02*
X486400D01*
X485800Y231900D02*
Y233100D01*
X474428Y242157D02*
X475628D01*
X475028Y241557D02*
Y242757D01*
X474000Y245700D02*
X475200D01*
X474600Y245100D02*
Y246300D01*
X457100Y186800D02*
X458300D01*
X457700Y186200D02*
Y187400D01*
X319000Y237962D02*
X320200D01*
X319600Y237362D02*
Y238562D01*
X355895Y189495D02*
X357095D01*
X356495Y188895D02*
Y190095D01*
X364928Y195000D02*
X366127D01*
X365528Y194400D02*
Y195600D01*
X350800Y236562D02*
X352000D01*
X351400Y235962D02*
Y237162D01*
X345100Y224306D02*
X346300D01*
X345700Y223706D02*
Y224905D01*
X317758Y196057D02*
X318957D01*
X318357Y195457D02*
Y196658D01*
X341500Y235726D02*
X342701D01*
X342101Y235126D02*
Y236326D01*
X341500Y242626D02*
X342701D01*
X342101Y242026D02*
Y243226D01*
X287869Y237783D02*
X289069D01*
X288469Y237183D02*
Y238383D01*
X347222Y206678D02*
X348422D01*
X347822Y206078D02*
Y207278D01*
X392126Y160000D02*
X393326D01*
X392726Y159399D02*
Y160600D01*
X350152Y176900D02*
X351352D01*
X350752Y176300D02*
Y177500D01*
X441300Y189500D02*
X442500D01*
X441900Y188900D02*
Y190100D01*
X434700Y196500D02*
X435900D01*
X435300Y195900D02*
Y197100D01*
X347200Y201400D02*
X348400D01*
X347800Y200800D02*
Y202000D01*
X347200Y212100D02*
X348400D01*
X347800Y211500D02*
Y212700D01*
X361800Y197600D02*
X363000D01*
X362400Y197000D02*
Y198200D01*
X361200Y199800D02*
X362400D01*
X361800Y199200D02*
Y200400D01*
X389100Y248400D02*
X390300D01*
X389700Y247800D02*
Y249000D01*
X404300Y205747D02*
X405500D01*
X404900Y205147D02*
Y206347D01*
M02*
