G04*
G04 #@! TF.GenerationSoftware,Altium Limited,Altium Designer,18.1.9 (240)*
G04*
G04 Layer_Color=8388736*
%FSLAX25Y25*%
%MOIN*%
G70*
G01*
G75*
%ADD40R,0.05524X0.06312*%
%ADD41R,0.02375X0.02769*%
G04:AMPARAMS|DCode=42|XSize=17.84mil|YSize=69.02mil|CornerRadius=0mil|HoleSize=0mil|Usage=FLASHONLY|Rotation=315.000|XOffset=0mil|YOffset=0mil|HoleType=Round|Shape=Round|*
%AMOVALD42*
21,1,0.05118,0.01784,0.00000,0.00000,45.0*
1,1,0.01784,-0.01810,-0.01810*
1,1,0.01784,0.01810,0.01810*
%
%ADD42OVALD42*%

G04:AMPARAMS|DCode=43|XSize=17.84mil|YSize=69.02mil|CornerRadius=0mil|HoleSize=0mil|Usage=FLASHONLY|Rotation=225.000|XOffset=0mil|YOffset=0mil|HoleType=Round|Shape=Round|*
%AMOVALD43*
21,1,0.05118,0.01784,0.00000,0.00000,315.0*
1,1,0.01784,-0.01810,0.01810*
1,1,0.01784,0.01810,-0.01810*
%
%ADD43OVALD43*%

G04:AMPARAMS|DCode=44|XSize=23.75mil|YSize=27.69mil|CornerRadius=0mil|HoleSize=0mil|Usage=FLASHONLY|Rotation=225.000|XOffset=0mil|YOffset=0mil|HoleType=Round|Shape=Rectangle|*
%AMROTATEDRECTD44*
4,1,4,-0.00139,0.01818,0.01818,-0.00139,0.00139,-0.01818,-0.01818,0.00139,-0.00139,0.01818,0.0*
%
%ADD44ROTATEDRECTD44*%

%ADD45R,0.05524X0.05918*%
%ADD46R,0.02769X0.02375*%
%ADD47R,0.03800X0.03300*%
%ADD48O,0.01900X0.07887*%
%ADD49O,0.07887X0.01900*%
G04:AMPARAMS|DCode=50|XSize=102.49mil|YSize=94.61mil|CornerRadius=0mil|HoleSize=0mil|Usage=FLASHONLY|Rotation=225.000|XOffset=0mil|YOffset=0mil|HoleType=Round|Shape=Rectangle|*
%AMROTATEDRECTD50*
4,1,4,0.00278,0.06969,0.06969,0.00278,-0.00278,-0.06969,-0.06969,-0.00278,0.00278,0.06969,0.0*
%
%ADD50ROTATEDRECTD50*%

G04:AMPARAMS|DCode=51|XSize=23.75mil|YSize=27.69mil|CornerRadius=0mil|HoleSize=0mil|Usage=FLASHONLY|Rotation=135.000|XOffset=0mil|YOffset=0mil|HoleType=Round|Shape=Rectangle|*
%AMROTATEDRECTD51*
4,1,4,0.01818,0.00139,-0.00139,-0.01818,-0.01818,-0.00139,0.00139,0.01818,0.01818,0.00139,0.0*
%
%ADD51ROTATEDRECTD51*%

%ADD52R,0.08674X0.06706*%
%ADD53R,0.05800X0.04300*%
G04:AMPARAMS|DCode=54|XSize=58mil|YSize=43mil|CornerRadius=0mil|HoleSize=0mil|Usage=FLASHONLY|Rotation=0.000|XOffset=0mil|YOffset=0mil|HoleType=Round|Shape=Octagon|*
%AMOCTAGOND54*
4,1,8,0.02900,-0.01075,0.02900,0.01075,0.01825,0.02150,-0.01825,0.02150,-0.02900,0.01075,-0.02900,-0.01075,-0.01825,-0.02150,0.01825,-0.02150,0.02900,-0.01075,0.0*
%
%ADD54OCTAGOND54*%

%ADD55C,0.04737*%
%ADD56R,0.06706X0.02769*%
%ADD57O,0.06706X0.02769*%
%ADD58R,0.04300X0.05800*%
G04:AMPARAMS|DCode=59|XSize=58mil|YSize=43mil|CornerRadius=0mil|HoleSize=0mil|Usage=FLASHONLY|Rotation=270.000|XOffset=0mil|YOffset=0mil|HoleType=Round|Shape=Octagon|*
%AMOCTAGOND59*
4,1,8,-0.01075,-0.02900,0.01075,-0.02900,0.02150,-0.01825,0.02150,0.01825,0.01075,0.02900,-0.01075,0.02900,-0.02150,0.01825,-0.02150,-0.01825,-0.01075,-0.02900,0.0*
%
%ADD59OCTAGOND59*%

%ADD60R,0.09068X0.13398*%
%ADD61R,0.09068X0.04343*%
%ADD62R,0.08300X0.08300*%
%ADD63C,0.08300*%
%ADD64O,0.10643X0.08674*%
%ADD65C,0.13800*%
%ADD66R,0.10642X0.10642*%
%ADD67C,0.10642*%
%ADD68R,0.16548X0.08674*%
%ADD69R,0.08674X0.16548*%
D40*
X426793Y241829D02*
D03*
X413407D02*
D03*
X426600Y227453D02*
D03*
X413214D02*
D03*
X370507Y143200D02*
D03*
X383893Y143200D02*
D03*
X378593Y179900D02*
D03*
X365207Y179900D02*
D03*
D41*
X499825Y209200D02*
D03*
X503368Y209200D02*
D03*
X489529Y235048D02*
D03*
X492875D02*
D03*
X489529Y239048D02*
D03*
X492875D02*
D03*
X503171Y205200D02*
D03*
X499825D02*
D03*
Y225100D02*
D03*
X503171D02*
D03*
X504900Y186100D02*
D03*
X501357Y186100D02*
D03*
X504971Y244900D02*
D03*
X501428Y244900D02*
D03*
X489529Y222948D02*
D03*
X493072Y222947D02*
D03*
X499825Y213200D02*
D03*
X503171D02*
D03*
X499825Y217200D02*
D03*
X503171D02*
D03*
X489529Y203400D02*
D03*
X493072Y203400D02*
D03*
X493071Y231047D02*
D03*
X489528Y231047D02*
D03*
X493071Y211411D02*
D03*
X489528Y211411D02*
D03*
X489529Y207400D02*
D03*
X492875D02*
D03*
X493071Y218947D02*
D03*
X489528Y218947D02*
D03*
X503071Y195200D02*
D03*
X499725D02*
D03*
X503171Y200300D02*
D03*
X499825D02*
D03*
X433533Y237572D02*
D03*
X437076Y237571D02*
D03*
X436975Y227971D02*
D03*
X433432Y227971D02*
D03*
X437075Y233571D02*
D03*
X433729D02*
D03*
X489529Y226948D02*
D03*
X492875D02*
D03*
X489529Y199400D02*
D03*
X492875D02*
D03*
X489529Y195300D02*
D03*
X492875D02*
D03*
X433629Y208372D02*
D03*
X436975D02*
D03*
Y223871D02*
D03*
X433432Y223871D02*
D03*
X436975Y212371D02*
D03*
X433432Y212371D02*
D03*
X499825Y221100D02*
D03*
X503368Y221100D02*
D03*
D42*
X393090Y219779D02*
D03*
X391698Y221171D02*
D03*
X390306Y222563D02*
D03*
X388914Y223955D02*
D03*
X387522Y225346D02*
D03*
X386130Y226739D02*
D03*
X384738Y228130D02*
D03*
X383347Y229522D02*
D03*
X381955Y230914D02*
D03*
X380563Y232306D02*
D03*
X379171Y233698D02*
D03*
X377779Y235090D02*
D03*
X355510Y212821D02*
D03*
X356902Y211429D02*
D03*
X358294Y210037D02*
D03*
X359686Y208645D02*
D03*
X361078Y207254D02*
D03*
X362470Y205862D02*
D03*
X363861Y204470D02*
D03*
X365253Y203078D02*
D03*
X366645Y201686D02*
D03*
X368037Y200294D02*
D03*
X369429Y198902D02*
D03*
X370821Y197510D02*
D03*
D43*
Y235090D02*
D03*
X369429Y233698D02*
D03*
X368037Y232306D02*
D03*
X366645Y230914D02*
D03*
X365253Y229522D02*
D03*
X363861Y228130D02*
D03*
X362470Y226739D02*
D03*
X361078Y225346D02*
D03*
X359686Y223955D02*
D03*
X358294Y222563D02*
D03*
X356902Y221171D02*
D03*
X355510Y219779D02*
D03*
X377779Y197510D02*
D03*
X379171Y198902D02*
D03*
X380563Y200294D02*
D03*
X381955Y201686D02*
D03*
X383347Y203078D02*
D03*
X387522Y207254D02*
D03*
X390306Y210037D02*
D03*
X391698Y211429D02*
D03*
X393090Y212821D02*
D03*
D44*
X380847Y241948D02*
D03*
X383353Y244453D02*
D03*
X439447Y197148D02*
D03*
X441814Y199514D02*
D03*
X403453Y224752D02*
D03*
X400947Y222247D02*
D03*
X363800Y192000D02*
D03*
X361295Y189495D02*
D03*
D45*
X419253Y210566D02*
D03*
Y218834D02*
D03*
X425947D02*
D03*
Y210566D02*
D03*
D46*
X459200Y245700D02*
D03*
X459200Y242157D02*
D03*
X467400Y245700D02*
D03*
X467400Y242157D02*
D03*
X471500Y245700D02*
D03*
X471500Y242157D02*
D03*
X463300Y245700D02*
D03*
X463300Y242157D02*
D03*
X445628Y189500D02*
D03*
X445628Y192847D02*
D03*
X435200Y216400D02*
D03*
Y219746D02*
D03*
X477700Y189500D02*
D03*
Y192847D02*
D03*
X473700Y189500D02*
D03*
Y192847D02*
D03*
X469700Y189500D02*
D03*
Y192847D02*
D03*
X465700Y189500D02*
D03*
Y192847D02*
D03*
X461700Y189500D02*
D03*
Y192847D02*
D03*
X457700Y189500D02*
D03*
Y192847D02*
D03*
X453655Y189500D02*
D03*
Y192847D02*
D03*
X449700Y189500D02*
D03*
X449700Y192847D02*
D03*
X322500Y247171D02*
D03*
X322500Y243825D02*
D03*
X344599Y199726D02*
D03*
Y203072D02*
D03*
X344600Y210221D02*
D03*
X344600Y206678D02*
D03*
X328400Y236900D02*
D03*
Y233554D02*
D03*
X328500Y241229D02*
D03*
X328500Y244575D02*
D03*
X344600Y217221D02*
D03*
Y213875D02*
D03*
X393100Y174229D02*
D03*
X393100Y177575D02*
D03*
X363300Y141529D02*
D03*
X363300Y145072D02*
D03*
X386300Y178129D02*
D03*
X386300Y181672D02*
D03*
D47*
X417300Y234700D02*
D03*
X422300D02*
D03*
D48*
X475527Y201055D02*
D03*
X473558D02*
D03*
X469621Y201055D02*
D03*
X467653D02*
D03*
X465684D02*
D03*
X463716D02*
D03*
X461747Y201055D02*
D03*
X459779D02*
D03*
X457810Y201055D02*
D03*
X455842D02*
D03*
X453873D02*
D03*
X455842Y233145D02*
D03*
X457810D02*
D03*
X459779D02*
D03*
X461747D02*
D03*
X463716D02*
D03*
X465684D02*
D03*
X467653D02*
D03*
X469621D02*
D03*
X471590D02*
D03*
X473558D02*
D03*
D49*
X448655Y206273D02*
D03*
Y208242D02*
D03*
X448655Y210210D02*
D03*
Y212179D02*
D03*
X448655Y214147D02*
D03*
Y216116D02*
D03*
Y218084D02*
D03*
Y220053D02*
D03*
Y222021D02*
D03*
X448655Y223990D02*
D03*
Y225958D02*
D03*
Y227927D02*
D03*
X480745Y225958D02*
D03*
Y223990D02*
D03*
Y222021D02*
D03*
Y220053D02*
D03*
Y218084D02*
D03*
Y216116D02*
D03*
Y214147D02*
D03*
Y212179D02*
D03*
Y210210D02*
D03*
Y208242D02*
D03*
X480745Y206273D02*
D03*
D50*
X389028Y239962D02*
D03*
X398772Y230218D02*
D03*
D51*
X403348Y238153D02*
D03*
X405714Y235787D02*
D03*
X396752Y244747D02*
D03*
X394247Y247253D02*
D03*
X397848Y208253D02*
D03*
X400353Y205747D02*
D03*
X350752Y224347D02*
D03*
X348247Y226853D02*
D03*
D52*
X319528Y237861D02*
D03*
X288297Y237783D02*
D03*
D53*
X324700Y194626D02*
D03*
X335101Y235726D02*
D03*
X335101Y242626D02*
D03*
X324301Y222447D02*
D03*
D54*
X331700Y194626D02*
D03*
X342101Y235726D02*
D03*
X342101Y242626D02*
D03*
X331300Y222447D02*
D03*
D55*
X350700Y176900D02*
D03*
Y166900D02*
D03*
Y156900D02*
D03*
Y146900D02*
D03*
D03*
D56*
X338042Y201021D02*
D03*
D57*
Y206021D02*
D03*
Y211021D02*
D03*
Y216021D02*
D03*
X318357Y201021D02*
D03*
Y206021D02*
D03*
Y211021D02*
D03*
Y216021D02*
D03*
D58*
X392726Y166999D02*
D03*
D59*
Y160000D02*
D03*
D60*
X361879Y161500D02*
D03*
D61*
X384320Y170555D02*
D03*
Y161500D02*
D03*
Y152445D02*
D03*
D62*
X524200Y198100D02*
D03*
D63*
X514200Y203100D02*
D03*
X524200Y208100D02*
D03*
X514200Y213100D02*
D03*
X524200Y218100D02*
D03*
X514200Y223100D02*
D03*
X524200Y228100D02*
D03*
X514200Y233100D02*
D03*
X568491Y189517D02*
D03*
Y199517D02*
D03*
Y231682D02*
D03*
Y241682D02*
D03*
D64*
X537192Y185304D02*
D03*
Y246249D02*
D03*
D65*
X549200Y193100D02*
D03*
Y238100D02*
D03*
D66*
X296100Y214411D02*
D03*
D67*
Y200631D02*
D03*
D68*
X414600Y184709D02*
D03*
Y160300D02*
D03*
D69*
X433104Y174080D02*
D03*
M02*
