G04*
G04 #@! TF.GenerationSoftware,Altium Limited,Altium Designer,18.1.9 (240)*
G04*
G04 Layer_Color=255*
%FSLAX25Y25*%
%MOIN*%
G70*
G01*
G75*
%ADD18R,0.04724X0.05512*%
%ADD19R,0.01575X0.01968*%
G04:AMPARAMS|DCode=20|XSize=9.84mil|YSize=61.02mil|CornerRadius=0mil|HoleSize=0mil|Usage=FLASHONLY|Rotation=315.000|XOffset=0mil|YOffset=0mil|HoleType=Round|Shape=Round|*
%AMOVALD20*
21,1,0.05118,0.00984,0.00000,0.00000,45.0*
1,1,0.00984,-0.01810,-0.01810*
1,1,0.00984,0.01810,0.01810*
%
%ADD20OVALD20*%

G04:AMPARAMS|DCode=21|XSize=9.84mil|YSize=61.02mil|CornerRadius=0mil|HoleSize=0mil|Usage=FLASHONLY|Rotation=225.000|XOffset=0mil|YOffset=0mil|HoleType=Round|Shape=Round|*
%AMOVALD21*
21,1,0.05118,0.00984,0.00000,0.00000,315.0*
1,1,0.00984,-0.01810,0.01810*
1,1,0.00984,0.01810,-0.01810*
%
%ADD21OVALD21*%

G04:AMPARAMS|DCode=22|XSize=15.75mil|YSize=19.68mil|CornerRadius=0mil|HoleSize=0mil|Usage=FLASHONLY|Rotation=225.000|XOffset=0mil|YOffset=0mil|HoleType=Round|Shape=Rectangle|*
%AMROTATEDRECTD22*
4,1,4,-0.00139,0.01253,0.01253,-0.00139,0.00139,-0.01253,-0.01253,0.00139,-0.00139,0.01253,0.0*
%
%ADD22ROTATEDRECTD22*%

%ADD23R,0.04724X0.05118*%
%ADD24R,0.01968X0.01575*%
%ADD25R,0.03000X0.02500*%
%ADD26O,0.01100X0.07087*%
%ADD27O,0.07087X0.01100*%
G04:AMPARAMS|DCode=28|XSize=94.49mil|YSize=86.61mil|CornerRadius=0mil|HoleSize=0mil|Usage=FLASHONLY|Rotation=225.000|XOffset=0mil|YOffset=0mil|HoleType=Round|Shape=Rectangle|*
%AMROTATEDRECTD28*
4,1,4,0.00278,0.06403,0.06403,0.00278,-0.00278,-0.06403,-0.06403,-0.00278,0.00278,0.06403,0.0*
%
%ADD28ROTATEDRECTD28*%

G04:AMPARAMS|DCode=29|XSize=15.75mil|YSize=19.68mil|CornerRadius=0mil|HoleSize=0mil|Usage=FLASHONLY|Rotation=135.000|XOffset=0mil|YOffset=0mil|HoleType=Round|Shape=Rectangle|*
%AMROTATEDRECTD29*
4,1,4,0.01253,0.00139,-0.00139,-0.01253,-0.01253,-0.00139,0.00139,0.01253,0.01253,0.00139,0.0*
%
%ADD29ROTATEDRECTD29*%

%ADD30R,0.07874X0.05906*%
%ADD31R,0.05000X0.03500*%
G04:AMPARAMS|DCode=32|XSize=50mil|YSize=35mil|CornerRadius=0mil|HoleSize=0mil|Usage=FLASHONLY|Rotation=0.000|XOffset=0mil|YOffset=0mil|HoleType=Round|Shape=Octagon|*
%AMOCTAGOND32*
4,1,8,0.02500,-0.00875,0.02500,0.00875,0.01625,0.01750,-0.01625,0.01750,-0.02500,0.00875,-0.02500,-0.00875,-0.01625,-0.01750,0.01625,-0.01750,0.02500,-0.00875,0.0*
%
%ADD32OCTAGOND32*%

%ADD33C,0.03937*%
%ADD34R,0.05906X0.01968*%
%ADD35O,0.05906X0.01968*%
%ADD36R,0.03500X0.05000*%
G04:AMPARAMS|DCode=37|XSize=50mil|YSize=35mil|CornerRadius=0mil|HoleSize=0mil|Usage=FLASHONLY|Rotation=270.000|XOffset=0mil|YOffset=0mil|HoleType=Round|Shape=Octagon|*
%AMOCTAGOND37*
4,1,8,-0.00875,-0.02500,0.00875,-0.02500,0.01750,-0.01625,0.01750,0.01625,0.00875,0.02500,-0.00875,0.02500,-0.01750,0.01625,-0.01750,-0.01625,-0.00875,-0.02500,0.0*
%
%ADD37OCTAGOND37*%

%ADD38R,0.08268X0.12598*%
%ADD39R,0.08268X0.03543*%
%ADD71R,0.07500X0.07500*%
%ADD72C,0.07500*%
%ADD73O,0.09843X0.07874*%
%ADD74C,0.13000*%
%ADD75R,0.09843X0.09843*%
%ADD76C,0.09843*%
%ADD77R,0.15748X0.07874*%
%ADD78R,0.07874X0.15748*%
D18*
X426793Y241829D02*
D03*
X413407D02*
D03*
X426600Y227453D02*
D03*
X413214D02*
D03*
X370507Y143200D02*
D03*
X383893Y143200D02*
D03*
X378593Y179900D02*
D03*
X365207Y179900D02*
D03*
D19*
X499825Y209200D02*
D03*
X503368Y209200D02*
D03*
X489529Y235048D02*
D03*
X492875D02*
D03*
X489529Y239048D02*
D03*
X492875D02*
D03*
X503171Y205200D02*
D03*
X499825D02*
D03*
Y225100D02*
D03*
X503171D02*
D03*
X504900Y186100D02*
D03*
X501357Y186100D02*
D03*
X504971Y244900D02*
D03*
X501428Y244900D02*
D03*
X489529Y222948D02*
D03*
X493072Y222947D02*
D03*
X499825Y213200D02*
D03*
X503171D02*
D03*
X499825Y217200D02*
D03*
X503171D02*
D03*
X489529Y203400D02*
D03*
X493072Y203400D02*
D03*
X493071Y231047D02*
D03*
X489528Y231047D02*
D03*
X493071Y211411D02*
D03*
X489528Y211411D02*
D03*
X489529Y207400D02*
D03*
X492875D02*
D03*
X493071Y218947D02*
D03*
X489528Y218947D02*
D03*
X503071Y195200D02*
D03*
X499725D02*
D03*
X503171Y200300D02*
D03*
X499825D02*
D03*
X433533Y237572D02*
D03*
X437076Y237571D02*
D03*
X436975Y227971D02*
D03*
X433432Y227971D02*
D03*
X437075Y233571D02*
D03*
X433729D02*
D03*
X489529Y226948D02*
D03*
X492875D02*
D03*
X489529Y199400D02*
D03*
X492875D02*
D03*
X489529Y195300D02*
D03*
X492875D02*
D03*
X433629Y208372D02*
D03*
X436975D02*
D03*
Y223871D02*
D03*
X433432Y223871D02*
D03*
X436975Y212371D02*
D03*
X433432Y212371D02*
D03*
X499825Y221100D02*
D03*
X503368Y221100D02*
D03*
D20*
X393090Y219779D02*
D03*
X391698Y221171D02*
D03*
X390306Y222563D02*
D03*
X388914Y223955D02*
D03*
X387522Y225346D02*
D03*
X386130Y226739D02*
D03*
X384738Y228130D02*
D03*
X383347Y229522D02*
D03*
X381955Y230914D02*
D03*
X380563Y232306D02*
D03*
X379171Y233698D02*
D03*
X377779Y235090D02*
D03*
X355510Y212821D02*
D03*
X356902Y211429D02*
D03*
X358294Y210037D02*
D03*
X359686Y208645D02*
D03*
X361078Y207254D02*
D03*
X362470Y205862D02*
D03*
X363861Y204470D02*
D03*
X365253Y203078D02*
D03*
X366645Y201686D02*
D03*
X368037Y200294D02*
D03*
X369429Y198902D02*
D03*
X370821Y197510D02*
D03*
D21*
Y235090D02*
D03*
X369429Y233698D02*
D03*
X368037Y232306D02*
D03*
X366645Y230914D02*
D03*
X365253Y229522D02*
D03*
X363861Y228130D02*
D03*
X362470Y226739D02*
D03*
X361078Y225346D02*
D03*
X359686Y223955D02*
D03*
X358294Y222563D02*
D03*
X356902Y221171D02*
D03*
X355510Y219779D02*
D03*
X377779Y197510D02*
D03*
X379171Y198902D02*
D03*
X380563Y200294D02*
D03*
X381955Y201686D02*
D03*
X383347Y203078D02*
D03*
X387522Y207254D02*
D03*
X390306Y210037D02*
D03*
X391698Y211429D02*
D03*
X393090Y212821D02*
D03*
D22*
X380847Y241948D02*
D03*
X383353Y244453D02*
D03*
X439447Y197148D02*
D03*
X441814Y199514D02*
D03*
X403453Y224752D02*
D03*
X400947Y222247D02*
D03*
X363800Y192000D02*
D03*
X361295Y189495D02*
D03*
D23*
X419253Y210566D02*
D03*
Y218834D02*
D03*
X425947D02*
D03*
Y210566D02*
D03*
D24*
X459200Y245700D02*
D03*
X459200Y242157D02*
D03*
X467400Y245700D02*
D03*
X467400Y242157D02*
D03*
X471500Y245700D02*
D03*
X471500Y242157D02*
D03*
X463300Y245700D02*
D03*
X463300Y242157D02*
D03*
X445628Y189500D02*
D03*
X445628Y192847D02*
D03*
X435200Y216400D02*
D03*
Y219746D02*
D03*
X477700Y189500D02*
D03*
Y192847D02*
D03*
X473700Y189500D02*
D03*
Y192847D02*
D03*
X469700Y189500D02*
D03*
Y192847D02*
D03*
X465700Y189500D02*
D03*
Y192847D02*
D03*
X461700Y189500D02*
D03*
Y192847D02*
D03*
X457700Y189500D02*
D03*
Y192847D02*
D03*
X453655Y189500D02*
D03*
Y192847D02*
D03*
X449700Y189500D02*
D03*
X449700Y192847D02*
D03*
X322500Y247171D02*
D03*
X322500Y243825D02*
D03*
X344599Y199726D02*
D03*
Y203072D02*
D03*
X344600Y210221D02*
D03*
X344600Y206678D02*
D03*
X328400Y236900D02*
D03*
Y233554D02*
D03*
X328500Y241229D02*
D03*
X328500Y244575D02*
D03*
X344600Y217221D02*
D03*
Y213875D02*
D03*
X393100Y174229D02*
D03*
X393100Y177575D02*
D03*
X363300Y141529D02*
D03*
X363300Y145072D02*
D03*
X386300Y178129D02*
D03*
X386300Y181672D02*
D03*
D25*
X417300Y234700D02*
D03*
X422300D02*
D03*
D26*
X475527Y201055D02*
D03*
X473558D02*
D03*
X469621Y201055D02*
D03*
X467653D02*
D03*
X465684D02*
D03*
X463716D02*
D03*
X461747Y201055D02*
D03*
X459779D02*
D03*
X457810Y201055D02*
D03*
X455842D02*
D03*
X453873D02*
D03*
X455842Y233145D02*
D03*
X457810D02*
D03*
X459779D02*
D03*
X461747D02*
D03*
X463716D02*
D03*
X465684D02*
D03*
X467653D02*
D03*
X469621D02*
D03*
X471590D02*
D03*
X473558D02*
D03*
D27*
X448655Y206273D02*
D03*
Y208242D02*
D03*
X448655Y210210D02*
D03*
Y212179D02*
D03*
X448655Y214147D02*
D03*
Y216116D02*
D03*
Y218084D02*
D03*
Y220053D02*
D03*
Y222021D02*
D03*
X448655Y223990D02*
D03*
Y225958D02*
D03*
Y227927D02*
D03*
X480745Y225958D02*
D03*
Y223990D02*
D03*
Y222021D02*
D03*
Y220053D02*
D03*
Y218084D02*
D03*
Y216116D02*
D03*
Y214147D02*
D03*
Y212179D02*
D03*
Y210210D02*
D03*
Y208242D02*
D03*
X480745Y206273D02*
D03*
D28*
X389028Y239962D02*
D03*
X398772Y230218D02*
D03*
D29*
X403348Y238153D02*
D03*
X405714Y235787D02*
D03*
X396752Y244747D02*
D03*
X394247Y247253D02*
D03*
X397848Y208253D02*
D03*
X400353Y205747D02*
D03*
X350752Y224347D02*
D03*
X348247Y226853D02*
D03*
D30*
X319528Y237861D02*
D03*
X288297Y237783D02*
D03*
D31*
X324700Y194626D02*
D03*
X335101Y235726D02*
D03*
X335101Y242626D02*
D03*
X324301Y222447D02*
D03*
D32*
X331700Y194626D02*
D03*
X342101Y235726D02*
D03*
X342101Y242626D02*
D03*
X331300Y222447D02*
D03*
D33*
X350700Y176900D02*
D03*
Y166900D02*
D03*
Y156900D02*
D03*
Y146900D02*
D03*
D03*
D34*
X338042Y201021D02*
D03*
D35*
Y206021D02*
D03*
Y211021D02*
D03*
Y216021D02*
D03*
X318357Y201021D02*
D03*
Y206021D02*
D03*
Y211021D02*
D03*
Y216021D02*
D03*
D36*
X392726Y166999D02*
D03*
D37*
Y160000D02*
D03*
D38*
X361879Y161500D02*
D03*
D39*
X384320Y170555D02*
D03*
Y161500D02*
D03*
Y152445D02*
D03*
D71*
X524200Y198100D02*
D03*
D72*
X514200Y203100D02*
D03*
X524200Y208100D02*
D03*
X514200Y213100D02*
D03*
X524200Y218100D02*
D03*
X514200Y223100D02*
D03*
X524200Y228100D02*
D03*
X514200Y233100D02*
D03*
X568491Y189517D02*
D03*
Y199517D02*
D03*
Y231682D02*
D03*
Y241682D02*
D03*
D73*
X537192Y185304D02*
D03*
Y246249D02*
D03*
D74*
X549200Y193100D02*
D03*
Y238100D02*
D03*
D75*
X296100Y214411D02*
D03*
D76*
Y200631D02*
D03*
D77*
X414600Y184709D02*
D03*
Y160300D02*
D03*
D78*
X433104Y174080D02*
D03*
M02*
