G04*
G04 #@! TF.GenerationSoftware,Altium Limited,Altium Designer,18.1.9 (240)*
G04*
G04 Layer_Color=2752767*
%FSLAX25Y25*%
%MOIN*%
G70*
G01*
G75*
%ADD10C,0.00200*%
%ADD11C,0.00267*%
D10*
X523400Y197300D02*
Y198900D01*
X525000D01*
Y197300D01*
X523400D01*
X513400Y202300D02*
Y203900D01*
X515000D01*
Y202300D01*
X513400D01*
X523400Y207300D02*
Y208900D01*
X525000D01*
Y207300D01*
X523400D01*
X513400Y212300D02*
Y213900D01*
X515000D01*
Y212300D01*
X513400D01*
X523400Y217300D02*
Y218900D01*
X525000D01*
Y217300D01*
X523400D01*
X513400Y222300D02*
Y223900D01*
X515000D01*
Y222300D01*
X513400D01*
X523400Y227300D02*
Y228900D01*
X525000D01*
Y227300D01*
X523400D01*
X513400Y232300D02*
Y233900D01*
X515000D01*
Y232300D01*
X513400D01*
X567691Y188717D02*
Y190317D01*
X569291D01*
Y188717D01*
X567691D01*
Y198717D02*
Y200317D01*
X569291D01*
Y198717D01*
X567691D01*
Y230882D02*
Y232482D01*
X569291D01*
Y230882D01*
X567691D01*
Y240882D02*
Y242482D01*
X569291D01*
Y240882D01*
X567691D01*
X549200Y192300D02*
X548400Y193900D01*
X550000D01*
X549200Y192300D01*
Y237300D02*
X548400Y238900D01*
X550000D01*
X549200Y237300D01*
X296100Y213611D02*
X296500Y214011D01*
X296900D01*
X296500Y214411D01*
X296900Y214811D01*
X296500D01*
X296100Y215211D01*
X295700Y214811D01*
X295300D01*
X295700Y214411D01*
X295300Y214011D01*
X295700D01*
X296100Y213611D01*
Y199831D02*
X296500Y200232D01*
X296900D01*
X296500Y200631D01*
X296900Y201031D01*
X296500D01*
X296100Y201431D01*
X295700Y201031D01*
X295300D01*
X295700Y200631D01*
X295300Y200232D01*
X295700D01*
X296100Y199831D01*
X413800Y183909D02*
X414200Y184709D01*
X413800Y185509D01*
X414600Y185109D01*
X415400Y185509D01*
X415000Y184709D01*
X415400Y183909D01*
X414600Y184309D01*
X413800Y183909D01*
Y159500D02*
X414200Y160300D01*
X413800Y161100D01*
X414600Y160700D01*
X415400Y161100D01*
X415000Y160300D01*
X415400Y159500D01*
X414600Y159900D01*
X413800Y159500D01*
X432704Y173679D02*
Y173280D01*
X433504D01*
Y173679D01*
X433904D01*
Y174479D01*
X433504D01*
Y174880D01*
X432704D01*
Y174479D01*
X432304D01*
Y173679D01*
X432704D01*
X409274Y209237D02*
X409674D01*
X410074Y209637D01*
X410474Y209237D01*
X410874D01*
Y209637D01*
X410474Y210037D01*
X410874Y210437D01*
Y210837D01*
X410474D01*
X410074Y210437D01*
X409674Y210837D01*
X409274D01*
Y210437D01*
X409674Y210037D01*
X409274Y209637D01*
Y209237D01*
X304500Y192300D02*
X304900D01*
X305300Y192700D01*
X305700Y192300D01*
X306100D01*
Y192700D01*
X305700Y193100D01*
X306100Y193500D01*
Y193900D01*
X305700D01*
X305300Y193500D01*
X304900Y193900D01*
X304500D01*
Y193500D01*
X304900Y193100D01*
X304500Y192700D01*
Y192300D01*
X287800Y192244D02*
X288200D01*
X288600Y192644D01*
X289000Y192244D01*
X289400D01*
Y192644D01*
X289000Y193044D01*
X289400Y193444D01*
Y193844D01*
X289000D01*
X288600Y193444D01*
X288200Y193844D01*
X287800D01*
Y193444D01*
X288200Y193044D01*
X287800Y192644D01*
Y192244D01*
X304300Y222700D02*
X304700D01*
X305100Y223100D01*
X305500Y222700D01*
X305900D01*
Y223100D01*
X305500Y223500D01*
X305900Y223900D01*
Y224300D01*
X305500D01*
X305100Y223900D01*
X304700Y224300D01*
X304300D01*
Y223900D01*
X304700Y223500D01*
X304300Y223100D01*
Y222700D01*
X288600D02*
X289000D01*
X289400Y223100D01*
X289800Y222700D01*
X290200D01*
Y223100D01*
X289800Y223500D01*
X290200Y223900D01*
Y224300D01*
X289800D01*
X289400Y223900D01*
X289000Y224300D01*
X288600D01*
Y223900D01*
X289000Y223500D01*
X288600Y223100D01*
Y222700D01*
X423218Y140036D02*
X423618D01*
X424018Y140436D01*
X424418Y140036D01*
X424818D01*
Y140436D01*
X424418Y140836D01*
X424818Y141236D01*
Y141636D01*
X424418D01*
X424018Y141236D01*
X423618Y141636D01*
X423218D01*
Y141236D01*
X423618Y140836D01*
X423218Y140436D01*
Y140036D01*
X413700Y140000D02*
X414100D01*
X414500Y140400D01*
X414900Y140000D01*
X415300D01*
Y140400D01*
X414900Y140800D01*
X415300Y141200D01*
Y141600D01*
X414900D01*
X414500Y141200D01*
X414100Y141600D01*
X413700D01*
Y141200D01*
X414100Y140800D01*
X413700Y140400D01*
Y140000D01*
X404200Y139900D02*
X404600D01*
X405000Y140300D01*
X405400Y139900D01*
X405800D01*
Y140300D01*
X405400Y140700D01*
X405800Y141100D01*
Y141500D01*
X405400D01*
X405000Y141100D01*
X404600Y141500D01*
X404200D01*
Y141100D01*
X404600Y140700D01*
X404200Y140300D01*
Y139900D01*
X378700Y217000D02*
X379100D01*
X379500Y217400D01*
X379900Y217000D01*
X380300D01*
Y217400D01*
X379900Y217800D01*
X380300Y218200D01*
Y218600D01*
X379900D01*
X379500Y218200D01*
X379100Y218600D01*
X378700D01*
Y218200D01*
X379100Y217800D01*
X378700Y217400D01*
Y217000D01*
X419700Y240778D02*
X420100D01*
X420500Y241178D01*
X420900Y240778D01*
X421300D01*
Y241178D01*
X420900Y241578D01*
X421300Y241978D01*
Y242378D01*
X420900D01*
X420500Y241978D01*
X420100Y242378D01*
X419700D01*
Y241978D01*
X420100Y241578D01*
X419700Y241178D01*
Y240778D01*
X327800Y210700D02*
X328200D01*
X328600Y211100D01*
X329000Y210700D01*
X329400D01*
Y211100D01*
X329000Y211500D01*
X329400Y211900D01*
Y212300D01*
X329000D01*
X328600Y211900D01*
X328200Y212300D01*
X327800D01*
Y211900D01*
X328200Y211500D01*
X327800Y211100D01*
Y210700D01*
X540900Y204177D02*
X541300D01*
X541700Y204577D01*
X542100Y204177D01*
X542500D01*
Y204577D01*
X542100Y204977D01*
X542500Y205377D01*
Y205777D01*
X542100D01*
X541700Y205377D01*
X541300Y205777D01*
X540900D01*
Y205377D01*
X541300Y204977D01*
X540900Y204577D01*
Y204177D01*
Y214600D02*
X541300D01*
X541700Y215000D01*
X542100Y214600D01*
X542500D01*
Y215000D01*
X542100Y215400D01*
X542500Y215800D01*
Y216200D01*
X542100D01*
X541700Y215800D01*
X541300Y216200D01*
X540900D01*
Y215800D01*
X541300Y215400D01*
X540900Y215000D01*
Y214600D01*
X385400Y192300D02*
X385800D01*
X386200Y192700D01*
X386600Y192300D01*
X387000D01*
Y192700D01*
X386600Y193100D01*
X387000Y193500D01*
Y193900D01*
X386600D01*
X386200Y193500D01*
X385800Y193900D01*
X385400D01*
Y193500D01*
X385800Y193100D01*
X385400Y192700D01*
Y192300D01*
X381400D02*
X381800D01*
X382200Y192700D01*
X382600Y192300D01*
X383000D01*
Y192700D01*
X382600Y193100D01*
X383000Y193500D01*
Y193900D01*
X382600D01*
X382200Y193500D01*
X381800Y193900D01*
X381400D01*
Y193500D01*
X381800Y193100D01*
X381400Y192700D01*
Y192300D01*
X369600Y238300D02*
X370000D01*
X370400Y238700D01*
X370800Y238300D01*
X371200D01*
Y238700D01*
X370800Y239100D01*
X371200Y239500D01*
Y239900D01*
X370800D01*
X370400Y239500D01*
X370000Y239900D01*
X369600D01*
Y239500D01*
X370000Y239100D01*
X369600Y238700D01*
Y238300D01*
X372700Y238248D02*
X373100D01*
X373500Y238648D01*
X373900Y238248D01*
X374300D01*
Y238648D01*
X373900Y239048D01*
X374300Y239448D01*
Y239848D01*
X373900D01*
X373500Y239448D01*
X373100Y239848D01*
X372700D01*
Y239448D01*
X373100Y239048D01*
X372700Y238648D01*
Y238248D01*
X376500Y222700D02*
X376900D01*
X377300Y223100D01*
X377700Y222700D01*
X378100D01*
Y223100D01*
X377700Y223500D01*
X378100Y223900D01*
Y224300D01*
X377700D01*
X377300Y223900D01*
X376900Y224300D01*
X376500D01*
Y223900D01*
X376900Y223500D01*
X376500Y223100D01*
Y222700D01*
X364400Y217500D02*
X364800D01*
X365200Y217900D01*
X365600Y217500D01*
X366000D01*
Y217900D01*
X365600Y218300D01*
X366000Y218700D01*
Y219100D01*
X365600D01*
X365200Y218700D01*
X364800Y219100D01*
X364400D01*
Y218700D01*
X364800Y218300D01*
X364400Y217900D01*
Y217500D01*
X371500D02*
X371900D01*
X372300Y217900D01*
X372700Y217500D01*
X373100D01*
Y217900D01*
X372700Y218300D01*
X373100Y218700D01*
Y219100D01*
X372700D01*
X372300Y218700D01*
X371900Y219100D01*
X371500D01*
Y218700D01*
X371900Y218300D01*
X371500Y217900D01*
Y217500D01*
X366900Y224500D02*
X367300D01*
X367700Y224900D01*
X368100Y224500D01*
X368500D01*
Y224900D01*
X368100Y225300D01*
X368500Y225700D01*
Y226100D01*
X368100D01*
X367700Y225700D01*
X367300Y226100D01*
X366900D01*
Y225700D01*
X367300Y225300D01*
X366900Y224900D01*
Y224500D01*
X368900Y159600D02*
X369300D01*
X369700Y160000D01*
X370100Y159600D01*
X370500D01*
Y160000D01*
X370100Y160400D01*
X370500Y160800D01*
Y161200D01*
X370100D01*
X369700Y160800D01*
X369300Y161200D01*
X368900D01*
Y160800D01*
X369300Y160400D01*
X368900Y160000D01*
Y159600D01*
Y168000D02*
X369300D01*
X369700Y168400D01*
X370100Y168000D01*
X370500D01*
Y168400D01*
X370100Y168800D01*
X370500Y169200D01*
Y169600D01*
X370100D01*
X369700Y169200D01*
X369300Y169600D01*
X368900D01*
Y169200D01*
X369300Y168800D01*
X368900Y168400D01*
Y168000D01*
X403400Y218195D02*
X403800D01*
X404200Y218595D01*
X404600Y218195D01*
X405000D01*
Y218595D01*
X404600Y218994D01*
X405000Y219394D01*
Y219795D01*
X404600D01*
X404200Y219394D01*
X403800Y219795D01*
X403400D01*
Y219394D01*
X403800Y218994D01*
X403400Y218595D01*
Y218195D01*
X412400Y216000D02*
X412800D01*
X413200Y216400D01*
X413600Y216000D01*
X414000D01*
Y216400D01*
X413600Y216800D01*
X414000Y217200D01*
Y217600D01*
X413600D01*
X413200Y217200D01*
X412800Y217600D01*
X412400D01*
Y217200D01*
X412800Y216800D01*
X412400Y216400D01*
Y216000D01*
X428218Y232771D02*
X428618D01*
X429018Y233171D01*
X429418Y232771D01*
X429818D01*
Y233171D01*
X429418Y233571D01*
X429818Y233971D01*
Y234371D01*
X429418D01*
X429018Y233971D01*
X428618Y234371D01*
X428218D01*
Y233971D01*
X428618Y233571D01*
X428218Y233171D01*
Y232771D01*
X468600Y211300D02*
X469000D01*
X469400Y211700D01*
X469800Y211300D01*
X470200D01*
Y211700D01*
X469800Y212100D01*
X470200Y212500D01*
Y212900D01*
X469800D01*
X469400Y212500D01*
X469000Y212900D01*
X468600D01*
Y212500D01*
X469000Y212100D01*
X468600Y211700D01*
Y211300D01*
X464800Y215100D02*
X465200D01*
X465600Y215500D01*
X466000Y215100D01*
X466400D01*
Y215500D01*
X466000Y215900D01*
X466400Y216300D01*
Y216700D01*
X466000D01*
X465600Y216300D01*
X465200Y216700D01*
X464800D01*
Y216300D01*
X465200Y215900D01*
X464800Y215500D01*
Y215100D01*
X460547Y219253D02*
X460947D01*
X461347Y219653D01*
X461747Y219253D01*
X462147D01*
Y219653D01*
X461747Y220053D01*
X462147Y220453D01*
Y220853D01*
X461747D01*
X461347Y220453D01*
X460947Y220853D01*
X460547D01*
Y220453D01*
X460947Y220053D01*
X460547Y219653D01*
Y219253D01*
X474900Y212200D02*
X475300D01*
X475700Y212600D01*
X476100Y212200D01*
X476500D01*
Y212600D01*
X476100Y213000D01*
X476500Y213400D01*
Y213800D01*
X476100D01*
X475700Y213400D01*
X475300Y213800D01*
X474900D01*
Y213400D01*
X475300Y213000D01*
X474900Y212600D01*
Y212200D01*
X495511Y210611D02*
X495911D01*
X496311Y211011D01*
X496711Y210611D01*
X497111D01*
Y211011D01*
X496711Y211411D01*
X497111Y211811D01*
Y212211D01*
X496711D01*
X496311Y211811D01*
X495911Y212211D01*
X495511D01*
Y211811D01*
X495911Y211411D01*
X495511Y211011D01*
Y210611D01*
X495600Y218147D02*
X496000D01*
X496400Y218547D01*
X496800Y218147D01*
X497200D01*
Y218547D01*
X496800Y218947D01*
X497200Y219347D01*
Y219747D01*
X496800D01*
X496400Y219347D01*
X496000Y219747D01*
X495600D01*
Y219347D01*
X496000Y218947D01*
X495600Y218547D01*
Y218147D01*
X495724Y233700D02*
X496124D01*
X496524Y234100D01*
X496924Y233700D01*
X497324D01*
Y234100D01*
X496924Y234500D01*
X497324Y234900D01*
Y235300D01*
X496924D01*
X496524Y234900D01*
X496124Y235300D01*
X495724D01*
Y234900D01*
X496124Y234500D01*
X495724Y234100D01*
Y233700D01*
X485313Y244900D02*
X485713D01*
X486113Y245300D01*
X486513Y244900D01*
X486913D01*
Y245300D01*
X486513Y245700D01*
X486913Y246100D01*
Y246500D01*
X486513D01*
X486113Y246100D01*
X485713Y246500D01*
X485313D01*
Y246100D01*
X485713Y245700D01*
X485313Y245300D01*
Y244900D01*
X447200D02*
X447600D01*
X448000Y245300D01*
X448400Y244900D01*
X448800D01*
Y245300D01*
X448400Y245700D01*
X448800Y246100D01*
Y246500D01*
X448400D01*
X448000Y246100D01*
X447600Y246500D01*
X447200D01*
Y246100D01*
X447600Y245700D01*
X447200Y245300D01*
Y244900D01*
X455200D02*
X455600D01*
X456000Y245300D01*
X456400Y244900D01*
X456800D01*
Y245300D01*
X456400Y245700D01*
X456800Y246100D01*
Y246500D01*
X456400D01*
X456000Y246100D01*
X455600Y246500D01*
X455200D01*
Y246100D01*
X455600Y245700D01*
X455200Y245300D01*
Y244900D01*
X505300Y227229D02*
X505700D01*
X506100Y227629D01*
X506500Y227229D01*
X506900D01*
Y227629D01*
X506500Y228029D01*
X506900Y228429D01*
Y228829D01*
X506500D01*
X506100Y228429D01*
X505700Y228829D01*
X505300D01*
Y228429D01*
X505700Y228029D01*
X505300Y227629D01*
Y227229D01*
X506900Y192200D02*
X507300D01*
X507700Y192600D01*
X508100Y192200D01*
X508500D01*
Y192600D01*
X508100Y193000D01*
X508500Y193400D01*
Y193800D01*
X508100D01*
X507700Y193400D01*
X507300Y193800D01*
X506900D01*
Y193400D01*
X507300Y193000D01*
X506900Y192600D01*
Y192200D01*
X505600Y194400D02*
X506000D01*
X506400Y194800D01*
X506800Y194400D01*
X507200D01*
Y194800D01*
X506800Y195200D01*
X507200Y195600D01*
Y196000D01*
X506800D01*
X506400Y195600D01*
X506000Y196000D01*
X505600D01*
Y195600D01*
X506000Y195200D01*
X505600Y194800D01*
Y194400D01*
X505500Y199500D02*
X505900D01*
X506300Y199900D01*
X506700Y199500D01*
X507100D01*
Y199900D01*
X506700Y200300D01*
X507100Y200700D01*
Y201100D01*
X506700D01*
X506300Y200700D01*
X505900Y201100D01*
X505500D01*
Y200700D01*
X505900Y200300D01*
X505500Y199900D01*
Y199500D01*
X353100Y215400D02*
X353500D01*
X353900Y215800D01*
X354300Y215400D01*
X354700D01*
Y215800D01*
X354300Y216200D01*
X354700Y216600D01*
Y217000D01*
X354300D01*
X353900Y216600D01*
X353500Y217000D01*
X353100D01*
Y216600D01*
X353500Y216200D01*
X353100Y215800D01*
Y215400D01*
X390976Y202200D02*
X391376D01*
X391776Y202600D01*
X392176Y202200D01*
X392576D01*
Y202600D01*
X392176Y203000D01*
X392576Y203400D01*
Y203800D01*
X392176D01*
X391776Y203400D01*
X391376Y203800D01*
X390976D01*
Y203400D01*
X391376Y203000D01*
X390976Y202600D01*
Y202200D01*
X398700Y195700D02*
X399100D01*
X399500Y196100D01*
X399900Y195700D01*
X400300D01*
Y196100D01*
X399900Y196500D01*
X400300Y196900D01*
Y197300D01*
X399900D01*
X399500Y196900D01*
X399100Y197300D01*
X398700D01*
Y196900D01*
X399100Y196500D01*
X398700Y196100D01*
Y195700D01*
X430200Y204943D02*
X430600D01*
X431000Y205343D01*
X431400Y204943D01*
X431800D01*
Y205343D01*
X431400Y205743D01*
X431800Y206143D01*
Y206543D01*
X431400D01*
X431000Y206143D01*
X430600Y206543D01*
X430200D01*
Y206143D01*
X430600Y205743D01*
X430200Y205343D01*
Y204943D01*
X485000Y231700D02*
X485400D01*
X485800Y232100D01*
X486200Y231700D01*
X486600D01*
Y232100D01*
X486200Y232500D01*
X486600Y232900D01*
Y233300D01*
X486200D01*
X485800Y232900D01*
X485400Y233300D01*
X485000D01*
Y232900D01*
X485400Y232500D01*
X485000Y232100D01*
Y231700D01*
X474228Y241357D02*
X474628D01*
X475028Y241757D01*
X475428Y241357D01*
X475828D01*
Y241757D01*
X475428Y242157D01*
X475828Y242557D01*
Y242957D01*
X475428D01*
X475028Y242557D01*
X474628Y242957D01*
X474228D01*
Y242557D01*
X474628Y242157D01*
X474228Y241757D01*
Y241357D01*
X473800Y244900D02*
X474200D01*
X474600Y245300D01*
X475000Y244900D01*
X475400D01*
Y245300D01*
X475000Y245700D01*
X475400Y246100D01*
Y246500D01*
X475000D01*
X474600Y246100D01*
X474200Y246500D01*
X473800D01*
Y246100D01*
X474200Y245700D01*
X473800Y245300D01*
Y244900D01*
X456900Y186000D02*
X457300D01*
X457700Y186400D01*
X458100Y186000D01*
X458500D01*
Y186400D01*
X458100Y186800D01*
X458500Y187200D01*
Y187600D01*
X458100D01*
X457700Y187200D01*
X457300Y187600D01*
X456900D01*
Y187200D01*
X457300Y186800D01*
X456900Y186400D01*
Y186000D01*
X318800Y237162D02*
X319200D01*
X319600Y237562D01*
X320000Y237162D01*
X320400D01*
Y237562D01*
X320000Y237962D01*
X320400Y238362D01*
Y238762D01*
X320000D01*
X319600Y238362D01*
X319200Y238762D01*
X318800D01*
Y238362D01*
X319200Y237962D01*
X318800Y237562D01*
Y237162D01*
X355695Y188695D02*
X356095D01*
X356495Y189095D01*
X356895Y188695D01*
X357295D01*
Y189095D01*
X356895Y189495D01*
X357295Y189895D01*
Y190295D01*
X356895D01*
X356495Y189895D01*
X356095Y190295D01*
X355695D01*
Y189895D01*
X356095Y189495D01*
X355695Y189095D01*
Y188695D01*
X364727Y194200D02*
X365127D01*
X365528Y194600D01*
X365928Y194200D01*
X366328D01*
Y194600D01*
X365928Y195000D01*
X366328Y195400D01*
Y195800D01*
X365928D01*
X365528Y195400D01*
X365127Y195800D01*
X364727D01*
Y195400D01*
X365127Y195000D01*
X364727Y194600D01*
Y194200D01*
X350600Y235762D02*
X351000D01*
X351400Y236162D01*
X351800Y235762D01*
X352200D01*
Y236162D01*
X351800Y236562D01*
X352200Y236962D01*
Y237362D01*
X351800D01*
X351400Y236962D01*
X351000Y237362D01*
X350600D01*
Y236962D01*
X351000Y236562D01*
X350600Y236162D01*
Y235762D01*
X344900Y223505D02*
X345300D01*
X345700Y223905D01*
X346100Y223505D01*
X346500D01*
Y223905D01*
X346100Y224306D01*
X346500Y224706D01*
Y225106D01*
X346100D01*
X345700Y224706D01*
X345300Y225106D01*
X344900D01*
Y224706D01*
X345300Y224306D01*
X344900Y223905D01*
Y223505D01*
X317558Y195257D02*
X317957D01*
X318357Y195658D01*
X318758Y195257D01*
X319158D01*
Y195658D01*
X318758Y196057D01*
X319158Y196458D01*
Y196858D01*
X318758D01*
X318357Y196458D01*
X317957Y196858D01*
X317558D01*
Y196458D01*
X317957Y196057D01*
X317558Y195658D01*
Y195257D01*
X341301Y234926D02*
X341701D01*
X342101Y235326D01*
X342500Y234926D01*
X342900D01*
Y235326D01*
X342500Y235726D01*
X342900Y236126D01*
Y236526D01*
X342500D01*
X342101Y236126D01*
X341701Y236526D01*
X341301D01*
Y236126D01*
X341701Y235726D01*
X341301Y235326D01*
Y234926D01*
X341301Y241826D02*
X341701D01*
X342101Y242226D01*
X342500Y241826D01*
X342900D01*
Y242226D01*
X342500Y242626D01*
X342900Y243026D01*
Y243426D01*
X342500D01*
X342101Y243026D01*
X341701Y243426D01*
X341301D01*
Y243026D01*
X341701Y242626D01*
X341301Y242226D01*
Y241826D01*
X287669Y236983D02*
X288069D01*
X288469Y237383D01*
X288869Y236983D01*
X289269D01*
Y237383D01*
X288869Y237783D01*
X289269Y238183D01*
Y238583D01*
X288869D01*
X288469Y238183D01*
X288069Y238583D01*
X287669D01*
Y238183D01*
X288069Y237783D01*
X287669Y237383D01*
Y236983D01*
X347022Y205878D02*
X347422D01*
X347822Y206278D01*
X348222Y205878D01*
X348622D01*
Y206278D01*
X348222Y206678D01*
X348622Y207078D01*
Y207478D01*
X348222D01*
X347822Y207078D01*
X347422Y207478D01*
X347022D01*
Y207078D01*
X347422Y206678D01*
X347022Y206278D01*
Y205878D01*
X391926Y159200D02*
X392326D01*
X392726Y159599D01*
X393126Y159200D01*
X393526D01*
Y159599D01*
X393126Y160000D01*
X393526Y160399D01*
Y160800D01*
X393126D01*
X392726Y160399D01*
X392326Y160800D01*
X391926D01*
Y160399D01*
X392326Y160000D01*
X391926Y159599D01*
Y159200D01*
X349952Y176100D02*
X350352D01*
X350752Y176500D01*
X351152Y176100D01*
X351552D01*
Y176500D01*
X351152Y176900D01*
X351552Y177300D01*
Y177700D01*
X351152D01*
X350752Y177300D01*
X350352Y177700D01*
X349952D01*
Y177300D01*
X350352Y176900D01*
X349952Y176500D01*
Y176100D01*
X441100Y188700D02*
X441500D01*
X441900Y189100D01*
X442300Y188700D01*
X442700D01*
Y189100D01*
X442300Y189500D01*
X442700Y189900D01*
Y190300D01*
X442300D01*
X441900Y189900D01*
X441500Y190300D01*
X441100D01*
Y189900D01*
X441500Y189500D01*
X441100Y189100D01*
Y188700D01*
X434500Y195700D02*
X434900D01*
X435300Y196100D01*
X435700Y195700D01*
X436100D01*
Y196100D01*
X435700Y196500D01*
X436100Y196900D01*
Y197300D01*
X435700D01*
X435300Y196900D01*
X434900Y197300D01*
X434500D01*
Y196900D01*
X434900Y196500D01*
X434500Y196100D01*
Y195700D01*
X347000Y200600D02*
X347400D01*
X347800Y201000D01*
X348200Y200600D01*
X348600D01*
Y201000D01*
X348200Y201400D01*
X348600Y201800D01*
Y202200D01*
X348200D01*
X347800Y201800D01*
X347400Y202200D01*
X347000D01*
Y201800D01*
X347400Y201400D01*
X347000Y201000D01*
Y200600D01*
Y211300D02*
X347400D01*
X347800Y211700D01*
X348200Y211300D01*
X348600D01*
Y211700D01*
X348200Y212100D01*
X348600Y212500D01*
Y212900D01*
X348200D01*
X347800Y212500D01*
X347400Y212900D01*
X347000D01*
Y212500D01*
X347400Y212100D01*
X347000Y211700D01*
Y211300D01*
X361600Y196800D02*
X362000D01*
X362400Y197200D01*
X362800Y196800D01*
X363200D01*
Y197200D01*
X362800Y197600D01*
X363200Y198000D01*
Y198400D01*
X362800D01*
X362400Y198000D01*
X362000Y198400D01*
X361600D01*
Y198000D01*
X362000Y197600D01*
X361600Y197200D01*
Y196800D01*
X361000Y199000D02*
X361400D01*
X361800Y199400D01*
X362200Y199000D01*
X362600D01*
Y199400D01*
X362200Y199800D01*
X362600Y200200D01*
Y200600D01*
X362200D01*
X361800Y200200D01*
X361400Y200600D01*
X361000D01*
Y200200D01*
X361400Y199800D01*
X361000Y199400D01*
Y199000D01*
X388900Y247600D02*
X389300D01*
X389700Y248000D01*
X390100Y247600D01*
X390500D01*
Y248000D01*
X390100Y248400D01*
X390500Y248800D01*
Y249200D01*
X390100D01*
X389700Y248800D01*
X389300Y249200D01*
X388900D01*
Y248800D01*
X389300Y248400D01*
X388900Y248000D01*
Y247600D01*
X404100Y204947D02*
X404500D01*
X404900Y205347D01*
X405300Y204947D01*
X405700D01*
Y205347D01*
X405300Y205747D01*
X405700Y206147D01*
Y206547D01*
X405300D01*
X404900Y206147D01*
X404500Y206547D01*
X404100D01*
Y206147D01*
X404500Y205747D01*
X404100Y205347D01*
Y204947D01*
D11*
X537992Y185304D02*
G03*
X537992Y185304I-800J0D01*
G01*
Y246249D02*
G03*
X537992Y246249I-800J0D01*
G01*
M02*
