G04*
G04 #@! TF.GenerationSoftware,Altium Limited,Altium Designer,18.1.9 (240)*
G04*
G04 Layer_Color=32768*
%FSLAX25Y25*%
%MOIN*%
G70*
G01*
G75*
%ADD17C,0.00591*%
%ADD88C,0.00394*%
%ADD89C,0.00197*%
%ADD90C,0.00100*%
%ADD91C,0.00158*%
%ADD92C,0.00200*%
D17*
X374300Y244584D02*
X402584Y216300D01*
X346016D02*
X374300Y188016D01*
X402584Y216300D01*
X346016D02*
X374300Y244584D01*
D88*
X342200Y198285D02*
Y218758D01*
X314200Y198285D02*
Y218758D01*
Y198285D02*
X342200D01*
X314200Y218758D02*
X342200D01*
X373100Y159531D02*
Y163469D01*
X371131Y161500D02*
X375068D01*
X357352Y175083D02*
X388848D01*
X357352Y147917D02*
X388848D01*
X357352D02*
Y175083D01*
X388848Y147917D02*
Y175083D01*
D89*
X421478Y241829D02*
G03*
X421478Y241829I-1378J0D01*
G01*
X421285Y227453D02*
G03*
X421285Y227453I-1378J0D01*
G01*
X550578Y215600D02*
G03*
X550578Y215600I-1378J0D01*
G01*
X375678Y216300D02*
G03*
X375678Y216300I-1378J0D01*
G01*
X415178Y172200D02*
G03*
X415178Y172200I-1378J0D01*
G01*
X297478Y207521D02*
G03*
X297478Y207521I-1378J0D01*
G01*
X395277Y235090D02*
G03*
X395277Y235090I-1378J0D01*
G01*
X305175Y237783D02*
G03*
X305175Y237783I-1378J0D01*
G01*
X329578Y194600D02*
G03*
X329578Y194600I-1378J0D01*
G01*
Y208521D02*
G03*
X329578Y208521I-1378J0D01*
G01*
X339978Y235700D02*
G03*
X339978Y235700I-1378J0D01*
G01*
Y242600D02*
G03*
X339978Y242600I-1378J0D01*
G01*
X329178Y222421D02*
G03*
X329178Y222421I-1378J0D01*
G01*
X394078Y163500D02*
G03*
X394078Y163500I-1378J0D01*
G01*
X378578Y143200D02*
G03*
X378578Y143200I-1378J0D01*
G01*
X373278Y179900D02*
G03*
X373278Y179900I-1378J0D01*
G01*
X420100Y239860D02*
Y243797D01*
X418131Y241829D02*
X422069D01*
X419907Y225484D02*
Y229421D01*
X417939Y227453D02*
X421876D01*
X549200Y213631D02*
Y217568D01*
X547231Y215600D02*
X551168D01*
X372908Y214908D02*
X375692Y217692D01*
X372908D02*
X375692Y214908D01*
X411832Y172200D02*
X415768D01*
X413800Y170231D02*
Y174169D01*
X296100Y205553D02*
Y209490D01*
X294131Y207521D02*
X298068D01*
X392508Y233698D02*
X395291Y236482D01*
X392508D02*
X395291Y233698D01*
X301829Y237783D02*
X305766D01*
X303797Y235814D02*
Y239752D01*
X326232Y194600D02*
X330169D01*
X328200Y192631D02*
Y196569D01*
Y206553D02*
Y210490D01*
X326232Y208521D02*
X330169D01*
X336631Y235700D02*
X340568D01*
X338600Y233732D02*
Y237668D01*
X336631Y242600D02*
X340568D01*
X338600Y240632D02*
Y244568D01*
X325832Y222421D02*
X329768D01*
X327800Y220453D02*
Y224390D01*
X390732Y163500D02*
X394669D01*
X392700Y161531D02*
Y165469D01*
X377200Y141232D02*
X377200Y145168D01*
X375232Y143200D02*
X379169D01*
X371900Y181869D02*
X371900Y177931D01*
X369932Y179900D02*
X373868Y179900D01*
D90*
X502096Y209200D02*
G03*
X502096Y209200I-500J0D01*
G01*
X491800Y235047D02*
G03*
X491800Y235047I-500J0D01*
G01*
Y239047D02*
G03*
X491800Y239047I-500J0D01*
G01*
X501900Y205200D02*
G03*
X501900Y205200I-500J0D01*
G01*
X502096Y225100D02*
G03*
X502096Y225100I-500J0D01*
G01*
X503629Y186100D02*
G03*
X503629Y186100I-500J0D01*
G01*
X503700Y244900D02*
G03*
X503700Y244900I-500J0D01*
G01*
X491800Y222947D02*
G03*
X491800Y222947I-500J0D01*
G01*
X304400Y237962D02*
G03*
X304400Y237962I-500J0D01*
G01*
X288600Y207500D02*
G03*
X288600Y207500I-500J0D01*
G01*
X357290Y234790D02*
G03*
X357290Y234790I-500J0D01*
G01*
X394085Y201190D02*
G03*
X394085Y201190I-500J0D01*
G01*
X382600Y243200D02*
G03*
X382600Y243200I-500J0D01*
G01*
X459700Y243929D02*
G03*
X459700Y243929I-500J0D01*
G01*
X467900D02*
G03*
X467900Y243929I-500J0D01*
G01*
X502096Y213200D02*
G03*
X502096Y213200I-500J0D01*
G01*
Y217200D02*
G03*
X502096Y217200I-500J0D01*
G01*
X491800Y203400D02*
G03*
X491800Y203400I-500J0D01*
G01*
Y231047D02*
G03*
X491800Y231047I-500J0D01*
G01*
Y211411D02*
G03*
X491800Y211411I-500J0D01*
G01*
Y207400D02*
G03*
X491800Y207400I-500J0D01*
G01*
X472000Y243929D02*
G03*
X472000Y243929I-500J0D01*
G01*
X491800Y218947D02*
G03*
X491800Y218947I-500J0D01*
G01*
X501800Y195200D02*
G03*
X501800Y195200I-500J0D01*
G01*
X501900Y200300D02*
G03*
X501900Y200300I-500J0D01*
G01*
X463800Y243929D02*
G03*
X463800Y243929I-500J0D01*
G01*
X435804Y237571D02*
G03*
X435804Y237571I-500J0D01*
G01*
X435704Y227971D02*
G03*
X435704Y227971I-500J0D01*
G01*
X435804Y233572D02*
G03*
X435804Y233572I-500J0D01*
G01*
X491800Y226947D02*
G03*
X491800Y226947I-500J0D01*
G01*
X446129Y191271D02*
G03*
X446129Y191271I-500J0D01*
G01*
X491800Y199400D02*
G03*
X491800Y199400I-500J0D01*
G01*
X441200Y198400D02*
G03*
X441200Y198400I-500J0D01*
G01*
X491800Y195300D02*
G03*
X491800Y195300I-500J0D01*
G01*
X435900Y208371D02*
G03*
X435900Y208371I-500J0D01*
G01*
X435704Y223871D02*
G03*
X435704Y223871I-500J0D01*
G01*
X435700Y218171D02*
G03*
X435700Y218171I-500J0D01*
G01*
X435704Y212371D02*
G03*
X435704Y212371I-500J0D01*
G01*
X478200Y191271D02*
G03*
X478200Y191271I-500J0D01*
G01*
X474200D02*
G03*
X474200Y191271I-500J0D01*
G01*
X470200D02*
G03*
X470200Y191271I-500J0D01*
G01*
X466200D02*
G03*
X466200Y191271I-500J0D01*
G01*
X462200D02*
G03*
X462200Y191271I-500J0D01*
G01*
X458200D02*
G03*
X458200Y191271I-500J0D01*
G01*
X454155D02*
G03*
X454155Y191271I-500J0D01*
G01*
X450200D02*
G03*
X450200Y191271I-500J0D01*
G01*
X405100Y236900D02*
G03*
X405100Y236900I-500J0D01*
G01*
X396000Y246000D02*
G03*
X396000Y246000I-500J0D01*
G01*
X402700Y223500D02*
G03*
X402700Y223500I-500J0D01*
G01*
X323000Y245400D02*
G03*
X323000Y245400I-500J0D01*
G01*
X345100Y201497D02*
G03*
X345100Y201497I-500J0D01*
G01*
Y208450D02*
G03*
X345100Y208450I-500J0D01*
G01*
X399600Y207000D02*
G03*
X399600Y207000I-500J0D01*
G01*
X363047Y190748D02*
G03*
X363047Y190748I-500J0D01*
G01*
X350000Y225600D02*
G03*
X350000Y225600I-500J0D01*
G01*
X328900Y235129D02*
G03*
X328900Y235129I-500J0D01*
G01*
X329000Y243000D02*
G03*
X329000Y243000I-500J0D01*
G01*
X345100Y215450D02*
G03*
X345100Y215450I-500J0D01*
G01*
X502096Y221100D02*
G03*
X502096Y221100I-500J0D01*
G01*
X393600Y176000D02*
G03*
X393600Y176000I-500J0D01*
G01*
X363800Y143300D02*
G03*
X363800Y143300I-500J0D01*
G01*
X386800Y179900D02*
G03*
X386800Y179900I-500J0D01*
G01*
X500809Y209200D02*
X502384D01*
X501596Y208413D02*
Y209987D01*
X490513Y235047D02*
X492087D01*
X491300Y234260D02*
Y235835D01*
X490513Y239047D02*
X492087D01*
X491300Y238260D02*
Y239835D01*
X500613Y205200D02*
X502187D01*
X501400Y204413D02*
Y205987D01*
X500809Y225100D02*
X502384D01*
X501596Y224313D02*
Y225887D01*
X502341Y186100D02*
X503916D01*
X503129Y185313D02*
Y186888D01*
X502413Y244900D02*
X503987D01*
X503200Y244113D02*
Y245687D01*
X490513Y222947D02*
X492087D01*
X491300Y222160D02*
Y223735D01*
X303900Y237174D02*
Y238749D01*
X303113Y237962D02*
X304687D01*
X288100Y206713D02*
Y208287D01*
X287313Y207500D02*
X288887D01*
X356233Y234234D02*
X357347Y235347D01*
X356233D02*
X357347Y234234D01*
X393029Y201747D02*
X394142Y200633D01*
X393029D02*
X394142Y201747D01*
X381543Y242643D02*
X382657Y243757D01*
X381543D02*
X382657Y242643D01*
X459200Y243141D02*
Y244716D01*
X458412Y243929D02*
X459987D01*
X467400Y243141D02*
Y244716D01*
X466612Y243929D02*
X468187D01*
X500809Y213200D02*
X502384D01*
X501596Y212412D02*
Y213987D01*
X500809Y217200D02*
X502384D01*
X501596Y216413D02*
Y217987D01*
X490513Y203400D02*
X492087D01*
X491300Y202613D02*
Y204187D01*
X490513Y231047D02*
X492087D01*
X491300Y230260D02*
Y231835D01*
X490513Y211411D02*
X492087D01*
X491300Y210624D02*
Y212198D01*
X490513Y207400D02*
X492087D01*
X491300Y206613D02*
Y208187D01*
X471500Y243141D02*
Y244716D01*
X470712Y243929D02*
X472287D01*
X490513Y218947D02*
X492087D01*
X491300Y218160D02*
Y219735D01*
X500513Y195200D02*
X502087D01*
X501300Y194413D02*
Y195987D01*
X500613Y200300D02*
X502187D01*
X501400Y199513D02*
Y201087D01*
X463300Y243141D02*
Y244716D01*
X462512Y243929D02*
X464087D01*
X434517Y237571D02*
X436092D01*
X435304Y236784D02*
Y238359D01*
X434417Y227971D02*
X435991D01*
X435204Y227184D02*
Y228759D01*
X434517Y233572D02*
X436092D01*
X435304Y232784D02*
Y234359D01*
X490513Y226947D02*
X492087D01*
X491300Y226160D02*
Y227735D01*
X445629Y190484D02*
Y192059D01*
X444841Y191271D02*
X446416D01*
X490513Y199400D02*
X492087D01*
X491300Y198613D02*
Y200187D01*
X440143Y197843D02*
X441257Y198957D01*
X440143Y198957D02*
X441257Y197843D01*
X490513Y195300D02*
X492087D01*
X491300Y194513D02*
Y196087D01*
X434613Y208371D02*
X436188D01*
X435400Y207584D02*
Y209159D01*
X434417Y223871D02*
X435991D01*
X435204Y223084D02*
Y224659D01*
X435200Y217384D02*
Y218959D01*
X434413Y218171D02*
X435988D01*
X434417Y212371D02*
X435991D01*
X435204Y211584D02*
Y213159D01*
X477700Y190484D02*
Y192059D01*
X476913Y191271D02*
X478488D01*
X473700Y190484D02*
Y192059D01*
X472913Y191271D02*
X474488D01*
X469700Y190484D02*
Y192059D01*
X468913Y191271D02*
X470488D01*
X465700Y190484D02*
Y192059D01*
X464913Y191271D02*
X466488D01*
X461700Y190484D02*
Y192059D01*
X460913Y191271D02*
X462488D01*
X457700Y190484D02*
Y192059D01*
X456913Y191271D02*
X458488D01*
X453655Y190484D02*
Y192059D01*
X452868Y191271D02*
X454443D01*
X449700Y190484D02*
Y192059D01*
X448913Y191271D02*
X450488D01*
X404043Y237457D02*
X405157Y236343D01*
X404043D02*
X405157Y237457D01*
X394943Y246557D02*
X396057Y245443D01*
X394943D02*
X396057Y246557D01*
X401643Y222943D02*
X402757Y224057D01*
X401643D02*
X402757Y222943D01*
X322500Y244613D02*
Y246187D01*
X321713Y245400D02*
X323287D01*
X344600Y200710D02*
Y202285D01*
X343812Y201497D02*
X345387D01*
X344600Y207663D02*
Y209237D01*
X343812Y208450D02*
X345387D01*
X398543Y207557D02*
X399657Y206443D01*
X398543D02*
X399657Y207557D01*
X361990Y190191D02*
X363104Y191305D01*
X361990D02*
X363104Y190191D01*
X348943Y226157D02*
X350057Y225043D01*
X348943D02*
X350057Y226157D01*
X328400Y234341D02*
Y235916D01*
X327612Y235129D02*
X329187D01*
X328500Y242213D02*
Y243787D01*
X327713Y243000D02*
X329287D01*
X344600Y214663D02*
Y216237D01*
X343812Y215450D02*
X345387D01*
X500809Y221100D02*
X502384D01*
X501596Y220313D02*
Y221887D01*
X393100Y175213D02*
Y176787D01*
X392313Y176000D02*
X393887D01*
X363300Y142513D02*
Y144087D01*
X362513Y143300D02*
X364087D01*
X386300Y179113D02*
Y180687D01*
X385513Y179900D02*
X387087D01*
D91*
X423307Y214700D02*
G03*
X423307Y214700I-707J0D01*
G01*
X422600Y213700D02*
Y215700D01*
X421600Y214700D02*
X423600D01*
D92*
X419300Y234700D02*
X420300D01*
X419800Y234200D02*
Y235200D01*
M02*
