M48
;Layer_Color=9474304
;FILE_FORMAT=2:5
INCH,TZ
;TYPE=PLATED
T1F00S00C0.01200
T3F00S00C0.03543
T4F00S00C0.05906
T5F00S00C0.13780
%
T01
X405000Y140700
X414500Y140800
X424018Y140836
X469400Y212100
X475700Y213000
X496311Y211411
X496400Y218947
X496524Y234500
X485800Y232500
X486113Y245700
X474600
X475028Y242157
X506100Y228029
X506300Y200300
X506400Y195200
X507700Y193000
X541700Y204977
Y215400
X465600Y215900
X461347Y220053
X456000Y245700
X448000
X429018Y233571
X420500Y241578
X413200Y216800
X410074Y210037
X404900Y205747
X404200Y218994
X379500Y217800
X372300Y218300
X365200
X367700Y225300
X377300Y223500
X373500Y239048
X370400Y239100
X351400Y236562
X342101Y235726
X342101Y242626
X345700Y224306
X347800Y212100
X347822Y206678
X347800Y201400
X361800Y199800
X362400Y197600
X365528Y195000
X356495Y189495
X350752Y176900
X369700Y168800
Y160400
X392726Y160000
X386200Y193100
X382200
X391776Y203000
X399500Y196500
X435300
X431000Y205743
X441900Y189500
X457700Y186800
X389700Y248400
X353900Y216200
X328600Y211500
X318357Y196057
X319600Y237962
X305100Y223500
X289400
X288469Y237783
X288600Y193044
X305300Y193100
T03
X514200Y203100
Y213100
Y223100
Y233100
X524200Y228100
Y218100
Y208100
Y198100
X568491Y199517
Y189517
Y231682
Y241682
T04
X537192Y185304
Y246249
X296100Y214411
Y200631
T05
X549200Y193100
Y238100
M30
