G04*
G04 #@! TF.GenerationSoftware,Altium Limited,Altium Designer,18.1.9 (240)*
G04*
G04 Layer_Physical_Order=1*
G04 Layer_Color=255*
%FSLAX25Y25*%
%MOIN*%
G70*
G01*
G75*
%ADD10C,0.01000*%
%ADD12C,0.02000*%
%ADD18R,0.04724X0.05512*%
%ADD19R,0.01575X0.01968*%
G04:AMPARAMS|DCode=20|XSize=9.84mil|YSize=61.02mil|CornerRadius=0mil|HoleSize=0mil|Usage=FLASHONLY|Rotation=315.000|XOffset=0mil|YOffset=0mil|HoleType=Round|Shape=Round|*
%AMOVALD20*
21,1,0.05118,0.00984,0.00000,0.00000,45.0*
1,1,0.00984,-0.01810,-0.01810*
1,1,0.00984,0.01810,0.01810*
%
%ADD20OVALD20*%

G04:AMPARAMS|DCode=21|XSize=9.84mil|YSize=61.02mil|CornerRadius=0mil|HoleSize=0mil|Usage=FLASHONLY|Rotation=225.000|XOffset=0mil|YOffset=0mil|HoleType=Round|Shape=Round|*
%AMOVALD21*
21,1,0.05118,0.00984,0.00000,0.00000,315.0*
1,1,0.00984,-0.01810,0.01810*
1,1,0.00984,0.01810,-0.01810*
%
%ADD21OVALD21*%

G04:AMPARAMS|DCode=22|XSize=15.75mil|YSize=19.68mil|CornerRadius=0mil|HoleSize=0mil|Usage=FLASHONLY|Rotation=225.000|XOffset=0mil|YOffset=0mil|HoleType=Round|Shape=Rectangle|*
%AMROTATEDRECTD22*
4,1,4,-0.00139,0.01253,0.01253,-0.00139,0.00139,-0.01253,-0.01253,0.00139,-0.00139,0.01253,0.0*
%
%ADD22ROTATEDRECTD22*%

%ADD23R,0.04724X0.05118*%
%ADD24R,0.01968X0.01575*%
%ADD25R,0.03000X0.02500*%
%ADD26O,0.01100X0.07087*%
%ADD27O,0.07087X0.01100*%
G04:AMPARAMS|DCode=28|XSize=94.49mil|YSize=86.61mil|CornerRadius=0mil|HoleSize=0mil|Usage=FLASHONLY|Rotation=225.000|XOffset=0mil|YOffset=0mil|HoleType=Round|Shape=Rectangle|*
%AMROTATEDRECTD28*
4,1,4,0.00278,0.06403,0.06403,0.00278,-0.00278,-0.06403,-0.06403,-0.00278,0.00278,0.06403,0.0*
%
%ADD28ROTATEDRECTD28*%

G04:AMPARAMS|DCode=29|XSize=15.75mil|YSize=19.68mil|CornerRadius=0mil|HoleSize=0mil|Usage=FLASHONLY|Rotation=135.000|XOffset=0mil|YOffset=0mil|HoleType=Round|Shape=Rectangle|*
%AMROTATEDRECTD29*
4,1,4,0.01253,0.00139,-0.00139,-0.01253,-0.01253,-0.00139,0.00139,0.01253,0.01253,0.00139,0.0*
%
%ADD29ROTATEDRECTD29*%

%ADD30R,0.07874X0.05906*%
%ADD31R,0.05000X0.03500*%
G04:AMPARAMS|DCode=32|XSize=50mil|YSize=35mil|CornerRadius=0mil|HoleSize=0mil|Usage=FLASHONLY|Rotation=0.000|XOffset=0mil|YOffset=0mil|HoleType=Round|Shape=Octagon|*
%AMOCTAGOND32*
4,1,8,0.02500,-0.00875,0.02500,0.00875,0.01625,0.01750,-0.01625,0.01750,-0.02500,0.00875,-0.02500,-0.00875,-0.01625,-0.01750,0.01625,-0.01750,0.02500,-0.00875,0.0*
%
%ADD32OCTAGOND32*%

%ADD33C,0.03937*%
%ADD34R,0.05906X0.01968*%
%ADD35O,0.05906X0.01968*%
%ADD36R,0.03500X0.05000*%
G04:AMPARAMS|DCode=37|XSize=50mil|YSize=35mil|CornerRadius=0mil|HoleSize=0mil|Usage=FLASHONLY|Rotation=270.000|XOffset=0mil|YOffset=0mil|HoleType=Round|Shape=Octagon|*
%AMOCTAGOND37*
4,1,8,-0.00875,-0.02500,0.00875,-0.02500,0.01750,-0.01625,0.01750,0.01625,0.00875,0.02500,-0.00875,0.02500,-0.01750,0.01625,-0.01750,-0.01625,-0.00875,-0.02500,0.0*
%
%ADD37OCTAGOND37*%

%ADD38R,0.08268X0.12598*%
%ADD39R,0.08268X0.03543*%
%ADD70C,0.03000*%
%ADD71R,0.07500X0.07500*%
%ADD72C,0.07500*%
%ADD73O,0.09843X0.07874*%
%ADD74C,0.13000*%
%ADD75R,0.09843X0.09843*%
%ADD76C,0.09843*%
%ADD77R,0.15748X0.07874*%
%ADD78R,0.07874X0.15748*%
%ADD79C,0.01600*%
G36*
X390287Y248949D02*
X390312Y248938D01*
X390344Y248929D01*
X390385Y248922D01*
X390434Y248915D01*
X390557Y248905D01*
X390805Y248900D01*
Y247900D01*
X390714Y247899D01*
X390385Y247878D01*
X390344Y247871D01*
X390312Y247862D01*
X390287Y247851D01*
X390271Y247840D01*
Y248960D01*
X390287Y248949D01*
D02*
G37*
G36*
X389129Y247840D02*
X389113Y247851D01*
X389089Y247862D01*
X389056Y247871D01*
X389015Y247878D01*
X388966Y247885D01*
X388843Y247895D01*
X388596Y247900D01*
Y248900D01*
X388686Y248901D01*
X389015Y248922D01*
X389056Y248929D01*
X389089Y248938D01*
X389113Y248949D01*
X389129Y248960D01*
Y247840D01*
D02*
G37*
G36*
X393571Y248641D02*
X393785Y248466D01*
X393882Y248404D01*
X393970Y248359D01*
X394052Y248332D01*
X394127Y248321D01*
X394194Y248327D01*
X394254Y248351D01*
X394306Y248392D01*
X393109Y247194D01*
X393149Y247246D01*
X393173Y247306D01*
X393179Y247373D01*
X393168Y247448D01*
X393141Y247530D01*
X393096Y247618D01*
X393034Y247715D01*
X392955Y247818D01*
X392859Y247929D01*
X392746Y248046D01*
X393454Y248753D01*
X393571Y248641D01*
D02*
G37*
G36*
X323483Y247894D02*
X323513Y247848D01*
X323563Y247806D01*
X323633Y247771D01*
X323723Y247740D01*
X323833Y247715D01*
X323963Y247696D01*
X324113Y247682D01*
X324473Y247671D01*
Y246671D01*
X324283Y246669D01*
X323963Y246646D01*
X323833Y246627D01*
X323790Y246618D01*
X323794Y246613D01*
X324180Y246199D01*
X323276Y245689D01*
X323078Y245879D01*
X322721Y246181D01*
X322561Y246292D01*
X322413Y246377D01*
X322278Y246436D01*
X322155Y246469D01*
X322045Y246475D01*
X321947Y246455D01*
X321862Y246408D01*
X323461Y247613D01*
X323396Y247545D01*
X323362Y247461D01*
X323359Y247360D01*
X323385Y247244D01*
X323442Y247110D01*
X323473Y247058D01*
Y247947D01*
X323483Y247894D01*
D02*
G37*
G36*
X384962Y245355D02*
X384831Y245217D01*
X384720Y245087D01*
X384631Y244964D01*
X384563Y244849D01*
X384515Y244741D01*
X384488Y244640D01*
X384482Y244548D01*
X384497Y244462D01*
X384532Y244384D01*
X384589Y244314D01*
X383214Y245689D01*
X383284Y245632D01*
X383362Y245597D01*
X383448Y245582D01*
X383540Y245588D01*
X383641Y245615D01*
X383749Y245663D01*
X383864Y245731D01*
X383987Y245820D01*
X384117Y245931D01*
X384255Y246062D01*
X384962Y245355D01*
D02*
G37*
G36*
X474028Y245140D02*
X474012Y245151D01*
X473988Y245162D01*
X473956Y245171D01*
X473915Y245178D01*
X473866Y245185D01*
X473742Y245195D01*
X473495Y245200D01*
Y246200D01*
X473586Y246201D01*
X473915Y246222D01*
X473956Y246229D01*
X473988Y246238D01*
X474012Y246249D01*
X474028Y246260D01*
Y245140D01*
D02*
G37*
G36*
X456587Y246249D02*
X456611Y246238D01*
X456644Y246229D01*
X456684Y246222D01*
X456734Y246215D01*
X456857Y246205D01*
X457104Y246200D01*
Y245200D01*
X457014Y245199D01*
X456684Y245178D01*
X456644Y245171D01*
X456611Y245162D01*
X456587Y245151D01*
X456571Y245140D01*
Y246260D01*
X456587Y246249D01*
D02*
G37*
G36*
X447429Y245140D02*
X447413Y245151D01*
X447389Y245162D01*
X447356Y245171D01*
X447315Y245178D01*
X447266Y245185D01*
X447143Y245195D01*
X446896Y245200D01*
Y246200D01*
X446986Y246201D01*
X447315Y246222D01*
X447356Y246229D01*
X447389Y246238D01*
X447413Y246249D01*
X447429Y246260D01*
Y245140D01*
D02*
G37*
G36*
X472482Y246423D02*
X472512Y246376D01*
X472562Y246335D01*
X472632Y246299D01*
X472722Y246269D01*
X472832Y246244D01*
X472962Y246225D01*
X473112Y246211D01*
X473472Y246200D01*
Y245200D01*
X473282Y245197D01*
X472962Y245175D01*
X472832Y245156D01*
X472722Y245131D01*
X472632Y245101D01*
X472562Y245065D01*
X472512Y245024D01*
X472482Y244977D01*
X472472Y244925D01*
Y246475D01*
X472482Y246423D01*
D02*
G37*
G36*
X470528Y244925D02*
X470518Y244977D01*
X470488Y245024D01*
X470438Y245065D01*
X470368Y245101D01*
X470278Y245131D01*
X470168Y245156D01*
X470038Y245175D01*
X469888Y245189D01*
X469528Y245200D01*
Y246200D01*
X469718Y246203D01*
X470038Y246225D01*
X470168Y246244D01*
X470278Y246269D01*
X470368Y246299D01*
X470438Y246335D01*
X470488Y246376D01*
X470518Y246423D01*
X470528Y246475D01*
Y244925D01*
D02*
G37*
G36*
X468382Y246423D02*
X468412Y246376D01*
X468462Y246335D01*
X468532Y246299D01*
X468622Y246269D01*
X468732Y246244D01*
X468862Y246225D01*
X469012Y246211D01*
X469372Y246200D01*
Y245200D01*
X469182Y245197D01*
X468862Y245175D01*
X468732Y245156D01*
X468622Y245131D01*
X468532Y245101D01*
X468462Y245065D01*
X468412Y245024D01*
X468382Y244977D01*
X468372Y244925D01*
Y246475D01*
X468382Y246423D01*
D02*
G37*
G36*
X466428Y244925D02*
X466418Y244977D01*
X466388Y245024D01*
X466338Y245065D01*
X466268Y245101D01*
X466178Y245131D01*
X466068Y245156D01*
X465938Y245175D01*
X465788Y245189D01*
X465428Y245200D01*
Y246200D01*
X465618Y246203D01*
X465938Y246225D01*
X466068Y246244D01*
X466178Y246269D01*
X466268Y246299D01*
X466338Y246335D01*
X466388Y246376D01*
X466418Y246423D01*
X466428Y246475D01*
Y244925D01*
D02*
G37*
G36*
X464282Y246423D02*
X464312Y246376D01*
X464362Y246335D01*
X464432Y246299D01*
X464522Y246269D01*
X464632Y246244D01*
X464762Y246225D01*
X464912Y246211D01*
X465272Y246200D01*
Y245200D01*
X465082Y245197D01*
X464762Y245175D01*
X464632Y245156D01*
X464522Y245131D01*
X464432Y245101D01*
X464362Y245065D01*
X464312Y245024D01*
X464282Y244977D01*
X464272Y244925D01*
Y246475D01*
X464282Y246423D01*
D02*
G37*
G36*
X462328Y244925D02*
X462318Y244977D01*
X462288Y245024D01*
X462238Y245065D01*
X462168Y245101D01*
X462078Y245131D01*
X461968Y245156D01*
X461838Y245175D01*
X461688Y245189D01*
X461328Y245200D01*
Y246200D01*
X461518Y246203D01*
X461838Y246225D01*
X461968Y246244D01*
X462078Y246269D01*
X462168Y246299D01*
X462238Y246335D01*
X462288Y246376D01*
X462318Y246423D01*
X462328Y246475D01*
Y244925D01*
D02*
G37*
G36*
X460182Y246423D02*
X460212Y246376D01*
X460262Y246335D01*
X460332Y246299D01*
X460422Y246269D01*
X460532Y246244D01*
X460662Y246225D01*
X460812Y246211D01*
X461172Y246200D01*
Y245200D01*
X460982Y245197D01*
X460662Y245175D01*
X460532Y245156D01*
X460422Y245131D01*
X460332Y245101D01*
X460262Y245065D01*
X460212Y245024D01*
X460182Y244977D01*
X460172Y244925D01*
Y246475D01*
X460182Y246423D01*
D02*
G37*
G36*
X458228Y244925D02*
X458218Y244977D01*
X458188Y245024D01*
X458138Y245065D01*
X458068Y245101D01*
X457978Y245131D01*
X457868Y245156D01*
X457738Y245175D01*
X457588Y245189D01*
X457228Y245200D01*
Y246200D01*
X457418Y246203D01*
X457738Y246225D01*
X457868Y246244D01*
X457978Y246269D01*
X458068Y246299D01*
X458138Y246335D01*
X458188Y246376D01*
X458218Y246423D01*
X458228Y246475D01*
Y244925D01*
D02*
G37*
G36*
X416464Y244179D02*
X416283Y243990D01*
X415993Y243645D01*
X415884Y243487D01*
X415800Y243341D01*
X415740Y243205D01*
X415705Y243079D01*
X415694Y242964D01*
X415707Y242859D01*
X415745Y242765D01*
X414737Y244561D01*
X414796Y244488D01*
X414873Y244447D01*
X414969Y244438D01*
X415083Y244462D01*
X415215Y244518D01*
X415366Y244606D01*
X415535Y244726D01*
X415722Y244878D01*
X416151Y245280D01*
X416464Y244179D01*
D02*
G37*
G36*
X505757Y245782D02*
X505787Y245702D01*
X505837Y245631D01*
X505907Y245570D01*
X505997Y245518D01*
X506107Y245475D01*
X506237Y245442D01*
X506387Y245419D01*
X506557Y245404D01*
X506747Y245400D01*
Y244400D01*
X506557Y244395D01*
X506387Y244381D01*
X506237Y244357D01*
X506107Y244324D01*
X505997Y244282D01*
X505907Y244230D01*
X505837Y244168D01*
X505787Y244097D01*
X505757Y244017D01*
X505747Y243927D01*
Y245872D01*
X505757Y245782D01*
D02*
G37*
G36*
X533067Y243907D02*
X533020Y244001D01*
X532955Y244085D01*
X532870Y244158D01*
X532766Y244222D01*
X532643Y244277D01*
X532502Y244321D01*
X532341Y244355D01*
X532162Y244380D01*
X531963Y244395D01*
X531745Y244400D01*
X531363Y245400D01*
X531578Y245405D01*
X531765Y245420D01*
X531926Y245445D01*
X532061Y245480D01*
X532168Y245525D01*
X532250Y245580D01*
X532305Y245645D01*
X532333Y245720D01*
X532335Y245806D01*
X532310Y245901D01*
X533067Y243907D01*
D02*
G37*
G36*
X393421Y243648D02*
X393289Y243508D01*
X393178Y243376D01*
X393088Y243251D01*
X393020Y243133D01*
X392973Y243023D01*
X392947Y242919D01*
X392943Y242823D01*
X392960Y242734D01*
X392999Y242653D01*
X393059Y242579D01*
X391645Y243993D01*
X391719Y243933D01*
X391801Y243894D01*
X391890Y243877D01*
X391986Y243881D01*
X392089Y243906D01*
X392199Y243953D01*
X392317Y244022D01*
X392442Y244111D01*
X392574Y244222D01*
X392714Y244355D01*
X393421Y243648D01*
D02*
G37*
G36*
X329482Y245298D02*
X329512Y245251D01*
X329562Y245210D01*
X329632Y245174D01*
X329722Y245144D01*
X329832Y245119D01*
X329962Y245100D01*
X330112Y245086D01*
X330472Y245075D01*
Y244075D01*
X330282Y244072D01*
X329962Y244050D01*
X329832Y244031D01*
X329722Y244006D01*
X329632Y243976D01*
X329562Y243940D01*
X329512Y243899D01*
X329482Y243852D01*
X329472Y243800D01*
Y245351D01*
X329482Y245298D01*
D02*
G37*
G36*
X396386Y243756D02*
X396383Y243849D01*
X396348Y243933D01*
X396279Y244006D01*
X396178Y244070D01*
X396043Y244124D01*
X395876Y244169D01*
X395676Y244203D01*
X395443Y244228D01*
X394877Y244247D01*
X395156Y245247D01*
X395430Y245252D01*
X395896Y245291D01*
X396088Y245326D01*
X396253Y245370D01*
X396390Y245424D01*
X396499Y245488D01*
X396582Y245562D01*
X396637Y245645D01*
X396664Y245739D01*
X396386Y243756D01*
D02*
G37*
G36*
X397932Y244816D02*
X397896Y244738D01*
X397881Y244653D01*
X397887Y244560D01*
X397914Y244459D01*
X397962Y244351D01*
X398031Y244236D01*
X398120Y244113D01*
X398230Y243983D01*
X398361Y243845D01*
X397654Y243138D01*
X397516Y243269D01*
X397386Y243379D01*
X397264Y243469D01*
X397148Y243537D01*
X397040Y243585D01*
X396940Y243612D01*
X396847Y243618D01*
X396762Y243603D01*
X396684Y243568D01*
X396613Y243512D01*
X397988Y244886D01*
X397932Y244816D01*
D02*
G37*
G36*
X323139Y243061D02*
X323054Y243108D01*
X322956Y243128D01*
X322845Y243122D01*
X322723Y243090D01*
X322587Y243031D01*
X322440Y242946D01*
X322280Y242835D01*
X322107Y242697D01*
X321725Y242342D01*
X320821Y242853D01*
X321029Y243068D01*
X321354Y243448D01*
X321471Y243614D01*
X321558Y243764D01*
X321615Y243897D01*
X321642Y244014D01*
X321638Y244115D01*
X321604Y244199D01*
X321540Y244267D01*
X323139Y243061D01*
D02*
G37*
G36*
X476163Y242584D02*
X476099Y242520D01*
X475881Y242272D01*
X475858Y242238D01*
X475841Y242209D01*
X475831Y242184D01*
X475828Y242165D01*
X475036Y242957D01*
X475055Y242960D01*
X475080Y242970D01*
X475109Y242987D01*
X475143Y243010D01*
X475183Y243040D01*
X475277Y243121D01*
X475456Y243292D01*
X476163Y242584D01*
D02*
G37*
G36*
X381500Y244392D02*
X381506Y244006D01*
X381553Y243319D01*
X381593Y243018D01*
X381646Y242746D01*
X381710Y242502D01*
X381786Y242286D01*
X381873Y242098D01*
X381972Y241939D01*
X382083Y241809D01*
X380847Y241948D01*
X380873Y241717D01*
X381839Y241581D01*
X381745Y241579D01*
X381662Y241543D01*
X381588Y241474D01*
X381524Y241373D01*
X381486Y241277D01*
X381589D01*
X381543Y241209D01*
X381502Y241110D01*
X381466Y240983D01*
X381434Y240825D01*
X381408Y240637D01*
X381369Y240173D01*
X381347Y239253D01*
X380347D01*
X380345Y239589D01*
X380260Y240825D01*
X380246Y240893D01*
X379792Y240927D01*
X378751Y240948D01*
X378472Y242948D01*
X378855Y242950D01*
X379525Y242990D01*
X379500Y244975D01*
X381500Y244392D01*
D02*
G37*
G36*
X451018Y243230D02*
X450928Y243110D01*
X450872Y243004D01*
X450850Y242912D01*
X450862Y242834D01*
X450908Y242770D01*
X450989Y242721D01*
X451103Y242685D01*
X451252Y242664D01*
X451435Y242657D01*
X449228Y241657D01*
X448021Y242657D01*
X448218Y242664D01*
X448409Y242685D01*
X448595Y242721D01*
X448774Y242770D01*
X448948Y242834D01*
X449116Y242912D01*
X449277Y243004D01*
X449434Y243110D01*
X449584Y243230D01*
X449728Y243364D01*
X451142D01*
X451018Y243230D01*
D02*
G37*
G36*
X474457Y241597D02*
X474441Y241608D01*
X474417Y241619D01*
X474384Y241628D01*
X474343Y241635D01*
X474294Y241642D01*
X474171Y241652D01*
X473923Y241657D01*
Y242657D01*
X474014Y242658D01*
X474343Y242679D01*
X474384Y242686D01*
X474417Y242695D01*
X474441Y242706D01*
X474457Y242717D01*
Y241597D01*
D02*
G37*
G36*
X463939Y241394D02*
X463853Y241440D01*
X463755Y241460D01*
X463645Y241454D01*
X463522Y241422D01*
X463387Y241363D01*
X463239Y241278D01*
X463079Y241167D01*
X462907Y241029D01*
X462524Y240674D01*
X461620Y241185D01*
X461828Y241400D01*
X462153Y241780D01*
X462271Y241947D01*
X462358Y242096D01*
X462415Y242229D01*
X462441Y242346D01*
X462437Y242447D01*
X462404Y242531D01*
X462339Y242599D01*
X463939Y241394D01*
D02*
G37*
G36*
X472482Y242880D02*
X472512Y242833D01*
X472562Y242792D01*
X472632Y242756D01*
X472722Y242726D01*
X472832Y242701D01*
X472962Y242682D01*
X473112Y242668D01*
X473472Y242657D01*
Y241657D01*
X473282Y241654D01*
X472962Y241632D01*
X472832Y241613D01*
X472722Y241588D01*
X472632Y241558D01*
X472562Y241522D01*
X472512Y241481D01*
X472482Y241434D01*
X472472Y241382D01*
Y242932D01*
X472482Y242880D01*
D02*
G37*
G36*
X470527Y241382D02*
X470517Y241434D01*
X470487Y241481D01*
X470437Y241522D01*
X470367Y241558D01*
X470277Y241588D01*
X470167Y241613D01*
X470037Y241632D01*
X469887Y241646D01*
X469527Y241657D01*
Y242657D01*
X469717Y242660D01*
X470037Y242682D01*
X470167Y242701D01*
X470277Y242726D01*
X470367Y242756D01*
X470437Y242792D01*
X470487Y242833D01*
X470517Y242880D01*
X470527Y242932D01*
Y241382D01*
D02*
G37*
G36*
X468382Y242880D02*
X468412Y242833D01*
X468462Y242792D01*
X468532Y242756D01*
X468622Y242726D01*
X468732Y242701D01*
X468862Y242682D01*
X469012Y242668D01*
X469372Y242657D01*
Y241657D01*
X469182Y241654D01*
X468862Y241632D01*
X468732Y241613D01*
X468622Y241588D01*
X468532Y241558D01*
X468462Y241522D01*
X468412Y241481D01*
X468382Y241434D01*
X468372Y241382D01*
Y242932D01*
X468382Y242880D01*
D02*
G37*
G36*
X458227Y241382D02*
X458217Y241434D01*
X458187Y241481D01*
X458137Y241522D01*
X458067Y241558D01*
X457977Y241588D01*
X457867Y241613D01*
X457737Y241632D01*
X457587Y241646D01*
X457227Y241657D01*
Y242657D01*
X457417Y242660D01*
X457737Y242682D01*
X457867Y242701D01*
X457977Y242726D01*
X458067Y242756D01*
X458137Y242792D01*
X458187Y242833D01*
X458217Y242880D01*
X458227Y242932D01*
Y241382D01*
D02*
G37*
G36*
X429141Y243062D02*
X429172Y242977D01*
X429222Y242902D01*
X429293Y242837D01*
X429384Y242782D01*
X429495Y242737D01*
X429627Y242702D01*
X429779Y242677D01*
X429951Y242662D01*
X430143Y242657D01*
Y241657D01*
X429951Y241652D01*
X429779Y241637D01*
X429627Y241612D01*
X429495Y241577D01*
X429384Y241532D01*
X429293Y241477D01*
X429222Y241412D01*
X429172Y241337D01*
X429141Y241252D01*
X429131Y241157D01*
Y243157D01*
X429141Y243062D01*
D02*
G37*
G36*
X457208Y241008D02*
X457548Y240998D01*
X457615Y240991D01*
Y240770D01*
X458137D01*
X458227Y240732D01*
X458506Y240532D01*
X458529Y240500D01*
X458642Y240337D01*
X458657Y240302D01*
Y238236D01*
X458157Y238029D01*
X456393Y239793D01*
X456029Y240036D01*
X455600Y240122D01*
X455600Y240122D01*
X438504D01*
X438075Y240036D01*
X437750Y239819D01*
X437729Y239816D01*
X437708Y239790D01*
X437666Y239748D01*
X437603Y239724D01*
X437227Y239371D01*
X437087Y239254D01*
X436968Y239167D01*
X436950Y239156D01*
X436869D01*
X436839Y239174D01*
X436777Y239158D01*
X436717Y239181D01*
X436663Y239156D01*
X435688D01*
X435320Y239474D01*
Y239556D01*
X434033D01*
Y237572D01*
X433533D01*
Y237072D01*
X431745D01*
Y235587D01*
X431942Y235556D01*
Y234721D01*
X431938Y234721D01*
X431875Y234693D01*
X430433D01*
X430315Y234869D01*
X429720Y235267D01*
X429518Y235307D01*
Y233571D01*
X429018D01*
Y233071D01*
X427282D01*
X427322Y232869D01*
X427720Y232274D01*
X428315Y231876D01*
X428661Y231807D01*
X428714Y231735D01*
X428715Y231734D01*
X428787Y231272D01*
X428487Y230992D01*
X428334Y230867D01*
X428252Y230809D01*
X428107D01*
X428105Y230810D01*
X428095Y230809D01*
X428038D01*
X427997Y230831D01*
X427923Y230809D01*
X423638D01*
Y230602D01*
X423176Y230410D01*
X421198Y232388D01*
X421389Y232850D01*
X424400D01*
Y236550D01*
X423748D01*
X423570Y237050D01*
X424340Y237870D01*
X424402Y237896D01*
X424811Y238304D01*
X424963Y238436D01*
X425011Y238473D01*
X425160D01*
X425175Y238462D01*
X425233Y238473D01*
X429755D01*
Y240974D01*
X429764Y240976D01*
X429860Y240992D01*
X429988Y241003D01*
X430160Y241008D01*
X430222Y241036D01*
X449207D01*
X449289Y241010D01*
X449336Y241036D01*
X457146D01*
X457208Y241008D01*
D02*
G37*
G36*
X327868Y242518D02*
X328228Y242213D01*
X328389Y242101D01*
X328537Y242015D01*
X328672Y241957D01*
X328794Y241925D01*
X328903Y241921D01*
X328999Y241943D01*
X329082Y241992D01*
X327539Y240730D01*
X327601Y240800D01*
X327633Y240887D01*
X327635Y240989D01*
X327608Y241106D01*
X327551Y241240D01*
X327464Y241389D01*
X327348Y241554D01*
X327202Y241735D01*
X326820Y242144D01*
X327668Y242711D01*
X327868Y242518D01*
D02*
G37*
G36*
X472472Y241382D02*
X472399Y241372D01*
X472334Y241342D01*
X472277Y241292D01*
X472227Y241222D01*
X472185Y241132D01*
X472151Y241022D01*
X472124Y240892D01*
X472105Y240742D01*
X472094Y240572D01*
X472090Y240382D01*
X471090D01*
X471085Y240573D01*
X471070Y240745D01*
X471045Y240896D01*
X471010Y241028D01*
X470965Y241139D01*
X470910Y241230D01*
X470845Y241301D01*
X470770Y241352D01*
X470685Y241383D01*
X470590Y241394D01*
X472472Y241382D01*
D02*
G37*
G36*
X468372D02*
X468330Y241372D01*
X468293Y241342D01*
X468260Y241292D01*
X468232Y241222D01*
X468208Y241132D01*
X468188Y241022D01*
X468173Y240892D01*
X468155Y240572D01*
X468153Y240382D01*
X467153D01*
X467148Y240573D01*
X467133Y240745D01*
X467108Y240896D01*
X467073Y241028D01*
X467028Y241139D01*
X466973Y241230D01*
X466908Y241301D01*
X466833Y241352D01*
X466748Y241383D01*
X466653Y241394D01*
X468372Y241382D01*
D02*
G37*
G36*
X460172D02*
X460279Y240382D01*
X459279D01*
X459274Y240573D01*
X459259Y240745D01*
X459234Y240896D01*
X459199Y241027D01*
X459154Y241139D01*
X459099Y241230D01*
X459034Y241301D01*
X458959Y241352D01*
X458874Y241383D01*
X458779Y241394D01*
X460172Y241382D01*
D02*
G37*
G36*
X494358Y239823D02*
X494167Y239626D01*
X493865Y239268D01*
X493754Y239108D01*
X493669Y238961D01*
X493610Y238825D01*
X493578Y238703D01*
X493572Y238592D01*
X493592Y238494D01*
X493639Y238409D01*
X492433Y240008D01*
X492501Y239944D01*
X492585Y239910D01*
X492686Y239906D01*
X492803Y239933D01*
X492936Y239989D01*
X493086Y240076D01*
X493252Y240194D01*
X493434Y240341D01*
X493847Y240727D01*
X494358Y239823D01*
D02*
G37*
G36*
X366945Y244066D02*
X368079Y243072D01*
X368192Y243003D01*
X368284Y242962D01*
X368353Y242948D01*
X367728Y242322D01*
X368353Y241948D01*
X370767Y240948D01*
X370373Y240934D01*
X369990Y240891D01*
X369620Y240820D01*
X369261Y240721D01*
X368913Y240594D01*
X368578Y240439D01*
X368254Y240255D01*
X367942Y240043D01*
X367641Y239802D01*
X367353Y239533D01*
X365878Y240887D01*
X366140Y241163D01*
X366359Y241424D01*
X366535Y241672D01*
X366670Y241905D01*
X366762Y242125D01*
X366811Y242330D01*
X366818Y242520D01*
X366783Y242697D01*
X366713Y242844D01*
X366235Y243356D01*
X365973Y243621D01*
X366680Y244328D01*
X366945Y244066D01*
D02*
G37*
G36*
X329305Y240455D02*
X329220Y240424D01*
X329145Y240373D01*
X329080Y240302D01*
X329025Y240211D01*
X328980Y240099D01*
X328945Y239968D01*
X328920Y239817D01*
X328905Y239645D01*
X328900Y239453D01*
X327900D01*
X327896Y239643D01*
X327867Y239963D01*
X327840Y240093D01*
X327807Y240203D01*
X327766Y240293D01*
X327717Y240363D01*
X327661Y240413D01*
X327598Y240443D01*
X327527Y240453D01*
X329400Y240465D01*
X329305Y240455D01*
D02*
G37*
G36*
X425313Y239097D02*
X425261Y239178D01*
X425190Y239225D01*
X425101Y239237D01*
X424992Y239214D01*
X424864Y239157D01*
X424718Y239066D01*
X424552Y238940D01*
X424368Y238780D01*
X423943Y238356D01*
X423758Y239620D01*
X423929Y239809D01*
X424203Y240158D01*
X424306Y240318D01*
X424387Y240469D01*
X424445Y240610D01*
X424481Y240742D01*
X424495Y240864D01*
X424486Y240977D01*
X424455Y241080D01*
X425313Y239097D01*
D02*
G37*
G36*
X320100Y238976D02*
X320121Y238647D01*
X320129Y238606D01*
X320138Y238573D01*
X320148Y238549D01*
X320160Y238533D01*
X319040D01*
X319051Y238549D01*
X319061Y238573D01*
X319070Y238606D01*
X319078Y238647D01*
X319085Y238696D01*
X319094Y238819D01*
X319100Y239066D01*
X320100D01*
X320100Y238976D01*
D02*
G37*
G36*
X438558Y238347D02*
X438377Y238159D01*
X438087Y237823D01*
X437979Y237673D01*
X437894Y237536D01*
X437835Y237412D01*
X437799Y237300D01*
X437788Y237201D01*
X437802Y237114D01*
X437839Y237040D01*
X436741Y238532D01*
X436799Y238478D01*
X436873Y238452D01*
X436964Y238454D01*
X437070Y238484D01*
X437193Y238542D01*
X437331Y238628D01*
X437486Y238742D01*
X437657Y238883D01*
X438048Y239251D01*
X438558Y238347D01*
D02*
G37*
G36*
X488753Y238075D02*
X488743Y238165D01*
X488713Y238245D01*
X488663Y238316D01*
X488593Y238378D01*
X488503Y238429D01*
X488393Y238472D01*
X488263Y238505D01*
X488113Y238529D01*
X487943Y238543D01*
X487753Y238548D01*
Y239548D01*
X487943Y239552D01*
X488113Y239566D01*
X488263Y239590D01*
X488393Y239623D01*
X488503Y239666D01*
X488593Y239718D01*
X488663Y239779D01*
X488713Y239850D01*
X488743Y239930D01*
X488753Y240020D01*
Y238075D01*
D02*
G37*
G36*
X402583Y239630D02*
X402713Y239520D01*
X402836Y239431D01*
X402951Y239362D01*
X403059Y239315D01*
X403160Y239288D01*
X403253Y239282D01*
X403338Y239296D01*
X403416Y239332D01*
X403487Y239388D01*
X402112Y238014D01*
X402168Y238084D01*
X402204Y238162D01*
X402218Y238247D01*
X402212Y238340D01*
X402185Y238440D01*
X402138Y238548D01*
X402069Y238664D01*
X401979Y238786D01*
X401869Y238916D01*
X401738Y239054D01*
X402445Y239761D01*
X402583Y239630D01*
D02*
G37*
G36*
X371203Y239073D02*
X371213Y239048D01*
X371230Y239019D01*
X371253Y238985D01*
X371283Y238945D01*
X371364Y238851D01*
X371534Y238673D01*
X370827Y237965D01*
X370763Y238029D01*
X370515Y238247D01*
X370481Y238270D01*
X370452Y238287D01*
X370427Y238297D01*
X370408Y238300D01*
X371200Y239092D01*
X371203Y239073D01*
D02*
G37*
G36*
X374300Y238970D02*
X374310Y238957D01*
X374327Y238938D01*
X374513Y238743D01*
X374635Y238620D01*
X373927Y237913D01*
X373570Y238251D01*
X374297Y238977D01*
X374300Y238970D01*
D02*
G37*
G36*
X328905Y238485D02*
X328919Y238315D01*
X328942Y238165D01*
X328976Y238035D01*
X329018Y237925D01*
X329070Y237835D01*
X329131Y237765D01*
X329202Y237715D01*
X329282Y237685D01*
X329372Y237675D01*
X327428D01*
X327518Y237685D01*
X327598Y237715D01*
X327669Y237765D01*
X327730Y237835D01*
X327782Y237925D01*
X327824Y238035D01*
X327857Y238165D01*
X327881Y238315D01*
X327895Y238485D01*
X327900Y238675D01*
X328900D01*
X328905Y238485D01*
D02*
G37*
G36*
X572244Y241071D02*
X572302Y240050D01*
X572358Y239604D01*
X572432Y239200D01*
X572523Y238838D01*
X572631Y238519D01*
X572758Y238243D01*
X572902Y238008D01*
X573064Y237817D01*
X572356Y237109D01*
X572165Y237271D01*
X571931Y237415D01*
X571654Y237542D01*
X571335Y237650D01*
X570973Y237741D01*
X570569Y237815D01*
X570123Y237871D01*
X569102Y237929D01*
X568529Y237932D01*
X572241Y241645D01*
X572244Y241071D01*
D02*
G37*
G36*
X472097Y236348D02*
X471083D01*
X471084Y236360D01*
X471085Y236392D01*
X471090Y237358D01*
X472090D01*
X472097Y236348D01*
D02*
G37*
G36*
X468159D02*
X467146D01*
X467147Y236360D01*
X467148Y236392D01*
X467153Y237358D01*
X468153D01*
X468159Y236348D01*
D02*
G37*
G36*
X462254D02*
X461240D01*
X461242Y236360D01*
X461243Y236392D01*
X461247Y237358D01*
X462247D01*
X462254Y236348D01*
D02*
G37*
G36*
X460286D02*
X459272D01*
X459273Y236360D01*
X459274Y236392D01*
X459279Y237358D01*
X460279D01*
X460286Y236348D01*
D02*
G37*
G36*
X422805Y236748D02*
X422820Y236578D01*
X422845Y236428D01*
X422880Y236298D01*
X422925Y236188D01*
X422980Y236098D01*
X423045Y236028D01*
X423120Y235978D01*
X423205Y235948D01*
X423300Y235938D01*
X421300D01*
X421395Y235948D01*
X421480Y235978D01*
X421555Y236028D01*
X421620Y236098D01*
X421675Y236188D01*
X421720Y236298D01*
X421755Y236428D01*
X421780Y236578D01*
X421795Y236748D01*
X421800Y236938D01*
X422800D01*
X422805Y236748D01*
D02*
G37*
G36*
X494358Y235823D02*
X494167Y235626D01*
X493865Y235268D01*
X493754Y235108D01*
X493669Y234961D01*
X493610Y234825D01*
X493578Y234702D01*
X493572Y234592D01*
X493592Y234494D01*
X493639Y234409D01*
X492433Y236008D01*
X492501Y235944D01*
X492585Y235910D01*
X492686Y235906D01*
X492803Y235933D01*
X492936Y235989D01*
X493086Y236076D01*
X493252Y236194D01*
X493434Y236341D01*
X493847Y236727D01*
X494358Y235823D01*
D02*
G37*
G36*
X371954Y235515D02*
X371870Y235431D01*
X371642Y235165D01*
X371611Y235116D01*
X371591Y235075D01*
X371581Y235041D01*
X371581Y235015D01*
X371591Y234995D01*
X370726Y235860D01*
X370746Y235850D01*
X370772Y235850D01*
X370806Y235860D01*
X370848Y235880D01*
X370896Y235911D01*
X370952Y235953D01*
X371084Y236067D01*
X371247Y236222D01*
X371954Y235515D01*
D02*
G37*
G36*
X434293Y236589D02*
X434280Y236559D01*
X434268Y236509D01*
X434258Y236439D01*
X434242Y236239D01*
X434230Y235789D01*
X434229Y235599D01*
X433229D01*
X433224Y235789D01*
X433210Y235959D01*
X433186Y236109D01*
X433153Y236239D01*
X433111Y236349D01*
X433059Y236439D01*
X432998Y236509D01*
X432927Y236559D01*
X432847Y236589D01*
X432757Y236599D01*
X434308D01*
X434293Y236589D01*
D02*
G37*
G36*
X474814Y233693D02*
X474677Y233550D01*
X474555Y233407D01*
X474447Y233264D01*
X474354Y233122D01*
X474275Y232980D01*
X474210Y232839D01*
X474159Y232698D01*
X474124Y232558D01*
X474102Y232418D01*
X474095Y232279D01*
Y235108D01*
X474102Y234978D01*
X474124Y234877D01*
X474159Y234806D01*
X474210Y234763D01*
X474275Y234748D01*
X474354Y234763D01*
X474447Y234806D01*
X474555Y234877D01*
X474677Y234978D01*
X474814Y235108D01*
Y233693D01*
D02*
G37*
G36*
X405575Y234551D02*
X405531Y234581D01*
X405476Y234593D01*
X405412Y234586D01*
X405337Y234562D01*
X405252Y234520D01*
X405157Y234460D01*
X405051Y234381D01*
X404935Y234285D01*
X404673Y234038D01*
X403966Y234745D01*
X404098Y234882D01*
X404309Y235124D01*
X404387Y235229D01*
X404448Y235324D01*
X404490Y235409D01*
X404514Y235484D01*
X404520Y235549D01*
X404508Y235603D01*
X404478Y235647D01*
X405575Y234551D01*
D02*
G37*
G36*
X434232Y235354D02*
X434254Y235034D01*
X434273Y234904D01*
X434298Y234794D01*
X434328Y234704D01*
X434364Y234634D01*
X434405Y234584D01*
X434452Y234554D01*
X434504Y234544D01*
X432954D01*
X433006Y234554D01*
X433053Y234584D01*
X433094Y234634D01*
X433130Y234704D01*
X433160Y234794D01*
X433185Y234904D01*
X433204Y235034D01*
X433218Y235184D01*
X433229Y235544D01*
X434229D01*
X434232Y235354D01*
D02*
G37*
G36*
X511362Y236405D02*
X511097Y236203D01*
X510400Y235294D01*
X509962Y234236D01*
X509812Y233100D01*
X509962Y231964D01*
X510400Y230906D01*
X511097Y229997D01*
X511653Y229572D01*
X511483Y229071D01*
X510218D01*
X509789Y228986D01*
X509425Y228743D01*
X509425Y228743D01*
X507729Y227048D01*
X507341Y227366D01*
X507419Y227483D01*
X507527Y228029D01*
X507419Y228575D01*
X507109Y229038D01*
X506646Y229348D01*
X506100Y229456D01*
X505554Y229348D01*
X505091Y229038D01*
X504781Y228575D01*
X504728Y228307D01*
X504554Y228109D01*
X504503Y228058D01*
X504476Y227991D01*
X503831Y227346D01*
X503824Y227345D01*
X503803Y227319D01*
X503763Y227278D01*
X503701Y227255D01*
X503304Y226884D01*
X503172Y226778D01*
X502851Y227052D01*
X502651Y227246D01*
X502586Y227272D01*
X502539Y227319D01*
X502518Y227345D01*
X502512Y227346D01*
X501865Y227993D01*
X501501Y228236D01*
X501072Y228322D01*
X501072Y228322D01*
X497324D01*
X496895Y228236D01*
X496531Y227993D01*
X496531Y227993D01*
X495124Y226586D01*
X494663Y226778D01*
Y228932D01*
X494859Y229063D01*
X494859D01*
Y230547D01*
X493777D01*
X493788Y230494D01*
X493835Y230408D01*
X493730Y230547D01*
X493071D01*
Y231421D01*
X492629Y232007D01*
X492697Y231943D01*
X492781Y231909D01*
X492882Y231905D01*
X492999Y231932D01*
X493132Y231989D01*
X493282Y232076D01*
X493448Y232193D01*
X493630Y232341D01*
X494044Y232726D01*
X494554Y231822D01*
X494363Y231625D01*
X494298Y231547D01*
X495157D01*
X496024Y232414D01*
Y233438D01*
X495390Y234073D01*
X495454Y234137D01*
X495671Y234385D01*
X495695Y234419D01*
X495711Y234448D01*
X495721Y234473D01*
X495724Y234492D01*
X496024Y234192D01*
Y234500D01*
X496524D01*
Y235000D01*
X498260D01*
X498220Y235202D01*
X497822Y235798D01*
X497227Y236196D01*
X496917Y236257D01*
X496669Y236816D01*
X496707Y236878D01*
X511201D01*
X511362Y236405D01*
D02*
G37*
G36*
X488753Y234075D02*
X488743Y234165D01*
X488713Y234245D01*
X488663Y234316D01*
X488593Y234378D01*
X488503Y234430D01*
X488393Y234472D01*
X488263Y234505D01*
X488113Y234529D01*
X487943Y234543D01*
X487753Y234548D01*
Y235548D01*
X487943Y235552D01*
X488113Y235566D01*
X488263Y235590D01*
X488393Y235623D01*
X488503Y235666D01*
X488593Y235718D01*
X488663Y235779D01*
X488713Y235850D01*
X488743Y235930D01*
X488753Y236020D01*
Y234075D01*
D02*
G37*
G36*
X455305Y232296D02*
X455297Y232329D01*
X455274Y232375D01*
X455234Y232434D01*
X455179Y232507D01*
X455021Y232691D01*
X454515Y233218D01*
X455222Y233925D01*
X455238Y233911D01*
X455252Y233901D01*
X455264Y233896D01*
X455275Y233896D01*
X455284Y233901D01*
X455292Y233911D01*
X455298Y233925D01*
X455302Y233944D01*
X455304Y233968D01*
X455305Y233996D01*
Y232296D01*
D02*
G37*
G36*
X406935Y234392D02*
Y219648D01*
X406501Y219214D01*
X405959Y219378D01*
X405896Y219697D01*
X405498Y220292D01*
X404902Y220690D01*
X404700Y220730D01*
Y218994D01*
X404200D01*
Y218495D01*
X402464D01*
X402504Y218292D01*
X402902Y217697D01*
X403498Y217299D01*
X403816Y217236D01*
X403981Y216693D01*
X397681Y210393D01*
X397048Y210449D01*
X394717Y212781D01*
X394767Y212851D01*
X394849Y212949D01*
X394968Y213074D01*
X394992Y213137D01*
X395393Y213538D01*
X395393Y213538D01*
X395636Y213902D01*
X395722Y214331D01*
X395722Y214331D01*
Y218269D01*
X395722Y218269D01*
X395636Y218698D01*
X395393Y219062D01*
X395393Y219062D01*
X394992Y219463D01*
X394968Y219526D01*
X394849Y219651D01*
X394767Y219749D01*
X394712Y219826D01*
X395687Y220801D01*
X395928Y221162D01*
X396013Y221588D01*
X395928Y222014D01*
X395687Y222376D01*
X395326Y222617D01*
X394900Y222702D01*
X394621Y222980D01*
X394536Y223406D01*
X394295Y223768D01*
X393934Y224009D01*
X393508Y224094D01*
X393229Y224372D01*
X393144Y224798D01*
X392903Y225160D01*
X392542Y225401D01*
X392116Y225486D01*
X391837Y225764D01*
X391753Y226190D01*
X391511Y226552D01*
X391217Y226748D01*
X391119Y227023D01*
X391079Y227317D01*
X392611Y228849D01*
X398493Y222967D01*
X398400Y222506D01*
X398280Y222387D01*
X399330Y221337D01*
X400594Y222601D01*
X401301Y221894D01*
X400037Y220630D01*
X401086Y219580D01*
X401538Y220032D01*
X401601Y220007D01*
X402114Y219495D01*
X403138D01*
X403700Y220057D01*
Y221081D01*
X403192Y221588D01*
X403168Y221651D01*
X403163Y221657D01*
X403614Y222108D01*
X403557Y222166D01*
X403592Y222651D01*
X405554Y224613D01*
X403860Y226307D01*
X403851Y226353D01*
X403797Y226388D01*
X403773Y226447D01*
X403682Y226485D01*
X403314Y226854D01*
X403314D01*
X403014Y226948D01*
X402950Y227424D01*
X406023Y230497D01*
X404060Y232460D01*
X404065Y232467D01*
X404121Y232547D01*
X404204Y232645D01*
X404323Y232770D01*
X404347Y232833D01*
X405046Y233533D01*
X405062Y233544D01*
X405118Y233565D01*
X405213Y233654D01*
X405440Y233820D01*
X405575Y233685D01*
X405944Y234054D01*
X406034Y234091D01*
X406059Y234151D01*
X406112Y234186D01*
X406122Y234232D01*
X406473Y234584D01*
X406935Y234392D01*
D02*
G37*
G36*
X415812Y233462D02*
X415792Y233507D01*
X415732Y233548D01*
X415632Y233583D01*
X415492Y233614D01*
X415312Y233641D01*
X414832Y233679D01*
X413812Y233700D01*
Y235700D01*
X414192Y235702D01*
X415492Y235786D01*
X415632Y235817D01*
X415732Y235852D01*
X415792Y235893D01*
X415812Y235938D01*
Y233462D01*
D02*
G37*
G36*
X403852Y233217D02*
X403719Y233078D01*
X403608Y232945D01*
X403518Y232820D01*
X403450Y232702D01*
X403403Y232592D01*
X403378Y232489D01*
X403374Y232393D01*
X403391Y232304D01*
X403430Y232222D01*
X403490Y232148D01*
X402075Y233562D01*
X402150Y233502D01*
X402231Y233463D01*
X402320Y233446D01*
X402416Y233450D01*
X402520Y233476D01*
X402630Y233523D01*
X402748Y233591D01*
X402873Y233681D01*
X403005Y233792D01*
X403145Y233924D01*
X403852Y233217D01*
D02*
G37*
G36*
X429605Y234120D02*
X429629Y234110D01*
X429662Y234101D01*
X429703Y234093D01*
X429752Y234086D01*
X429875Y234077D01*
X430122Y234071D01*
Y233071D01*
X430032Y233071D01*
X429703Y233050D01*
X429662Y233042D01*
X429629Y233033D01*
X429605Y233023D01*
X429589Y233011D01*
Y234131D01*
X429605Y234120D01*
D02*
G37*
G36*
X389926Y234823D02*
X389843Y234758D01*
X389769Y234669D01*
X389705Y234555D01*
X389651Y234417D01*
X389607Y234254D01*
X389572Y234066D01*
X389548Y233853D01*
X389533Y233616D01*
X389528Y233354D01*
X388528Y232798D01*
X388523Y233109D01*
X388484Y233625D01*
X388450Y233829D01*
X388405Y233998D01*
X388351Y234131D01*
X388287Y234228D01*
X388214Y234290D01*
X388130Y234316D01*
X388037Y234306D01*
X390020Y234863D01*
X389926Y234823D01*
D02*
G37*
G36*
X437861Y234454D02*
X437891Y234374D01*
X437941Y234303D01*
X438011Y234241D01*
X438101Y234189D01*
X438211Y234147D01*
X438341Y234114D01*
X438491Y234090D01*
X438661Y234076D01*
X438851Y234071D01*
Y233071D01*
X438661Y233067D01*
X438491Y233052D01*
X438341Y233029D01*
X438211Y232996D01*
X438101Y232953D01*
X438011Y232901D01*
X437941Y232840D01*
X437891Y232769D01*
X437861Y232689D01*
X437851Y232599D01*
Y234544D01*
X437861Y234454D01*
D02*
G37*
G36*
X432954Y232599D02*
X432944Y232689D01*
X432914Y232769D01*
X432864Y232840D01*
X432794Y232901D01*
X432704Y232953D01*
X432594Y232996D01*
X432464Y233029D01*
X432314Y233052D01*
X432144Y233067D01*
X431954Y233071D01*
Y234071D01*
X432144Y234076D01*
X432314Y234090D01*
X432464Y234114D01*
X432594Y234147D01*
X432704Y234189D01*
X432794Y234241D01*
X432864Y234303D01*
X432914Y234374D01*
X432944Y234454D01*
X432954Y234544D01*
Y232599D01*
D02*
G37*
G36*
X418314Y234631D02*
X418355Y234540D01*
X418424Y234427D01*
X418446Y234396D01*
X418776Y234626D01*
X418710Y234561D01*
X418674Y234478D01*
X418669Y234379D01*
X418694Y234263D01*
X418751Y234130D01*
X418838Y233980D01*
X418956Y233813D01*
X419105Y233630D01*
X419461Y233249D01*
X419680Y233027D01*
X418973Y232320D01*
X418708Y232582D01*
X417827Y233354D01*
X417682Y233437D01*
X417547Y233496D01*
X417423Y233529D01*
X417311Y233537D01*
X417212Y233518D01*
X417124Y233474D01*
X417405Y233670D01*
X417369Y233686D01*
X417299Y233700D01*
X418300Y234701D01*
X418314Y234631D01*
D02*
G37*
G36*
X486387Y233049D02*
X486412Y233038D01*
X486444Y233029D01*
X486485Y233022D01*
X486534Y233015D01*
X486657Y233005D01*
X486904Y233000D01*
Y232000D01*
X486814Y231999D01*
X486485Y231978D01*
X486444Y231971D01*
X486412Y231962D01*
X486387Y231951D01*
X486371Y231940D01*
Y233060D01*
X486387Y233049D01*
D02*
G37*
G36*
X564817Y236093D02*
X565052Y235949D01*
X565328Y235822D01*
X565647Y235714D01*
X566009Y235623D01*
X566413Y235549D01*
X566859Y235493D01*
X567880Y235435D01*
X568454Y235432D01*
X564741Y231719D01*
X564738Y232293D01*
X564680Y233314D01*
X564624Y233760D01*
X564550Y234164D01*
X564459Y234526D01*
X564351Y234845D01*
X564224Y235121D01*
X564080Y235356D01*
X563918Y235547D01*
X564626Y236255D01*
X564817Y236093D01*
D02*
G37*
G36*
X375920Y232177D02*
X375969Y232167D01*
X376248Y231889D01*
X376332Y231463D01*
X376574Y231101D01*
X376935Y230860D01*
X377361Y230775D01*
X377640Y230497D01*
X377724Y230071D01*
X377966Y229709D01*
X378327Y229468D01*
X378753Y229383D01*
X379031Y229105D01*
X379116Y228679D01*
X379358Y228317D01*
X379652Y228121D01*
X379750Y227846D01*
X379790Y227552D01*
X377800Y225562D01*
Y224578D01*
X378437Y223905D01*
X378373Y223841D01*
X378154Y223595D01*
X378131Y223561D01*
X378114Y223533D01*
X378103Y223509D01*
X378100Y223491D01*
X377317Y223483D01*
X377317Y223500D01*
X377300D01*
Y223483D01*
X377317Y223483D01*
X377309Y222700D01*
X377291Y222696D01*
X377267Y222686D01*
X377239Y222669D01*
X377205Y222646D01*
X376959Y222427D01*
X376895Y222363D01*
X376222Y223000D01*
X375238D01*
X372361Y220123D01*
X372300Y220135D01*
X371598Y219996D01*
X371002Y219598D01*
X370885Y219422D01*
X366615D01*
X366498Y219598D01*
X365902Y219996D01*
X365700Y220036D01*
Y218790D01*
X365771Y218860D01*
X365787Y218849D01*
X365811Y218838D01*
X365844Y218829D01*
X365885Y218822D01*
X365934Y218815D01*
X366057Y218805D01*
X366304Y218800D01*
Y217800D01*
X366214Y217799D01*
X365885Y217778D01*
X365844Y217771D01*
X365811Y217762D01*
X365787Y217751D01*
X365771Y217740D01*
X365200Y218300D01*
X364629Y217740D01*
X364613Y217751D01*
X364588Y217762D01*
X364556Y217771D01*
X364515Y217778D01*
X364186Y217799D01*
X364095Y217800D01*
Y218800D01*
X364343Y218805D01*
X364466Y218815D01*
X364515Y218822D01*
X364556Y218829D01*
X364588Y218838D01*
X364613Y218849D01*
X364629Y218860D01*
X364700Y218790D01*
Y220036D01*
X364498Y219996D01*
X363902Y219598D01*
X363785Y219422D01*
X360976D01*
X360825Y219921D01*
X360891Y219966D01*
X361132Y220327D01*
X361217Y220753D01*
X361495Y221031D01*
X361921Y221116D01*
X362283Y221358D01*
X362505Y221690D01*
X362539Y221727D01*
X362891Y221909D01*
X363079Y221947D01*
X363424Y221878D01*
X363424Y221879D01*
X365400D01*
X365400Y221878D01*
X365829Y221964D01*
X366193Y222207D01*
X367657Y223671D01*
X367722Y223696D01*
X367887Y223855D01*
X367954Y223912D01*
X367963Y223919D01*
X367969Y223922D01*
X367970Y223923D01*
X367975Y223927D01*
X368246Y223981D01*
X368709Y224291D01*
X369019Y224754D01*
X369127Y225300D01*
X369019Y225846D01*
X368709Y226309D01*
X368246Y226619D01*
X368228Y226622D01*
X368017Y227174D01*
X368092Y227287D01*
X368177Y227713D01*
X368455Y227991D01*
X368881Y228076D01*
X369242Y228317D01*
X369484Y228679D01*
X369568Y229105D01*
X369847Y229383D01*
X370273Y229468D01*
X370634Y229709D01*
X370864Y230053D01*
X370882Y230075D01*
X371298Y230364D01*
X371727Y230278D01*
X373156D01*
X373156Y230278D01*
X373585Y230364D01*
X373949Y230607D01*
X375170Y231828D01*
X375170Y231828D01*
X375413Y232192D01*
X375920Y232177D01*
D02*
G37*
G36*
X488765Y232524D02*
X489133Y232207D01*
X489293Y232091D01*
X489436Y232005D01*
X489564Y231948D01*
X489675Y231919D01*
X489770Y231920D01*
X489848Y231949D01*
X489911Y232008D01*
X489221Y231081D01*
X489970Y230087D01*
X489902Y230151D01*
X489818Y230185D01*
X489718Y230189D01*
X489601Y230162D01*
X489467Y230105D01*
X489318Y230018D01*
X489152Y229901D01*
X488970Y229754D01*
X488556Y229368D01*
X488046Y230272D01*
X488236Y230469D01*
X488538Y230827D01*
X488650Y230987D01*
X488685Y231049D01*
X488636Y231131D01*
X488526Y231285D01*
X488391Y231452D01*
X488046Y231823D01*
X488556Y232727D01*
X488765Y232524D01*
D02*
G37*
G36*
X429657Y229803D02*
X429476Y229614D01*
X429186Y229269D01*
X429077Y229112D01*
X428993Y228965D01*
X428933Y228829D01*
X428898Y228703D01*
X428887Y228588D01*
X428900Y228483D01*
X428938Y228389D01*
X427930Y230185D01*
X427989Y230112D01*
X428066Y230071D01*
X428162Y230062D01*
X428276Y230086D01*
X428408Y230142D01*
X428559Y230230D01*
X428728Y230350D01*
X428915Y230502D01*
X429344Y230904D01*
X429657Y229803D01*
D02*
G37*
G36*
X493794Y230065D02*
X493748Y230035D01*
X493706Y229985D01*
X493671Y229915D01*
X493640Y229825D01*
X493615Y229715D01*
X493596Y229585D01*
X493582Y229435D01*
X493571Y229075D01*
X492571D01*
X492569Y229265D01*
X492547Y229585D01*
X492527Y229715D01*
X492502Y229825D01*
X492472Y229915D01*
X492436Y229985D01*
X492395Y230035D01*
X492348Y230065D01*
X492296Y230075D01*
X493847D01*
X493794Y230065D01*
D02*
G37*
G36*
X464221Y229930D02*
X464220Y229898D01*
X464216Y228931D01*
X463216D01*
X463209Y229942D01*
X464222D01*
X464221Y229930D01*
D02*
G37*
G36*
X424262Y226336D02*
X424251Y226479D01*
X424219Y226629D01*
X424165Y226787D01*
X424090Y226953D01*
X423994Y227126D01*
X423876Y227306D01*
X423736Y227494D01*
X423393Y227893D01*
X423189Y228104D01*
X423543Y229164D01*
X423679Y229035D01*
X423802Y228934D01*
X423909Y228862D01*
X424003Y228819D01*
X424082Y228805D01*
X424147Y228819D01*
X424197Y228862D01*
X424233Y228934D01*
X424255Y229035D01*
X424262Y229164D01*
Y226336D01*
D02*
G37*
G36*
X493572Y228730D02*
X493622Y227960D01*
X493636Y227930D01*
X493650Y227920D01*
X492100D01*
X492189Y227930D01*
X492270Y227960D01*
X492340Y228010D01*
X492402Y228080D01*
X492453Y228170D01*
X492496Y228280D01*
X492529Y228410D01*
X492553Y228560D01*
X492567Y228730D01*
X492571Y228920D01*
X493571D01*
X493572Y228730D01*
D02*
G37*
G36*
X451870Y228432D02*
X451902Y228431D01*
X452869Y228427D01*
Y227427D01*
X451858Y227420D01*
Y228434D01*
X451870Y228432D01*
D02*
G37*
G36*
X436218Y229442D02*
X436599Y229117D01*
X436765Y229000D01*
X436914Y228913D01*
X437048Y228856D01*
X437165Y228830D01*
X437265Y228833D01*
X437350Y228867D01*
X437417Y228931D01*
X436212Y227332D01*
X436259Y227418D01*
X436279Y227516D01*
X436273Y227626D01*
X436240Y227749D01*
X436182Y227884D01*
X436097Y228032D01*
X435985Y228192D01*
X435847Y228364D01*
X435493Y228746D01*
X436003Y229650D01*
X436218Y229442D01*
D02*
G37*
G36*
X506092Y227229D02*
X506073Y227226D01*
X506048Y227216D01*
X506019Y227199D01*
X505985Y227176D01*
X505945Y227146D01*
X505851Y227065D01*
X505673Y226894D01*
X504965Y227602D01*
X505029Y227666D01*
X505247Y227913D01*
X505270Y227948D01*
X505287Y227977D01*
X505297Y228002D01*
X505300Y228021D01*
X506092Y227229D01*
D02*
G37*
G36*
X415562Y228358D02*
X415593Y228273D01*
X415644Y228198D01*
X415714Y228133D01*
X415805Y228078D01*
X415917Y228033D01*
X416048Y227998D01*
X416200Y227973D01*
X416372Y227958D01*
X416564Y227953D01*
Y226953D01*
X416372Y226948D01*
X416200Y226933D01*
X416048Y226908D01*
X415917Y226873D01*
X415805Y226828D01*
X415714Y226773D01*
X415644Y226708D01*
X415593Y226633D01*
X415562Y226548D01*
X415552Y226453D01*
Y228453D01*
X415562Y228358D01*
D02*
G37*
G36*
X437692Y228524D02*
X437672Y228426D01*
X437678Y228316D01*
X437711Y228193D01*
X437769Y228058D01*
X437854Y227910D01*
X437966Y227750D01*
X438103Y227578D01*
X438458Y227196D01*
X437948Y226292D01*
X437733Y226500D01*
X437352Y226825D01*
X437186Y226942D01*
X437036Y227029D01*
X436903Y227086D01*
X436786Y227113D01*
X436686Y227109D01*
X436601Y227075D01*
X436533Y227011D01*
X437739Y228610D01*
X437692Y228524D01*
D02*
G37*
G36*
X504654Y225876D02*
X504463Y225678D01*
X504162Y225321D01*
X504050Y225161D01*
X503965Y225013D01*
X503906Y224878D01*
X503874Y224755D01*
X503868Y224645D01*
X503888Y224547D01*
X503935Y224462D01*
X503171Y225474D01*
X502408Y224462D01*
X502455Y224547D01*
X502475Y224645D01*
X502469Y224755D01*
X502436Y224878D01*
X502378Y225013D01*
X502292Y225161D01*
X502181Y225321D01*
X502043Y225493D01*
X501689Y225876D01*
X502199Y226780D01*
X502414Y226572D01*
X502795Y226247D01*
X502961Y226129D01*
X503110Y226042D01*
X503171Y226016D01*
X503232Y226042D01*
X503382Y226129D01*
X503548Y226247D01*
X503730Y226394D01*
X504144Y226780D01*
X504654Y225876D01*
D02*
G37*
G36*
X434156Y226989D02*
X434109Y226959D01*
X434067Y226909D01*
X434032Y226839D01*
X434001Y226749D01*
X433977Y226639D01*
X433957Y226509D01*
X433944Y226359D01*
X433932Y225999D01*
X432933D01*
X432930Y226189D01*
X432908Y226509D01*
X432888Y226639D01*
X432864Y226749D01*
X432833Y226839D01*
X432797Y226909D01*
X432756Y226959D01*
X432709Y226989D01*
X432657Y226999D01*
X434208D01*
X434156Y226989D01*
D02*
G37*
G36*
X489971Y225987D02*
X489903Y226051D01*
X489818Y226085D01*
X489718Y226089D01*
X489601Y226062D01*
X489468Y226006D01*
X489318Y225919D01*
X489152Y225801D01*
X488970Y225654D01*
X488556Y225268D01*
X488046Y226172D01*
X488237Y226370D01*
X488538Y226727D01*
X488650Y226887D01*
X488735Y227035D01*
X488794Y227170D01*
X488826Y227293D01*
X488832Y227403D01*
X488812Y227501D01*
X488765Y227586D01*
X489971Y225987D01*
D02*
G37*
G36*
X348108Y225617D02*
X348064Y225647D01*
X348010Y225659D01*
X347945Y225653D01*
X347870Y225628D01*
X347785Y225586D01*
X347690Y225526D01*
X347584Y225448D01*
X347469Y225351D01*
X347206Y225105D01*
X346499Y225812D01*
X346632Y225948D01*
X346842Y226190D01*
X346920Y226295D01*
X346981Y226391D01*
X347023Y226476D01*
X347047Y226551D01*
X347053Y226615D01*
X347041Y226670D01*
X347011Y226714D01*
X348108Y225617D01*
D02*
G37*
G36*
X493650Y225975D02*
X493566Y225965D01*
X493469Y225933D01*
X493358Y225880D01*
X493233Y225806D01*
X493095Y225710D01*
X492779Y225456D01*
X492408Y225116D01*
X492203Y224915D01*
X491393Y225519D01*
X491606Y225739D01*
X491939Y226128D01*
X492059Y226296D01*
X492146Y226446D01*
X492202Y226579D01*
X492227Y226694D01*
X492220Y226791D01*
X492182Y226871D01*
X492112Y226933D01*
X493650Y225975D01*
D02*
G37*
G36*
X402072Y227413D02*
X402033Y227332D01*
X402016Y227243D01*
X402020Y227147D01*
X402045Y227044D01*
X402092Y226933D01*
X402161Y226815D01*
X402250Y226690D01*
X402361Y226558D01*
X402465Y226449D01*
X402548Y226368D01*
X402790Y226157D01*
X402895Y226079D01*
X402991Y226019D01*
X403076Y225977D01*
X403151Y225952D01*
X403215Y225946D01*
X403269Y225958D01*
X403314Y225988D01*
X402217Y224891D01*
X402247Y224936D01*
X402259Y224990D01*
X402253Y225054D01*
X402228Y225129D01*
X402186Y225214D01*
X402126Y225310D01*
X402048Y225415D01*
X401951Y225531D01*
X401741Y225754D01*
X401647Y225844D01*
X401515Y225955D01*
X401390Y226045D01*
X401272Y226113D01*
X401161Y226160D01*
X401058Y226185D01*
X400962Y226189D01*
X400873Y226172D01*
X400792Y226133D01*
X400717Y226073D01*
X402132Y227488D01*
X402072Y227413D01*
D02*
G37*
G36*
X433935Y225654D02*
X433957Y225334D01*
X433977Y225204D01*
X434001Y225094D01*
X434032Y225004D01*
X434067Y224934D01*
X434109Y224884D01*
X434156Y224854D01*
X434208Y224844D01*
X432657D01*
X432709Y224854D01*
X432756Y224884D01*
X432797Y224934D01*
X432833Y225004D01*
X432864Y225094D01*
X432888Y225204D01*
X432908Y225334D01*
X432921Y225484D01*
X432933Y225844D01*
X433932D01*
X433935Y225654D01*
D02*
G37*
G36*
X346834Y224733D02*
X346771Y224668D01*
X346553Y224421D01*
X346530Y224387D01*
X346513Y224357D01*
X346503Y224333D01*
X346500Y224313D01*
X345708Y225106D01*
X345727Y225109D01*
X345752Y225119D01*
X345781Y225135D01*
X345815Y225159D01*
X345855Y225189D01*
X345949Y225269D01*
X346127Y225440D01*
X346834Y224733D01*
D02*
G37*
G36*
X367692Y224500D02*
X367673Y224497D01*
X367648Y224487D01*
X367619Y224470D01*
X367585Y224447D01*
X367545Y224417D01*
X367451Y224336D01*
X367273Y224166D01*
X366565Y224873D01*
X366629Y224937D01*
X366847Y225185D01*
X366870Y225219D01*
X366887Y225248D01*
X366897Y225273D01*
X366900Y225292D01*
X367692Y224500D01*
D02*
G37*
G36*
X491011Y223723D02*
X490821Y223526D01*
X490519Y223168D01*
X490408Y223008D01*
X490373Y222948D01*
X490408Y222887D01*
X490519Y222727D01*
X490657Y222554D01*
X491011Y222172D01*
X490501Y221268D01*
X490286Y221476D01*
X489905Y221801D01*
X489739Y221919D01*
X489590Y222006D01*
X489456Y222062D01*
X489339Y222089D01*
X489239Y222085D01*
X489155Y222052D01*
X489087Y221987D01*
X489811Y222948D01*
X489087Y223908D01*
X489155Y223844D01*
X489239Y223810D01*
X489339Y223806D01*
X489456Y223833D01*
X489590Y223889D01*
X489739Y223976D01*
X489905Y224094D01*
X490087Y224241D01*
X490501Y224627D01*
X491011Y223723D01*
D02*
G37*
G36*
X494554Y223723D02*
X494364Y223525D01*
X494062Y223168D01*
X493951Y223008D01*
X493865Y222860D01*
X493807Y222725D01*
X493774Y222602D01*
X493768Y222492D01*
X493788Y222394D01*
X493835Y222308D01*
X492630Y223907D01*
X492698Y223843D01*
X492782Y223809D01*
X492882Y223806D01*
X492999Y223832D01*
X493133Y223889D01*
X493282Y223976D01*
X493448Y224093D01*
X493630Y224241D01*
X494044Y224627D01*
X494554Y223723D01*
D02*
G37*
G36*
X414119Y224711D02*
X414034Y224680D01*
X413959Y224630D01*
X413894Y224559D01*
X413839Y224468D01*
X413794Y224357D01*
X413759Y224225D01*
X413734Y224073D01*
X413719Y223901D01*
X413714Y223709D01*
X412714D01*
X412709Y223901D01*
X412694Y224073D01*
X412669Y224225D01*
X412634Y224357D01*
X412589Y224468D01*
X412534Y224559D01*
X412469Y224630D01*
X412394Y224680D01*
X412309Y224711D01*
X412214Y224721D01*
X414214D01*
X414119Y224711D01*
D02*
G37*
G36*
X483960Y224495D02*
X483992Y224494D01*
X484958Y224490D01*
Y223490D01*
X483948Y223483D01*
Y224497D01*
X483960Y224495D01*
D02*
G37*
G36*
X500548Y224118D02*
X500501Y224088D01*
X500460Y224038D01*
X500424Y223968D01*
X500394Y223878D01*
X500369Y223768D01*
X500350Y223638D01*
X500336Y223488D01*
X500325Y223128D01*
X499325D01*
X499322Y223318D01*
X499300Y223638D01*
X499281Y223768D01*
X499256Y223878D01*
X499226Y223968D01*
X499190Y224038D01*
X499149Y224088D01*
X499102Y224118D01*
X499050Y224128D01*
X500600D01*
X500548Y224118D01*
D02*
G37*
G36*
X411100Y233069D02*
X413758D01*
X413798Y233051D01*
X414799Y233030D01*
X415200Y232998D01*
Y232850D01*
X415722D01*
X415812Y232813D01*
X415902Y232850D01*
X416986D01*
X417010Y232835D01*
X417080Y232850D01*
X417400D01*
X417447Y232823D01*
X418265Y232106D01*
X418516Y231858D01*
X418583Y231831D01*
X422697Y227717D01*
X422722Y227652D01*
X422913Y227455D01*
X423229Y227088D01*
X423343Y226935D01*
X423438Y226789D01*
X423510Y226660D01*
X423561Y226548D01*
X423592Y226456D01*
X423607Y226386D01*
X423614Y226287D01*
X423638Y226241D01*
Y224097D01*
X429562D01*
Y228212D01*
X429564Y228213D01*
X429562Y228224D01*
Y228646D01*
X429574Y228672D01*
X429627Y228765D01*
X429703Y228875D01*
X429959Y229180D01*
X430125Y229352D01*
X430150Y229417D01*
X430204Y229470D01*
X430225Y229487D01*
X430225Y229492D01*
X430312Y229578D01*
X431645D01*
Y228471D01*
X433432D01*
Y227471D01*
X431645D01*
Y225987D01*
X431645Y225987D01*
Y225856D01*
X431645D01*
X431645Y225487D01*
Y224371D01*
X432727D01*
X432716Y224425D01*
X432669Y224510D01*
X432774Y224371D01*
X433432D01*
Y223497D01*
X433874Y222911D01*
X433807Y222975D01*
X433722Y223009D01*
X433622Y223013D01*
X433505Y222986D01*
X433371Y222930D01*
X433222Y222843D01*
X433056Y222725D01*
X432874Y222578D01*
X432460Y222192D01*
X431950Y223096D01*
X432140Y223293D01*
X432206Y223371D01*
X431346D01*
X429771Y221796D01*
X429309Y221987D01*
Y222393D01*
X426446D01*
Y218834D01*
X425447D01*
Y222393D01*
X424018D01*
X423851Y222555D01*
X423786Y222581D01*
X423739Y222627D01*
X423719Y222654D01*
X423712Y222654D01*
X418121Y228246D01*
X417757Y228489D01*
X417328Y228574D01*
X417327Y228574D01*
X416643D01*
X416581Y228602D01*
X416576Y228602D01*
Y231209D01*
X413714D01*
Y227453D01*
X412714D01*
Y231209D01*
X410198D01*
Y232823D01*
X410698Y233149D01*
X411100Y233069D01*
D02*
G37*
G36*
X500328Y222883D02*
X500350Y222563D01*
X500369Y222433D01*
X500394Y222323D01*
X500424Y222233D01*
X500460Y222163D01*
X500501Y222113D01*
X500548Y222083D01*
X500600Y222073D01*
X499050D01*
X499102Y222083D01*
X499149Y222113D01*
X499190Y222163D01*
X499226Y222233D01*
X499256Y222323D01*
X499281Y222433D01*
X499300Y222563D01*
X499314Y222713D01*
X499325Y223073D01*
X500325D01*
X500328Y222883D01*
D02*
G37*
G36*
X351948Y224428D02*
X351930Y224372D01*
X351930Y224301D01*
X351948Y224220D01*
X351985Y224130D01*
X352042Y224031D01*
X352117Y223922D01*
X352211Y223804D01*
X352324Y223677D01*
X352456Y223540D01*
X351764Y222849D01*
X351752Y222251D01*
X349752Y221972D01*
X349750Y222355D01*
X349667Y223737D01*
X349637Y223908D01*
X349601Y224043D01*
X349561Y224143D01*
X349517Y224208D01*
X351988Y224486D01*
X351948Y224428D01*
D02*
G37*
G36*
X504850Y221875D02*
X504660Y221678D01*
X504358Y221321D01*
X504247Y221161D01*
X504162Y221013D01*
X504103Y220878D01*
X504071Y220755D01*
X504064Y220645D01*
X504085Y220547D01*
X504131Y220461D01*
X502926Y222060D01*
X502994Y221996D01*
X503078Y221962D01*
X503179Y221958D01*
X503296Y221985D01*
X503429Y222042D01*
X503578Y222129D01*
X503744Y222246D01*
X503927Y222394D01*
X504340Y222779D01*
X504850Y221875D01*
D02*
G37*
G36*
X437699Y222889D02*
X437652Y222859D01*
X437610Y222809D01*
X437575Y222739D01*
X437544Y222649D01*
X437520Y222539D01*
X437500Y222409D01*
X437487Y222259D01*
X437475Y221899D01*
X436475D01*
X436473Y222089D01*
X436451Y222409D01*
X436431Y222539D01*
X436407Y222649D01*
X436376Y222739D01*
X436341Y222809D01*
X436299Y222859D01*
X436252Y222889D01*
X436200Y222899D01*
X437751D01*
X437699Y222889D01*
D02*
G37*
G36*
X483960Y222527D02*
X483992Y222526D01*
X484958Y222521D01*
Y221521D01*
X483948Y221515D01*
Y222528D01*
X483960Y222527D01*
D02*
G37*
G36*
X333669Y223352D02*
X333703Y223267D01*
X333759Y223192D01*
X333838Y223127D01*
X333940Y223072D01*
X334065Y223027D01*
X334212Y222992D01*
X334381Y222967D01*
X334574Y222952D01*
X334788Y222947D01*
Y221947D01*
X334574Y221942D01*
X334381Y221927D01*
X334212Y221902D01*
X334065Y221867D01*
X333940Y221822D01*
X333838Y221767D01*
X333759Y221702D01*
X333703Y221627D01*
X333669Y221542D01*
X333658Y221447D01*
Y223447D01*
X333669Y223352D01*
D02*
G37*
G36*
X368626Y239681D02*
X369027Y239372D01*
X368973Y239100D01*
X369081Y238554D01*
X369116Y238502D01*
X369085Y238356D01*
X368861Y237983D01*
X368586Y237928D01*
X368224Y237687D01*
X367983Y237326D01*
X367898Y236900D01*
X367620Y236621D01*
X367194Y236537D01*
X366832Y236295D01*
X366591Y235934D01*
X366506Y235508D01*
X366228Y235229D01*
X365802Y235144D01*
X365441Y234903D01*
X365199Y234542D01*
X365114Y234116D01*
X364836Y233837D01*
X364410Y233753D01*
X364049Y233511D01*
X363807Y233150D01*
X363722Y232724D01*
X363444Y232445D01*
X363018Y232361D01*
X362657Y232119D01*
X362415Y231758D01*
X362330Y231332D01*
X362052Y231053D01*
X361626Y230969D01*
X361265Y230727D01*
X361023Y230366D01*
X360939Y229940D01*
X360660Y229661D01*
X360234Y229577D01*
X359873Y229335D01*
X359631Y228974D01*
X359546Y228548D01*
X359268Y228270D01*
X358842Y228185D01*
X358481Y227943D01*
X358239Y227582D01*
X358155Y227156D01*
X357876Y226878D01*
X357450Y226793D01*
X357089Y226552D01*
X356847Y226190D01*
X356763Y225764D01*
X356484Y225486D01*
X356058Y225401D01*
X355697Y225160D01*
X355455Y224798D01*
X355443Y224736D01*
X355092Y224502D01*
X354510Y224386D01*
X354440Y224339D01*
X357255Y221524D01*
X356548Y220817D01*
X353640Y223726D01*
X353232Y223643D01*
X352949Y223926D01*
X352923Y223991D01*
X352815Y224103D01*
X367755Y239043D01*
X367795Y239058D01*
X368066Y239310D01*
X368328Y239520D01*
X368580Y239691D01*
X368626Y239681D01*
D02*
G37*
G36*
X402153Y222064D02*
X402141Y222010D01*
X402147Y221945D01*
X402172Y221870D01*
X402214Y221785D01*
X402274Y221690D01*
X402352Y221584D01*
X402449Y221469D01*
X402695Y221206D01*
X401988Y220499D01*
X401852Y220632D01*
X401610Y220842D01*
X401505Y220920D01*
X401409Y220981D01*
X401324Y221023D01*
X401249Y221047D01*
X401185Y221053D01*
X401130Y221041D01*
X401086Y221011D01*
X402183Y222108D01*
X402153Y222064D01*
D02*
G37*
G36*
X436879Y220719D02*
X436671Y220504D01*
X436346Y220123D01*
X436229Y219957D01*
X436142Y219807D01*
X436116Y219746D01*
X436142Y219686D01*
X436229Y219536D01*
X436346Y219370D01*
X436494Y219188D01*
X436879Y218774D01*
X435975Y218264D01*
X435778Y218454D01*
X435421Y218756D01*
X435260Y218868D01*
X435113Y218953D01*
X434978Y219011D01*
X434855Y219044D01*
X434745Y219050D01*
X434647Y219030D01*
X434561Y218983D01*
X435574Y219746D01*
X434561Y220510D01*
X434647Y220463D01*
X434745Y220443D01*
X434855Y220449D01*
X434978Y220481D01*
X435113Y220540D01*
X435260Y220625D01*
X435421Y220737D01*
X435593Y220875D01*
X435975Y221229D01*
X436879Y220719D01*
D02*
G37*
G36*
X423613Y221881D02*
X423993Y221558D01*
X424158Y221442D01*
X424308Y221356D01*
X424441Y221301D01*
X424558Y221275D01*
X424660Y221280D01*
X424745Y221316D01*
X424814Y221381D01*
X423596Y219770D01*
X423644Y219857D01*
X423665Y219955D01*
X423660Y220066D01*
X423629Y220189D01*
X423572Y220325D01*
X423488Y220472D01*
X423378Y220632D01*
X423241Y220804D01*
X423078Y220988D01*
X422889Y221184D01*
X423399Y222088D01*
X423613Y221881D01*
D02*
G37*
G36*
X451870Y220558D02*
X451902Y220557D01*
X452869Y220553D01*
Y219553D01*
X451858Y219546D01*
Y220560D01*
X451870Y220558D01*
D02*
G37*
G36*
X483960Y220558D02*
X483992Y220557D01*
X484958Y220553D01*
Y219553D01*
X483948Y219546D01*
Y220560D01*
X483960Y220558D01*
D02*
G37*
G36*
X477542Y220560D02*
Y219546D01*
X477516Y219556D01*
X477473Y219565D01*
X477410Y219573D01*
X477231Y219586D01*
X476461Y219600D01*
X476745Y220600D01*
X477542Y220560D01*
D02*
G37*
G36*
X460776Y219493D02*
X460760Y219504D01*
X460736Y219514D01*
X460703Y219523D01*
X460662Y219531D01*
X460613Y219538D01*
X460490Y219547D01*
X460243Y219553D01*
X460243Y220553D01*
X460333Y220553D01*
X460662Y220574D01*
X460703Y220582D01*
X460736Y220591D01*
X460760Y220601D01*
X460776Y220613D01*
X460776Y219493D01*
D02*
G37*
G36*
X500521Y221121D02*
X500485Y221038D01*
X500480Y220939D01*
X500506Y220823D01*
X500562Y220690D01*
X500649Y220541D01*
X500768Y220374D01*
X500917Y220190D01*
X501307Y219771D01*
X500244Y219421D01*
X500104Y219555D01*
X499839Y219782D01*
X499713Y219873D01*
X499591Y219951D01*
X499474Y220015D01*
X499362Y220064D01*
X499253Y220100D01*
X499149Y220121D01*
X499050Y220128D01*
X500588Y221186D01*
X500521Y221121D01*
D02*
G37*
G36*
X434228Y219165D02*
X434222Y219181D01*
X434204Y219194D01*
X434175Y219207D01*
X434135Y219217D01*
X434082Y219226D01*
X434019Y219233D01*
X433856Y219243D01*
X433646Y219247D01*
Y220247D01*
X433757Y220247D01*
X434082Y220267D01*
X434135Y220276D01*
X434175Y220286D01*
X434204Y220299D01*
X434222Y220312D01*
X434228Y220328D01*
Y219165D01*
D02*
G37*
G36*
X492697Y220492D02*
X492970Y220266D01*
X493103Y220174D01*
X493233Y220096D01*
X493361Y220032D01*
X493486Y219983D01*
X493609Y219948D01*
X493729Y219926D01*
X493847Y219919D01*
X492308Y218766D01*
X492372Y218834D01*
X492406Y218918D01*
X492410Y219018D01*
X492384Y219135D01*
X492327Y219268D01*
X492240Y219418D01*
X492123Y219584D01*
X491975Y219766D01*
X491589Y220180D01*
X492557Y220626D01*
X492697Y220492D01*
D02*
G37*
G36*
X326810Y223764D02*
X326873Y223342D01*
X326979Y222921D01*
X327128Y222498D01*
X327319Y222076D01*
X327552Y221653D01*
X327828Y221230D01*
X328146Y220807D01*
X328507Y220383D01*
X328910Y219959D01*
X326039Y218588D01*
X325614Y218991D01*
X325191Y219351D01*
X324767Y219669D01*
X324344Y219945D01*
X323921Y220179D01*
X323499Y220370D01*
X323077Y220518D01*
X322655Y220624D01*
X322234Y220688D01*
X321813Y220709D01*
X326788Y224185D01*
X326810Y223764D01*
D02*
G37*
G36*
X373405Y218873D02*
X373341Y218809D01*
X373159Y218596D01*
X373131Y218554D01*
X373110Y218517D01*
X373096Y218484D01*
X373089Y218456D01*
X373089Y218432D01*
X372184Y219092D01*
X372193Y219096D01*
X372208Y219107D01*
X372229Y219124D01*
X372330Y219217D01*
X372552Y219435D01*
X373405Y218873D01*
D02*
G37*
G36*
X495828Y218387D02*
X495812Y218398D01*
X495788Y218408D01*
X495756Y218418D01*
X495715Y218425D01*
X495666Y218432D01*
X495542Y218442D01*
X495295Y218447D01*
Y219447D01*
X495386Y219447D01*
X495715Y219468D01*
X495756Y219476D01*
X495788Y219485D01*
X495812Y219496D01*
X495828Y219507D01*
Y218387D01*
D02*
G37*
G36*
X394075Y220074D02*
X394036Y219992D01*
X394019Y219903D01*
X394023Y219807D01*
X394049Y219704D01*
X394095Y219594D01*
X394164Y219476D01*
X394253Y219351D01*
X394365Y219218D01*
X394497Y219079D01*
X393790Y218372D01*
X393650Y218504D01*
X393518Y218615D01*
X393393Y218705D01*
X393275Y218773D01*
X393165Y218820D01*
X393061Y218846D01*
X392965Y218850D01*
X392877Y218833D01*
X392795Y218794D01*
X392721Y218734D01*
X394135Y220148D01*
X394075Y220074D01*
D02*
G37*
G36*
X455207Y224007D02*
X455207Y224007D01*
X455571Y223764D01*
X456000Y223678D01*
X473770D01*
X473770Y223678D01*
X474078Y223740D01*
X474451Y223533D01*
X474578Y223416D01*
Y220800D01*
X474578Y220800D01*
X474664Y220371D01*
X474907Y220007D01*
X475264Y219650D01*
X474907Y219293D01*
X474664Y218929D01*
X474578Y218500D01*
X474578Y218500D01*
Y214182D01*
X474551Y214119D01*
X474546Y213890D01*
X474539Y213803D01*
X474537Y213791D01*
X474536Y213785D01*
X474536Y213783D01*
X474535Y213776D01*
X474381Y213546D01*
X474273Y213000D01*
X474381Y212454D01*
X474691Y211991D01*
X475154Y211681D01*
X475502Y211612D01*
X475728Y211386D01*
X475728Y211386D01*
X475965Y211227D01*
X476172Y210966D01*
X476201Y210611D01*
X474734Y209143D01*
X474660Y209033D01*
X474051Y208935D01*
X471386Y211600D01*
X470507D01*
X470520Y211587D01*
X469900Y211094D01*
Y209914D01*
X473821Y205993D01*
X473844Y205931D01*
X473962Y205804D01*
X474051Y205693D01*
X474098Y205623D01*
X474055Y205481D01*
X473882Y205250D01*
X473775Y205178D01*
X473558Y205221D01*
X473110Y205132D01*
X472729Y204877D01*
X472475Y204497D01*
X472386Y204048D01*
Y198954D01*
X471924Y198762D01*
X471372Y199314D01*
X471347Y199378D01*
X471215Y199517D01*
X471110Y199638D01*
X471023Y199753D01*
X470953Y199859D01*
X470898Y199957D01*
X470858Y200045D01*
X470831Y200123D01*
X470815Y200191D01*
X470807Y200252D01*
X470807Y200345D01*
X470794Y200378D01*
Y204048D01*
X470705Y204497D01*
X470450Y204877D01*
X470070Y205132D01*
X469621Y205221D01*
X469173Y205132D01*
X468993Y205012D01*
X468637Y204918D01*
X468281Y205012D01*
X468102Y205132D01*
X467653Y205221D01*
X467204Y205132D01*
X467025Y205012D01*
X466669Y204918D01*
X466312Y205012D01*
X466133Y205132D01*
X465684Y205221D01*
X465236Y205132D01*
X465056Y205012D01*
X464700Y204918D01*
X464344Y205012D01*
X464164Y205132D01*
X463716Y205221D01*
X463267Y205132D01*
X462887Y204877D01*
X462375Y205012D01*
X462196Y205132D01*
X461747Y205221D01*
X461299Y205132D01*
X461119Y205012D01*
X460763Y204918D01*
X460407Y205012D01*
X460227Y205132D01*
X459779Y205221D01*
X459330Y205132D01*
X459151Y205012D01*
X458639Y204877D01*
X458259Y205132D01*
X457810Y205221D01*
X457362Y205132D01*
X457182Y205012D01*
X456826Y204918D01*
X456470Y205012D01*
X456290Y205132D01*
X455842Y205221D01*
X455393Y205132D01*
X455214Y205012D01*
X454857Y204918D01*
X454501Y205012D01*
X454322Y205132D01*
X453873Y205221D01*
X453425Y205132D01*
X453044Y204877D01*
X452790Y204497D01*
X452701Y204048D01*
Y202017D01*
X452688Y201991D01*
X452683Y201884D01*
X452671Y201809D01*
X452650Y201728D01*
X452620Y201642D01*
X452577Y201550D01*
X452522Y201451D01*
X452454Y201347D01*
X452370Y201237D01*
X452272Y201121D01*
X452147Y200991D01*
X452122Y200927D01*
X446024Y194828D01*
X445962Y194805D01*
X445598Y194467D01*
X445460Y194358D01*
X445341Y194274D01*
X445271Y194234D01*
X444973D01*
X444899Y194253D01*
X444867Y194234D01*
X444817D01*
X444778Y194260D01*
X444715Y194247D01*
X444656Y194271D01*
X444566Y194234D01*
X444044D01*
Y194014D01*
X443819Y193998D01*
X443647Y193996D01*
X443582Y193968D01*
X441455D01*
X441263Y194430D01*
X442840Y196007D01*
X443083Y196371D01*
X443169Y196800D01*
X443169Y196800D01*
Y197789D01*
X443196Y197848D01*
X443215Y198353D01*
X443234Y198530D01*
X443260Y198674D01*
X443277Y198737D01*
X443384Y198844D01*
X443447Y198861D01*
X443469Y198901D01*
X443511Y198918D01*
X443529Y198962D01*
X443539Y198968D01*
X443553Y199013D01*
X443561Y199021D01*
X443564Y199024D01*
X443596Y199048D01*
X443915Y199375D01*
X443863Y199426D01*
Y199426D01*
X443863Y199426D01*
X443902Y199893D01*
X443933Y199926D01*
X443958Y199990D01*
X448490Y204523D01*
X448554Y204547D01*
X448685Y204672D01*
X448801Y204770D01*
X448911Y204854D01*
X449015Y204922D01*
X449114Y204977D01*
X449206Y205020D01*
X449292Y205050D01*
X449372Y205071D01*
X449448Y205083D01*
X449554Y205088D01*
X449581Y205101D01*
X451648D01*
X452097Y205190D01*
X452478Y205444D01*
X452732Y205824D01*
X452821Y206273D01*
X452732Y206722D01*
X452612Y206901D01*
X452518Y207258D01*
X452612Y207614D01*
X452732Y207793D01*
X452821Y208242D01*
X452732Y208691D01*
X452478Y209071D01*
X452612Y209582D01*
X452732Y209762D01*
X452821Y210210D01*
X452732Y210659D01*
X452612Y210838D01*
X452518Y211194D01*
X452612Y211551D01*
X452732Y211730D01*
X452821Y212179D01*
X452732Y212628D01*
X452612Y212807D01*
X452478Y213318D01*
X452732Y213699D01*
X452821Y214147D01*
X452732Y214596D01*
X452612Y214775D01*
X452518Y215131D01*
X452612Y215488D01*
X452732Y215667D01*
X452821Y216116D01*
X452732Y216564D01*
X452612Y216744D01*
X452518Y217100D01*
X452612Y217456D01*
X452732Y217636D01*
X452821Y218084D01*
X452758Y218403D01*
X452808Y218621D01*
X452816Y218633D01*
X453067Y218931D01*
X459932D01*
X460049Y218755D01*
X460645Y218357D01*
X460847Y218317D01*
Y220053D01*
Y221789D01*
X460645Y221748D01*
X460049Y221351D01*
X459932Y221174D01*
X453067D01*
X452818Y221470D01*
X452807Y221486D01*
X452758Y221703D01*
X452821Y222021D01*
X452732Y222470D01*
X452478Y222850D01*
X452612Y223362D01*
X452732Y223541D01*
X452821Y223990D01*
X452732Y224439D01*
X452612Y224618D01*
X452518Y224974D01*
X452612Y225330D01*
X452732Y225510D01*
X452776Y225731D01*
X453301Y225913D01*
X455207Y224007D01*
D02*
G37*
G36*
X493857Y219830D02*
X493887Y219749D01*
X493937Y219678D01*
X494007Y219617D01*
X494097Y219565D01*
X494207Y219523D01*
X494337Y219489D01*
X494487Y219466D01*
X494657Y219452D01*
X494847Y219447D01*
Y218447D01*
X494657Y218442D01*
X494487Y218428D01*
X494337Y218404D01*
X494207Y218371D01*
X494097Y218329D01*
X494007Y218277D01*
X493937Y218215D01*
X493887Y218145D01*
X493857Y218064D01*
X493847Y217975D01*
Y219919D01*
X493857Y219830D01*
D02*
G37*
G36*
X371729Y217740D02*
X371713Y217751D01*
X371689Y217762D01*
X371656Y217771D01*
X371615Y217778D01*
X371566Y217785D01*
X371443Y217795D01*
X371196Y217800D01*
Y218800D01*
X371286Y218801D01*
X371615Y218822D01*
X371656Y218829D01*
X371689Y218838D01*
X371713Y218849D01*
X371729Y218860D01*
Y217740D01*
D02*
G37*
G36*
X445452Y217578D02*
X445440Y217579D01*
X445408Y217580D01*
X444442Y217584D01*
Y218584D01*
X445452Y218591D01*
Y217578D01*
D02*
G37*
G36*
X413714Y217893D02*
X413715Y217802D01*
X413734Y217474D01*
X413742Y217433D01*
X413750Y217401D01*
X413759Y217377D01*
X413770Y217361D01*
X412650Y217381D01*
X412662Y217397D01*
X412673Y217422D01*
X412683Y217455D01*
X412691Y217496D01*
X412698Y217545D01*
X412708Y217668D01*
X412714Y217916D01*
X413714Y217893D01*
D02*
G37*
G36*
X344022Y218513D02*
X344379Y218212D01*
X344539Y218100D01*
X344687Y218015D01*
X344822Y217956D01*
X344945Y217924D01*
X345055Y217918D01*
X345153Y217938D01*
X345239Y217985D01*
X343640Y216779D01*
X343704Y216847D01*
X343738Y216932D01*
X343741Y217032D01*
X343715Y217149D01*
X343658Y217282D01*
X343571Y217432D01*
X343454Y217598D01*
X343306Y217780D01*
X342921Y218194D01*
X343825Y218704D01*
X344022Y218513D01*
D02*
G37*
G36*
X502414Y218672D02*
X502795Y218347D01*
X502961Y218229D01*
X503110Y218142D01*
X503244Y218085D01*
X503361Y218059D01*
X503461Y218062D01*
X503545Y218096D01*
X503613Y218161D01*
X502408Y216562D01*
X502455Y216647D01*
X502475Y216745D01*
X502469Y216855D01*
X502436Y216978D01*
X502378Y217113D01*
X502292Y217261D01*
X502181Y217421D01*
X502043Y217593D01*
X501689Y217976D01*
X502199Y218880D01*
X502414Y218672D01*
D02*
G37*
G36*
X436171Y217021D02*
X436202Y216936D01*
X436253Y216861D01*
X436324Y216796D01*
X436415Y216741D01*
X436526Y216696D01*
X436658Y216661D01*
X436809Y216636D01*
X436981Y216621D01*
X437172Y216616D01*
Y215616D01*
X436700Y215620D01*
X436879Y215428D01*
X435975Y214917D01*
X435778Y215108D01*
X435421Y215410D01*
X435260Y215521D01*
X435113Y215606D01*
X434978Y215665D01*
X434855Y215697D01*
X434745Y215703D01*
X434647Y215683D01*
X434561Y215637D01*
X436160Y216842D01*
X436096Y216774D01*
X436062Y216690D01*
X436059Y216589D01*
X436085Y216472D01*
X436142Y216339D01*
X436167Y216296D01*
X436160Y217116D01*
X436171Y217021D01*
D02*
G37*
G36*
X413988Y216641D02*
X413995Y216613D01*
X414009Y216580D01*
X414030Y216542D01*
X414058Y216500D01*
X414093Y216454D01*
X414184Y216348D01*
X414303Y216223D01*
X413447Y215666D01*
X413080Y216009D01*
X413988Y216665D01*
X413988Y216641D01*
D02*
G37*
G36*
X354470Y216766D02*
X354494Y216757D01*
X354526Y216749D01*
X354566Y216742D01*
X354673Y216731D01*
X354812Y216725D01*
X354985Y216723D01*
X355022Y215723D01*
X354932Y215722D01*
X354602Y215699D01*
X354561Y215690D01*
X354528Y215681D01*
X354503Y215669D01*
X354487Y215657D01*
X354455Y216776D01*
X354470Y216766D01*
D02*
G37*
G36*
X434228Y215625D02*
X434218Y215677D01*
X434188Y215724D01*
X434138Y215765D01*
X434068Y215801D01*
X433978Y215831D01*
X433868Y215856D01*
X433738Y215875D01*
X433588Y215889D01*
X433228Y215900D01*
Y216900D01*
X433418Y216903D01*
X433738Y216925D01*
X433868Y216944D01*
X433978Y216969D01*
X434068Y216999D01*
X434138Y217035D01*
X434188Y217076D01*
X434218Y217123D01*
X434228Y217175D01*
Y215625D01*
D02*
G37*
G36*
X483960Y216621D02*
X483992Y216620D01*
X484958Y216616D01*
Y215616D01*
X483948Y215609D01*
Y216622D01*
X483960Y216621D01*
D02*
G37*
G36*
X445452Y215609D02*
X445440Y215610D01*
X445408Y215611D01*
X444442Y215616D01*
Y216616D01*
X445452Y216622D01*
Y215609D01*
D02*
G37*
G36*
X421545Y217812D02*
X421525Y217715D01*
X421531Y217604D01*
X421563Y217481D01*
X421622Y217346D01*
X421707Y217198D01*
X421819Y217038D01*
X421956Y216866D01*
X422311Y216484D01*
X421801Y215580D01*
X421586Y215788D01*
X421205Y216113D01*
X421039Y216230D01*
X420889Y216317D01*
X420756Y216374D01*
X420639Y216401D01*
X420539Y216397D01*
X420454Y216363D01*
X420386Y216299D01*
X421592Y217898D01*
X421545Y217812D01*
D02*
G37*
G36*
X521522Y215475D02*
X521114Y215879D01*
X520351Y216559D01*
X519996Y216835D01*
X519658Y217069D01*
X519338Y217260D01*
X519036Y217409D01*
X518751Y217515D01*
X518483Y217579D01*
X518233Y217600D01*
Y218600D01*
X518483Y218621D01*
X518751Y218685D01*
X519036Y218791D01*
X519338Y218940D01*
X519658Y219131D01*
X519996Y219365D01*
X520351Y219641D01*
X521114Y220321D01*
X521522Y220725D01*
Y215475D01*
D02*
G37*
G36*
X340517Y216858D02*
X340648Y216787D01*
X340783Y216725D01*
X340922Y216671D01*
X341066Y216625D01*
X341213Y216588D01*
X341365Y216559D01*
X341521Y216538D01*
X341682Y216525D01*
X341846Y216521D01*
Y215521D01*
X341682Y215517D01*
X341521Y215505D01*
X341365Y215484D01*
X341213Y215455D01*
X341066Y215417D01*
X340922Y215372D01*
X340783Y215318D01*
X340648Y215255D01*
X340517Y215184D01*
X340390Y215105D01*
Y216937D01*
X340517Y216858D01*
D02*
G37*
G36*
X382938Y224506D02*
X383369Y224388D01*
X383534Y224142D01*
X383895Y223900D01*
X384321Y223815D01*
X384599Y223537D01*
X384684Y223111D01*
X384925Y222750D01*
X385287Y222508D01*
X385713Y222424D01*
X385991Y222145D01*
X386076Y221719D01*
X386317Y221358D01*
X386679Y221116D01*
X387105Y221031D01*
X387383Y220753D01*
X387468Y220327D01*
X387709Y219966D01*
X388071Y219724D01*
X388497Y219640D01*
X388775Y219361D01*
X388860Y218935D01*
X389101Y218574D01*
X389462Y218332D01*
X389889Y218248D01*
X390167Y217969D01*
X390252Y217543D01*
X390493Y217182D01*
X390854Y216940D01*
X391281Y216856D01*
X391707Y216940D01*
X392068Y217182D01*
X393043Y218157D01*
X393119Y218102D01*
X393218Y218020D01*
X393343Y217901D01*
X393406Y217877D01*
X393478Y217804D01*
Y214796D01*
X393406Y214723D01*
X393343Y214699D01*
X393218Y214580D01*
X393119Y214498D01*
X393043Y214443D01*
X392068Y215418D01*
X391707Y215659D01*
X391281Y215744D01*
X390854Y215659D01*
X390493Y215418D01*
X390252Y215057D01*
X390239Y214995D01*
X389889Y214760D01*
X389306Y214644D01*
X389237Y214598D01*
X392052Y211783D01*
X391345Y211076D01*
X388530Y213891D01*
X388483Y213821D01*
X388367Y213239D01*
X388133Y212888D01*
X388071Y212876D01*
X387709Y212634D01*
X387649Y212544D01*
X387033Y212453D01*
X384093Y215393D01*
X383729Y215636D01*
X383300Y215722D01*
X383300Y215722D01*
X374648D01*
X374457Y216183D01*
X382781Y224508D01*
X382938Y224506D01*
D02*
G37*
G36*
X394497Y213521D02*
X394365Y213382D01*
X394253Y213249D01*
X394164Y213124D01*
X394095Y213006D01*
X394049Y212896D01*
X394023Y212793D01*
X394019Y212697D01*
X394036Y212608D01*
X394075Y212526D01*
X394135Y212452D01*
X392721Y213866D01*
X392795Y213806D01*
X392877Y213767D01*
X392965Y213750D01*
X393061Y213754D01*
X393165Y213780D01*
X393275Y213827D01*
X393393Y213895D01*
X393518Y213985D01*
X393650Y214096D01*
X393790Y214228D01*
X394497Y213521D01*
D02*
G37*
G36*
X483960Y214653D02*
X483992Y214652D01*
X484958Y214647D01*
Y213647D01*
X483948Y213640D01*
Y214654D01*
X483960Y214653D01*
D02*
G37*
G36*
X445452Y213640D02*
X445440Y213642D01*
X445408Y213643D01*
X444442Y213647D01*
Y214647D01*
X445452Y214654D01*
Y213640D01*
D02*
G37*
G36*
X476201Y214014D02*
X476222Y213685D01*
X476229Y213644D01*
X476238Y213612D01*
X476249Y213587D01*
X476260Y213571D01*
X475140D01*
X475151Y213587D01*
X475162Y213612D01*
X475171Y213644D01*
X475178Y213685D01*
X475185Y213734D01*
X475195Y213857D01*
X475200Y214105D01*
X476200D01*
X476201Y214014D01*
D02*
G37*
G36*
X344022Y215167D02*
X344379Y214865D01*
X344539Y214754D01*
X344687Y214669D01*
X344822Y214610D01*
X344945Y214578D01*
X345055Y214571D01*
X345153Y214592D01*
X345239Y214638D01*
X343640Y213433D01*
X343704Y213501D01*
X343738Y213585D01*
X343741Y213686D01*
X343715Y213803D01*
X343658Y213936D01*
X343571Y214085D01*
X343454Y214251D01*
X343306Y214434D01*
X342921Y214847D01*
X343825Y215357D01*
X344022Y215167D01*
D02*
G37*
G36*
X437478Y214153D02*
X437500Y213833D01*
X437520Y213703D01*
X437544Y213593D01*
X437575Y213503D01*
X437610Y213433D01*
X437652Y213383D01*
X437699Y213353D01*
X437751Y213343D01*
X436200D01*
X436252Y213353D01*
X436299Y213383D01*
X436341Y213433D01*
X436376Y213503D01*
X436407Y213593D01*
X436431Y213703D01*
X436451Y213833D01*
X436464Y213983D01*
X436475Y214343D01*
X437475D01*
X437478Y214153D01*
D02*
G37*
G36*
X429004Y212916D02*
X428834Y212742D01*
X428454Y212295D01*
X428371Y212172D01*
X428310Y212062D01*
X428271Y211964D01*
X428254Y211880D01*
X428258Y211808D01*
X428285Y211749D01*
X427326Y213101D01*
X427371Y213061D01*
X427432Y213046D01*
X427509Y213056D01*
X427602Y213090D01*
X427711Y213150D01*
X427836Y213234D01*
X427976Y213343D01*
X428305Y213636D01*
X428493Y213820D01*
X429004Y212916D01*
D02*
G37*
G36*
X563405Y203017D02*
X563422Y202964D01*
X563552Y202809D01*
X563650Y202650D01*
X563746Y202440D01*
X563836Y202176D01*
X563915Y201862D01*
X563982Y201497D01*
X564033Y201090D01*
X564089Y200108D01*
X564092Y199551D01*
X564104Y199522D01*
X564104Y199517D01*
X564253Y198381D01*
X564691Y197323D01*
X565388Y196414D01*
X566297Y195717D01*
X567355Y195279D01*
X568491Y195130D01*
X569627Y195279D01*
X570685Y195717D01*
X571594Y196414D01*
X572291Y197323D01*
X572678Y198259D01*
X573178Y198160D01*
Y195791D01*
X571991Y194603D01*
X571938Y194586D01*
X571783Y194456D01*
X571624Y194358D01*
X571414Y194262D01*
X571150Y194172D01*
X570836Y194093D01*
X570471Y194026D01*
X570064Y193975D01*
X569082Y193919D01*
X568525Y193916D01*
X568496Y193904D01*
X568491Y193904D01*
X567355Y193755D01*
X566297Y193317D01*
X565388Y192620D01*
X564691Y191711D01*
X564253Y190653D01*
X564104Y189517D01*
X564104Y189512D01*
X564092Y189483D01*
X564089Y188926D01*
X564033Y187944D01*
X563982Y187537D01*
X563915Y187172D01*
X563836Y186858D01*
X563746Y186594D01*
X563650Y186384D01*
X563552Y186225D01*
X563422Y186070D01*
X563405Y186017D01*
X558609Y181222D01*
X541130D01*
X540961Y181722D01*
X541412Y182068D01*
X542140Y183016D01*
X542597Y184120D01*
X542753Y185304D01*
X542597Y186488D01*
X542140Y187592D01*
X541412Y188540D01*
X540465Y189267D01*
X539361Y189724D01*
X538176Y189880D01*
X536207D01*
X535023Y189724D01*
X533919Y189267D01*
X532972Y188540D01*
X532244Y187592D01*
X532138Y187334D01*
X532122Y187326D01*
X532059Y187305D01*
X531963Y187284D01*
X531836Y187266D01*
X531681Y187254D01*
X531484Y187249D01*
X531421Y187222D01*
X506754D01*
X506692Y187249D01*
X506521Y187253D01*
X506393Y187264D01*
X506296Y187279D01*
X506287Y187282D01*
Y187684D01*
X505766D01*
X505675Y187722D01*
X505640Y187707D01*
X505604Y187718D01*
X505543Y187684D01*
X503644D01*
X503513Y187684D01*
X503144Y188003D01*
Y188085D01*
X501857D01*
Y186100D01*
Y184116D01*
X503144D01*
Y184197D01*
X503513Y184516D01*
X503644Y184516D01*
X505543D01*
X505604Y184482D01*
X505640Y184493D01*
X505675Y184478D01*
X505766Y184516D01*
X506287D01*
Y184918D01*
X506296Y184921D01*
X506393Y184936D01*
X506521Y184947D01*
X506692Y184951D01*
X506754Y184978D01*
X531140D01*
X531161Y184964D01*
X531217Y184975D01*
X531226Y184974D01*
X531277Y184951D01*
X531461Y184946D01*
X531682Y184921D01*
X531787Y184120D01*
X532244Y183016D01*
X532972Y182068D01*
X533423Y181722D01*
X533254Y181222D01*
X487565D01*
X480569Y188217D01*
X480542Y188284D01*
X480286Y188542D01*
X479685Y189186D01*
X479436Y189488D01*
X479366Y189585D01*
X479330Y189644D01*
X479305Y189699D01*
X479289Y189715D01*
X479284Y189737D01*
Y189819D01*
X479303Y189852D01*
X479289Y189907D01*
X479309Y189961D01*
X479284Y190017D01*
Y190887D01*
X478873D01*
X478784Y190959D01*
X478959Y191456D01*
X478962Y191459D01*
X479284D01*
Y194234D01*
X478462D01*
X478429Y194253D01*
X478355Y194234D01*
X478058D01*
X477988Y194274D01*
X477875Y194352D01*
X477557Y194621D01*
X477376Y194796D01*
X477311Y194822D01*
X476056Y196077D01*
X476121Y196525D01*
X476180Y196634D01*
X476644Y196944D01*
X476925Y197364D01*
X477471Y197524D01*
X489688Y185307D01*
X489688Y185307D01*
X490052Y185064D01*
X490482Y184979D01*
X490482Y184979D01*
X499503D01*
X499566Y184951D01*
X499570Y184951D01*
Y184116D01*
X500857D01*
Y186100D01*
Y188085D01*
X499570D01*
Y187250D01*
X499566Y187250D01*
X499503Y187222D01*
X490946D01*
X477278Y200891D01*
X477253Y200954D01*
X477128Y201085D01*
X477107Y201110D01*
Y204048D01*
X476987Y204653D01*
X476810Y204918D01*
X477162Y205270D01*
X477176Y205275D01*
X477303Y205190D01*
X477752Y205101D01*
X479565D01*
X479580Y205008D01*
X479591Y204880D01*
X479596Y204708D01*
X479623Y204646D01*
Y204084D01*
X479623Y204084D01*
X479709Y203655D01*
X479952Y203291D01*
X487547Y195696D01*
X487570Y195634D01*
X487908Y195270D01*
X488018Y195132D01*
X488101Y195013D01*
X488141Y194943D01*
Y194645D01*
X488122Y194571D01*
X488141Y194539D01*
Y193716D01*
X490916D01*
Y196885D01*
X490045D01*
X489989Y196910D01*
X489936Y196889D01*
X489880Y196904D01*
X489848Y196885D01*
X489657D01*
X489551Y196960D01*
X489208Y197253D01*
X489143Y197316D01*
X489329Y197816D01*
X490916D01*
Y200985D01*
X490916D01*
X491081Y201416D01*
X491316D01*
Y201498D01*
X491684Y201816D01*
X493655D01*
X493672Y201802D01*
X493765Y201814D01*
X493852Y201778D01*
X493940Y201816D01*
X494459D01*
Y201951D01*
X494681Y201964D01*
X494853Y201966D01*
X494919Y201994D01*
X497983D01*
X498438Y201884D01*
X498438Y201494D01*
Y200522D01*
X494729D01*
X494667Y200550D01*
X494496Y200554D01*
X494368Y200565D01*
X494271Y200580D01*
X494263Y200582D01*
Y200985D01*
X493741D01*
X493650Y201022D01*
X493615Y201007D01*
X493579Y201018D01*
X493518Y200985D01*
X491488D01*
Y197816D01*
X493518D01*
X493579Y197783D01*
X493615Y197793D01*
X493650Y197779D01*
X493741Y197816D01*
X494263D01*
Y198219D01*
X494271Y198221D01*
X494368Y198236D01*
X494496Y198247D01*
X494667Y198251D01*
X494729Y198279D01*
X498925D01*
X498925Y198279D01*
X499355Y198364D01*
X499719Y198607D01*
X499773Y198661D01*
X499802Y198640D01*
X500145Y198347D01*
X500346Y198154D01*
X500411Y198128D01*
X500457Y198081D01*
X500478Y198055D01*
X500485Y198054D01*
X501231Y197307D01*
X501231Y197307D01*
X501097Y196795D01*
X501086Y196784D01*
X499093D01*
X499041Y196815D01*
X498992Y196802D01*
X498945Y196821D01*
X498857Y196784D01*
X498338D01*
Y196475D01*
X498103Y196453D01*
X497937Y196450D01*
X497873Y196422D01*
X494729D01*
X494667Y196450D01*
X494496Y196454D01*
X494368Y196465D01*
X494271Y196480D01*
X494263Y196482D01*
Y196885D01*
X493741D01*
X493650Y196922D01*
X493615Y196907D01*
X493579Y196918D01*
X493518Y196885D01*
X491488D01*
Y193716D01*
X493518D01*
X493579Y193683D01*
X493615Y193693D01*
X493650Y193679D01*
X493741Y193716D01*
X494263D01*
Y194119D01*
X494271Y194121D01*
X494368Y194136D01*
X494496Y194147D01*
X494667Y194151D01*
X494729Y194179D01*
X497870D01*
X497932Y194151D01*
X498104Y194147D01*
X498232Y194135D01*
X498327Y194120D01*
X498338Y194117D01*
Y193615D01*
X499208D01*
X499264Y193590D01*
X499318Y193611D01*
X499373Y193596D01*
X499406Y193615D01*
X499596D01*
X499702Y193540D01*
X500045Y193247D01*
X500246Y193054D01*
X500311Y193028D01*
X500357Y192981D01*
X500378Y192955D01*
X500385Y192954D01*
X501131Y192207D01*
X501131Y192207D01*
X501495Y191964D01*
X501925Y191878D01*
X501925Y191878D01*
X506518D01*
X506581Y191851D01*
X506811Y191846D01*
X506897Y191839D01*
X506909Y191837D01*
X506915Y191836D01*
X506917Y191836D01*
X506924Y191835D01*
X507154Y191681D01*
X507700Y191573D01*
X508246Y191681D01*
X508709Y191991D01*
X509019Y192454D01*
X509127Y193000D01*
X509019Y193546D01*
X508709Y194009D01*
X508246Y194319D01*
X508114Y194345D01*
X507731Y194644D01*
X507765Y194886D01*
X507827Y195200D01*
X507719Y195746D01*
X507409Y196209D01*
X507405Y196212D01*
X507307Y196879D01*
X507389Y196978D01*
X519383D01*
X519445Y196951D01*
X519618Y196946D01*
X519745Y196935D01*
X519842Y196919D01*
X519850Y196917D01*
Y193750D01*
X528550D01*
Y202450D01*
X519850D01*
Y199283D01*
X519842Y199281D01*
X519745Y199265D01*
X519618Y199254D01*
X519445Y199249D01*
X519383Y199222D01*
X517112D01*
X516943Y199722D01*
X517303Y199997D01*
X518000Y200906D01*
X518438Y201964D01*
X518587Y203100D01*
X518438Y204236D01*
X518000Y205294D01*
X517303Y206203D01*
X516394Y206900D01*
X515336Y207338D01*
X514200Y207488D01*
X513064Y207338D01*
X512006Y206900D01*
X511097Y206203D01*
X510400Y205294D01*
X509962Y204236D01*
X509812Y203100D01*
X509962Y201964D01*
X510400Y200906D01*
X511097Y199997D01*
X511457Y199722D01*
X511287Y199222D01*
X507865D01*
X507598Y199722D01*
X507619Y199753D01*
X507728Y200300D01*
X507619Y200846D01*
X507310Y201309D01*
X506847Y201619D01*
X506300Y201727D01*
X505754Y201619D01*
X505526Y201466D01*
X505264Y201450D01*
X505192Y201449D01*
X505126Y201421D01*
X505034D01*
X505020Y201424D01*
X504963Y201449D01*
X504759Y201844D01*
X504749Y201958D01*
X504841Y202076D01*
X504949Y202150D01*
X505207Y202322D01*
X510815Y207930D01*
X510868Y207947D01*
X511018Y208073D01*
X511176Y208171D01*
X511388Y208270D01*
X511655Y208364D01*
X511975Y208451D01*
X512333Y208524D01*
X513768Y208679D01*
X514330Y208702D01*
X514411Y208740D01*
X515336Y208862D01*
X516394Y209300D01*
X517303Y209998D01*
X518000Y210906D01*
X518438Y211964D01*
X518587Y213100D01*
X518438Y214236D01*
X518000Y215294D01*
X517303Y216202D01*
X516943Y216478D01*
X517112Y216979D01*
X518129D01*
X518178Y216953D01*
X518380Y216936D01*
X518561Y216893D01*
X518778Y216812D01*
X519028Y216689D01*
X519307Y216523D01*
X519611Y216311D01*
X519935Y216059D01*
X520669Y215405D01*
X521065Y215014D01*
X521095Y215001D01*
X521098Y214998D01*
X522006Y214300D01*
X523064Y213862D01*
X524200Y213713D01*
X525336Y213862D01*
X526394Y214300D01*
X527303Y214998D01*
X527778Y215618D01*
X528278Y215448D01*
Y213765D01*
X527700Y213186D01*
X527647Y213169D01*
X527492Y213039D01*
X527333Y212941D01*
X527123Y212845D01*
X526859Y212755D01*
X526545Y212676D01*
X526180Y212609D01*
X525773Y212559D01*
X524791Y212502D01*
X524234Y212499D01*
X524205Y212487D01*
X524200Y212488D01*
X523064Y212338D01*
X522006Y211900D01*
X521098Y211203D01*
X520400Y210294D01*
X519962Y209236D01*
X519812Y208100D01*
X519962Y206964D01*
X520400Y205906D01*
X521098Y204997D01*
X522006Y204300D01*
X523064Y203862D01*
X524200Y203713D01*
X525336Y203862D01*
X526394Y204300D01*
X527303Y204997D01*
X528000Y205906D01*
X528438Y206964D01*
X528587Y208100D01*
X528587Y208105D01*
X528599Y208134D01*
X528602Y208691D01*
X528658Y209673D01*
X528709Y210080D01*
X528776Y210445D01*
X528855Y210759D01*
X528945Y211023D01*
X529041Y211233D01*
X529139Y211392D01*
X529269Y211547D01*
X529286Y211600D01*
X530193Y212507D01*
X530436Y212871D01*
X530522Y213300D01*
X530522Y213300D01*
Y220600D01*
X530436Y221029D01*
X530193Y221393D01*
X530193Y221393D01*
X527843Y223743D01*
X527479Y223986D01*
X527050Y224072D01*
X527050Y224072D01*
X526917D01*
X526747Y224571D01*
X527303Y224997D01*
X528000Y225906D01*
X528438Y226964D01*
X528587Y228100D01*
X528438Y229236D01*
X528000Y230294D01*
X527303Y231203D01*
X526394Y231900D01*
X525336Y232338D01*
X524200Y232488D01*
X523064Y232338D01*
X522006Y231900D01*
X521098Y231203D01*
X520400Y230294D01*
X519962Y229236D01*
X519812Y228100D01*
X519962Y226964D01*
X520297Y226155D01*
X519873Y225872D01*
X517002Y228743D01*
X516728Y228926D01*
X516643Y229300D01*
X516647Y229494D01*
X517303Y229997D01*
X518000Y230906D01*
X518438Y231964D01*
X518587Y233100D01*
X518438Y234236D01*
X518000Y235294D01*
X517303Y236203D01*
X517038Y236405D01*
X517199Y236878D01*
X529543D01*
X563405Y203017D01*
D02*
G37*
G36*
X347437Y213171D02*
X347685Y212953D01*
X347719Y212930D01*
X347748Y212913D01*
X347773Y212903D01*
X347792Y212900D01*
X347000Y212108D01*
X346997Y212127D01*
X346987Y212152D01*
X346970Y212181D01*
X346947Y212215D01*
X346917Y212255D01*
X346836Y212349D01*
X346666Y212527D01*
X347373Y213234D01*
X347437Y213171D01*
D02*
G37*
G36*
X445452Y211672D02*
X445440Y211673D01*
X445408Y211674D01*
X444442Y211679D01*
Y212679D01*
X445452Y212685D01*
Y211672D01*
D02*
G37*
G36*
X483960Y212684D02*
X483992Y212683D01*
X484958Y212679D01*
Y211679D01*
X483948Y211672D01*
Y212685D01*
X483960Y212684D01*
D02*
G37*
G36*
X477542Y211672D02*
X477530Y211673D01*
X477498Y211674D01*
X476532Y211679D01*
Y212679D01*
X477542Y212685D01*
Y211672D01*
D02*
G37*
G36*
X416920Y213614D02*
X417300Y213291D01*
X417465Y213174D01*
X417615Y213089D01*
X417748Y213033D01*
X417866Y213008D01*
X417967Y213013D01*
X418052Y213048D01*
X418121Y213113D01*
X416903Y211502D01*
X416951Y211589D01*
X416972Y211688D01*
X416967Y211799D01*
X416936Y211922D01*
X416879Y212057D01*
X416795Y212205D01*
X416685Y212364D01*
X416548Y212536D01*
X416385Y212720D01*
X416196Y212916D01*
X416707Y213820D01*
X416920Y213614D01*
D02*
G37*
G36*
X488753Y212383D02*
X488765Y211179D01*
X488754Y211274D01*
X488723Y211359D01*
X488672Y211434D01*
X488601Y211499D01*
X488510Y211554D01*
X488398Y211599D01*
X488267Y211634D01*
X488116Y211659D01*
X487944Y211674D01*
X487753Y211679D01*
Y212679D01*
X488753Y212383D01*
D02*
G37*
G36*
X503947Y212228D02*
X503862Y212217D01*
X503765Y212185D01*
X503654Y212132D01*
X503529Y212058D01*
X503391Y211963D01*
X503075Y211708D01*
X502704Y211369D01*
X502499Y211167D01*
X501689Y211771D01*
X501903Y211992D01*
X502236Y212381D01*
X502355Y212548D01*
X502442Y212699D01*
X502498Y212831D01*
X502523Y212946D01*
X502516Y213044D01*
X502478Y213123D01*
X502408Y213186D01*
X503947Y212228D01*
D02*
G37*
G36*
X495739Y210851D02*
X495723Y210862D01*
X495699Y210872D01*
X495667Y210881D01*
X495626Y210889D01*
X495577Y210896D01*
X495453Y210905D01*
X495206Y210911D01*
Y211911D01*
X495297Y211911D01*
X495626Y211932D01*
X495667Y211940D01*
X495699Y211949D01*
X495723Y211959D01*
X495739Y211971D01*
Y210851D01*
D02*
G37*
G36*
X493857Y212293D02*
X493887Y212213D01*
X493937Y212142D01*
X494007Y212081D01*
X494097Y212029D01*
X494207Y211986D01*
X494337Y211953D01*
X494487Y211930D01*
X494657Y211915D01*
X494847Y211911D01*
Y210911D01*
X494657Y210906D01*
X494487Y210892D01*
X494337Y210868D01*
X494207Y210835D01*
X494097Y210793D01*
X494007Y210741D01*
X493937Y210679D01*
X493887Y210609D01*
X493857Y210528D01*
X493847Y210438D01*
Y212383D01*
X493857Y212293D01*
D02*
G37*
G36*
X434208Y211399D02*
X434151Y211388D01*
X434077Y211357D01*
X433988Y211304D01*
X433882Y211229D01*
X433621Y211017D01*
X433294Y210720D01*
X432903Y210338D01*
X431950Y210800D01*
X432168Y211025D01*
X432505Y211419D01*
X432625Y211588D01*
X432712Y211739D01*
X432766Y211871D01*
X432788Y211984D01*
X432777Y212080D01*
X432733Y212156D01*
X432657Y212214D01*
X434208Y211399D01*
D02*
G37*
G36*
X339237Y211976D02*
X339417Y211880D01*
X339640Y211796D01*
X339909Y211723D01*
X340222Y211662D01*
X340390Y211638D01*
Y211937D01*
X340517Y211858D01*
X340648Y211787D01*
X340783Y211725D01*
X340922Y211671D01*
X341066Y211625D01*
X341213Y211588D01*
X341365Y211559D01*
X341487Y211543D01*
X342457Y211521D01*
Y210521D01*
X341921Y210516D01*
X341256Y210463D01*
X341213Y210455D01*
X341066Y210417D01*
X340922Y210372D01*
X340783Y210317D01*
X340648Y210255D01*
X340517Y210184D01*
X340390Y210105D01*
Y210394D01*
X340222Y210381D01*
X339909Y210319D01*
X339640Y210246D01*
X339417Y210162D01*
X339237Y210067D01*
X339103Y209960D01*
Y212083D01*
X339237Y211976D01*
D02*
G37*
G36*
X501307Y209976D02*
X501117Y209778D01*
X500815Y209421D01*
X500704Y209261D01*
X500619Y209113D01*
X500560Y208978D01*
X500527Y208855D01*
X500521Y208745D01*
X500542Y208647D01*
X500588Y208561D01*
X499383Y210161D01*
X499451Y210096D01*
X499535Y210063D01*
X499636Y210059D01*
X499753Y210085D01*
X499886Y210142D01*
X500035Y210229D01*
X500201Y210347D01*
X500384Y210494D01*
X500797Y210880D01*
X501307Y209976D01*
D02*
G37*
G36*
X504850Y209975D02*
X504660Y209778D01*
X504358Y209421D01*
X504247Y209261D01*
X504162Y209113D01*
X504103Y208978D01*
X504071Y208855D01*
X504064Y208745D01*
X504085Y208647D01*
X504131Y208561D01*
X502926Y210160D01*
X502994Y210096D01*
X503078Y210062D01*
X503179Y210058D01*
X503296Y210085D01*
X503429Y210142D01*
X503578Y210229D01*
X503744Y210346D01*
X503927Y210494D01*
X504340Y210879D01*
X504850Y209975D01*
D02*
G37*
G36*
X445452Y209703D02*
X445440Y209705D01*
X445408Y209706D01*
X444442Y209710D01*
Y210710D01*
X445452Y210717D01*
Y209703D01*
D02*
G37*
G36*
X490251Y210429D02*
X490205Y210399D01*
X490164Y210349D01*
X490128Y210279D01*
X490097Y210189D01*
X490073Y210079D01*
X490053Y209949D01*
X490040Y209799D01*
X490029Y209439D01*
X489029D01*
X489026Y209629D01*
X489004Y209949D01*
X488985Y210079D01*
X488960Y210189D01*
X488929Y210279D01*
X488894Y210349D01*
X488852Y210399D01*
X488805Y210429D01*
X488753Y210439D01*
X490304D01*
X490251Y210429D01*
D02*
G37*
G36*
X438458Y209147D02*
X438268Y208950D01*
X437966Y208592D01*
X437854Y208432D01*
X437769Y208285D01*
X437711Y208149D01*
X437678Y208027D01*
X437672Y207916D01*
X437692Y207818D01*
X437739Y207733D01*
X436533Y209332D01*
X436601Y209268D01*
X436686Y209234D01*
X436786Y209230D01*
X436903Y209257D01*
X437036Y209314D01*
X437186Y209401D01*
X437352Y209518D01*
X437534Y209665D01*
X437948Y210051D01*
X438458Y209147D01*
D02*
G37*
G36*
X514303Y209351D02*
X513719Y209327D01*
X512233Y209166D01*
X511825Y209083D01*
X511462Y208984D01*
X511143Y208871D01*
X510867Y208744D01*
X510636Y208601D01*
X510449Y208443D01*
X509716Y209124D01*
X509881Y209320D01*
X510026Y209556D01*
X510151Y209834D01*
X510255Y210153D01*
X510339Y210512D01*
X510403Y210912D01*
X510446Y211353D01*
X510472Y212358D01*
X510454Y212922D01*
X514303Y209351D01*
D02*
G37*
G36*
X490031Y209183D02*
X490054Y208863D01*
X490073Y208733D01*
X490098Y208623D01*
X490128Y208533D01*
X490164Y208463D01*
X490205Y208413D01*
X490252Y208383D01*
X490304Y208373D01*
X488753D01*
X488806Y208383D01*
X488852Y208413D01*
X488894Y208463D01*
X488930Y208533D01*
X488960Y208623D01*
X488985Y208733D01*
X489004Y208863D01*
X489018Y209013D01*
X489029Y209373D01*
X490029D01*
X490031Y209183D01*
D02*
G37*
G36*
X528772Y211965D02*
X528611Y211774D01*
X528467Y211540D01*
X528340Y211263D01*
X528232Y210944D01*
X528141Y210582D01*
X528067Y210178D01*
X528011Y209732D01*
X527953Y208711D01*
X527950Y208137D01*
X524237Y211850D01*
X524811Y211853D01*
X525832Y211911D01*
X526278Y211967D01*
X526682Y212041D01*
X527044Y212132D01*
X527363Y212240D01*
X527639Y212367D01*
X527874Y212511D01*
X528065Y212672D01*
X528772Y211965D01*
D02*
G37*
G36*
X396990Y209635D02*
X397122Y209524D01*
X397247Y209435D01*
X397365Y209367D01*
X397475Y209320D01*
X397579Y209294D01*
X397675Y209290D01*
X397764Y209307D01*
X397846Y209346D01*
X397920Y209405D01*
X396612Y208114D01*
X396650Y208166D01*
X396670Y208228D01*
X396670Y208299D01*
X396652Y208380D01*
X396615Y208470D01*
X396558Y208569D01*
X396483Y208678D01*
X396389Y208796D01*
X396276Y208923D01*
X396144Y209060D01*
X396851Y209767D01*
X396990Y209635D01*
D02*
G37*
G36*
X476027Y205873D02*
X475526Y205269D01*
X476027D01*
X476034Y204258D01*
X475020D01*
X475021Y204270D01*
X475022Y204302D01*
X475024Y204733D01*
X475020Y204863D01*
X474999Y205054D01*
X474963Y205240D01*
X474914Y205419D01*
X474850Y205593D01*
X474772Y205761D01*
X474680Y205923D01*
X474574Y206079D01*
X474454Y206229D01*
X474320Y206373D01*
Y207787D01*
X474454Y207663D01*
X474574Y207573D01*
X474680Y207517D01*
X474772Y207495D01*
X474850Y207507D01*
X474914Y207554D01*
X474963Y207634D01*
X474999Y207749D01*
X475020Y207897D01*
X475027Y208080D01*
X476027Y205873D01*
D02*
G37*
G36*
X437417Y207411D02*
X437350Y207476D01*
X437265Y207509D01*
X437165Y207513D01*
X437048Y207487D01*
X436914Y207430D01*
X436765Y207343D01*
X436599Y207225D01*
X436417Y207078D01*
X436003Y206692D01*
X435493Y207596D01*
X435683Y207794D01*
X435985Y208151D01*
X436097Y208311D01*
X436182Y208459D01*
X436240Y208594D01*
X436273Y208717D01*
X436279Y208827D01*
X436259Y208925D01*
X436212Y209011D01*
X437417Y207411D01*
D02*
G37*
G36*
X434071D02*
X434003Y207476D01*
X433919Y207509D01*
X433818Y207513D01*
X433701Y207487D01*
X433568Y207430D01*
X433418Y207343D01*
X433252Y207225D01*
X433070Y207078D01*
X432657Y206692D01*
X432147Y207596D01*
X432337Y207794D01*
X432639Y208151D01*
X432750Y208311D01*
X432835Y208459D01*
X432894Y208594D01*
X432926Y208717D01*
X432932Y208827D01*
X432912Y208925D01*
X432866Y209011D01*
X434071Y207411D01*
D02*
G37*
G36*
X421555Y209751D02*
X421542Y209646D01*
X421554Y209530D01*
X421589Y209404D01*
X421649Y209268D01*
X421733Y209121D01*
X421841Y208964D01*
X421974Y208797D01*
X422130Y208620D01*
X422311Y208432D01*
X422017Y207312D01*
X421792Y207530D01*
X421398Y207868D01*
X421229Y207988D01*
X421079Y208076D01*
X420946Y208132D01*
X420833Y208155D01*
X420737Y208146D01*
X420661Y208105D01*
X420602Y208031D01*
X421592Y209846D01*
X421555Y209751D01*
D02*
G37*
G36*
X500548Y208218D02*
X500501Y208188D01*
X500460Y208138D01*
X500424Y208068D01*
X500394Y207978D01*
X500369Y207868D01*
X500350Y207738D01*
X500336Y207588D01*
X500325Y207228D01*
X499325D01*
X499322Y207418D01*
X499300Y207738D01*
X499281Y207868D01*
X499256Y207978D01*
X499226Y208068D01*
X499190Y208138D01*
X499149Y208188D01*
X499102Y208218D01*
X499050Y208228D01*
X500600D01*
X500548Y208218D01*
D02*
G37*
G36*
X500328Y206982D02*
X500350Y206662D01*
X500369Y206532D01*
X500394Y206422D01*
X500424Y206332D01*
X500460Y206262D01*
X500501Y206212D01*
X500548Y206182D01*
X500600Y206172D01*
X499050D01*
X499102Y206182D01*
X499149Y206212D01*
X499190Y206262D01*
X499226Y206332D01*
X499256Y206422D01*
X499281Y206532D01*
X499300Y206662D01*
X499314Y206812D01*
X499325Y207172D01*
X500325D01*
X500328Y206982D01*
D02*
G37*
G36*
X347250Y206118D02*
X347235Y206130D01*
X347210Y206140D01*
X347178Y206149D01*
X347137Y206157D01*
X347088Y206163D01*
X346964Y206173D01*
X346717Y206178D01*
Y207178D01*
X346808Y207179D01*
X347137Y207200D01*
X347178Y207208D01*
X347210Y207217D01*
X347235Y207227D01*
X347250Y207238D01*
Y206118D01*
D02*
G37*
G36*
X504654Y205975D02*
X504463Y205778D01*
X504162Y205420D01*
X504050Y205260D01*
X503965Y205113D01*
X503906Y204977D01*
X503874Y204855D01*
X503868Y204744D01*
X503888Y204646D01*
X503935Y204561D01*
X502729Y206160D01*
X502797Y206096D01*
X502881Y206062D01*
X502982Y206058D01*
X503099Y206085D01*
X503232Y206141D01*
X503382Y206229D01*
X503548Y206346D01*
X503730Y206493D01*
X504144Y206879D01*
X504654Y205975D01*
D02*
G37*
G36*
X345582Y207401D02*
X345612Y207355D01*
X345662Y207313D01*
X345732Y207277D01*
X345822Y207247D01*
X345932Y207222D01*
X346062Y207203D01*
X346212Y207189D01*
X346572Y207178D01*
Y206178D01*
X346382Y206175D01*
X346062Y206153D01*
X345932Y206134D01*
X345822Y206109D01*
X345732Y206079D01*
X345662Y206043D01*
X345612Y206002D01*
X345582Y205955D01*
X345572Y205903D01*
Y207454D01*
X345582Y207401D01*
D02*
G37*
G36*
X432135Y206170D02*
X432071Y206105D01*
X431853Y205858D01*
X431830Y205824D01*
X431813Y205794D01*
X431803Y205770D01*
X431800Y205751D01*
X431008Y206543D01*
X431027Y206546D01*
X431052Y206556D01*
X431081Y206572D01*
X431115Y206596D01*
X431155Y206626D01*
X431249Y206706D01*
X431427Y206877D01*
X432135Y206170D01*
D02*
G37*
G36*
X343627Y205903D02*
X343617Y205830D01*
X343587Y205766D01*
X343537Y205708D01*
X343467Y205659D01*
X343377Y205617D01*
X343267Y205582D01*
X343137Y205556D01*
X342987Y205537D01*
X342817Y205525D01*
X342627Y205521D01*
Y206521D01*
X342819Y206526D01*
X342990Y206541D01*
X343141Y206566D01*
X343272Y206601D01*
X343384Y206646D01*
X343475Y206701D01*
X343546Y206766D01*
X343597Y206841D01*
X343628Y206926D01*
X343639Y207021D01*
X343627Y205903D01*
D02*
G37*
G36*
X493598Y206418D02*
X493551Y206388D01*
X493510Y206338D01*
X493474Y206268D01*
X493444Y206178D01*
X493419Y206068D01*
X493400Y205938D01*
X493386Y205788D01*
X493375Y205428D01*
X492375D01*
X492372Y205618D01*
X492350Y205938D01*
X492331Y206068D01*
X492306Y206178D01*
X492276Y206268D01*
X492240Y206338D01*
X492199Y206388D01*
X492152Y206418D01*
X492100Y206428D01*
X493650D01*
X493598Y206418D01*
D02*
G37*
G36*
X404329Y205187D02*
X404313Y205199D01*
X404288Y205209D01*
X404256Y205218D01*
X404215Y205226D01*
X404166Y205232D01*
X404043Y205242D01*
X403795Y205247D01*
Y206247D01*
X403886Y206248D01*
X404215Y206269D01*
X404256Y206277D01*
X404288Y206286D01*
X404313Y206296D01*
X404329Y206307D01*
Y205187D01*
D02*
G37*
G36*
X340517Y206858D02*
X340648Y206787D01*
X340783Y206725D01*
X340922Y206671D01*
X341066Y206625D01*
X341213Y206588D01*
X341365Y206559D01*
X341521Y206538D01*
X341682Y206525D01*
X341846Y206521D01*
Y205521D01*
X341682Y205517D01*
X341521Y205505D01*
X341365Y205484D01*
X341213Y205455D01*
X341066Y205417D01*
X340922Y205372D01*
X340783Y205317D01*
X340648Y205255D01*
X340517Y205184D01*
X340390Y205105D01*
Y206937D01*
X340517Y206858D01*
D02*
G37*
G36*
X449381Y205730D02*
X449242Y205708D01*
X449102Y205672D01*
X448961Y205622D01*
X448820Y205557D01*
X448678Y205478D01*
X448536Y205384D01*
X448393Y205276D01*
X448250Y205154D01*
X448107Y205018D01*
X446692D01*
X446822Y205154D01*
X446922Y205276D01*
X446994Y205384D01*
X447038Y205478D01*
X447052Y205557D01*
X447038Y205622D01*
X446994Y205672D01*
X446922Y205708D01*
X446822Y205730D01*
X446692Y205737D01*
X449521D01*
X449381Y205730D01*
D02*
G37*
G36*
X481650Y205727D02*
X481565Y205696D01*
X481490Y205646D01*
X481425Y205575D01*
X481370Y205484D01*
X481325Y205372D01*
X481290Y205241D01*
X481265Y205089D01*
X481250Y204917D01*
X481245Y204725D01*
X480245D01*
X480240Y204917D01*
X480225Y205089D01*
X480200Y205241D01*
X480165Y205372D01*
X480120Y205484D01*
X480065Y205575D01*
X480000Y205646D01*
X479925Y205696D01*
X479840Y205727D01*
X479745Y205737D01*
X481745D01*
X481650Y205727D01*
D02*
G37*
G36*
X412065Y223692D02*
X412093Y223630D01*
Y218225D01*
X411902Y218098D01*
X411504Y217502D01*
X411464Y217300D01*
X413200D01*
Y216300D01*
X411464D01*
X411504Y216098D01*
X411902Y215502D01*
X412498Y215104D01*
X413200Y214965D01*
X413257Y214976D01*
X415703Y212530D01*
X415729Y212466D01*
X415891Y212297D01*
Y211066D01*
X419253D01*
Y210566D01*
X419754D01*
Y207007D01*
X421398D01*
X421565Y206846D01*
X421630Y206820D01*
X422335Y206114D01*
X422336Y206114D01*
X422699Y205871D01*
X423129Y205785D01*
X428764D01*
X428764Y205785D01*
X429084Y205849D01*
X429174Y205830D01*
X429441Y205680D01*
X429611Y205549D01*
X429681Y205196D01*
X429802Y205016D01*
X429534Y204516D01*
X406773D01*
X406537Y204957D01*
X406596Y205045D01*
X406636Y205247D01*
X404900D01*
Y205747D01*
X404400D01*
Y207483D01*
X404198Y207443D01*
X403602Y207045D01*
X403485Y206869D01*
X402407D01*
X402402Y206873D01*
X402368Y206869D01*
X402311D01*
X402250Y206896D01*
X402210Y206898D01*
X401587Y206275D01*
X401663Y206267D01*
X402228Y206247D01*
X401949Y205247D01*
X401675Y205242D01*
X401209Y205203D01*
X401017Y205169D01*
X400852Y205124D01*
X400715Y205070D01*
X400606Y205006D01*
X400523Y204933D01*
X400468Y204849D01*
X400441Y204756D01*
X400552Y205548D01*
X400153Y205947D01*
X399986Y204756D01*
X399984Y204849D01*
X399948Y204933D01*
X399880Y205006D01*
X399778Y205070D01*
X399644Y205124D01*
X399476Y205169D01*
X399276Y205203D01*
X399043Y205228D01*
X398478Y205247D01*
X398756Y206247D01*
X399030Y206252D01*
X399497Y206292D01*
X399689Y206326D01*
X399853Y206370D01*
X399990Y206424D01*
X400100Y206488D01*
X400182Y206562D01*
X400237Y206645D01*
X400265Y206739D01*
X400204Y206305D01*
X401402Y207504D01*
X400758Y208149D01*
X400721Y208819D01*
X409720Y217818D01*
X410074Y218348D01*
X410198Y218972D01*
Y223697D01*
X412065D01*
X412065Y223692D01*
D02*
G37*
G36*
X493380Y205182D02*
X493394Y205012D01*
X493418Y204862D01*
X493451Y204732D01*
X493493Y204622D01*
X493545Y204532D01*
X493606Y204462D01*
X493677Y204412D01*
X493757Y204382D01*
X493847Y204372D01*
X492296D01*
X492311Y204382D01*
X492325Y204412D01*
X492337Y204462D01*
X492347Y204532D01*
X492362Y204732D01*
X492374Y205182D01*
X492375Y205372D01*
X493375D01*
X493380Y205182D01*
D02*
G37*
G36*
X318780Y205042D02*
X318644Y205038D01*
X318507Y205019D01*
X318369Y204985D01*
X318229Y204935D01*
X318088Y204871D01*
X317946Y204792D01*
X317803Y204697D01*
X317659Y204587D01*
X317513Y204463D01*
X317366Y204323D01*
X315952D01*
X316092Y204470D01*
X316202Y204602D01*
X316283Y204719D01*
X316335Y204821D01*
X316357Y204907D01*
X316350Y204979D01*
X316313Y205035D01*
X316247Y205077D01*
X316152Y205103D01*
X316027Y205114D01*
X318780Y205042D01*
D02*
G37*
G36*
X391413Y204071D02*
X391660Y203853D01*
X391695Y203830D01*
X391724Y203813D01*
X391748Y203803D01*
X391768Y203800D01*
X390976Y203008D01*
X390973Y203027D01*
X390963Y203052D01*
X390946Y203081D01*
X390923Y203115D01*
X390893Y203155D01*
X390812Y203249D01*
X390641Y203427D01*
X391348Y204134D01*
X391413Y204071D01*
D02*
G37*
G36*
X488771Y204872D02*
X489152Y204546D01*
X489318Y204429D01*
X489468Y204342D01*
X489601Y204285D01*
X489718Y204259D01*
X489818Y204262D01*
X489903Y204296D01*
X489971Y204361D01*
X488765Y202762D01*
X488812Y202847D01*
X488832Y202945D01*
X488826Y203055D01*
X488794Y203178D01*
X488735Y203313D01*
X488650Y203461D01*
X488538Y203621D01*
X488401Y203793D01*
X488046Y204176D01*
X488556Y205080D01*
X488771Y204872D01*
D02*
G37*
G36*
X345565Y203618D02*
X345582Y203608D01*
X345611Y203600D01*
X345651Y203592D01*
X345702Y203586D01*
X345838Y203577D01*
X346128Y203572D01*
Y202572D01*
X346020Y202572D01*
X345611Y202545D01*
X345582Y202536D01*
X345565Y202527D01*
X345560Y202516D01*
Y203628D01*
X345565Y203618D01*
D02*
G37*
G36*
X493846Y204020D02*
X493877Y203935D01*
X493928Y203860D01*
X493999Y203795D01*
X494090Y203740D01*
X494201Y203695D01*
X494332Y203660D01*
X494484Y203635D01*
X494655Y203620D01*
X494847Y203615D01*
Y202615D01*
X494657Y202614D01*
X494207Y202585D01*
X494097Y202569D01*
X494007Y202548D01*
X493937Y202523D01*
X493887Y202495D01*
X493857Y202463D01*
X493847Y202428D01*
X493835Y204115D01*
X493846Y204020D01*
D02*
G37*
G36*
X345238Y202309D02*
X345153Y202356D01*
X345055Y202376D01*
X344944Y202370D01*
X344822Y202337D01*
X344687Y202278D01*
X344539Y202193D01*
X344379Y202082D01*
X344206Y201944D01*
X343824Y201590D01*
X342920Y202100D01*
X343128Y202315D01*
X343453Y202696D01*
X343570Y202862D01*
X343657Y203011D01*
X343714Y203145D01*
X343741Y203261D01*
X343737Y203362D01*
X343703Y203446D01*
X343639Y203514D01*
X345238Y202309D01*
D02*
G37*
G36*
X334556Y207321D02*
X334205Y206796D01*
X334150Y206521D01*
X338042D01*
Y206021D01*
X338543D01*
Y203998D01*
X340011D01*
X340785Y204152D01*
X341442Y204591D01*
X341622Y204861D01*
X341715Y204868D01*
X341863Y204872D01*
X341925Y204900D01*
X342560D01*
X342627Y204872D01*
X342962Y204549D01*
X342971Y204527D01*
X343015Y204386D01*
Y203589D01*
X342990Y203533D01*
X343010Y203479D01*
X342996Y203424D01*
X343015Y203392D01*
Y203201D01*
X342940Y203095D01*
X342647Y202752D01*
X342453Y202552D01*
X342428Y202487D01*
X342381Y202440D01*
X342354Y202419D01*
X342095Y202238D01*
X341595Y202396D01*
Y202606D01*
X341074D01*
X340983Y202643D01*
X340948Y202628D01*
X340911Y202639D01*
X340851Y202606D01*
X334490D01*
Y199437D01*
X340851D01*
X340911Y199404D01*
X340948Y199414D01*
X340983Y199400D01*
X341074Y199437D01*
X341595D01*
Y199840D01*
X341604Y199842D01*
X341701Y199857D01*
X341828Y199868D01*
X341999Y199872D01*
X342062Y199900D01*
X342412D01*
X342615Y199582D01*
X342651Y199410D01*
X342647Y199406D01*
X342453Y199205D01*
X342428Y199140D01*
X342381Y199094D01*
X342354Y199073D01*
X342354Y199066D01*
X339035Y195747D01*
X335266D01*
X335204Y195775D01*
X335006Y195779D01*
X334854Y195791D01*
X334801Y195799D01*
Y195801D01*
X334517Y196084D01*
X334517Y196085D01*
X334516Y196085D01*
X333626Y196976D01*
X329776D01*
X328601Y195801D01*
Y195095D01*
X328586Y195089D01*
X328100Y195007D01*
X328002Y195287D01*
X327911Y195649D01*
X327857Y196008D01*
X327837Y196396D01*
X327800Y196474D01*
Y196976D01*
X327345D01*
X327302Y197003D01*
X327296Y197002D01*
X327291Y197005D01*
X327219Y197016D01*
X327199Y197037D01*
X327138Y197136D01*
X327064Y197320D01*
X326993Y197585D01*
X326934Y197917D01*
X326859Y198826D01*
X326850Y199375D01*
X326842Y199394D01*
Y200314D01*
X334168Y207639D01*
X334556Y207321D01*
D02*
G37*
G36*
X351766Y207568D02*
X351809Y207185D01*
X351880Y206815D01*
X351979Y206456D01*
X352106Y206108D01*
X352261Y205773D01*
X352445Y205449D01*
X352657Y205137D01*
X352898Y204836D01*
X353167Y204548D01*
Y201719D01*
X352898Y201968D01*
X352657Y202148D01*
X352445Y202260D01*
X352261Y202304D01*
X352106Y202280D01*
X351979Y202187D01*
X351880Y202026D01*
X351809Y201797D01*
X351766Y201499D01*
X351752Y201133D01*
X349752Y205548D01*
X351752Y207962D01*
X351766Y207568D01*
D02*
G37*
G36*
X347437Y202471D02*
X347685Y202253D01*
X347719Y202230D01*
X347748Y202213D01*
X347773Y202203D01*
X347792Y202200D01*
X347000Y201408D01*
X346997Y201427D01*
X346987Y201452D01*
X346970Y201481D01*
X346947Y201515D01*
X346917Y201555D01*
X346836Y201649D01*
X346666Y201827D01*
X347373Y202535D01*
X347437Y202471D01*
D02*
G37*
G36*
X443464Y200375D02*
X443332Y200237D01*
X443129Y199988D01*
X443058Y199875D01*
X443007Y199771D01*
X442975Y199675D01*
X442964Y199588D01*
X442972Y199509D01*
X443001Y199437D01*
X443049Y199375D01*
X441687Y200720D01*
X441762Y200660D01*
X441844Y200622D01*
X441933Y200605D01*
X442029Y200609D01*
X442133Y200635D01*
X442243Y200681D01*
X442361Y200750D01*
X442486Y200839D01*
X442618Y200950D01*
X442757Y201082D01*
X443464Y200375D01*
D02*
G37*
G36*
X362935Y200052D02*
X362592Y199684D01*
X361932Y200589D01*
X361956Y200589D01*
X361984Y200596D01*
X362017Y200610D01*
X362054Y200631D01*
X362096Y200659D01*
X362143Y200694D01*
X362249Y200785D01*
X362373Y200904D01*
X362935Y200052D01*
D02*
G37*
G36*
X340993Y201904D02*
X341023Y201823D01*
X341073Y201753D01*
X341143Y201691D01*
X341233Y201639D01*
X341343Y201597D01*
X341473Y201564D01*
X341623Y201540D01*
X341793Y201526D01*
X341983Y201521D01*
Y200521D01*
X341793Y200517D01*
X341623Y200502D01*
X341473Y200479D01*
X341343Y200446D01*
X341233Y200403D01*
X341143Y200351D01*
X341073Y200290D01*
X341023Y200219D01*
X340993Y200139D01*
X340983Y200049D01*
Y201993D01*
X340993Y201904D01*
D02*
G37*
G36*
X505729Y199740D02*
X505713Y199751D01*
X505689Y199761D01*
X505656Y199770D01*
X505616Y199778D01*
X505566Y199785D01*
X505443Y199794D01*
X505196Y199800D01*
Y200800D01*
X505287Y200800D01*
X505616Y200821D01*
X505656Y200829D01*
X505689Y200838D01*
X505713Y200848D01*
X505729Y200860D01*
Y199740D01*
D02*
G37*
G36*
X564817Y203928D02*
X565052Y203784D01*
X565328Y203657D01*
X565647Y203549D01*
X566009Y203458D01*
X566413Y203384D01*
X566859Y203328D01*
X567880Y203270D01*
X568454Y203267D01*
X564741Y199555D01*
X564738Y200128D01*
X564680Y201149D01*
X564624Y201595D01*
X564550Y201999D01*
X564459Y202361D01*
X564351Y202680D01*
X564224Y202957D01*
X564080Y203191D01*
X563918Y203382D01*
X564626Y204089D01*
X564817Y203928D01*
D02*
G37*
G36*
X503957Y201182D02*
X503987Y201102D01*
X504037Y201031D01*
X504107Y200970D01*
X504197Y200918D01*
X504307Y200875D01*
X504437Y200842D01*
X504587Y200819D01*
X504757Y200804D01*
X504947Y200800D01*
Y199800D01*
X504757Y199795D01*
X504587Y199781D01*
X504437Y199757D01*
X504307Y199724D01*
X504197Y199682D01*
X504107Y199630D01*
X504037Y199568D01*
X503987Y199497D01*
X503957Y199417D01*
X503947Y199327D01*
Y201272D01*
X503957Y201182D01*
D02*
G37*
G36*
X453337Y199129D02*
X453330Y199258D01*
X453308Y199359D01*
X453272Y199431D01*
X453222Y199474D01*
X453157Y199488D01*
X453078Y199474D01*
X452984Y199431D01*
X452877Y199359D01*
X452754Y199258D01*
X452618Y199129D01*
Y200543D01*
X452754Y200686D01*
X452877Y200830D01*
X452984Y200972D01*
X453078Y201114D01*
X453157Y201256D01*
X453222Y201397D01*
X453272Y201538D01*
X453308Y201678D01*
X453330Y201818D01*
X453337Y201957D01*
Y199129D01*
D02*
G37*
G36*
X476070Y201782D02*
X476092Y201642D01*
X476128Y201502D01*
X476178Y201361D01*
X476243Y201220D01*
X476322Y201078D01*
X476416Y200936D01*
X476523Y200793D01*
X476646Y200650D01*
X476782Y200507D01*
Y199092D01*
X476646Y199222D01*
X476523Y199322D01*
X476416Y199394D01*
X476322Y199437D01*
X476243Y199452D01*
X476178Y199437D01*
X476128Y199394D01*
X476092Y199322D01*
X476070Y199222D01*
X476063Y199092D01*
Y201921D01*
X476070Y201782D01*
D02*
G37*
G36*
X319263Y200032D02*
X319178Y200002D01*
X319103Y199951D01*
X319038Y199880D01*
X318983Y199789D01*
X318937Y199678D01*
X318902Y199546D01*
X318878Y199394D01*
X318863Y199222D01*
X318858Y199030D01*
X317858D01*
X317852Y199222D01*
X317838Y199394D01*
X317812Y199546D01*
X317777Y199678D01*
X317733Y199789D01*
X317677Y199880D01*
X317613Y199951D01*
X317537Y200002D01*
X317453Y200032D01*
X317357Y200042D01*
X319357D01*
X319263Y200032D01*
D02*
G37*
G36*
X345238Y198962D02*
X345153Y199009D01*
X345055Y199029D01*
X344944Y199023D01*
X344822Y198991D01*
X344687Y198932D01*
X344539Y198847D01*
X344379Y198736D01*
X344206Y198598D01*
X343824Y198243D01*
X342920Y198754D01*
X343128Y198969D01*
X343453Y199349D01*
X343570Y199515D01*
X343657Y199665D01*
X343714Y199798D01*
X343741Y199915D01*
X343737Y200016D01*
X343703Y200100D01*
X343639Y200168D01*
X345238Y198962D01*
D02*
G37*
G36*
X488771Y200872D02*
X489152Y200547D01*
X489318Y200429D01*
X489468Y200342D01*
X489601Y200285D01*
X489718Y200259D01*
X489818Y200262D01*
X489903Y200296D01*
X489971Y200361D01*
X488765Y198761D01*
X488812Y198847D01*
X488832Y198945D01*
X488826Y199055D01*
X488794Y199178D01*
X488735Y199313D01*
X488650Y199461D01*
X488538Y199621D01*
X488401Y199793D01*
X488046Y200176D01*
X488556Y201080D01*
X488771Y200872D01*
D02*
G37*
G36*
X500542Y200853D02*
X500521Y200755D01*
X500527Y200645D01*
X500560Y200522D01*
X500619Y200387D01*
X500704Y200239D01*
X500815Y200079D01*
X500953Y199907D01*
X501307Y199524D01*
X500797Y198620D01*
X500582Y198828D01*
X500201Y199153D01*
X500035Y199271D01*
X499886Y199358D01*
X499753Y199415D01*
X499636Y199441D01*
X499535Y199437D01*
X499451Y199404D01*
X499383Y199339D01*
X500588Y200939D01*
X500542Y200853D01*
D02*
G37*
G36*
X493660Y200283D02*
X493690Y200203D01*
X493741Y200132D01*
X493811Y200070D01*
X493900Y200018D01*
X494010Y199976D01*
X494140Y199943D01*
X494290Y199919D01*
X494460Y199905D01*
X494651Y199900D01*
Y198900D01*
X494460Y198896D01*
X494290Y198881D01*
X494140Y198858D01*
X494010Y198825D01*
X493900Y198782D01*
X493811Y198730D01*
X493741Y198669D01*
X493690Y198598D01*
X493660Y198518D01*
X493650Y198428D01*
Y200373D01*
X493660Y200283D01*
D02*
G37*
G36*
X442945Y199358D02*
X442862Y199306D01*
X442788Y199226D01*
X442724Y199117D01*
X442670Y198981D01*
X442626Y198816D01*
X442591Y198622D01*
X442567Y198401D01*
X442547Y197873D01*
X441547Y197684D01*
X441542Y197979D01*
X441503Y198473D01*
X441468Y198672D01*
X441424Y198839D01*
X441370Y198973D01*
X441306Y199076D01*
X441233Y199147D01*
X441149Y199186D01*
X441056Y199192D01*
X443039Y199381D01*
X442945Y199358D01*
D02*
G37*
G36*
X470158Y200212D02*
X470174Y200078D01*
X470206Y199942D01*
X470254Y199803D01*
X470318Y199663D01*
X470398Y199520D01*
X470494Y199376D01*
X470606Y199229D01*
X470733Y199081D01*
X470877Y198930D01*
Y197516D01*
X470717Y197668D01*
X470574Y197791D01*
X470446Y197882D01*
X470335Y197944D01*
X470239Y197976D01*
X470160Y197978D01*
X470096Y197949D01*
X470048Y197890D01*
X470016Y197801D01*
X470000Y197682D01*
X470158Y200344D01*
X470158Y200212D01*
D02*
G37*
G36*
X363536Y197870D02*
X363193Y197495D01*
X362521Y198391D01*
X362544Y198391D01*
X362573Y198398D01*
X362605Y198413D01*
X362642Y198434D01*
X362684Y198462D01*
X362730Y198497D01*
X362836Y198589D01*
X362961Y198708D01*
X363536Y197870D01*
D02*
G37*
G36*
X300177Y203517D02*
X301694Y202192D01*
X302141Y201868D01*
X302560Y201603D01*
X302951Y201396D01*
X303312Y201249D01*
X303645Y201161D01*
X303948Y201132D01*
Y200132D01*
X303645Y200102D01*
X303312Y200014D01*
X302951Y199866D01*
X302560Y199660D01*
X302141Y199395D01*
X301694Y199071D01*
X300711Y198247D01*
X300177Y197746D01*
X299615Y197187D01*
Y204076D01*
X300177Y203517D01*
D02*
G37*
G36*
X520474Y197100D02*
X520464Y197195D01*
X520434Y197280D01*
X520383Y197355D01*
X520312Y197420D01*
X520221Y197475D01*
X520110Y197520D01*
X519978Y197555D01*
X519826Y197580D01*
X519654Y197595D01*
X519462Y197600D01*
Y198600D01*
X519654Y198605D01*
X519826Y198620D01*
X519978Y198645D01*
X520110Y198680D01*
X520221Y198725D01*
X520312Y198780D01*
X520383Y198845D01*
X520434Y198920D01*
X520464Y199005D01*
X520474Y199100D01*
Y197100D01*
D02*
G37*
G36*
X466190Y197840D02*
X466189Y197809D01*
X466184Y196862D01*
X465184D01*
X465177Y197852D01*
X466191D01*
X466190Y197840D01*
D02*
G37*
G36*
X464221Y197840D02*
X464220Y197808D01*
X464216Y196842D01*
X463216D01*
X463209Y197852D01*
X464222D01*
X464221Y197840D01*
D02*
G37*
G36*
X462253Y197840D02*
X462252Y197808D01*
X462247Y196842D01*
X461247D01*
X461240Y197852D01*
X462254D01*
X462253Y197840D01*
D02*
G37*
G36*
X460284D02*
X460283Y197808D01*
X460279Y196842D01*
X459279D01*
X459272Y197852D01*
X460286D01*
X460284Y197840D01*
D02*
G37*
G36*
X318858Y197071D02*
X318879Y196742D01*
X318887Y196702D01*
X318896Y196669D01*
X318906Y196645D01*
X318917Y196629D01*
X317797D01*
X317809Y196645D01*
X317819Y196669D01*
X317828Y196702D01*
X317836Y196742D01*
X317843Y196792D01*
X317852Y196915D01*
X317858Y197162D01*
X318858D01*
X318858Y197071D01*
D02*
G37*
G36*
X378148Y196465D02*
X378074Y196525D01*
X377992Y196564D01*
X377904Y196581D01*
X377807Y196577D01*
X377704Y196551D01*
X377594Y196504D01*
X377476Y196436D01*
X377351Y196347D01*
X377219Y196236D01*
X377079Y196103D01*
X376372Y196810D01*
X376504Y196950D01*
X376615Y197082D01*
X376705Y197207D01*
X376773Y197325D01*
X376820Y197435D01*
X376846Y197539D01*
X376850Y197635D01*
X376833Y197723D01*
X376794Y197805D01*
X376734Y197879D01*
X378148Y196465D01*
D02*
G37*
G36*
X326210Y198794D02*
X326289Y197834D01*
X326359Y197444D01*
X326448Y197114D01*
X326556Y196844D01*
X326685Y196634D01*
X326833Y196484D01*
X327001Y196394D01*
X327188Y196364D01*
X322213D01*
X322400Y196394D01*
X322568Y196484D01*
X322716Y196634D01*
X322845Y196844D01*
X322954Y197114D01*
X323042Y197444D01*
X323112Y197834D01*
X323161Y198284D01*
X323200Y199364D01*
X326201D01*
X326210Y198794D01*
D02*
G37*
G36*
X435887Y197049D02*
X435912Y197038D01*
X435944Y197029D01*
X435985Y197022D01*
X436034Y197015D01*
X436157Y197005D01*
X436405Y197000D01*
Y196000D01*
X436314Y195999D01*
X435985Y195978D01*
X435944Y195971D01*
X435912Y195962D01*
X435887Y195951D01*
X435871Y195940D01*
Y197060D01*
X435887Y197049D01*
D02*
G37*
G36*
X433778Y197427D02*
X433967Y196973D01*
X433873Y196500D01*
X433928Y196222D01*
X433581Y195722D01*
X401690D01*
X401462Y196000D01*
X399500D01*
Y197000D01*
X401259D01*
X401570Y197473D01*
X433753D01*
X433778Y197427D01*
D02*
G37*
G36*
X366662Y195427D02*
X366598Y195363D01*
X366381Y195115D01*
X366357Y195081D01*
X366340Y195052D01*
X366331Y195027D01*
X366327Y195008D01*
X365535Y195800D01*
X365555Y195803D01*
X365579Y195813D01*
X365609Y195830D01*
X365643Y195853D01*
X365682Y195883D01*
X365776Y195964D01*
X365955Y196134D01*
X366662Y195427D01*
D02*
G37*
G36*
X488771Y196772D02*
X489152Y196447D01*
X489318Y196329D01*
X489468Y196242D01*
X489601Y196185D01*
X489718Y196159D01*
X489818Y196162D01*
X489903Y196196D01*
X489971Y196261D01*
X488765Y194661D01*
X488812Y194747D01*
X488832Y194845D01*
X488826Y194955D01*
X488794Y195078D01*
X488735Y195213D01*
X488650Y195361D01*
X488538Y195521D01*
X488401Y195693D01*
X488046Y196076D01*
X488556Y196980D01*
X488771Y196772D01*
D02*
G37*
G36*
X505828Y194640D02*
X505812Y194651D01*
X505788Y194661D01*
X505756Y194670D01*
X505715Y194678D01*
X505666Y194685D01*
X505542Y194694D01*
X505295Y194700D01*
Y195700D01*
X505386Y195700D01*
X505715Y195721D01*
X505756Y195729D01*
X505788Y195738D01*
X505812Y195748D01*
X505828Y195760D01*
Y194640D01*
D02*
G37*
G36*
X493660Y196183D02*
X493690Y196103D01*
X493741Y196032D01*
X493811Y195970D01*
X493900Y195918D01*
X494010Y195876D01*
X494140Y195843D01*
X494290Y195819D01*
X494460Y195805D01*
X494651Y195800D01*
Y194800D01*
X494460Y194796D01*
X494290Y194781D01*
X494140Y194758D01*
X494010Y194725D01*
X493900Y194682D01*
X493811Y194630D01*
X493741Y194569D01*
X493690Y194498D01*
X493660Y194418D01*
X493650Y194328D01*
Y196273D01*
X493660Y196183D01*
D02*
G37*
G36*
X498961Y194300D02*
X498951Y194395D01*
X498920Y194480D01*
X498869Y194555D01*
X498798Y194620D01*
X498707Y194675D01*
X498596Y194720D01*
X498464Y194755D01*
X498313Y194780D01*
X498141Y194795D01*
X497950Y194800D01*
Y195800D01*
X498139Y195804D01*
X498459Y195834D01*
X498590Y195860D01*
X498700Y195893D01*
X498790Y195934D01*
X498860Y195982D01*
X498910Y196038D01*
X498940Y196101D01*
X498949Y196172D01*
X498961Y194300D01*
D02*
G37*
G36*
X503857Y196082D02*
X503887Y196002D01*
X503937Y195931D01*
X504007Y195870D01*
X504097Y195818D01*
X504207Y195775D01*
X504337Y195742D01*
X504487Y195719D01*
X504657Y195704D01*
X504847Y195700D01*
Y194700D01*
X504657Y194695D01*
X504487Y194681D01*
X504337Y194657D01*
X504207Y194624D01*
X504097Y194582D01*
X504007Y194530D01*
X503937Y194468D01*
X503887Y194397D01*
X503857Y194317D01*
X503847Y194227D01*
Y196172D01*
X503857Y196082D01*
D02*
G37*
G36*
X334069Y195531D02*
X334103Y195446D01*
X334159Y195371D01*
X334238Y195306D01*
X334340Y195251D01*
X334465Y195206D01*
X334612Y195171D01*
X334781Y195146D01*
X334974Y195131D01*
X335189Y195126D01*
Y194126D01*
X334974Y194121D01*
X334781Y194106D01*
X334612Y194081D01*
X334465Y194046D01*
X334340Y194001D01*
X334238Y193946D01*
X334159Y193881D01*
X334103Y193806D01*
X334069Y193721D01*
X334057Y193626D01*
Y195626D01*
X334069Y195531D01*
D02*
G37*
G36*
X462252Y194432D02*
X462264Y194262D01*
X462286Y194112D01*
X462315Y193982D01*
X462354Y193872D01*
X462400Y193782D01*
X462456Y193712D01*
X462519Y193662D01*
X462592Y193632D01*
X462672Y193622D01*
X460747Y193610D01*
X460842Y193621D01*
X460927Y193651D01*
X461002Y193702D01*
X461067Y193773D01*
X461122Y193864D01*
X461167Y193976D01*
X461202Y194107D01*
X461227Y194258D01*
X461242Y194430D01*
X461247Y194622D01*
X462247D01*
X462252Y194432D01*
D02*
G37*
G36*
X459379Y193819D02*
X459171Y193604D01*
X458846Y193223D01*
X458729Y193057D01*
X458642Y192907D01*
X458585Y192774D01*
X458559Y192657D01*
X458562Y192557D01*
X458596Y192472D01*
X458660Y192404D01*
X457061Y193610D01*
X457147Y193563D01*
X457245Y193543D01*
X457355Y193549D01*
X457478Y193581D01*
X457613Y193640D01*
X457761Y193725D01*
X457921Y193837D01*
X458093Y193974D01*
X458475Y194329D01*
X459379Y193819D01*
D02*
G37*
G36*
X451379D02*
X451171Y193604D01*
X450846Y193223D01*
X450729Y193057D01*
X450642Y192907D01*
X450585Y192774D01*
X450559Y192657D01*
X450562Y192557D01*
X450596Y192472D01*
X450660Y192404D01*
X449061Y193610D01*
X449147Y193563D01*
X449245Y193543D01*
X449355Y193549D01*
X449478Y193581D01*
X449613Y193640D01*
X449761Y193725D01*
X449921Y193837D01*
X450093Y193974D01*
X450475Y194329D01*
X451379Y193819D01*
D02*
G37*
G36*
X447308D02*
X447100Y193604D01*
X446774Y193223D01*
X446657Y193057D01*
X446570Y192907D01*
X446513Y192774D01*
X446487Y192657D01*
X446490Y192557D01*
X446524Y192472D01*
X446589Y192404D01*
X444989Y193610D01*
X445075Y193563D01*
X445173Y193543D01*
X445283Y193549D01*
X445406Y193581D01*
X445541Y193640D01*
X445689Y193725D01*
X445849Y193837D01*
X446022Y193974D01*
X446404Y194329D01*
X447308Y193819D01*
D02*
G37*
G36*
X500442Y195753D02*
X500421Y195655D01*
X500427Y195545D01*
X500460Y195422D01*
X500519Y195287D01*
X500604Y195139D01*
X500715Y194979D01*
X500853Y194807D01*
X501207Y194424D01*
X500697Y193520D01*
X500482Y193728D01*
X500101Y194053D01*
X499935Y194171D01*
X499786Y194258D01*
X499653Y194315D01*
X499536Y194341D01*
X499435Y194337D01*
X499351Y194304D01*
X499283Y194239D01*
X500488Y195838D01*
X500442Y195753D01*
D02*
G37*
G36*
X455335Y194220D02*
X455110Y193988D01*
X454763Y193585D01*
X454640Y193414D01*
X454551Y193262D01*
X454496Y193131D01*
X454475Y193019D01*
X454488Y192928D01*
X454535Y192857D01*
X454615Y192806D01*
X452683Y193622D01*
X452811Y193629D01*
X452941Y193650D01*
X453073Y193685D01*
X453205Y193735D01*
X453339Y193799D01*
X453475Y193876D01*
X453611Y193968D01*
X453749Y194074D01*
X453889Y194195D01*
X454030Y194329D01*
X455335Y194220D01*
D02*
G37*
G36*
X507129Y192440D02*
X507113Y192451D01*
X507089Y192462D01*
X507056Y192471D01*
X507015Y192478D01*
X506966Y192485D01*
X506843Y192495D01*
X506596Y192500D01*
Y193500D01*
X506686Y193501D01*
X507015Y193522D01*
X507056Y193529D01*
X507089Y193538D01*
X507113Y193549D01*
X507129Y193560D01*
Y192440D01*
D02*
G37*
G36*
X477122Y194139D02*
X477479Y193837D01*
X477639Y193725D01*
X477787Y193640D01*
X477922Y193581D01*
X478045Y193549D01*
X478155Y193543D01*
X478253Y193563D01*
X478339Y193610D01*
X476740Y192404D01*
X476804Y192472D01*
X476838Y192557D01*
X476841Y192657D01*
X476815Y192774D01*
X476758Y192907D01*
X476671Y193057D01*
X476554Y193223D01*
X476406Y193405D01*
X476021Y193819D01*
X476925Y194329D01*
X477122Y194139D01*
D02*
G37*
G36*
X473122D02*
X473479Y193837D01*
X473639Y193725D01*
X473787Y193640D01*
X473922Y193581D01*
X474045Y193549D01*
X474155Y193543D01*
X474253Y193563D01*
X474339Y193610D01*
X472740Y192404D01*
X472804Y192472D01*
X472838Y192557D01*
X472842Y192657D01*
X472815Y192774D01*
X472758Y192907D01*
X472671Y193057D01*
X472554Y193223D01*
X472406Y193405D01*
X472021Y193819D01*
X472925Y194329D01*
X473122Y194139D01*
D02*
G37*
G36*
X469122D02*
X469479Y193837D01*
X469639Y193725D01*
X469787Y193640D01*
X469922Y193581D01*
X470045Y193549D01*
X470155Y193543D01*
X470253Y193563D01*
X470339Y193610D01*
X468740Y192404D01*
X468804Y192472D01*
X468838Y192557D01*
X468842Y192657D01*
X468815Y192774D01*
X468758Y192907D01*
X468671Y193057D01*
X468554Y193223D01*
X468406Y193405D01*
X468021Y193819D01*
X468925Y194329D01*
X469122Y194139D01*
D02*
G37*
G36*
X465122D02*
X465479Y193837D01*
X465639Y193725D01*
X465787Y193640D01*
X465922Y193581D01*
X466045Y193549D01*
X466155Y193543D01*
X466253Y193563D01*
X466339Y193610D01*
X464740Y192404D01*
X464804Y192472D01*
X464838Y192557D01*
X464842Y192657D01*
X464815Y192774D01*
X464758Y192907D01*
X464671Y193057D01*
X464554Y193223D01*
X464406Y193405D01*
X464021Y193819D01*
X464925Y194329D01*
X465122Y194139D01*
D02*
G37*
G36*
X444656Y192071D02*
X444646Y192123D01*
X444616Y192170D01*
X444566Y192211D01*
X444496Y192247D01*
X444406Y192278D01*
X444296Y192302D01*
X444166Y192322D01*
X444016Y192335D01*
X443656Y192347D01*
Y193347D01*
X443846Y193349D01*
X444166Y193371D01*
X444296Y193391D01*
X444406Y193415D01*
X444496Y193446D01*
X444566Y193481D01*
X444616Y193523D01*
X444646Y193570D01*
X444656Y193622D01*
Y192071D01*
D02*
G37*
G36*
X363769Y193079D02*
X363836Y193010D01*
X363925Y192949D01*
X364035Y192896D01*
X364166Y192852D01*
X364319Y192815D01*
X364494Y192787D01*
X364653Y192770D01*
Y193048D01*
X364733Y192991D01*
X364815Y192941D01*
X364900Y192896D01*
X364987Y192857D01*
X365077Y192824D01*
X365169Y192798D01*
X365264Y192777D01*
X365360Y192762D01*
X365460Y192753D01*
X365561Y192750D01*
Y191750D01*
X365460Y191747D01*
X365360Y191738D01*
X365264Y191723D01*
X365169Y191702D01*
X365077Y191675D01*
X364987Y191643D01*
X364900Y191604D01*
X364815Y191559D01*
X364733Y191509D01*
X364653Y191452D01*
Y191636D01*
X364587Y191604D01*
X364524Y191551D01*
X364488Y191490D01*
X364481Y191421D01*
X364502Y191344D01*
X363723Y193156D01*
X363769Y193079D01*
D02*
G37*
G36*
X327210Y195942D02*
X327273Y195521D01*
X327379Y195099D01*
X327528Y194677D01*
X327719Y194255D01*
X327952Y193832D01*
X328228Y193409D01*
X328546Y192985D01*
X328907Y192562D01*
X329310Y192138D01*
X326438Y190766D01*
X326014Y191169D01*
X325591Y191530D01*
X325167Y191848D01*
X324744Y192124D01*
X324321Y192357D01*
X323899Y192548D01*
X323477Y192697D01*
X323055Y192803D01*
X322634Y192866D01*
X322213Y192888D01*
X327188Y196364D01*
X327210Y195942D01*
D02*
G37*
G36*
X573064Y193382D02*
X572902Y193191D01*
X572758Y192956D01*
X572631Y192680D01*
X572523Y192361D01*
X572432Y191999D01*
X572358Y191595D01*
X572302Y191149D01*
X572244Y190128D01*
X572241Y189555D01*
X568529Y193267D01*
X569102Y193270D01*
X570123Y193328D01*
X570569Y193384D01*
X570973Y193458D01*
X571335Y193549D01*
X571654Y193657D01*
X571931Y193784D01*
X572165Y193928D01*
X572356Y194089D01*
X573064Y193382D01*
D02*
G37*
G36*
X464728Y188725D02*
X464718Y188777D01*
X464688Y188824D01*
X464638Y188865D01*
X464568Y188901D01*
X464478Y188931D01*
X464368Y188956D01*
X464238Y188975D01*
X464088Y188989D01*
X463728Y189000D01*
Y190000D01*
X463918Y190003D01*
X464238Y190025D01*
X464368Y190044D01*
X464478Y190069D01*
X464568Y190099D01*
X464638Y190135D01*
X464688Y190176D01*
X464718Y190223D01*
X464728Y190275D01*
Y188725D01*
D02*
G37*
G36*
X462682Y190223D02*
X462712Y190176D01*
X462762Y190135D01*
X462832Y190099D01*
X462922Y190069D01*
X463032Y190044D01*
X463162Y190025D01*
X463312Y190011D01*
X463672Y190000D01*
Y189000D01*
X463482Y188997D01*
X463162Y188975D01*
X463032Y188956D01*
X462922Y188931D01*
X462832Y188901D01*
X462762Y188865D01*
X462712Y188824D01*
X462682Y188777D01*
X462672Y188725D01*
Y190275D01*
X462682Y190223D01*
D02*
G37*
G36*
X460728Y188725D02*
X460718Y188777D01*
X460688Y188824D01*
X460638Y188865D01*
X460568Y188901D01*
X460478Y188931D01*
X460368Y188956D01*
X460238Y188975D01*
X460088Y188989D01*
X459728Y189000D01*
Y190000D01*
X459918Y190003D01*
X460238Y190025D01*
X460368Y190044D01*
X460478Y190069D01*
X460568Y190099D01*
X460638Y190135D01*
X460688Y190176D01*
X460718Y190223D01*
X460728Y190275D01*
Y188725D01*
D02*
G37*
G36*
X458682Y190223D02*
X458712Y190176D01*
X458762Y190135D01*
X458832Y190099D01*
X458922Y190069D01*
X459032Y190044D01*
X459162Y190025D01*
X459312Y190011D01*
X459672Y190000D01*
Y189000D01*
X459482Y188997D01*
X459162Y188975D01*
X459032Y188956D01*
X458922Y188931D01*
X458832Y188901D01*
X458762Y188865D01*
X458712Y188824D01*
X458682Y188777D01*
X458672Y188725D01*
X458582Y188715D01*
X458502Y188685D01*
X458431Y188635D01*
X458370Y188565D01*
X458318Y188475D01*
X458276Y188365D01*
X458243Y188235D01*
X458219Y188085D01*
X458205Y187915D01*
X458202Y187796D01*
X458222Y187485D01*
X458229Y187444D01*
X458238Y187411D01*
X458249Y187387D01*
X458260Y187371D01*
X457140D01*
X457151Y187387D01*
X457162Y187411D01*
X457171Y187444D01*
X457178Y187485D01*
X457185Y187534D01*
X457195Y187657D01*
X457198Y187809D01*
X457195Y187915D01*
X457181Y188085D01*
X457158Y188235D01*
X457124Y188365D01*
X457082Y188475D01*
X457030Y188565D01*
X456969Y188635D01*
X456898Y188685D01*
X456817Y188715D01*
X456728Y188725D01*
X456718Y188777D01*
X456688Y188824D01*
X456638Y188865D01*
X456568Y188901D01*
X456478Y188931D01*
X456368Y188956D01*
X456238Y188975D01*
X456088Y188989D01*
X455728Y189000D01*
Y190000D01*
X455918Y190003D01*
X456238Y190025D01*
X456368Y190044D01*
X456478Y190069D01*
X456568Y190099D01*
X456638Y190135D01*
X456688Y190176D01*
X456718Y190223D01*
X456728Y190275D01*
Y188725D01*
X458672D01*
Y190275D01*
X458682Y190223D01*
D02*
G37*
G36*
X454637D02*
X454667Y190176D01*
X454717Y190135D01*
X454787Y190099D01*
X454877Y190069D01*
X454987Y190044D01*
X455117Y190025D01*
X455267Y190011D01*
X455627Y190000D01*
Y189000D01*
X455437Y188997D01*
X455117Y188975D01*
X454987Y188956D01*
X454877Y188931D01*
X454787Y188901D01*
X454717Y188865D01*
X454667Y188824D01*
X454637Y188777D01*
X454627Y188725D01*
Y190275D01*
X454637Y190223D01*
D02*
G37*
G36*
X452683Y188725D02*
X452673Y188777D01*
X452643Y188824D01*
X452593Y188865D01*
X452523Y188901D01*
X452433Y188931D01*
X452323Y188956D01*
X452193Y188975D01*
X452043Y188989D01*
X451683Y189000D01*
Y190000D01*
X451873Y190003D01*
X452193Y190025D01*
X452323Y190044D01*
X452433Y190069D01*
X452523Y190099D01*
X452593Y190135D01*
X452643Y190176D01*
X452673Y190223D01*
X452683Y190275D01*
Y188725D01*
D02*
G37*
G36*
X450682Y190223D02*
X450712Y190176D01*
X450762Y190135D01*
X450832Y190099D01*
X450922Y190069D01*
X451032Y190044D01*
X451162Y190025D01*
X451312Y190011D01*
X451672Y190000D01*
Y189000D01*
X451482Y188997D01*
X451162Y188975D01*
X451032Y188956D01*
X450922Y188931D01*
X450832Y188901D01*
X450762Y188865D01*
X450712Y188824D01*
X450682Y188777D01*
X450672Y188725D01*
Y190275D01*
X450682Y190223D01*
D02*
G37*
G36*
X361455Y192538D02*
X361140Y192146D01*
X360245Y191252D01*
X361648Y189848D01*
X361295Y189495D01*
X361648Y189141D01*
X361182Y188676D01*
X361206Y188503D01*
X361179Y188597D01*
X361149Y188642D01*
X360384Y187878D01*
X361170Y187092D01*
X361207Y186422D01*
X355607Y180823D01*
X355364Y180459D01*
X355278Y180029D01*
X355278Y180029D01*
Y173065D01*
X352017Y169803D01*
X351954Y169779D01*
X351840Y169672D01*
X351747Y169594D01*
X351663Y169534D01*
X351589Y169490D01*
X351527Y169460D01*
X351476Y169442D01*
X351436Y169433D01*
X351406Y169430D01*
X351380Y169432D01*
X351311Y169445D01*
X351250Y169432D01*
X351192Y169456D01*
X351138Y169433D01*
X350700Y169491D01*
X350029Y169402D01*
X349405Y169144D01*
X348868Y168732D01*
X348456Y168195D01*
X348198Y167570D01*
X348109Y166900D01*
X348198Y166229D01*
X348456Y165605D01*
X348868Y165068D01*
X349405Y164656D01*
X350029Y164398D01*
X350441Y164343D01*
X350620Y163815D01*
X349907Y163102D01*
X349664Y162738D01*
X349578Y162309D01*
X349578Y162309D01*
Y159884D01*
X349551Y159822D01*
X349546Y159666D01*
X349535Y159546D01*
X349519Y159444D01*
X349498Y159360D01*
X349474Y159295D01*
X349451Y159246D01*
X349429Y159212D01*
X349410Y159188D01*
X349391Y159171D01*
X349333Y159131D01*
X349299Y159079D01*
X349241Y159055D01*
X349218Y159001D01*
X348868Y158732D01*
X348456Y158195D01*
X348198Y157571D01*
X348109Y156900D01*
X348198Y156229D01*
X348456Y155605D01*
X348868Y155068D01*
X349405Y154656D01*
X350029Y154398D01*
X350700Y154309D01*
X351371Y154398D01*
X351995Y154656D01*
X352532Y155068D01*
X352944Y155605D01*
X353202Y156229D01*
X353291Y156900D01*
X353202Y157571D01*
X352944Y158195D01*
X352532Y158732D01*
X352182Y159001D01*
X352159Y159055D01*
X352101Y159079D01*
X352067Y159131D01*
X352009Y159171D01*
X351990Y159188D01*
X351971Y159212D01*
X351949Y159246D01*
X351926Y159295D01*
X351902Y159360D01*
X351881Y159444D01*
X351865Y159546D01*
X351854Y159666D01*
X351849Y159822D01*
X351821Y159884D01*
Y161845D01*
X356684Y166707D01*
X357146Y166516D01*
Y154601D01*
X366487D01*
X366751Y154158D01*
X362146Y149554D01*
X361793Y149024D01*
X361669Y148400D01*
Y146859D01*
X361316D01*
Y146703D01*
X353867D01*
X353694Y146900D01*
X353592Y147675D01*
X353293Y148397D01*
X352817Y149017D01*
X352197Y149493D01*
X351475Y149792D01*
X351200Y149828D01*
Y146900D01*
X350200D01*
Y149828D01*
X349925Y149792D01*
X349203Y149493D01*
X348583Y149017D01*
X348107Y148397D01*
X347808Y147675D01*
X347331Y147773D01*
Y171224D01*
X349203Y173097D01*
X349246Y173113D01*
X349480Y173339D01*
X349922Y173723D01*
X350117Y173871D01*
X350306Y173998D01*
X350482Y174102D01*
X350644Y174183D01*
X350790Y174242D01*
X350920Y174281D01*
X351072Y174309D01*
X351165Y174371D01*
X351371Y174398D01*
X351995Y174656D01*
X352532Y175068D01*
X352944Y175605D01*
X353202Y176230D01*
X353291Y176900D01*
X353202Y177570D01*
X352944Y178195D01*
X352836Y178335D01*
X352816Y178440D01*
X352736Y178561D01*
X352677Y178675D01*
X352620Y178817D01*
X352566Y178987D01*
X352518Y179184D01*
X352480Y179395D01*
X352407Y180250D01*
X352402Y180573D01*
X352384Y180615D01*
Y200781D01*
X352644Y200981D01*
X352969Y201024D01*
X361455Y192538D01*
D02*
G37*
G36*
X446615Y190198D02*
X446657Y190099D01*
X446728Y189978D01*
X446827Y189836D01*
X446954Y189672D01*
X447294Y189279D01*
X448015Y188528D01*
X446404Y187310D01*
X446132Y187579D01*
X445096Y188498D01*
X444953Y188597D01*
X444833Y188668D01*
X444734Y188710D01*
X444656Y188725D01*
X446601Y190275D01*
X446615Y190198D01*
D02*
G37*
G36*
X478596Y189874D02*
X478562Y189790D01*
X478558Y189689D01*
X478585Y189572D01*
X478641Y189442D01*
X478700Y189501D01*
X478714Y189431D01*
X478755Y189340D01*
X478824Y189227D01*
X478921Y189092D01*
X479197Y188757D01*
X479818Y188092D01*
X480080Y187827D01*
X479373Y187120D01*
X479108Y187382D01*
X477973Y188376D01*
X477860Y188445D01*
X477769Y188486D01*
X477699Y188500D01*
X477796Y188596D01*
X477761Y188621D01*
X477613Y188706D01*
X477478Y188765D01*
X477355Y188797D01*
X477245Y188803D01*
X477147Y188783D01*
X477061Y188737D01*
X478660Y189942D01*
X478596Y189874D01*
D02*
G37*
G36*
X580878Y247235D02*
Y184065D01*
X575935Y179122D01*
X560389D01*
X560182Y179622D01*
X564991Y184431D01*
X565044Y184448D01*
X565199Y184578D01*
X565358Y184676D01*
X565568Y184772D01*
X565832Y184862D01*
X566146Y184941D01*
X566511Y185008D01*
X566918Y185058D01*
X567900Y185115D01*
X568457Y185118D01*
X568486Y185130D01*
X568491Y185129D01*
X569627Y185279D01*
X570685Y185717D01*
X571594Y186415D01*
X572291Y187323D01*
X572729Y188381D01*
X572879Y189517D01*
X572878Y189522D01*
X572890Y189551D01*
X572893Y190108D01*
X572950Y191090D01*
X573000Y191497D01*
X573067Y191862D01*
X573146Y192176D01*
X573236Y192440D01*
X573332Y192650D01*
X573430Y192809D01*
X573560Y192964D01*
X573577Y193017D01*
X575093Y194533D01*
X575093Y194533D01*
X575336Y194897D01*
X575422Y195326D01*
X575422Y195326D01*
Y235873D01*
X575422Y235873D01*
X575336Y236302D01*
X575093Y236666D01*
X575093Y236666D01*
X573577Y238182D01*
X573560Y238235D01*
X573430Y238390D01*
X573332Y238549D01*
X573236Y238759D01*
X573146Y239023D01*
X573067Y239337D01*
X573000Y239702D01*
X572950Y240109D01*
X572893Y241091D01*
X572890Y241648D01*
X572878Y241677D01*
X572879Y241682D01*
X572729Y242818D01*
X572291Y243876D01*
X571594Y244784D01*
X570685Y245482D01*
X569627Y245920D01*
X568491Y246070D01*
X567355Y245920D01*
X566297Y245482D01*
X565388Y244784D01*
X564691Y243876D01*
X564253Y242818D01*
X564104Y241682D01*
X564253Y240546D01*
X564691Y239488D01*
X565388Y238580D01*
X566297Y237882D01*
X567355Y237444D01*
X568491Y237295D01*
X568496Y237295D01*
X568525Y237283D01*
X569082Y237280D01*
X570064Y237224D01*
X570471Y237173D01*
X570836Y237106D01*
X571150Y237027D01*
X571414Y236937D01*
X571624Y236841D01*
X571783Y236743D01*
X571938Y236613D01*
X571991Y236596D01*
X573178Y235408D01*
Y233039D01*
X572678Y232940D01*
X572291Y233876D01*
X571594Y234785D01*
X570685Y235482D01*
X569627Y235920D01*
X568491Y236069D01*
X568486Y236069D01*
X568457Y236081D01*
X567900Y236084D01*
X566918Y236140D01*
X566511Y236191D01*
X566146Y236258D01*
X565832Y236337D01*
X565568Y236427D01*
X565358Y236523D01*
X565199Y236621D01*
X565044Y236751D01*
X564991Y236768D01*
X554566Y247193D01*
X554202Y247436D01*
X553773Y247522D01*
X553773Y247521D01*
X546171D01*
X545742Y247436D01*
X545378Y247193D01*
X545378Y247193D01*
X543059Y244873D01*
X542726Y245011D01*
X542605Y245127D01*
X542753Y246249D01*
X542597Y247433D01*
X542140Y248537D01*
X541412Y249485D01*
X540465Y250212D01*
X539361Y250669D01*
X538176Y250825D01*
X536207D01*
X535023Y250669D01*
X533919Y250212D01*
X532972Y249485D01*
X532244Y248537D01*
X531787Y247433D01*
X531631Y246249D01*
X531157Y246021D01*
X506825D01*
X506763Y246049D01*
X506592Y246053D01*
X506464Y246064D01*
X506368Y246079D01*
X506359Y246081D01*
Y246484D01*
X505837D01*
X505747Y246521D01*
X505712Y246507D01*
X505675Y246517D01*
X505614Y246484D01*
X503584D01*
X503216Y246802D01*
Y246884D01*
X501928D01*
Y244900D01*
Y242916D01*
X503216D01*
Y242997D01*
X503584Y243315D01*
X505614D01*
X505675Y243282D01*
X505712Y243293D01*
X505747Y243278D01*
X505837Y243315D01*
X506359D01*
Y243718D01*
X506368Y243720D01*
X506464Y243736D01*
X506592Y243746D01*
X506763Y243750D01*
X506825Y243778D01*
X531668D01*
X531731Y243750D01*
X531931Y243746D01*
X532093Y243734D01*
X532229Y243715D01*
X532336Y243692D01*
X532414Y243668D01*
X532463Y243646D01*
X532476Y243638D01*
X532487Y243616D01*
X532553Y243559D01*
X532972Y243013D01*
X533482Y242621D01*
X533312Y242122D01*
X494828D01*
X494828Y242122D01*
X494398Y242036D01*
X494034Y241793D01*
X494034Y241793D01*
X493535Y241293D01*
X493528Y241293D01*
X493507Y241266D01*
X493467Y241225D01*
X493404Y241202D01*
X493008Y240832D01*
X492860Y240712D01*
X492746Y240632D01*
X492556D01*
X492523Y240651D01*
X492468Y240637D01*
X492415Y240657D01*
X492358Y240632D01*
X491488D01*
Y237463D01*
X492952D01*
X493149Y236963D01*
X493008Y236832D01*
X492860Y236712D01*
X492746Y236632D01*
X492556D01*
X492523Y236651D01*
X492468Y236637D01*
X492415Y236657D01*
X492358Y236632D01*
X491488D01*
Y233463D01*
X491488D01*
X491324Y233031D01*
X491284D01*
Y232950D01*
X490916Y232631D01*
X489987D01*
X489932Y232657D01*
X489875Y232635D01*
X489817Y232650D01*
X489785Y232631D01*
X489655D01*
X489651Y232634D01*
X489536Y232717D01*
X489250Y232963D01*
X489261Y233112D01*
X489447Y233463D01*
X490916D01*
Y236632D01*
X488886D01*
X488825Y236665D01*
X488789Y236655D01*
X488753Y236669D01*
X488663Y236632D01*
X488141D01*
Y236229D01*
X488132Y236227D01*
X488036Y236212D01*
X487908Y236201D01*
X487737Y236197D01*
X487675Y236169D01*
X485109D01*
X484917Y236631D01*
X486212Y237926D01*
X487675D01*
X487737Y237898D01*
X487908Y237894D01*
X488036Y237883D01*
X488132Y237868D01*
X488141Y237866D01*
Y237463D01*
X488663D01*
X488753Y237426D01*
X488789Y237440D01*
X488825Y237430D01*
X488886Y237463D01*
X490916D01*
Y240632D01*
X488886D01*
X488825Y240665D01*
X488789Y240655D01*
X488753Y240669D01*
X488663Y240632D01*
X488141D01*
Y240229D01*
X488132Y240227D01*
X488036Y240212D01*
X487908Y240201D01*
X487737Y240197D01*
X487675Y240169D01*
X485748D01*
X485748Y240169D01*
X485318Y240084D01*
X484955Y239841D01*
X484955Y239841D01*
X475639Y230525D01*
X475139Y230732D01*
Y233090D01*
X475160Y233115D01*
X475284Y233246D01*
X475309Y233310D01*
X485613Y243614D01*
Y244638D01*
X485051Y245200D01*
X484027D01*
X475503Y236676D01*
X474956Y236836D01*
X474676Y237256D01*
X474163Y237598D01*
X474058Y237619D01*
Y233145D01*
X473058D01*
Y237754D01*
X472711Y237992D01*
Y240305D01*
X472739Y240369D01*
X472743Y240543D01*
X472752Y240679D01*
X472763Y240770D01*
X473084D01*
Y240990D01*
X473309Y241005D01*
X473481Y241008D01*
X473546Y241036D01*
X473846D01*
X473909Y241008D01*
X474138Y241003D01*
X474226Y240996D01*
X474237Y240994D01*
X474243Y240993D01*
X474245Y240993D01*
X474252Y240992D01*
X474482Y240838D01*
X475028Y240730D01*
X475574Y240838D01*
X476037Y241148D01*
X476347Y241611D01*
X476400Y241879D01*
X476574Y242077D01*
X476625Y242128D01*
X476652Y242195D01*
X477693Y243236D01*
X477693Y243236D01*
X477936Y243600D01*
X478021Y244029D01*
Y246229D01*
X478021Y246229D01*
X477936Y246658D01*
X477693Y247022D01*
X477693Y247022D01*
X475593Y249122D01*
X475229Y249365D01*
X474800Y249450D01*
X474800Y249450D01*
X455400D01*
X455400Y249450D01*
X454971Y249365D01*
X454607Y249122D01*
X454607Y249122D01*
X449923Y244438D01*
X449535Y244757D01*
X449696Y244998D01*
X449736Y245200D01*
X448000D01*
Y245700D01*
X447500D01*
Y247436D01*
X447298Y247396D01*
X446702Y246998D01*
X446585Y246821D01*
X417278D01*
X417278Y246822D01*
X416849Y246736D01*
X416485Y246493D01*
X416485Y246493D01*
X415770Y245777D01*
X415707Y245754D01*
X415526Y245585D01*
X413907D01*
Y242329D01*
X416769D01*
Y243559D01*
X416932Y243728D01*
X416958Y243793D01*
X417011Y243846D01*
X417032Y243863D01*
X417032Y243868D01*
X417743Y244579D01*
X423831D01*
Y240825D01*
X423830Y240821D01*
X423799Y240747D01*
X423746Y240648D01*
X423673Y240535D01*
X423432Y240227D01*
X423276Y240055D01*
X423265Y240024D01*
X423238Y240008D01*
X423225Y239961D01*
X421482Y238103D01*
X421376Y237932D01*
X421264Y237765D01*
X421260Y237747D01*
X421251Y237732D01*
X421218Y237533D01*
X421178Y237336D01*
Y237017D01*
X421151Y236955D01*
X421146Y236785D01*
X421135Y236660D01*
X421120Y236566D01*
X421115Y236550D01*
X420200D01*
Y234141D01*
X419700Y233944D01*
X419595Y234056D01*
X419474Y234206D01*
X419400Y234311D01*
Y234488D01*
X419415Y234512D01*
X419403Y234568D01*
X419425Y234621D01*
X419400Y234684D01*
Y236550D01*
X415902D01*
X415812Y236587D01*
X415722Y236550D01*
X415200D01*
Y236418D01*
X414169Y236352D01*
X413808Y236349D01*
X413765Y236331D01*
X411776D01*
X410534Y237573D01*
X410741Y238073D01*
X412907D01*
Y241329D01*
X410045D01*
Y238769D01*
X409545Y238562D01*
X395754Y252354D01*
X395224Y252707D01*
X394600Y252831D01*
X386445D01*
X385821Y252707D01*
X385292Y252354D01*
X379346Y246408D01*
X378993Y245879D01*
X378869Y245255D01*
Y245012D01*
X378851Y244967D01*
X378862Y244087D01*
X378499Y243636D01*
X378383Y243591D01*
X378362Y243579D01*
X368495D01*
X368465Y243597D01*
X367388Y244541D01*
X367136Y244790D01*
X367070Y244817D01*
X363922Y247964D01*
X363558Y248207D01*
X363129Y248293D01*
X363129Y248293D01*
X324554D01*
X324493Y248321D01*
X324152Y248331D01*
X324085Y248337D01*
Y248559D01*
X323563D01*
X323473Y248596D01*
X323413Y248572D01*
X323351Y248585D01*
X323311Y248559D01*
X320916D01*
Y245784D01*
X321739D01*
X321771Y245765D01*
X321772Y245765D01*
X321889Y245705D01*
X321592Y245212D01*
X320916D01*
Y244342D01*
X320891Y244285D01*
X320911Y244232D01*
X320897Y244177D01*
X320916Y244144D01*
Y243954D01*
X320841Y243847D01*
X320548Y243505D01*
X320354Y243304D01*
X320329Y243239D01*
X320282Y243193D01*
X320255Y243172D01*
X320255Y243165D01*
X318807Y241717D01*
X318604Y241414D01*
X314991D01*
Y234309D01*
X324065D01*
Y241414D01*
X322359D01*
X322246Y241680D01*
X322218Y241914D01*
X322531Y242204D01*
X322668Y242314D01*
X322788Y242397D01*
X322858Y242438D01*
X323155D01*
X323229Y242418D01*
X323262Y242438D01*
X324085D01*
Y243348D01*
X324547Y243539D01*
X326275Y241810D01*
X326281Y241783D01*
X326326Y241753D01*
X326345Y241702D01*
X326711Y241309D01*
X326829Y241163D01*
X326915Y241040D01*
Y240836D01*
X326893Y240795D01*
X326910Y240740D01*
X326891Y240687D01*
X326915Y240638D01*
Y240597D01*
X326884Y240544D01*
X326897Y240496D01*
X326878Y240449D01*
X326915Y240360D01*
Y239841D01*
X327226D01*
X327247Y239607D01*
X327251Y239440D01*
X327278Y239377D01*
Y238754D01*
X327251Y238691D01*
X327246Y238521D01*
X327236Y238393D01*
X327221Y238296D01*
X327218Y238287D01*
X326816D01*
Y237766D01*
X326778Y237675D01*
X326793Y237640D01*
X326782Y237603D01*
X326816Y237543D01*
Y235513D01*
X329984D01*
Y237543D01*
X330018Y237603D01*
X330007Y237640D01*
X330022Y237675D01*
X329984Y237766D01*
Y238287D01*
X329582D01*
X329579Y238296D01*
X329564Y238393D01*
X329554Y238521D01*
X329549Y238691D01*
X329521Y238754D01*
Y239374D01*
X329549Y239436D01*
X329554Y239608D01*
X329565Y239735D01*
X329581Y239831D01*
X329583Y239841D01*
X330084D01*
Y242616D01*
X329250D01*
X329243Y242621D01*
X329207Y242616D01*
X329188D01*
X329146Y242638D01*
X329113Y242653D01*
X329103Y242661D01*
X329117Y242869D01*
X329296Y243148D01*
X329350Y243162D01*
X329413Y243175D01*
X329472Y243150D01*
X329562Y243188D01*
X330084D01*
Y243408D01*
X330309Y243423D01*
X330481Y243426D01*
X330546Y243454D01*
X332000D01*
Y240276D01*
X338200D01*
Y244976D01*
X334337D01*
X333944Y245368D01*
X333672Y245550D01*
X333737Y246004D01*
X333755Y246050D01*
X362665D01*
X365484Y243231D01*
X365511Y243164D01*
X365767Y242905D01*
X366164Y242480D01*
X366166Y242468D01*
X366165Y242419D01*
X366143Y242328D01*
X366087Y242194D01*
X365988Y242023D01*
X365845Y241822D01*
X365655Y241595D01*
X365407Y241334D01*
X365405Y241329D01*
X365399Y241326D01*
X365385Y241287D01*
X351319Y227221D01*
X350914Y226992D01*
X350004Y227902D01*
X348601Y226499D01*
X348247Y226853D01*
X347894Y226499D01*
X346630Y227763D01*
X345580Y226714D01*
X345678Y226616D01*
X345488Y226099D01*
X344998Y226001D01*
X344402Y225603D01*
X344004Y225008D01*
X343964Y224805D01*
X345700D01*
Y224306D01*
X346200D01*
Y222570D01*
X346402Y222610D01*
X346998Y223008D01*
X347396Y223603D01*
X347493Y224094D01*
X348011Y224283D01*
X348108Y224186D01*
X348166Y224243D01*
X348651Y224208D01*
X348959Y223900D01*
X348981Y223846D01*
X348982Y223839D01*
X348984Y223836D01*
X349002Y223768D01*
X349021Y223660D01*
X349101Y222333D01*
X349103Y221968D01*
X349120Y221927D01*
X349109Y221883D01*
X349121Y221863D01*
Y213474D01*
X348621Y213235D01*
X348346Y213419D01*
X348078Y213472D01*
X347880Y213646D01*
X347829Y213697D01*
X347762Y213724D01*
X346818Y214668D01*
X346454Y214911D01*
X346184Y214965D01*
Y215262D01*
X345362D01*
X345329Y215281D01*
X345328Y215281D01*
X345211Y215341D01*
X345509Y215834D01*
X346184D01*
Y218609D01*
X345362D01*
X345329Y218628D01*
X345255Y218609D01*
X344958D01*
X344888Y218649D01*
X344775Y218727D01*
X344457Y218996D01*
X344275Y219171D01*
X344211Y219197D01*
X340167Y223240D01*
X339804Y223483D01*
X339374Y223568D01*
X339374Y223568D01*
X334866D01*
X334804Y223596D01*
X334606Y223601D01*
X334454Y223613D01*
X334401Y223621D01*
Y223622D01*
X334117Y223905D01*
X334117Y223906D01*
X334116Y223906D01*
X333225Y224797D01*
X329376D01*
X328201Y223622D01*
Y222916D01*
X328186Y222911D01*
X327700Y222828D01*
X327602Y223108D01*
X327511Y223470D01*
X327457Y223829D01*
X327437Y224218D01*
X327400Y224295D01*
Y224797D01*
X326945D01*
X326902Y224824D01*
X326828Y224808D01*
X326756Y224833D01*
X326679Y224797D01*
X321200D01*
Y220865D01*
X321173Y220822D01*
X321182Y220780D01*
X321164Y220742D01*
X321200Y220639D01*
Y220097D01*
X321656D01*
X321699Y220069D01*
X321741Y220079D01*
X321780Y220060D01*
X322169Y220041D01*
X322527Y219987D01*
X322889Y219895D01*
X323257Y219766D01*
X323630Y219597D01*
X324009Y219388D01*
X324394Y219137D01*
X324785Y218844D01*
X325180Y218508D01*
X325591Y218117D01*
X325610Y218110D01*
X331584Y212135D01*
X331592Y212115D01*
X331599Y212113D01*
X331601Y212106D01*
X331739Y211974D01*
X331818Y211346D01*
X323186Y202714D01*
X322722Y202020D01*
X322691Y201864D01*
X322306Y201811D01*
X322174Y201827D01*
X321757Y202452D01*
X321100Y202890D01*
X320326Y203044D01*
X318858D01*
Y201021D01*
X317858D01*
Y203044D01*
X317620D01*
X317436Y203488D01*
X317758Y203831D01*
X317814Y203853D01*
X317949Y203981D01*
X318067Y204082D01*
X318179Y204167D01*
X318284Y204237D01*
X318382Y204291D01*
X318473Y204333D01*
X318555Y204362D01*
X318630Y204380D01*
X318699Y204390D01*
X318799Y204393D01*
X318829Y204406D01*
X320326D01*
X320944Y204529D01*
X321468Y204879D01*
X321818Y205403D01*
X321941Y206021D01*
X321818Y206639D01*
X321468Y207164D01*
X320944Y207514D01*
X320326Y207637D01*
X316389D01*
X315771Y207514D01*
X315247Y207164D01*
X314897Y206639D01*
X314774Y206021D01*
X314897Y205403D01*
X315247Y204879D01*
X315115Y204365D01*
X312503Y201753D01*
X304058D01*
X304011Y201778D01*
X303760Y201802D01*
X303519Y201866D01*
X303225Y201986D01*
X302886Y202165D01*
X302505Y202406D01*
X302098Y202700D01*
X300621Y203992D01*
X300072Y204537D01*
X300058Y204543D01*
X300038Y204569D01*
X298885Y205454D01*
X297541Y206011D01*
X296100Y206200D01*
X294659Y206011D01*
X293316Y205454D01*
X292162Y204569D01*
X291277Y203416D01*
X290721Y202073D01*
X290531Y200631D01*
X290721Y199190D01*
X291277Y197847D01*
X292162Y196694D01*
X293316Y195809D01*
X294659Y195252D01*
X296100Y195063D01*
X297541Y195252D01*
X298885Y195809D01*
X300038Y196694D01*
X300058Y196720D01*
X300072Y196726D01*
X300628Y197279D01*
X301143Y197761D01*
X302093Y198559D01*
X302506Y198857D01*
X302886Y199098D01*
X303225Y199277D01*
X303519Y199397D01*
X303760Y199461D01*
X304011Y199485D01*
X304058Y199510D01*
X312968D01*
X312968Y199510D01*
X313397Y199595D01*
X313761Y199838D01*
X314069Y200147D01*
X314663Y200033D01*
X314958Y199591D01*
X315615Y199152D01*
X316389Y198998D01*
X317215D01*
X317236Y198951D01*
Y197473D01*
X317060Y197355D01*
X316662Y196760D01*
X316622Y196557D01*
X320093D01*
X320053Y196760D01*
X319655Y197355D01*
X319479Y197473D01*
Y198951D01*
X319500Y198998D01*
X320326D01*
X321100Y199152D01*
X321757Y199591D01*
X322059Y200044D01*
X322559Y199892D01*
Y199405D01*
X322551Y199387D01*
X322513Y198331D01*
X322468Y197926D01*
X322408Y197585D01*
X322337Y197320D01*
X322263Y197136D01*
X322201Y197037D01*
X322182Y197016D01*
X322110Y197005D01*
X322062Y196976D01*
X321601D01*
Y196454D01*
X321563Y196364D01*
X321584Y196314D01*
X321571Y196261D01*
X321601Y196213D01*
Y193044D01*
X321573Y193001D01*
X321582Y192959D01*
X321564Y192920D01*
X321601Y192818D01*
Y192276D01*
X322056D01*
X322099Y192248D01*
X322141Y192257D01*
X322180Y192239D01*
X322569Y192219D01*
X322927Y192165D01*
X323289Y192074D01*
X323657Y191945D01*
X324030Y191776D01*
X324410Y191567D01*
X324794Y191316D01*
X325185Y191023D01*
X325580Y190686D01*
X325991Y190296D01*
X326010Y190288D01*
X328312Y187986D01*
X329007Y187522D01*
X329826Y187359D01*
X336913D01*
X340159Y184113D01*
Y143100D01*
X340322Y142281D01*
X340786Y141586D01*
X345986Y136386D01*
X346681Y135922D01*
X347500Y135759D01*
X388000D01*
X388819Y135922D01*
X389514Y136386D01*
X403114Y149986D01*
X403578Y150681D01*
X403741Y151500D01*
Y170823D01*
X411104Y178185D01*
X411122Y178192D01*
X411533Y178583D01*
X411929Y178919D01*
X412320Y179212D01*
X412706Y179463D01*
X413087Y179673D01*
X413462Y179841D01*
X413831Y179971D01*
X414196Y180062D01*
X414558Y180116D01*
X414950Y180136D01*
X415027Y180172D01*
X423074D01*
Y189246D01*
X406126D01*
Y187818D01*
X406104Y187778D01*
X406082Y187569D01*
X406045Y187463D01*
X405982Y187369D01*
X405875Y187270D01*
X405704Y187166D01*
X405458Y187066D01*
X405136Y186980D01*
X404741Y186914D01*
X404273Y186873D01*
X403721Y186859D01*
X403703Y186851D01*
X400234D01*
X399415Y186688D01*
X398720Y186223D01*
X392213Y179716D01*
X388715D01*
X388284Y179884D01*
Y181172D01*
X386300D01*
Y181672D01*
X385328Y180896D01*
X385314Y180974D01*
X385271Y181073D01*
X385201Y181194D01*
X385102Y181336D01*
X384974Y181500D01*
X384635Y181893D01*
X383913Y182644D01*
X385525Y183861D01*
X385797Y183593D01*
X386833Y182673D01*
X386975Y182574D01*
X387096Y182504D01*
X387195Y182461D01*
X387272Y182447D01*
X386927Y182172D01*
X388284D01*
Y183459D01*
X386926D01*
X386241Y184067D01*
X385981Y184323D01*
X385938Y184341D01*
X384325Y185953D01*
X383796Y186307D01*
X383172Y186431D01*
X370107D01*
X369483Y186307D01*
X368954Y185953D01*
X367548Y184548D01*
X367508Y184533D01*
X366700Y183780D01*
X366626Y183720D01*
X366331Y183768D01*
X366145Y184291D01*
X377463Y195608D01*
X377526Y195632D01*
X377651Y195751D01*
X377749Y195833D01*
X377826Y195888D01*
X378801Y194913D01*
X379162Y194672D01*
X379588Y194587D01*
X380014Y194672D01*
X380376Y194913D01*
X380617Y195274D01*
X380702Y195700D01*
X380980Y195979D01*
X381406Y196064D01*
X381768Y196305D01*
X382009Y196666D01*
X382094Y197092D01*
X382372Y197371D01*
X382798Y197456D01*
X383159Y197697D01*
X383356Y197991D01*
X383631Y198089D01*
X383925Y198129D01*
X390001Y192053D01*
X390001Y192053D01*
X390365Y191810D01*
X390794Y191725D01*
X390794Y191725D01*
X443562D01*
X443582Y191722D01*
X443586Y191720D01*
X443623Y191631D01*
X443471Y191312D01*
X443251Y191131D01*
X441900D01*
X441276Y191007D01*
X440746Y190654D01*
X440393Y190124D01*
X440269Y189500D01*
X440393Y188876D01*
X440746Y188347D01*
X441276Y187993D01*
X441900Y187869D01*
X444827D01*
X445688Y187105D01*
X445947Y186848D01*
X445991Y186831D01*
X449575Y183247D01*
X450104Y182893D01*
X450728Y182769D01*
X464600D01*
X465224Y182893D01*
X465754Y183247D01*
X468397Y185890D01*
X468501Y185959D01*
X469438Y186896D01*
X469507Y187000D01*
X470376Y187869D01*
X477558D01*
X477587Y187850D01*
X478665Y186906D01*
X478916Y186658D01*
X478983Y186631D01*
X485992Y179622D01*
X485785Y179122D01*
X445400D01*
X444971Y179036D01*
X444607Y178793D01*
X444607Y178793D01*
X439207Y173393D01*
X438964Y173029D01*
X438878Y172600D01*
X438878Y172600D01*
Y139665D01*
X433035Y133822D01*
X344865D01*
X338422Y140265D01*
Y181900D01*
X338422Y181900D01*
X338336Y182329D01*
X338093Y182693D01*
X335093Y185693D01*
X334729Y185936D01*
X334300Y186022D01*
X334300Y186022D01*
X291265D01*
X283622Y193665D01*
Y233830D01*
X287797D01*
Y237783D01*
Y241736D01*
X283622D01*
Y246135D01*
X290865Y253378D01*
X559100Y253379D01*
X574735D01*
X580878Y247235D01*
D02*
G37*
G36*
X500582Y185128D02*
X500572Y185218D01*
X500542Y185298D01*
X500492Y185369D01*
X500422Y185430D01*
X500332Y185482D01*
X500222Y185525D01*
X500092Y185558D01*
X499942Y185581D01*
X499772Y185596D01*
X499582Y185600D01*
Y186600D01*
X499772Y186605D01*
X499942Y186619D01*
X500092Y186643D01*
X500222Y186676D01*
X500332Y186718D01*
X500422Y186770D01*
X500492Y186832D01*
X500542Y186903D01*
X500572Y186983D01*
X500582Y187073D01*
Y185128D01*
D02*
G37*
G36*
X505685Y186983D02*
X505715Y186902D01*
X505765Y186831D01*
X505835Y186770D01*
X505925Y186718D01*
X506035Y186676D01*
X506165Y186643D01*
X506315Y186619D01*
X506485Y186605D01*
X506675Y186600D01*
Y185600D01*
X506485Y185595D01*
X506315Y185581D01*
X506165Y185557D01*
X506035Y185524D01*
X505925Y185482D01*
X505835Y185430D01*
X505765Y185369D01*
X505715Y185298D01*
X505685Y185217D01*
X505675Y185128D01*
Y187072D01*
X505685Y186983D01*
D02*
G37*
G36*
X532296Y185101D02*
X532305Y185196D01*
X532290Y185281D01*
X532251Y185356D01*
X532187Y185420D01*
X532099Y185475D01*
X531986Y185520D01*
X531849Y185555D01*
X531688Y185580D01*
X531503Y185595D01*
X531293Y185600D01*
X531499Y186600D01*
X531713Y186605D01*
X531907Y186620D01*
X532081Y186644D01*
X532234Y186679D01*
X532367Y186724D01*
X532480Y186778D01*
X532572Y186842D01*
X532644Y186916D01*
X532696Y187000D01*
X532728Y187094D01*
X532296Y185101D01*
D02*
G37*
G36*
X568454Y185767D02*
X567880Y185764D01*
X566859Y185706D01*
X566413Y185650D01*
X566009Y185576D01*
X565647Y185485D01*
X565328Y185377D01*
X565052Y185250D01*
X564817Y185106D01*
X564626Y184944D01*
X563918Y185652D01*
X564080Y185843D01*
X564224Y186077D01*
X564351Y186354D01*
X564459Y186673D01*
X564550Y187035D01*
X564624Y187439D01*
X564680Y187885D01*
X564738Y188906D01*
X564741Y189479D01*
X568454Y185767D01*
D02*
G37*
G36*
X368971Y182250D02*
X368592Y181857D01*
X367991Y181143D01*
X367769Y180824D01*
X367600Y180528D01*
X367545Y180400D01*
X368569D01*
Y180822D01*
X369075Y181421D01*
X369439Y181799D01*
X369456Y181841D01*
X370783Y183169D01*
X375631D01*
Y176544D01*
X376986D01*
X377027Y176522D01*
X377091Y176541D01*
X377154Y176521D01*
X377197Y176544D01*
X378347D01*
X378480Y176478D01*
X378952Y176178D01*
X379493Y175775D01*
X380803Y174630D01*
X381551Y173902D01*
X381570Y173895D01*
X382038Y173427D01*
X381890Y172927D01*
X379587D01*
Y168184D01*
X389054D01*
Y172927D01*
X386543D01*
X386524Y173047D01*
X386473Y173841D01*
X386470Y174179D01*
X386452Y174221D01*
X386310Y174934D01*
X386354Y175098D01*
X386533Y175434D01*
X391515D01*
Y173586D01*
X391482Y173525D01*
X391493Y173488D01*
X391478Y173453D01*
X391515Y173363D01*
Y172841D01*
X391918D01*
X391920Y172832D01*
X391935Y172736D01*
X391946Y172608D01*
X391950Y172437D01*
X391978Y172375D01*
Y170567D01*
X391950Y170504D01*
X391946Y170332D01*
X391935Y170204D01*
X391919Y170108D01*
X391917Y170099D01*
X390376D01*
Y163900D01*
X391109D01*
X391251Y163400D01*
X389976Y162125D01*
Y160624D01*
X389908Y160508D01*
X389697Y160196D01*
X389554Y160009D01*
X389054Y160178D01*
Y163872D01*
X380312D01*
X380238Y163908D01*
X380176Y163887D01*
X380113Y163903D01*
X380058Y163872D01*
X379587D01*
Y163373D01*
X379550Y163299D01*
X379531Y162984D01*
X379480Y162696D01*
X379392Y162392D01*
X379266Y162072D01*
X379098Y161737D01*
X378889Y161387D01*
X378642Y161030D01*
X377995Y160252D01*
X377608Y159848D01*
X377601Y159829D01*
X377551Y159779D01*
X377551Y159779D01*
X377551Y159779D01*
X371528Y153756D01*
X371140Y154075D01*
X371207Y154176D01*
X371331Y154800D01*
Y159602D01*
X371396Y159698D01*
X371436Y159900D01*
X367964D01*
X368004Y159698D01*
X368069Y159602D01*
Y155476D01*
X367057Y154464D01*
X366613Y154728D01*
Y168399D01*
X359065D01*
X358944Y168584D01*
X358849Y168899D01*
X359036Y169180D01*
X359122Y169609D01*
X359121Y169609D01*
Y178902D01*
X361383Y181164D01*
X361845Y180972D01*
Y180400D01*
X365207D01*
X366807D01*
X365123Y182632D01*
X365259Y182502D01*
X365429Y182433D01*
X365630Y182425D01*
X365865Y182476D01*
X366131Y182589D01*
X366430Y182762D01*
X366762Y182995D01*
X367126Y183289D01*
X367951Y184058D01*
X368971Y182250D01*
D02*
G37*
G36*
X406750Y181709D02*
X406720Y181994D01*
X406630Y182249D01*
X406479Y182475D01*
X406268Y182669D01*
X405997Y182834D01*
X405666Y182969D01*
X405274Y183074D01*
X404822Y183150D01*
X404310Y183194D01*
X403738Y183209D01*
Y186209D01*
X404310Y186224D01*
X404822Y186269D01*
X405274Y186345D01*
X405666Y186450D01*
X405997Y186584D01*
X406268Y186749D01*
X406479Y186944D01*
X406630Y187170D01*
X406720Y187425D01*
X406750Y187709D01*
Y181709D01*
D02*
G37*
G36*
X414493Y180763D02*
X414069Y180700D01*
X413645Y180594D01*
X413221Y180445D01*
X412796Y180254D01*
X412372Y180021D01*
X411948Y179745D01*
X411523Y179427D01*
X411099Y179066D01*
X410675Y178663D01*
X406432D01*
X406817Y179066D01*
X407123Y179427D01*
X407351Y179745D01*
X407500Y180021D01*
X407569Y180254D01*
X407561Y180445D01*
X407473Y180594D01*
X407307Y180700D01*
X407062Y180763D01*
X406738Y180784D01*
X414918D01*
X414493Y180763D01*
D02*
G37*
G36*
X351752Y180564D02*
X351758Y180217D01*
X351836Y179309D01*
X351883Y179050D01*
X351940Y178813D01*
X352008Y178597D01*
X352086Y178404D01*
X352175Y178232D01*
X352274Y178082D01*
X349158Y178123D01*
X349271Y178283D01*
X349372Y178463D01*
X349461Y178663D01*
X349538Y178884D01*
X349604Y179124D01*
X349657Y179384D01*
X349699Y179664D01*
X349746Y180285D01*
X349752Y180625D01*
X351752Y180564D01*
D02*
G37*
G36*
X380791Y181532D02*
X380753Y181211D01*
X380817Y180831D01*
X380931Y180528D01*
X380931Y180575D01*
X380938Y180509D01*
X380983Y180391D01*
X381251Y179890D01*
X381445Y179597D01*
X381687Y179450D01*
X382018Y179315D01*
X382409Y179210D01*
X382860Y179135D01*
X383372Y179090D01*
X383943Y179075D01*
Y176676D01*
X384125Y176489D01*
X383943Y176307D01*
Y176075D01*
X383773Y176137D01*
X382004Y174368D01*
X381243Y175107D01*
X379902Y176280D01*
X379321Y176713D01*
X378800Y177044D01*
X378339Y177273D01*
X377938Y177400D01*
X377597Y177425D01*
X377315Y177348D01*
X377094Y177168D01*
X380931Y181792D01*
X380791Y181532D01*
D02*
G37*
G36*
X350952Y174948D02*
X350767Y174913D01*
X350575Y174855D01*
X350377Y174776D01*
X350171Y174673D01*
X349959Y174547D01*
X349740Y174399D01*
X349514Y174228D01*
X349041Y173819D01*
X348794Y173580D01*
X347380Y174994D01*
X347619Y175241D01*
X348028Y175714D01*
X348199Y175940D01*
X348347Y176159D01*
X348473Y176371D01*
X348575Y176577D01*
X348656Y176775D01*
X348713Y176967D01*
X348748Y177152D01*
X350952Y174948D01*
D02*
G37*
G36*
X393982Y173443D02*
X393902Y173413D01*
X393831Y173363D01*
X393770Y173293D01*
X393718Y173203D01*
X393675Y173093D01*
X393642Y172963D01*
X393619Y172813D01*
X393604Y172643D01*
X393600Y172453D01*
X392600D01*
X392595Y172643D01*
X392581Y172813D01*
X392557Y172963D01*
X392524Y173093D01*
X392482Y173203D01*
X392430Y173293D01*
X392368Y173363D01*
X392297Y173413D01*
X392217Y173443D01*
X392127Y173453D01*
X394072D01*
X393982Y173443D01*
D02*
G37*
G36*
X385824Y173817D02*
X385878Y172976D01*
X385910Y172770D01*
X385949Y172602D01*
X385996Y172471D01*
X386049Y172378D01*
X386110Y172321D01*
X386178Y172303D01*
X382463D01*
X382531Y172321D01*
X382592Y172378D01*
X382645Y172471D01*
X382692Y172602D01*
X382731Y172770D01*
X382763Y172976D01*
X382788Y173219D01*
X382817Y173817D01*
X382821Y174172D01*
X385821D01*
X385824Y173817D01*
D02*
G37*
G36*
X393605Y170295D02*
X393620Y170123D01*
X393645Y169971D01*
X393680Y169840D01*
X393725Y169729D01*
X393780Y169637D01*
X393845Y169567D01*
X393920Y169516D01*
X394005Y169486D01*
X394100Y169475D01*
X392100D01*
X392195Y169486D01*
X392280Y169516D01*
X392355Y169567D01*
X392420Y169637D01*
X392475Y169729D01*
X392520Y169840D01*
X392555Y169971D01*
X392580Y170123D01*
X392595Y170295D01*
X392600Y170487D01*
X393600D01*
X393605Y170295D01*
D02*
G37*
G36*
X353107Y168600D02*
X352986Y168472D01*
X352880Y168345D01*
X352791Y168220D01*
X352717Y168096D01*
X352659Y167975D01*
X352617Y167855D01*
X352590Y167737D01*
X352580Y167620D01*
X352585Y167505D01*
X352606Y167392D01*
X351192Y168806D01*
X351305Y168785D01*
X351420Y168780D01*
X351537Y168790D01*
X351655Y168817D01*
X351775Y168859D01*
X351897Y168917D01*
X352020Y168991D01*
X352145Y169080D01*
X352272Y169186D01*
X352400Y169307D01*
X353107Y168600D01*
D02*
G37*
G36*
X384783Y159752D02*
X384525Y159896D01*
X384231Y159960D01*
X383899Y159944D01*
X383530Y159850D01*
X383125Y159676D01*
X382682Y159423D01*
X382202Y159091D01*
X381685Y158680D01*
X381131Y158189D01*
X380540Y157619D01*
X378077Y159399D01*
X378480Y159819D01*
X379159Y160637D01*
X379435Y161035D01*
X379668Y161425D01*
X379859Y161807D01*
X380008Y162181D01*
X380114Y162548D01*
X380177Y162908D01*
X380199Y163260D01*
X384783Y159752D01*
D02*
G37*
G36*
X403721Y182560D02*
X404273Y182546D01*
X404741Y182505D01*
X405136Y182439D01*
X405458Y182353D01*
X405704Y182253D01*
X405875Y182149D01*
X405982Y182050D01*
X406044Y181956D01*
X406082Y181850D01*
X406104Y181641D01*
X406126Y181601D01*
Y180900D01*
X406090Y180827D01*
X406097Y180805D01*
X406089Y180784D01*
X406126Y180694D01*
Y180172D01*
X406244D01*
X406292Y180127D01*
X406480Y179672D01*
X406334Y179501D01*
X405963Y179112D01*
X405955Y179093D01*
X400086Y173223D01*
X399622Y172529D01*
X399459Y171709D01*
Y152387D01*
X387717Y140645D01*
X387255Y140836D01*
Y142700D01*
X380531D01*
Y140041D01*
X373469D01*
Y145784D01*
X373496Y145825D01*
X373483Y145886D01*
X373507Y145944D01*
X373469Y146034D01*
Y146556D01*
X373017D01*
X372976Y146582D01*
X372962Y146585D01*
X372911Y146683D01*
X372845Y146874D01*
X372781Y147146D01*
X372730Y147486D01*
X372665Y148402D01*
X372658Y148830D01*
X378687Y154859D01*
X379187Y154651D01*
Y152945D01*
X384320D01*
X385323D01*
X382688Y154192D01*
X382988Y154092D01*
X383316Y154061D01*
X383671Y154100D01*
X384054Y154209D01*
X384465Y154387D01*
X384903Y154635D01*
X385368Y154953D01*
X385862Y155341D01*
X386383Y155798D01*
X386931Y156326D01*
X390040Y155804D01*
X388867Y158262D01*
X389270Y158677D01*
X389949Y159455D01*
X390224Y159817D01*
X390458Y160161D01*
X390649Y160488D01*
X390797Y160797D01*
X390903Y161089D01*
X390967Y161363D01*
X390988Y161618D01*
X392226Y159668D01*
Y160000D01*
X392726D01*
Y160500D01*
X395476D01*
Y162125D01*
X394201Y163400D01*
X394342Y163900D01*
X395076D01*
Y170099D01*
X394283D01*
X394280Y170108D01*
X394265Y170204D01*
X394253Y170332D01*
X394249Y170504D01*
X394221Y170567D01*
Y172375D01*
X394249Y172437D01*
X394253Y172608D01*
X394264Y172736D01*
X394279Y172832D01*
X394281Y172841D01*
X394684D01*
Y173363D01*
X394721Y173453D01*
X394707Y173488D01*
X394717Y173525D01*
X394684Y173586D01*
Y175616D01*
X394684Y175616D01*
X394669Y176116D01*
X401121Y182568D01*
X403703D01*
X403721Y182560D01*
D02*
G37*
G36*
X351205Y159627D02*
X351220Y159463D01*
X351245Y159311D01*
X351280Y159172D01*
X351325Y159045D01*
X351380Y158931D01*
X351445Y158828D01*
X351520Y158738D01*
X351605Y158661D01*
X351700Y158596D01*
X349700D01*
X349795Y158661D01*
X349880Y158738D01*
X349955Y158828D01*
X350020Y158931D01*
X350075Y159045D01*
X350120Y159172D01*
X350155Y159311D01*
X350180Y159463D01*
X350195Y159627D01*
X350200Y159804D01*
X351200D01*
X351205Y159627D01*
D02*
G37*
G36*
X372016Y148374D02*
X372084Y147414D01*
X372143Y147024D01*
X372220Y146694D01*
X372313Y146424D01*
X372424Y146214D01*
X372551Y146064D01*
X372696Y145974D01*
X372857Y145944D01*
X368157D01*
X368318Y145974D01*
X368463Y146064D01*
X368590Y146214D01*
X368701Y146424D01*
X368794Y146694D01*
X368871Y147024D01*
X368931Y147414D01*
X368973Y147864D01*
X369007Y148944D01*
X372007D01*
X372016Y148374D01*
D02*
G37*
G36*
X362240Y140467D02*
X362198Y140479D01*
X362098Y140489D01*
X361721Y140507D01*
X359182Y140529D01*
Y142529D01*
X362240Y142590D01*
Y140467D01*
D02*
G37*
G36*
X368157Y140456D02*
X365157Y140029D01*
Y143029D01*
X365728Y143044D01*
X366240Y143089D01*
X366691Y143164D01*
X367083Y143269D01*
X367414Y143404D01*
X367685Y143569D01*
X367896Y143764D01*
X368047Y143989D01*
X368138Y144244D01*
X368169Y144529D01*
X368157Y140456D01*
D02*
G37*
%LPC*%
G36*
X433033Y239556D02*
X431745D01*
Y238072D01*
X433033D01*
Y239556D01*
D02*
G37*
G36*
X428518Y235307D02*
X428315Y235267D01*
X427720Y234869D01*
X427322Y234274D01*
X427282Y234071D01*
X428518D01*
Y235307D01*
D02*
G37*
G36*
X498260Y234000D02*
X497024D01*
Y232764D01*
X497227Y232804D01*
X497822Y233202D01*
X498220Y233798D01*
X498260Y234000D01*
D02*
G37*
G36*
X376800Y225236D02*
X376598Y225196D01*
X376002Y224798D01*
X375604Y224202D01*
X375564Y224000D01*
X376800D01*
Y225236D01*
D02*
G37*
G36*
X461847Y221789D02*
Y220553D01*
X463083D01*
X463043Y220755D01*
X462645Y221351D01*
X462050Y221748D01*
X461847Y221789D01*
D02*
G37*
G36*
X463433Y219553D02*
X462409D01*
X461847Y218991D01*
Y217967D01*
X463414Y216400D01*
X464594D01*
X465087Y217020D01*
X465100Y217007D01*
Y217886D01*
X463433Y219553D01*
D02*
G37*
G36*
X466100Y217636D02*
Y216400D01*
X467336D01*
X467296Y216602D01*
X466898Y217198D01*
X466302Y217596D01*
X466100Y217636D01*
D02*
G37*
G36*
X465100Y215400D02*
X463864D01*
X463904Y215198D01*
X464302Y214602D01*
X464898Y214204D01*
X465100Y214164D01*
Y215400D01*
D02*
G37*
G36*
X467586D02*
X466707D01*
X466720Y215387D01*
X466100Y214894D01*
Y213714D01*
X467214Y212600D01*
X468394D01*
X468887Y213220D01*
X468900Y213207D01*
Y214086D01*
X467586Y215400D01*
D02*
G37*
G36*
X469900Y213836D02*
Y212600D01*
X471136D01*
X471096Y212802D01*
X470698Y213398D01*
X470102Y213796D01*
X469900Y213836D01*
D02*
G37*
G36*
X468900Y211600D02*
X467664D01*
X467704Y211398D01*
X468102Y210802D01*
X468698Y210404D01*
X468900Y210364D01*
Y211600D01*
D02*
G37*
G36*
X549200Y200626D02*
X547732Y200482D01*
X546320Y200053D01*
X545019Y199358D01*
X543878Y198422D01*
X542942Y197281D01*
X542247Y195980D01*
X541818Y194568D01*
X541674Y193100D01*
X541818Y191632D01*
X542247Y190220D01*
X542942Y188919D01*
X543878Y187778D01*
X545019Y186842D01*
X546320Y186147D01*
X547732Y185718D01*
X549200Y185574D01*
X550668Y185718D01*
X552080Y186147D01*
X553381Y186842D01*
X554522Y187778D01*
X555458Y188919D01*
X556153Y190220D01*
X556582Y191632D01*
X556726Y193100D01*
X556582Y194568D01*
X556153Y195980D01*
X555458Y197281D01*
X554522Y198422D01*
X553381Y199358D01*
X552080Y200053D01*
X550668Y200482D01*
X549200Y200626D01*
D02*
G37*
G36*
X418753Y210066D02*
X415891D01*
Y207007D01*
X418753D01*
Y210066D01*
D02*
G37*
G36*
X405400Y207483D02*
Y206247D01*
X406636D01*
X406596Y206450D01*
X406198Y207045D01*
X405602Y207443D01*
X405400Y207483D01*
D02*
G37*
G36*
X337543Y205521D02*
X334150D01*
X334205Y205247D01*
X334644Y204591D01*
X335300Y204152D01*
X336074Y203998D01*
X337543D01*
Y205521D01*
D02*
G37*
G36*
X355995Y191231D02*
X355793Y191191D01*
X355197Y190793D01*
X354799Y190197D01*
X354759Y189995D01*
X355995D01*
Y191231D01*
D02*
G37*
G36*
X356995D02*
Y189495D01*
Y187759D01*
X357197Y187799D01*
X357793Y188197D01*
X357910Y188373D01*
X359466D01*
X360073Y188981D01*
X359698Y188995D01*
X359419Y189995D01*
X359719Y190000D01*
X360056Y190026D01*
X359438Y190645D01*
X359409Y190644D01*
X359345Y190617D01*
X359279D01*
X359245Y190621D01*
X359240Y190617D01*
X357910D01*
X357793Y190793D01*
X357197Y191191D01*
X356995Y191231D01*
D02*
G37*
G36*
X355995Y188995D02*
X354759D01*
X354799Y188793D01*
X355197Y188197D01*
X355793Y187799D01*
X355995Y187759D01*
Y188995D01*
D02*
G37*
%LPD*%
G36*
X357082Y190044D02*
X357106Y190033D01*
X357139Y190024D01*
X357180Y190017D01*
X357229Y190010D01*
X357352Y190000D01*
X357599Y189995D01*
Y188995D01*
X357509Y188994D01*
X357180Y188973D01*
X357139Y188966D01*
X357106Y188957D01*
X357082Y188946D01*
X357066Y188935D01*
Y190055D01*
X357082Y190044D01*
D02*
G37*
%LPC*%
G36*
X485613Y247436D02*
X485411Y247396D01*
X484816Y246998D01*
X484418Y246402D01*
X484378Y246200D01*
X485613D01*
Y247436D01*
D02*
G37*
G36*
X448500D02*
Y246200D01*
X449736D01*
X449696Y246402D01*
X449298Y246998D01*
X448702Y247396D01*
X448500Y247436D01*
D02*
G37*
G36*
X486613D02*
Y245700D01*
Y243964D01*
X486816Y244004D01*
X487411Y244402D01*
X487529Y244579D01*
X499641D01*
Y242916D01*
X500928D01*
Y244900D01*
Y246884D01*
X499641D01*
Y246821D01*
X487529D01*
X487411Y246998D01*
X486816Y247396D01*
X486613Y247436D01*
D02*
G37*
G36*
X412907Y245585D02*
X410045D01*
Y242329D01*
X412907D01*
Y245585D01*
D02*
G37*
G36*
X344025Y244976D02*
X340176D01*
X339001Y243801D01*
Y241451D01*
X340176Y240276D01*
X344025D01*
X345200Y241451D01*
Y243801D01*
X344025Y244976D01*
D02*
G37*
G36*
X293234Y241736D02*
X288797D01*
Y238283D01*
X293234D01*
Y241736D01*
D02*
G37*
G36*
X416769Y241329D02*
X413907D01*
Y238073D01*
X416769D01*
Y241329D01*
D02*
G37*
G36*
X351900Y238298D02*
Y237062D01*
X353136D01*
X353096Y237264D01*
X352698Y237860D01*
X352102Y238257D01*
X351900Y238298D01*
D02*
G37*
G36*
X350900D02*
X350698Y238257D01*
X350102Y237860D01*
X349704Y237264D01*
X349664Y237062D01*
X350900D01*
Y238298D01*
D02*
G37*
G36*
X353136Y236062D02*
X351900D01*
Y234826D01*
X352102Y234866D01*
X352698Y235264D01*
X353096Y235860D01*
X353136Y236062D01*
D02*
G37*
G36*
X350900D02*
X349664D01*
X349704Y235860D01*
X350102Y235264D01*
X350698Y234866D01*
X350900Y234826D01*
Y236062D01*
D02*
G37*
G36*
X338200Y238076D02*
X332000D01*
Y234675D01*
X330453D01*
X330392Y234703D01*
X330052Y234713D01*
X329984Y234719D01*
Y234941D01*
X329463D01*
X329372Y234978D01*
X329313Y234954D01*
X329250Y234967D01*
X329211Y234941D01*
X326816D01*
Y232166D01*
X329211D01*
X329250Y232140D01*
X329313Y232153D01*
X329372Y232129D01*
X329463Y232166D01*
X329984D01*
Y232386D01*
X330209Y232402D01*
X330382Y232404D01*
X330446Y232432D01*
X332928D01*
X332928Y232432D01*
X333358Y232517D01*
X333721Y232761D01*
X333750Y232789D01*
X333816Y232816D01*
X334069Y233062D01*
X334265Y233241D01*
X334407Y233356D01*
X334434Y233376D01*
X338200D01*
Y238076D01*
D02*
G37*
G36*
X293234Y237283D02*
X288797D01*
Y233830D01*
X293234D01*
Y237283D01*
D02*
G37*
G36*
X344025Y238076D02*
X340176D01*
X339001Y236901D01*
Y234551D01*
X340176Y233376D01*
X344025D01*
X345200Y234551D01*
Y236901D01*
X344025Y238076D01*
D02*
G37*
G36*
X348386Y229520D02*
X347337Y228470D01*
X348247Y227560D01*
X349297Y228609D01*
X348386Y229520D01*
D02*
G37*
G36*
X345200Y223805D02*
X343964D01*
X344004Y223603D01*
X344402Y223008D01*
X344998Y222610D01*
X345200Y222570D01*
Y223805D01*
D02*
G37*
G36*
X301621Y219932D02*
X290579D01*
Y208890D01*
X301621D01*
Y213228D01*
X301630Y213230D01*
X301726Y213246D01*
X301854Y213257D01*
X302026Y213262D01*
X302088Y213289D01*
X314503D01*
X315115Y212677D01*
X315247Y212163D01*
X314897Y211639D01*
X314774Y211021D01*
X314897Y210403D01*
X315247Y209879D01*
X315771Y209529D01*
X316389Y209406D01*
X320326D01*
X320944Y209529D01*
X321468Y209879D01*
X321818Y210403D01*
X321941Y211021D01*
X321818Y211639D01*
X321468Y212163D01*
X320944Y212514D01*
X320326Y212637D01*
X318829D01*
X318799Y212650D01*
X318699Y212653D01*
X318630Y212662D01*
X318555Y212681D01*
X318473Y212710D01*
X318382Y212751D01*
X318284Y212806D01*
X318179Y212876D01*
X318067Y212961D01*
X317948Y213062D01*
X317814Y213190D01*
X317750Y213214D01*
X317021Y213944D01*
X317212Y214406D01*
X320326D01*
X320944Y214529D01*
X321468Y214879D01*
X321818Y215403D01*
X321941Y216021D01*
X321818Y216639D01*
X321468Y217163D01*
X320944Y217514D01*
X320326Y217637D01*
X316389D01*
X315771Y217514D01*
X315247Y217163D01*
X314897Y216639D01*
X314774Y216021D01*
X314794Y215919D01*
X314477Y215533D01*
X302088D01*
X302026Y215560D01*
X301854Y215565D01*
X301726Y215576D01*
X301630Y215592D01*
X301621Y215594D01*
Y219932D01*
D02*
G37*
G36*
X320093Y195557D02*
X318858D01*
Y194322D01*
X319060Y194362D01*
X319655Y194760D01*
X320053Y195355D01*
X320093Y195557D01*
D02*
G37*
G36*
X317858D02*
X316622D01*
X316662Y195355D01*
X317060Y194760D01*
X317655Y194362D01*
X317858Y194322D01*
Y195557D01*
D02*
G37*
G36*
X382700Y194836D02*
Y193600D01*
X383936D01*
X383896Y193802D01*
X383498Y194398D01*
X382902Y194796D01*
X382700Y194836D01*
D02*
G37*
G36*
X381700D02*
X381498Y194796D01*
X380902Y194398D01*
X380504Y193802D01*
X380464Y193600D01*
X381700D01*
Y194836D01*
D02*
G37*
G36*
X386200Y194527D02*
X385654Y194419D01*
X385191Y194109D01*
X384881Y193646D01*
X384773Y193100D01*
X384881Y192554D01*
X385191Y192091D01*
X385654Y191781D01*
X386200Y191673D01*
X386746Y191781D01*
X387209Y192091D01*
X387519Y192554D01*
X387627Y193100D01*
X387519Y193646D01*
X387209Y194109D01*
X386746Y194419D01*
X386200Y194527D01*
D02*
G37*
G36*
X383936Y192600D02*
X382700D01*
Y191364D01*
X382902Y191404D01*
X383498Y191802D01*
X383896Y192398D01*
X383936Y192600D01*
D02*
G37*
G36*
X381700D02*
X380464D01*
X380504Y192398D01*
X380902Y191802D01*
X381498Y191404D01*
X381700Y191364D01*
Y192600D01*
D02*
G37*
G36*
X438041Y182954D02*
X433604D01*
Y174580D01*
X438041D01*
Y182954D01*
D02*
G37*
G36*
X432604D02*
X428167D01*
Y174580D01*
X432604D01*
Y182954D01*
D02*
G37*
G36*
X438041Y173580D02*
X433604D01*
Y165206D01*
X438041D01*
Y173580D01*
D02*
G37*
G36*
X432604D02*
X428167D01*
Y165206D01*
X432604D01*
Y173580D01*
D02*
G37*
G36*
X423474Y165237D02*
X415100D01*
Y160800D01*
X423474D01*
Y165237D01*
D02*
G37*
G36*
X414100D02*
X405726D01*
Y160800D01*
X414100D01*
Y165237D01*
D02*
G37*
G36*
X423474Y159800D02*
X415100D01*
Y155363D01*
X423474D01*
Y159800D01*
D02*
G37*
G36*
X414100D02*
X405726D01*
Y155363D01*
X414100D01*
Y159800D01*
D02*
G37*
%LPD*%
G36*
X486701Y246249D02*
X486725Y246238D01*
X486757Y246229D01*
X486798Y246222D01*
X486847Y246215D01*
X486971Y246205D01*
X487218Y246200D01*
Y245200D01*
X487127Y245199D01*
X486798Y245178D01*
X486757Y245171D01*
X486725Y245162D01*
X486701Y245151D01*
X486685Y245140D01*
Y246260D01*
X486701Y246249D01*
D02*
G37*
G36*
X334193Y233980D02*
X334144Y233959D01*
X334085Y233924D01*
X334014Y233875D01*
X333841Y233733D01*
X333624Y233535D01*
X333363Y233280D01*
X332575Y233907D01*
X332590Y233922D01*
X332612Y233948D01*
X332620Y233959D01*
X332625Y233967D01*
X332627Y233975D01*
X332627Y233980D01*
X332625Y233984D01*
X332620Y233987D01*
X332612Y233988D01*
X334231D01*
X334193Y233980D01*
D02*
G37*
G36*
X329382Y234277D02*
X329412Y234230D01*
X329462Y234189D01*
X329532Y234153D01*
X329622Y234122D01*
X329732Y234098D01*
X329862Y234078D01*
X330012Y234065D01*
X330372Y234053D01*
Y233053D01*
X330182Y233051D01*
X329862Y233029D01*
X329732Y233010D01*
X329622Y232985D01*
X329532Y232954D01*
X329462Y232919D01*
X329412Y232877D01*
X329382Y232831D01*
X329372Y232778D01*
Y234329D01*
X329382Y234277D01*
D02*
G37*
G36*
X301007Y215316D02*
X301038Y215231D01*
X301088Y215156D01*
X301159Y215091D01*
X301250Y215036D01*
X301362Y214991D01*
X301493Y214956D01*
X301645Y214931D01*
X301817Y214916D01*
X302009Y214911D01*
Y213911D01*
X301817Y213906D01*
X301645Y213891D01*
X301493Y213866D01*
X301362Y213831D01*
X301250Y213786D01*
X301159Y213731D01*
X301088Y213666D01*
X301038Y213591D01*
X301007Y213506D01*
X300997Y213411D01*
Y215411D01*
X301007Y215316D01*
D02*
G37*
G36*
X317513Y212580D02*
X317659Y212455D01*
X317803Y212346D01*
X317946Y212251D01*
X318088Y212172D01*
X318229Y212107D01*
X318369Y212058D01*
X318507Y212024D01*
X318644Y212005D01*
X318780Y212001D01*
X316027Y211928D01*
X316152Y211940D01*
X316247Y211966D01*
X316313Y212007D01*
X316350Y212064D01*
X316357Y212135D01*
X316335Y212222D01*
X316283Y212324D01*
X316202Y212441D01*
X316092Y212573D01*
X315952Y212720D01*
X317366D01*
X317513Y212580D01*
D02*
G37*
%LPC*%
G36*
X366807Y179400D02*
X365707D01*
Y177943D01*
X366807Y179400D01*
D02*
G37*
G36*
X364707D02*
X361845D01*
Y176144D01*
X364707D01*
Y179400D01*
D02*
G37*
G36*
X368569D02*
X367545D01*
X367600Y179272D01*
X367769Y178976D01*
X367991Y178657D01*
X368265Y178312D01*
X368592Y177943D01*
X368971Y177550D01*
X367951Y175742D01*
X367522Y176157D01*
X366762Y176805D01*
X366430Y177038D01*
X366131Y177211D01*
X365865Y177323D01*
X365707Y177358D01*
Y176144D01*
X366536D01*
X367085Y175676D01*
X367499Y175275D01*
X367542Y175259D01*
X368069Y174731D01*
Y169598D01*
X368004Y169502D01*
X367964Y169300D01*
X371436D01*
X371396Y169502D01*
X371331Y169598D01*
Y175407D01*
X371207Y176031D01*
X370853Y176561D01*
X369456Y177959D01*
X369439Y178001D01*
X369069Y178384D01*
X368763Y178730D01*
X368569Y178973D01*
Y179400D01*
D02*
G37*
G36*
X371436Y168300D02*
X367964D01*
X368004Y168098D01*
X368069Y168002D01*
Y161198D01*
X368004Y161102D01*
X367964Y160900D01*
X371436D01*
X371396Y161102D01*
X371331Y161198D01*
Y168002D01*
X371396Y168098D01*
X371436Y168300D01*
D02*
G37*
G36*
X395476Y159500D02*
X393226D01*
Y158093D01*
X393595Y157511D01*
X393339Y157490D01*
X393226Y157464D01*
Y156500D01*
X394101D01*
X395476Y157875D01*
Y159500D01*
D02*
G37*
G36*
X392226Y157033D02*
X392138Y156981D01*
X391793Y156748D01*
X391431Y156472D01*
X390653Y155793D01*
X390406Y155553D01*
X389901Y155032D01*
X388874Y153837D01*
X388511Y153326D01*
X388290Y152945D01*
X389454D01*
Y153515D01*
X390381Y154594D01*
X390866Y155094D01*
X391093Y155315D01*
X391842Y155968D01*
X392172Y156220D01*
X392226Y156256D01*
Y157033D01*
D02*
G37*
G36*
X389454Y151945D02*
X388047D01*
X388058Y151860D01*
X388194Y151638D01*
X388430Y151473D01*
X387435Y151945D01*
X384320D01*
X379187D01*
Y149673D01*
X381423D01*
X381436Y149651D01*
X381536Y149406D01*
X381622Y149084D01*
X381688Y148688D01*
X381723Y148295D01*
X381710Y147905D01*
X381672Y147494D01*
X381619Y147146D01*
X381574Y146956D01*
X380531D01*
Y143700D01*
X387255D01*
Y146956D01*
X386211D01*
X386167Y147146D01*
X386115Y147486D01*
X386060Y148263D01*
X386098Y148688D01*
X386163Y149084D01*
X386250Y149406D01*
X386350Y149651D01*
X386363Y149673D01*
X389454D01*
Y151945D01*
D02*
G37*
%LPD*%
G36*
X386608Y150667D02*
X386353Y150577D01*
X386128Y150426D01*
X385933Y150215D01*
X385768Y149944D01*
X385633Y149613D01*
X385528Y149221D01*
X385453Y148770D01*
X385409Y148268D01*
X385469Y147414D01*
X385529Y147024D01*
X385606Y146694D01*
X385699Y146424D01*
X385809Y146214D01*
X385937Y146064D01*
X386082Y145974D01*
X386243Y145944D01*
X381543D01*
X381704Y145974D01*
X381849Y146064D01*
X381976Y146214D01*
X382087Y146424D01*
X382180Y146694D01*
X382257Y147024D01*
X382316Y147414D01*
X382359Y147864D01*
X382373Y148313D01*
X382333Y148770D01*
X382258Y149221D01*
X382153Y149613D01*
X382018Y149944D01*
X381853Y150215D01*
X381658Y150426D01*
X381433Y150577D01*
X381178Y150667D01*
X380893Y150697D01*
X386893D01*
X386608Y150667D01*
D02*
G37*
D10*
X568491Y241682D02*
X574300Y235873D01*
Y195326D02*
Y235873D01*
X568491Y189517D02*
X574300Y195326D01*
X373156Y231400D02*
X374377Y232621D01*
X373500Y239048D02*
X374377Y238171D01*
Y232621D02*
Y238171D01*
X371727Y231400D02*
X373156D01*
X369429Y233698D02*
X371727Y231400D01*
X370400Y239100D02*
X371600Y237900D01*
Y235869D02*
Y237900D01*
X370821Y235090D02*
X371600Y235869D01*
X353923Y216223D02*
X372910D01*
X384738Y228051D01*
Y228130D01*
X359772Y218300D02*
X372300D01*
X372124D02*
X372300D01*
X360072Y214600D02*
X383300D01*
X361256Y213000D02*
X378800D01*
X362440Y211400D02*
X378137D01*
X356902Y211429D02*
X360072Y214600D01*
X358294Y210037D02*
X361256Y213000D01*
X359686Y208645D02*
X362440Y211400D01*
X372124Y218300D02*
X383347Y229522D01*
X356902Y221171D02*
X359772Y218300D01*
X365400Y223000D02*
X367700Y225300D01*
X363424Y223000D02*
X365400D01*
X361078Y225346D02*
X363424Y223000D01*
X461347Y220053D02*
X475527Y205873D01*
X413214Y216605D02*
Y227453D01*
X559074Y180100D02*
X568491Y189517D01*
X487100Y180100D02*
X559074D01*
X477700Y189500D02*
X487100Y180100D01*
X350941Y224347D02*
X355510Y219779D01*
X350752Y224347D02*
X350941D01*
X400947Y222247D02*
X404200Y218994D01*
X398772Y229433D02*
Y230218D01*
Y229433D02*
X403453Y224752D01*
X477387Y210210D02*
X480745D01*
X475527Y208350D02*
X477387Y210210D01*
X475527Y205873D02*
Y208350D01*
X429018Y233571D02*
X433729D01*
X461347Y220053D02*
X461347Y220053D01*
X448655Y220053D02*
X461347D01*
X475527Y201055D02*
X490482Y186100D01*
X501357D01*
X471479Y242157D02*
X471590Y242046D01*
Y233145D02*
Y242046D01*
X467400Y242157D02*
X467653Y241904D01*
Y233145D02*
Y241904D01*
X461747Y233145D02*
Y240605D01*
X463300Y242157D01*
X459779Y233145D02*
Y241578D01*
X459200Y242157D02*
X459779Y241578D01*
X476521Y212179D02*
X480745D01*
X475700Y213000D02*
X476521Y212179D01*
X475700Y213000D02*
Y218500D01*
X477253Y220053D01*
X480745D01*
X422300Y237336D02*
X426647Y241966D01*
X475700Y224468D02*
X477191Y225958D01*
X475700Y220800D02*
Y224468D01*
Y220800D02*
X476400Y220100D01*
X480698D01*
X480745Y220053D01*
X477191Y225958D02*
X480745D01*
X484017Y235048D02*
X489529D01*
X473770Y224800D02*
X484017Y235048D01*
X456000Y224800D02*
X473770D01*
X485748Y239048D02*
X489529D01*
X473200Y226500D02*
X485748Y239048D01*
X457160Y226500D02*
X473200D01*
X493071Y211411D02*
X496311D01*
X493071Y218947D02*
X496400D01*
X493071Y231047D02*
X496524Y234500D01*
X486113Y245700D02*
X500628D01*
X473558Y233145D02*
X486113Y245700D01*
X536396Y186100D02*
X537192Y185304D01*
X504900Y186100D02*
X536396D01*
X535843Y244900D02*
X537192Y246249D01*
X504971Y244900D02*
X535843D01*
X530008Y238000D02*
X568491Y199517D01*
X495827Y238000D02*
X530008D01*
X492875Y235048D02*
X495827Y238000D01*
X540771Y241000D02*
X546171Y246400D01*
X494828Y241000D02*
X540771D01*
X492875Y239048D02*
X494828Y241000D01*
X546171Y246400D02*
X553773D01*
X568491Y231682D01*
X500628Y245700D02*
X501428Y244900D01*
X449228Y242157D02*
X459200D01*
X427121D02*
X449228D01*
X455400Y248329D01*
X426793Y241829D02*
X427121Y242157D01*
X417278Y245700D02*
X448000D01*
X413407Y241829D02*
X417278Y245700D01*
X503171Y225100D02*
X506100Y228029D01*
X527050Y222950D02*
X529400Y220600D01*
Y213300D02*
Y220600D01*
X524200Y208100D02*
X529400Y213300D01*
X522191Y222950D02*
X527050D01*
X522188Y222947D02*
X522191Y222950D01*
X521212Y222947D02*
X522188D01*
X516209Y227950D02*
X521212Y222947D01*
X510218Y227950D02*
X516209D01*
X503368Y221100D02*
X510218Y227950D01*
X514137Y223100D02*
X514200D01*
X506900Y215863D02*
X514137Y223100D01*
X506900Y212732D02*
Y215863D01*
X503368Y209200D02*
X506900Y212732D01*
X511400Y218100D02*
X524200D01*
X508500Y215200D02*
X511400Y218100D01*
X508500Y210528D02*
Y215200D01*
X503171Y205200D02*
X508500Y210528D01*
X493072Y203115D02*
X504414D01*
X514200Y212901D02*
Y213100D01*
X504414Y203115D02*
X514200Y212901D01*
X493072Y203115D02*
Y203400D01*
X501925Y193000D02*
X507700D01*
X499725Y195200D02*
X501925Y193000D01*
X502025Y198100D02*
X524200D01*
X499825Y200300D02*
X502025Y198100D01*
X503171Y200300D02*
X506300D01*
X503071Y195200D02*
X506400D01*
X353900Y216200D02*
X353923Y216223D01*
X378137Y211400D02*
X390943Y198594D01*
X378800Y213000D02*
X391605Y200195D01*
X383300Y214600D02*
X396106Y201795D01*
X390943Y198594D02*
X435051D01*
X391605Y200195D02*
X434388D01*
X364025Y183756D02*
X377779Y197510D01*
X390794Y192847D02*
X445628D01*
X381955Y201686D02*
X390794Y192847D01*
X391824Y194600D02*
X439847D01*
X383347Y203078D02*
X391824Y194600D01*
X372700Y202400D02*
X374377Y200723D01*
Y198006D02*
Y200723D01*
X356400Y180029D02*
X374377Y198006D01*
X390306Y210037D02*
X396949Y203395D01*
X397380Y205747D02*
X400353D01*
X391698Y211429D02*
X397380Y205747D01*
X387522Y207254D02*
X391776Y203000D01*
X370144Y202400D02*
X372700D01*
X396106Y201795D02*
X433726D01*
X396949Y203395D02*
X431998D01*
X436975Y208372D01*
X439847Y194600D02*
X442047Y196800D01*
X431000Y205743D02*
X433629Y208372D01*
X441896Y199514D02*
X448655Y206273D01*
X441814Y199514D02*
X441896D01*
X455600Y239000D02*
X457810Y236790D01*
X438504Y239000D02*
X455600D01*
X437076Y237571D02*
X438504Y239000D01*
X454868Y233571D02*
X455568Y232871D01*
X437075Y233571D02*
X454868D01*
X436975Y227971D02*
X442925Y222021D01*
X448655D01*
X435484Y216116D02*
X436975Y214625D01*
X435200Y216400D02*
X435484Y216116D01*
X448655D01*
X436862Y218084D02*
X448655D01*
X435200Y219746D02*
X436862Y218084D01*
X433726Y201795D02*
X444110Y212179D01*
X434388Y200195D02*
X444404Y210210D01*
X436975Y208372D02*
X442751Y214147D01*
X448655D01*
X435051Y198594D02*
X444698Y208242D01*
X448655D01*
X444404Y210210D02*
X448655D01*
X444110Y212179D02*
X448655D01*
X436975Y212371D02*
Y214625D01*
X499624Y195300D02*
X499725Y195200D01*
X492875Y195300D02*
X499624D01*
X498925Y199400D02*
X499825Y200300D01*
X492875Y199400D02*
X498925D01*
X480745Y204084D02*
X489529Y195300D01*
X480745Y204084D02*
Y206273D01*
X487300Y205629D02*
Y207700D01*
X484790Y210210D02*
X487300Y207700D01*
X480745Y210210D02*
X484790D01*
X485700Y203229D02*
Y206800D01*
X484258Y208242D02*
X485700Y206800D01*
X480745Y208242D02*
X484258D01*
X485700Y203229D02*
X489529Y199400D01*
X487300Y205629D02*
X489529Y203400D01*
X492875Y203596D02*
X493072Y203400D01*
X492875Y203596D02*
Y207400D01*
X489528Y211411D02*
X489529Y211411D01*
Y207400D02*
Y211411D01*
X488761Y212179D02*
X489528Y211411D01*
X480745Y212179D02*
X488761D01*
X499825Y205200D02*
Y209200D01*
X503171Y212547D01*
Y213200D01*
X498878Y214147D02*
X499825Y213200D01*
X480745Y214147D02*
X498878D01*
X498740Y216116D02*
X499825Y217200D01*
X480745Y216116D02*
X498740D01*
X499825Y220547D02*
X503171Y217200D01*
X499825Y220547D02*
Y221100D01*
Y225100D01*
X492875Y226294D02*
Y226948D01*
X489529Y222948D02*
X492875Y226294D01*
X493071Y218947D02*
Y219405D01*
X489529Y222948D02*
X493071Y219405D01*
X488423Y220053D02*
X489528Y218947D01*
X480745Y220053D02*
X488423D01*
X501072Y227200D02*
X503171Y225100D01*
X497324Y227200D02*
X501072D01*
X493072Y222947D02*
X497324Y227200D01*
X488602Y222021D02*
X489529Y222948D01*
X480745Y222021D02*
X488602D01*
X486571Y223990D02*
X489529Y226948D01*
X480745Y223990D02*
X486571D01*
X492875Y226948D02*
X493071Y227144D01*
Y231047D01*
X475527Y201055D02*
Y205873D01*
X413214Y227453D02*
X417328D01*
X425947Y218834D01*
X434246Y230700D02*
X436975Y227971D01*
X429847Y230700D02*
X434246D01*
X426600Y227453D02*
X429847Y230700D01*
X433533Y237572D02*
X433729Y237375D01*
Y233571D02*
Y237375D01*
X457810Y233145D02*
Y236790D01*
X485800Y232500D02*
X488076D01*
X489528Y231047D01*
X476900Y244029D02*
Y246229D01*
X475028Y242157D02*
X476900Y244029D01*
X471500Y242157D02*
X475028D01*
X474800Y248329D02*
X476900Y246229D01*
X455400Y248329D02*
X474800D01*
X422300Y234700D02*
Y237336D01*
X417300Y234700D02*
X424547Y227453D01*
X426600D01*
X467400Y242157D02*
X471479D01*
X484439Y225958D02*
X489528Y231047D01*
X480745Y225958D02*
X484439D01*
X445400Y230500D02*
X453160D01*
X443700Y228800D02*
X445400Y230500D01*
X443700Y225458D02*
Y228800D01*
X453160Y230500D02*
X457160Y226500D01*
X473558Y229158D02*
Y233145D01*
X472500Y228100D02*
X473558Y229158D01*
X470500Y228100D02*
X472500D01*
X452873Y227927D02*
X456000Y224800D01*
X448655Y227927D02*
X452873D01*
X468300Y228100D02*
X469621Y229421D01*
X464500Y228100D02*
X468300D01*
X469621Y228979D02*
X470500Y228100D01*
X443700Y225458D02*
X445168Y223990D01*
X448655D01*
X419253Y210566D02*
X419470D01*
X423129Y206907D01*
X428764D01*
X433432Y211575D01*
Y212371D01*
X413214Y216605D02*
X419253Y210566D01*
X432900Y216400D02*
X435200D01*
X430000Y213500D02*
X432900Y216400D01*
X428880Y213500D02*
X430000D01*
X433646Y219746D02*
X435200D01*
X429000Y215100D02*
X433646Y219746D01*
X422987Y215100D02*
X429000D01*
X425947Y210566D02*
X428880Y213500D01*
X419253Y218834D02*
X422987Y215100D01*
X433432Y223871D02*
Y227971D01*
X428395Y218834D02*
X433432Y223871D01*
X425947Y218834D02*
X428395D01*
X455568Y232871D02*
X455842Y233145D01*
X389700Y248400D02*
X393100D01*
X387300D02*
X389700D01*
X469621Y228979D02*
Y229421D01*
X463716Y228884D02*
Y233145D01*
Y228884D02*
X464500Y228100D01*
X469621Y229421D02*
Y233145D01*
X471500Y245700D02*
X474600D01*
X456000D02*
X459200D01*
X467400D02*
X471500D01*
X463300D02*
X467400D01*
X459200D02*
X463300D01*
X469621Y199479D02*
X473700Y195400D01*
X469621Y199479D02*
Y201055D01*
X473700Y195400D02*
X475146D01*
X470947Y195600D02*
X473700Y192847D01*
X469750Y195600D02*
X470947D01*
X467653Y197697D02*
X469750Y195600D01*
X467653Y197697D02*
Y201055D01*
X475146Y195400D02*
X477700Y192847D01*
X465684Y196862D02*
X469700Y192847D01*
X465684Y196862D02*
Y201055D01*
X463716Y194831D02*
X465700Y192847D01*
X463716Y194831D02*
Y201055D01*
X461700Y192847D02*
X461747Y192894D01*
Y201055D01*
X457700Y192847D02*
X459779Y194925D01*
Y201055D01*
X453655Y192847D02*
Y193247D01*
X457810Y197403D01*
Y201055D01*
X449700Y192847D02*
X453154Y196300D01*
X454445D01*
X455842Y197697D01*
Y201055D01*
X445628Y192847D02*
X453837Y201055D01*
X453873D01*
X363129Y247171D02*
X368353Y241948D01*
X322500Y247171D02*
X363129D01*
X328443Y241229D02*
X328500D01*
X322500Y247171D02*
X328443Y241229D01*
X319600Y237962D02*
Y240924D01*
X322500Y243825D01*
X356495Y189495D02*
X361295D01*
X364050Y192250D02*
X365561D01*
X365528Y195000D02*
X369429Y198902D01*
X369426D02*
X369429D01*
X345700Y224306D02*
X348247Y226853D01*
X318357Y196057D02*
Y201021D01*
X328400Y241129D02*
X328500Y241229D01*
X328400Y236900D02*
Y241129D01*
Y233554D02*
X332928D01*
X335101Y235726D01*
X328500Y244575D02*
X333151D01*
X335101Y242626D01*
X344600Y206678D02*
X347822D01*
X457700Y186800D02*
Y189500D01*
X435300Y196500D02*
X438799D01*
X439447Y197148D01*
X362400Y197440D02*
X366645Y201686D01*
X346128Y203072D02*
X347800Y201400D01*
X344599Y203072D02*
X346128D01*
X361800Y199624D02*
X365253Y203078D01*
X346025Y213875D02*
X347800Y212100D01*
X344600Y213875D02*
X346025D01*
X362260Y197300D02*
X362400Y197440D01*
Y197600D01*
X361800Y199624D02*
Y199800D01*
X368037Y200294D02*
X370144Y202400D01*
X365561Y192250D02*
X370821Y197510D01*
X358000Y169609D02*
Y179367D01*
X350700Y162309D02*
X358000Y169609D01*
Y179367D02*
X362389Y183756D01*
X364025D01*
X350700Y156900D02*
Y162309D01*
X356400Y172600D02*
Y180029D01*
X350700Y166900D02*
X356400Y172600D01*
X393100Y248400D02*
X394247Y247253D01*
X383353Y244453D02*
X387300Y248400D01*
X400353Y205747D02*
X404900D01*
X441782Y199400D02*
X442047Y199135D01*
Y196800D02*
Y199135D01*
X393090Y219779D02*
X394600Y218269D01*
Y214331D02*
Y218269D01*
X393090Y212821D02*
X394600Y214331D01*
X397659Y208253D02*
X397848D01*
X393090Y212821D02*
X397659Y208253D01*
X461700Y189500D02*
X465700D01*
X457700D02*
X461700D01*
X453655D02*
X457700D01*
X449700D02*
X453655D01*
X436975Y221522D02*
Y223871D01*
X435200Y219746D02*
X436975Y221522D01*
X414299Y160000D02*
X414600Y160300D01*
X392726Y166999D02*
X393100Y167373D01*
Y174229D01*
X387522Y225346D02*
X392394Y230218D01*
X398772D01*
X386130Y226739D02*
X389028Y229636D01*
Y239962D01*
X380847Y239253D02*
Y241948D01*
Y239253D02*
X384738Y235362D01*
Y233698D02*
Y235362D01*
X381955Y230914D02*
X384738Y233698D01*
X389028Y239962D02*
X393813Y244747D01*
X396752D01*
X398772Y230218D02*
X400146D01*
X405714Y235787D01*
X403347Y238153D02*
X403348D01*
X396752Y244747D02*
X403347Y238153D01*
X296100Y200631D02*
X312968D01*
X318357Y206021D01*
X296100Y214411D02*
X314968D01*
X318357Y211021D01*
X343943Y206021D02*
X344600Y206678D01*
X338042Y206021D02*
X343943D01*
X343800Y211021D02*
X344600Y210221D01*
X338042Y211021D02*
X343800D01*
X342454Y216021D02*
X344600Y213875D01*
X338042Y216021D02*
X342454D01*
X342548Y201021D02*
X344599Y203072D01*
X338042Y201021D02*
X342548D01*
X331700Y194626D02*
X339499D01*
X344599Y199726D01*
X331300Y222447D02*
X339374D01*
X344600Y217221D01*
D12*
X350752Y176900D02*
Y205548D01*
X364050Y192250D01*
X350700Y146900D02*
X352528Y145072D01*
X363300D01*
Y148400D01*
X369700Y154800D01*
Y175407D01*
X365207Y179900D02*
X369700Y175407D01*
X365207Y179900D02*
X370107Y184800D01*
X383172D01*
X386300Y181672D01*
X468284Y188084D02*
X469700Y189500D01*
X468284Y188050D02*
Y188084D01*
X467347Y187113D02*
X468284Y188050D01*
X467313Y187113D02*
X467347D01*
X464600Y184400D02*
X467313Y187113D01*
X450728Y184400D02*
X464600D01*
X445628Y189500D02*
X450728Y184400D01*
X411100Y234700D02*
X417300D01*
X408567Y237233D02*
X411100Y234700D01*
X394600Y251200D02*
X408567Y237233D01*
X368353Y241948D02*
X380847D01*
X441900Y189500D02*
X445628D01*
X350752Y205548D02*
Y224347D01*
X386445Y251200D02*
X394600D01*
X380500Y245255D02*
X386445Y251200D01*
X397848Y208253D02*
X408567Y218972D01*
Y237233D01*
X380500Y242295D02*
Y245255D01*
Y242295D02*
X380847Y241948D01*
X350752Y224347D02*
X368353Y241948D01*
X473700Y189500D02*
X477700D01*
X469700D02*
X473700D01*
X348971Y141529D02*
X363300D01*
X345700Y144800D02*
X348971Y141529D01*
X345700Y144800D02*
Y171900D01*
X350700Y176900D01*
D18*
X426793Y241829D02*
D03*
X413407D02*
D03*
X426600Y227453D02*
D03*
X413214D02*
D03*
X370507Y143200D02*
D03*
X383893Y143200D02*
D03*
X378593Y179900D02*
D03*
X365207Y179900D02*
D03*
D19*
X499825Y209200D02*
D03*
X503368Y209200D02*
D03*
X489529Y235048D02*
D03*
X492875D02*
D03*
X489529Y239048D02*
D03*
X492875D02*
D03*
X503171Y205200D02*
D03*
X499825D02*
D03*
Y225100D02*
D03*
X503171D02*
D03*
X504900Y186100D02*
D03*
X501357Y186100D02*
D03*
X504971Y244900D02*
D03*
X501428Y244900D02*
D03*
X489529Y222948D02*
D03*
X493072Y222947D02*
D03*
X499825Y213200D02*
D03*
X503171D02*
D03*
X499825Y217200D02*
D03*
X503171D02*
D03*
X489529Y203400D02*
D03*
X493072Y203400D02*
D03*
X493071Y231047D02*
D03*
X489528Y231047D02*
D03*
X493071Y211411D02*
D03*
X489528Y211411D02*
D03*
X489529Y207400D02*
D03*
X492875D02*
D03*
X493071Y218947D02*
D03*
X489528Y218947D02*
D03*
X503071Y195200D02*
D03*
X499725D02*
D03*
X503171Y200300D02*
D03*
X499825D02*
D03*
X433533Y237572D02*
D03*
X437076Y237571D02*
D03*
X436975Y227971D02*
D03*
X433432Y227971D02*
D03*
X437075Y233571D02*
D03*
X433729D02*
D03*
X489529Y226948D02*
D03*
X492875D02*
D03*
X489529Y199400D02*
D03*
X492875D02*
D03*
X489529Y195300D02*
D03*
X492875D02*
D03*
X433629Y208372D02*
D03*
X436975D02*
D03*
Y223871D02*
D03*
X433432Y223871D02*
D03*
X436975Y212371D02*
D03*
X433432Y212371D02*
D03*
X499825Y221100D02*
D03*
X503368Y221100D02*
D03*
D20*
X393090Y219779D02*
D03*
X391698Y221171D02*
D03*
X390306Y222563D02*
D03*
X388914Y223955D02*
D03*
X387522Y225346D02*
D03*
X386130Y226739D02*
D03*
X384738Y228130D02*
D03*
X383347Y229522D02*
D03*
X381955Y230914D02*
D03*
X380563Y232306D02*
D03*
X379171Y233698D02*
D03*
X377779Y235090D02*
D03*
X355510Y212821D02*
D03*
X356902Y211429D02*
D03*
X358294Y210037D02*
D03*
X359686Y208645D02*
D03*
X361078Y207254D02*
D03*
X362470Y205862D02*
D03*
X363861Y204470D02*
D03*
X365253Y203078D02*
D03*
X366645Y201686D02*
D03*
X368037Y200294D02*
D03*
X369429Y198902D02*
D03*
X370821Y197510D02*
D03*
D21*
Y235090D02*
D03*
X369429Y233698D02*
D03*
X368037Y232306D02*
D03*
X366645Y230914D02*
D03*
X365253Y229522D02*
D03*
X363861Y228130D02*
D03*
X362470Y226739D02*
D03*
X361078Y225346D02*
D03*
X359686Y223955D02*
D03*
X358294Y222563D02*
D03*
X356902Y221171D02*
D03*
X355510Y219779D02*
D03*
X377779Y197510D02*
D03*
X379171Y198902D02*
D03*
X380563Y200294D02*
D03*
X381955Y201686D02*
D03*
X383347Y203078D02*
D03*
X387522Y207254D02*
D03*
X390306Y210037D02*
D03*
X391698Y211429D02*
D03*
X393090Y212821D02*
D03*
D22*
X380847Y241948D02*
D03*
X383353Y244453D02*
D03*
X439447Y197148D02*
D03*
X441814Y199514D02*
D03*
X403453Y224752D02*
D03*
X400947Y222247D02*
D03*
X363800Y192000D02*
D03*
X361295Y189495D02*
D03*
D23*
X419253Y210566D02*
D03*
Y218834D02*
D03*
X425947D02*
D03*
Y210566D02*
D03*
D24*
X459200Y245700D02*
D03*
X459200Y242157D02*
D03*
X467400Y245700D02*
D03*
X467400Y242157D02*
D03*
X471500Y245700D02*
D03*
X471500Y242157D02*
D03*
X463300Y245700D02*
D03*
X463300Y242157D02*
D03*
X445628Y189500D02*
D03*
X445628Y192847D02*
D03*
X435200Y216400D02*
D03*
Y219746D02*
D03*
X477700Y189500D02*
D03*
Y192847D02*
D03*
X473700Y189500D02*
D03*
Y192847D02*
D03*
X469700Y189500D02*
D03*
Y192847D02*
D03*
X465700Y189500D02*
D03*
Y192847D02*
D03*
X461700Y189500D02*
D03*
Y192847D02*
D03*
X457700Y189500D02*
D03*
Y192847D02*
D03*
X453655Y189500D02*
D03*
Y192847D02*
D03*
X449700Y189500D02*
D03*
X449700Y192847D02*
D03*
X322500Y247171D02*
D03*
X322500Y243825D02*
D03*
X344599Y199726D02*
D03*
Y203072D02*
D03*
X344600Y210221D02*
D03*
X344600Y206678D02*
D03*
X328400Y236900D02*
D03*
Y233554D02*
D03*
X328500Y241229D02*
D03*
X328500Y244575D02*
D03*
X344600Y217221D02*
D03*
Y213875D02*
D03*
X393100Y174229D02*
D03*
X393100Y177575D02*
D03*
X363300Y141529D02*
D03*
X363300Y145072D02*
D03*
X386300Y178129D02*
D03*
X386300Y181672D02*
D03*
D25*
X417300Y234700D02*
D03*
X422300D02*
D03*
D26*
X475527Y201055D02*
D03*
X473558D02*
D03*
X469621Y201055D02*
D03*
X467653D02*
D03*
X465684D02*
D03*
X463716D02*
D03*
X461747Y201055D02*
D03*
X459779D02*
D03*
X457810Y201055D02*
D03*
X455842D02*
D03*
X453873D02*
D03*
X455842Y233145D02*
D03*
X457810D02*
D03*
X459779D02*
D03*
X461747D02*
D03*
X463716D02*
D03*
X465684D02*
D03*
X467653D02*
D03*
X469621D02*
D03*
X471590D02*
D03*
X473558D02*
D03*
D27*
X448655Y206273D02*
D03*
Y208242D02*
D03*
X448655Y210210D02*
D03*
Y212179D02*
D03*
X448655Y214147D02*
D03*
Y216116D02*
D03*
Y218084D02*
D03*
Y220053D02*
D03*
Y222021D02*
D03*
X448655Y223990D02*
D03*
Y225958D02*
D03*
Y227927D02*
D03*
X480745Y225958D02*
D03*
Y223990D02*
D03*
Y222021D02*
D03*
Y220053D02*
D03*
Y218084D02*
D03*
Y216116D02*
D03*
Y214147D02*
D03*
Y212179D02*
D03*
Y210210D02*
D03*
Y208242D02*
D03*
X480745Y206273D02*
D03*
D28*
X389028Y239962D02*
D03*
X398772Y230218D02*
D03*
D29*
X403348Y238153D02*
D03*
X405714Y235787D02*
D03*
X396752Y244747D02*
D03*
X394247Y247253D02*
D03*
X397848Y208253D02*
D03*
X400353Y205747D02*
D03*
X350752Y224347D02*
D03*
X348247Y226853D02*
D03*
D30*
X319528Y237861D02*
D03*
X288297Y237783D02*
D03*
D31*
X324700Y194626D02*
D03*
X335101Y235726D02*
D03*
X335101Y242626D02*
D03*
X324301Y222447D02*
D03*
D32*
X331700Y194626D02*
D03*
X342101Y235726D02*
D03*
X342101Y242626D02*
D03*
X331300Y222447D02*
D03*
D33*
X350700Y176900D02*
D03*
Y166900D02*
D03*
Y156900D02*
D03*
Y146900D02*
D03*
D03*
D34*
X338042Y201021D02*
D03*
D35*
Y206021D02*
D03*
Y211021D02*
D03*
Y216021D02*
D03*
X318357Y201021D02*
D03*
Y206021D02*
D03*
Y211021D02*
D03*
Y216021D02*
D03*
D36*
X392726Y166999D02*
D03*
D37*
Y160000D02*
D03*
D38*
X361879Y161500D02*
D03*
D39*
X384320Y170555D02*
D03*
Y161500D02*
D03*
Y152445D02*
D03*
D70*
X384744Y152017D02*
X392726Y160000D01*
X383893Y152017D02*
X384744D01*
X383893Y143200D02*
Y152017D01*
X324700Y194626D02*
X329826Y189500D01*
X337800D01*
X342300Y185000D01*
Y143100D02*
Y185000D01*
Y143100D02*
X347500Y137900D01*
X388000D01*
X401600Y151500D01*
Y171709D01*
X414600Y184709D01*
X380918Y177575D02*
X393100D01*
X334521Y211021D02*
X335726D01*
X324301Y222447D02*
X335726Y211021D01*
X338042D01*
X324700Y194626D02*
Y201201D01*
X334521Y211021D01*
X363300Y141529D02*
X368836D01*
X370507Y143200D01*
X382300Y161500D02*
X384320D01*
X370507Y149707D02*
X382300Y161500D01*
X370507Y143200D02*
Y149707D01*
X380918Y177575D02*
X384320Y174172D01*
X378593Y179900D02*
X380918Y177575D01*
X384320Y170555D02*
Y174172D01*
X393100Y177575D02*
X400234Y184709D01*
X414600D01*
D71*
X524200Y198100D02*
D03*
D72*
X514200Y203100D02*
D03*
X524200Y208100D02*
D03*
X514200Y213100D02*
D03*
X524200Y218100D02*
D03*
X514200Y223100D02*
D03*
X524200Y228100D02*
D03*
X514200Y233100D02*
D03*
X568491Y189517D02*
D03*
Y199517D02*
D03*
Y231682D02*
D03*
Y241682D02*
D03*
D73*
X537192Y185304D02*
D03*
Y246249D02*
D03*
D74*
X549200Y193100D02*
D03*
Y238100D02*
D03*
D75*
X296100Y214411D02*
D03*
D76*
Y200631D02*
D03*
D77*
X414600Y184709D02*
D03*
Y160300D02*
D03*
D78*
X433104Y174080D02*
D03*
D79*
X410074Y210037D02*
D03*
X305300Y193100D02*
D03*
X288600Y193044D02*
D03*
X305100Y223500D02*
D03*
X289400D02*
D03*
X424018Y140836D02*
D03*
X414500Y140800D02*
D03*
X405000Y140700D02*
D03*
X379500Y217800D02*
D03*
X420500Y241578D02*
D03*
X328600Y211500D02*
D03*
X541700Y204977D02*
D03*
Y215400D02*
D03*
X386200Y193100D02*
D03*
X382200D02*
D03*
X370400Y239100D02*
D03*
X373500Y239048D02*
D03*
X377300Y223500D02*
D03*
X365200Y218300D02*
D03*
X372300D02*
D03*
X367700Y225300D02*
D03*
X369700Y160400D02*
D03*
Y168800D02*
D03*
X404200Y218994D02*
D03*
X413200Y216800D02*
D03*
X429018Y233571D02*
D03*
X469400Y212100D02*
D03*
X465600Y215900D02*
D03*
X461347Y220053D02*
D03*
X475700Y213000D02*
D03*
X496311Y211411D02*
D03*
X496400Y218947D02*
D03*
X496524Y234500D02*
D03*
X486113Y245700D02*
D03*
X448000D02*
D03*
X456000D02*
D03*
X506100Y228029D02*
D03*
X507700Y193000D02*
D03*
X506400Y195200D02*
D03*
X506300Y200300D02*
D03*
X353900Y216200D02*
D03*
X391776Y203000D02*
D03*
X399500Y196500D02*
D03*
X431000Y205743D02*
D03*
X485800Y232500D02*
D03*
X475028Y242157D02*
D03*
X474600Y245700D02*
D03*
X457700Y186800D02*
D03*
X319600Y237962D02*
D03*
X356495Y189495D02*
D03*
X365528Y195000D02*
D03*
X351400Y236562D02*
D03*
X345700Y224306D02*
D03*
X318357Y196057D02*
D03*
X342101Y235726D02*
D03*
X342101Y242626D02*
D03*
X288469Y237783D02*
D03*
X347822Y206678D02*
D03*
X392726Y160000D02*
D03*
X350752Y176900D02*
D03*
X441900Y189500D02*
D03*
X435300Y196500D02*
D03*
X347800Y201400D02*
D03*
Y212100D02*
D03*
X362400Y197600D02*
D03*
X361800Y199800D02*
D03*
X389700Y248400D02*
D03*
X404900Y205747D02*
D03*
M02*
