G04*
G04 #@! TF.GenerationSoftware,Altium Limited,Altium Designer,18.1.9 (240)*
G04*
G04 Layer_Color=255*
%FSLAX25Y25*%
%MOIN*%
G70*
G01*
G75*
%ADD24R,0.01968X0.01575*%
%ADD71R,0.07500X0.07500*%
%ADD72C,0.07500*%
%ADD73O,0.09843X0.07874*%
%ADD74C,0.13000*%
%ADD75R,0.09843X0.09843*%
%ADD76C,0.09843*%
%ADD77R,0.15748X0.07874*%
%ADD78R,0.07874X0.15748*%
%ADD80R,0.03000X0.03000*%
%ADD81R,0.08661X0.06890*%
%ADD82P,0.04243X4X270.0*%
%ADD83P,0.04243X4X360.0*%
D24*
X288100Y209271D02*
D03*
Y205925D02*
D03*
D71*
X524200Y198100D02*
D03*
D72*
X514200Y203100D02*
D03*
X524200Y208100D02*
D03*
X514200Y213100D02*
D03*
X524200Y218100D02*
D03*
X514200Y223100D02*
D03*
X524200Y228100D02*
D03*
X514200Y233100D02*
D03*
X568491Y189517D02*
D03*
Y199517D02*
D03*
Y231682D02*
D03*
Y241682D02*
D03*
D73*
X537192Y185304D02*
D03*
Y246249D02*
D03*
D74*
X549200Y193100D02*
D03*
Y238100D02*
D03*
D75*
X296100Y214411D02*
D03*
D76*
Y200631D02*
D03*
D77*
X414600Y184709D02*
D03*
Y160300D02*
D03*
D78*
X433104Y174080D02*
D03*
D80*
X301341Y237962D02*
D03*
X306459D02*
D03*
D81*
X404745Y172200D02*
D03*
X422855D02*
D03*
D82*
X354981Y232981D02*
D03*
X358600Y236600D02*
D03*
D83*
X395395Y199381D02*
D03*
X391776Y203000D02*
D03*
M02*
