G04*
G04 #@! TF.GenerationSoftware,Altium Limited,Altium Designer,18.1.9 (240)*
G04*
G04 Layer_Color=32896*
%FSLAX25Y25*%
%MOIN*%
G70*
G01*
G75*
%ADD10C,0.01000*%
%ADD13C,0.00800*%
%ADD16C,0.00600*%
D10*
X400800Y177700D02*
G03*
X400800Y177700I-500J0D01*
G01*
X403800Y178200D02*
X424430D01*
Y166200D02*
Y167850D01*
X403800Y166200D02*
X424430D01*
Y176452D02*
Y178200D01*
X403800Y166200D02*
Y168200D01*
X407300Y166885D02*
Y168200D01*
X403800Y176200D02*
Y178200D01*
X407300Y176200D02*
Y177515D01*
X412600Y172200D02*
X415100Y173400D01*
X412600Y172200D02*
X414800Y171000D01*
Y172400D01*
X413710Y172200D02*
X414800Y172400D01*
D13*
X305400Y240521D02*
X309018D01*
X305400Y235403D02*
X309018D01*
X298782Y240521D02*
X302400D01*
X298782Y235403D02*
X302400D01*
X298782D02*
Y240521D01*
X309018Y235403D02*
Y240521D01*
X411855Y172200D02*
X415355Y174200D01*
Y170200D02*
Y174200D01*
X411855Y172200D02*
X415355Y170200D01*
X411855D02*
Y174200D01*
X354981Y229362D02*
X362219Y236600D01*
X351362Y232981D02*
X354981Y229362D01*
X351362Y232981D02*
X358600Y240219D01*
X362219Y236600D01*
X391776Y206619D02*
X399014Y199381D01*
X395395Y195762D02*
X399014Y199381D01*
X388157Y203000D02*
X395395Y195762D01*
X388157Y203000D02*
X391776Y206619D01*
D16*
X303900Y237962D02*
X304200D01*
X303600D02*
X303900D01*
Y237062D02*
Y238861D01*
X286328Y210846D02*
X289871D01*
X286328Y204350D02*
X289871D01*
X286328D02*
Y210846D01*
X289871Y204350D02*
Y210846D01*
M02*
